<?xml version="1.0" encoding="utf-8"?>
<!-- Generator: Adobe Illustrator 18.1.1, SVG Export Plug-In . SVG Version: 6.00 Build 0)  -->
<!DOCTYPE svg PUBLIC "-//W3C//DTD SVG 1.1//EN" "http://www.w3.org/Graphics/SVG/1.1/DTD/svg11.dtd">
<svg version="1.1" id="Layer_1" xmlns="http://www.w3.org/2000/svg" xmlns:xlink="http://www.w3.org/1999/xlink" x="0px" y="0px"
	 viewBox="0 0 30 30" enable-background="new 0 0 30 30" xml:space="preserve">
<path d="M12.6,7.1c0.5,0.5,0.8,1.1,0.8,1.9c0,0.5-0.1,0.9-0.4,1.3s-0.6,0.7-1,0.9V20c0.4,0.2,0.7,0.6,1,0.9s0.4,0.8,0.4,1.3
	c0,0.8-0.3,1.4-0.8,1.9S11.4,25,10.7,25c-0.8,0-1.4-0.3-1.9-0.8S8,23.1,8,22.3c0-0.5,0.1-0.9,0.4-1.3s0.6-0.7,1-0.9v-8.7
	c-0.4-0.2-0.7-0.6-1-0.9S8,9.5,8,9c0-0.8,0.3-1.4,0.8-1.9s1.1-0.8,1.9-0.8C11.4,6.3,12.1,6.6,12.6,7.1z M11.6,9.9
	C11.9,9.7,12,9.4,12,9s-0.1-0.7-0.4-0.9S11,7.7,10.7,7.7S10,7.8,9.7,8.1S9.4,8.6,9.4,9s0.1,0.7,0.4,0.9s0.6,0.4,0.9,0.4
	C11,10.3,11.4,10.2,11.6,9.9z M11.6,23.3c0.2-0.2,0.4-0.6,0.4-0.9s-0.1-0.7-0.4-0.9S11,21,10.7,21s-0.7,0.1-0.9,0.4S9.4,22,9.4,22.3
	s0.1,0.7,0.4,0.9s0.6,0.4,0.9,0.4C11,23.7,11.4,23.5,11.6,23.3z M23.6,21c0.2,0.4,0.4,0.8,0.4,1.3c0,0.8-0.3,1.4-0.8,1.9
	S22.1,25,21.3,25c-0.8,0-1.4-0.3-1.9-0.8s-0.8-1.1-0.8-1.9c0-0.5,0.1-0.9,0.4-1.3c0.2-0.4,0.6-0.7,1-0.9v-8.4c0-0.3-0.2-0.7-0.4-0.9
	c-0.3-0.3-0.6-0.4-0.9-0.4h-1.3V13l-4-4l4-4v2.7c0,0,0,0,0.2,0h1.2c1,0,2,0.5,2.8,1.3c0.8,0.8,1.2,1.7,1.2,2.8v4.9
	c0,2.1,0,3.2,0,3.4C23.1,20.3,23.4,20.6,23.6,21z M22.3,23.3c0.2-0.2,0.4-0.6,0.4-0.9s-0.1-0.7-0.4-0.9S21.7,21,21.3,21
	s-0.7,0.1-0.9,0.4S20,22,20,22.3s0.1,0.7,0.4,0.9s0.6,0.4,0.9,0.4C21.7,23.7,22,23.5,22.3,23.3z"/>
</svg>
