<?xml version="1.0" encoding="utf-8"?>
<!-- Generator: Adobe Illustrator 18.1.1, SVG Export Plug-In . SVG Version: 6.00 Build 0)  -->
<!DOCTYPE svg PUBLIC "-//W3C//DTD SVG 1.1//EN" "http://www.w3.org/Graphics/SVG/1.1/DTD/svg11.dtd">
<svg version="1.1" id="Layer_1" xmlns="http://www.w3.org/2000/svg" xmlns:xlink="http://www.w3.org/1999/xlink" x="0px" y="0px"
	 viewBox="0 0 30 30" enable-background="new 0 0 30 30" xml:space="preserve">
<g>
	<path d="M22.4,7.8c2,2,3,4.5,3.1,7.4c0,2.4-0.7,4.4-2,6.2c-1.3,1.8-3,3-5.1,3.8c-0.3,0-0.4,0-0.6-0.1c-0.1-0.1-0.2-0.2-0.2-0.4
		l0-2.9c0-0.5-0.1-0.9-0.2-1.2c-0.1-0.3-0.3-0.6-0.5-0.7c1.2-0.1,2.3-0.5,3.3-1.2c1-0.7,1.5-2,1.5-4c0-0.6-0.1-1.1-0.3-1.6
		c-0.2-0.5-0.4-0.9-0.8-1.3c0.1-0.1,0.2-0.5,0.2-0.9c0.1-0.5,0-1.1-0.3-1.8c0,0-0.2,0-0.7,0c-0.5,0.1-1.2,0.4-2.2,1.1
		C16.8,10,15.9,9.8,15,9.8c-0.9,0-1.8,0.1-2.6,0.3c-1-0.6-1.7-1-2.2-1.1c-0.5-0.1-0.7-0.1-0.7,0C9.2,9.8,9.1,10.5,9.2,11
		c0.1,0.5,0.1,0.8,0.2,0.9c-0.3,0.4-0.6,0.8-0.8,1.3c-0.2,0.5-0.3,1-0.3,1.6c0.1,2,0.6,3.3,1.5,4c1,0.7,2.1,1.1,3.3,1.2
		c-0.2,0.1-0.3,0.3-0.4,0.6c-0.1,0.2-0.2,0.5-0.3,0.9c-0.3,0.2-0.8,0.3-1.4,0.3c-0.6,0-1.2-0.4-1.7-1.1c0,0-0.1-0.2-0.4-0.5
		c-0.3-0.3-0.7-0.5-1.2-0.6c-0.1,0-0.2,0-0.4,0.1c-0.2,0.1-0.1,0.3,0.3,0.6c0,0,0.1,0.1,0.4,0.3c0.3,0.2,0.5,0.6,0.8,1.2
		c0,0.1,0.2,0.4,0.7,0.9c0.5,0.5,1.4,0.6,2.9,0.4l0,1.9c0,0.2-0.1,0.3-0.2,0.4c-0.1,0.1-0.3,0.2-0.6,0.1c-2.1-0.7-3.8-2-5.1-3.8
		c-1.3-1.8-2-3.8-2-6.2c0.1-3,1.1-5.5,3.1-7.4c2-2,4.5-3,7.4-3.1C18,4.8,20.5,5.8,22.4,7.8z"/>
</g>
</svg>
