<?xml version="1.0" encoding="utf-8"?>
<!-- Generator: Adobe Illustrator 18.1.1, SVG Export Plug-In . SVG Version: 6.00 Build 0)  -->
<!DOCTYPE svg PUBLIC "-//W3C//DTD SVG 1.1//EN" "http://www.w3.org/Graphics/SVG/1.1/DTD/svg11.dtd">
<svg version="1.1" id="Layer_1" xmlns="http://www.w3.org/2000/svg" xmlns:xlink="http://www.w3.org/1999/xlink" x="0px" y="0px"
	 viewBox="61 61 30 30" enable-background="new 61 61 30 30" xml:space="preserve">
<path d="M79.3,65.7c-0.1,0-0.2,0-0.2,0c0,0,0,0.2,0.1,0.4c0.1,0.3,0.2,0.4,0.5,0.4l0.5,0c0.1,0,0.1,0,0.2-0.1s0-0.2,0-0.4
	c-0.1-0.3-0.1-0.3-0.6-0.4C79.6,65.7,79.4,65.7,79.3,65.7z M75.4,66.4c-0.2,0-0.9,0.4-0.9,0.5c-0.1,0.2,0.6,1,0.8,1
	c0.1,0,0.3-0.1,0.5-0.2c0.2-0.1,0.4-0.3,0.4-0.4C76.2,67.1,75.6,66.4,75.4,66.4z M84.3,67c-0.2,0,0,0.4,0.3,0.6
	c0.4,0.3,0.6,0.3,0.6,0.2C85.2,67.7,84.4,67,84.3,67z M80,67.1c-0.3,0-0.6,0-1.2,0.1c-1.1,0.2-2.5,0.6-2.9,0.9
	c-1.7,1.1-3.2,2.8-4.6,5.1c-1.9,3.3-3,7.2-3.4,12.2l-0.1,0.9l0,0h4.9c2.7,0,4.9,0,5,0c0,0-0.1-0.6-0.4-1.2c-0.7-2.1-1.2-4.7-1.2-6.4
	c0-2.3,0.7-4.9,1.9-6.6c0.6-0.9,1.6-1.9,1.9-1.9c0.1,0,0.4-0.1,0.6-0.3c0.2-0.2,0.7-0.4,1.1-0.5c1.1-0.3,2.6-0.1,4,0.5
	c0.5,0.2,0.6,0.3,0.7,0.1c0.2-0.3,0.1-0.5-0.5-0.9c-1.4-1.2-3-1.8-5-2c-0.3,0-0.6,0-0.8,0L80,67.1L80,67.1z M71.2,69.7
	c-0.2,0-0.9,1-0.8,1.1c0.3,0.2,1.1,0.7,1.2,0.7c0,0,0.2-0.2,0.4-0.5s0.3-0.5,0.3-0.5C72.2,70.5,71.6,70,71.2,69.7
	C71.2,69.7,71.2,69.7,71.2,69.7z M84.3,69.9c-0.1,0-0.1,0-0.2,0c0,0-0.1,0.2,0,0.2c0.1,0.2,0.8,0.2,0.8,0
	C84.8,70,84.5,69.9,84.3,69.9z M81.4,70l-0.1,0c-0.3,0.1-0.6,0.2-0.6,0.3c0,0,0.1,0.1,0.2,0.2c0.1,0.1,0.2,0.2,0.2,0.3
	c0,0.1,0.1,0.2,0.5,0c0.3-0.1,0.3-0.2,0.2-0.6C81.6,70.1,81.6,70,81.4,70z M79,71.8c-0.1,0-0.4,0.3-0.4,0.4c0,0.2,0.5,0.9,0.6,0.9
	c0,0,0.1-0.1,0.2-0.2c0.1-0.2,0.1-0.3-0.1-0.6C79.2,72,79.1,71.8,79,71.8z M67.9,75c-0.1,0-0.5,1-0.5,1.3c0,0.1,1,0.6,1.3,0.6
	c0.1,0,0.2-0.2,0.4-0.6c0.2-0.5,0.2-0.6,0.1-0.7C69,75.3,68.1,75,67.9,75z M77.5,75L77.5,75c-0.1,0.1-0.2,0.2-0.2,0.3
	c0,0.1,0,0.2,0,0.3c0,0.1,0.1,0.3,0.4,0.5c0.5,0.4,0.5,0.4,0.6,0.2c0.1-0.4,0-0.7-0.3-1C77.7,75.1,77.6,75,77.5,75
	C77.5,75,77.5,75,77.5,75z M77,78.6c-0.1,0-0.1,0.1-0.1,0.2c0,0.5,0.1,0.6,0.6,0.9c0.7,0.3,0.8,0.3,0.7,0c-0.1-0.5-0.1-0.5-0.6-0.8
	C77.3,78.7,77.1,78.7,77,78.6z M66,81.3c-0.2,0-0.6,1.4-0.5,1.7c0,0.1,0.4,0.2,1.3,0.2l0.4,0l0.2-0.7c0.1-0.5,0.1-0.8,0.1-0.8
	C67.4,81.6,66.3,81.3,66,81.3z M77.7,83.3L77.7,83.3c-0.1,0,0,0.3,0,0.6c0.1,0.4,0.2,0.5,0.4,0.6c0.4,0,1.3,0.1,1.3,0
	c0-0.2-0.4-0.9-0.5-0.9C78.5,83.4,77.9,83.3,77.7,83.3z"/>
</svg>
