<?xml version="1.0" encoding="utf-8"?>
<!-- Generator: Adobe Illustrator 18.1.1, SVG Export Plug-In . SVG Version: 6.00 Build 0)  -->
<!DOCTYPE svg PUBLIC "-//W3C//DTD SVG 1.1//EN" "http://www.w3.org/Graphics/SVG/1.1/DTD/svg11.dtd">
<svg version="1.1" id="Layer_1" xmlns="http://www.w3.org/2000/svg" xmlns:xlink="http://www.w3.org/1999/xlink" x="0px" y="0px"
	 viewBox="0 0 30 30" enable-background="new 0 0 30 30" xml:space="preserve">
<path d="M8.3,11.2H3.6l-2,10.3H4l0.6-2.7h2.2c2.1,0.1,4.6-1.7,4.6-4.7C11.4,12.3,10.3,11.3,8.3,11.2z M6.5,16.9H5l0.7-3.8h1.7
	c0.9,0,1.6,0.3,1.6,1.1C8.7,16.5,7.7,16.8,6.5,16.9z"/>
<path d="M10.8,18.8l2-10.3h2.5l-0.6,2.7H17c2,0.1,2.8,1.1,2.6,2.5l-0.9,5.3h-2.6l0.9-4.7c0.1-0.7,0.1-1-0.8-1h-1.9l-1.1,5.7h-2.4
	V18.8z"/>
<path d="M25.4,11.2h-4.7l-2,10.3h2.5l0.6-2.7H24c2.1,0.1,4.6-1.7,4.6-4.7C28.4,12.3,27.4,11.3,25.4,11.2z M23.6,16.9h-1.6l0.7-3.8
	h1.7c0.9,0,1.6,0.3,1.6,1.1C25.7,16.5,24.7,16.8,23.6,16.9z"/>
</svg>
