<?xml version="1.0" encoding="utf-8"?>
<!-- Generator: Adobe Illustrator 18.1.1, SVG Export Plug-In . SVG Version: 6.00 Build 0)  -->
<!DOCTYPE svg PUBLIC "-//W3C//DTD SVG 1.1//EN" "http://www.w3.org/Graphics/SVG/1.1/DTD/svg11.dtd">
<svg version="1.1" id="Layer_1" xmlns="http://www.w3.org/2000/svg" xmlns:xlink="http://www.w3.org/1999/xlink" x="0px" y="0px"
	 viewBox="61 61 30 30" enable-background="new 61 61 30 30" xml:space="preserve">
<path d="M78.2,74.5c1.2,0,2.2-1,2.2-2.2v-3.7c0,0,0-1.5-0.7-2.2c-0.8-0.8-3-0.7-3-0.7H73c0,0-1.5,0.4-2.2,1.5C70,68.1,70,70,70,70
	h5.6c0.2,0,0.4,0.2,0.4,0.4s-0.2,0.4-0.4,0.4h-6.4c0,0-3.8,0-3.8,5.3l3,5.3v-3.1c0-2.1,1.7-3.8,3.8-3.8L78.2,74.5L78.2,74.5z
	 M72.4,68.8c-0.5,0-0.9-0.4-0.9-0.9c0-0.5,0.4-0.9,0.9-0.9s0.9,0.4,0.9,0.9C73.3,68.4,72.9,68.8,72.4,68.8z M83.5,70.7v3
	c0,2.1-1.7,3.8-3.8,3.8h-6c-1.2,0-2.2,1-2.2,2.2v3.8c0,0,0,1.5,0.7,2.2c0.8,0.8,2.2,0.7,2.2,0.7H79c0,0,1.5-0.4,2.2-1.5
	c0.8-1.1,0.7-3,0.7-3h-5.6c-0.2,0-0.4-0.2-0.4-0.4s0.2-0.4,0.4-0.4h6.4c0,0,3.8,0,3.8-5.3L83.5,70.7L83.5,70.7z M79.6,83.2
	c0.5,0,0.9,0.4,0.9,0.9S80.1,85,79.6,85c-0.5,0-0.9-0.4-0.9-0.9S79.1,83.2,79.6,83.2z"/>
</svg>
