<?xml version="1.0" encoding="utf-8"?>
<!-- Generator: Adobe Illustrator 18.1.1, SVG Export Plug-In . SVG Version: 6.00 Build 0)  -->
<!DOCTYPE svg PUBLIC "-//W3C//DTD SVG 1.1//EN" "http://www.w3.org/Graphics/SVG/1.1/DTD/svg11.dtd">
<svg version="1.1" id="Layer_1" xmlns="http://www.w3.org/2000/svg" xmlns:xlink="http://www.w3.org/1999/xlink" x="0px" y="0px"
	 viewBox="61 61 30 30" enable-background="new 61 61 30 30" xml:space="preserve">
<path d="M74.2,71.5c0.3,0,1.2,0.1,1.7,0.4c0.4,0.2,1-0.5,0.6-0.8c-0.4-0.4-0.7-0.5-2.3-1c-0.5-0.2-0.9-0.9-1.7-1.2
	c-0.3-0.1-1,0.1-1.3,0l-0.2-0.5c-0.2-0.4-0.6,0.1-0.8,0c-0.1-0.1-0.3-0.4-0.4-0.8c0.2-0.2,0.3-0.5,0.3-0.8c0-0.7-0.6-1.2-1.2-1.2
	s-1.2,0.6-1.2,1.2c0,0.6,0.5,1.1,1.1,1.2c0.1,0.2,0.1,0.5,0.1,0.7c0.1,0.4-0.7,0.3-0.7,0.5c0,0.1-0.1,0.7-0.3,1
	c-0.1,0.3-0.9,0.3-1.1,0.5c-0.2,0.2-0.2,0.8-0.1,0.9c-0.8,0.6-1.8,1.8-0.9,1.8c0.8-0.8,4.3-2,5.8-2.1C72.3,71.3,73.5,71.4,74.2,71.5
	z M81.8,84.2c-3.8-1-4.6-2.3-6.1-3.8c-1.9-2-1.7-7.9-1.7-7.9s-1.7-0.3-3.3,0c-1.7,0.3-4.1,1.4-4.1,1.4s0.3,3.9,3.4,8.2
	c3.2,4.3,7.6,4.6,10.6,4.3c2.9-0.2,5.8-1,5.8-1.8S85.6,85.2,81.8,84.2z"/>
</svg>
