<?xml version="1.0" encoding="utf-8"?>
<!-- Generator: Adobe Illustrator 18.1.1, SVG Export Plug-In . SVG Version: 6.00 Build 0)  -->
<!DOCTYPE svg PUBLIC "-//W3C//DTD SVG 1.1//EN" "http://www.w3.org/Graphics/SVG/1.1/DTD/svg11.dtd">
<svg version="1.1" id="Layer_1" xmlns="http://www.w3.org/2000/svg" xmlns:xlink="http://www.w3.org/1999/xlink" x="0px" y="0px"
	 viewBox="61 61 30 30" enable-background="new 61 61 30 30" xml:space="preserve">
<path d="M85.3,85.3L85.3,85.3L85.3,85.3l1.2-15.5l0,0c0-1.7-0.5-3.3-2.5-3.9c1,0.4,1.2,1.2,1.5,2.4L80,67.4l5.4,4.4l-0.3,0.5
	l-6.7,0.5l2.1,8.1l0,0l0,0l0.2,0.2l3.6,3.8H75c0.2-0.1,0.4-0.2,0.6-0.3v0c1.8-1,3.1-2.1,4.4-3.3l0.4-0.3l-8-2.6l0,0l0,0l6-5.5
	l1.7-5.4l0,0h0l3.2-1.8l0,0l0,0l-5.7,0l-0.1,0l-4.5,1.7c-1.4,1.3-4.2,3.9-4.3,4c-0.1,0-1.5,2.8-2.4,4.4L66,75.9l-0.2,0.3l0,0.1
	c-0.2,0.6-0.4,1.8-0.4,3.8c0,0.9,0.1,1.8,0.2,2.5c0,0.4,0.1,0.8,0.2,1.1c0.1,0.3,0.1,0.5,0.1,0.5l0.1,0c0.9,2,2.8,2.1,3.9,2.1l0,0
	L85.3,85.3L85.3,85.3L85.3,85.3L85.3,85.3L85.3,85.3z M67.1,79.6L67.1,79.6L67.1,79.6L66.3,81c-0.2-1.2-0.3-2.7-0.2-4.2L67.1,79.6
	L67.1,79.6z M70,86.3L70,86.3l-0.4-0.8c-0.9-2.3-2.3-5.7-2.5-5.9v0l5.2-1.2l0,0l0,0C72.4,78.4,70,86.3,70,86.3z M85.1,83.4l-1-7.1
	l1.6-3.3L85.1,83.4z"/>
</svg>
