<?xml version="1.0" encoding="utf-8"?>
<!-- Generator: Adobe Illustrator 18.1.1, SVG Export Plug-In . SVG Version: 6.00 Build 0)  -->
<!DOCTYPE svg PUBLIC "-//W3C//DTD SVG 1.1//EN" "http://www.w3.org/Graphics/SVG/1.1/DTD/svg11.dtd">
<svg version="1.1" id="Layer_1" xmlns="http://www.w3.org/2000/svg" xmlns:xlink="http://www.w3.org/1999/xlink" x="0px" y="0px"
	 viewBox="61 61 30 30" enable-background="new 61 61 30 30" xml:space="preserve">
<path d="M76,86.5c-0.3,0-0.6-0.1-0.8-0.2l-2.6-1.5c-0.4-0.2-0.2-0.3-0.1-0.3c0.5-0.2,0.6-0.2,1.2-0.5c0.1,0,0.1,0,0.2,0l2,1.2
	c0.1,0,0.2,0,0.2,0l7.7-4.4c0.1,0,0.1-0.1,0.1-0.2v-8.9c0-0.1,0-0.2-0.1-0.2l-7.7-4.4c-0.1,0-0.2,0-0.2,0l-7.7,4.4
	c-0.1,0-0.1,0.1-0.1,0.2v8.9c0,0.1,0,0.2,0.1,0.2l2.1,1.2c1.1,0.6,1.8-0.1,1.8-0.8v-8.8c0-0.1,0.1-0.2,0.2-0.2h1
	c0.1,0,0.2,0.1,0.2,0.2v8.8c0,1.5-0.8,2.4-2.3,2.4c-0.5,0-0.8,0-1.8-0.5l-2-1.1c-0.5-0.3-0.8-0.8-0.8-1.4v-8.9
	c0-0.6,0.3-1.1,0.8-1.4l7.7-4.4c0.5-0.3,1.1-0.3,1.6,0l7.7,4.4c0.5,0.3,0.8,0.8,0.8,1.4v8.9c0,0.6-0.3,1.1-0.8,1.4l-7.7,4.4
	C76.6,86.4,76.3,86.5,76,86.5L76,86.5z M78.4,80.4c-3.4,0-4.1-1.5-4.1-2.8c0-0.1,0.1-0.2,0.2-0.2h1c0.1,0,0.2,0.1,0.2,0.2
	c0.2,1,0.6,1.5,2.6,1.5c1.6,0,2.3-0.4,2.3-1.2c0-0.5-0.2-0.9-2.7-1.1c-2.1-0.2-3.4-0.7-3.4-2.4c0-1.6,1.3-2.5,3.5-2.5
	c2.5,0,3.7,0.8,3.8,2.7c0,0.1,0,0.1-0.1,0.2c0,0-0.1,0.1-0.2,0.1h-1c-0.1,0-0.2-0.1-0.2-0.2c-0.2-1.1-0.8-1.4-2.4-1.4
	c-1.8,0-2,0.6-2,1.1c0,0.6,0.2,0.7,2.6,1c2.4,0.3,3.5,0.8,3.5,2.4C82.2,79.4,80.8,80.4,78.4,80.4z"/>
</svg>
