<svg xmlns="http://www.w3.org/2000/svg" viewBox="0 0 60 60"><title>logo-icon-tomcat</title><path d="M10.382,36.706q1.024,1.263,2.276,2.553A10.264,10.264,0,0,0,7.64,42.548,9.427,9.427,0,0,0,5.426,49.1H1.24A60.012,60.012,0,0,1,10.382,36.706Z" style="fill:#d1a41a"/><path d="M58.874,50.246h-5.09c-11.677-6.093-21.928-10.39-32.818-11.328a21.1,21.1,0,0,1,.812-5.143l-1-.27a22.3,22.3,0,0,0-.844,5.334q-1.7-.114-3.429-0.113a14.092,14.092,0,0,0-2.678.247A36.514,36.514,0,0,1,11.1,35.95a46.393,46.393,0,0,1,20.5-11.744,24.782,24.782,0,0,0,11.66,14.463c0.387-.221.768-0.452,1.142-0.7l9.214,9.919,0.4-.035a5.138,5.138,0,0,1,4.324,1.573A2.89,2.89,0,0,1,58.874,50.246Z" style="fill:#d1a41a"/><path d="M54.379,17.068A22.277,22.277,0,0,1,43.357,37.243c-11.1-5.528-13.187-19.536-11.3-27.05,0.526,2.874,1.483,4.675,3.549,5.558a31,31,0,0,1,15.277-.132,8.509,8.509,0,0,0,3.044-5.346A40.738,40.738,0,0,1,54.379,17.068Z" style="fill:#ffdc76"/><polygon points="26.463 25.735 28.157 30.752 23.014 27.303 26.463 25.735"/><polygon points="21.509 27.93 23.328 31.066 19.502 29.122 21.509 27.93"/><polygon points="17.369 30.376 18.247 33.512 15.613 31.693 17.369 30.376"/><polygon points="45.404 38.78 43.773 41.289 46.658 39.972 45.404 38.78"/><polygon points="47.975 41.665 45.341 43.672 48.979 42.731 47.975 41.665"/><polygon points="41.578 14.446 43.522 18.71 44.777 14.383 41.578 14.446"/><polygon points="31.732 20.655 34.805 22.285 32.045 22.473 31.732 20.655"/><polygon points="32.484 23.979 34.366 24.731 32.798 25.17 32.484 23.979"/><polygon points="54.435 21.846 51.927 22.913 53.996 23.226 54.435 21.846"/><polygon points="53.432 24.919 51.488 25.484 53.055 26.048 53.432 24.919"/><rect x="30.722" y="29.626" width="6.053" height="0.747"/><rect x="30.722" y="27.833" width="6.053" height="0.747"/><rect x="49.204" y="29.626" width="6.053" height="0.747"/><rect x="49.204" y="27.833" width="6.053" height="0.747"/><path d="M47.071,23.4H37.207V22.73h3.07c0.378-1.618.453-3.165,0-3.949a0.9,0.9,0,0,0-.847-0.489,2.96,2.96,0,0,0-2.51,1.935h0l-0.63-.236a3.629,3.629,0,0,1,3.139-2.37,1.577,1.577,0,0,1,1.428.823c0.556,0.955.491,2.607,0.114,4.288h5.386c0.716-2.1,2.21-3.093,4.706-3.093v0.672c-2.706,0-3.464,1.147-4.005,2.421h2.939l-0.007.669Z"/><path d="M47.513,26.724h0A3.7,3.7,0,0,1,46.8,23.4l-0.685,0a3.765,3.765,0,0,0,.445,2.892H39.716A16.025,16.025,0,0,0,40.8,23.4H40.1a14.189,14.189,0,0,1-1.239,3.062l-0.159.28,3.84,2.418-2.162,1.425,0.37,0.562,2.417-1.593,2.609,1.7,0.358-.569-2.419-1.5s3.617-2.349,3.8-2.464Zm-4.35,2.031-2.841-1.788h5.551Z"/><path d="M55.507,16.257c0-1.169-.368-6.112-1.038-7.472-1.815.69-5.117,2.924-5.865,5.209a36.385,36.385,0,0,0-11.158.141c-0.591-2.459-3.557-4.34-5.8-5.4-0.944,1.593-1.362,5.286-1.256,7.906l-0.012.008c0.415,11,5.812,17.85,12.869,22A24.75,24.75,0,0,0,55.5,16.252Zm-6.042-2.121,0.079,0.015Zm-0.452-.078,0.191,0.032Zm5.364,2.993A22.278,22.278,0,0,1,43.356,37.226c-11.1-5.53-13.188-19.537-11.3-27.05,0.526,2.872,1.482,4.674,3.55,5.558A30.982,30.982,0,0,1,50.886,15.6a8.5,8.5,0,0,0,3.045-5.346A40.549,40.549,0,0,1,54.378,17.051Z"/><path d="M59.11,48.72a7.182,7.182,0,0,0-5.237-1.834c-1.323-1.575-9-9.654-9-9.654l-0.532.67,9.262,9.972,0.4-.034a5.147,5.147,0,0,1,4.326,1.573,2.929,2.929,0,0,1,.536.816H53.782C42.107,44.135,31.855,39.839,20.965,38.9a21.192,21.192,0,0,1,.811-5.143l-1-.271a22.308,22.308,0,0,0-.844,5.335q-1.7-.113-3.429-0.114a14.01,14.01,0,0,0-2.679.248A36.909,36.909,0,0,1,11.1,35.933,46.33,46.33,0,0,1,31.745,24.15l-0.234-1.014A47.708,47.708,0,0,0,10.434,35.073,16.215,16.215,0,0,1,7.093,27.8a7.891,7.891,0,0,1,1.614-6.2c2.167-2.692,5.247-2.882,8.413-2.35a1.944,1.944,0,0,0,.2,1.274c0.837,1.237,5.338,1.671,8.024.473-1.982-2.778-6-4.134-7.11-3.591a1.9,1.9,0,0,0-.837.9,17.848,17.848,0,0,0-2.976-.336A7.936,7.936,0,0,0,7.9,20.947a8.9,8.9,0,0,0-1.834,7,17.512,17.512,0,0,0,3.65,7.887q-0.515.552-.995,1.089C3.682,42.559,0,48.6,0,49.6v0.519H6.646l-0.116-.615a8.107,8.107,0,0,1,1.909-6.316,9.318,9.318,0,0,1,5.066-3.1A68.554,68.554,0,0,0,21.733,46.8h4.939V46.284a1.7,1.7,0,0,0-.818-1.443,3.683,3.683,0,0,0-3.091-.2,7.542,7.542,0,0,1-1.774-4.692c10.718,0.949,20.97,5.277,32.538,11.32h6.365l0.083-.417A2.715,2.715,0,0,0,59.11,48.72ZM7.64,42.53a9.429,9.429,0,0,0-2.214,6.555H1.239a60.207,60.207,0,0,1,9.143-12.4q1.023,1.265,2.277,2.554A10.258,10.258,0,0,0,7.64,42.53Z"/></svg>