<?xml version="1.0" encoding="utf-8"?>
<!-- Generator: Adobe Illustrator 18.1.1, SVG Export Plug-In . SVG Version: 6.00 Build 0)  -->
<!DOCTYPE svg PUBLIC "-//W3C//DTD SVG 1.1//EN" "http://www.w3.org/Graphics/SVG/1.1/DTD/svg11.dtd">
<svg version="1.1" id="Layer_1" xmlns="http://www.w3.org/2000/svg" xmlns:xlink="http://www.w3.org/1999/xlink" x="0px" y="0px"
	 viewBox="0 0 30 30" enable-background="new 0 0 30 30" xml:space="preserve">
<g>
	<g>
		<defs>
			<path id="SVGID_1_" d="M26.2,29H3.8C2.2,29,1,27.8,1,26.2V3.8C1,2.2,2.2,1,3.8,1h22.4C27.8,1,29,2.2,29,3.8v22.4
				C29,27.8,27.8,29,26.2,29z"/>
		</defs>
		<clipPath id="SVGID_2_">
			<use xlink:href="#SVGID_1_"  overflow="visible"/>
		</clipPath>
		<g clip-path="url(#SVGID_2_)">
			<g>
				<path fill="#70CADB" d="M-14.3,17.4c-2.6,0-4.9-1.6-5.7-4c0-0.1-0.1-0.2-0.1-0.3c-0.9-3.2,0.8-6.4,4-7.5l50.2-16.8
					c0.7-0.2,1.2-0.3,1.9-0.3c2.7,0,5,1.6,5.9,4.1L42-7c0.9,3.3-1.4,6.3-4.2,7.2c0,0-0.5,0.2-49.9,17.1
					C-12.9,17.3-13.7,17.4-14.3,17.4z"/>
			</g>
			<g>
				<path fill="#E01765" d="M-5.9,42.2c-2.7,0-4.9-1.5-5.7-3.9c0-0.1-0.1-0.2-0.1-0.3c-0.9-3.2,0.8-6.5,4-7.6l50.2-17
					c0.7-0.2,1.3-0.4,2-0.4c2.7,0,5,1.6,5.9,4.1l0.1,0.3c0.5,1.7,0.2,3.6-0.7,5.1c-0.7,1.1-3,2.1-3,2.1L-3.7,42
					C-4.5,42.1-5.3,42.2-5.9,42.2z"/>
			</g>
			<g>
				<path fill="#E8A723" d="M35.9,42.3c-2.7,0-5-1.7-5.9-4.2L13.2-11.7L13.1-12c-0.9-3.2,0.8-6.4,4-7.6c0.7-0.2,1.3-0.3,2-0.3
					c0.9,0,1.9,0.2,2.8,0.7c1.5,0.7,2.6,2,3.1,3.5l16.8,49.7l0.1,0.2c0.9,3.3-0.8,6.6-3.9,7.7C37.1,42.2,36.5,42.3,35.9,42.3z"/>
			</g>
			<g>
				<path fill="#3EB890" d="M11,50.7c-2.7,0-5-1.7-5.9-4.2L-11.7-3.3c0-0.1-0.1-0.2-0.1-0.3c-0.9-3.2,0.8-6.4,3.9-7.6
					c0.7-0.2,1.3-0.3,2-0.3c2.7,0,5,1.7,5.9,4.2l16.8,49.7c0,0.1,0.1,0.2,0.1,0.3c0.9,3.2-0.8,6.5-4,7.6
					C12.2,50.6,11.6,50.7,11,50.7z"/>
			</g>
			<polygon fill="#CC2027" points="27.6,31.1 39.3,27 35.4,15.7 23.8,19.7 			"/>
			<polygon fill="#361238" points="2.7,39.5 14.4,35.5 10.5,24.1 -1.1,28.1 			"/>
			<path fill="#65863A" d="M19.3,6.3c5.2-1.8,9.1-3.1,11.7-4L27.2-8.9L15.5-5L19.3,6.3z"/>
			<path fill="#1A937D" d="M-5.6,14.8c4.3-1.5,8.2-2.8,11.7-4L2.3-0.5L-9.4,3.4L-5.6,14.8z"/>
		</g>
	</g>
</g>
<path fill="#443642" d="M10.9,13.1c0-2,1.4-3.4,4-3.4c1.6,0,2.9,0.5,3.5,1c0.1,0.1,0.3,0.3,0.2,0.6c-0.1,0.4-0.4,0.8-0.6,1.2
	c-0.1,0.2-0.4,0.2-0.5,0.1c-0.5-0.3-1.3-0.7-2.1-0.7c-0.2,0-0.4,0-0.6,0c-0.7,0-1.2,0.3-1.4,0.7c0,0.1-0.1,0.2-0.1,0.3
	c0,0.7,0.9,0.9,2.1,1.1c2.1,0.4,3.6,0.9,3.6,3.1c0,1.9-1.5,3.5-4.3,3.5c-1.9,0-3.2-0.7-3.9-1.3c0,0-0.3-0.3-0.2-0.7
	c0.2-0.5,0.5-0.9,0.7-1.2c0.1-0.2,0.5-0.2,0.7-0.1c0.6,0.4,1.6,0.9,2.7,1c0.1,0,0.2,0,0.3,0c1,0,1.6-0.4,1.6-1
	c0-0.6-0.8-0.9-2.1-1.1C12.6,15.8,10.9,15.2,10.9,13.1"/>
</svg>
