<?xml version="1.0" encoding="utf-8"?>
<!-- Generator: Adobe Illustrator 18.1.1, SVG Export Plug-In . SVG Version: 6.00 Build 0)  -->
<!DOCTYPE svg PUBLIC "-//W3C//DTD SVG 1.1//EN" "http://www.w3.org/Graphics/SVG/1.1/DTD/svg11.dtd">
<svg version="1.1" id="Layer_1" xmlns="http://www.w3.org/2000/svg" xmlns:xlink="http://www.w3.org/1999/xlink" x="0px" y="0px"
	 viewBox="0 0 110 30" enable-background="new 0 0 110 30" xml:space="preserve">
<g>
	<g>
		<path id="outline_2_" fill-rule="evenodd" clip-rule="evenodd" fill="#394D54" d="M27.7,11.3h3.8v3.9h1.9c0.9,0,1.8-0.2,2.6-0.4
			c0.4-0.1,0.9-0.3,1.3-0.6c-0.5-0.7-0.8-1.6-0.9-2.4C36.4,10.5,36.6,9,37.4,8l0.4-0.5l0.5,0.4c1.2,1,2.2,2.3,2.4,3.8
			c1.4-0.4,3.1-0.3,4.4,0.4l0.5,0.3L45.3,13c-1.1,2.1-3.3,2.7-5.5,2.6c-3.3,8.2-10.4,12-19.1,12c-4.5,0-8.6-1.7-10.9-5.6l0-0.1
			l-0.3-0.7c-0.8-1.7-1.1-3.7-0.9-5.6l0.1-0.6h3.2v-3.9h3.8V7.5h7.6V3.7h4.5V11.3z"/>
		<g id="body_colors_2_">
			<path fill="#00AADA" d="M40,12.7c0.3-2-1.2-3.5-2.1-4.3c-1.1,1.2-1.2,4.4,0.4,5.8c-0.9,0.8-2.9,1.6-4.9,1.6H9.2
				c-0.2,2.1,0.2,4,1,5.6l0.3,0.5c0.2,0.3,0.4,0.6,0.6,0.9l0,0c1,0.1,1.9,0.1,2.8,0.1c0,0,0,0,0,0c1.7,0,3-0.2,4-0.6
				c0.2-0.1,0.3,0,0.4,0.2c0.1,0.2,0,0.3-0.2,0.4c-0.1,0-0.3,0.1-0.4,0.1c0,0,0,0,0,0c-0.8,0.2-1.7,0.4-2.8,0.5c0.1,0-0.1,0-0.1,0
				c0,0-0.1,0-0.1,0c-0.4,0-0.9,0-1.4,0c-0.5,0-1.1,0-1.6,0l0,0c2,2.3,5.2,3.6,9.2,3.6c8.4,0,15.5-3.7,18.7-12.1
				c2.2,0.2,4.4-0.3,5.4-2.2C43.2,11.8,41.2,12.1,40,12.7z"/>
			<path fill="#24B8EB" d="M40,12.7c0.3-2-1.2-3.5-2.1-4.3c-1.1,1.2-1.2,4.4,0.4,5.8c-0.9,0.8-2.9,1.6-4.9,1.6H10.6
				c-0.1,3.2,1.1,5.6,3.2,7.1c0,0,0,0,0,0c1.7,0,3-0.2,4-0.6c0.2-0.1,0.3,0,0.4,0.2c0.1,0.2,0,0.3-0.2,0.4c-0.1,0-0.3,0.1-0.4,0.1
				c0,0,0,0,0,0c-0.8,0.2-1.7,0.4-2.9,0.5c0,0,0,0,0,0c2.9,1.5,7,1.5,11.7-0.4c5.3-2,10.3-5.9,13.7-10.4
				C40.1,12.7,40.1,12.7,40,12.7z"/>
			<path fill="#008BB8" d="M9.2,18.3c0.2,1.1,0.5,2.2,1,3.1l0.3,0.5c0.2,0.3,0.4,0.6,0.6,0.9c1,0.1,1.9,0.1,2.8,0.1
				c1.7,0,3-0.2,4-0.6c0.2-0.1,0.3,0,0.4,0.2c0.1,0.2,0,0.3-0.2,0.4c-0.1,0-0.3,0.1-0.4,0.1c0,0,0,0,0,0c-0.8,0.2-1.7,0.4-2.9,0.5
				c0,0-0.1,0-0.1,0c-0.4,0-0.9,0-1.4,0c-0.5,0-1.1,0-1.7,0c2,2.3,5.2,3.6,9.2,3.6c7.2,0,13.4-2.7,17.1-8.8H9.2z"/>
			<path fill="#039BC6" d="M10.8,18.3c0.4,2,1.5,3.5,3,4.5c1.7,0,3-0.2,4-0.6c0.2-0.1,0.3,0,0.4,0.2c0.1,0.2,0,0.3-0.2,0.4
				c-0.1,0-0.3,0.1-0.4,0.1c0,0,0,0,0,0c-0.8,0.2-1.8,0.4-2.9,0.5c2.9,1.5,7,1.4,11.7-0.4c2.9-1.1,5.6-2.7,8.1-4.7H10.8z"/>
		</g>
		<g id="Containers_2_">
			<path fill-rule="evenodd" clip-rule="evenodd" fill="#00ACD3" d="M15.2,12.2h0.3v2.7h-0.3V12.2z M14.7,12.2H15v2.7h-0.3V12.2z
				 M14.2,12.2h0.3v2.7h-0.3V12.2z M13.7,12.2H14v2.7h-0.3V12.2z M13.2,12.2h0.3v2.7h-0.3V12.2z M12.7,12.2H13v2.7h-0.3V12.2z
				 M12.5,11.9h3.3v3.3h-3.3V11.9z"/>
			<path fill-rule="evenodd" clip-rule="evenodd" fill="#00ACD3" d="M19,8.4h0.3v2.7H19V8.4z M18.5,8.4h0.3v2.7h-0.3V8.4z M18,8.4
				h0.3v2.7H18V8.4z M17.5,8.4h0.3v2.7h-0.3V8.4z M17,8.4h0.3v2.7H17V8.4z M16.5,8.4h0.3v2.7h-0.3V8.4z M16.2,8.1h3.3v3.3h-3.3V8.1z
				"/>
			<path fill-rule="evenodd" clip-rule="evenodd" fill="#20C2EF" d="M19,12.2h0.3v2.7H19V12.2z M18.5,12.2h0.3v2.7h-0.3V12.2z
				 M18,12.2h0.3v2.7H18V12.2z M17.5,12.2h0.3v2.7h-0.3V12.2z M17,12.2h0.3v2.7H17V12.2z M16.5,12.2h0.3v2.7h-0.3V12.2z M16.2,11.9
				h3.3v3.3h-3.3V11.9z"/>
			<path fill-rule="evenodd" clip-rule="evenodd" fill="#00ACD3" d="M22.8,12.2H23v2.7h-0.3V12.2z M22.3,12.2h0.3v2.7h-0.3V12.2z
				 M21.8,12.2h0.3v2.7h-0.3V12.2z M21.3,12.2h0.3v2.7h-0.3V12.2z M20.8,12.2h0.3v2.7h-0.3V12.2z M20.3,12.2h0.3v2.7h-0.3V12.2z
				 M20,11.9h3.3v3.3H20V11.9z"/>
			<path fill-rule="evenodd" clip-rule="evenodd" fill="#20C2EF" d="M22.8,8.4H23v2.7h-0.3V8.4z M22.3,8.4h0.3v2.7h-0.3V8.4z
				 M21.8,8.4h0.3v2.7h-0.3V8.4z M21.3,8.4h0.3v2.7h-0.3V8.4z M20.8,8.4h0.3v2.7h-0.3V8.4z M20.3,8.4h0.3v2.7h-0.3V8.4z M20,8.1h3.3
				v3.3H20V8.1z"/>
			<path fill-rule="evenodd" clip-rule="evenodd" fill="#20C2EF" d="M26.6,12.2h0.3v2.7h-0.3V12.2z M26.1,12.2h0.3v2.7h-0.3V12.2z
				 M25.6,12.2h0.3v2.7h-0.3V12.2z M25.1,12.2h0.3v2.7h-0.3V12.2z M24.6,12.2h0.3v2.7h-0.3V12.2z M24.1,12.2h0.3v2.7h-0.3V12.2z
				 M23.8,11.9h3.3v3.3h-3.3V11.9z"/>
			<path fill-rule="evenodd" clip-rule="evenodd" fill="#00ACD3" d="M26.6,8.4h0.3v2.7h-0.3V8.4z M26.1,8.4h0.3v2.7h-0.3V8.4z
				 M25.6,8.4h0.3v2.7h-0.3V8.4z M25.1,8.4h0.3v2.7h-0.3V8.4z M24.6,8.4h0.3v2.7h-0.3V8.4z M24.1,8.4h0.3v2.7h-0.3V8.4z M23.8,8.1
				h3.3v3.3h-3.3V8.1z"/>
			<path fill-rule="evenodd" clip-rule="evenodd" fill="#20C2EF" d="M26.6,4.6h0.3v2.7h-0.3V4.6z M26.1,4.6h0.3v2.7h-0.3V4.6z
				 M25.6,4.6h0.3v2.7h-0.3V4.6z M25.1,4.6h0.3v2.7h-0.3V4.6z M24.6,4.6h0.3v2.7h-0.3V4.6z M24.1,4.6h0.3v2.7h-0.3V4.6z M23.8,4.3
				h3.3v3.3h-3.3V4.3z"/>
			<path fill-rule="evenodd" clip-rule="evenodd" fill="#00ACD3" d="M30.4,12.2h0.3v2.7h-0.3V12.2z M29.9,12.2h0.3v2.7h-0.3V12.2z
				 M29.4,12.2h0.3v2.7h-0.3V12.2z M28.9,12.2h0.3v2.7h-0.3V12.2z M28.4,12.2h0.3v2.7h-0.3V12.2z M27.9,12.2h0.3v2.7h-0.3V12.2z
				 M27.6,11.9h3.3v3.3h-3.3V11.9z"/>
		</g>
		<path fill-rule="evenodd" clip-rule="evenodd" fill="#D4EDF1" d="M19.3,20.5c0.5,0,0.9,0.4,0.9,0.9c0,0.5-0.4,0.9-0.9,0.9
			c-0.5,0-0.9-0.4-0.9-0.9C18.4,20.9,18.8,20.5,19.3,20.5"/>
		<path fill-rule="evenodd" clip-rule="evenodd" fill="#394D54" d="M19.3,20.8c0.1,0,0.2,0,0.2,0c-0.1,0-0.1,0.1-0.1,0.2
			c0,0.1,0.1,0.3,0.3,0.3c0.1,0,0.2-0.1,0.2-0.1c0,0.1,0,0.2,0,0.2c0,0.4-0.3,0.6-0.6,0.6c-0.4,0-0.6-0.3-0.6-0.6
			C18.7,21.1,19,20.8,19.3,20.8"/>
		<path fill-rule="evenodd" clip-rule="evenodd" fill="#394D54" d="M3.3,18.6h19.8h2.5h19.8c-0.9-0.2-2.9-0.5-2.6-1.7
			c-1.7,1.9-5.7,1.4-6.7,0.4c-1.1,1.6-7.7,1-8.2-0.3c-1.4,1.7-5.8,1.7-7.2,0c-0.5,1.3-7,1.9-8.2,0.3c-1,1-5,1.5-6.7-0.4
			C6.2,18.1,4.2,18.4,3.3,18.6"/>
		<path fill="#BFDBE0" d="M21.7,27c-2.2-1.1-3.5-2.5-4.2-4.1c-0.8,0.2-1.8,0.4-3,0.5c-0.4,0-0.9,0-1.4,0c-0.6,0-1.1,0-1.8,0
			c2.1,2.1,4.6,3.6,9.3,3.7C21,27.1,21.4,27.1,21.7,27z"/>
		<path fill="#D4EDF1" d="M18.4,24.4c-0.3-0.4-0.6-1-0.8-1.5c-0.8,0.2-1.8,0.4-3,0.5C15.4,23.8,16.5,24.2,18.4,24.4z"/>
	</g>
	<path fill-rule="evenodd" clip-rule="evenodd" fill="#E7E7E7" d="M89.7,20.4c1.3-1.1,2.6-2.2,3.9-3.3c0.4-0.4,0.9-0.8,1.4-1.2
		c-0.4-0.4-0.9-0.8-1.4-1c-1-0.4-2-0.3-2.9,0.3c-1.2,0.7-1.7,1.8-1.7,3.2c0,0.5,0.2,1.1,0.5,1.5C89.5,20.1,89.6,20.2,89.7,20.4
		 M91.2,21.4c0.6,0.2,1.4,0.2,2,0.1c0.3-0.1,1.2-0.5,1.5-0.5l0,0l0,0c0.2,0.1,0.4,0.2,0.5,0.4c0.2,0.5,0.1,0.9-0.3,1.2l-0.1,0.1
		c-1.7,1-3.4,0.8-5.1-0.1c-0.8-0.4-1.4-1.1-1.8-1.8l-0.1-0.2c-1.1-1.8-0.9-3.8,0.3-5.5c0.4-0.6,1-1.1,1.6-1.4l0.2-0.1
		c1.6-0.9,3.2-0.8,4.8,0c0.9,0.4,1.6,1.1,2,1.9l0.1,0.1c0.3,0.6-0.1,1.1-0.6,1.5c-0.5,0.4-1.1,0.9-1.6,1.4
		C93.6,19.4,92.4,20.4,91.2,21.4z M103.7,13.1h0.2c0.5,0,0.9,0.4,0.9,0.9c0,0.7-0.7,0.9-1.3,0.9c-0.8,0-1.5,0.5-2.1,1
		c-0.7,0.7-1,1.5-1,2.5v4.2c0,0.5-0.3,0.9-0.8,0.9h-0.1c-0.5,0-0.8-0.4-0.8-0.9v-4.5c0-1.7,0.8-3.1,2.2-4.1
		C101.7,13.4,102.6,13.1,103.7,13.1z M81.9,16.1c0.7-0.7,1.4-1.4,2-2c0.2-0.2,0.9-1,1.2-1h0.3l0,0c0.4,0.1,0.7,0.3,0.7,0.8V14
		c0,0.3-0.3,0.6-0.5,0.8c-0.4,0.4-0.8,0.8-1.2,1.3l-2.1,2.1c0.9,0.9,1.8,1.8,2.7,2.7c0.2,0.3,0.5,0.5,0.7,0.8
		c0.1,0.1,0.2,0.2,0.3,0.3c0.1,0.1,0.1,0.3,0.1,0.4v0.2l0,0c-0.1,0.4-0.4,0.7-0.8,0.7h-0.1c-0.3,0-0.6-0.3-0.8-0.5
		c-0.4-0.4-0.8-0.8-1.2-1.2l-1.3-1.3v2.1c0,0.5-0.3,0.9-0.8,0.9h-0.1c-0.5,0-0.8-0.4-0.8-0.9V10.6c0-0.5,0.3-0.9,0.8-0.9h0.1
		c0.5,0,0.8,0.4,0.8,0.9V16.1z M76.2,14.9c-0.3-0.1-0.8-0.2-1-0.2c-1.5-0.1-2.5,0.8-3.1,2.1c-0.2,0.4-0.3,0.9-0.3,1.4
		c0,1.5,0.8,2.5,2.1,3.2c0.5,0.2,1.1,0.3,1.7,0.3c0.5,0,1.1-0.3,1.5-0.5l0.1,0h0.3l0,0c0.4,0.1,0.7,0.3,0.7,0.8V22
		c0,1.1-1.9,1.3-2.7,1.4c-2.6,0.2-4.6-1.3-5.3-3.8C70,19.2,70,18.8,70,18.3V18c0-1.9,0.9-3.4,2.6-4.4c0.8-0.4,1.6-0.7,2.5-0.7h0.3
		c0.9,0,1.8,0.3,2.6,0.8l0.1,0l0,0.1c0.1,0.1,0.2,0.3,0.2,0.5v0.2c0,0.4-0.3,0.7-0.7,0.8l0,0h-0.1C77,15.2,76.4,15,76.2,14.9z
		 M60.3,18.2c0,1.3,0.7,2.3,1.8,3c0.5,0.3,1.1,0.5,1.7,0.5c1.3,0,2.3-0.7,3-1.8c0.3-0.5,0.5-1.1,0.5-1.7c0-1.2-0.6-2.2-1.6-2.9
		c-0.6-0.4-1.2-0.6-1.8-0.6c-1.5,0-2.5,0.7-3.1,2.1C60.4,17.2,60.3,17.7,60.3,18.2z M63.6,13h0.2c2,0,3.6,1,4.5,2.7
		c0.4,0.7,0.6,1.5,0.6,2.3v0.3c0,1.9-0.9,3.4-2.6,4.4c-0.8,0.4-1.6,0.7-2.5,0.7h-0.3c-1.9,0-3.4-0.9-4.4-2.6
		c-0.4-0.8-0.7-1.6-0.7-2.5V18c0-1.9,0.9-3.4,2.6-4.4C61.9,13.2,62.7,13,63.6,13z M48.8,18.2c0,1.4,0.7,2.4,1.9,3.1
		c0.5,0.3,1,0.4,1.6,0.4c1.3,0,2.3-0.6,3-1.8c0.3-0.5,0.5-1.1,0.5-1.7c0-1.2-0.6-2.1-1.5-2.8c-0.6-0.4-1.2-0.6-1.9-0.6
		c-1.5,0-2.5,0.7-3.1,2.1C48.9,17.2,48.8,17.7,48.8,18.2z M55.8,14.3v-3.7c0-0.5,0.3-0.9,0.8-0.9h0.1c0.5,0,0.8,0.4,0.8,0.9v7.8
		c0,1.9-0.9,3.4-2.6,4.4c-0.8,0.4-1.6,0.7-2.5,0.7h-0.3c-1.9,0-3.4-0.9-4.4-2.6c-0.4-0.8-0.7-1.6-0.7-2.5V18c0-1.9,0.9-3.4,2.6-4.4
		c0.8-0.4,1.6-0.7,2.5-0.7h0.3C53.8,13,54.8,13.5,55.8,14.3z"/>
</g>
</svg>
