<svg id="Layer_1" data-name="Layer 1" xmlns="http://www.w3.org/2000/svg" viewBox="0 0 60 60"><title>logo-icon-django</title><circle cx="30" cy="30" r="30" fill="#113228"/><g id="Page-1"><g id="logo-django"><path id="Shape" d="M25.578,11.49h6.607V41.771a43.7,43.7,0,0,1-8.571.892c-8.069-.008-12.27-3.613-12.27-10.537,0-6.671,4.456-11,11.36-11a10.746,10.746,0,0,1,2.874.337V11.49h0Zm0,15.237a6.653,6.653,0,0,0-2.228-.337c-3.342,0-5.272,2.038-5.272,5.61,0,3.478,1.845,5.4,5.229,5.4a15.592,15.592,0,0,0,2.27-.168v-10.5h0Zm17.108-5.138V36.75c0,5.221-.391,7.732-1.539,9.9-1.071,2.081-2.483,3.394-5.4,4.843L29.617,48.6c2.916-1.355,4.328-2.553,5.229-4.381,0.944-1.869,1.241-4.034,1.241-9.728v-12.9h6.6Zm-6.6-10.065h6.607v6.713H36.088V11.524Z" fill="#fff"/></g></g></svg>