<?xml version="1.0" encoding="utf-8"?>
<!-- Generator: Adobe Illustrator 18.1.1, SVG Export Plug-In . SVG Version: 6.00 Build 0)  -->
<!DOCTYPE svg PUBLIC "-//W3C//DTD SVG 1.1//EN" "http://www.w3.org/Graphics/SVG/1.1/DTD/svg11.dtd">
<svg version="1.1" id="Layer_1" xmlns="http://www.w3.org/2000/svg" xmlns:xlink="http://www.w3.org/1999/xlink" x="0px" y="0px"
	 viewBox="-25 15 110 30" enable-background="new -25 15 110 30" xml:space="preserve">
<g>
	<g>
		<path id="outline_2_" fill="#394D54" d="M1.9,25.8h4v4.1h2c0.9,0,1.9-0.2,2.7-0.4c0.4-0.1,0.9-0.3,1.4-0.6
			c-0.5-0.7-0.8-1.7-0.9-2.5c0-1.4,0.2-2.9,1-4l0.4-0.5l0.5,0.4c1.3,1,2.3,2.4,2.5,4c1.5-0.4,3.2-0.3,4.6,0.4l0.5,0.3l-0.3,0.6
			c-1.2,2.2-3.5,2.8-5.8,2.7c-3.5,8.6-10.9,12.6-20,12.6c-4.7,0-9-1.8-11.4-5.9v-0.1l-0.3-0.7c-0.8-1.8-1.2-3.9-0.9-5.9l0.1-0.6h3.3
			v-4.1h4v-3.8h7.9v-4H2v7.9H1.9z"/>
		<g id="body_colors_2_">
			<path fill="#00AADA" d="M14.8,27.3c0.3-2.1-1.3-3.7-2.2-4.5c-1.2,1.3-1.3,4.6,0.4,6.1c-0.9,0.8-3,1.7-5.1,1.7h-25.3
				c-0.2,2.2,0.2,4.2,1,5.9l0.3,0.5c0.2,0.3,0.4,0.6,0.6,0.9l0,0c1,0.1,2,0.1,2.9,0.1l0,0c1.8,0,3.1-0.2,4.2-0.6
				c0.2-0.1,0.3,0,0.4,0.2c0.1,0.2,0,0.3-0.2,0.4c-0.1,0-0.3,0.1-0.4,0.1l0,0c-0.8,0.2-1.8,0.4-2.9,0.5c0.1,0-0.1,0-0.1,0h-0.1
				c-0.4,0-0.9,0-1.5,0c-0.5,0-1.2,0-1.7,0l0,0c2.1,2.4,5.4,3.8,9.6,3.8c8.8,0,16.2-3.9,19.6-12.7c2.3,0.2,4.6-0.3,5.6-2.3
				C18.1,26.3,16,26.6,14.8,27.3z"/>
			<path fill="#24B8EB" d="M14.8,27.3c0.3-2.1-1.3-3.7-2.2-4.5c-1.2,1.3-1.3,4.6,0.4,6.1c-0.9,0.8-3,1.7-5.1,1.7H-16
				c-0.1,3.3,1.2,5.9,3.3,7.4l0,0c1.8,0,3.1-0.2,4.2-0.6c0.2-0.1,0.3,0,0.4,0.2c0.1,0.2,0,0.3-0.2,0.4c-0.1,0-0.3,0.1-0.4,0.1l0,0
				c-0.8,0.2-1.8,0.4-3,0.5l0,0c3,1.6,7.3,1.6,12.2-0.4c5.5-2.1,10.8-6.2,14.3-10.9C14.9,27.3,14.9,27.3,14.8,27.3z"/>
			<path fill="#008BB8" d="M-17.4,33.1c0.2,1.2,0.5,2.3,1,3.2l0.3,0.5c0.2,0.3,0.4,0.6,0.6,0.9c1,0.1,2,0.1,2.9,0.1
				c1.8,0,3.1-0.2,4.2-0.6c0.2-0.1,0.3,0,0.4,0.2c0.1,0.2,0,0.3-0.2,0.4c-0.1,0-0.3,0.1-0.4,0.1l0,0c-0.8,0.2-1.8,0.4-3,0.5h-0.1
				c-0.4,0-0.9,0-1.5,0c-0.5,0-1.2,0-1.8,0c2.1,2.4,5.4,3.8,9.6,3.8c7.5,0,14-2.8,17.9-9.2H-17.4z"/>
			<path fill="#039BC6" d="M-15.8,33.1c0.4,2.1,1.6,3.7,3.1,4.7c1.8,0,3.1-0.2,4.2-0.6c0.2-0.1,0.3,0,0.4,0.2c0.1,0.2,0,0.3-0.2,0.4
				c-0.1,0-0.3,0.1-0.4,0.1l0,0c-0.8,0.2-1.9,0.4-3,0.5c3,1.6,7.3,1.5,12.2-0.4c3-1.2,5.9-2.8,8.5-4.9H-15.8z"/>
		</g>
		<g id="Containers_2_">
			<path fill="#00ACD3" d="M-11.2,26.7h0.3v2.8h-0.3V26.7z M-11.7,26.7h0.3v2.8h-0.3V26.7z M-12.2,26.7h0.3v2.8h-0.3V26.7z
				 M-12.7,26.7h0.3v2.8h-0.3V26.7z M-13.2,26.7h0.3v2.8h-0.3V26.7z M-13.8,26.7h0.3v2.8h-0.3V26.7z M-14,26.4h3.5v3.5H-14V26.4z"/>
			<path fill="#00ACD3" d="M-7.2,22.8h0.3v2.8h-0.3V22.8z M-7.7,22.8h0.3v2.8h-0.3V22.8z M-8.2,22.8h0.3v2.8h-0.3V22.8z M-8.8,22.8
				h0.3v2.8h-0.3V22.8z M-9.3,22.8H-9v2.8h-0.3V22.8z M-9.8,22.8h0.3v2.8h-0.3V22.8z M-10.1,22.5h3.5v3.5h-3.5V22.5z"/>
			<path fill="#20C2EF" d="M-7.2,26.7h0.3v2.8h-0.3V26.7z M-7.7,26.7h0.3v2.8h-0.3V26.7z M-8.2,26.7h0.3v2.8h-0.3V26.7z M-8.8,26.7
				h0.3v2.8h-0.3V26.7z M-9.3,26.7H-9v2.8h-0.3V26.7z M-9.8,26.7h0.3v2.8h-0.3V26.7z M-10.1,26.4h3.5v3.5h-3.5V26.4z"/>
			<path fill="#00ACD3" d="M-3.2,26.7H-3v2.8h-0.3v-2.8H-3.2z M-3.7,26.7h0.3v2.8h-0.3V26.7z M-4.3,26.7h0.3v2.8h-0.3V26.7z
				 M-4.8,26.7h0.3v2.8h-0.3V26.7z M-5.3,26.7H-5v2.8h-0.3V26.7z M-5.8,26.7h0.3v2.8h-0.3V26.7z M-6.1,26.4h3.5v3.5h-3.5V26.4z"/>
			<path fill="#20C2EF" d="M-3.2,22.8H-3v2.8h-0.3v-2.8H-3.2z M-3.7,22.8h0.3v2.8h-0.3V22.8z M-4.3,22.8h0.3v2.8h-0.3V22.8z
				 M-4.8,22.8h0.3v2.8h-0.3V22.8z M-5.3,22.8H-5v2.8h-0.3V22.8z M-5.8,22.8h0.3v2.8h-0.3V22.8z M-6.1,22.5h3.5v3.5h-3.5V22.5z"/>
			<path fill="#20C2EF" d="M0.8,26.7h0.3v2.8H0.8V26.7z M0.2,26.7h0.3v2.8H0.2V26.7z M-0.3,26.7H0v2.8h-0.3V26.7z M-0.8,26.7h0.3
				v2.8h-0.3V26.7z M-1.3,26.7H-1v2.8h-0.3V26.7z M-1.8,26.7h0.3v2.8h-0.3V26.7z M-2.2,26.4h3.5v3.5h-3.5V26.4z"/>
			<path fill="#00ACD3" d="M0.8,22.8h0.3v2.8H0.8V22.8z M0.2,22.8h0.3v2.8H0.2V22.8z M-0.3,22.8H0v2.8h-0.3V22.8z M-0.8,22.8h0.3
				v2.8h-0.3V22.8z M-1.3,22.8H-1v2.8h-0.3V22.8z M-1.8,22.8h0.3v2.8h-0.3V22.8z M-2.2,22.5h3.5v3.5h-3.5V22.5z"/>
			<path fill="#20C2EF" d="M0.8,18.8h0.3v2.8H0.8V18.8z M0.2,18.8h0.3v2.8H0.2V18.8z M-0.3,18.8H0v2.8h-0.3V18.8z M-0.8,18.8h0.3
				v2.8h-0.3V18.8z M-1.3,18.8H-1v2.8h-0.3V18.8z M-1.8,18.8h0.3v2.8h-0.3V18.8z M-2.2,18.5h3.5v3.5h-3.5V18.5z"/>
			<path fill="#00ACD3" d="M4.7,26.7h0.3v2.8H4.7V26.7z M4.2,26.7h0.3v2.8H4.2V26.7z M3.7,26.7H4v2.8H3.7V26.7z M3.2,26.7h0.3v2.8
				H3.2V26.7z M2.7,26.7H3v2.8H2.7V26.7z M2.1,26.7h0.3v2.8H2.1V26.7z M1.8,26.4h3.5v3.5H1.8V26.4z"/>
		</g>
		<path fill="#D4EDF1" d="M-6.9,35.4c0.5,0,0.9,0.4,0.9,0.9c0,0.5-0.4,0.9-0.9,0.9s-0.9-0.4-0.9-0.9C-7.8,35.8-7.4,35.4-6.9,35.4"/>
		<path fill="#394D54" d="M-6.9,35.7c0.1,0,0.2,0,0.2,0c-0.1,0-0.1,0.1-0.1,0.2s0.1,0.3,0.3,0.3c0.1,0,0.2-0.1,0.2-0.1
			c0,0.1,0,0.2,0,0.2c0,0.4-0.3,0.6-0.6,0.6c-0.4,0-0.6-0.3-0.6-0.6C-7.5,36.1-7.2,35.7-6.9,35.7"/>
		<path fill="#394D54" d="M-23.6,33.4h20.7h2.6h20.7c-0.9-0.2-3-0.5-2.7-1.8c-1.8,2-6,1.5-7,0.4c-1.2,1.7-8.1,1-8.6-0.3
			c-1.5,1.8-6.1,1.8-7.5,0c-0.5,1.4-7.3,2-8.6,0.3c-1,1-5.2,1.6-7-0.4C-20.6,32.9-22.7,33.2-23.6,33.4"/>
		<path fill="#BFDBE0" d="M-4.4,42.2c-2.3-1.2-3.7-2.6-4.4-4.3c-0.8,0.2-1.9,0.4-3.1,0.5c-0.4,0-0.9,0-1.5,0c-0.6,0-1.2,0-1.9,0
			c2.2,2.2,4.8,3.8,9.7,3.9C-5.1,42.3-4.7,42.3-4.4,42.2z"/>
		<path fill="#D4EDF1" d="M-7.8,39.5c-0.3-0.4-0.6-1-0.8-1.6c-0.8,0.2-1.9,0.4-3.1,0.5C-10.9,38.9-9.8,39.3-7.8,39.5z"/>
	</g>
	<path fill="#394D54" d="M66.8,35.3c1.4-1.2,2.7-2.3,4.1-3.5c0.4-0.4,0.9-0.8,1.5-1.3c-0.4-0.4-0.9-0.8-1.5-1c-1-0.4-2.1-0.3-3,0.3
		c-1.3,0.7-1.8,1.9-1.8,3.3c0,0.5,0.2,1.2,0.5,1.6C66.6,35,66.7,35.1,66.8,35.3 M68.3,36.4c0.6,0.2,1.5,0.2,2.1,0.1
		c0.3-0.1,1.3-0.5,1.6-0.5l0,0l0,0c0.2,0.1,0.4,0.2,0.5,0.4c0.2,0.5,0.1,0.9-0.3,1.3l-0.1,0.1c-1.8,1-3.6,0.8-5.3-0.1
		c-0.8-0.4-1.5-1.2-1.9-1.9l-0.1-0.2c-1.2-1.9-0.9-4,0.3-5.8c0.4-0.6,1-1.2,1.7-1.5l0.2-0.1c1.7-0.9,3.3-0.8,5,0
		c0.9,0.4,1.7,1.2,2.1,2l0.1,0.1c0.3,0.6-0.1,1.2-0.6,1.6c-0.5,0.4-1.2,0.9-1.7,1.5C70.9,34.3,69.6,35.3,68.3,36.4z M81.4,27.7h0.2
		c0.5,0,0.9,0.4,0.9,0.9c0,0.7-0.7,0.9-1.4,0.9c-0.8,0-1.6,0.5-2.2,1c-0.7,0.7-1,1.6-1,2.6v4.4c0,0.5-0.3,0.9-0.8,0.9H77
		c-0.5,0-0.8-0.4-0.8-0.9v-4.7c0-1.8,0.8-3.2,2.3-4.3C79.3,28,80.3,27.7,81.4,27.7z M58.6,30.8c0.7-0.7,1.5-1.5,2.1-2.1
		c0.2-0.2,0.9-1,1.3-1h0.3l0,0c0.4,0.1,0.7,0.3,0.7,0.8v0.1c0,0.3-0.3,0.6-0.5,0.8c-0.4,0.4-0.8,0.8-1.3,1.4L59,33
		c0.9,0.9,1.9,1.9,2.8,2.8c0.2,0.3,0.5,0.5,0.7,0.8c0.1,0.1,0.2,0.2,0.3,0.3c0.1,0.1,0.1,0.3,0.1,0.4v0.2l0,0
		c-0.1,0.4-0.4,0.7-0.8,0.7h-0.1c-0.3,0-0.6-0.3-0.8-0.5c-0.4-0.4-0.8-0.8-1.3-1.3l-1.4-1.4v2.2c0,0.5-0.3,0.9-0.8,0.9h-0.1
		c-0.5,0-0.8-0.4-0.8-0.9V25.1c0-0.5,0.3-0.9,0.8-0.9h0.1c0.5,0,0.8,0.4,0.8,0.9C58.6,25.1,58.6,30.8,58.6,30.8z M52.7,29.6
		c-0.3-0.1-0.8-0.2-1-0.2c-1.6-0.1-2.6,0.8-3.2,2.2C48.2,32,48,32.5,48,33c0,1.6,0.8,2.6,2.2,3.3c0.5,0.2,1.2,0.3,1.8,0.3
		c0.5,0,1.2-0.3,1.6-0.5h0.1H54l0,0c0.4,0.1,0.7,0.3,0.7,0.8l0,0c0,1.2-2,1.4-2.8,1.5c-2.7,0.2-4.8-1.4-5.5-4
		c-0.2-0.4-0.2-0.8-0.2-1.4v-0.3c0-2,0.9-3.6,2.7-4.6c0.8-0.4,1.7-0.7,2.6-0.7h0.3c0.9,0,1.9,0.3,2.7,0.8h0.1v0.1
		c0.1,0.1,0.2,0.3,0.2,0.5v0.2c0,0.4-0.3,0.7-0.7,0.8l0,0H54C53.5,29.9,52.9,29.7,52.7,29.6z M36,33c0,1.4,0.7,2.4,1.9,3.1
		c0.5,0.3,1.2,0.5,1.8,0.5c1.4,0,2.4-0.7,3.1-1.9c0.3-0.5,0.5-1.2,0.5-1.8c0-1.3-0.6-2.3-1.7-3c-0.6-0.4-1.3-0.6-1.9-0.6
		c-1.6,0-2.6,0.7-3.2,2.2C36.1,32,36,32.5,36,33z M39.5,27.6h0.2c2.1,0,3.8,1,4.7,2.8c0.4,0.7,0.6,1.6,0.6,2.4v0.3
		c0,2-0.9,3.6-2.7,4.6c-0.8,0.4-1.7,0.7-2.6,0.7h-0.3c-2,0-3.6-0.9-4.6-2.7c-0.4-0.8-0.7-1.7-0.7-2.6v-0.3c0-2,0.9-3.6,2.7-4.6
		C37.7,27.8,38.5,27.6,39.5,27.6z M24,33c0,1.5,0.7,2.5,2,3.2c0.5,0.3,1,0.4,1.7,0.4c1.4,0,2.4-0.6,3.1-1.9c0.3-0.5,0.5-1.2,0.5-1.8
		c0-1.3-0.6-2.2-1.6-2.9c-0.6-0.4-1.3-0.6-2-0.6c-1.6,0-2.6,0.7-3.2,2.2C24.1,32,24,32.5,24,33z M31.3,28.9v-3.9
		c0-0.5,0.3-0.9,0.8-0.9h0.1c0.5,0,0.8,0.4,0.8,0.9v8.2c0,2-0.9,3.6-2.7,4.6c-0.8,0.4-1.7,0.7-2.6,0.7h-0.3c-2,0-3.6-0.9-4.6-2.7
		c-0.4-0.8-0.7-1.7-0.7-2.6v-0.4c0-2,0.9-3.6,2.7-4.6c0.8-0.4,1.7-0.7,2.6-0.7h0.3C29.2,27.6,30.3,28.1,31.3,28.9z"/>
</g>
</svg>
