<svg id="Layer_1" data-name="Layer 1" xmlns="http://www.w3.org/2000/svg" viewBox="0 0 151.848 151.848"><title>icons-wordpress</title><path d="M76.326,151.25A75.924,75.924,0,1,1,152.25,75.326,75.924,75.924,0,0,1,76.326,151.25Z" transform="translate(-0.402 0.598)" fill="#3185c0"/><path id="wordpress-circle-outline-icon" d="M111.458,34.94c-3.1,1.009-9.72,7.469-1.327,18.991s3.426,24.647,3.426,24.647l-7.316,24.278L87.822,48.069s5.2-.389,5.944-0.5a2.1,2.1,0,0,0,1.775-2.4c-0.206-1.556-1.35-1.781-2.436-1.725-0.546.028-6.968,0.513-13.347,0.512-6.339,0-12.637-.488-13.085-0.512-0.9-.05-2.2.05-2.513,1.462a2.1,2.1,0,0,0,1.613,2.643c1.275,0.15.421,0.038,5.571,0.519,0,0,3.5,9.59,7.933,21.723l-11.218,33.3L49.58,48.069s5.2-.389,5.944-0.5a2.1,2.1,0,0,0,1.775-2.4c-0.207-1.556-1.35-1.781-2.438-1.725-0.545.028-6.967,0.513-13.347,0.512-6.339,0-12.637-.488-13.085-0.512-0.9-.05-2.2.05-2.511,1.462a2.1,2.1,0,0,0,1.613,2.643c1.275,0.15.421,0.038,5.572,0.519,0,0,24.589,67.333,25.893,70.946s6.7,4.55,8.24-.174c1.136-3.492,9.975-29.149,14.509-42.294,6.882,18.85,14.77,40.463,15.493,42.468,1.3,3.613,6.7,4.55,8.241-.174s10.235-29.105,17.7-50.939C129.772,48.006,123.649,30.974,111.458,34.94Z" transform="translate(-0.402 0.598)" fill="#fff"/></svg>