<?xml version="1.0" encoding="utf-8"?>
<!-- Generator: Adobe Illustrator 18.1.1, SVG Export Plug-In . SVG Version: 6.00 Build 0)  -->
<!DOCTYPE svg PUBLIC "-//W3C//DTD SVG 1.1//EN" "http://www.w3.org/Graphics/SVG/1.1/DTD/svg11.dtd">
<svg version="1.1" id="Layer_1" xmlns="http://www.w3.org/2000/svg" xmlns:xlink="http://www.w3.org/1999/xlink" x="0px" y="0px"
	 viewBox="0 0 30 30" enable-background="new 0 0 30 30" xml:space="preserve">
<g>
	<path fill="#205081" d="M23.2,16.8c0-0.3-0.3-0.6-0.6-0.6c-0.1,0-0.3,0-0.4,0.2c-1.5,1.4-4.1,2.6-7.2,2.6h0c-3.1,0-5.6-1.3-7.2-2.6
		c-0.1-0.1-0.3-0.1-0.4-0.1c-0.4,0-0.6,0.3-0.6,0.7c0,0.3,0.2,0.5,0.3,0.7C8,19,10.8,21.2,15,21.2H15c4.2,0,6.9-2.3,7.8-3.6
		C23,17.4,23.2,17.1,23.2,16.8z"/>
	<path fill="#205081" d="M27.3,27.3c-1.1-0.6-2.1-1.6-2.5-3c-0.1-0.3,0-0.5,0.2-0.7c3.1-2.4,5-5.8,5-9.6C30,6.8,23.3,1,15,1
		C6.7,1,0,6.8,0,13.9c0,7.2,6.7,12.9,15,12.9c1.1,0,2.1-0.1,3.2-0.3c0.2,0,0.5,0,0.6,0.1c2.1,1.3,5.1,2.3,7.8,2.3
		c0.9,0,1.2-0.5,1.2-1C27.8,27.6,27.6,27.4,27.3,27.3z M23.3,26c0,0.1,0.1,0.1,0.1,0.2c0,0.1-0.1,0.1-0.2,0.1
		c-0.8,0-3.1-1.2-4.3-2.3c-0.2-0.1-0.4-0.2-0.7-0.1c-1,0.2-2.1,0.3-3.2,0.3c-6.9,0-12.5-4.6-12.5-10.3C2.5,8.3,8.1,3.6,15,3.6
		c6.9,0,12.5,4.6,12.5,10.3c0,3.4-2,6.4-5.1,8.3c-0.2,0.1-0.4,0.4-0.4,0.7C22,23.5,22.6,25,23.3,26z"/>
</g>
</svg>
