<?xml version="1.0" encoding="utf-8"?>
<!-- Generator: Adobe Illustrator 18.1.1, SVG Export Plug-In . SVG Version: 6.00 Build 0)  -->
<!DOCTYPE svg PUBLIC "-//W3C//DTD SVG 1.1//EN" "http://www.w3.org/Graphics/SVG/1.1/DTD/svg11.dtd">
<svg version="1.1" id="Layer_1" xmlns="http://www.w3.org/2000/svg" xmlns:xlink="http://www.w3.org/1999/xlink" x="0px" y="0px"
	 viewBox="0 0 30 30" enable-background="new 0 0 30 30" xml:space="preserve">
<g>
	<defs>
		<path id="SVGID_1_" d="M27,30H3c-1.7,0-3-1.3-3-3V3c0-1.7,1.3-3,3-3h24c1.7,0,3,1.3,3,3v24C30,28.7,28.7,30,27,30z"/>
	</defs>
	<clipPath id="SVGID_2_">
		<use xlink:href="#SVGID_1_"  overflow="visible"/>
	</clipPath>
	<g clip-path="url(#SVGID_2_)">
		<g>
			<path fill="#70CADB" d="M-16.4,17.6c-2.8,0-5.2-1.7-6.1-4.3c0-0.1-0.1-0.2-0.1-0.3c-1-3.4,0.9-6.9,4.3-8l53.8-18
				c0.7-0.2,1.3-0.3,2-0.3c2.9,0,5.4,1.7,6.3,4.4l0.1,0.3c1,3.5-1.5,6.7-4.5,7.7c0,0-0.5,0.2-53.5,18.3
				C-14.9,17.5-15.7,17.6-16.4,17.6z"/>
		</g>
		<g>
			<path fill="#E01765" d="M-7.4,44.1c-2.9,0-5.3-1.6-6.1-4.2c0-0.1-0.1-0.2-0.1-0.3c-1-3.4,0.9-7,4.3-8.1l53.8-18.2
				c0.7-0.2,1.4-0.4,2.1-0.4c2.9,0,5.4,1.7,6.3,4.4l0.1,0.3c0.5,1.8,0.2,3.9-0.8,5.5c-0.8,1.2-3.2,2.3-3.2,2.3l-54,18.5
				C-5.9,44-6.7,44.1-7.4,44.1z"/>
		</g>
		<g>
			<path fill="#E8A723" d="M37.4,44.2c-2.9,0-5.4-1.8-6.3-4.5l-18-53.3L13-13.9c-1-3.4,0.9-6.9,4.3-8.1c0.7-0.2,1.4-0.3,2.1-0.3
				c1,0,2,0.2,3,0.7c1.6,0.8,2.8,2.1,3.3,3.8l18,53.3l0.1,0.2c1,3.5-0.9,7.1-4.2,8.2C38.7,44.1,38,44.2,37.4,44.2z"/>
		</g>
		<g>
			<path fill="#3EB890" d="M10.7,53.2c-2.9,0-5.4-1.8-6.3-4.5l-18-53.3c0-0.1-0.1-0.2-0.1-0.3c-1-3.4,0.9-6.9,4.2-8.1
				c0.7-0.2,1.4-0.3,2.1-0.3c2.9,0,5.4,1.8,6.3,4.5l18,53.3c0,0.1,0.1,0.2,0.1,0.3c1,3.4-0.9,7-4.3,8.1C12,53.1,11.4,53.2,10.7,53.2
				z"/>
		</g>
		<polygon fill="#CC2027" points="28.5,32.2 41,27.9 36.9,15.8 24.4,20 		"/>
		<polygon fill="#361238" points="1.8,41.3 14.4,37 10.2,24.8 -2.3,29 		"/>
		<path fill="#65863A" d="M19.6,5.7c5.6-1.9,9.7-3.3,12.5-4.3l-4-12L15.5-6.4L19.6,5.7z"/>
		<path fill="#1A937D" d="M-7.1,14.8c4.6-1.6,8.8-3,12.5-4.3L1.4-1.6l-12.5,4.2L-7.1,14.8z"/>
	</g>
</g>
<path fill="#443642" d="M10.6,13c0-2.1,1.5-3.6,4.3-3.6c1.7,0,3.1,0.5,3.8,1.1c0.1,0.1,0.3,0.3,0.2,0.6c-0.1,0.4-0.4,0.9-0.6,1.3
	c-0.1,0.2-0.4,0.2-0.5,0.1c-0.5-0.3-1.4-0.7-2.2-0.8c-0.2,0-0.4,0-0.6,0c-0.7,0-1.3,0.3-1.5,0.8c0,0.1-0.1,0.2-0.1,0.3
	c0,0.7,1,1,2.2,1.2c2.2,0.4,3.9,1,3.9,3.3c0,2-1.6,3.7-4.6,3.7c-2,0-3.4-0.7-4.2-1.4c0,0-0.3-0.3-0.2-0.7c0.2-0.5,0.5-1,0.7-1.3
	c0.1-0.2,0.5-0.2,0.7-0.1c0.6,0.4,1.7,1,2.9,1.1c0.1,0,0.2,0,0.3,0c1.1,0,1.7-0.4,1.7-1.1c0-0.6-0.9-1-2.2-1.2
	C12.4,15.9,10.6,15.2,10.6,13"/>
</svg>
