<?xml version="1.0" encoding="utf-8"?>
<!-- Generator: Adobe Illustrator 17.1.0, SVG Export Plug-In . SVG Version: 6.00 Build 0)  -->
<!DOCTYPE svg PUBLIC "-//W3C//DTD SVG 1.1//EN" "http://www.w3.org/Graphics/SVG/1.1/DTD/svg11.dtd">
<svg version="1.1" id="Layer_1" xmlns="http://www.w3.org/2000/svg" xmlns:xlink="http://www.w3.org/1999/xlink" x="0px" y="0px"
	 viewBox="1 1 14 14" enable-background="new 1 1 14 14" xml:space="preserve">
<linearGradient id="SVGID_1_" gradientUnits="userSpaceOnUse" x1="6.9991" y1="11.9632" x2="6.9991" y2="1.7145" gradientTransform="matrix(1.143 0 0 1.143 0 -0.002)">
	<stop  offset="0" style="stop-color:#555555"/>
	<stop  offset="1" style="stop-color:#E8E8E8"/>
</linearGradient>
<path fill="url(#SVGID_1_)" d="M13.872,4.887c0.113-0.278,0.489-1.393-0.109-2.904c0,0-0.92-0.295-3.014,1.125
	C9.872,2.865,8.933,2.743,8,2.738C7.068,2.743,6.13,2.864,5.254,3.107C3.158,1.688,2.237,1.983,2.237,1.983
	C1.64,3.494,2.017,4.609,2.129,4.887C1.427,5.654,1,6.633,1,7.831c0,4.205,2.591,5.477,5.028,5.755
	c1.102,0.132,3.343,0.106,4.176-0.033C12.648,13.281,15,12.046,15,7.831C15,6.633,14.576,5.654,13.872,4.887z"/>
<path opacity="0.2" fill="#231F20" enable-background="new    " d="M2.867,5.634l0.426-0.503L3.056,4.528
	c-0.05-0.122-0.241-0.683-0.091-1.481C3.331,3.157,3.902,3.4,4.694,3.936l0.383,0.26l0.446-0.124
	c0.767-0.215,1.627-0.33,2.474-0.334c0.854,0.004,1.713,0.119,2.484,0.333l0.446,0.124l0.383-0.259
	c0.787-0.533,1.355-0.776,1.727-0.887c0.149,0.798-0.042,1.34-0.091,1.462l-0.238,0.586l0.427,0.539C13.709,6.261,15,6.977,15,7.977
	c0-1.312-0.424-2.251-1.128-3.017c0.113-0.278,0.489-1.43-0.109-2.94c0-0.001-0.606-0.095-0.763-0.043
	c-0.406,0.135-0.772,0.137-2.251,1.14C9.872,2.874,8.933,2.747,8,2.743C7.068,2.747,6.13,2.866,5.254,3.11
	c-1.48-1.004-3.017-1.127-3.017-1.127C1.64,3.494,2.017,4.682,2.13,4.96C1.438,5.555,1,6.977,1,7.977
	C1,6.977,2.292,6.264,2.867,5.634z"/>
<path fill="#E8E8E8" d="M12.806,8.429C11.991,6.843,9.727,7.306,8.14,7.438C6.553,7.306,4.298,6.843,3.483,8.429
	s-0.859,2.865,0.689,3.768c0,0,0.777,0.705,3.95,0.661c3.173,0.044,3.973-0.661,3.973-0.661
	C13.642,11.295,13.621,10.016,12.806,8.429z"/>
<ellipse opacity="0.2" fill="#231F20" enable-background="new    " cx="10.667" cy="9.538" rx="0.65" ry="1.13"/>
<ellipse opacity="0.2" fill="#231F20" enable-background="new    " cx="5.378" cy="9.538" rx="0.65" ry="1.13"/>
<path opacity="0.2" fill="#231F20" enable-background="new    " d="M8.526,10.929H7.642c0-0.194,0.198-0.351,0.442-0.351
	C8.329,10.578,8.526,10.735,8.526,10.929z M7.353,11.535c0,0,0.088,0.147,0.216,0.273l0.104,0.08l0.114,0.047l0.124,0.022
	l0.113,0.008l0.208-0.018l0.097-0.024l0.12-0.057l0.113-0.08c0.141-0.118,0.246-0.252,0.246-0.252s0.082,0.153,0.018,0.403
	c-0.031,0.125-0.114,0.264-0.251,0.381c-0.081,0.048-0.178,0.106-0.274,0.134l-0.205,0.035l-0.299-0.035
	c-0.088-0.008-0.173-0.081-0.249-0.121c-0.077-0.047-0.126-0.131-0.175-0.191l-0.077-0.204c-0.022-0.129-0.006-0.231,0.014-0.299
	C7.311,11.638,7.353,11.535,7.353,11.535z"/>
</svg>
