<svg xmlns="http://www.w3.org/2000/svg" xmlns:xlink="http://www.w3.org/1999/xlink" viewBox="0 0 150 105.226"><defs><clipPath id="clip-path"><rect width="150" height="105.226" fill="none"/></clipPath></defs><title>add-code-state</title><g style="isolation:isolate"><g id="Layer_1" data-name="Layer 1"><g clip-path="url(#clip-path)"><rect x="16.51" y="4.968" width="33.166" height="33.166" rx="6.242" ry="6.242" transform="translate(54.644 -11.542) rotate(90)" fill="#f25058" stroke="#52306c" stroke-linecap="round" stroke-linejoin="round" stroke-width="2"/><path d="M46.593,11.407A3.109,3.109,0,0,0,43.485,8.3H39.611" fill="none" stroke="#fff" stroke-linecap="round" stroke-miterlimit="10" opacity="0.4"/><rect x="16.51" y="48.527" width="33.166" height="33.166" rx="6.242" ry="6.242" transform="translate(98.203 32.017) rotate(90)" fill="#ffd040" stroke="#52306c" stroke-linecap="round" stroke-linejoin="round" stroke-width="2"/><path d="M46.593,54.966a3.109,3.109,0,0,0-3.109-3.109H39.611" fill="none" stroke="#fff" stroke-linecap="round" stroke-miterlimit="10" opacity="0.4"/><line x1="46.593" y1="58.467" x2="46.593" y2="57.214" fill="none" stroke="#fff" stroke-linecap="round" stroke-miterlimit="10" opacity="0.4"/><line x1="46.593" y1="15.22" x2="46.593" y2="13.966" fill="none" stroke="#fff" stroke-linecap="round" stroke-miterlimit="10" opacity="0.4"/><rect x="59.229" y="4.968" width="33.166" height="33.166" rx="6.242" ry="6.242" transform="translate(97.363 -54.261) rotate(90)" fill="#b1d676" stroke="#52306c" stroke-linecap="round" stroke-linejoin="round" stroke-width="2"/><path d="M63.66,9.636a4.986,4.986,0,0,1,3.652-1.585h17a4.984,4.984,0,0,1,3.482,1.412" fill="none" stroke="#fff" stroke-linecap="round" stroke-miterlimit="10" opacity="0.4"/><rect x="59.229" y="48.527" width="33.166" height="33.166" rx="6.242" ry="6.242" transform="translate(140.922 -10.702) rotate(90)" fill="#45bf93" stroke="#52306c" stroke-linecap="round" stroke-linejoin="round" stroke-width="2"/><rect x="102.331" y="4.968" width="33.166" height="33.166" rx="6.242" ry="6.242" transform="translate(140.465 -97.363) rotate(90)" fill="#e5737e" stroke="#52306c" stroke-linecap="round" stroke-linejoin="round" stroke-width="2"/><path d="M105.414,11.407A3.109,3.109,0,0,1,108.523,8.3H112.4" fill="none" stroke="#fff" stroke-linecap="round" stroke-miterlimit="10" opacity="0.4"/><rect x="102.331" y="48.527" width="33.166" height="33.166" rx="6.242" ry="6.242" transform="translate(184.024 -53.804) rotate(90)" fill="#55ad45" stroke="#52306c" stroke-linecap="round" stroke-linejoin="round" stroke-width="2"/><path d="M105.414,54.966a3.109,3.109,0,0,1,3.109-3.109H112.4" fill="none" stroke="#fff" stroke-linecap="round" stroke-miterlimit="10" opacity="0.4"/><line x1="105.414" y1="58.467" x2="105.414" y2="57.214" fill="none" stroke="#fff" stroke-linecap="round" stroke-miterlimit="10" opacity="0.4"/><line x1="105.414" y1="14.7" x2="105.414" y2="13.447" fill="none" stroke="#fff" stroke-linecap="round" stroke-miterlimit="10" opacity="0.4"/><path d="M75.81,31.069a1.391,1.391,0,0,1-.694-0.185l-2.208-1.306c-0.329-.184-0.169-0.249-0.06-0.287a4.437,4.437,0,0,0,1-.454,0.171,0.171,0,0,1,.165.012l1.7,1.007a0.216,0.216,0,0,0,.205,0l6.611-3.816a0.208,0.208,0,0,0,.1-0.178V18.23a0.214,0.214,0,0,0-.1-0.182l-6.608-3.813a0.207,0.207,0,0,0-.2,0L69.1,18.049a0.213,0.213,0,0,0-.1.181v7.63a0.2,0.2,0,0,0,.1.176l1.811,1.047c0.983,0.491,1.584-.088,1.584-0.669V18.881a0.19,0.19,0,0,1,.192-0.19h0.838a0.191,0.191,0,0,1,.192.19v7.533a1.833,1.833,0,0,1-1.958,2.064,2.833,2.833,0,0,1-1.523-.413l-1.734-1a1.4,1.4,0,0,1-.693-1.205V18.23a1.393,1.393,0,0,1,.694-1.205l6.611-3.82a1.448,1.448,0,0,1,1.39,0l6.61,3.82a1.4,1.4,0,0,1,.695,1.205v7.63a1.4,1.4,0,0,1-.695,1.205l-6.61,3.817a1.388,1.388,0,0,1-.7.186h0Zm2.042-5.257c-2.893,0-3.5-1.328-3.5-2.441a0.19,0.19,0,0,1,.191-0.191H75.4a0.192,0.192,0,0,1,.19.162c0.129,0.87.514,1.31,2.263,1.31,1.393,0,1.986-.315,1.986-1.054,0-.426-0.168-0.742-2.333-0.955-1.809-.178-2.928-0.578-2.928-2.026,0-1.333,1.125-2.129,3.01-2.129,2.118,0,3.166.735,3.3,2.312a0.191,0.191,0,0,1-.19.208H79.838a0.191,0.191,0,0,1-.185-0.149c-0.206-.915-0.706-1.208-2.065-1.208-1.521,0-1.7.53-1.7,0.926,0,0.481.208,0.621,2.262,0.893,2.032,0.269,3,.649,3,2.078S79.947,25.812,77.852,25.812Z" fill="#6c7f47"/><polygon points="37.942 28.946 33.28 26.155 28.245 28.946 28.245 15.084 37.942 15.084 37.942 28.946" fill="#99343e"/><path d="M121.284,14.15a0.285,0.285,0,0,0-.147.025,0.468,0.468,0,0,0,.052.3,0.335,0.335,0,0,0,.382.275l0.363,0.036a0.135,0.135,0,0,0,.124-0.057,0.517,0.517,0,0,0-.034-0.293c-0.07-.212-0.1-0.229-0.455-0.271A2.266,2.266,0,0,0,121.284,14.15Zm-2.764.516a1.375,1.375,0,0,0-.669.374,1.262,1.262,0,0,0,.558.7,1.127,1.127,0,0,0,.367-0.178,0.687,0.687,0,0,0,.27-0.256A1.5,1.5,0,0,0,118.52,14.666Zm6.336,0.472c-0.163,0-.02.258,0.231,0.415,0.3,0.19.455,0.232,0.455,0.126A2.283,2.283,0,0,0,124.856,15.138Zm-3.043.023a5.461,5.461,0,0,0-.831.107,7.455,7.455,0,0,0-2.083.661,10.7,10.7,0,0,0-3.3,3.679,19.393,19.393,0,0,0-2.414,8.719l-0.044.615,0.027,0.01h3.486c1.933,0,3.529-.014,3.547-0.031a5.565,5.565,0,0,0-.256-0.893,16.054,16.054,0,0,1-.847-4.6,9.049,9.049,0,0,1,1.326-4.742,3.6,3.6,0,0,1,1.338-1.323,1.179,1.179,0,0,0,.457-0.2,3.46,3.46,0,0,1,.772-0.346,4.222,4.222,0,0,1,2.875.365c0.352,0.166.443,0.187,0.491,0.111,0.122-.192.05-0.335-0.336-0.654a6.208,6.208,0,0,0-3.538-1.431c-0.24-.024-0.414-0.038-0.575-0.04h-0.1Zm-6.355,1.909a1.392,1.392,0,0,0-.569.757,3.248,3.248,0,0,0,.852.505A2.227,2.227,0,0,0,116,18a1.516,1.516,0,0,0,.2-0.357,3.318,3.318,0,0,0-.72-0.572Zm9.378,0.113a0.182,0.182,0,0,0-.124.034,0.184,0.184,0,0,0-.025.178c0.055,0.143.552,0.117,0.552-.029A0.45,0.45,0,0,0,124.835,17.183Zm-2.012.067-0.1.017a0.587,0.587,0,0,0-.426.22,0.435,0.435,0,0,0,.136.176,0.4,0.4,0,0,1,.134.214c0,0.11.053,0.113,0.329,0.017,0.243-.084.249-0.112,0.113-0.436C122.94,17.3,122.908,17.249,122.824,17.25ZM121.1,18.573a0.523,0.523,0,0,0-.292.315,1.5,1.5,0,0,0,.415.629,0.4,0.4,0,0,0,.166-0.168c0.1-.159.1-0.183-0.069-0.472A1.118,1.118,0,0,0,121.1,18.573ZM113.134,20.8a1.961,1.961,0,0,0-.382.916,2.439,2.439,0,0,0,.954.426,0.561,0.561,0,0,0,.258-0.443c0.121-.366.13-0.464,0.059-0.528A3.1,3.1,0,0,0,113.134,20.8Zm6.84,0.027-0.05.042a0.421,0.421,0,0,0-.065.178,0.649,0.649,0,0,1-.04.182,0.537,0.537,0,0,0,.254.375c0.329,0.3.363,0.317,0.421,0.166a0.623,0.623,0,0,0-.233-0.738,0.72,0.72,0,0,0-.266-0.205h-0.021Zm-0.357,2.613c-0.076,0-.1.056-0.1,0.174a0.563,0.563,0,0,0,.461.646c0.515,0.229.558,0.226,0.512-.04a0.6,0.6,0,0,0-.447-0.587A1.278,1.278,0,0,0,119.617,23.437Zm-7.83,1.942a2.375,2.375,0,0,0-.365,1.181,1.459,1.459,0,0,0,.929.155l0.31,0.01,0.124-.541a1.291,1.291,0,0,0,.063-0.593A4.849,4.849,0,0,0,111.787,25.379Zm8.327,1.367-0.038.008a0.983,0.983,0,0,0,.075.407c0.1,0.309.144,0.369,0.3,0.392a4.4,4.4,0,0,0,.963.021,1.438,1.438,0,0,0-.384-0.669A4.73,4.73,0,0,0,120.114,26.747Z" fill="#994f59"/><line x1="68.465" y1="51.858" x2="83.16" y2="51.858" fill="none" stroke="#fff" stroke-linecap="round" stroke-miterlimit="10" opacity="0.4"/><g id="Page-1"><g id="logo-django"><path id="Shape" d="M74.267,58.447H76.8V70.038a16.728,16.728,0,0,1-3.281.341c-3.089,0-4.7-1.383-4.7-4.033a4.013,4.013,0,0,1,4.348-4.211,4.113,4.113,0,0,1,1.1.129V58.447h0Zm0,5.833a2.547,2.547,0,0,0-.853-0.129A1.9,1.9,0,0,0,71.4,66.3a1.834,1.834,0,0,0,2,2.067,5.969,5.969,0,0,0,.869-0.064V64.282h0v0Zm6.549-1.967v5.8a7.753,7.753,0,0,1-.589,3.79A4.028,4.028,0,0,1,78.16,73.76l-2.346-1.107a3.641,3.641,0,0,0,2-1.677c0.361-.715.475-1.544,0.475-3.724V62.314h2.526ZM78.29,58.46h2.529v2.57H78.29V58.46h0Z" fill="#2a7257"/></g></g><g id="layer1"><g id="g1894"><path id="path8615" d="M33.032,56.654c-4.316,0-4.046,1.872-4.046,1.872l0,1.939h4.118v0.582H27.355s-2.762-.313-2.762,4.041,2.41,4.2,2.41,4.2h1.439V67.268a2.286,2.286,0,0,1,2.372-2.41H34.9a2.194,2.194,0,0,0,2.295-2.218V58.911S37.542,56.654,33.032,56.654Zm-2.271,1.3a0.741,0.741,0,1,1-.741.741A0.74,0.74,0,0,1,30.761,57.958Z" fill="#cca536"/><path id="path8620" d="M33.154,73.566c4.316,0,4.046-1.872,4.046-1.872l0-1.939H33.078V69.173h5.754s2.762,0.313,2.762-4.041-2.41-4.2-2.41-4.2H37.744v2.021a2.286,2.286,0,0,1-2.372,2.41H31.288a2.194,2.194,0,0,0-2.295,2.218v3.729S28.644,73.566,33.154,73.566Zm2.271-1.3a0.741,0.741,0,1,1,.741-0.741A0.74,0.74,0,0,1,35.425,72.262Z" fill="#cca536"/></g></g><path d="M118.471,69.745c-0.107-6.015.024-12.364,0.085-14.809a1.991,1.991,0,0,1-.372.447,13.682,13.682,0,0,0-4.121,9.089,10.115,10.115,0,0,0,3.141,7.78,4.221,4.221,0,0,0,1.325-1.908A3.217,3.217,0,0,1,118.471,69.745Zm0.485,1.628a5.182,5.182,0,0,1-1.3,1.291c0.131,0.112.242,0.2,0.317,0.264a15.747,15.747,0,0,1,.453,3.183l0.909-.182s0.259-2.433.727-2.91l0.42-.391A6.73,6.73,0,0,1,118.956,71.373Zm4.8-6.962a13.22,13.22,0,0,0-4-8.726,3.182,3.182,0,0,1-.909-1.576,2.016,2.016,0,0,1-.141.521,80.716,80.716,0,0,1,.9,15.114c0,2.049,1.182,2.547,1.182,2.547l0.027,0.009A10.2,10.2,0,0,0,123.758,64.411Z" fill="#3f7230"/><rect x="16.51" y="91.629" width="33.166" height="33.166" rx="6.242" ry="6.242" transform="translate(141.305 75.119) rotate(90)" fill="#d65956" stroke="#52306c" stroke-linecap="round" stroke-linejoin="round" stroke-width="2"/><path d="M46.593,98.068a3.109,3.109,0,0,0-3.109-3.109H39.611" fill="none" stroke="#fff" stroke-linecap="round" stroke-miterlimit="10" opacity="0.4"/><rect x="59.229" y="91.629" width="33.166" height="33.166" rx="6.242" ry="6.242" transform="translate(184.024 32.4) rotate(90)" fill="#6f81b9" stroke="#52306c" stroke-linecap="round" stroke-linejoin="round" stroke-width="2"/><rect x="102.331" y="91.629" width="33.166" height="33.166" rx="6.242" ry="6.242" transform="translate(227.126 -10.702) rotate(90)" fill="#1f7f99" stroke="#52306c" stroke-linecap="round" stroke-linejoin="round" stroke-width="2"/><path d="M105.414,98.068a3.109,3.109,0,0,1,3.109-3.109H112.4" fill="none" stroke="#fff" stroke-linecap="round" stroke-miterlimit="10" opacity="0.4"/><line x1="72.019" y1="94.96" x2="79.605" y2="94.96" fill="none" stroke="#fff" stroke-linecap="round" stroke-miterlimit="10" opacity="0.4"/><path d="M23.442,107.823c1.113,0.532,7.291,3.027,8.267,3.494a2.759,2.759,0,0,0,2.9-.171c1.236-.645,7.042-3.032,8.162-3.616a1.221,1.221,0,0,0,.822-0.737V104.7l0,0a1,1,0,0,0-.832-0.606c-1.092-.4-6.863-2.7-7.968-3.1a3.293,3.293,0,0,0-2.854.078c-1.3.466-7.443,2.877-8.536,3.3a0.994,0.994,0,0,0-.806.625v2.123A1.236,1.236,0,0,0,23.442,107.823Zm10.067,0.3-3.4-1.409,4.866-.747Zm7.366-3.349L38,105.905l-0.312.123-2.877-1.138L38,103.63Zm-8.449-2.086-0.471-.868,1.467,0.574,1.385-.453-0.375.9,1.411,0.528-1.819.189-0.408.98-0.659-1.094-2.1-.189ZM28.8,103.908c1.436,0,2.6.452,2.6,1.008s-1.165,1.008-2.6,1.008-2.6-.452-2.6-1.008S27.365,103.908,28.8,103.908Zm13.969,8.55c-1.121.584-6.926,2.971-8.162,3.616a2.759,2.759,0,0,1-2.9.172c-0.977-.466-7.154-2.962-8.267-3.494a1.257,1.257,0,0,1-.849-0.7v2.123a1.234,1.234,0,0,0,.849.7c1.113,0.532,7.291,3.027,8.267,3.494a2.758,2.758,0,0,0,2.9-.172c1.236-.644,7.042-3.031,8.162-3.616a1.219,1.219,0,0,0,.822-0.737v-2.093l0,0A1.279,1.279,0,0,1,42.771,112.458Zm0-3.462c-1.121.584-6.926,2.971-8.162,3.616a2.759,2.759,0,0,1-2.9.171c-0.977-.466-7.154-2.962-8.267-3.494a1.257,1.257,0,0,1-.849-0.7v2.123a1.233,1.233,0,0,0,.849.7c1.113,0.532,7.291,3.028,8.267,3.494a2.759,2.759,0,0,0,2.9-.171c1.236-.644,7.042-3.032,8.162-3.616a1.22,1.22,0,0,0,.822-0.737v-2.093l0,0A1.279,1.279,0,0,1,42.771,109Z" fill="#7f3434"/><path d="M72.6,111.2l1.592-8.062h1.891l-0.4,2.09h1.792c1.592,0.1,2.19.9,1.991,1.891l-0.7,4.081H76.779l0.7-3.683c0.1-.5.1-0.8-0.6-0.8H75.386l-0.9,4.479H72.6Z" fill="#4e5c7f"/><path d="M123.57,112.867a4.642,4.642,0,0,0-4.345-4.624v-0.063c-0.105.007-.2,0.031-0.311,0.031a4.644,4.644,0,0,1-.312-9.279,9.3,9.3,0,0,0,0,18.558c0.1,0.007.2,0.031,0.311,0.031l0.1-.01,0.207,0.01v-0.031A4.641,4.641,0,0,0,123.57,112.867Zm-4.345,3.3V116.2l-0.21-.01-0.1.01c-0.1,0-.2-0.021-0.3-0.03a8.079,8.079,0,0,1-5.568-13.139c-0.016.174-.027,0.35-0.027,0.529a6,6,0,0,0,5.9,6.021l0.31-.016v0.047a3.18,3.18,0,0,1,2.979,3.258A3.218,3.218,0,0,1,119.225,116.167Zm0-17.234V98.9l-0.192.01,0.181,0.02h0.011Zm0,0h-0.009l-0.2-.02h0.014l-0.118-.009-0.1.01L118.6,98.9v0.031a3.825,3.825,0,0,0-3.371,4,3.866,3.866,0,0,0,3.371,4v0.031a5.861,5.861,0,0,1,5.9,5.587,6.035,6.035,0,0,1-2.244,4.22A9.3,9.3,0,0,0,119.222,98.933Z" fill="#175b66"/><circle cx="18.516" cy="35.86" r="6.75" fill="#3ccb5a"/><path d="M18.515,29.861a6,6,0,1,1-6,6,6,6,0,0,1,6-6m0-1.5a7.5,7.5,0,1,0,7.5,7.5,7.508,7.508,0,0,0-7.5-7.5h0Z" fill="#52306c"/><path d="M14.15,34.881a4.353,4.353,0,0,1,4.263-3.474" fill="none" stroke="#fff" stroke-linecap="round" stroke-linejoin="round" stroke-width="0.621" opacity="0.4"/><path d="M21.042,35.311H19.286a0.221,0.221,0,0,1-.221-0.221V33.334a0.221,0.221,0,0,0-.221-0.221H18.187a0.221,0.221,0,0,0-.221.221V35.09a0.221,0.221,0,0,1-.221.221H15.989a0.221,0.221,0,0,0-.221.221v0.656a0.221,0.221,0,0,0,.221.221h1.756a0.221,0.221,0,0,1,.221.221v1.756a0.221,0.221,0,0,0,.221.221h0.656a0.221,0.221,0,0,0,.221-0.221V36.632a0.221,0.221,0,0,1,.221-0.221h1.756a0.221,0.221,0,0,0,.221-0.221V35.532A0.221,0.221,0,0,0,21.042,35.311Z" fill="#93002a" opacity="0.3" style="mix-blend-mode:multiply"/><circle cx="60.773" cy="35.86" r="6.75" fill="#3ccb5a"/><path d="M60.774,29.861a6,6,0,1,1-6,6,6,6,0,0,1,6-6m0-1.5a7.5,7.5,0,1,0,7.5,7.5,7.508,7.508,0,0,0-7.5-7.5h0Z" fill="#52306c"/><path d="M56.409,34.881a4.353,4.353,0,0,1,4.263-3.474" fill="none" stroke="#fff" stroke-linecap="round" stroke-linejoin="round" stroke-width="0.621" opacity="0.4"/><path d="M63.3,35.311H61.545a0.221,0.221,0,0,1-.221-0.221V33.334a0.221,0.221,0,0,0-.221-0.221H60.445a0.221,0.221,0,0,0-.221.221V35.09a0.221,0.221,0,0,1-.221.221H58.247a0.221,0.221,0,0,0-.221.221v0.656a0.221,0.221,0,0,0,.221.221H60a0.221,0.221,0,0,1,.221.221v1.756a0.221,0.221,0,0,0,.221.221H61.1a0.221,0.221,0,0,0,.221-0.221V36.632a0.221,0.221,0,0,1,.221-0.221H63.3a0.221,0.221,0,0,0,.221-0.221V35.532A0.221,0.221,0,0,0,63.3,35.311Z" fill="#93002a" opacity="0.3" style="mix-blend-mode:multiply"/><circle cx="104.667" cy="35.86" r="6.75" fill="#3ccb5a"/><path d="M104.667,29.861a6,6,0,1,1-6,6,6,6,0,0,1,6-6m0-1.5a7.5,7.5,0,1,0,7.5,7.5,7.508,7.508,0,0,0-7.5-7.5h0Z" fill="#52306c"/><path d="M100.3,34.881a4.353,4.353,0,0,1,4.263-3.474" fill="none" stroke="#fff" stroke-linecap="round" stroke-linejoin="round" stroke-width="0.621" opacity="0.4"/><path d="M107.193,35.311h-1.756a0.221,0.221,0,0,1-.221-0.221V33.334a0.221,0.221,0,0,0-.221-0.221h-0.656a0.221,0.221,0,0,0-.221.221V35.09a0.221,0.221,0,0,1-.221.221H102.14a0.221,0.221,0,0,0-.221.221v0.656a0.221,0.221,0,0,0,.221.221H103.9a0.221,0.221,0,0,1,.221.221v1.756a0.221,0.221,0,0,0,.221.221h0.656a0.221,0.221,0,0,0,.221-0.221V36.632a0.221,0.221,0,0,1,.221-0.221h1.756a0.221,0.221,0,0,0,.221-0.221V35.532A0.221,0.221,0,0,0,107.193,35.311Z" fill="#93002a" opacity="0.3" style="mix-blend-mode:multiply"/><circle cx="18.516" cy="80.22" r="6.75" fill="#3ccb5a"/><path d="M18.515,74.22a6,6,0,1,1-6,6,6,6,0,0,1,6-6m0-1.5a7.5,7.5,0,1,0,7.5,7.5,7.508,7.508,0,0,0-7.5-7.5h0Z" fill="#52306c"/><path d="M14.15,79.241a4.353,4.353,0,0,1,4.263-3.474" fill="none" stroke="#fff" stroke-linecap="round" stroke-linejoin="round" stroke-width="0.621" opacity="0.4"/><path d="M21.042,79.67H19.286a0.221,0.221,0,0,1-.221-0.221V77.693a0.221,0.221,0,0,0-.221-0.221H18.187a0.221,0.221,0,0,0-.221.221v1.756a0.221,0.221,0,0,1-.221.221H15.989a0.221,0.221,0,0,0-.221.221v0.656a0.221,0.221,0,0,0,.221.221h1.756a0.221,0.221,0,0,1,.221.221v1.756a0.221,0.221,0,0,0,.221.221h0.656a0.221,0.221,0,0,0,.221-0.221V80.991a0.221,0.221,0,0,1,.221-0.221h1.756a0.221,0.221,0,0,0,.221-0.221V79.892A0.221,0.221,0,0,0,21.042,79.67Z" fill="#93002a" opacity="0.3" style="mix-blend-mode:multiply"/><circle cx="60.773" cy="80.22" r="6.75" fill="#3ccb5a"/><path d="M60.774,74.22a6,6,0,1,1-6,6,6,6,0,0,1,6-6m0-1.5a7.5,7.5,0,1,0,7.5,7.5,7.508,7.508,0,0,0-7.5-7.5h0Z" fill="#52306c"/><path d="M56.409,79.241a4.353,4.353,0,0,1,4.263-3.474" fill="none" stroke="#fff" stroke-linecap="round" stroke-linejoin="round" stroke-width="0.621" opacity="0.4"/><path d="M63.3,79.67H61.545a0.221,0.221,0,0,1-.221-0.221V77.693a0.221,0.221,0,0,0-.221-0.221H60.445a0.221,0.221,0,0,0-.221.221v1.756A0.221,0.221,0,0,1,60,79.67H58.247a0.221,0.221,0,0,0-.221.221v0.656a0.221,0.221,0,0,0,.221.221H60a0.221,0.221,0,0,1,.221.221v1.756a0.221,0.221,0,0,0,.221.221H61.1a0.221,0.221,0,0,0,.221-0.221V80.991a0.221,0.221,0,0,1,.221-0.221H63.3a0.221,0.221,0,0,0,.221-0.221V79.892A0.221,0.221,0,0,0,63.3,79.67Z" fill="#93002a" opacity="0.3" style="mix-blend-mode:multiply"/><circle cx="104.667" cy="80.22" r="6.75" fill="#3ccb5a"/><path d="M104.667,74.22a6,6,0,1,1-6,6,6,6,0,0,1,6-6m0-1.5a7.5,7.5,0,1,0,7.5,7.5,7.508,7.508,0,0,0-7.5-7.5h0Z" fill="#52306c"/><path d="M100.3,79.241a4.353,4.353,0,0,1,4.263-3.474" fill="none" stroke="#fff" stroke-linecap="round" stroke-linejoin="round" stroke-width="0.621" opacity="0.4"/><path d="M107.193,79.67h-1.756a0.221,0.221,0,0,1-.221-0.221V77.693a0.221,0.221,0,0,0-.221-0.221h-0.656a0.221,0.221,0,0,0-.221.221v1.756a0.221,0.221,0,0,1-.221.221H102.14a0.221,0.221,0,0,0-.221.221v0.656a0.221,0.221,0,0,0,.221.221H103.9a0.221,0.221,0,0,1,.221.221v1.756a0.221,0.221,0,0,0,.221.221h0.656a0.221,0.221,0,0,0,.221-0.221V80.991a0.221,0.221,0,0,1,.221-0.221h1.756a0.221,0.221,0,0,0,.221-0.221V79.892A0.221,0.221,0,0,0,107.193,79.67Z" fill="#93002a" opacity="0.3" style="mix-blend-mode:multiply"/></g></g></g></svg>