<svg id="Layer_6" data-name="Layer 6" xmlns="http://www.w3.org/2000/svg" xmlns:xlink="http://www.w3.org/1999/xlink" viewBox="0 0 550.13 585.613"><defs><clipPath id="clip-path"><circle id="SVGID" cx="516.798" cy="13.827" r="5.339" fill="none"/></clipPath></defs><title>github-permissions-lg</title><rect y="27" width="550.13" height="558.613" fill="#fff"/><path d="M24.291,472.5H139.5a2,2,0,0,1,2,2v18.734a0,0,0,0,1,0,0H22.291a0,0,0,0,1,0,0V474.5A2,2,0,0,1,24.291,472.5Z" fill="#f7f7f7"/><line x1="141.497" y1="493.234" x2="22.291" y2="493.234" fill="none" stroke="#e5e5e5" stroke-miterlimit="10"/><path d="M24.291,375.778H139.5a2,2,0,0,1,2,2v18.734a0,0,0,0,1,0,0H22.291a0,0,0,0,1,0,0V377.778A2,2,0,0,1,24.291,375.778Z" fill="#f7f7f7"/><line x1="141.497" y1="396.512" x2="22.291" y2="396.512" fill="none" stroke="#e5e5e5" stroke-miterlimit="10"/><rect x="22.291" y="308.5" width="3.043" height="36" fill="#d06923"/><path d="M24.291,38.09H139.5a2,2,0,0,1,2,2V58.823a0,0,0,0,1,0,0H22.291a0,0,0,0,1,0,0V40.09A2,2,0,0,1,24.291,38.09Z" fill="#f7f7f7"/><rect width="550.13" height="27" fill="#f5f5f5"/><line x1="550.13" y1="27" y2="27" fill="none" stroke="#e5e5e5" stroke-miterlimit="10"/><path d="M34.6,8.708a7.506,7.506,0,0,1,.74,9.734,7.552,7.552,0,0,1-3.677,2.7,0.429,0.429,0,0,1-.4-0.081,0.4,0.4,0,0,1-.117-0.286l0.015-2.051a2.413,2.413,0,0,0-.161-0.872,1.387,1.387,0,0,0-.352-0.52,4.38,4.38,0,0,0,2.336-.842,3.478,3.478,0,0,0,1.091-2.864,3.2,3.2,0,0,0-.212-1.113,2.856,2.856,0,0,0-.564-0.894,2.033,2.033,0,0,0,.146-0.674,3.085,3.085,0,0,0-.22-1.318,1.074,1.074,0,0,0-.5.022,4.628,4.628,0,0,0-1.567.754,7.183,7.183,0,0,0-3.75,0,4.628,4.628,0,0,0-1.567-.754,1.074,1.074,0,0,0-.5-0.022,3.085,3.085,0,0,0-.22,1.318,2.033,2.033,0,0,0,.146.674,2.856,2.856,0,0,0-.564.894,3.2,3.2,0,0,0-.212,1.113,3.491,3.491,0,0,0,1.084,2.864,4.36,4.36,0,0,0,2.344.842,1.209,1.209,0,0,0-.3.4,2.133,2.133,0,0,0-.183.615,2.072,2.072,0,0,1-1,.183,1.513,1.513,0,0,1-1.187-.813,1.648,1.648,0,0,0-.293-0.366,1.4,1.4,0,0,0-.85-0.41,0.689,0.689,0,0,0-.286.059q-0.212.073,0.227,0.41a1.206,1.206,0,0,1,.286.22,2.5,2.5,0,0,1,.549.864,1.3,1.3,0,0,0,.476.615,2.434,2.434,0,0,0,2.043.278l0.015,1.392a0.4,0.4,0,0,1-.117.286,0.429,0.429,0,0,1-.4.081,7.552,7.552,0,0,1-3.677-2.7A7.5,7.5,0,0,1,34.6,8.708Z" fill="#333"/><g id="title"><path id="Rectangle-236-Copy-4" d="M46.73,9.339H222.339a4.476,4.476,0,0,1,4.495,4.457q0,0.019,0,.037h0a4.476,4.476,0,0,1-4.457,4.495H46.73a4.476,4.476,0,0,1-4.495-4.457q0-.019,0-0.037h0a4.476,4.476,0,0,1,4.457-4.495H46.73Z" fill="#fff"/></g><g id="title-2" data-name="title"><path id="Rectangle-236-Copy-4-2" data-name="Rectangle-236-Copy-4" d="M242.23,9.339h48.609a4.476,4.476,0,0,1,4.495,4.457q0,0.019,0,.037h0a4.476,4.476,0,0,1-4.457,4.495H242.23a4.476,4.476,0,0,1-4.495-4.457q0-.019,0-0.037h0a4.476,4.476,0,0,1,4.457-4.495h0.037Z" fill="#d8d8d8"/></g><g id="title-3" data-name="title"><path id="Rectangle-236-Copy-4-3" data-name="Rectangle-236-Copy-4" d="M308.23,9.339h20.609a4.476,4.476,0,0,1,4.495,4.457q0,0.019,0,.037h0a4.476,4.476,0,0,1-4.457,4.495H308.23a4.476,4.476,0,0,1-4.495-4.457q0-.019,0-0.037h0a4.476,4.476,0,0,1,4.457-4.495h0.037Z" fill="#d8d8d8"/></g><g id="title-4" data-name="title"><path id="Rectangle-236-Copy-4-4" data-name="Rectangle-236-Copy-4" d="M347.23,9.339h8.057a4.476,4.476,0,0,1,4.495,4.457q0,0.019,0,.037h0a4.476,4.476,0,0,1-4.457,4.495H347.23a4.476,4.476,0,0,1-4.495-4.457q0-.019,0-0.037h0a4.476,4.476,0,0,1,4.457-4.495h0.037Z" fill="#d8d8d8"/></g><path d="M498,13.083v1.5h-3v3h-1.5v-3h-3v-1.5h3v-3H495v3h3Z" fill="#333"/><path d="M503.529,12.337l-2,2-2-2h4Z" fill="#333"/><path d="M527.84,12.337l-2,2-2-2h4Z" fill="#333"/><rect x="22.291" y="376.119" width="119.206" height="87.881" rx="3" ry="3" fill="none" stroke="#e5e5e5" stroke-miterlimit="10"/><rect x="22.291" y="38.09" width="119.206" height="329.529" rx="3" ry="3" fill="none" stroke="#e5e5e5" stroke-miterlimit="10"/><rect x="22.291" y="472.5" width="119.206" height="87.881" rx="3" ry="3" fill="none" stroke="#e5e5e5" stroke-miterlimit="10"/><line x1="526.833" y1="67.497" x2="151.489" y2="67.497" fill="none" stroke="#e5e5e5" stroke-miterlimit="10"/><text transform="translate(181.667 51.333)" font-size="13" fill="#585858" font-family="San Francisco Text">Runnable</text><text transform="translate(151.489 159.479)" font-size="13" fill="#585858" font-family="San Francisco Text">P<tspan x="7.655" y="0">ermissions</tspan></text><text transform="translate(151.489 386.145)" font-size="13" fill="#585858" font-family="San Francisco Text">O<tspan x="8.741" y="0">r</tspan><tspan x="13.876" y="0">ganiz</tspan><tspan x="46.63" y="0">a</tspan><tspan x="53.746" y="0">tion access</tspan></text><text transform="translate(151.489 86.153)" font-size="10" fill="#585858" font-family="San Francisco Text">Runnable is tru<tspan x="68.656" y="0">s</tspan><tspan x="73.668" y="0">ted </tspan><tspan x="90.832" y="0">a</tspan><tspan x="96.206" y="0">t sma</tspan><tspan x="121.223" y="0">r</tspan><tspan x="125.376" y="0">t companies li</tspan><tspan x="188.756" y="0">k</tspan><tspan x="193.817" y="0">e eSha</tspan><tspan x="223.979" y="0">r</tspan><tspan x="227.83" y="0">e</tspan><tspan x="233.242" y="0">s</tspan><tspan x="238.196" y="0">, </tspan><tspan x="242.737" y="0">C</tspan><tspan x="248.995" y="0">ra</tspan><tspan x="258.223" y="0">tej</tspan><tspan x="270.174" y="0">o</tspan><tspan x="275.763" y="0">y</tspan><tspan x="280.395" y="0">, Co</tspan><tspan x="296.85" y="0">n</tspan><tspan x="302.629" y="0">v</tspan><tspan x="307.626" y="0">o</tspan><tspan x="313.215" y="0">y and mo</tspan><tspan x="354.256" y="0">r</tspan><tspan x="358.106" y="0">e. </tspan><tspan x="0" y="12">W</tspan><tspan x="8.259" y="12">e’ll ne</tspan><tspan x="35.406" y="12">v</tspan><tspan x="40.404" y="12">er </tspan><tspan x="51.842" y="12">s</tspan><tspan x="56.854" y="12">to</tspan><tspan x="66.2" y="12">r</tspan><tspan x="70.05" y="12">e or modify </tspan><tspan x="123.533" y="12">y</tspan><tspan x="128.721" y="12">our sou</tspan><tspan x="162.699" y="12">r</tspan><tspan x="166.549" y="12">ce code.</tspan></text><text transform="translate(151.489 305.437)" font-size="9" fill="#818181" font-family="San Francisco Text"><tspan style="white-space:pre">     </tspan><tspan x="10.129" y="0">A</tspan><tspan x="15.763" y="0">pplic</tspan><tspan x="36.334" y="0">a</tspan><tspan x="41.26" y="0">tions a</tspan><tspan x="69.429" y="0">c</tspan><tspan x="74.21" y="0">t</tspan><tspan x="77.665" y="0"> </tspan><tspan x="79.331" y="0">on </tspan><tspan x="91.873" y="0">y</tspan><tspan x="96.632" y="0">our behalf to access </tspan><tspan x="182.848" y="0">y</tspan><tspan x="187.607" y="0">our d</tspan><tspan x="209.07" y="0">a</tspan><tspan x="213.997" y="0">ta based on the permissions </tspan><tspan x="333.513" y="0">y</tspan><tspan x="338.272" y="0">ou </tspan><tspan x="0" y="13">g</tspan><tspan x="5.287" y="13">r</tspan><tspan x="8.846" y="13">a</tspan><tspan x="13.79" y="13">n</tspan><tspan x="19.151" y="13">t them. O</tspan><tspan x="57.116" y="13">r</tspan><tspan x="60.671" y="13">ganiz</tspan><tspan x="83.347" y="13">a</tspan><tspan x="88.273" y="13">tions co</tspan><tspan x="121.438" y="13">n</tspan><tspan x="126.8" y="13">t</tspan><tspan x="130.254" y="13">r</tspan><tspan x="133.809" y="13">ol </tspan><tspan x="143.433" y="13">w</tspan><tspan x="150.262" y="13">hich applic</tspan><tspan x="196.036" y="13">a</tspan><tspan x="200.962" y="13">tions a</tspan><tspan x="229.131" y="13">r</tspan><tspan x="232.686" y="13">e all</tspan><tspan x="249.539" y="13">ow</tspan><tspan x="261.365" y="13">ed to access their pr</tspan><tspan x="346.071" y="13">i</tspan><tspan x="348.715" y="13">va</tspan><tspan x="358.264" y="13">te </tspan><tspan x="0" y="26">d</tspan><tspan x="5.366" y="26">a</tspan><tspan x="10.292" y="26">ta. </tspan><tspan x="23.375" y="26">A</tspan><tspan x="29.008" y="26">pplic</tspan><tspan x="49.579" y="26">a</tspan><tspan x="54.505" y="26">tions </tspan><tspan x="77.73" y="26">y</tspan><tspan x="82.49" y="26">ou authorize will a</tspan><tspan x="158.309" y="26">l</tspan><tspan x="160.805" y="26">w</tspan><tspan x="167.581" y="26">ays h</tspan><tspan x="189.435" y="26">a</tspan><tspan x="194.291" y="26">v</tspan><tspan x="198.879" y="26">e access to public d</tspan><tspan x="280.586" y="26">a</tspan><tspan x="285.512" y="26">ta in </tspan><tspan x="305.952" y="26">y</tspan><tspan x="310.71" y="26">our o</tspan><tspan x="331.945" y="26">r</tspan><tspan x="335.5" y="26">ganiza</tspan><tspan x="363.118" y="26">-</tspan><tspan x="0" y="39">tion</tspan><tspan x="16.581" y="39">s</tspan><tspan x="21.129" y="39">. </tspan><tspan x="25.813" y="39" fill="#608ec8">Read about thi</tspan><tspan x="86.493" y="39" fill="#608ec8">r</tspan><tspan x="90.048" y="39" fill="#608ec8">d-pa</tspan><tspan x="109.397" y="39" fill="#608ec8">r</tspan><tspan x="113.225" y="39" fill="#608ec8">t</tspan><tspan x="116.811" y="39" fill="#608ec8">y acces</tspan><tspan x="147.823" y="39" fill="#608ec8">s</tspan><tspan x="152.372" y="39">.</tspan></text><rect id="bg" x="151.489" y="37.979" width="20.844" height="20.844" rx="2.501" ry="2.501" fill="#5f2e80"/><path id="logomark" d="M167.1,53.182l-10.087.525a1.206,1.206,0,0,1-1.35-1.124V45.176l12.506,0.391v6.51A1.127,1.127,0,0,1,167.1,53.182Zm-3.3-4.51-1.671-1.579a0.641,0.641,0,0,0-.858-0.012,0.534,0.534,0,0,0,0,.8l1.281,1.189-1.281,1.207a0.534,0.534,0,0,0,0,.8,0.641,0.641,0,0,0,.858-0.024l1.671-1.6A0.531,0.531,0,0,0,163.8,48.673Zm-8.14-4.453a1.206,1.206,0,0,1,1.35-1.124L167.1,43.621a1.127,1.127,0,0,1,1.069,1.106v0.42L155.658,44.7V44.22Zm3.439-.034a0.192,0.192,0,0,0,.191.181l0.381,0.015a0.173,0.173,0,0,0,.189-0.164V43.874a0.192,0.192,0,0,0-.189-0.181l-0.381-.018a0.173,0.173,0,0,0-.191.164v0.346Zm-1.3-.055a0.2,0.2,0,0,0,.2.183l0.391,0.016a0.176,0.176,0,0,0,.194-0.166V43.816a0.2,0.2,0,0,0-.194-0.183L158,43.614a0.177,0.177,0,0,0-.2.166v0.351Zm-1.329-.056a0.2,0.2,0,0,0,.2.186l0.4,0.016a0.18,0.18,0,0,0,.2-0.168V43.756a0.2,0.2,0,0,0-.2-0.186l-0.4-.019a0.18,0.18,0,0,0-.2.168v0.356Z" fill="#cbadd2" fill-rule="evenodd"/><text transform="translate(151.489 119)" font-size="9" fill="#818181" font-family="San Francisco Text">O<tspan x="6.183" y="0">wned </tspan><tspan x="30.709" y="0">b</tspan><tspan x="36.048" y="0">y </tspan><tspan x="42.93" y="0" fill="#608ec8">Runnable</tspan></text><rect x="446.833" y="144.563" width="80" height="16.5" rx="2" ry="2" fill="#f5f5f5" stroke="#dadada" stroke-miterlimit="10"/><text transform="translate(453.293 156.503)" font-size="10" fill="#9a0c11" font-family="San Francisco Text">Re<tspan x="11.772" y="0">v</tspan><tspan x="16.87" y="0">o</tspan><tspan x="22.578" y="0">k</tspan><tspan x="27.739" y="0">e access</tspan></text><rect x="451.293" y="399.917" width="71.859" height="16.5" rx="2" ry="2" fill="#f5f5f5" stroke="#dadada" stroke-miterlimit="10"/><text transform="translate(456.974 411.857)" font-size="10" fill="#585858" font-family="San Francisco Text">G<tspan x="6.528" y="0">r</tspan><tspan x="10.483" y="0">a</tspan><tspan x="15.977" y="0">n</tspan><tspan x="21.934" y="0">t access</tspan></text><rect x="151.489" y="167.667" width="375.344" height="120.667" rx="2" ry="2" fill="none" stroke="#e5e5e5" stroke-miterlimit="10"/><rect x="151.489" y="395" width="375.344" height="77.5" rx="2" ry="2" fill="none" stroke="#e5e5e5" stroke-miterlimit="10"/><text transform="translate(172.333 187.667)" font-size="9" fill="#858585" font-family="San Francisco Text">Read o<tspan x="28.068" y="0">r</tspan><tspan x="31.623" y="0">g and team membe</tspan><tspan x="111.015" y="0">r</tspan><tspan x="114.57" y="0">ship</tspan></text><text transform="translate(172.333 217)" font-size="9" fill="#858585" font-family="San Francisco Text">Read <tspan x="22.931" y="0">r</tspan><tspan x="26.486" y="0">epos</tspan><tspan x="46.551" y="0">i</tspan><tspan x="49.144" y="0">to</tspan><tspan x="57.735" y="0">r</tspan><tspan x="61.4" y="0">y hoo</tspan><tspan x="83.966" y="0">k</tspan><tspan x="88.712" y="0">s</tspan></text><text transform="translate(172.333 247.667)" font-size="9" fill="#858585" font-family="San Francisco Text">F<tspan x="4.729" y="0">ull co</tspan><tspan x="26.974" y="0">n</tspan><tspan x="32.335" y="0">t</tspan><tspan x="35.789" y="0">r</tspan><tspan x="39.344" y="0">ol </tspan><tspan x="48.968" y="0">o</tspan><tspan x="54.088" y="0">f pr</tspan><tspan x="68.607" y="0">i</tspan><tspan x="71.253" y="0">va</tspan><tspan x="80.802" y="0">te </tspan><tspan x="91.244" y="0">r</tspan><tspan x="94.799" y="0">epos</tspan><tspan x="114.864" y="0">i</tspan><tspan x="117.457" y="0">tories</tspan></text><text transform="translate(172.333 277)" font-size="9" fill="#858585" font-family="San Francisco Text">Access user email add<tspan x="92.562" y="0">r</tspan><tspan x="96.117" y="0">esses (</tspan><tspan x="124.889" y="0">r</tspan><tspan x="128.443" y="0">ead-on</tspan><tspan x="157.922" y="0">l</tspan><tspan x="160.471" y="0">y)</tspan></text><polyline points="166.65 182.673 163.074 186.697 161.285 184.685" fill="none" stroke="#58a43b" stroke-miterlimit="10"/><polyline points="166.65 212.48 163.074 216.504 161.285 214.492" fill="none" stroke="#58a43b" stroke-miterlimit="10"/><polyline points="166.65 242.65 163.074 246.673 161.285 244.662" fill="none" stroke="#58a43b" stroke-miterlimit="10"/><polyline points="166.65 271.983 163.074 276.007 161.285 273.995" fill="none" stroke="#58a43b" stroke-miterlimit="10"/><line x1="526.833" y1="258.5" x2="151.489" y2="258.5" fill="none" stroke="#e5e5e5" stroke-miterlimit="10"/><line x1="151.489" y1="228.5" x2="526.833" y2="228.5" fill="none" stroke="#e5e5e5" stroke-miterlimit="10"/><line x1="526.833" y1="198.5" x2="151.489" y2="198.5" fill="none" stroke="#e5e5e5" stroke-miterlimit="10"/><g opacity="0.5"><path d="M157.474,300.516A3.514,3.514,0,1,1,155,299.494,3.48,3.48,0,0,1,157.474,300.516Zm-0.622,4.334a2.625,2.625,0,1,0-1.856.769A2.615,2.615,0,0,0,156.852,304.85Zm-0.954-3.306a1,1,0,0,1,.41.793,1.027,1.027,0,0,1-.273.738,1.447,1.447,0,0,1-.6.355h-0.875a0.589,0.589,0,0,1,.438-0.437,0.589,0.589,0,0,0,.438-0.437,0.439,0.439,0,0,0-.137-0.3,0.413,0.413,0,0,0-.6,0,0.439,0.439,0,0,0-.137.3h-0.875A1.411,1.411,0,0,1,155,301.244,1.492,1.492,0,0,1,155.9,301.544Zm-1.34,2.324h0.875v0.875h-0.875v-0.875Z" fill="#818181"/></g><line x1="526.833" y1="421" x2="151.489" y2="421" fill="none" stroke="#e5e5e5" stroke-miterlimit="10"/><line x1="151.489" y1="447.5" x2="526.833" y2="447.5" fill="none" stroke="#e5e5e5" stroke-miterlimit="10"/><rect x="158" y="402.333" width="11.667" height="11.667" rx="2" ry="2" fill="#e5e5e5"/><rect x="158" y="428.417" width="11.667" height="11.667" rx="2" ry="2" fill="#e5e5e5"/><rect x="158" y="454.167" width="11.667" height="11.667" rx="2" ry="2" fill="#e5e5e5"/><circle cx="161.5" cy="406.25" r="1.754" fill="#fff"/><circle cx="161.5" cy="406.25" r="1" fill="#e5e5e5"/><circle cx="166.46" cy="406.25" r="1.754" fill="#fff"/><circle cx="166.46" cy="406.25" r="1" fill="#e5e5e5"/><path d="M167.814,432.843a1.353,1.353,0,0,0-2.706,0" fill="none" stroke="#fff" stroke-linecap="round" stroke-miterlimit="10"/><path d="M162.853,432.843a1.353,1.353,0,0,0-2.706,0" fill="none" stroke="#fff" stroke-linecap="round" stroke-miterlimit="10"/><circle cx="160.941" cy="457.833" r="1" fill="#fff"/><circle cx="166.726" cy="457.833" r="1" fill="#fff"/><rect x="159.941" y="461.667" width="7.785" height="2.333" rx="1.167" ry="1.167" fill="#fff"/><line x1="167.03" y1="410.667" x2="160.637" y2="410.667" fill="none" stroke="#fff" stroke-linecap="round" stroke-miterlimit="10"/><circle cx="163.833" cy="437.187" r="1.103" fill="none" stroke="#fff" stroke-linecap="round" stroke-miterlimit="10"/><text transform="translate(174.879 411.516)" font-size="9" fill="#585858" font-family="Myriad Pro" font-weight="700">Y<tspan x="4.329" y="0">our </tspan><tspan x="19.593" y="0">O</tspan><tspan x="25.956" y="0">r</tspan><tspan x="29.087" y="0">ganiz</tspan><tspan x="50.318" y="0">a</tspan><tspan x="54.836" y="0">tion</tspan></text><g id="title-5" data-name="title"><path id="Rectangle-236-Copy-4-5" data-name="Rectangle-236-Copy-4" d="M179.374,429.755h48.609a4.476,4.476,0,0,1,4.495,4.457q0,0.019,0,.037h0a4.476,4.476,0,0,1-4.457,4.495H179.374a4.476,4.476,0,0,1-4.495-4.457q0-.019,0-0.037h0a4.476,4.476,0,0,1,4.457-4.495h0.037Z" fill="#eee"/></g><g id="title-6" data-name="title"><path id="Rectangle-236-Copy-4-6" data-name="Rectangle-236-Copy-4" d="M179.374,455.505h73.833a4.476,4.476,0,0,1,4.495,4.457q0,0.019,0,.037h0a4.476,4.476,0,0,1-4.457,4.495H179.374a4.476,4.476,0,0,1-4.495-4.457q0-.019,0-0.037h0a4.476,4.476,0,0,1,4.457-4.495h0.037Z" fill="#eee"/></g><rect x="29.214" y="520.428" width="11.667" height="11.667" rx="2" ry="2" fill="#e5e5e5"/><rect x="29.214" y="543.006" width="11.667" height="11.667" rx="2" ry="2" fill="#e5e5e5"/><path d="M39.027,524.854a1.353,1.353,0,0,0-2.706,0" fill="none" stroke="#fff" stroke-linecap="round" stroke-miterlimit="10"/><path d="M34.067,524.854a1.353,1.353,0,0,0-2.706,0" fill="none" stroke="#fff" stroke-linecap="round" stroke-miterlimit="10"/><circle cx="32.155" cy="546.673" r="1" fill="#fff"/><circle cx="37.94" cy="546.673" r="1" fill="#fff"/><rect x="31.155" y="550.506" width="7.785" height="2.333" rx="1.167" ry="1.167" fill="#fff"/><rect x="29.214" y="499.481" width="11.667" height="11.667" rx="2" ry="2" fill="#e5e5e5"/><circle cx="32.714" cy="503.398" r="1.754" fill="#fff"/><circle cx="32.714" cy="503.398" r="1" fill="#e5e5e5"/><circle cx="37.674" cy="503.398" r="1.754" fill="#fff"/><circle cx="37.674" cy="503.398" r="1" fill="#e5e5e5"/><line x1="38.243" y1="507.815" x2="31.851" y2="507.815" fill="none" stroke="#fff" stroke-linecap="round" stroke-miterlimit="10"/><circle cx="35.047" cy="529.198" r="1.103" fill="none" stroke="#fff" stroke-linecap="round" stroke-miterlimit="10"/><g id="title-7" data-name="title"><path id="Rectangle-236-Copy-4-7" data-name="Rectangle-236-Copy-4" d="M50.587,521.767H99.2a4.476,4.476,0,0,1,4.495,4.457q0,0.019,0,.037h0a4.476,4.476,0,0,1-4.457,4.495H50.587a4.476,4.476,0,0,1-4.495-4.457q0-.019,0-0.037h0a4.476,4.476,0,0,1,4.457-4.495h0.037Z" fill="#eee"/></g><g id="title-8" data-name="title"><path id="Rectangle-236-Copy-4-8" data-name="Rectangle-236-Copy-4" d="M50.587,500.9h60.965a4.476,4.476,0,0,1,4.495,4.457q0,0.019,0,.037h0a4.476,4.476,0,0,1-4.457,4.495h-61a4.476,4.476,0,0,1-4.495-4.457q0-.019,0-0.037h0A4.476,4.476,0,0,1,50.55,500.9h0.037Z" fill="#eee"/></g><g id="title-9" data-name="title"><path id="Rectangle-236-Copy-4-9" data-name="Rectangle-236-Copy-4" d="M50.587,544.345h73.833a4.476,4.476,0,0,1,4.495,4.457q0,0.019,0,.037h0a4.476,4.476,0,0,1-4.457,4.495H50.587a4.476,4.476,0,0,1-4.495-4.457q0-.019,0-0.037h0a4.476,4.476,0,0,1,4.457-4.495h0.037Z" fill="#eee"/></g><line x1="141.497" y1="58.823" x2="22.291" y2="58.823" fill="none" stroke="#e5e5e5" stroke-miterlimit="10"/><g id="title-10" data-name="title"><path id="Rectangle-236-Copy-4-10" data-name="Rectangle-236-Copy-4" d="M33.788,65.407H51.711a4.476,4.476,0,0,1,4.495,4.457q0,0.019,0,.037h0A4.476,4.476,0,0,1,51.748,74.4H33.788a4.476,4.476,0,0,1-4.495-4.457q0-.019,0-0.037h0a4.476,4.476,0,0,1,4.457-4.495h0.037Z" fill="#eee"/></g><g id="title-11" data-name="title"><path id="Rectangle-236-Copy-4-11" data-name="Rectangle-236-Copy-4" d="M33.788,88H62.44a4.476,4.476,0,0,1,4.495,4.457q0,0.019,0,.037h0a4.476,4.476,0,0,1-4.457,4.495H33.788a4.476,4.476,0,0,1-4.495-4.457q0-.019,0-0.037h0A4.476,4.476,0,0,1,33.751,88h0.037Z" fill="#eee"/></g><g id="title-12" data-name="title"><path id="Rectangle-236-Copy-4-12" data-name="Rectangle-236-Copy-4" d="M33.788,110.011H51.711a4.476,4.476,0,0,1,4.495,4.457q0,0.019,0,.037h0A4.476,4.476,0,0,1,51.748,119H33.788a4.476,4.476,0,0,1-4.495-4.457q0-.019,0-0.037h0a4.476,4.476,0,0,1,4.457-4.495h0.037Z" fill="#eee"/></g><g id="title-13" data-name="title"><path id="Rectangle-236-Copy-4-13" data-name="Rectangle-236-Copy-4" d="M33.788,132.085H82.4a4.476,4.476,0,0,1,4.495,4.457q0,0.019,0,.037h0a4.476,4.476,0,0,1-4.457,4.495H33.788a4.476,4.476,0,0,1-4.495-4.457q0-.019,0-0.037h0a4.476,4.476,0,0,1,4.457-4.495h0.037Z" fill="#eee"/></g><g id="title-14" data-name="title"><path id="Rectangle-236-Copy-4-14" data-name="Rectangle-236-Copy-4" d="M33.788,156.5H49.463a4.476,4.476,0,0,1,4.495,4.457q0,0.019,0,.037h0a4.476,4.476,0,0,1-4.457,4.495H33.788a4.476,4.476,0,0,1-4.495-4.457q0-.019,0-0.037h0a4.476,4.476,0,0,1,4.457-4.495h0.037Z" fill="#eee"/></g><g id="title-15" data-name="title"><path id="Rectangle-236-Copy-4-15" data-name="Rectangle-236-Copy-4" d="M33.788,179.092l76.051,1.1a4.476,4.476,0,0,1,4.495,4.457q0,0.019,0,.037h0a4.476,4.476,0,0,1-4.457,4.495h-0.037l-76.051-1.1a4.476,4.476,0,0,1-4.495-4.457q0-.019,0-0.037h0a4.476,4.476,0,0,1,4.457-4.495h0.037Z" fill="#eee"/></g><g id="title-16" data-name="title"><path id="Rectangle-236-Copy-4-16" data-name="Rectangle-236-Copy-4" d="M33.788,201.107h31.35a4.476,4.476,0,0,1,4.495,4.457q0,0.019,0,.037h0a4.476,4.476,0,0,1-4.457,4.495H33.788a4.476,4.476,0,0,1-4.495-4.457q0-.019,0-0.037h0a4.476,4.476,0,0,1,4.457-4.495h0.037Z" fill="#eee"/></g><g id="title-17" data-name="title"><path id="Rectangle-236-Copy-4-17" data-name="Rectangle-236-Copy-4" d="M33.788,223.181h53.1a4.476,4.476,0,0,1,4.495,4.457q0,0.019,0,.037h0a4.476,4.476,0,0,1-4.457,4.495H33.788a4.476,4.476,0,0,1-4.495-4.457q0-.019,0-0.037h0a4.476,4.476,0,0,1,4.457-4.495h0.037Z" fill="#eee"/></g><g id="title-18" data-name="title"><path id="Rectangle-236-Copy-4-18" data-name="Rectangle-236-Copy-4" d="M33.788,246.673H79.646a4.476,4.476,0,0,1,4.495,4.457q0,0.019,0,.037h0a4.476,4.476,0,0,1-4.457,4.495h-45.9a4.476,4.476,0,0,1-4.495-4.457q0-.019,0-0.037h0a4.476,4.476,0,0,1,4.457-4.495h0.037Z" fill="#eee"/></g><g id="title-19" data-name="title"><path id="Rectangle-236-Copy-4-19" data-name="Rectangle-236-Copy-4" d="M33.788,269.262H84.644a4.476,4.476,0,0,1,4.495,4.457q0,0.019,0,.037h0a4.476,4.476,0,0,1-4.457,4.495H33.788a4.476,4.476,0,0,1-4.495-4.457q0-.019,0-0.037h0a4.476,4.476,0,0,1,4.457-4.495h0.037Z" fill="#eee"/></g><g id="title-20" data-name="title"><path id="Rectangle-236-Copy-4-20" data-name="Rectangle-236-Copy-4" d="M33.788,291.277H84.5A4.476,4.476,0,0,1,89,295.734q0,0.019,0,.037h0a4.476,4.476,0,0,1-4.457,4.495H33.788a4.476,4.476,0,0,1-4.495-4.457q0-.019,0-0.037h0a4.476,4.476,0,0,1,4.457-4.495h0.037Z" fill="#eee"/></g><g id="title-21" data-name="title"><path id="Rectangle-236-Copy-4-21" data-name="Rectangle-236-Copy-4" d="M33.788,315.006H84.5A4.476,4.476,0,0,1,89,319.463q0,0.019,0,.037h0A4.476,4.476,0,0,1,84.539,324H33.788a4.476,4.476,0,0,1-4.495-4.457q0-.019,0-0.037h0a4.476,4.476,0,0,1,4.457-4.495h0.037Z" fill="#d8d8d8"/></g><g id="title-22" data-name="title"><path id="Rectangle-236-Copy-4-22" data-name="Rectangle-236-Copy-4" d="M33.788,329.506H84.5A4.476,4.476,0,0,1,89,333.963q0,0.019,0,.037h0a4.476,4.476,0,0,1-4.457,4.495H33.788a4.476,4.476,0,0,1-4.495-4.457q0-.019,0-0.037h0a4.476,4.476,0,0,1,4.457-4.495h0.037Z" fill="#d8d8d8"/></g><g id="title-23" data-name="title"><path id="Rectangle-236-Copy-4-23" data-name="Rectangle-236-Copy-4" d="M33.788,351.508h83.551a4.476,4.476,0,0,1,4.495,4.457q0,0.019,0,.037h0a4.476,4.476,0,0,1-4.457,4.495H33.788a4.476,4.476,0,0,1-4.495-4.457q0-.019,0-0.037h0a4.476,4.476,0,0,1,4.457-4.495h0.037Z" fill="#eee"/></g><g id="title-24" data-name="title"><path id="Rectangle-236-Copy-4-24" data-name="Rectangle-236-Copy-4" d="M33.788,403.268h73.551a4.476,4.476,0,0,1,4.495,4.457q0,0.019,0,.037h0a4.476,4.476,0,0,1-4.457,4.495H33.788a4.476,4.476,0,0,1-4.495-4.457q0-.019,0-0.037h0a4.476,4.476,0,0,1,4.457-4.495h0.037Z" fill="#eee"/></g><g id="title-25" data-name="title"><path id="Rectangle-236-Copy-4-25" data-name="Rectangle-236-Copy-4" d="M33.788,425.261H75.563a4.476,4.476,0,0,1,4.495,4.457q0,0.019,0,.037h0A4.476,4.476,0,0,1,75.6,434.25H33.788a4.476,4.476,0,0,1-4.495-4.457q0-.019,0-0.037h0a4.476,4.476,0,0,1,4.457-4.495h0.037Z" fill="#eee"/></g><g id="title-26" data-name="title"><path id="Rectangle-236-Copy-4-26" data-name="Rectangle-236-Copy-4" d="M33.788,448.185h95.051a4.476,4.476,0,0,1,4.495,4.457q0,0.019,0,.037h0a4.476,4.476,0,0,1-4.457,4.495H33.788a4.476,4.476,0,0,1-4.495-4.457q0-.019,0-0.037h0a4.476,4.476,0,0,1,4.457-4.495h0.037Z" fill="#eee"/></g><circle cx="516.798" cy="13.827" r="5.339" fill="#e3e3e4"/><g clip-path="url(#clip-path)"><path d="M514.134,10.544a1.228,1.228,0,0,0-.928.261,0.884,0.884,0,0,0-.4.625,0.967,0.967,0,0,0,.618.852,0.691,0.691,0,0,1,.462.924,0.082,0.082,0,0,0,.047.107,0.081,0.081,0,0,0,.03.006,0.082,0.082,0,0,0,.077-0.053,1.247,1.247,0,0,0,.044-0.135l0.811-.709a0.082,0.082,0,0,0,.144-0.062l-0.005-.055C514.974,11.675,514.888,10.725,514.134,10.544Z" fill="#aaa"/><path d="M520.752,11.43a0.884,0.884,0,0,0-.4-0.625,1.228,1.228,0,0,0-.928-0.261c-0.754.181-.841,1.132-0.9,1.761l-0.005.055a0.082,0.082,0,0,0,.144.062l0.811,0.709a1.27,1.27,0,0,0,.044.135,0.083,0.083,0,0,0,.077.053,0.08,0.08,0,0,0,.03-0.006,0.082,0.082,0,0,0,.047-0.107,0.691,0.691,0,0,1,.462-0.924A0.967,0.967,0,0,0,520.752,11.43Z" fill="#aaa"/><path d="M512.887,19.789H520.5c-0.1-.451-0.195-0.843-0.261-1.151a10.465,10.465,0,0,1-.1-1.492c0.027-.887.132-4.756-1-5.493a3.858,3.858,0,0,0-1.835-.474,1.129,1.129,0,0,1,.19-0.248,0.736,0.736,0,0,0-.515.108c0.074-.069.144-0.185,0.221-0.255a1.239,1.239,0,0,0-.979.375,3.341,3.341,0,0,0-1.943.561c-1.07.847-1.008,5.427-1.008,5.427l-0.133,1.492S513.032,19.1,512.887,19.789Z" fill="#aaa"/><path d="M515.749,13.264c0.6-.862,3.209-0.609,2.143,2.15-0.155.4-.339,0.8-0.511,1.191a0.519,0.519,0,0,0-.07-0.074c-0.184.3-.411,0.163-0.6-0.113-0.053.06-.434,0.17-0.49,0.228C515.645,15.956,515.148,14.126,515.749,13.264Z" fill="#eaeaea"/><path d="M517.557,13.584a1.85,1.85,0,0,0-1.518,0c-0.24.248,0.32,0.816,0.759,0.852C517.237,14.4,517.8,13.832,517.557,13.584Z" fill="#aaa"/><path d="M516.887,15.5H516.71a0.107,0.107,0,0,1,0-.214h0.177A0.107,0.107,0,1,1,516.887,15.5Z" fill="#aaa"/><path d="M516.8,15.5a0.107,0.107,0,0,1-.107-0.107V14.435a0.107,0.107,0,0,1,.214,0v0.958A0.107,0.107,0,0,1,516.8,15.5Z" fill="#aaa"/></g></svg>