<?xml version="1.0" encoding="utf-8"?>
<!-- Generator: Adobe Illustrator 18.1.1, SVG Export Plug-In . SVG Version: 6.00 Build 0)  -->
<!DOCTYPE svg PUBLIC "-//W3C//DTD SVG 1.1//EN" "http://www.w3.org/Graphics/SVG/1.1/DTD/svg11.dtd">
<svg version="1.1" id="Layer_1" xmlns="http://www.w3.org/2000/svg" xmlns:xlink="http://www.w3.org/1999/xlink" x="0px" y="0px"
	 viewBox="-102 -4.5 240 45" enable-background="new -102 -4.5 240 45" xml:space="preserve">
<path fill="#CCCCCC" d="M-63.6,2l-33.8-1.7c-2.5-0.1-4.5,1.6-4.5,3.8v1.6L-60,7V5.7C-59.9,3.7-61.5,2.1-63.6,2L-63.6,2z M-96.6,3.6
	c0,0.3-0.3,0.7-0.7,0.7h-1.3c-0.3,0-0.7-0.3-0.7-0.7V2.4c0-0.3,0.3-0.7,0.7-0.7h1.3c0.3,0,0.7,0.3,0.7,0.7V3.6z M-92.1,3.7
	c0,0.3-0.3,0.7-0.7,0.5H-94c-0.3,0-0.7-0.3-0.7-0.7V2.3c0-0.3,0.3-0.7,0.7-0.5h1.3c0.3,0,0.7,0.3,0.7,0.7V3.7L-92.1,3.7z M-87.8,3.8
	c0,0.3-0.3,0.7-0.7,0.5h-1.3c-0.3,0-0.7-0.3-0.7-0.7V2.4c0-0.3,0.3-0.7,0.7-0.5h1.3c0.3,0,0.7,0.3,0.7,0.7V3.8z M-101.9,32
	c0,2.2,2.1,3.8,4.5,3.8l33.8-1.7c2-0.1,3.6-1.7,3.6-3.7V8.5l-41.9-1.3V32C-101.9,32-101.9,32-101.9,32z M-83.1,16.2
	c-0.8-0.8-0.8-2,0-2.8c0.8-0.8,2.1-0.7,2.9,0l5.7,5.3c0.8,0.7,0.8,2,0,2.5l-5.7,5.4c-0.8,0.8-2.1,0.8-2.9,0c-0.8-0.7-0.8-2,0-2.8
	l4.3-4C-78.8,20.2-83.1,16.2-83.1,16.2z"/>
<path fill="#CCCCCC" d="M-30.8,10c-0.3-0.1-0.7-0.1-1.2-0.3c-0.5-0.1-0.8-0.1-1.3-0.1c-0.8,0-1.4,0.1-2.1,0.3
	c-0.7,0.1-1.2,0.5-1.6,0.9c-0.5,0.3-0.9,0.8-1.3,1.3c-0.3,0.5-0.8,0.9-1.2,1.4v-3.3h-7.3c0,0.3,0,0.7,0,1.2c0,0.5,0,0.9,0.1,1.6
	c0,0.5,0,1.2,0,1.7c0,0.6,0,1.2,0,1.6v17h8V20.5c0-0.8,0-1.3,0.1-1.7c0.1-0.5,0.3-0.8,0.8-1.2c0.1-0.1,0.5-0.5,0.9-0.7
	c0.5-0.1,0.9-0.3,1.7-0.3c0.5,0,0.9,0,1.4,0.1c0.5,0.1,0.8,0.3,1.3,0.7L-30.8,10L-30.8,10z M-6.5,33.1V10.3h-8v13.3
	c0,0.7,0,1.2-0.1,1.4c-0.1,0.3-0.3,0.8-0.8,1.3c-0.1,0.3-0.5,0.5-0.8,0.7c-0.3,0.1-0.8,0.3-1.3,0.3c-1.7,0-2.5-1.2-2.5-3.2V10.3h-8
	v15.8c0,1.2,0.1,2.1,0.5,3c0.3,0.9,0.7,1.7,1.3,2.4c0.6,0.7,1.3,1.3,2.2,1.6c0.9,0.3,2.1,0.7,3.3,0.7c1.6,0,2.9-0.3,4-0.9
	c1.2-0.7,2.1-1.6,2.9-2.8v3L-6.5,33.1L-6.5,33.1z M20.8,33.1V17.3c0-1.2-0.1-2.1-0.5-3c-0.3-0.9-0.7-1.7-1.3-2.4
	c-0.6-0.7-1.4-1.3-2.4-1.6c-0.9-0.3-2.1-0.7-3.6-0.7c-1.6,0-3,0.3-4.3,1.2c-1.2,0.7-2.2,1.6-3,2.9v-3.2h-7.4v22.8h8V20
	c0-0.7,0-1.2,0.1-1.4c0.1-0.3,0.3-0.8,0.8-1.2C7.6,17.1,8,17,8.2,16.7c0.5-0.1,0.8-0.3,1.3-0.3c0.9,0,1.7,0.3,2.1,0.8
	c0.5,0.5,0.7,1.3,0.7,2.4v13.7L20.8,33.1L20.8,33.1z M47.8,33.1V17.3c0-1.2-0.1-2.1-0.5-3c-0.3-0.9-0.7-1.7-1.3-2.4
	c-0.7-0.7-1.4-1.3-2.4-1.6c-0.9-0.3-2.1-0.7-3.6-0.7c-1.6,0-3,0.3-4.3,1.2c-1.2,0.7-2.2,1.6-3,2.9v-3.2h-7.4v22.8h8V20
	c0-0.7,0-1.2,0.1-1.4c0.1-0.3,0.3-0.8,0.8-1.2c0.3-0.3,0.7-0.5,0.9-0.7c0.5-0.1,0.8-0.3,1.3-0.3c0.9,0,1.7,0.3,2.1,0.8
	c0.5,0.5,0.7,1.3,0.7,2.4v13.7L47.8,33.1L47.8,33.1z M64.8,25.5c0,0.9-0.3,1.6-0.8,2.2c-0.7,0.7-1.4,0.9-2.5,0.9
	c-0.7,0-1.3-0.1-1.6-0.7c-0.5-0.5-0.7-0.9-0.7-1.6c0-0.7,0.1-0.9,0.5-1.4c0.3-0.3,0.7-0.7,1.2-0.8c0.5-0.1,0.9-0.3,1.4-0.3
	c0.5,0,0.9-0.1,1.4-0.1c0.3,0,0.5,0,0.8,0c0.3,0,0.5,0,0.7,0L64.8,25.5L64.8,25.5z M74.3,28.2c-0.1,0-0.3,0.1-0.5,0.1
	c-0.1,0-0.3,0-0.5,0c-0.3,0-0.7-0.1-0.8-0.5c-0.1-0.3-0.1-0.7-0.1-0.9v-9.2c0-1.7-0.3-3-0.9-4.2c-0.6-1.2-1.4-2-2.4-2.5
	c-1-0.6-2.1-0.9-3.3-1.3c-1.3-0.1-2.4-0.3-3.6-0.3c-1.7,0-3.6,0.1-5,0.5c-1.6,0.3-3,0.8-4.6,1.4l1.7,5.7c0.8-0.5,1.6-0.9,2.8-1.3
	c0.9-0.3,2.2-0.5,3.3-0.5c0.8,0,1.6,0,2.1,0.1c0.5,0.1,0.9,0.3,1.3,0.7c0.3,0.3,0.5,0.5,0.7,0.8c0.1,0.3,0.1,0.7,0.1,0.9v0.8
	c0,0.3-0.1,0.7-0.5,0.7c-0.3,0.1-0.7,0.1-1.2,0.1c-1.3,0-2.8,0.1-4,0.3c-1.4,0.1-2.8,0.5-3.8,1.2C54,21.2,53.1,22,52.3,23
	s-1.2,2.2-1.2,3.8c0,0.9,0.1,2,0.5,2.8c0.3,0.8,0.8,1.6,1.4,2.2s1.3,1.2,2.2,1.4c0.8,0.3,1.7,0.5,2.9,0.5c1.6,0,3-0.3,4.2-0.8
	c1.2-0.5,2.1-1.3,3-2.4c0.3,0.8,0.8,1.6,1.6,2.1c0.8,0.5,1.7,0.8,3,0.8c0.8,0,1.6,0,2.4-0.1s1.4-0.3,2-0.3L74.3,28.2L74.3,28.2z
	 M92.1,24.3c-0.1,0.7-0.3,1.3-0.7,2c-0.3,0.7-0.7,1.2-1.2,1.4c-0.5,0.3-1.2,0.7-2,0.7c-0.9,0-1.7-0.1-2.2-0.7
	c-0.5-0.5-0.7-0.9-0.7-1.7v-6.3c0-0.5,0-0.9,0.1-1.3c0.1-0.3,0.3-0.7,0.8-1.2c0.3-0.3,0.7-0.5,0.9-0.7c0.3-0.1,0.8-0.3,1.3-0.3
	c0.8,0,1.4,0.1,2,0.7c0.5,0.5,0.8,0.9,1.2,1.6c0.3,0.7,0.5,1.3,0.5,2c0.1,0.7,0.1,1.3,0.1,2C92.4,22.8,92.3,23.7,92.1,24.3
	L92.1,24.3z M100.2,17c-0.3-1.4-0.8-2.8-1.6-3.8c-0.8-1.2-1.6-2-2.8-2.8c-1.2-0.7-2.4-0.9-4-0.9c-1.4,0-2.8,0.3-3.7,0.9
	c-0.9,0.7-2,1.4-2.5,2.4V1.7h-8v31.4h7.8v-0.9c0.5,0.5,1.3,0.9,2.2,1.3c0.9,0.3,2,0.5,2.8,0.5c2,0,3.6-0.3,4.8-1.2
	c1.3-0.8,2.4-1.7,3.2-3c0.8-1.2,1.4-2.5,1.7-4c0.3-1.4,0.5-2.9,0.5-4.3C100.6,19.8,100.4,18.5,100.2,17L100.2,17z M112.3,33.1V1.7
	h-8v31.4H112.3z M123.6,18.6c0-0.5,0-0.8,0.1-1.3c0.1-0.5,0.3-0.9,0.7-1.3c0.3-0.5,0.7-0.8,1.2-0.9c0.5-0.3,0.9-0.3,1.7-0.3
	c1.2,0,2.1,0.5,2.8,1.3c0.7,0.8,0.8,1.7,0.8,2.9h-7.2v-0.3H123.6z M137.5,16.2c-0.3-1.3-0.9-2.4-2-3.3c-0.8-0.9-2-1.7-3.3-2.4
	c-1.3-0.7-3-0.9-4.8-0.9c-2,0-3.7,0.3-5.1,0.9c-1.4,0.7-2.8,1.6-3.7,2.8c-0.9,1.2-1.7,2.4-2.2,3.8c-0.5,1.4-0.8,3-0.8,4.8
	c0,2.1,0.3,3.8,0.9,5.3c0.6,1.5,1.6,2.8,2.8,3.7c1.2,0.9,2.5,1.7,4.2,2.2s3.3,0.8,5.3,0.8c1.6,0,3.2-0.1,4.8-0.5
	c1.4-0.3,2.8-0.7,3.8-0.9l-1.4-5.7c-0.8,0.3-1.7,0.7-2.8,0.9c-0.9,0.3-2.1,0.5-3.2,0.5c-2.1,0-3.7-0.5-4.8-1.3
	c-1.2-0.8-1.6-2.1-1.6-3.6V23h14.2c0-0.1,0-0.5,0-0.7v-0.8c0-0.3,0-0.7,0-0.8V20C138.2,18.7,137.9,17.4,137.5,16.2L137.5,16.2z"/>
</svg>
