<?xml version="1.0" encoding="utf-8"?>
<!-- Generator: Adobe Illustrator 18.1.1, SVG Export Plug-In . SVG Version: 6.00 Build 0)  -->
<!DOCTYPE svg PUBLIC "-//W3C//DTD SVG 1.1//EN" "http://www.w3.org/Graphics/SVG/1.1/DTD/svg11.dtd">
<svg version="1.1" id="Layer_1" xmlns="http://www.w3.org/2000/svg" xmlns:xlink="http://www.w3.org/1999/xlink" x="0px" y="0px"
	 viewBox="0 0 45 45" enable-background="new 0 0 45 45" xml:space="preserve">
<path fill="#FFFFFF" d="M41.2,5.3L4.8,3.4C2.1,3.3,0,5.1,0,7.5v1.7l45,1.5V9.2C45.1,7.1,43.4,5.4,41.2,5.3L41.2,5.3z M5.7,7
	c0,0.4-0.4,0.7-0.7,0.7H3.6C3.2,7.8,2.9,7.4,2.9,7V5.8C2.9,5.4,3.2,5,3.6,5H5c0.4,0,0.7,0.4,0.7,0.7V7z M10.5,7.1
	c0,0.4-0.4,0.7-0.7,0.5H8.4c-0.4,0-0.7-0.4-0.7-0.7V5.6c0-0.4,0.4-0.7,0.7-0.5h1.4c0.4,0,0.7,0.4,0.7,0.7V7.1L10.5,7.1z M15.1,7.3
	c0,0.4-0.4,0.7-0.7,0.5H13c-0.4,0-0.7-0.4-0.7-0.7V5.8c0-0.4,0.4-0.7,0.7-0.5h1.4c0.4,0,0.7,0.4,0.7,0.7V7.3z M0,37.5
	c0,2.4,2.2,4.1,4.8,4.1l36.3-1.9c2.1-0.1,3.8-1.9,3.8-4V12.3L0,11V37.5C0,37.5,0,37.5,0,37.5z M20.2,20.5c-0.9-0.9-0.9-2.1,0-3
	c0.9-0.9,2.2-0.7,3.1,0l6.1,5.7c0.9,0.7,0.9,2.1,0,2.7l-6.1,5.8c-0.9,0.9-2.2,0.9-3.1,0c-0.9-0.7-0.9-2.1,0-3l4.6-4.3
	C24.8,24.9,20.2,20.5,20.2,20.5z"/>
</svg>
