<svg xmlns="http://www.w3.org/2000/svg" xmlns:xlink="http://www.w3.org/1999/xlink" viewBox="0 0 400 400"><defs><clipPath id="clip-path"><circle id="SVGID" cx="200" cy="200" r="199.999" fill="none"/></clipPath></defs><title>runnabear-team</title><g style="isolation:isolate"><g id="teambear"><g clip-path="url(#clip-path)"><circle cx="200" cy="200" r="199.999" fill="#ccadd2"/><g id="_basic_Bear" data-name="#basic Bear"><g id="Body"><path d="M108.009,154.019c13.111-33.872-36.466-30.047-34.754-58.228,0.953-15.695,25.6-29.589,39.7-26.2,23.222,5.571,25.364,36.875,27.155,56.344" fill="#853cbe" stroke="#52306c" stroke-linecap="round" stroke-linejoin="round" stroke-width="2.675"/><path d="M124.937,118.756s-4.6-21.416-20.575-25.84C93.626,89.945,87.487,97.407,88.5,102.9c1.536,8.338,25.423,19.595,28.848,25.433" fill="#5b3777" opacity="0.6"/><path d="M290.079,154.019c-13.11-33.872,36.465-30.047,34.756-58.228-0.954-15.695-25.6-29.589-39.7-26.2-23.221,5.571-25.363,36.875-27.154,56.344" fill="#853cbe" stroke="#52306c" stroke-linecap="round" stroke-linejoin="round" stroke-width="2.675"/><path d="M273.151,118.756s4.6-21.416,20.574-25.84c10.738-2.97,16.875,4.492,15.865,9.984-1.536,8.338-25.424,19.595-28.848,25.433" fill="#5b3777" opacity="0.6"/><path d="M338.428,489.786c5.44,97.832-20.436,122.5-28.3,162.427-0.444,8.487.192,30.755,0.192,30.755H251.345l-1.566-39.808c0-35.775-49.733-33.757-49.733-33.757s-49.615-2.018-49.615,33.707l-1.57,39.809H89.893s0.637-22.268.194-30.756c-7.87-39.928-33.75-64.6-28.308-162.426,3.846-69.082,25.966-178.794,25.966-178.794l7.807-45.335s-1.88-139.192,30.631-164.945c14.454-11.451,33.7-15.556,59.057-17.048,8.474-7.455,19.064-13.191,29.767-11.4-2.344,2.133-4.494,5.652-6.731,7.758,6.167-4.068,8.891-3.1,15.65-3.274a34.445,34.445,0,0,0-5.786,7.552c22.02,1.944,40.3,4.3,55.773,14.409,34.269,22.4,31.074,139.993,30.259,166.952,0,0,5.141,31.26,8.176,45.335,7.771,36,22.122,109.711,25.965,178.794" fill="#853cbe" stroke="#52306c" stroke-linecap="round" stroke-linejoin="round" stroke-width="2.675"/><path d="M199.733,324.825c-18.726,0-65.315-3.357-65.315,93.612,0,109.674,23.188,178.135,65.317,178.135s65.318-68.461,65.318-178.135C265.053,321.467,218.457,324.825,199.733,324.825Z" fill="#ccadd2" opacity="0.2"/><path d="M199.733,324.825c-18.726,0-65.315-3.357-65.315,93.612,0,109.674,23.188,178.135,65.317,178.135s65.318-68.461,65.318-178.135C265.053,321.467,218.457,324.825,199.733,324.825Z" fill="none" stroke="#52306c" stroke-miterlimit="10" stroke-width="2.675"/></g><g id="R_Arm" data-name="R Arm"><path d="M317.764,608.074c-18.829,15.472-28.239-7.823-15.3-19.518a42.565,42.565,0,0,1-2.049-7.07c-19.6-3.335-13.894-23.838.642-35.247,4.855-33.847,23.78-78.828,22.228-131.171-1.726-57.961-6.381-81.509-17.286-105.14l-12.9-37.282c4.869,3.654,9.571,6.9,14.334,10.289l4.822,28.006s22.122,109.711,25.967,178.794c3.931,70.706-8.494,103.192-18.66,130.847C314.316,616.8,318.842,608.578,317.764,608.074Z" fill="#231f20" opacity="0.12"/><polygon points="305.497 272.647 283.875 280.493 303.464 309.929 318.367 301.653 305.497 272.647" fill="#853cbe"/><path d="M305.5,272.647c20.93,18.641,38.216,26.661,77.188,96.915a11.036,11.036,0,0,1,8.487,10.449,10.2,10.2,0,0,1-1.346,4.983c0.912,2.118,1.829,4.219,2.713,6.393,18.451,45.4,24.894,117.4,11.206,160.744-4.637,14.67-10.86,26.205-17.906,35.066-7.107,33.3-34.109,40.54-32.525,22.462-1.389.362-.1,0.653-1.47,0.881-6.779,22.967-30.993,11.235-22.884-2.466-0.972-.421.75-0.875-0.16-1.379-18.077,20.973-32.251-6.444-18.077-15.808-0.728-2.22-3.144-6.906-3.566-9.4-16.516-3.335-11.711-23.838.542-35.247,4.09-33.847,16.152-78.828,14.843-131.171-1.451-57.961-9.884-81.509-19.077-105.14" fill="#853cbe" stroke="#52306c" stroke-linecap="round" stroke-linejoin="round" stroke-width="2.831"/></g><g id="L_Arm" data-name="L Arm"><path d="M82.236,608.074c18.831,15.472,28.239-7.823,15.3-19.518a42.555,42.555,0,0,0,2.049-7.07c19.6-3.335,13.895-23.838-.644-35.247-4.854-33.847-23.779-78.828-22.225-131.171C78.438,357.108,83.093,333.56,94,309.929l12.9-37.282c-4.869,3.654-9.571,6.9-14.335,10.289l-4.821,28.006S65.626,420.654,61.78,489.737c-3.933,70.706,8.492,103.192,18.659,130.847C85.684,616.8,81.158,608.578,82.236,608.074Z" fill="#231f20" opacity="0.12"/><polygon points="94.502 272.647 116.126 280.493 96.537 309.929 81.632 301.653 94.502 272.647" fill="#853cbe"/><path d="M96.537,309.929c-9.193,23.63-17.626,47.179-19.078,105.14C76.151,467.412,88.21,512.393,92.3,546.24c12.25,11.409,17.059,31.913.54,35.247-0.421,2.494-2.837,7.18-3.566,9.4,14.174,9.364,0,36.78-18.076,15.808-0.908.5,0.812,0.958-.159,1.379,8.108,13.7-16.1,25.433-22.884,2.466-1.372-.228-0.082-0.519-1.473-0.881C48.27,627.736,21.267,620.5,14.161,587.2,7.115,578.336.892,566.8-3.746,552.131c-13.688-43.344-7.246-115.34,11.208-160.744,0.882-2.174,1.8-4.274,2.711-6.393a10.2,10.2,0,0,1-1.345-4.983,11.035,11.035,0,0,1,8.486-10.449c38.973-70.254,56.259-78.274,77.188-96.915" fill="#853cbe" stroke="#52306c" stroke-linecap="round" stroke-linejoin="round" stroke-width="2.831"/></g><g id="Face"><path d="M131.207,129.365s6.356-10.287,18.863-10.287" fill="none" stroke="#231f20" stroke-linecap="round" stroke-linejoin="round" stroke-width="5.35" opacity="0.15" style="mix-blend-mode:multiply"/><path d="M131.207,126.428s6.356-10.287,18.863-10.287" fill="none" stroke="#52306c" stroke-linecap="round" stroke-linejoin="round" stroke-width="5.35"/><path d="M268.462,126.461s-8.77-8.328-20.865-5.146" fill="none" stroke="#231f20" stroke-linecap="round" stroke-linejoin="round" stroke-width="5.35" opacity="0.15" style="mix-blend-mode:multiply"/><path d="M268.873,123.886s-8.769-8.328-20.865-5.144" fill="none" stroke="#52306c" stroke-linecap="round" stroke-linejoin="round" stroke-width="5.35"/><circle cx="142.648" cy="140.004" r="5.085" fill="#52306c" stroke="#52306c" stroke-miterlimit="10" stroke-width="0.802"/><circle cx="256.256" cy="140.004" r="5.085" fill="#52306c" stroke="#52306c" stroke-miterlimit="10" stroke-width="0.802"/><path d="M173.37,148.18c15.107-21.65,80.647-15.3,53.836,54.015-3.89,10.1-8.51,20.023-12.841,29.935-0.466.542-.81-2.119-1.761-1.847-4.625,7.586-10.328,4.107-15.159-2.83-1.341,1.505-10.913,4.274-12.31,5.742C170.757,215.807,158.256,169.831,173.37,148.18Z" fill="#231f20" opacity="0.15" style="mix-blend-mode:multiply"/><path d="M173.37,141.159c15.107-21.65,80.647-15.3,53.836,54.015-3.89,10.1-8.51,20.023-12.841,29.935-0.466.543-.81-2.118-1.761-1.847-4.625,7.587-10.328,4.106-15.159-2.829-1.341,1.5-10.913,4.273-12.31,5.742C170.757,208.786,158.256,162.81,173.37,141.159Z" fill="#ccadd2" stroke="#52306c" stroke-miterlimit="10" stroke-width="2.675"/><g opacity="0.2" style="mix-blend-mode:multiply"><path d="M218.8,152.355c-2.59-2.68-10.569-4.039-19.066-4.091-8.5.052-16.474,1.411-19.067,4.091-6.04,6.244,8.051,20.512,19.067,21.4C210.751,172.867,224.841,158.6,218.8,152.355Z" fill="#231f20"/></g><path d="M218.8,149.183c-2.59-2.679-10.569-4.04-19.066-4.09-8.5.05-16.474,1.411-19.067,4.09-6.04,6.242,8.051,20.51,19.067,21.4C210.751,169.693,224.841,155.425,218.8,149.183Z" fill="#52306c"/><path d="M214.226,150.537c-3.593-1.217-8.925-1.838-14.488-1.87-5.523.031-10.816,0.642-14.4,1.845" fill="none" stroke="#fff" stroke-linecap="round" stroke-linejoin="round" stroke-width="1.739"/><path d="M196.1,195.108s6.528,0.805,8.4-1.069" fill="none" stroke="#52306c" stroke-linecap="round" stroke-linejoin="round" stroke-width="2.136"/><line x1="199.78" y1="194.659" x2="199.78" y2="170.584" fill="none" stroke="#52306c" stroke-linecap="round" stroke-linejoin="round" stroke-width="2.675"/><g opacity="0.6"><line x1="102.486" y1="209.168" x2="102.486" y2="220.871" fill="#808285" stroke="#5b3777" stroke-linecap="round" stroke-linejoin="round" stroke-width="2.675"/><line x1="109.469" y1="215.827" x2="109.469" y2="232.879" fill="#808285" stroke="#5b3777" stroke-linecap="round" stroke-linejoin="round" stroke-width="2.675"/><line x1="116.455" y1="228.754" x2="116.455" y2="249.888" fill="#808285" stroke="#5b3777" stroke-linecap="round" stroke-linejoin="round" stroke-width="2.675"/><line x1="123.437" y1="237.307" x2="123.437" y2="265.469" fill="#808285" stroke="#5b3777" stroke-linecap="round" stroke-linejoin="round" stroke-width="2.675"/><line x1="130.42" y1="234.773" x2="130.42" y2="262.935" fill="#808285" stroke="#5b3777" stroke-linecap="round" stroke-linejoin="round" stroke-width="2.675"/><line x1="137.403" y1="244.36" x2="137.403" y2="272.521" fill="#808285" stroke="#5b3777" stroke-linecap="round" stroke-linejoin="round" stroke-width="2.675"/><line x1="144.387" y1="250.53" x2="144.387" y2="278.692" fill="#808285" stroke="#5b3777" stroke-linecap="round" stroke-linejoin="round" stroke-width="2.675"/><line x1="151.371" y1="256.326" x2="151.371" y2="284.486" fill="#808285" stroke="#5b3777" stroke-linecap="round" stroke-linejoin="round" stroke-width="2.675"/><line x1="158.352" y1="261.452" x2="158.352" y2="289.611" fill="#808285" stroke="#5b3777" stroke-linecap="round" stroke-linejoin="round" stroke-width="2.675"/><line x1="165.336" y1="262.935" x2="165.336" y2="285.742" fill="#808285" stroke="#5b3777" stroke-linecap="round" stroke-linejoin="round" stroke-width="2.675"/><line x1="172.321" y1="265.469" x2="172.321" y2="290.953" fill="#808285" stroke="#5b3777" stroke-linecap="round" stroke-linejoin="round" stroke-width="2.675"/><line x1="179.304" y1="257.663" x2="179.304" y2="297.944" fill="#808285" stroke="#5b3777" stroke-linecap="round" stroke-linejoin="round" stroke-width="2.675"/><line x1="186.287" y1="267.25" x2="186.287" y2="307.528" fill="#808285" stroke="#5b3777" stroke-linecap="round" stroke-linejoin="round" stroke-width="2.675"/><line x1="193.269" y1="274.338" x2="193.269" y2="314.618" fill="#808285" stroke="#5b3777" stroke-linecap="round" stroke-linejoin="round" stroke-width="2.675"/><line x1="200.252" y1="277.803" x2="200.252" y2="312.8" fill="#808285" stroke="#5b3777" stroke-linecap="round" stroke-linejoin="round" stroke-width="2.675"/><line x1="207.238" y1="272.114" x2="207.238" y2="307.111" fill="#808285" stroke="#5b3777" stroke-linecap="round" stroke-linejoin="round" stroke-width="2.675"/><line x1="214.22" y1="266.989" x2="214.22" y2="301.983" fill="#808285" stroke="#5b3777" stroke-linecap="round" stroke-linejoin="round" stroke-width="2.675"/><line x1="221.202" y1="275.311" x2="221.202" y2="310.305" fill="#808285" stroke="#5b3777" stroke-linecap="round" stroke-linejoin="round" stroke-width="2.675"/><line x1="228.185" y1="278.945" x2="228.185" y2="301.653" fill="#808285" stroke="#5b3777" stroke-linecap="round" stroke-linejoin="round" stroke-width="2.675"/><line x1="235.172" y1="266.515" x2="235.172" y2="294.574" fill="#808285" stroke="#5b3777" stroke-linecap="round" stroke-linejoin="round" stroke-width="2.675"/><line x1="242.154" y1="260.985" x2="242.154" y2="289.04" fill="#808285" stroke="#5b3777" stroke-linecap="round" stroke-linejoin="round" stroke-width="2.675"/><line x1="249.136" y1="257.789" x2="249.136" y2="283.169" fill="#808285" stroke="#5b3777" stroke-linecap="round" stroke-linejoin="round" stroke-width="2.675"/><line x1="256.119" y1="248.54" x2="256.119" y2="273.92" fill="#808285" stroke="#5b3777" stroke-linecap="round" stroke-linejoin="round" stroke-width="2.675"/><line x1="263.103" y1="236.78" x2="263.103" y2="278.431" fill="#808285" stroke="#5b3777" stroke-linecap="round" stroke-linejoin="round" stroke-width="2.675"/><line x1="270.087" y1="242.835" x2="270.087" y2="269.141" fill="#808285" stroke="#5b3777" stroke-linecap="round" stroke-linejoin="round" stroke-width="2.675"/><line x1="277.07" y1="239.232" x2="277.07" y2="260.188" fill="#808285" stroke="#5b3777" stroke-linecap="round" stroke-linejoin="round" stroke-width="2.675"/><line x1="284.053" y1="229.68" x2="284.053" y2="247.96" fill="#808285" stroke="#5b3777" stroke-linecap="round" stroke-linejoin="round" stroke-width="2.675"/><line x1="291.037" y1="222.849" x2="291.037" y2="235.78" fill="#808285" stroke="#5b3777" stroke-linecap="round" stroke-linejoin="round" stroke-width="2.675"/><line x1="298.02" y1="211.257" x2="298.02" y2="224.188" fill="#808285" stroke="#5b3777" stroke-linecap="round" stroke-linejoin="round" stroke-width="2.675"/></g><g opacity="0.4"><line x1="109.469" y1="194.649" x2="109.469" y2="206.686" fill="#808285" stroke="#5b3777" stroke-linecap="round" stroke-linejoin="round" stroke-width="2.675"/><line x1="116.455" y1="203.901" x2="116.455" y2="218.614" fill="#808285" stroke="#5b3777" stroke-linecap="round" stroke-linejoin="round" stroke-width="2.675"/><line x1="123.437" y1="209.168" x2="123.437" y2="228.227" fill="#808285" stroke="#5b3777" stroke-linecap="round" stroke-linejoin="round" stroke-width="2.675"/><line x1="277.07" y1="215.271" x2="277.07" y2="227.308" fill="#808285" stroke="#5b3777" stroke-linecap="round" stroke-linejoin="round" stroke-width="2.675"/><line x1="284.053" y1="203.007" x2="284.053" y2="217.72" fill="#808285" stroke="#5b3777" stroke-linecap="round" stroke-linejoin="round" stroke-width="2.675"/><line x1="291.037" y1="196.073" x2="291.037" y2="206.239" fill="#808285" stroke="#5b3777" stroke-linecap="round" stroke-linejoin="round" stroke-width="2.675"/></g><g opacity="0.4"><line x1="137.562" y1="232.825" x2="137.562" y2="238.733" fill="#853cbe" stroke="#5b3777" stroke-linecap="round" stroke-linejoin="round" stroke-width="2.675"/><line x1="221.202" y1="267.08" x2="221.202" y2="270.97" fill="#853cbe" stroke="#5b3777" stroke-linecap="round" stroke-linejoin="round" stroke-width="2.675"/><line x1="256.119" y1="240.379" x2="256.119" y2="243.614" fill="#853cbe" stroke="#5b3777" stroke-linecap="round" stroke-linejoin="round" stroke-width="2.675"/><line x1="263.103" y1="228.645" x2="263.103" y2="231.878" fill="#853cbe" stroke="#5b3777" stroke-linecap="round" stroke-linejoin="round" stroke-width="2.675"/><line x1="130.42" y1="224.353" x2="130.42" y2="230.259" fill="#853cbe" stroke="#5b3777" stroke-linecap="round" stroke-linejoin="round" stroke-width="2.675"/><line x1="165.336" y1="251.978" x2="165.336" y2="257.886" fill="#853cbe" stroke="#5b3777" stroke-linecap="round" stroke-linejoin="round" stroke-width="2.675"/><line x1="193.269" y1="266.97" x2="193.269" y2="270.201" fill="#853cbe" stroke="#5b3777" stroke-linecap="round" stroke-linejoin="round" stroke-width="2.675"/><line x1="151.371" y1="251.249" x2="151.371" y2="251.806" fill="#853cbe" stroke="#5b3777" stroke-linecap="round" stroke-linejoin="round" stroke-width="2.675"/><line x1="249.136" y1="251.701" x2="249.136" y2="253.362" fill="#853cbe" stroke="#5b3777" stroke-linecap="round" stroke-linejoin="round" stroke-width="2.675"/><line x1="158.352" y1="250.698" x2="158.352" y2="256.604" fill="#853cbe" stroke="#5b3777" stroke-linecap="round" stroke-linejoin="round" stroke-width="2.675"/></g><g opacity="0.3"><line x1="144.387" y1="216.054" x2="144.387" y2="221.931" fill="none" stroke="#5b3777" stroke-linecap="round" stroke-linejoin="round" stroke-width="2.675"/><line x1="151.371" y1="221.847" x2="151.371" y2="234.669" fill="none" stroke="#5b3777" stroke-linecap="round" stroke-linejoin="round" stroke-width="2.675"/><line x1="158.352" y1="231.937" x2="158.352" y2="240.719" fill="none" stroke="#5b3777" stroke-linecap="round" stroke-linejoin="round" stroke-width="2.675"/><line x1="172.321" y1="244.923" x2="172.321" y2="255.426" fill="none" stroke="#5b3777" stroke-linecap="round" stroke-linejoin="round" stroke-width="2.675"/><line x1="235.172" y1="242.248" x2="235.172" y2="253.127" fill="none" stroke="#5b3777" stroke-linecap="round" stroke-linejoin="round" stroke-width="2.675"/><line x1="193.269" y1="248.525" x2="193.269" y2="258.655" fill="none" stroke="#5b3777" stroke-linecap="round" stroke-linejoin="round" stroke-width="2.675"/><line x1="200.252" y1="257.093" x2="200.252" y2="267.223" fill="none" stroke="#5b3777" stroke-linecap="round" stroke-linejoin="round" stroke-width="2.675"/><line x1="242.154" y1="226.989" x2="242.154" y2="246.076" fill="none" stroke="#5b3777" stroke-linecap="round" stroke-linejoin="round" stroke-width="2.675"/><line x1="291.037" y1="182.909" x2="291.037" y2="189.998" fill="none" stroke="#5b3777" stroke-linecap="round" stroke-linejoin="round" stroke-width="2.675"/><line x1="291.037" y1="175.351" x2="291.037" y2="177.093" fill="none" stroke="#5b3777" stroke-linecap="round" stroke-linejoin="round" stroke-width="2.675"/><line x1="256.119" y1="222.554" x2="256.119" y2="232.585" fill="none" stroke="#5b3777" stroke-linecap="round" stroke-linejoin="round" stroke-width="2.675"/><line x1="256.119" y1="211.816" x2="256.119" y2="217.083" fill="none" stroke="#5b3777" stroke-linecap="round" stroke-linejoin="round" stroke-width="2.675"/><line x1="277.07" y1="189.998" x2="277.07" y2="207.903" fill="none" stroke="#5b3777" stroke-linecap="round" stroke-linejoin="round" stroke-width="2.675"/><line x1="123.437" y1="187.966" x2="123.437" y2="201.409" fill="none" stroke="#5b3777" stroke-linecap="round" stroke-linejoin="round" stroke-width="2.675"/><line x1="109.469" y1="177.574" x2="109.469" y2="185.585" fill="none" stroke="#5b3777" stroke-linecap="round" stroke-linejoin="round" stroke-width="2.675"/></g><g opacity="0.3"><line x1="192.826" y1="115.548" x2="192.826" y2="123.16" fill="#808285" stroke="#5b3777" stroke-linecap="round" stroke-linejoin="round" stroke-width="2.675"/><line x1="199.805" y1="112.873" x2="199.805" y2="123.16" fill="#808285" stroke="#5b3777" stroke-linecap="round" stroke-linejoin="round" stroke-width="2.675"/><line x1="206.791" y1="115.548" x2="206.791" y2="123.16" fill="#808285" stroke="#5b3777" stroke-linecap="round" stroke-linejoin="round" stroke-width="2.675"/></g></g><g id="Fur" opacity="0.6"><line x1="81.947" y1="300.765" x2="76.166" y2="307.855" fill="none" stroke="#5b3777" stroke-linecap="round" stroke-linejoin="round" stroke-width="2.675"/><line x1="55.196" y1="320.904" x2="66.743" y2="308.675" fill="none" stroke="#5b3777" stroke-linecap="round" stroke-linejoin="round" stroke-width="2.675"/><line x1="336.959" y1="314.618" x2="344.985" y2="327.813" fill="none" stroke="#5b3777" stroke-linecap="round" stroke-linejoin="round" stroke-width="2.675"/><line x1="347.095" y1="330.504" x2="347.864" y2="331.768" fill="none" stroke="#5b3777" stroke-linecap="round" stroke-linejoin="round" stroke-width="2.675"/><line x1="98.502" y1="338.513" x2="98.502" y2="355.457" fill="none" stroke="#5b3777" stroke-linecap="round" stroke-linejoin="round" stroke-width="2.675"/><line x1="103.881" y1="355.457" x2="103.881" y2="367.049" fill="none" stroke="#5b3777" stroke-linecap="round" stroke-linejoin="round" stroke-width="2.675"/><line x1="282.771" y1="368.831" x2="282.771" y2="388.449" fill="none" stroke="#5b3777" stroke-linecap="round" stroke-linejoin="round" stroke-width="2.675"/><line x1="292.428" y1="364.374" x2="292.428" y2="378.638" fill="none" stroke="#5b3777" stroke-linecap="round" stroke-linejoin="round" stroke-width="2.675"/><line x1="292.428" y1="383.991" x2="292.428" y2="393.017" fill="none" stroke="#5b3777" stroke-linecap="round" stroke-linejoin="round" stroke-width="2.675"/><line x1="308.424" y1="396.475" x2="308.424" y2="413.413" fill="none" stroke="#5b3777" stroke-linecap="round" stroke-linejoin="round" stroke-width="2.675"/><line x1="235.449" y1="381.315" x2="235.449" y2="396.621" fill="none" stroke="#5b3777" stroke-linecap="round" stroke-linejoin="round" stroke-width="2.675"/><line x1="235.449" y1="400.777" x2="235.449" y2="405.717" fill="none" stroke="#5b3777" stroke-linecap="round" stroke-linejoin="round" stroke-width="2.675"/></g><g id="jersey"><path d="M94.432,272.114s67.055,38.256,105.3,38.256c33.753,0,105.435-38.256,105.435-38.256,36.984,17.5,77.516,97.448,77.516,97.448l-64.318,59.616H88.39L17.315,369.562S66.743,281.686,94.432,272.114Z" fill="#0b65d1" stroke="#52306c" stroke-miterlimit="10" stroke-width="2.136"/><path d="M303.307,309.693c19.846,46.493,19.584,98.6,19.324,115.531" fill="none" stroke="#52306c" stroke-miterlimit="10" stroke-width="2.136"/><path d="M96.791,309.693c-19.846,46.493-19.584,98.6-19.324,115.531" fill="none" stroke="#52306c" stroke-miterlimit="10" stroke-width="2.136"/><path d="M82.7,357.467c-5.764-7.24-31.017-28.824-38.043-33.154a78.128,78.128,0,0,1,11.806-15.788c5.846-5.826,26.165,17.184,31.929,24.424Z" fill="#c1d7e5" stroke="#52306c" stroke-miterlimit="10" stroke-width="2.136"/><path d="M318.194,357.467c5.764-7.24,31.017-28.824,38.043-33.154a78.128,78.128,0,0,0-11.806-15.788c-5.846-5.826-26.165,17.184-31.929,24.424Z" fill="#c1d7e5" stroke="#52306c" stroke-miterlimit="10" stroke-width="2.136"/><rect x="164.423" y="367.222" width="70.622" height="105.622" rx="17.971" ry="17.971" fill="#c1d7e5" stroke="#52306c" stroke-miterlimit="10" stroke-width="2.136"/><rect x="182.879" y="386.864" width="33.71" height="66.338" rx="7" ry="7" fill="#0b65d1" stroke="#52306c" stroke-miterlimit="10" stroke-width="2.136"/></g></g></g><circle cx="340.622" cy="59.378" r="53" fill="#f25058"/><circle cx="340.622" cy="59.378" r="15" fill="#fff"/></g></g></svg>