<svg xmlns="http://www.w3.org/2000/svg" xmlns:xlink="http://www.w3.org/1999/xlink" viewBox="0 0 300 569.452"><defs><clipPath id="clip-path" transform="translate(0 0)"><circle cx="150" cy="150" r="127.5" fill="none"/></clipPath></defs><title>runnabear-add</title><g style="isolation:isolate"><g id="Layer_1" data-name="Layer 1"><path d="M150,278.5A128.5,128.5,0,1,1,278.5,150,128.645,128.645,0,0,1,150,278.5Z" transform="translate(0 0)" fill="#ccadd2"/><path d="M150,22.5A127.5,127.5,0,1,1,22.5,150,127.5,127.5,0,0,1,150,22.5m0-2A129.5,129.5,0,0,0,58.43,241.57,129.5,129.5,0,1,0,241.57,58.43,128.652,128.652,0,0,0,150,20.5h0Z" transform="translate(0 0)" fill="#52306c"/><g clip-path="url(#clip-path)"><g id="_basic_Bear" data-name="#basic Bear"><g id="Body"><path d="M76.285,150.316c10.364-26.773-28.824-23.75-27.472-46.024C49.568,91.887,69.047,80.9,80.192,83.581c18.355,4.4,20.05,29.145,21.463,44.534" transform="translate(0 0)" fill="#853cbe" stroke="#52306c" stroke-linecap="round" stroke-linejoin="round" stroke-width="2.114"/><path d="M89.665,122.443S86.03,105.516,73.4,102.019c-8.484-2.348-13.337,3.551-12.54,7.893,1.215,6.59,20.095,15.486,22.8,20.1" transform="translate(0 0)" fill="#5b3777" opacity="0.6"/><path d="M220.191,150.316c-10.363-26.773,28.82-23.75,27.47-46.024-0.753-12.405-20.23-23.387-31.379-20.711-18.353,4.4-20.046,29.145-21.463,44.534" transform="translate(0 0)" fill="#853cbe" stroke="#52306c" stroke-linecap="round" stroke-linejoin="round" stroke-width="2.114"/><path d="M206.812,122.443s3.635-16.926,16.262-20.424c8.49-2.348,13.337,3.551,12.54,7.893-1.215,6.59-20.1,15.486-22.8,20.1" transform="translate(0 0)" fill="#5b3777" opacity="0.6"/><path d="M258.408,415.7c4.3,77.327-16.154,96.824-22.374,128.383-0.351,6.706.154,24.308,0.154,24.308H189.574l-1.235-31.462c0-28.277-39.308-26.685-39.308-26.685s-39.218-1.591-39.218,26.645l-1.241,31.466H61.967s0.5-17.6.152-24.312C55.9,512.488,37.342,492.99,41.644,415.667c3.038-54.606,18.626-141.32,18.626-141.32l6.17-39.629S64.951,128.5,90.65,108.143c11.425-9.051,26.639-12.3,46.676-13.474,6.7-5.893,15.069-10.428,23.527-9.014-1.851,1.687-3.551,4.467-5.318,6.133,4.873-3.217,7.028-2.455,12.371-2.589a27.219,27.219,0,0,0-4.575,5.969c17.406,1.537,31.857,3.4,44.084,11.389,27.086,17.7,24.56,110.651,23.913,131.959,0,0,3.2,24.64,5.595,35.763,6.14,28.458,18.353,86.782,21.391,141.388" transform="translate(0 0)" fill="#853cbe" stroke="#52306c" stroke-linecap="round" stroke-linejoin="round" stroke-width="2.114"/><path d="M148.785,285.318c-14.8,0-51.626-2.652-51.626,73.992,0,86.688,18.326,140.8,51.628,140.8s51.625-54.109,51.625-140.8C200.412,282.666,163.583,285.318,148.785,285.318Z" transform="translate(0 0)" fill="#ccadd2" opacity="0.2"/><path d="M148.785,285.318c-14.8,0-51.626-2.652-51.626,73.992,0,86.688,18.326,140.8,51.628,140.8s51.625-54.109,51.625-140.8C200.412,282.666,163.583,285.318,148.785,285.318Z" transform="translate(0 0)" fill="none" stroke="#52306c" stroke-miterlimit="10" stroke-width="2.114"/></g><g id="Face"><path d="M127.944,145.7c11.941-17.113,63.744-12.09,42.552,42.693-3.071,7.982-6.728,15.826-10.149,23.659-0.367.43-.64-1.673-1.393-1.458-3.653,5.994-8.161,3.245-11.981-2.236-1.057,1.191-8.621,3.375-9.728,4.536C125.882,199.153,116,162.812,127.944,145.7Z" transform="translate(0 0)" fill="#231f20" opacity="0.15" style="mix-blend-mode:multiply"/><path d="M127.944,140.15c11.941-17.112,63.744-12.09,42.552,42.691-3.071,7.981-6.728,15.83-10.149,23.663-0.367.427-.64-1.676-1.393-1.461-3.653,6-8.161,3.249-11.981-2.236-1.057,1.191-8.621,3.379-9.728,4.54C125.882,193.6,116,157.263,127.944,140.15Z" transform="translate(0 0)" fill="#ccadd2" stroke="#52306c" stroke-miterlimit="10" stroke-width="2.114"/><g opacity="0.2" style="mix-blend-mode:multiply"><path d="M163.853,149c-2.047-2.118-8.354-3.191-15.067-3.233-6.717.042-13.024,1.115-15.073,3.233-4.773,4.935,6.363,16.212,15.073,16.913C157.491,165.212,168.627,153.935,163.853,149Z" transform="translate(0 0)" fill="#231f20"/></g><path d="M163.853,146.493c-2.047-2.117-8.354-3.192-15.067-3.232-6.717.04-13.024,1.115-15.073,3.232-4.773,4.933,6.363,16.211,15.073,16.914C157.491,162.7,168.627,151.426,163.853,146.493Z" transform="translate(0 0)" fill="#52306c"/><path d="M160.237,147.563a39.25,39.25,0,0,0-11.449-1.478,39.407,39.407,0,0,0-11.384,1.458" transform="translate(0 0)" fill="none" stroke="#fff" stroke-linecap="round" stroke-linejoin="round" stroke-width="1.374"/><line x1="148.818" y1="182.437" x2="148.818" y2="163.407" fill="none" stroke="#52306c" stroke-linecap="round" stroke-linejoin="round" stroke-width="2.114"/><path d="M139.907,183.014s14.175,0.734,18.232-.975" transform="translate(0 0)" fill="none" stroke="#52306c" stroke-linecap="round" stroke-linejoin="round" stroke-width="2.114"/><path d="M94.619,130.677s5.025-8.13,14.912-8.13" transform="translate(0 0)" fill="none" stroke="#231f20" stroke-linecap="round" stroke-linejoin="round" stroke-width="4.229" opacity="0.15" style="mix-blend-mode:multiply"/><path d="M94.619,128.355s5.025-8.13,14.912-8.13" transform="translate(0 0)" fill="none" stroke="#52306c" stroke-linecap="round" stroke-linejoin="round" stroke-width="4.229"/><path d="M203.105,128.381s-6.932-6.581-16.492-4.066" transform="translate(0 0)" fill="none" stroke="#231f20" stroke-linecap="round" stroke-linejoin="round" stroke-width="4.229" opacity="0.15" style="mix-blend-mode:multiply"/><path d="M203.428,126.345s-6.93-6.58-16.49-4.064" transform="translate(0 0)" fill="none" stroke="#52306c" stroke-linecap="round" stroke-linejoin="round" stroke-width="4.229"/><path d="M198.551,141.433s0.549-6.654-5.109-6.654-5.337,6.654-5.337,6.654" transform="translate(0 0)" fill="#853cbe" stroke="#52306c" stroke-linecap="round" stroke-linejoin="round" stroke-width="3.167"/><path d="M98.823,141.433s-0.549-6.654,5.109-6.654,5.337,6.654,5.337,6.654" transform="translate(0 0)" fill="#853cbe" stroke="#52306c" stroke-linecap="round" stroke-linejoin="round" stroke-width="3.167"/><g opacity="0.6"><line x1="71.92" y1="193.904" x2="71.92" y2="203.154" fill="#808285" stroke="#5b3777" stroke-linecap="round" stroke-linejoin="round" stroke-width="2.114"/><line x1="77.441" y1="199.167" x2="77.441" y2="212.645" fill="#808285" stroke="#5b3777" stroke-linecap="round" stroke-linejoin="round" stroke-width="2.114"/><line x1="82.961" y1="209.385" x2="82.961" y2="226.09" fill="#808285" stroke="#5b3777" stroke-linecap="round" stroke-linejoin="round" stroke-width="2.114"/><line x1="88.478" y1="216.143" x2="88.478" y2="238.405" fill="#808285" stroke="#5b3777" stroke-linecap="round" stroke-linejoin="round" stroke-width="2.114"/><line x1="93.999" y1="214.144" x2="93.999" y2="236.402" fill="#808285" stroke="#5b3777" stroke-linecap="round" stroke-linejoin="round" stroke-width="2.114"/><line x1="99.518" y1="221.721" x2="99.518" y2="243.979" fill="#808285" stroke="#5b3777" stroke-linecap="round" stroke-linejoin="round" stroke-width="2.114"/><line x1="105.038" y1="226.598" x2="105.038" y2="248.856" fill="#808285" stroke="#5b3777" stroke-linecap="round" stroke-linejoin="round" stroke-width="2.114"/><line x1="110.559" y1="231.18" x2="110.559" y2="253.437" fill="#808285" stroke="#5b3777" stroke-linecap="round" stroke-linejoin="round" stroke-width="2.114"/><line x1="116.078" y1="235.23" x2="116.078" y2="257.487" fill="#808285" stroke="#5b3777" stroke-linecap="round" stroke-linejoin="round" stroke-width="2.114"/><line x1="121.597" y1="236.402" x2="121.597" y2="254.427" fill="#808285" stroke="#5b3777" stroke-linecap="round" stroke-linejoin="round" stroke-width="2.114"/><line x1="127.117" y1="238.405" x2="127.117" y2="258.547" fill="#808285" stroke="#5b3777" stroke-linecap="round" stroke-linejoin="round" stroke-width="2.114"/><line x1="132.636" y1="232.237" x2="132.636" y2="264.074" fill="#808285" stroke="#5b3777" stroke-linecap="round" stroke-linejoin="round" stroke-width="2.114"/><line x1="138.155" y1="239.814" x2="138.155" y2="271.647" fill="#808285" stroke="#5b3777" stroke-linecap="round" stroke-linejoin="round" stroke-width="2.114"/><line x1="143.676" y1="245.414" x2="143.676" y2="277.251" fill="#808285" stroke="#5b3777" stroke-linecap="round" stroke-linejoin="round" stroke-width="2.114"/><line x1="149.194" y1="248.155" x2="149.194" y2="275.816" fill="#808285" stroke="#5b3777" stroke-linecap="round" stroke-linejoin="round" stroke-width="2.114"/><line x1="154.713" y1="243.656" x2="154.713" y2="271.317" fill="#808285" stroke="#5b3777" stroke-linecap="round" stroke-linejoin="round" stroke-width="2.114"/><line x1="160.232" y1="239.606" x2="160.232" y2="267.267" fill="#808285" stroke="#5b3777" stroke-linecap="round" stroke-linejoin="round" stroke-width="2.114"/><line x1="165.75" y1="246.186" x2="165.75" y2="273.843" fill="#808285" stroke="#5b3777" stroke-linecap="round" stroke-linejoin="round" stroke-width="2.114"/><line x1="171.271" y1="249.056" x2="171.271" y2="267.004" fill="#808285" stroke="#5b3777" stroke-linecap="round" stroke-linejoin="round" stroke-width="2.114"/><line x1="176.794" y1="239.232" x2="176.794" y2="261.411" fill="#808285" stroke="#5b3777" stroke-linecap="round" stroke-linejoin="round" stroke-width="2.114"/><line x1="182.313" y1="234.859" x2="182.313" y2="257.034" fill="#808285" stroke="#5b3777" stroke-linecap="round" stroke-linejoin="round" stroke-width="2.114"/><line x1="187.829" y1="232.333" x2="187.829" y2="252.395" fill="#808285" stroke="#5b3777" stroke-linecap="round" stroke-linejoin="round" stroke-width="2.114"/><line x1="193.348" y1="225.026" x2="193.348" y2="245.084" fill="#808285" stroke="#5b3777" stroke-linecap="round" stroke-linejoin="round" stroke-width="2.114"/><line x1="198.869" y1="215.727" x2="198.869" y2="248.649" fill="#808285" stroke="#5b3777" stroke-linecap="round" stroke-linejoin="round" stroke-width="2.114"/><line x1="204.39" y1="220.516" x2="204.39" y2="241.309" fill="#808285" stroke="#5b3777" stroke-linecap="round" stroke-linejoin="round" stroke-width="2.114"/><line x1="209.908" y1="217.667" x2="209.908" y2="234.232" fill="#808285" stroke="#5b3777" stroke-linecap="round" stroke-linejoin="round" stroke-width="2.114"/><line x1="215.429" y1="210.116" x2="215.429" y2="224.566" fill="#808285" stroke="#5b3777" stroke-linecap="round" stroke-linejoin="round" stroke-width="2.114"/><line x1="220.948" y1="204.716" x2="220.948" y2="214.938" fill="#808285" stroke="#5b3777" stroke-linecap="round" stroke-linejoin="round" stroke-width="2.114"/><line x1="226.467" y1="195.555" x2="226.467" y2="205.777" fill="#808285" stroke="#5b3777" stroke-linecap="round" stroke-linejoin="round" stroke-width="2.114"/></g><g opacity="0.4"><line x1="77.441" y1="182.429" x2="77.441" y2="191.942" fill="#808285" stroke="#5b3777" stroke-linecap="round" stroke-linejoin="round" stroke-width="2.114"/><line x1="82.961" y1="189.743" x2="82.961" y2="201.37" fill="#808285" stroke="#5b3777" stroke-linecap="round" stroke-linejoin="round" stroke-width="2.114"/><line x1="88.478" y1="193.904" x2="88.478" y2="208.966" fill="#808285" stroke="#5b3777" stroke-linecap="round" stroke-linejoin="round" stroke-width="2.114"/><line x1="209.908" y1="198.73" x2="209.908" y2="208.243" fill="#808285" stroke="#5b3777" stroke-linecap="round" stroke-linejoin="round" stroke-width="2.114"/><line x1="215.429" y1="189.035" x2="215.429" y2="200.666" fill="#808285" stroke="#5b3777" stroke-linecap="round" stroke-linejoin="round" stroke-width="2.114"/><line x1="220.948" y1="183.553" x2="220.948" y2="191.59" fill="#808285" stroke="#5b3777" stroke-linecap="round" stroke-linejoin="round" stroke-width="2.114"/></g><g opacity="0.4"><line x1="99.642" y1="212.601" x2="99.642" y2="217.274" fill="#853cbe" stroke="#5b3777" stroke-linecap="round" stroke-linejoin="round" stroke-width="2.114"/><line x1="165.75" y1="239.68" x2="165.75" y2="242.751" fill="#853cbe" stroke="#5b3777" stroke-linecap="round" stroke-linejoin="round" stroke-width="2.114"/><line x1="193.348" y1="218.572" x2="193.348" y2="221.131" fill="#853cbe" stroke="#5b3777" stroke-linecap="round" stroke-linejoin="round" stroke-width="2.114"/><line x1="198.869" y1="209.3" x2="198.869" y2="211.855" fill="#853cbe" stroke="#5b3777" stroke-linecap="round" stroke-linejoin="round" stroke-width="2.114"/><line x1="93.999" y1="205.906" x2="93.999" y2="210.576" fill="#853cbe" stroke="#5b3777" stroke-linecap="round" stroke-linejoin="round" stroke-width="2.114"/><line x1="121.597" y1="227.741" x2="121.597" y2="232.411" fill="#853cbe" stroke="#5b3777" stroke-linecap="round" stroke-linejoin="round" stroke-width="2.114"/><line x1="143.676" y1="239.591" x2="143.676" y2="242.147" fill="#853cbe" stroke="#5b3777" stroke-linecap="round" stroke-linejoin="round" stroke-width="2.114"/><line x1="110.559" y1="227.166" x2="110.559" y2="227.603" fill="#853cbe" stroke="#5b3777" stroke-linecap="round" stroke-linejoin="round" stroke-width="2.114"/><line x1="187.829" y1="227.522" x2="187.829" y2="228.836" fill="#853cbe" stroke="#5b3777" stroke-linecap="round" stroke-linejoin="round" stroke-width="2.114"/><line x1="116.078" y1="226.728" x2="116.078" y2="231.398" fill="#853cbe" stroke="#5b3777" stroke-linecap="round" stroke-linejoin="round" stroke-width="2.114"/></g><g opacity="0.3"><line x1="105.038" y1="199.345" x2="105.038" y2="203.993" fill="none" stroke="#5b3777" stroke-linecap="round" stroke-linejoin="round" stroke-width="2.114"/><line x1="110.559" y1="203.926" x2="110.559" y2="214.059" fill="none" stroke="#5b3777" stroke-linecap="round" stroke-linejoin="round" stroke-width="2.114"/><line x1="116.078" y1="211.9" x2="116.078" y2="218.843" fill="none" stroke="#5b3777" stroke-linecap="round" stroke-linejoin="round" stroke-width="2.114"/><line x1="127.117" y1="222.162" x2="127.117" y2="230.468" fill="none" stroke="#5b3777" stroke-linecap="round" stroke-linejoin="round" stroke-width="2.114"/><line x1="176.794" y1="220.052" x2="176.794" y2="228.65" fill="none" stroke="#5b3777" stroke-linecap="round" stroke-linejoin="round" stroke-width="2.114"/><line x1="143.676" y1="225.011" x2="143.676" y2="233.019" fill="none" stroke="#5b3777" stroke-linecap="round" stroke-linejoin="round" stroke-width="2.114"/><line x1="149.194" y1="231.788" x2="149.194" y2="239.792" fill="none" stroke="#5b3777" stroke-linecap="round" stroke-linejoin="round" stroke-width="2.114"/><line x1="182.313" y1="207.991" x2="182.313" y2="223.079" fill="none" stroke="#5b3777" stroke-linecap="round" stroke-linejoin="round" stroke-width="2.114"/><line x1="220.948" y1="173.15" x2="220.948" y2="178.754" fill="none" stroke="#5b3777" stroke-linecap="round" stroke-linejoin="round" stroke-width="2.114"/><line x1="220.948" y1="167.174" x2="220.948" y2="168.554" fill="none" stroke="#5b3777" stroke-linecap="round" stroke-linejoin="round" stroke-width="2.114"/><line x1="193.348" y1="204.482" x2="193.348" y2="212.412" fill="none" stroke="#5b3777" stroke-linecap="round" stroke-linejoin="round" stroke-width="2.114"/><line x1="193.348" y1="195.996" x2="193.348" y2="200.161" fill="none" stroke="#5b3777" stroke-linecap="round" stroke-linejoin="round" stroke-width="2.114"/><line x1="209.908" y1="178.754" x2="209.908" y2="192.903" fill="none" stroke="#5b3777" stroke-linecap="round" stroke-linejoin="round" stroke-width="2.114"/><line x1="88.478" y1="177.146" x2="88.478" y2="187.774" fill="none" stroke="#5b3777" stroke-linecap="round" stroke-linejoin="round" stroke-width="2.114"/><line x1="77.441" y1="168.932" x2="77.441" y2="175.264" fill="none" stroke="#5b3777" stroke-linecap="round" stroke-linejoin="round" stroke-width="2.114"/></g><g opacity="0.3"><line x1="143.323" y1="119.908" x2="143.323" y2="125.924" fill="#808285" stroke="#5b3777" stroke-linecap="round" stroke-linejoin="round" stroke-width="2.114"/><line x1="148.84" y1="117.793" x2="148.84" y2="125.924" fill="#808285" stroke="#5b3777" stroke-linecap="round" stroke-linejoin="round" stroke-width="2.114"/><line x1="154.36" y1="119.908" x2="154.36" y2="125.924" fill="#808285" stroke="#5b3777" stroke-linecap="round" stroke-linejoin="round" stroke-width="2.114"/></g></g></g></g><path d="M228.63,280.333a53.2,53.2,0,1,1,53.2-53.2A53.264,53.264,0,0,1,228.63,280.333Z" transform="translate(0 0)" fill="#3ccb5a"/><path d="M228.63,174.927a52.2,52.2,0,1,1-52.2,52.2,52.262,52.262,0,0,1,52.2-52.2m0-2a54.2,54.2,0,1,0,54.2,54.2,54.2,54.2,0,0,0-54.2-54.2h0Z" transform="translate(0 0)" fill="#52306c"/><path d="M186.6,215.686A39.321,39.321,0,0,1,225.108,184.3" transform="translate(0 0)" fill="none" stroke="#fff" stroke-linecap="round" stroke-linejoin="round" stroke-width="5" opacity="0.3"/><path d="M251.456,222.165H235.6a2,2,0,0,1-2-2V204.3a2,2,0,0,0-2-2h-5.93a2,2,0,0,0-2,2v15.861a2,2,0,0,1-2,2H205.8a2,2,0,0,0-2,2v5.93a2,2,0,0,0,2,2h15.861a2,2,0,0,1,2,2v15.861a2,2,0,0,0,2,2h5.93a2,2,0,0,0,2-2V234.1a2,2,0,0,1,2-2h15.861a2,2,0,0,0,2-2v-5.93A2,2,0,0,0,251.456,222.165Z" transform="translate(0 0)" fill="#93002a" opacity="0.15" style="mix-blend-mode:multiply"/><rect width="300" height="300" fill="none"/></g></g></svg>