<?xml version="1.0" encoding="utf-8"?>
<!-- Generator: Adobe Illustrator 18.0.0, SVG Export Plug-In . SVG Version: 6.00 Build 0)  -->
<!DOCTYPE svg PUBLIC "-//W3C//DTD SVG 1.1//EN" "http://www.w3.org/Graphics/SVG/1.1/DTD/svg11.dtd">
<svg version="1.1" id="Layer_1" xmlns="http://www.w3.org/2000/svg" xmlns:xlink="http://www.w3.org/1999/xlink" x="0px" y="0px"
	 viewBox="202 379.5 208 33" enable-background="new 202 379.5 208 33" xml:space="preserve">
<g>
	<path fill="#CCADD2" d="M235.3,382.1l-29.3-1.5c-2.2-0.1-3.9,1.4-3.9,3.3v1.4l36.3,1.2v-1.2C238.5,383.6,237.1,382.2,235.3,382.1
		L235.3,382.1z M206.7,383.5c0,0.3-0.3,0.6-0.6,0.6h-1.1c-0.3,0-0.6-0.3-0.6-0.6v-1c0-0.3,0.3-0.6,0.6-0.6h1.1
		c0.3,0,0.6,0.3,0.6,0.6V383.5z M210.6,383.6c0,0.3-0.3,0.6-0.6,0.4h-1.1c-0.3,0-0.6-0.3-0.6-0.6v-1c0-0.3,0.3-0.6,0.6-0.4h1.1
		c0.3,0,0.6,0.3,0.6,0.6V383.6L210.6,383.6z M214.3,383.7c0,0.3-0.3,0.6-0.6,0.4h-1.1c-0.3,0-0.6-0.3-0.6-0.6v-1
		c0-0.3,0.3-0.6,0.6-0.4h1.1c0.3,0,0.6,0.3,0.6,0.6V383.7z M202.1,408.1c0,1.9,1.8,3.3,3.9,3.3l29.3-1.5c1.7-0.1,3.1-1.5,3.1-3.2
		v-18.9l-36.3-1.1v21.4H202.1z M218.4,394.4c-0.7-0.7-0.7-1.7,0-2.4c0.7-0.7,1.8-0.6,2.5,0l4.9,4.6c0.7,0.6,0.7,1.7,0,2.2l-4.9,4.7
		c-0.7,0.7-1.8,0.7-2.5,0c-0.7-0.6-0.7-1.7,0-2.4l3.7-3.5C222.1,397.9,218.4,394.4,218.4,394.4z"/>
	<path fill="#FFFFFF" d="M263.7,389.1c-0.3-0.1-0.6-0.1-1-0.3c-0.4-0.1-0.7-0.1-1.1-0.1c-0.7,0-1.2,0.1-1.8,0.3
		c-0.6,0.1-1,0.4-1.4,0.8c-0.4,0.3-0.8,0.7-1.1,1.1c-0.3,0.4-0.7,0.8-1,1.2v-2.9H250c0,0.3,0,0.6,0,1c0,0.4,0,0.8,0.1,1.4
		c0,0.4,0,1,0,1.5s0,1,0,1.4v14.7h6.9v-11c0-0.7,0-1.1,0.1-1.5c0.1-0.4,0.3-0.7,0.7-1c0.1-0.1,0.4-0.4,0.8-0.6
		c0.4-0.1,0.8-0.3,1.5-0.3c0.4,0,0.8,0,1.2,0.1c0.4,0.1,0.7,0.3,1.1,0.6L263.7,389.1L263.7,389.1z M284.8,409.1v-19.8h-6.9v11.5
		c0,0.6,0,1-0.1,1.2c-0.1,0.3-0.3,0.7-0.7,1.1c-0.1,0.3-0.4,0.4-0.7,0.6c-0.3,0.1-0.7,0.3-1.1,0.3c-1.5,0-2.2-1-2.2-2.8v-11.9h-6.9
		V403c0,1,0.1,1.8,0.4,2.6c0.3,0.8,0.6,1.5,1.1,2.1s1.1,1.1,1.9,1.4c0.8,0.3,1.8,0.6,2.9,0.6c1.4,0,2.5-0.3,3.5-0.8
		c1-0.6,1.8-1.4,2.5-2.4v2.6L284.8,409.1L284.8,409.1z M308.4,409.1v-13.7c0-1-0.1-1.8-0.4-2.6c-0.3-0.8-0.6-1.5-1.1-2.1
		s-1.2-1.1-2.1-1.4c-0.8-0.3-1.8-0.6-3.1-0.6c-1.4,0-2.6,0.3-3.7,1c-1,0.6-1.9,1.4-2.6,2.5v-2.8H289v19.8h6.9v-11.5
		c0-0.6,0-1,0.1-1.2c0.1-0.3,0.3-0.7,0.7-1c0.3-0.3,0.6-0.4,0.8-0.6c0.4-0.1,0.7-0.3,1.1-0.3c0.8,0,1.5,0.3,1.8,0.7
		c0.4,0.4,0.6,1.1,0.6,2.1v11.9L308.4,409.1L308.4,409.1z M331.8,409.1v-13.7c0-1-0.1-1.8-0.4-2.6c-0.3-0.8-0.6-1.5-1.1-2.1
		c-0.6-0.6-1.2-1.1-2.1-1.4c-0.8-0.3-1.8-0.6-3.1-0.6c-1.4,0-2.6,0.3-3.7,1c-1,0.6-1.9,1.4-2.6,2.5v-2.8h-6.4v19.8h6.9v-11.5
		c0-0.6,0-1,0.1-1.2c0.1-0.3,0.3-0.7,0.7-1c0.3-0.3,0.6-0.4,0.8-0.6c0.4-0.1,0.7-0.3,1.1-0.3c0.8,0,1.5,0.3,1.8,0.7
		c0.4,0.4,0.6,1.1,0.6,2.1v11.9L331.8,409.1L331.8,409.1z M346.6,402.5c0,0.8-0.3,1.4-0.7,1.9c-0.6,0.6-1.2,0.8-2.2,0.8
		c-0.6,0-1.1-0.1-1.4-0.6c-0.4-0.4-0.6-0.8-0.6-1.4s0.1-0.8,0.4-1.2c0.3-0.3,0.6-0.6,1-0.7c0.4-0.1,0.8-0.3,1.2-0.3
		c0.4,0,0.8-0.1,1.2-0.1c0.3,0,0.4,0,0.7,0c0.3,0,0.4,0,0.6,0L346.6,402.5L346.6,402.5z M354.8,404.8c-0.1,0-0.3,0.1-0.4,0.1
		c-0.1,0-0.3,0-0.4,0c-0.3,0-0.6-0.1-0.7-0.4c-0.1-0.3-0.1-0.6-0.1-0.8v-8c0-1.5-0.3-2.6-0.8-3.6s-1.2-1.7-2.1-2.2s-1.8-0.8-2.9-1.1
		c-1.1-0.1-2.1-0.3-3.1-0.3c-1.5,0-3.1,0.1-4.3,0.4c-1.4,0.3-2.6,0.7-4,1.2l1.5,4.9c0.7-0.4,1.4-0.8,2.4-1.1
		c0.8-0.3,1.9-0.4,2.9-0.4c0.7,0,1.4,0,1.8,0.1c0.4,0.1,0.8,0.3,1.1,0.6c0.3,0.3,0.4,0.4,0.6,0.7c0.1,0.3,0.1,0.6,0.1,0.8v0.7
		c0,0.3-0.1,0.6-0.4,0.6c-0.3,0.1-0.6,0.1-1,0.1c-1.1,0-2.4,0.1-3.5,0.3c-1.2,0.1-2.4,0.4-3.3,1c-1,0.4-1.8,1.1-2.5,1.9
		c-0.7,0.8-1,1.9-1,3.3c0,0.8,0.1,1.7,0.4,2.4c0.3,0.7,0.7,1.4,1.2,1.9s1.1,1,1.9,1.2c0.7,0.3,1.5,0.4,2.5,0.4
		c1.4,0,2.6-0.3,3.6-0.7c1-0.4,1.8-1.1,2.6-2.1c0.3,0.7,0.7,1.4,1.4,1.8c0.7,0.4,1.5,0.7,2.6,0.7c0.7,0,1.4,0,2.1-0.1
		c0.7-0.1,1.2-0.3,1.7-0.3L354.8,404.8L354.8,404.8z M370.2,401.5c-0.1,0.6-0.3,1.1-0.6,1.7c-0.3,0.6-0.6,1-1,1.2
		c-0.4,0.3-1,0.6-1.7,0.6c-0.8,0-1.5-0.1-1.9-0.6c-0.4-0.4-0.6-0.8-0.6-1.5v-5.5c0-0.4,0-0.8,0.1-1.1c0.1-0.3,0.3-0.6,0.7-1
		c0.3-0.3,0.6-0.4,0.8-0.6c0.3-0.1,0.7-0.3,1.1-0.3c0.7,0,1.2,0.1,1.7,0.6c0.4,0.4,0.7,0.8,1,1.4c0.3,0.6,0.4,1.1,0.4,1.7
		c0.1,0.6,0.1,1.1,0.1,1.7C370.5,400.2,370.4,400.9,370.2,401.5L370.2,401.5z M377.2,395.1c-0.3-1.2-0.7-2.4-1.4-3.3
		c-0.7-1-1.4-1.7-2.4-2.4c-1-0.6-2.1-0.8-3.5-0.8c-1.2,0-2.4,0.3-3.2,0.8c-0.8,0.6-1.7,1.2-2.2,2.1v-9.6h-6.9v27.2h6.8v-0.8
		c0.4,0.4,1.1,0.8,1.9,1.1c0.8,0.3,1.7,0.4,2.4,0.4c1.7,0,3.1-0.3,4.2-1c1.1-0.7,2.1-1.5,2.8-2.6c0.7-1,1.2-2.2,1.5-3.5
		c0.3-1.2,0.4-2.5,0.4-3.7C377.6,397.6,377.4,396.4,377.2,395.1L377.2,395.1z M387.7,409.1v-27.2h-6.9v27.2H387.7z M397.5,396.5
		c0-0.4,0-0.7,0.1-1.1c0.1-0.4,0.3-0.8,0.6-1.1c0.3-0.4,0.6-0.7,1-0.8c0.4-0.3,0.8-0.3,1.5-0.3c1,0,1.8,0.4,2.4,1.1
		c0.6,0.7,0.7,1.5,0.7,2.5h-6.2V396.5z M409.6,394.4c-0.3-1.1-0.8-2.1-1.7-2.9c-0.7-0.8-1.7-1.5-2.9-2.1c-1.1-0.6-2.6-0.8-4.2-0.8
		c-1.7,0-3.2,0.3-4.4,0.8c-1.2,0.6-2.4,1.4-3.2,2.4c-0.8,1-1.5,2.1-1.9,3.3c-0.4,1.2-0.7,2.6-0.7,4.2c0,1.8,0.3,3.3,0.8,4.6
		s1.4,2.4,2.4,3.2c1,0.8,2.2,1.5,3.6,1.9c1.4,0.4,2.9,0.7,4.6,0.7c1.4,0,2.8-0.1,4.2-0.4c1.2-0.3,2.4-0.6,3.3-0.8l-1.2-4.9
		c-0.7,0.3-1.5,0.6-2.4,0.8c-0.8,0.3-1.8,0.4-2.8,0.4c-1.8,0-3.2-0.4-4.2-1.1c-1-0.7-1.4-1.8-1.4-3.1v-0.3h12.3c0-0.1,0-0.4,0-0.6
		v-0.7c0-0.3,0-0.6,0-0.7v-0.6C410.2,396.6,409.9,395.5,409.6,394.4L409.6,394.4z"/>
</g>
<rect x="202" y="379.5" fill="none" width="208" height="33"/>
</svg>
