<svg xmlns="http://www.w3.org/2000/svg" xmlns:xlink="http://www.w3.org/1999/xlink" viewBox="0 0 460 260.001"><defs><clipPath id="clip-path"><rect x="95.038" y="48.413" width="270.529" height="187.336" fill="none"/></clipPath><clipPath id="clip-path-2"><polygon id="SVGID" points="298.281 57.816 282.688 74.89 173.266 74.503 324.197 85.069 323.611 79.581 356.865 73.986 356.865 113.291 109.135 113.291 109.135 53.345 298.281 57.816" fill="none"/></clipPath></defs><title>runnabear-error</title><g style="isolation:isolate"><g id="Sign_Up_2" data-name="Sign Up 2"><g clip-path="url(#clip-path)"><g id="_basic_Bear" data-name="#basic Bear"><g id="Body"><path d="M153.512,142.022c10.916-28.2-30.357-25.014-28.934-48.473,0.795-13.065,21.311-24.632,33.049-21.814,19.332,4.638,21.117,30.7,22.605,46.9" fill="#853cbe" stroke="#52306c" stroke-linecap="round" stroke-linejoin="round" stroke-width="2.227"/><path d="M167.6,112.666s-3.828-17.827-17.129-21.511c-8.935-2.473-14.047,3.74-13.207,8.313,1.279,6.941,21.164,16.31,24.016,21.171" fill="#5b3777" opacity="0.6"/><path d="M305.076,142.022c-10.914-28.2,30.353-25.014,28.932-48.473-0.793-13.065-21.307-24.632-33.049-21.814-19.33,4.638-21.113,30.7-22.606,46.9" fill="#853cbe" stroke="#52306c" stroke-linecap="round" stroke-linejoin="round" stroke-width="2.227"/><path d="M290.984,112.666s3.828-17.827,17.127-21.511c8.941-2.473,14.047,3.74,13.207,8.313-1.279,6.941-21.166,16.31-24.014,21.171" fill="#5b3777" opacity="0.6"/><path d="M345.326,421.533c4.527,81.441-17.014,101.977-23.564,135.215-0.369,7.063.162,25.6,0.162,25.6H272.83l-1.3-33.137c0-29.781-41.4-28.106-41.4-28.106s-41.3-1.676-41.3,28.063l-1.307,33.141H138.432s0.529-18.539.16-25.605c-6.551-33.238-28.1-53.774-23.564-135.211,3.2-57.512,21.617-148.84,21.617-148.84l6.5-37.738s-1.568-115.873,25.5-137.31c12.033-9.532,28.057-12.95,49.16-14.191,7.055-6.207,15.871-10.982,24.779-9.494-1.949,1.776-3.74,4.705-5.6,6.459,5.133-3.388,7.4-2.586,13.029-2.727a28.667,28.667,0,0,0-4.818,6.287c18.332,1.619,33.553,3.577,46.43,12,28.527,18.646,25.867,116.538,25.186,138.981,0,0,4.281,26.023,6.809,37.738,6.467,29.973,18.414,91.328,21.613,148.84" fill="#853cbe" stroke="#52306c" stroke-linecap="round" stroke-linejoin="round" stroke-width="2.226"/></g><g id="Face"><path d="M172.821,121.5s5.291-8.564,15.705-8.564" fill="none" stroke="#231f20" stroke-linecap="round" stroke-linejoin="round" stroke-width="4.454" opacity="0.15" style="mix-blend-mode:multiply"/><path d="M172.821,119.054s5.291-8.564,15.705-8.564" fill="none" stroke="#52306c" stroke-linecap="round" stroke-linejoin="round" stroke-width="4.454"/><path d="M287.082,119.082s-7.3-6.933-17.369-4.284" fill="none" stroke="#231f20" stroke-linecap="round" stroke-linejoin="round" stroke-width="4.454" opacity="0.15" style="mix-blend-mode:multiply"/><path d="M287.422,116.939s-7.3-6.934-17.369-4.282" fill="none" stroke="#52306c" stroke-linecap="round" stroke-linejoin="round" stroke-width="4.454"/><line x1="188.765" y1="125.578" x2="179.424" y2="134.919" fill="none" stroke="#52306c" stroke-linecap="round" stroke-linejoin="round" stroke-width="3"/><line x1="188.765" y1="134.919" x2="179.424" y2="125.578" fill="none" stroke="#52306c" stroke-linecap="round" stroke-linejoin="round" stroke-width="3"/><line x1="281.296" y1="125.578" x2="271.955" y2="134.919" fill="none" stroke="#52306c" stroke-linecap="round" stroke-linejoin="round" stroke-width="3"/><line x1="281.296" y1="134.919" x2="271.955" y2="125.578" fill="none" stroke="#52306c" stroke-linecap="round" stroke-linejoin="round" stroke-width="3"/><path d="M207.92,137.162c12.576-18.024,67.136-12.733,44.816,44.965-3.234,8.406-7.086,16.668-10.689,24.918-0.387.453-.674-1.762-1.467-1.535-3.848,6.313-8.6,3.418-12.619-2.355-1.113,1.254-9.08,3.555-10.246,4.777C205.748,193.459,195.338,155.185,207.92,137.162Z" fill="#231f20" opacity="0.15" style="mix-blend-mode:multiply"/><path d="M207.92,131.316c12.576-18.022,67.136-12.733,44.816,44.963-3.234,8.406-7.086,16.672-10.689,24.922-0.387.449-.674-1.766-1.467-1.539-3.848,6.316-8.6,3.422-12.619-2.356-1.113,1.254-9.08,3.559-10.246,4.781C205.748,187.611,195.338,149.341,207.92,131.316Z" fill="#ccadd2" stroke="#52306c" stroke-miterlimit="10" stroke-width="2.227"/><g opacity="0.2" style="mix-blend-mode:multiply"><path d="M245.74,140.638c-2.156-2.231-8.8-3.361-15.869-3.405-7.074.044-13.716,1.175-15.874,3.405-5.027,5.2,6.7,17.075,15.874,17.813C239.039,157.713,250.768,145.835,245.74,140.638Z" fill="#231f20"/></g><path d="M245.74,138c-2.156-2.229-8.8-3.362-15.869-3.4-7.074.042-13.716,1.175-15.874,3.4-5.027,5.2,6.7,17.073,15.874,17.814C239.039,155.07,250.768,143.192,245.74,138Z" fill="#52306c"/><path d="M241.932,139.124a47.537,47.537,0,0,0-24.048-.022" fill="none" stroke="#fff" stroke-linecap="round" stroke-linejoin="round" stroke-width="1.447"/><line x1="229.904" y1="175.854" x2="229.904" y2="155.811" fill="none" stroke="#52306c" stroke-linecap="round" stroke-linejoin="round" stroke-width="2.227"/><path d="M235.889,176.371s-10.078-1.273-13.535.527" fill="none" stroke="#52306c" stroke-linecap="round" stroke-linejoin="round" stroke-width="2.227"/><g opacity="0.6"><line x1="148.915" y1="187.932" x2="148.915" y2="197.674" fill="#808285" stroke="#5b3777" stroke-linecap="round" stroke-linejoin="round" stroke-width="2.227"/><line x1="154.729" y1="193.475" x2="154.729" y2="207.67" fill="#808285" stroke="#5b3777" stroke-linecap="round" stroke-linejoin="round" stroke-width="2.227"/><line x1="160.543" y1="204.236" x2="160.543" y2="221.83" fill="#808285" stroke="#5b3777" stroke-linecap="round" stroke-linejoin="round" stroke-width="2.227"/><line x1="166.354" y1="211.354" x2="166.354" y2="234.798" fill="#808285" stroke="#5b3777" stroke-linecap="round" stroke-linejoin="round" stroke-width="2.227"/><line x1="172.168" y1="209.248" x2="172.168" y2="232.689" fill="#808285" stroke="#5b3777" stroke-linecap="round" stroke-linejoin="round" stroke-width="2.227"/><line x1="177.981" y1="217.229" x2="177.981" y2="240.669" fill="#808285" stroke="#5b3777" stroke-linecap="round" stroke-linejoin="round" stroke-width="2.227"/><line x1="183.795" y1="222.365" x2="183.795" y2="245.806" fill="#808285" stroke="#5b3777" stroke-linecap="round" stroke-linejoin="round" stroke-width="2.227"/><line x1="189.61" y1="227.189" x2="189.61" y2="250.63" fill="#808285" stroke="#5b3777" stroke-linecap="round" stroke-linejoin="round" stroke-width="2.227"/><line x1="195.422" y1="231.455" x2="195.422" y2="254.896" fill="#808285" stroke="#5b3777" stroke-linecap="round" stroke-linejoin="round" stroke-width="2.227"/><line x1="201.235" y1="232.689" x2="201.235" y2="251.673" fill="#808285" stroke="#5b3777" stroke-linecap="round" stroke-linejoin="round" stroke-width="2.227"/><line x1="207.049" y1="234.798" x2="207.049" y2="256.013" fill="#808285" stroke="#5b3777" stroke-linecap="round" stroke-linejoin="round" stroke-width="2.227"/><line x1="212.862" y1="228.302" x2="212.862" y2="261.834" fill="#808285" stroke="#5b3777" stroke-linecap="round" stroke-linejoin="round" stroke-width="2.227"/><line x1="218.674" y1="236.283" x2="218.674" y2="269.81" fill="#808285" stroke="#5b3777" stroke-linecap="round" stroke-linejoin="round" stroke-width="2.227"/><line x1="224.489" y1="242.181" x2="224.489" y2="275.712" fill="#808285" stroke="#5b3777" stroke-linecap="round" stroke-linejoin="round" stroke-width="2.227"/><line x1="230.301" y1="245.068" x2="230.301" y2="274.201" fill="#808285" stroke="#5b3777" stroke-linecap="round" stroke-linejoin="round" stroke-width="2.227"/><line x1="236.113" y1="240.33" x2="236.113" y2="269.462" fill="#808285" stroke="#5b3777" stroke-linecap="round" stroke-linejoin="round" stroke-width="2.227"/><line x1="241.926" y1="236.064" x2="241.926" y2="265.197" fill="#808285" stroke="#5b3777" stroke-linecap="round" stroke-linejoin="round" stroke-width="2.227"/><line x1="247.738" y1="242.994" x2="247.738" y2="272.122" fill="#808285" stroke="#5b3777" stroke-linecap="round" stroke-linejoin="round" stroke-width="2.227"/><line x1="253.553" y1="246.017" x2="253.553" y2="264.919" fill="#808285" stroke="#5b3777" stroke-linecap="round" stroke-linejoin="round" stroke-width="2.227"/><line x1="259.369" y1="235.669" x2="259.369" y2="259.029" fill="#808285" stroke="#5b3777" stroke-linecap="round" stroke-linejoin="round" stroke-width="2.227"/><line x1="265.182" y1="231.064" x2="265.182" y2="254.419" fill="#808285" stroke="#5b3777" stroke-linecap="round" stroke-linejoin="round" stroke-width="2.227"/><line x1="270.992" y1="228.404" x2="270.992" y2="249.533" fill="#808285" stroke="#5b3777" stroke-linecap="round" stroke-linejoin="round" stroke-width="2.227"/><line x1="276.805" y1="220.709" x2="276.805" y2="241.834" fill="#808285" stroke="#5b3777" stroke-linecap="round" stroke-linejoin="round" stroke-width="2.227"/><line x1="282.619" y1="210.916" x2="282.619" y2="245.587" fill="#808285" stroke="#5b3777" stroke-linecap="round" stroke-linejoin="round" stroke-width="2.227"/><line x1="288.434" y1="215.959" x2="288.434" y2="237.857" fill="#808285" stroke="#5b3777" stroke-linecap="round" stroke-linejoin="round" stroke-width="2.227"/><line x1="294.246" y1="212.959" x2="294.246" y2="230.404" fill="#808285" stroke="#5b3777" stroke-linecap="round" stroke-linejoin="round" stroke-width="2.227"/><line x1="300.06" y1="205.006" x2="300.06" y2="220.224" fill="#808285" stroke="#5b3777" stroke-linecap="round" stroke-linejoin="round" stroke-width="2.227"/><line x1="305.873" y1="199.318" x2="305.873" y2="210.084" fill="#808285" stroke="#5b3777" stroke-linecap="round" stroke-linejoin="round" stroke-width="2.227"/><line x1="311.685" y1="189.67" x2="311.685" y2="200.436" fill="#808285" stroke="#5b3777" stroke-linecap="round" stroke-linejoin="round" stroke-width="2.227"/></g><g opacity="0.4"><line x1="154.729" y1="175.846" x2="154.729" y2="185.865" fill="#808285" stroke="#5b3777" stroke-linecap="round" stroke-linejoin="round" stroke-width="2.227"/><line x1="160.543" y1="183.549" x2="160.543" y2="195.795" fill="#808285" stroke="#5b3777" stroke-linecap="round" stroke-linejoin="round" stroke-width="2.227"/><line x1="166.354" y1="187.932" x2="166.354" y2="203.795" fill="#808285" stroke="#5b3777" stroke-linecap="round" stroke-linejoin="round" stroke-width="2.227"/><line x1="294.246" y1="193.014" x2="294.246" y2="203.033" fill="#808285" stroke="#5b3777" stroke-linecap="round" stroke-linejoin="round" stroke-width="2.227"/><line x1="300.06" y1="182.803" x2="300.06" y2="195.053" fill="#808285" stroke="#5b3777" stroke-linecap="round" stroke-linejoin="round" stroke-width="2.227"/><line x1="305.873" y1="177.029" x2="305.873" y2="185.494" fill="#808285" stroke="#5b3777" stroke-linecap="round" stroke-linejoin="round" stroke-width="2.227"/></g><g opacity="0.4"><line x1="178.112" y1="207.623" x2="178.112" y2="212.545" fill="#853cbe" stroke="#5b3777" stroke-linecap="round" stroke-linejoin="round" stroke-width="2.227"/><line x1="247.738" y1="236.142" x2="247.738" y2="239.376" fill="#853cbe" stroke="#5b3777" stroke-linecap="round" stroke-linejoin="round" stroke-width="2.227"/><line x1="276.805" y1="213.912" x2="276.805" y2="216.607" fill="#853cbe" stroke="#5b3777" stroke-linecap="round" stroke-linejoin="round" stroke-width="2.227"/><line x1="282.619" y1="204.146" x2="282.619" y2="206.838" fill="#853cbe" stroke="#5b3777" stroke-linecap="round" stroke-linejoin="round" stroke-width="2.227"/><line x1="172.168" y1="200.572" x2="172.168" y2="205.49" fill="#853cbe" stroke="#5b3777" stroke-linecap="round" stroke-linejoin="round" stroke-width="2.227"/><line x1="201.235" y1="223.568" x2="201.235" y2="228.486" fill="#853cbe" stroke="#5b3777" stroke-linecap="round" stroke-linejoin="round" stroke-width="2.227"/><line x1="224.489" y1="236.048" x2="224.489" y2="238.74" fill="#853cbe" stroke="#5b3777" stroke-linecap="round" stroke-linejoin="round" stroke-width="2.227"/><line x1="189.61" y1="222.962" x2="189.61" y2="223.423" fill="#853cbe" stroke="#5b3777" stroke-linecap="round" stroke-linejoin="round" stroke-width="2.227"/><line x1="270.992" y1="223.337" x2="270.992" y2="224.72" fill="#853cbe" stroke="#5b3777" stroke-linecap="round" stroke-linejoin="round" stroke-width="2.227"/><line x1="195.422" y1="222.501" x2="195.422" y2="227.419" fill="#853cbe" stroke="#5b3777" stroke-linecap="round" stroke-linejoin="round" stroke-width="2.227"/></g><g opacity="0.3"><line x1="183.795" y1="193.662" x2="183.795" y2="198.557" fill="none" stroke="#5b3777" stroke-linecap="round" stroke-linejoin="round" stroke-width="2.227"/><line x1="189.61" y1="198.486" x2="189.61" y2="209.158" fill="none" stroke="#5b3777" stroke-linecap="round" stroke-linejoin="round" stroke-width="2.227"/><line x1="195.422" y1="206.885" x2="195.422" y2="214.197" fill="none" stroke="#5b3777" stroke-linecap="round" stroke-linejoin="round" stroke-width="2.227"/><line x1="207.049" y1="217.693" x2="207.049" y2="226.439" fill="none" stroke="#5b3777" stroke-linecap="round" stroke-linejoin="round" stroke-width="2.227"/><line x1="259.369" y1="215.471" x2="259.369" y2="224.525" fill="none" stroke="#5b3777" stroke-linecap="round" stroke-linejoin="round" stroke-width="2.227"/><line x1="224.489" y1="220.693" x2="224.489" y2="229.126" fill="none" stroke="#5b3777" stroke-linecap="round" stroke-linejoin="round" stroke-width="2.227"/><line x1="230.301" y1="227.83" x2="230.301" y2="236.259" fill="none" stroke="#5b3777" stroke-linecap="round" stroke-linejoin="round" stroke-width="2.227"/><line x1="265.182" y1="202.768" x2="265.182" y2="218.658" fill="none" stroke="#5b3777" stroke-linecap="round" stroke-linejoin="round" stroke-width="2.227"/><line x1="305.873" y1="166.072" x2="305.873" y2="171.975" fill="none" stroke="#5b3777" stroke-linecap="round" stroke-linejoin="round" stroke-width="2.227"/><line x1="305.873" y1="159.779" x2="305.873" y2="161.232" fill="none" stroke="#5b3777" stroke-linecap="round" stroke-linejoin="round" stroke-width="2.227"/><line x1="276.805" y1="199.072" x2="276.805" y2="207.424" fill="none" stroke="#5b3777" stroke-linecap="round" stroke-linejoin="round" stroke-width="2.227"/><line x1="276.805" y1="190.135" x2="276.805" y2="194.521" fill="none" stroke="#5b3777" stroke-linecap="round" stroke-linejoin="round" stroke-width="2.227"/><line x1="294.246" y1="171.975" x2="294.246" y2="186.877" fill="none" stroke="#5b3777" stroke-linecap="round" stroke-linejoin="round" stroke-width="2.227"/><line x1="166.354" y1="170.281" x2="166.354" y2="181.475" fill="none" stroke="#5b3777" stroke-linecap="round" stroke-linejoin="round" stroke-width="2.227"/><line x1="154.729" y1="161.631" x2="154.729" y2="168.299" fill="none" stroke="#5b3777" stroke-linecap="round" stroke-linejoin="round" stroke-width="2.227"/></g><g opacity="0.3"><line x1="224.118" y1="109.998" x2="224.118" y2="116.334" fill="#808285" stroke="#5b3777" stroke-linecap="round" stroke-linejoin="round" stroke-width="2.227"/><line x1="229.928" y1="107.771" x2="229.928" y2="116.334" fill="#808285" stroke="#5b3777" stroke-linecap="round" stroke-linejoin="round" stroke-width="2.227"/><line x1="235.742" y1="109.998" x2="235.742" y2="116.334" fill="#808285" stroke="#5b3777" stroke-linecap="round" stroke-linejoin="round" stroke-width="2.227"/></g></g></g></g><path d="M308.791,233.279c1.686-4.035,5.926-6.223,7.258-6.824a21.053,21.053,0,0,1,1.633-2.41c5.008-6.308,11.6-11.732,23.553-12.175,15.736-.545,29.568,4.846,37.094,12.05a25.028,25.028,0,0,1,7.963,16.568,1.512,1.512,0,0,1-.035.191c0.07,4.148-2.01,11.654-10.52,12.006-0.2.008-.4,0.012-0.59,0.012a8.679,8.679,0,0,1-6.676-2.607,8.3,8.3,0,0,1-.969-1.3c-1.346,4.529-4.293,8.8-10.057,9.012-0.147.006-.291,0.008-0.435,0.008-5.967,0-9.246-4.664-10.85-9.377-1.551,4.115-4.736,8.037-10.654,8.039H335.5c-5.807,0-9.348-3.957-11.375-8.566a23.784,23.784,0,0,1-2.69.168c-4.91,0-10.058-1.639-12.408-7.115A9.577,9.577,0,0,1,308.791,233.279Z" fill="#231f20" opacity="0.1"/><path d="M316.225,237.947l68.652-.918s-1.34-31.025-43.6-29.458C307.635,208.816,316.225,237.947,316.225,237.947Z" fill="#853cbe"/><path d="M385.029,234.941s-2.26-28.781-43.754-27.371c-33.641,1.246-26.781,28.236-26.781,28.236" fill="#853cbe" stroke="#52306c" stroke-linecap="round" stroke-linejoin="round" stroke-width="2.326"/><path d="M346.156,236.5s0.891,14.865,11.244,14.481,9.8-15.262,9.8-15.262" fill="#853cbe" stroke="#52306c" stroke-linecap="round" stroke-linejoin="round" stroke-width="2.326"/><path d="M367.2,235.72s0.215,10.193,8.889,10.193c10.826-.58,8.941-11.012,8.941-11.012" fill="#853cbe" stroke="#52306c" stroke-linecap="round" stroke-linejoin="round" stroke-width="2.326"/><path d="M316.918,221.892s-10.529,4.146-6.731,13.01c4.41,10.283,19.191,4.975,19.191,4.975" fill="#853cbe" stroke="#52306c" stroke-linecap="round" stroke-linejoin="round" stroke-width="2.326"/><path d="M323.053,232.062s0.715,17.6,12.453,17.59c10.359-.006,10.65-13.15,10.65-13.15" fill="#853cbe" stroke="#52306c" stroke-linecap="round" stroke-linejoin="round" stroke-width="2.326"/><path d="M151.6,233.279c-1.686-4.035-5.926-6.223-7.258-6.824a21.053,21.053,0,0,0-1.633-2.41c-5.008-6.308-11.6-11.732-23.553-12.175-15.736-.545-29.568,4.846-37.094,12.05A25.028,25.028,0,0,0,74.1,240.488a1.512,1.512,0,0,0,.035.191c-0.07,4.148,2.01,11.654,10.52,12.006,0.2,0.008.4,0.012,0.59,0.012a8.679,8.679,0,0,0,6.676-2.607,8.31,8.31,0,0,0,.969-1.3c1.346,4.529,4.293,8.8,10.057,9.012,0.147,0.006.291,0.008,0.435,0.008,5.967,0,9.246-4.664,10.85-9.377,1.551,4.115,4.736,8.037,10.654,8.039h0.006c5.807,0,9.348-3.957,11.375-8.566a23.784,23.784,0,0,0,2.689.168c4.91,0,10.059-1.639,12.408-7.115A9.577,9.577,0,0,0,151.6,233.279Z" fill="#231f20" opacity="0.1"/><path d="M144.163,237.947l-68.652-.918s1.34-31.025,43.6-29.458C152.752,208.816,144.163,237.947,144.163,237.947Z" fill="#853cbe"/><path d="M75.358,234.941s2.26-28.781,43.754-27.371c33.641,1.246,26.781,28.236,26.781,28.236" fill="#853cbe" stroke="#52306c" stroke-linecap="round" stroke-linejoin="round" stroke-width="2.326"/><path d="M114.231,236.5s-0.891,14.865-11.244,14.481-9.8-15.262-9.8-15.262" fill="#853cbe" stroke="#52306c" stroke-linecap="round" stroke-linejoin="round" stroke-width="2.326"/><path d="M93.188,235.72s-0.215,10.193-8.889,10.193c-10.826-.58-8.941-11.012-8.941-11.012" fill="#853cbe" stroke="#52306c" stroke-linecap="round" stroke-linejoin="round" stroke-width="2.326"/><path d="M143.469,221.892S154,226.039,150.2,234.9c-4.41,10.283-19.191,4.975-19.191,4.975" fill="#853cbe" stroke="#52306c" stroke-linecap="round" stroke-linejoin="round" stroke-width="2.326"/><path d="M137.334,232.062s-0.715,17.6-12.453,17.59c-10.359-.006-10.65-13.15-10.65-13.15" fill="#853cbe" stroke="#52306c" stroke-linecap="round" stroke-linejoin="round" stroke-width="2.326"/><circle cx="196.172" cy="6" r="4" fill="none" stroke="#52306c" stroke-linecap="round" stroke-linejoin="round" stroke-width="2.5"/><circle cx="130.251" cy="36.964" r="4" fill="none" stroke="#52306c" stroke-linecap="round" stroke-linejoin="round" stroke-width="2.5"/><circle cx="314.801" cy="56.851" r="4" fill="none" stroke="#52306c" stroke-linecap="round" stroke-linejoin="round" stroke-width="2.5"/><g clip-path="url(#clip-path-2)"><ellipse cx="234.5" cy="82.349" rx="17.737" ry="110.061" transform="translate(125.889 305.9) rotate(-83.437)" stroke-dasharray="6" stroke="#52306c" stroke-linecap="round" stroke-linejoin="round" stroke-width="3" fill="none"/></g><line x1="299.799" y1="103.019" x2="308.975" y2="103.366" fill="none" stroke="#52306c" stroke-linecap="round" stroke-linejoin="round" stroke-width="2.5"/><path d="M273.429,91.515c2.032,5.2,16.3,13.95,16.3,13.95s4.586-16.093,2.557-21.3A10.12,10.12,0,0,0,273.429,91.515Z" fill="#c2e8f6" stroke="#52306c" stroke-linecap="round" stroke-linejoin="round" stroke-width="2.5"/><path d="M304.992,103.215a10.914,10.914,0,0,1-11.317,10.493l-15.808-.6a10.915,10.915,0,0,1-10.493-11.319h0A10.915,10.915,0,0,1,278.693,91.3L294.5,91.9a10.914,10.914,0,0,1,10.491,11.319h0Z" fill="#f5a11b"/><path d="M298.623,92.878A10.9,10.9,0,0,1,288.331,108.4l-15.808-.6a10.877,10.877,0,0,1-4.124-.982,10.907,10.907,0,0,0,9.467,6.287l15.808,0.6A10.912,10.912,0,0,0,298.623,92.878Z" fill="#be1e2d" opacity="0.3" style="mix-blend-mode:soft-light"/><path d="M304.992,103.215a10.914,10.914,0,0,1-11.317,10.493l-15.808-.6a10.915,10.915,0,0,1-10.493-11.319h0A10.915,10.915,0,0,1,278.693,91.3L294.5,91.9a10.914,10.914,0,0,1,10.491,11.319h0Z" fill="none" stroke="#52306c" stroke-linecap="round" stroke-linejoin="round" stroke-width="2.5"/><line x1="284.79" y1="91.529" x2="284.012" y2="112.059" fill="none" stroke="#52306c" stroke-linecap="round" stroke-linejoin="round" stroke-width="2.5"/><line x1="293.748" y1="91.868" x2="292.97" y2="112.398" fill="none" stroke="#52306c" stroke-linecap="round" stroke-linejoin="round" stroke-width="2.5"/><line x1="302.541" y1="96.577" x2="302.046" y2="109.649" fill="none" stroke="#52306c" stroke-linecap="round" stroke-linejoin="round" stroke-width="3"/><path d="M301.851,92.591c-2.416,5.036-17.3,12.677-17.3,12.677s-3.359-16.394-.94-21.436A10.119,10.119,0,1,1,301.851,92.591Z" fill="#d9f0f9" stroke="#52306c" stroke-linecap="round" stroke-linejoin="round" stroke-width="2.5"/><circle cx="273.709" cy="99.033" r="2.104" transform="translate(164.39 368.8) rotate(-87.831)" fill="#52306c"/><line x1="178.611" y1="62.021" x2="174.237" y2="61.767" fill="none" stroke="#52306c" stroke-linecap="round" stroke-linejoin="round" stroke-width="2.5"/><path d="M199.851,54.55c-1.883,3.946-13.522,9.956-13.522,9.956s-2.659-12.824-.777-16.774A7.921,7.921,0,0,1,199.851,54.55Z" fill="#c2e8f6" stroke="#52306c" stroke-linecap="round" stroke-linejoin="round" stroke-width="2.5"/><path d="M174.546,61.877a8.541,8.541,0,0,0,8.233,8.837l12.373,0.437a8.542,8.542,0,0,0,8.837-8.235h0a8.542,8.542,0,0,0-8.235-8.837l-12.373-.437a8.541,8.541,0,0,0-8.836,8.235h0Z" fill="#f5a11b"/><path d="M198.951,54.8a8.531,8.531,0,0,1-8.089,12.127l-12.37-.5a8.513,8.513,0,0,1-3.225-.778,8.536,8.536,0,0,0,7.4,4.942l12.37,0.5A8.54,8.54,0,0,0,198.951,54.8Z" fill="#be1e2d" opacity="0.3" style="mix-blend-mode:soft-light"/><path d="M174.546,61.877a8.541,8.541,0,0,0,8.233,8.837l12.373,0.437a8.542,8.542,0,0,0,8.837-8.235h0a8.542,8.542,0,0,0-8.235-8.837l-12.373-.437a8.541,8.541,0,0,0-8.836,8.235h0Z" fill="none" stroke="#52306c" stroke-linecap="round" stroke-linejoin="round" stroke-width="2.5"/><line x1="190.983" y1="53.911" x2="190.416" y2="69.98" fill="none" stroke="#52306c" stroke-linecap="round" stroke-linejoin="round" stroke-width="2.5"/><line x1="183.972" y1="53.663" x2="183.404" y2="69.732" fill="none" stroke="#52306c" stroke-linecap="round" stroke-linejoin="round" stroke-width="2.5"/><line x1="176.839" y1="56.836" x2="176.478" y2="67.067" fill="none" stroke="#52306c" stroke-linecap="round" stroke-linejoin="round" stroke-width="2.5"/><path d="M177.605,53.764c1.6,4.069,12.782,10.885,12.782,10.885s3.56-12.6,1.96-16.678A7.919,7.919,0,1,0,177.605,53.764Z" fill="#d9f0f9" stroke="#52306c" stroke-linecap="round" stroke-linejoin="round" stroke-width="2.5"/><circle cx="199.203" cy="60.402" r="1.647" transform="translate(131.808 257.349) rotate(-87.978)" fill="#52306c"/><ellipse cx="232.569" cy="40.103" rx="89.81" ry="12.114" transform="translate(-2.304 17.057) rotate(-4.18)" stroke-dasharray="6.5" stroke="#52306c" stroke-linecap="round" stroke-linejoin="round" stroke-width="3" fill="none"/><line x1="287.789" y1="45.66" x2="292.807" y2="45.144" fill="none" stroke="#52306c" stroke-linecap="round" stroke-linejoin="round" stroke-width="2.5"/><path d="M262.629,39.7c2.628,4.278,16.646,9.732,16.646,9.732s1.485-14.966-1.143-19.249A9.1,9.1,0,0,0,262.629,39.7Z" fill="#c2e8f6" stroke="#52306c" stroke-linecap="round" stroke-linejoin="round" stroke-width="2.5"/><path d="M292.413,45a9.808,9.808,0,0,1-8.332,11.088l-14.076,2a9.81,9.81,0,0,1-11.088-8.334h0a9.81,9.81,0,0,1,8.334-11.088l14.076-2A9.808,9.808,0,0,1,292.413,45h0Z" fill="#f5a11b"/><path d="M285.129,36.88a9.8,9.8,0,0,1-6.621,15.374l-14.076,2a9.775,9.775,0,0,1-3.8-.209A9.8,9.8,0,0,0,270,58.089l14.076-2A9.807,9.807,0,0,0,285.129,36.88Z" fill="#be1e2d" opacity="0.3" style="mix-blend-mode:soft-light"/><path d="M292.413,45a9.808,9.808,0,0,1-8.332,11.088l-14.076,2a9.81,9.81,0,0,1-11.088-8.334h0a9.81,9.81,0,0,1,8.334-11.088l14.076-2A9.808,9.808,0,0,1,292.413,45h0Z" fill="none" stroke="#52306c" stroke-linecap="round" stroke-linejoin="round" stroke-width="2.5"/><line x1="272.679" y1="37.897" x2="275.272" y2="56.178" fill="none" stroke="#52306c" stroke-linecap="round" stroke-linejoin="round" stroke-width="2.5"/><line x1="280.656" y1="36.765" x2="283.249" y2="55.046" fill="none" stroke="#52306c" stroke-linecap="round" stroke-linejoin="round" stroke-width="2.5"/><line x1="289.184" y1="39.525" x2="290.835" y2="51.164" fill="none" stroke="#52306c" stroke-linecap="round" stroke-linejoin="round" stroke-width="2.5"/><path d="M287.937,36.109c-1.332,4.84-13.279,13.977-13.279,13.977s-5.591-13.962-4.256-18.808A9.094,9.094,0,1,1,287.937,36.109Z" fill="#d9f0f9" stroke="#52306c" stroke-linecap="round" stroke-linejoin="round" stroke-width="2.5"/><circle cx="264.078" cy="46.304" r="1.891" transform="translate(-3.886 37.545) rotate(-8.073)" fill="#52306c"/><path d="M309.022,121.154l-2.8-.106a12.137,12.137,0,0,0-3.76-8,7,7,0,0,0,.515-0.877,11.357,11.357,0,0,0-14.8-15.324,11.349,11.349,0,0,0-16.006,13.886,12.224,12.224,0,0,0-2.162,1.59A12.163,12.163,0,0,0,277.82,133.4l15.807,0.6C293.785,134,293.942,134,294.1,134a12.16,12.16,0,0,0,12.029-10.457l2.8,0.106h0.048A1.25,1.25,0,0,0,309.022,121.154Z" fill="#231f20" opacity="0.1" style="mix-blend-mode:multiply"/><rect width="460" height="260.001" fill="none"/></g></g></svg>