<svg xmlns="http://www.w3.org/2000/svg" viewBox="0 0 597.25 88.5702" enable-background="new 0 0 597.25 88.5702"><path fill="#CCADD2" d="M95.42 4.4l-84.154-4.382c-6.185-.322-11.266 3.876-11.266 9.381v3.987l104.341 3.742v-3.504c0-4.838-3.968-8.967-8.921-9.225zm-81.935 4.073c0 .813-.744 1.441-1.663 1.404l-3.345-.135c-.928-.038-1.682-.732-1.682-1.551v-2.967c0-.819.754-1.448 1.682-1.403l3.345.158c.919.044 1.663.738 1.663 1.551v2.943zm10.918.461c0 .803-.725 1.424-1.62 1.388l-3.258-.132c-.904-.037-1.639-.722-1.639-1.531v-2.928c0-.809.734-1.429 1.639-1.387l3.258.155c.895.042 1.62.727 1.62 1.529v2.905zm10.641.45c0 .792-.706 1.406-1.579 1.37l-3.176-.128c-.882-.036-1.597-.712-1.597-1.51v-2.891c0-.799.715-1.412 1.597-1.37l3.176.151c.873.042 1.579.717 1.579 1.509v2.869zm-35.044 69.788c0 5.505 5.081 9.702 11.266 9.381l84.154-4.382c4.953-.258 8.921-4.386 8.921-9.225v-54.314l-104.341-3.26v61.799zm46.819-39.229c-1.998-1.856-1.998-4.847 0-6.665 1.988-1.809 5.191-1.759 7.155.097l13.94 13.173c1.887 1.783 1.887 4.684 0 6.492l-13.94 13.367c-1.963 1.883-5.167 1.978-7.155.196-1.998-1.791-1.998-4.782 0-6.665l10.685-10.072-10.685-9.923z"/><path fill="#fff" d="M177.172 24.683c-.776-.28-1.709-.527-2.801-.738-1.093-.211-2.166-.316-3.223-.316-1.902 0-3.611.282-5.125.843-1.516.564-2.872 1.301-4.069 2.213-1.198.915-2.29 1.951-3.276 3.11-.987 1.16-1.902 2.372-2.748 3.637v-8.222h-18.283c0 .632.035 1.546.105 2.741.069 1.195.14 2.477.211 3.847.069 1.37.122 2.777.158 4.216.035 1.441.053 2.759.053 3.953v42.165h19.974v-31.413c0-1.826.105-3.268.317-4.322.211-1.053.809-2.002 1.797-2.846.563-.561 1.355-1.088 2.377-1.581 1.02-.491 2.447-.737 4.28-.737 1.126 0 2.272.194 3.435.58 1.163.387 2.167.895 3.012 1.528l3.805-18.658zM237.41 82.132v-56.922h-19.974v33.204c0 1.547-.106 2.741-.315 3.584s-.839 1.863-1.887 3.057c-.56.633-1.276 1.159-2.15 1.581-.875.423-1.871.633-2.989.633-4.265 0-6.397-2.599-6.397-7.801v-34.258h-19.974v39.317c0 2.741.334 5.289 1.004 7.643.668 2.356 1.725 4.411 3.17 6.167 1.443 1.758 3.311 3.128 5.602 4.11 2.288.983 5.054 1.476 8.295 1.476 3.874 0 7.203-.826 9.987-2.477 2.782-1.649 5.231-3.883 7.345-6.693v7.379h18.283zM305.151 82.132v-39.319c0-2.74-.335-5.287-1.004-7.642-.671-2.353-1.763-4.409-3.276-6.167-1.516-1.756-3.453-3.126-5.813-4.111-2.361-.983-5.231-1.476-8.613-1.476-4.157 0-7.68.895-10.568 2.688-2.89 1.792-5.46 4.164-7.714 7.115v-8.011h-18.283v56.922h19.974v-33.1c0-1.545.122-2.741.366-3.584.245-.843.963-1.826 2.152-2.951.631-.633 1.453-1.176 2.467-1.634 1.014-.457 2.117-.685 3.306-.685 2.449 0 4.233.651 5.353 1.95 1.12 1.301 1.681 3.251 1.681 5.851v34.153h19.974zM372.68 82.132v-39.319c0-2.74-.335-5.287-1.004-7.642-.67-2.353-1.762-4.409-3.275-6.167-1.517-1.756-3.453-3.126-5.813-4.111-2.361-.983-5.231-1.476-8.613-1.476-4.158 0-7.681.895-10.568 2.688-2.89 1.792-5.461 4.164-7.715 7.115v-8.011h-18.283v56.922h19.975v-33.1c0-1.545.122-2.741.366-3.584s.963-1.826 2.151-2.951c.631-.633 1.454-1.176 2.468-1.634 1.014-.457 2.116-.685 3.306-.685 2.448 0 4.233.651 5.354 1.95 1.119 1.301 1.679 3.251 1.679 5.851v34.153h19.974zM415.269 63.052c0 2.32-.635 4.147-1.902 5.482-1.622 1.686-3.771 2.529-6.446 2.529-1.691 0-3.084-.543-4.175-1.634-1.093-1.089-1.639-2.478-1.639-4.164 0-1.404.353-2.546 1.058-3.426.703-.878 1.585-1.545 2.642-2.003 1.057-.456 2.201-.772 3.436-.948 1.23-.175 2.377-.264 3.434-.264.635 0 1.269-.017 1.902-.053.635-.035 1.197-.017 1.692.053v4.427zm23.461 6.853c-.282.142-.634.263-1.058.369-.422.104-.811.158-1.161.158-.988 0-1.586-.386-1.797-1.16-.212-.772-.317-1.615-.317-2.529v-22.98c0-4.216-.793-7.642-2.378-10.277-1.585-2.635-3.61-4.707-6.077-6.219-2.467-1.51-5.195-2.53-8.189-3.057-2.996-.527-5.901-.791-8.719-.791-4.439 0-8.597.369-12.471 1.107-3.875.738-7.715 1.915-11.52 3.531l4.439 13.809c1.902-1.194 4.121-2.229 6.657-3.109 2.537-.878 5.391-1.318 8.561-1.318 2.113 0 3.857.177 5.231.527 1.374.353 2.465.827 3.276 1.423.809.598 1.373 1.283 1.69 2.055.317.774.476 1.582.476 2.424v2.108c0 .985-.353 1.581-1.057 1.792-.705.211-1.656.316-2.853.316-3.241 0-6.589.23-10.04.686-3.452.458-6.623 1.335-9.511 2.635-2.89 1.301-5.268 3.162-7.134 5.587-1.867 2.424-2.801 5.64-2.801 9.645 0 2.53.423 4.85 1.269 6.957.845 2.108 2.042 3.919 3.593 5.429 1.549 1.513 3.382 2.688 5.495 3.531 2.114.844 4.439 1.266 6.976 1.266 4.156 0 7.572-.65 10.251-1.95 2.677-1.3 5.213-3.284 7.608-5.955.635 2.179 1.903 3.936 3.806 5.269 1.901 1.334 4.473 2.003 7.714 2.003 1.972 0 3.91-.142 5.813-.421 1.902-.282 3.557-.599 4.967-.949l-.739-11.911zM483.01 60.206c-.282 1.758-.776 3.373-1.48 4.849-.706 1.476-1.675 2.706-2.906 3.69-1.233.984-2.801 1.475-4.703 1.475-2.537 0-4.386-.543-5.548-1.633-1.163-1.09-1.744-2.547-1.744-4.375v-15.917c0-1.334.141-2.406.423-3.215.28-.807.915-1.703 1.902-2.688.634-.632 1.408-1.176 2.325-1.634.914-.457 1.971-.685 3.17-.685 1.902 0 3.451.527 4.65 1.581 1.196 1.054 2.113 2.355 2.747 3.9.635 1.548 1.057 3.198 1.268 4.954.211 1.758.316 3.374.316 4.85 0 1.476-.142 3.093-.422 4.849zm19.974-18.184c-.846-3.548-2.167-6.693-3.963-9.434-1.797-2.741-4.053-4.955-6.764-6.641-2.713-1.687-5.971-2.529-9.775-2.529-3.736 0-6.817.774-9.247 2.319-2.431 1.546-4.598 3.515-6.5 5.903v-27.512h-20.079v78.004h19.551v-2.425c1.337 1.266 3.17 2.284 5.495 3.058 2.325.771 4.614 1.158 6.87 1.158 4.649 0 8.612-.967 11.889-2.898 3.276-1.932 5.934-4.391 7.979-7.378 2.043-2.986 3.522-6.308 4.439-9.962.914-3.653 1.374-7.203 1.374-10.646 0-3.795-.423-7.466-1.269-11.016zM533.102 82.132v-78.004h-19.974v78.004h19.974zM561.635 45.766c0-1.055.141-2.162.423-3.321.281-1.16.757-2.248 1.427-3.268.669-1.018 1.585-1.845 2.748-2.478 1.162-.632 2.589-.948 4.28-.948 2.959 0 5.178 1.001 6.657 3.004 1.48 2.003 2.077 4.34 1.797 7.011h-17.332zm34.452-5.851c-.987-3.126-2.536-5.903-4.649-8.328-2.114-2.424-4.845-4.391-8.19-5.903-3.347-1.51-7.381-2.266-12.101-2.266-4.792 0-9.001.809-12.629 2.424-3.63 1.618-6.676 3.832-9.142 6.641-2.467 2.812-4.333 6.061-5.601 9.751-1.269 3.689-1.902 7.643-1.902 11.859 0 4.99.827 9.364 2.483 13.123 1.654 3.76 3.944 6.87 6.869 9.329 2.923 2.461 6.394 4.305 10.409 5.534 4.016 1.228 8.384 1.844 13.105 1.844 4.156 0 8.084-.368 11.783-1.106 3.698-.737 6.886-1.598 9.563-2.582l-3.487-13.914c-2.045.913-4.351 1.704-6.922 2.371-2.572.669-5.196 1.002-7.873 1.002-5.144 0-9.089-1.071-11.836-3.215-2.748-2.144-4.122-5.008-4.122-8.592v-.737h35.403c.068-.491.122-1.089.158-1.792l.105-2.161c.035-.738.053-1.44.053-2.108v-1.634c0-3.232-.493-6.412-1.479-9.54z"/></svg>