<?xml version="1.0" encoding="utf-8"?>
<!-- Generator: Adobe Illustrator 17.1.0, SVG Export Plug-In . SVG Version: 6.00 Build 0)  -->
<!DOCTYPE svg PUBLIC "-//W3C//DTD SVG 1.1//EN" "http://www.w3.org/Graphics/SVG/1.1/DTD/svg11.dtd">
<svg version="1.1" id="Layer_1" xmlns="http://www.w3.org/2000/svg" xmlns:xlink="http://www.w3.org/1999/xlink" x="0px" y="0px"
	 viewBox="0 0 597.25 88.5702" enable-background="new 0 0 597.25 88.5702" xml:space="preserve">
<g>
	<g>
		<path fill="#CCADD2" d="M95.4199,4.3996L11.2661,0.0173C5.0806-0.3045,0,3.8932,0,9.3986v3.9873l104.3413,3.7422v-3.5039
			C104.3413,8.7863,100.373,4.6569,95.4199,4.3996z M13.4844,8.4728c0,0.813-0.7437,1.4414-1.6626,1.4043L8.477,9.7419
			c-0.9277-0.0376-1.6816-0.732-1.6816-1.5513V5.2238c0-0.8193,0.7539-1.4478,1.6816-1.4033l3.3448,0.1582
			c0.9189,0.0439,1.6626,0.7383,1.6626,1.5508V8.4728z M24.4028,8.9338c0,0.8027-0.7245,1.4238-1.6201,1.3877l-3.2583-0.1319
			c-0.9043-0.037-1.6387-0.722-1.6387-1.5307V5.7306c0-0.8086,0.7344-1.4292,1.6387-1.3867l3.2583,0.1553
			c0.8955,0.042,1.6201,0.7266,1.6201,1.5293V8.9338z M35.0435,9.3835c0,0.7924-0.7061,1.4057-1.5787,1.3701l-3.1757-0.1284
			c-0.8819-0.0357-1.5972-0.7119-1.5972-1.5098V6.2248c0-0.7989,0.7153-1.4116,1.5972-1.3701l3.1757,0.1508
			c0.8726,0.0415,1.5787,0.7173,1.5787,1.5093V9.3835z M0,79.172c0,5.5049,5.0806,9.7022,11.2661,9.3809l84.1538-4.3818
			c4.9531-0.2578,8.9214-4.3858,8.9214-9.2246v-54.314L0,17.3727V79.172z M46.8193,39.943c-1.9985-1.8559-1.9985-4.8471,0-6.665
			c1.9883-1.8091,5.1914-1.7588,7.1548,0.0967L67.9136,46.548c1.8872,1.7832,1.8872,4.6837,0,6.4922L53.9741,66.4074
			c-1.9634,1.8828-5.1665,1.9775-7.1548,0.1963c-1.9985-1.791-1.9985-4.7822,0-6.6651l10.6851-10.0722L46.8193,39.943z"/>
	</g>
</g>
<path fill="#FFFFFF" d="M177.1724,24.6828c-0.7759-0.2803-1.709-0.5274-2.8008-0.7378c-1.0928-0.2109-2.166-0.3164-3.2232-0.3164
	c-1.9023,0-3.6113,0.2817-5.1255,0.8432c-1.5156,0.5635-2.8715,1.3013-4.0688,2.2134c-1.1982,0.9146-2.29,1.9507-3.2759,3.1099
	c-0.9873,1.1597-1.9023,2.3721-2.7475,3.6367v-8.2217h-18.2828c0,0.6319,0.0347,1.5464,0.1055,2.7408
	c0.0689,1.1953,0.1402,2.4765,0.2114,3.8471c0.0694,1.3701,0.1221,2.7769,0.1582,4.2163c0.0347,1.4414,0.0528,2.7588,0.0528,3.9532
	V82.132h19.9741V50.7189c0-1.8262,0.1055-3.2676,0.3169-4.3222c0.2114-1.0528,0.8091-2.002,1.7969-2.8458
	c0.563-0.561,1.3554-1.0883,2.3774-1.581c1.0205-0.4907,2.4473-0.7373,4.2803-0.7373c1.126,0,2.272,0.1943,3.4346,0.5796
	c1.1626,0.3867,2.1665,0.8955,3.0117,1.5283L177.1724,24.6828z"/>
<path fill="#FFFFFF" d="M237.4097,82.132V25.2101H217.436v33.2041c0,1.5469-0.1059,2.7412-0.3154,3.584
	s-0.8389,1.8633-1.8872,3.0567c-0.5601,0.6328-1.2764,1.1591-2.1499,1.581c-0.8755,0.4229-1.8711,0.6328-2.9893,0.6328
	c-4.2651,0-6.3969-2.5986-6.3969-7.8008V25.2101h-19.9737v39.3174c0,2.7412,0.334,5.2891,1.0044,7.6426
	c0.6685,2.3555,1.7251,4.4111,3.1699,6.167c1.4434,1.7578,3.3111,3.1279,5.6016,4.1103c2.2881,0.9834,5.0542,1.4756,8.2954,1.4756
	c3.874,0,7.2031-0.8262,9.9873-2.4765c2.7823-1.6495,5.231-3.8829,7.3448-6.6934v7.3789H237.4097z"/>
<path fill="#FFFFFF" d="M305.1514,82.132V42.8132c0-2.7403-0.335-5.2867-1.0039-7.6421c-0.6709-2.3535-1.7627-4.4092-3.2764-6.1665
	c-1.5156-1.7559-3.4531-3.126-5.8125-4.1109c-2.3613-0.9834-5.2315-1.4756-8.6133-1.4756c-4.1572,0-7.6797,0.8955-10.5683,2.6875
	c-2.8897,1.792-5.46,4.1636-7.7144,7.1153v-8.0108h-18.2827V82.132h19.9736V49.0324c0-1.5449,0.1221-2.7412,0.3662-3.584
	c0.2451-0.8428,0.9629-1.8262,2.1524-2.9512c0.6308-0.6328,1.4531-1.1757,2.4668-1.6338c1.0136-0.4565,2.1172-0.6855,3.3056-0.6855
	c2.4492,0,4.2334,0.6509,5.3526,1.9502c1.1201,1.3013,1.6806,3.251,1.6806,5.8506V82.132H305.1514z"/>
<path fill="#FFFFFF" d="M372.6797,82.132V42.8132c0-2.7403-0.335-5.2867-1.0039-7.6421c-0.6699-2.3535-1.7617-4.4092-3.2754-6.1665
	c-1.5166-1.7559-3.4531-3.126-5.8125-4.1109c-2.3613-0.9834-5.2315-1.4756-8.6133-1.4756c-4.1582,0-7.6807,0.8955-10.5684,2.6875
	c-2.8896,1.792-5.4609,4.1636-7.7148,7.1153v-8.0108h-18.2832V82.132h19.9746V49.0324c0-1.5449,0.1221-2.7412,0.3662-3.584
	c0.2442-0.8428,0.9629-1.8262,2.1514-2.9512c0.6308-0.6328,1.4541-1.1757,2.4678-1.6338c1.0136-0.4565,2.1162-0.6855,3.3056-0.6855
	c2.4483,0,4.2334,0.6509,5.3535,1.9502c1.1192,1.3013,1.6788,3.251,1.6788,5.8506V82.132H372.6797z"/>
<path fill="#FFFFFF" d="M415.2686,63.0519c0,2.3203-0.6348,4.1475-1.9024,5.4824c-1.6221,1.6856-3.7705,2.5293-6.4463,2.5293
	c-1.6914,0-3.084-0.5429-4.1748-1.6337c-1.0928-1.0889-1.6387-2.4776-1.6387-4.1641c0-1.4043,0.3526-2.5459,1.0577-3.4258
	c0.7031-0.8779,1.5849-1.5449,2.6416-2.0029c1.0566-0.4561,2.2011-0.7725,3.4355-0.9483c1.2305-0.1748,2.377-0.2636,3.4336-0.2636
	c0.6348,0,1.2686-0.0166,1.9023-0.0528c0.6348-0.0351,1.1973-0.0166,1.6915,0.0528V63.0519z M438.7295,69.9045
	c-0.2822,0.1416-0.6338,0.2627-1.0576,0.3691c-0.4219,0.1045-0.8106,0.1582-1.1612,0.1582c-0.9882,0-1.5859-0.3857-1.7968-1.1601
	c-0.2119-0.7725-0.3174-1.6153-0.3174-2.5293V43.7619c0-4.2158-0.793-7.6421-2.3779-10.2774
	c-1.585-2.6352-3.6104-4.7075-6.0772-6.2192c-2.4668-1.5102-5.1953-2.5298-8.1894-3.0566
	c-2.9961-0.5274-5.9014-0.7906-8.7188-0.7906c-4.4385,0-8.5967,0.3687-12.4707,1.1065c-3.875,0.7378-7.7148,1.9155-11.5195,3.5312
	l4.4394,13.8086c1.9024-1.1938,4.1211-2.2295,6.6572-3.1093c2.5372-0.878,5.3907-1.3179,8.5606-1.3179
	c2.1133,0,3.8574,0.1767,5.2314,0.5273c1.3741,0.3526,2.4649,0.8267,3.2764,1.4234c0.8086,0.5976,1.3731,1.2827,1.6904,2.0551
	c0.3174,0.7745,0.4756,1.5816,0.4756,2.4244v2.1084c0,0.9853-0.3535,1.581-1.0566,1.7919c-0.7051,0.211-1.6563,0.3155-2.8535,0.3155
	c-3.2412,0-6.5889,0.2295-10.0401,0.6865c-3.4521,0.458-6.623,1.335-9.5107,2.6348c-2.8897,1.3007-5.2676,3.1621-7.1338,5.5869
	c-1.8672,2.4238-2.8008,5.6396-2.8008,9.6445c0,2.5303,0.4229,4.8496,1.2686,6.957c0.8447,2.1084,2.042,3.919,3.5927,5.4288
	c1.5489,1.5126,3.3819,2.6884,5.4952,3.5312c2.1142,0.8438,4.4394,1.2656,6.9755,1.2656c4.1563,0,7.5723-0.6504,10.251-1.9502
	c2.6768-1.2998,5.2129-3.2841,7.6084-5.955c0.6348,2.1787,1.9033,3.9355,3.8057,5.2695c1.9014,1.334,4.4726,2.0029,7.7139,2.0029
	c1.9716,0,3.9101-0.1416,5.8125-0.4209c1.9023-0.2822,3.5566-0.5986,4.9667-0.9492L438.7295,69.9045z"/>
<path fill="#FFFFFF" d="M483.0098,60.2062c-0.2823,1.7578-0.7764,3.3731-1.4795,4.8487c-0.7061,1.4755-1.6748,2.706-2.9063,3.6904
	c-1.2334,0.9844-2.8008,1.4746-4.7031,1.4746c-2.5371,0-4.3857-0.543-5.5479-1.6328c-1.163-1.0899-1.7441-2.5469-1.7441-4.375
	v-15.917c0-1.334,0.1406-2.4063,0.4229-3.2153c0.2802-0.8067,0.915-1.7032,1.9023-2.688c0.6338-0.6324,1.4082-1.1763,2.3252-1.6338
	c0.9141-0.4566,1.9707-0.6851,3.1699-0.6851c1.9024,0,3.4512,0.5269,4.6504,1.5811c1.1963,1.0537,2.1133,2.3554,2.7471,3.8999
	c0.6347,1.5478,1.0566,3.1982,1.2685,4.9541c0.211,1.7578,0.3164,3.374,0.3164,4.8496
	C483.4316,56.8332,483.29,58.4504,483.0098,60.2062z M502.9834,42.0226c-0.8457-3.5478-2.167-6.6933-3.9629-9.4341
	c-1.7969-2.7407-4.0527-4.9545-6.7637-6.6411c-2.7129-1.6865-5.9707-2.5293-9.7754-2.5293c-3.7363,0-6.8173,0.774-9.247,2.3189
	c-2.4307,1.5464-4.5977,3.5146-6.5,5.9028V4.1276h-20.0791V82.132h19.5508v-2.4248c1.3369,1.2656,3.1699,2.2842,5.4951,3.0576
	c2.3252,0.7715,4.6142,1.1582,6.8701,1.1582c4.6494,0,8.6123-0.9668,11.8887-2.8984c3.2763-1.9317,5.9345-4.3906,7.9785-7.3779
	c2.0429-2.9864,3.5224-6.3077,4.4394-9.962c0.9141-3.6533,1.3741-7.2031,1.3741-10.6464
	C504.252,49.2433,503.8291,45.5724,502.9834,42.0226z"/>
<path fill="#FFFFFF" d="M533.1016,82.132V4.1276h-19.9737V82.132H533.1016z"/>
<path fill="#FFFFFF" d="M561.6348,45.7658c0-1.0547,0.1406-2.1616,0.4228-3.3213c0.2813-1.1597,0.757-2.248,1.4268-3.2676
	c0.6689-1.018,1.5849-1.8447,2.748-2.4775c1.1621-0.6323,2.5889-0.9483,4.2803-0.9483c2.959,0,5.1777,1.001,6.6572,3.004
	c1.4796,2.0029,2.0772,4.3403,1.7969,7.0107H561.6348z M596.0869,39.9147c-0.9873-3.1264-2.5361-5.9033-4.6494-8.3276
	c-2.1143-2.4243-4.8447-4.3906-8.1904-5.9029c-3.3467-1.5102-7.3809-2.2661-12.1006-2.2661c-4.792,0-9.001,0.8086-12.6289,2.4239
	c-3.6299,1.6176-6.6758,3.8315-9.1416,6.6411c-2.4668,2.8115-4.333,6.061-5.6006,9.7505
	c-1.2686,3.6894-1.9024,7.6425-1.9024,11.8593c0,4.9903,0.8272,9.3643,2.4834,13.1231c1.6543,3.7598,3.9444,6.8701,6.8692,9.3291
	c2.9228,2.4609,6.3935,4.3047,10.4092,5.5342c4.0156,1.2285,8.3839,1.8437,13.1054,1.8437c4.1563,0,8.084-0.3681,11.7832-1.1064
	c3.6983-0.7373,6.8858-1.5977,9.5635-2.5821l-3.4873-13.914c-2.0449,0.9131-4.3506,1.7041-6.9219,2.3711
	c-2.5722,0.6689-5.1963,1.0019-7.873,1.0019c-5.1436,0-9.0889-1.0713-11.836-3.2148c-2.748-2.1436-4.122-5.0078-4.122-8.5918
	v-0.7373H597.25c0.0684-0.4912,0.1221-1.0889,0.1582-1.792c0.0352-0.7022,0.0693-1.4229,0.1055-2.1611
	c0.0351-0.7383,0.0527-1.4395,0.0527-2.1084c0-0.667,0-1.212,0-1.6338C597.5664,46.2228,597.0732,43.0422,596.0869,39.9147z"/>
<g>
</g>
<g>
</g>
<g>
</g>
<g>
</g>
<g>
</g>
<g>
</g>
</svg>
