<svg xmlns="http://www.w3.org/2000/svg" viewBox="0 0 30 30" enable-background="new 0 0 30 30"><path fill="#fff" d="M27.435 3.532l-24.196-1.26c-1.778-.092-3.239 1.115-3.239 2.698v1.146l30 1.076v-1.008c0-1.391-1.141-2.578-2.565-2.652zm-23.558 1.171c0 .234-.214.414-.478.404l-.962-.039c-.267-.011-.483-.21-.483-.446v-.853c0-.236.217-.416.483-.403l.962.045c.264.013.478.212.478.446v.846zm3.139.133c0 .231-.208.409-.466.399l-.936-.038c-.26-.011-.471-.208-.471-.44v-.842c0-.232.211-.411.471-.399l.936.045c.257.012.466.209.466.44v.835zm3.06.129c0 .228-.203.404-.454.394l-.913-.037c-.254-.01-.459-.205-.459-.434v-.831c0-.23.206-.406.459-.394l.913.043c.251.012.454.206.454.434v.825zm-10.076 20.066c0 1.583 1.461 2.79 3.239 2.697l24.196-1.26c1.424-.074 2.565-1.261 2.565-2.652v-15.617l-30-.937v17.769zm13.461-11.279c-.575-.534-.575-1.394 0-1.916.572-.52 1.493-.506 2.057.028l4.008 3.788c.543.513.543 1.347 0 1.867l-4.008 3.843c-.565.541-1.485.569-2.057.056-.575-.515-.575-1.375 0-1.916l3.072-2.896-3.072-2.854z"/></svg>