<svg xmlns="http://www.w3.org/2000/svg" viewBox="0 33 500 37.1" enable-background="new 0 33 500 37.1"><path fill="#fff" d="M270.1 42c-.9 0-1.7.1-2.4.4-.7.3-1.3.6-1.9 1s-1.1.9-1.5 1.4-.9 1.1-1.3 1.7v-3.8h-8.4v1.3l.1 1.8.1 1.9v21.3h9.2v-14.5c0-.8 0-1.5.1-2s.4-.9.8-1.3c.3-.3.6-.5 1.1-.7s1.1-.3 2-.3c.5 0 1 .1 1.6.3.5.2 1 .4 1.4.7l1.8-8.6c-.4-.1-.8-.2-1.3-.3s-.9-.3-1.4-.3zm21.4 16.1c0 .7 0 1.3-.1 1.7s-.4.9-.9 1.4c-.3.3-.6.5-1 .7s-.9.3-1.4.3c-2 0-3-1.2-3-3.6v-15.9h-9.2v18.2c0 1.3.2 2.4.5 3.5s.8 2 1.5 2.8 1.5 1.4 2.6 1.9 2.3.7 3.8.7c1.8 0 3.3-.4 4.6-1.1 1.3-.8 2.4-1.8 3.4-3.1v3.4h8.4v-26.3h-9.2v15.4zm38.5-13.6c-.7-.8-1.6-1.4-2.7-1.9s-2.4-.7-4-.7c-1.9 0-3.5.4-4.9 1.2s-2.5 1.9-3.6 3.3v-3.7h-8.4v26.3h9.2v-15.2c0-.7.1-1.3.2-1.7s.4-.8 1-1.4c.3-.3.7-.5 1.1-.8.5-.2 1-.3 1.5-.3 1.1 0 2 .3 2.5.9.5.6.8 1.5.8 2.7v15.8h9.2v-18.1c0-1.3-.2-2.4-.5-3.5-.2-1.1-.7-2.1-1.4-2.9zm31.2 0c-.7-.8-1.6-1.4-2.7-1.9s-2.4-.7-4-.7c-1.9 0-3.5.4-4.9 1.2s-2.5 1.9-3.6 3.3v-3.7h-8.4v26.3h9.2v-15.2c0-.7.1-1.3.2-1.7s.4-.8 1-1.4c.3-.3.7-.5 1.1-.8.5-.2 1-.3 1.5-.3 1.1 0 2 .3 2.5.9.5.6.8 1.5.8 2.7v15.8h9.2v-18.1c0-1.3-.2-2.4-.5-3.5-.2-1.1-.7-2.1-1.4-2.9zm32.1 19.1c-.2 0-.4.1-.5.1-.5 0-.7-.2-.8-.5-.1-.4-.1-.7-.1-1.2v-10.7c0-1.9-.4-3.5-1.1-4.7s-1.7-2.2-2.8-2.9c-1.1-.7-2.4-1.2-3.8-1.4s-2.7-.4-4-.4c-2.1 0-4 .2-5.8.5s-3.6.9-5.3 1.6l2.1 6.4c.9-.6 1.9-1 3.1-1.4s2.5-.6 4-.6c1 0 1.8.1 2.4.2.6.2 1.1.4 1.5.7s.6.6.8 1c.1.4.2.7.2 1.1v1c0 .5-.2.7-.5.8s-.8.1-1.3.1c-1.5 0-3 .1-4.6.3s-3.1.6-4.4 1.2c-1.3.6-2.4 1.5-3.3 2.6s-1.3 2.6-1.3 4.5c0 1.2.2 2.2.6 3.2s.9 1.8 1.7 2.5c.7.7 1.6 1.2 2.5 1.6 1 .4 2.1.6 3.2.6 1.9 0 3.5-.3 4.7-.9s2.4-1.5 3.5-2.8c.3 1 .9 1.8 1.8 2.4s2.1.9 3.6.9c.9 0 1.8-.1 2.7-.2.9-.1 1.6-.3 2.3-.4l-.3-5.5c-.5.2-.7.2-.8.3zm-10.4-3.4c0 1.1-.3 1.9-.9 2.5-.8.8-1.7 1.2-3 1.2-.8 0-1.4-.3-1.9-.8s-.8-1.1-.8-1.9c0-.6.2-1.2.5-1.6.3-.4.7-.7 1.2-.9s1-.4 1.6-.4c.6-.1 1.1-.1 1.6-.1h1.7v2zm38.7-14c-.8-1.3-1.9-2.3-3.1-3.1-1.3-.8-2.8-1.2-4.5-1.2s-3.1.4-4.3 1.1c-1.1.7-2.1 1.6-3 2.7v-12.7h-9.3v36h9v-1.1c.6.6 1.5 1.1 2.5 1.4 1.1.4 2.1.5 3.2.5 2.1 0 4-.4 5.5-1.3s2.7-2 3.7-3.4c.9-1.4 1.6-2.9 2.1-4.6.4-1.7.6-3.3.6-4.9 0-1.8-.2-3.5-.6-5.1s-1-3.1-1.8-4.3zm-7.4 12.7c-.1.8-.4 1.6-.7 2.2-.3.7-.8 1.2-1.3 1.7-.6.5-1.3.7-2.2.7-1.2 0-2-.3-2.6-.8s-.8-1.2-.8-2v-7.4c0-.6.1-1.1.2-1.5s.4-.8.9-1.2c.3-.3.7-.5 1.1-.8.4-.2.9-.3 1.5-.3.9 0 1.6.2 2.1.7.6.5 1 1.1 1.3 1.8s.5 1.5.6 2.3.1 1.6.1 2.2-.1 1.6-.2 2.4zm13.9 10.1h9.2v-36h-9.2v36zm38.4-19.5c-.5-1.4-1.2-2.7-2.1-3.8s-2.2-2-3.8-2.7c-1.5-.7-3.4-1-5.6-1s-4.2.4-5.8 1.1c-1.7.7-3.1 1.8-4.2 3.1s-2 2.8-2.6 4.5-.9 3.5-.9 5.5c0 2.3.4 4.3 1.1 6.1.8 1.7 1.8 3.2 3.2 4.3 1.4 1.1 3 2 4.8 2.6 1.9.6 3.9.9 6.1.9 1.9 0 3.7-.2 5.4-.5s3.2-.7 4.4-1.2l-1.6-6.4c-.9.4-2 .8-3.2 1.1s-2.4.5-3.6.5c-2.4 0-4.2-.5-5.5-1.5s-1.9-2.3-1.9-4v-.3h16.3c0-.2.1-.5.1-.8v-2.8c0-1.7-.2-3.2-.6-4.7zm-8 2.7h-8c0-.5.1-1 .2-1.5s.4-1 .7-1.5c.3-.5.7-.9 1.3-1.1.5-.3 1.2-.4 2-.4 1.4 0 2.4.5 3.1 1.4.6.8.9 1.9.7 3.1zm-407.7.6l-3.5-1.1c-2.1-.6-2.3-1.1-2.3-1.5 0-1.3 2.3-1.4 3-1.4 1.7 0 3.9.5 5.3 1.3l.9.5 3.2-6.6-.9-.4c-1-.4-4-1.7-8.2-1.7-7.2 0-12.3 3.9-12.3 9.3 0 3.5 2.2 6 6.5 7.4l3.9 1.3c1.5.5 2.5.9 2.5 1.7 0 1.5-2.9 1.5-3.4 1.5-2.1 0-4.5-.7-6.2-1.7l-1-.6-3.3 6.6.8.4c1.8.9 5.2 2 8.9 2 7.8 0 13.1-3.7 13.1-9.2.1-3.7-2.2-6.3-7-7.8zm35.3 10c-.3.1-.7.2-.9.2v-11.7c0-5.8-4.3-9.3-11.6-9.3-4.9 0-8.5.8-12 2.7l-.9.5 3.5 6.3.9-.7c.7-.5 3-2.1 6.5-2.1 2 0 4.3.4 4.3 2.2v1.6h-.9c-12.9 0-15.6 4.9-15.6 8.9 0 4.9 4 8.4 9.5 8.4 3.7 0 6.1-1.1 8.1-2.9.9 1.7 2.6 2.6 4.9 2.6 2 0 4-.4 5-.6l.9-.2-.6-6.2-1.1.3zm-14.5.2c-1.5 0-2.6-.9-2.6-2.1 0-2.3 3.9-2.5 5.6-2.5h1.2v1.4c0 1-.3 1.6-.9 2.2-.8.6-1.9 1-3.3 1zm35.4-21.1c-3 0-5.6.9-7.7 2.8v-2.2h-9v26.5h9.6v-15.9c0-1.5 0-1.8 1.2-2.7.6-.5 1.7-1 3-1 2.4 0 3.3.9 3.3 3.2v16.4h9.6v-17.7c0-6-3.7-9.4-10-9.4zm31.6 1c-1.4-.6-3.1-1-4.9-1-9.4 0-13.6 6.9-13.6 13.7s3.8 14.2 12.1 14.2c3.1 0 5.2-1 7-2.7v2h9.1v-36.1h-9.6v9.9h-.1zm-3.9 5.6c3.9 0 3.9 1.6 3.9 2.2v8.1c0 1.1-.1 1.7-1 2.4-.6.5-1.6 1-2.8 1-3.2 0-4.8-2.5-4.8-7.5 0-5.6 2.7-6.2 4.7-6.2zm34.7-6.7c-3.1 0-5.2 1.1-6.8 2.5v-11.3h-9.6v36h9.3v-.5c1.5.7 3.4 1.1 5.2 1.1 10 0 13.6-8.5 13.6-14.2 0-6.5-3.7-13.6-11.7-13.6zm1.7 14.5c0 3.1-.9 6.7-4.9 6.7-2.4 0-3.6-.8-3.6-2.3v-8.1c0-1.2.1-1.6 1.1-2.5.5-.5 1.5-1 2.8-1 3.1.2 4.6 2.6 4.6 7.2zm26.7-14.5c-10.3 0-14.9 7.1-14.9 14 0 8.5 5.8 14 14.7 14 10.3 0 14.9-7.1 14.9-14.1 0-6.7-3.9-13.9-14.7-13.9zm-.2 21.1c-3.9 0-4.8-3.8-4.8-7 0-2.1.5-7 5-7 4.3 0 4.9 4.4 4.9 7 0 1.6-.4 7-5.1 7zm42.9-20.4h-10.4l-3.8 6.9-3.9-6.9h-11.3l8.9 13-9.2 13.5h10.7l3.8-6.9 4 6.9h11.5l-9.4-13.6 9.1-12.9zm6.4 17.5c-3.3 0-5.6 1.9-5.6 4.6s2.3 4.6 5.6 4.6 5.5-1.9 5.5-4.6c0-2.7-2.3-4.6-5.5-4.6z"/></svg>