<svg xmlns="http://www.w3.org/2000/svg" viewBox="0 0 500 100" enable-background="new 0 0 500 100"><g fill="#fff"><path d="M178.2 49c-.4-1.6-1-3.1-1.8-4.3-.8-1.3-1.9-2.3-3.1-3.1-1.3-.8-2.8-1.2-4.5-1.2s-3.1.4-4.3 1.1c-1.1.7-2.1 1.6-3 2.7v-12.7h-9.3v36h9v-1.1c.6.6 1.5 1.1 2.5 1.4 1.1.4 2.1.5 3.2.5 2.1 0 4-.4 5.5-1.3s2.7-2 3.7-3.4c.9-1.4 1.6-2.9 2.1-4.6.4-1.7.6-3.3.6-4.9 0-1.9-.2-3.6-.6-5.1zm-9.2 8.4c-.1.8-.4 1.6-.7 2.2-.3.7-.8 1.2-1.3 1.7-.6.5-1.3.7-2.2.7-1.2 0-2-.3-2.6-.8-.6-.5-.8-1.2-.8-2v-7.4c0-.6.1-1.1.2-1.5.1-.4.4-.8.9-1.2.3-.3.7-.5 1.1-.8.4-.2.9-.3 1.5-.3.9 0 1.6.2 2.1.7.6.5 1 1.1 1.3 1.8s.5 1.5.6 2.3c.1.8.1 1.6.1 2.2s-.1 1.5-.2 2.4zM87.7 61.7c-.5.3-.7.3-.8.3-.2 0-.4.1-.5.1-.5 0-.7-.2-.8-.5-.1-.4-.1-.7-.1-1.2v-10.7c0-1.9-.4-3.5-1.1-4.7s-1.7-2.2-2.8-2.9c-1.1-.7-2.4-1.2-3.8-1.4-1.4-.2-2.7-.4-4-.4-2.1 0-4 .2-5.8.5-1.8.3-3.6.9-5.3 1.6l2.1 6.4c.9-.6 1.9-1 3.1-1.4 1.2-.4 2.5-.6 4-.6 1 0 1.8.1 2.4.2.6.2 1.1.4 1.5.7.4.3.6.6.8 1 .1.4.2.7.2 1.1v1c0 .5-.2.7-.5.8-.3.1-.8.1-1.3.1-1.5 0-3 .1-4.6.3-1.6.2-3.1.6-4.4 1.2s-2.4 1.5-3.3 2.6c-.9 1.1-1.3 2.6-1.3 4.5 0 1.2.2 2.2.6 3.2.4 1 .9 1.8 1.7 2.5.7.7 1.6 1.2 2.5 1.6 1 .4 2.1.6 3.2.6 1.9 0 3.5-.3 4.7-.9 1.2-.6 2.4-1.5 3.5-2.8.3 1 .9 1.8 1.8 2.4.9.6 2.1.9 3.6.9.9 0 1.8-.1 2.7-.2.9-.1 1.6-.3 2.3-.4l-.3-5.5zm-11.2-3c0 1.1-.3 1.9-.9 2.5-.8.8-1.7 1.2-3 1.2-.8 0-1.4-.3-1.9-.8s-.8-1.1-.8-1.9c0-.6.2-1.2.5-1.6.3-.4.7-.7 1.2-.9s1-.4 1.6-.4c.6-.1 1.1-.1 1.6-.1h1.7v2zM265.1 40.5c-.9 0-1.7.1-2.4.4-.7.3-1.3.6-1.9 1s-1.1.9-1.5 1.4-.9 1.1-1.3 1.7v-3.8h-8.4v1.3l.1 1.8.1 1.9v21.3h9.2v-14.5c0-.8 0-1.5.1-2s.4-.9.8-1.3c.3-.3.6-.5 1.1-.7s1.1-.3 2-.3c.5 0 1 .1 1.6.3.5.2 1 .4 1.4.7l1.8-8.6c-.4-.1-.8-.2-1.3-.3s-.9-.3-1.4-.3zM286.5 56.5c0 .7 0 1.3-.1 1.7s-.4.9-.9 1.4c-.3.3-.6.5-1 .7s-.9.3-1.4.3c-2 0-3-1.2-3-3.6v-15.8h-9.2v18.2c0 1.3.2 2.4.5 3.5s.8 2 1.5 2.8 1.5 1.4 2.6 1.9 2.3.7 3.8.7c1.8 0 3.3-.4 4.6-1.1 1.3-.8 2.4-1.8 3.4-3.1v3.4h8.4v-26.3h-9.2v15.3zM325 43c-.7-.8-1.6-1.4-2.7-1.9s-2.4-.7-4-.7c-1.9 0-3.5.4-4.9 1.2s-2.5 1.9-3.6 3.3v-3.7h-8.4v26.3h9.2v-15.3c0-.7.1-1.3.2-1.7s.4-.8 1-1.4c.3-.3.7-.5 1.1-.8.5-.2 1-.3 1.5-.3 1.1 0 2 .3 2.5.9.5.6.8 1.5.8 2.7v15.8h9.2v-18c0-1.3-.2-2.4-.5-3.5-.2-1.1-.7-2.1-1.4-2.9zM356.2 43c-.7-.8-1.6-1.4-2.7-1.9s-2.4-.7-4-.7c-1.9 0-3.5.4-4.9 1.2s-2.5 1.9-3.6 3.3v-3.7h-8.4v26.3h9.2v-15.3c0-.7.1-1.3.2-1.7s.4-.8 1-1.4c.3-.3.7-.5 1.1-.8.5-.2 1-.3 1.5-.3 1.1 0 2 .3 2.5.9.5.6.8 1.5.8 2.7v15.8h9.2v-18c0-1.3-.2-2.4-.5-3.5-.2-1.1-.7-2.1-1.4-2.9zM389.1 61.7c-.5.2-.7.2-.8.3-.2 0-.4.1-.5.1-.5 0-.7-.2-.8-.5-.1-.4-.1-.7-.1-1.2v-10.7c0-1.9-.4-3.5-1.1-4.7s-1.7-2.2-2.8-2.9c-1.1-.7-2.4-1.2-3.8-1.4-1.4-.2-2.7-.4-4-.4-2.1 0-4 .2-5.8.5-1.8.3-3.6.9-5.3 1.6l2.1 6.4c.9-.6 1.9-1 3.1-1.4 1.2-.4 2.5-.6 4-.6 1 0 1.8.1 2.4.2.6.2 1.1.4 1.5.7.4.3.6.6.8 1 .1.4.2.7.2 1.1v1c0 .5-.2.7-.5.8-.3.1-.8.1-1.3.1-1.5 0-3 .1-4.6.3-1.6.2-3.1.6-4.4 1.2s-2.4 1.5-3.3 2.6c-.9 1.1-1.3 2.6-1.3 4.5 0 1.2.2 2.2.6 3.2.4 1 .9 1.8 1.7 2.5.7.7 1.6 1.2 2.5 1.6 1 .4 2.1.6 3.2.6 1.9 0 3.5-.3 4.7-.9 1.2-.6 2.4-1.5 3.5-2.8.3 1 .9 1.8 1.8 2.4.9.6 2.1.9 3.6.9.9 0 1.8-.1 2.7-.2.9-.1 1.6-.3 2.3-.4l-.3-5.5zm-11.2-3c0 1.1-.3 1.9-.9 2.5-.8.8-1.7 1.2-3 1.2-.8 0-1.4-.3-1.9-.8s-.8-1.1-.8-1.9c0-.6.2-1.2.5-1.6.3-.4.7-.7 1.2-.9s1-.4 1.6-.4c.6-.1 1.1-.1 1.6-.1h1.7v2zM418.4 49c-.4-1.6-1-3.1-1.8-4.3-.8-1.3-1.9-2.3-3.1-3.1-1.3-.8-2.8-1.2-4.5-1.2s-3.1.4-4.3 1.1c-1.1.7-2.1 1.6-3 2.7v-12.7h-9.3v36h9v-1.1c.6.6 1.5 1.1 2.5 1.4 1.1.4 2.1.5 3.2.5 2.1 0 4-.4 5.5-1.3s2.7-2 3.7-3.4c.9-1.4 1.6-2.9 2.1-4.6.4-1.7.6-3.3.6-4.9 0-1.9-.2-3.6-.6-5.1zm-9.2 8.4c-.1.8-.4 1.6-.7 2.2-.3.7-.8 1.2-1.3 1.7-.6.5-1.3.7-2.2.7-1.2 0-2-.3-2.6-.8-.6-.5-.8-1.2-.8-2v-7.4c0-.6.1-1.1.2-1.5.1-.4.4-.8.9-1.2.3-.3.7-.5 1.1-.8.4-.2.9-.3 1.5-.3.9 0 1.6.2 2.1.7.6.5 1 1.1 1.3 1.8s.5 1.5.6 2.3c.1.8.1 1.6.1 2.2s-.1 1.5-.2 2.4zM423.1 31.5h9.2v36h-9.2zM461.5 48c-.5-1.4-1.2-2.7-2.1-3.8-.9-1.1-2.2-2-3.8-2.7-1.5-.7-3.4-1-5.6-1s-4.2.4-5.8 1.1c-1.7.7-3.1 1.8-4.2 3.1s-2 2.8-2.6 4.5c-.6 1.7-.9 3.5-.9 5.5 0 2.3.4 4.3 1.1 6.1.8 1.7 1.8 3.2 3.2 4.3 1.4 1.1 3 2 4.8 2.6 1.9.6 3.9.9 6.1.9 1.9 0 3.7-.2 5.4-.5 1.7-.3 3.2-.7 4.4-1.2l-1.6-6.4c-.9.4-2 .8-3.2 1.1-1.2.3-2.4.5-3.6.5-2.4 0-4.2-.5-5.5-1.5s-1.9-2.3-1.9-4v-.3h16.3c0-.2.1-.5.1-.8v-2.8c0-1.7-.2-3.2-.6-4.7zm-8 2.7h-8c0-.5.1-1 .2-1.5s.4-1 .7-1.5.7-.9 1.3-1.1c.5-.3 1.2-.4 2-.4 1.4 0 2.4.5 3.1 1.4.6.8.9 1.9.7 3.1zM241.9 58.5c-3.3 0-5.6 1.9-5.6 4.6 0 2.7 2.3 4.6 5.6 4.6s5.5-1.9 5.5-4.6-2.3-4.6-5.5-4.6zM52.4 51.9l-3.4-1.1c-1.9-.6-2.6-1.2-2.6-2.1 0-1.8 2.4-2 3.4-2 1.7 0 3.9.6 5.4 1.5l.5.3 2.7-5.8-.4-.2c-.9-.4-3.8-1.7-7.8-1.7-6.7 0-11.5 3.8-11.5 9 0 3.4 2 5.8 5.9 7.1l3.8 1.3c1.6.6 2.8 1.1 2.8 2.2 0 2-2.9 2.1-3.8 2.1-2.1 0-4.6-.7-6.3-1.8l-.5-.3-2.6 5.9.4.2c1.7.9 5 2 8.5 2 7.4 0 12.2-3.5 12.2-8.9-.1-3.7-2.2-6.2-6.7-7.7zM107.2 40.7c-3.2 0-5.8 1.2-8 3.5v-2.9h-7.8v26.4h8.3v-16c0-1.6.1-2.1 1.4-3.3.6-.5 1.8-1.1 3.2-1.1 2.6 0 3.7 1.2 3.7 3.9v16.4h8.3v-17.7c.1-5.9-3.3-9.2-9.1-9.2zM138.4 42c-1.4-.9-3.3-1.4-5.2-1.4-8.8 0-12.8 6.8-12.8 13.6s3.5 14.1 11.2 14.1c3.4 0 5.4-1.3 7.3-3.5v2.8h7.9v-36.2h-8.4v10.6zm0 7.2v8.4c0 1.3-.2 2.1-1.2 3-.6.5-1.7 1.2-3 1.2-4.2 0-5.1-4.5-5.1-8.3 0-4.7 1.6-7 5-7 3.9-.1 4.3 1.5 4.3 2.7zM195.5 40.6c-9.7 0-14 7-14 14 0 10.3 7.1 14 13.8 14 9.7 0 14-7.1 14-14 0-6.8-3.7-14-13.8-14zm-.3 21.8c-4.5 0-5.1-4.9-5.1-7.9 0-2.4.5-7.9 5.3-7.9 4.6 0 5.2 4.9 5.2 7.8.1 2-.3 8-5.4 8zM227.6 54.1l8.4-12.8h-8.9l-3.9 7.7-4-7.7h-9.8l8.4 12.9-8.8 13.4h9.2l4-7.6 4.2 7.6h9.9z"/></g></svg>