<svg xmlns="http://www.w3.org/2000/svg" viewBox="0 20 60 20" enable-background="new 0 20 60 20"><path fill="#F1F2F2" d="M0 24h20v16h-20z"/><path fill="#804EA8" d="M.1 20h60v4h-60z"/><path fill="#F1F2F2" d="M40 24h20v6.6h-20z"/><path fill="#383734" d="M20 24h20v16h-20zM40 30.7h20v9.3h-20z"/><path fill="#F1F2F2" d="M21.3 26h2v3.3h-2zM41.3 32.7h2v3.3h-2z"/><g fill="#F1F2F2"><circle cx="2.3" cy="22" r="1"/><circle cx="5" cy="22" r="1"/><circle cx="7.7" cy="22" r="1"/></g><g fill="#F1F2F2"><circle cx="22.3" cy="22" r="1"/><circle cx="25" cy="22" r="1"/><circle cx="27.7" cy="22" r="1"/></g><g fill="#F1F2F2"><circle cx="42.3" cy="22" r="1"/><circle cx="45" cy="22" r="1"/><circle cx="47.7" cy="22" r="1"/></g></svg>