<?xml version="1.0" encoding="utf-8"?>
<!-- Generator: Adobe Illustrator 19.2.1, SVG Export Plug-In . SVG Version: 6.00 Build 0)  -->
<!DOCTYPE svg PUBLIC "-//W3C//DTD SVG 1.1//EN" "http://www.w3.org/Graphics/SVG/1.1/DTD/svg11.dtd">
<svg version="1.1" id="Layer_1" xmlns="http://www.w3.org/2000/svg" xmlns:xlink="http://www.w3.org/1999/xlink" x="0px" y="0px"
	 viewBox="0 0 46 34.9" style="enable-background:new 0 0 46 34.9;" xml:space="preserve">
<style type="text/css">
	.st0{fill:#E6E6E6;}
	.st1{clip-path:url(#SVGID_2_);}
	.st2{fill:#555555;}
	.st3{fill:#BBBBBB;}
</style>
<title>always-integrating</title>
<path class="st0" d="M2.1,10l19.2-9.6c1.1-0.5,2.4-0.5,3.4,0L43.9,10c1.3,0.7,2.1,2,2.1,3.4v8c0,1.5-0.8,2.8-2.1,3.4l-19.2,9.6
	c-1.1,0.5-2.4,0.5-3.4,0L2.1,24.9c-1.3-0.7-2.1-2-2.1-3.4v-8C0,12,0.8,10.6,2.1,10z"/>
<g>
	<g>
		<defs>
			<polygon id="SVGID_1_" points="12.2,14.4 24.8,7 33.8,12.3 21.2,19.6 			"/>
		</defs>
		<clipPath id="SVGID_2_">
			<use xlink:href="#SVGID_1_"  style="overflow:visible;"/>
		</clipPath>
		<g class="st1">
			<path class="st2" d="M14.7,15c-0.3-0.1-0.4-0.4-0.4-0.6c0-0.3,0.2-0.5,0.4-0.6c0.7-0.4,1.5-0.4,2.1,0c0.3,0.1,0.4,0.3,0.5,0.6
				c0,0.3-0.2,0.5-0.4,0.6c-0.3,0.2-0.7,0.3-1.1,0.3C15.4,15.3,15,15.2,14.7,15 M27.3,14c-0.3-0.1-0.4-0.4-0.4-0.6
				c0-0.3,0.2-0.5,0.4-0.6c0.7-0.3,1.5-0.3,2.1,0c0.3,0.1,0.4,0.3,0.5,0.6c0,0.3-0.2,0.5-0.4,0.6c-0.3,0.2-0.7,0.3-1.1,0.3
				C28.1,14.2,27.7,14.1,27.3,14 M23.7,9.8c-0.3-0.1-0.4-0.3-0.5-0.6c0-0.3,0.2-0.5,0.4-0.6c0.3-0.2,0.7-0.3,1.1-0.3
				c0.4,0,0.8,0.1,1.1,0.3c0.3,0.1,0.4,0.4,0.4,0.6c0,0.3-0.2,0.5-0.4,0.6C25.2,10.1,24.4,10.1,23.7,9.8 M26.6,8.1
				c-0.6-0.3-1.2-0.5-1.8-0.4c-0.6,0-1.2,0.1-1.8,0.4c-0.3,0.1-0.5,0.4-0.7,0.7c-0.1,0.2-0.1,0.5,0,0.7l-5.9,3.4
				c-0.4-0.1-0.9-0.1-1.3,0c-0.4,0.1-0.8,0.2-1.2,0.4c-0.4,0.2-0.7,0.6-0.8,1c0,0.5,0.3,0.9,0.8,1c0.6,0.3,1.2,0.5,1.8,0.4
				c0.6,0,1.2-0.1,1.8-0.4c0.4-0.2,0.7-0.6,0.7-1c0.1,0,0.3,0,0.5,0s0.4,0,0.5,0c0.4,0.1,0.7,0.2,1,0.4c1.1,0.6,2.4,0.8,3.6,0.8
				c0.7,0,1.4-0.1,2.1-0.3c0.6-0.1,1.2-0.4,1.8-0.7l0,0c0.4,0.1,0.9,0.1,1.3,0c0.4-0.1,0.8-0.2,1.2-0.4c0.4-0.2,0.7-0.6,0.8-1
				c0-0.5-0.3-0.9-0.8-1.1c-0.6-0.3-1.2-0.5-1.8-0.4c-0.6,0-1.2,0.1-1.8,0.4c-0.3,0.1-0.5,0.4-0.7,0.7c-0.1,0.2-0.1,0.5,0,0.7
				l-0.3,0.2c-0.6,0.3-1.2,0.4-1.8,0.4c-0.6,0-1.2-0.1-1.8-0.4c-0.7-0.4-1.4-0.7-2.2-0.8l4.3-2.5c0.4,0.1,0.9,0.1,1.3,0
				c0.4-0.1,0.8-0.2,1.2-0.4c0.4-0.2,0.7-0.6,0.8-1C27.3,8.7,27,8.3,26.6,8.1"/>
		</g>
	</g>
</g>
<polygon class="st3" points="45.2,11.1 45.2,11.1 45.2,11.1 "/>
<polygon class="st3" points="0.8,11.1 0.8,11.1 0.8,11.1 "/>
<path class="st3" d="M3.2,12.3c-0.4,0.2-0.6,0.6-0.6,1.1v1.5l19.2,9.6v7.4l0.7,0.4c0.4,0.2,0.8,0.2,1.1,0l0.7-0.4v-7.4l19.2-9.6
	v-1.5c0-0.4-0.2-0.9-0.6-1.1L23,22.2L3.2,12.3z"/>
<polygon class="st3" points="46,13.4 46,13.4 46,13.4 "/>
<path class="st3" d="M45.8,12.2C45.8,12.2,45.8,12.2,45.8,12.2C45.8,12.2,45.8,12.2,45.8,12.2z"/>
<polygon class="st3" points="0,13.4 0,13.4 0,13.4 "/>
<path class="st3" d="M0.2,12.2C0.2,12.2,0.2,12.2,0.2,12.2C0.2,12.2,0.2,12.2,0.2,12.2z"/>
<path class="st2" d="M23,2.6c0.2,0,0.4,0,0.6,0.1l19.2,9.6c0.4,0.2,0.7,0.7,0.7,1.1v8c0,0.5-0.3,0.9-0.7,1.1l-19.2,9.6
	c-0.4,0.2-0.8,0.2-1.1,0L3.3,22.6c-0.4-0.2-0.7-0.7-0.7-1.1v-8c0-0.5,0.3-0.9,0.7-1.1l19.2-9.6C22.6,2.6,22.8,2.6,23,2.6 M23,0
	c-0.6,0-1.2,0.1-1.7,0.4L2.1,10C0.8,10.6,0,12,0,13.4v8c0,1.5,0.8,2.8,2.1,3.4l19.2,9.6c1.1,0.5,2.4,0.5,3.4,0l19.2-9.6
	c1.3-0.6,2.1-2,2.1-3.4v-8c0-1.5-0.8-2.8-2.1-3.4L24.7,0.4C24.2,0.1,23.6,0,23,0C23,0,23,0,23,0z"/>
</svg>
