<svg id="Layer_1" data-name="Layer 1" xmlns="http://www.w3.org/2000/svg" viewBox="0 0 150 150"><title>always-sharing</title><circle cx="75" cy="75" r="75" style="fill:#fff;opacity:0.2"/><path d="M143.654,94.174a43.823,43.823,0,1,1-87.645,0h87.645Z" transform="translate(-25 -25)" style="fill:#583782"/><path d="M141.271,108.423a43.737,43.737,0,0,0,2.382-14.249H56.008a43.737,43.737,0,0,0,2.382,14.249h82.881Z" transform="translate(-25 -25)" style="fill:#fff;opacity:0.8"/><path d="M56.008,75.547A13.407,13.407,0,0,1,66.6,80.729a13.443,13.443,0,1,0-21.18,0A13.407,13.407,0,0,1,56.008,75.547Z" transform="translate(-25 -25)" style="fill:#583782"/><path d="M142.63,75.525a13.407,13.407,0,0,1,10.59,5.182,13.443,13.443,0,1,0-21.18,0A13.407,13.407,0,0,1,142.63,75.525Z" transform="translate(-25 -25)" style="fill:#583782"/></svg>