<svg data-name="Layer 1" xmlns="http://www.w3.org/2000/svg" viewBox="0 0 118.578 132.011"><title>always-integrating</title><path d="M34.255 32.643a.745.745 0 0 0 .745-.745v-16.51a.745.745 0 0 0-.745-.745H3.745a.745.745 0 0 0-.745.744v16.51a.745.745 0 0 0 .744.746h8.6a1.5 1.5 0 0 1 1.1.483l5.55 6.02 5.55-6.02a1.5 1.5 0 0 1 1.1-.483h8.6z" fill="#ccadd2"/><path fill="none" stroke="#44275e" stroke-linecap="round" stroke-miterlimit="10" stroke-width="3" stroke-dasharray="3,8" d="M19 76.613L59.3 56.01 99.58 99.713"/><circle cx="19" cy="53.512" r="4.45" fill="#cce8e0"/><path d="M34.255 11.643H3.745A3.748 3.748 0 0 0 0 15.387v16.51a3.75 3.75 0 0 0 3.744 3.746h7.945l5.81 6.3v4.267a7.45 7.45 0 0 0 0 14.6v8.5a7.45 7.45 0 0 0 0 14.6v8.5a7.45 7.45 0 1 0 3 0v-8.5a7.45 7.45 0 0 0 0-14.6v-8.5a7.45 7.45 0 0 0 0-14.6v-4.263l5.81-6.3h7.945A3.75 3.75 0 0 0 38 31.902V15.387a3.75 3.75 0 0 0-3.745-3.744zM23.45 99.713a4.45 4.45 0 1 1-5.95-4.17 4.878 4.878 0 0 1 .714-.2 3.927 3.927 0 0 1 1.572 0 4.872 4.872 0 0 1 .713.2 4.443 4.443 0 0 1 2.95 4.17zm0-23.1a4.443 4.443 0 0 1-2.95 4.172 4.876 4.876 0 0 1-.714.2 3.926 3.926 0 0 1-1.572 0 4.878 4.878 0 0 1-.714-.2 4.424 4.424 0 0 1 0-8.342 4.878 4.878 0 0 1 .714-.2 3.927 3.927 0 0 1 1.572 0 4.872 4.872 0 0 1 .713.2 4.443 4.443 0 0 1 2.95 4.17zm0-23.1a4.444 4.444 0 0 1-2.95 4.173 4.876 4.876 0 0 1-.714.2 3.926 3.926 0 0 1-1.572 0 4.88 4.88 0 0 1-.714-.2 4.424 4.424 0 0 1 0-8.342 4.878 4.878 0 0 1 .714-.2 3.926 3.926 0 0 1 1.572 0 4.876 4.876 0 0 1 .713.2 4.443 4.443 0 0 1 2.95 4.168zM35 31.9a.745.745 0 0 1-.745.745h-8.6a1.5 1.5 0 0 0-1.1.483l-5.55 6.02-5.55-6.02a1.5 1.5 0 0 0-1.1-.483h-8.6a.745.745 0 0 1-.744-.745V15.387a.745.745 0 0 1 .745-.744h30.5a.745.745 0 0 1 .745.744v16.51z" fill="#44275e"/><path d="M114.833 32.643a.745.745 0 0 0 .745-.745v-16.51a.745.745 0 0 0-.745-.745h-30.51a.745.745 0 0 0-.745.744v16.51a.745.745 0 0 0 .744.746h8.6a1.5 1.5 0 0 1 1.1.483l5.55 6.02 5.55-6.02a1.5 1.5 0 0 1 1.1-.483h8.6z" fill="#ccadd2"/><circle cx="19" cy="76.613" r="4.45" fill="#85c996"/><circle cx="19" cy="99.714" r="4.45" fill="#f59d87"/><circle cx="99.578" cy="53.512" r="4.45" fill="#ffe1a5"/><path d="M114.833 11.643h-30.51a3.748 3.748 0 0 0-3.745 3.744v16.51a3.75 3.75 0 0 0 3.744 3.746h7.945l5.81 6.3v4.267a7.45 7.45 0 0 0 0 14.6v8.5a7.45 7.45 0 0 0 0 14.6v8.5a7.45 7.45 0 1 0 3 0v-8.5a7.45 7.45 0 0 0 0-14.6v-8.5a7.45 7.45 0 0 0 0-14.6v-4.263l5.81-6.3h7.946a3.75 3.75 0 0 0 3.745-3.745V15.387a3.75 3.75 0 0 0-3.745-3.744zm-10.806 88.07a4.45 4.45 0 1 1-5.95-4.17 4.878 4.878 0 0 1 .714-.2 3.927 3.927 0 0 1 1.573 0 4.872 4.872 0 0 1 .713.2 4.443 4.443 0 0 1 2.952 4.17zm0-23.1a4.443 4.443 0 0 1-2.95 4.172 4.876 4.876 0 0 1-.714.2 3.926 3.926 0 0 1-1.572 0 4.878 4.878 0 0 1-.713-.2 4.424 4.424 0 0 1 0-8.342 4.878 4.878 0 0 1 .714-.2 3.927 3.927 0 0 1 1.573 0 4.872 4.872 0 0 1 .713.2 4.443 4.443 0 0 1 2.952 4.17zm0-23.1a4.444 4.444 0 0 1-2.95 4.173 4.876 4.876 0 0 1-.714.2 3.926 3.926 0 0 1-1.572 0 4.88 4.88 0 0 1-.713-.2 4.424 4.424 0 0 1 0-8.342 4.878 4.878 0 0 1 .714-.2 3.926 3.926 0 0 1 1.573 0 4.876 4.876 0 0 1 .713.2 4.443 4.443 0 0 1 2.952 4.168zm11.55-21.613a.745.745 0 0 1-.745.745h-8.6a1.5 1.5 0 0 0-1.1.483l-5.55 6.02-5.55-6.02a1.5 1.5 0 0 0-1.1-.483h-8.6a.745.745 0 0 1-.744-.745V15.387a.745.745 0 0 1 .744-.744h30.51a.745.745 0 0 1 .746.744v16.51z" fill="#44275e"/><path fill="none" stroke="#44275e" stroke-linecap="round" stroke-miterlimit="10" stroke-width="3" d="M59.3 38.103v83.68"/><circle cx="99.578" cy="76.613" r="4.45" fill="#cce8e0"/><circle cx="99.578" cy="99.714" r="4.45" fill="#85c996"/><path d="M81.095 1.5H37.508a3.206 3.206 0 0 0-3.206 3.206v23.587a3.206 3.206 0 0 0 3.206 3.206h12.29l4.75 5.153 4.753 5.156 4.753-5.157 4.752-5.156h12.29A3.206 3.206 0 0 0 84.3 28.29V4.707A3.206 3.206 0 0 0 81.096 1.5z" fill="#dac1e0" stroke="#44275e" stroke-linejoin="round" stroke-width="3"/><path d="M47.322 20.477l-1.008 3.632h-3.317l4.325-14.157h4.2L55.91 24.11h-3.444l-1.092-3.633h-4.052zm3.59-2.395l-.882-3c-.252-.84-.5-1.89-.714-2.73h-.042c-.21.84-.42 1.912-.65 2.73l-.84 3h3.127zM57.524 10.147a26.175 26.175 0 0 1 4.326-.294 6.79 6.79 0 0 1 4.325 1.135 4.136 4.136 0 0 1 1.512 3.275 4.526 4.526 0 0 1-1.3 3.36 6.565 6.565 0 0 1-4.6 1.49 8.23 8.23 0 0 1-1.092-.063v5.06h-3.17V10.147zm3.17 6.424a4.87 4.87 0 0 0 1.07.085c1.7 0 2.75-.86 2.75-2.31 0-1.3-.9-2.078-2.5-2.078a5.482 5.482 0 0 0-1.322.126v4.178zM72.576 9.953V24.11h-3.212V9.952h3.212z" fill="#44275e"/><circle cx="59.301" cy="56.009" r="8.5" fill="#85c996" stroke="#44275e" stroke-miterlimit="10" stroke-width="3"/><circle cx="59.301" cy="89.01" r="8.5" fill="#f59d87" stroke="#44275e" stroke-miterlimit="10" stroke-width="3"/><circle cx="59.301" cy="122.011" r="8.5" fill="#ffe1a5" stroke="#44275e" stroke-miterlimit="10" stroke-width="3"/></svg>