<svg width="270" height="171" viewBox="0 0 270 171" xmlns="http://www.w3.org/2000/svg"><title>Group 5</title><g fill="none" fill-rule="evenodd"><path d="M265.5 9H261V4.5c0-2.48-2.02-4.5-4.5-4.5h-114c-2.48 0-4.5 2.02-4.5 4.5V39H4.5C2.02 39 0 41.02 0 43.5v114c0 2.48 2.02 4.5 4.5 4.5H9v4.5c0 2.48 2.02 4.5 4.5 4.5h174c2.48 0 4.5-2.02 4.5-4.5V102h73.5c2.48 0 4.5-2.02 4.5-4.5v-84c0-2.48-2.02-4.5-4.5-4.5" fill="#FFF"/><path d="M183 102h9v-9h-9v9z" fill="#CDBAE1"/><path d="M151.5 102H174v-9h-27v4.5c0 2.48 2.02 4.5 4.5 4.5zm28.5-9h-3v9h3v-9zm85.5-84H261v79.5c0 2.48-2.02 4.5-4.5 4.5H192v9h73.5c2.48 0 4.5-2.02 4.5-4.5v-84c0-2.48-2.02-4.5-4.5-4.5zM183 102h9v64.5c0 2.48-2.02 4.5-4.5 4.5h-174c-2.48 0-4.5-2.02-4.5-4.5V162H178.5c2.48 0 4.5-2.02 4.5-4.5V102z" fill="#E1D0F3"/><path d="M160.5 84c-7.444 0-13.5-6.056-13.5-13.5 0-3.164 1.102-6.07 2.932-8.375-.075.094-.16.178-.233.275L147 66l-2.973 3.964c-.006.18-.027.355-.027.536 0 3.518 1.116 6.776 3 9.457C149.988 84.21 154.92 87 160.5 87s10.512-2.79 13.5-7.043V70.5c0 7.444-6.056 13.5-13.5 13.5zm-30 30a46.21 46.21 0 0 0-24.987 7.314l-2.928 3.904-6.915 9.22a44.45 44.45 0 0 0-2.068 3.052C101.296 125.196 114.958 117 130.5 117c23.483 0 42.667 18.707 43.462 42H174V144.088C167.35 126.524 150.364 114 130.5 114zm-61 22.803V151.5a1.5 1.5 0 0 0 3 0v-14.697c-.48.124-.98.197-1.5.197s-1.02-.073-1.5-.197zM71 87a1.5 1.5 0 0 0-1.5 1.5v36.697c.48-.124.98-.197 1.5-.197s1.02.073 1.5.197V88.5A1.5 1.5 0 0 0 71 87zm76.32-26.385l1.608 1.206-1.607-1.206zM87.038 159c.006-.185.006-.372.014-.557-.008.186-.016.37-.022.557h.008zm43.462-12c-6.936 0-12.662 5.26-13.412 12h3.032c.732-5.08 5.1-9 10.38-9 5.28 0 9.648 3.92 10.38 9h3.032c-.75-6.74-6.476-12-13.412-12zM231 84h-9a1.5 1.5 0 0 0 0 3h9a1.5 1.5 0 0 0 0-3zm-75-13.5c0 2.48 2.02 4.5 4.5 4.5s4.5-2.02 4.5-4.5-2.02-4.5-4.5-4.5-4.5 2.02-4.5 4.5zm4.5-7.5c4.136 0 7.5 3.364 7.5 7.5s-3.364 7.5-7.5 7.5-7.5-3.364-7.5-7.5 3.364-7.5 7.5-7.5zM195 84h-9a1.5 1.5 0 0 0 0 3h9a1.5 1.5 0 0 0 0-3zm54 0h-9a1.5 1.5 0 0 0 0 3h9a1.5 1.5 0 0 0 0-3zm-84.797-51h9.714c-.75-6.74-6.48-12-13.417-12-6.937 0-12.668 5.26-13.417 12h9.714c-.188.464-.297.97-.297 1.5s.11 1.036.297 1.5h-9.714c.116 1.042.363 2.042.703 3 .183.515.39 1.016.632 1.5.26.52.552 1.02.874 1.5 2.425 3.612 6.54 6 11.208 6s8.783-2.388 11.208-6c.322-.48.614-.98.874-1.5.24-.484.45-.985.632-1.5.34-.958.587-1.958.703-3h-9.714c.188-.464.297-.97.297-1.5s-.11-1.036-.297-1.5zm12.72 0H177v3h-.076a16.34 16.34 0 0 1-.564 3 16.31 16.31 0 0 1-1.182 3 16.593 16.593 0 0 1-5.22 6c-2.682 1.884-5.94 3-9.458 3a16.394 16.394 0 0 1-9.457-3A16.624 16.624 0 0 1 147 43.957 16.535 16.535 0 0 1 144.64 39a16.34 16.34 0 0 1-.564-3H144v-3h.076A16.387 16.387 0 0 1 147 25.043C149.988 20.79 154.92 18 160.5 18c8.592 0 15.663 6.604 16.424 15zm-18.227 21.104zm-4.764 4.612zM213 84h-9a1.5 1.5 0 0 0 0 3h9a1.5 1.5 0 0 0 0-3zm-25.35-35.985a1.513 1.513 0 0 0-.388.09c.142-.056.29-.075.44-.084.142-.01.28.012.418.042.273.06.536.17.747.384.363.368.722.716 1.078 1.054.566.537 1.124 1.04 1.673 1.5H209.33c.462-.473.917-.974 1.368-1.5.413-.483.823-.98 1.228-1.5H187.8c-.052 0-.1.01-.15.015zM13.5 136.803V151.5a1.5 1.5 0 0 0 3 0v-14.697c-.48.124-.98.197-1.5.197s-1.02-.073-1.5-.197zm172.8-87.31v.007a1.472 1.472 0 0 0 0-.006zM187.8 36h32.313c.352-.508.707-1.008 1.066-1.5.37-.51.746-1.012 1.126-1.5H187.8a1.5 1.5 0 0 0 0 3zM57 87a1.5 1.5 0 0 0-1.5 1.5v25.697c.48-.124.98-.197 1.5-.197s1.02.073 1.5.197V88.5A1.5 1.5 0 0 0 57 87zm158.67-39c-.37.51-.74 1.01-1.116 1.5a47.086 47.086 0 0 1-1.196 1.5H247.2a1.5 1.5 0 0 0 0-3h-31.53zm31.972-12.074a1.495 1.495 0 0 1-1.566-.433 45.763 45.763 0 0 0-.903-.993 39.13 39.13 0 0 0-1.476-1.5H226.17c-.42.477-.834.976-1.247 1.5-.382.484-.76.983-1.14 1.5H247.2c.155 0 .302-.03.442-.074zM248.7 34.5c0-.03-.007-.06-.01-.09.004.045.007.09.006.134 0-.015.004-.03.004-.044zM29 87a1.5 1.5 0 0 0-1.5 1.5v25.697c.48-.124.98-.197 1.5-.197s1.02.073 1.5.197V88.5A1.5 1.5 0 0 0 29 87zm12.5 49.803V151.5a1.5 1.5 0 0 0 3 0v-14.697c-.48.124-.98.197-1.5.197s-1.02-.073-1.5-.197zM43 87a1.5 1.5 0 0 0-1.5 1.5v36.697c.48-.124.98-.197 1.5-.197s1.02.073 1.5.197V88.5A1.5 1.5 0 0 0 43 87zm12.5 38.803V151.5a1.5 1.5 0 0 0 3 0v-25.697c-.48.124-.98.197-1.5.197s-1.02-.073-1.5-.197zM15 87a1.5 1.5 0 0 0-1.5 1.5v36.697c.48-.124.98-.197 1.5-.197s1.02.073 1.5.197V88.5A1.5 1.5 0 0 0 15 87zm14 39c.52 0 1.02-.073 1.5-.197V151.5a1.5 1.5 0 0 1-3 0v-25.697c.48.124.98.197 1.5.197z" fill="#C2A1E7"/><path d="M258 9v3H141V4.5c0-.827.673-1.5 1.5-1.5h114c.827 0 1.5.673 1.5 1.5V9zm0 79.5c0 .827-.673 1.5-1.5 1.5h-114c-.827 0-1.5-.673-1.5-1.5V15h117v73.5zM180 102v55.5c0 .827-.673 1.5-1.5 1.5H4.5c-.827 0-1.5-.673-1.5-1.5V54h135v34.5c0 2.48 2.02 4.5 4.5 4.5H180v9zM3 43.5c0-.827.673-1.5 1.5-1.5H138v9H3v-7.5zM256.5 0h-114c-2.48 0-4.5 2.02-4.5 4.5V39H4.5C2.02 39 0 41.02 0 43.5v114c0 2.48 2.02 4.5 4.5 4.5H178.5c2.48 0 4.5-2.02 4.5-4.5V93h73.5c2.48 0 4.5-2.02 4.5-4.5v-84c0-2.48-2.02-4.5-4.5-4.5z" fill="#472A70"/><path d="M160.5 54c-.608 0-1.21.04-1.804.104-.252.027-.5.075-.748.114-.325.05-.65.1-.97.17-.322.07-.638.156-.952.245-.225.063-.45.127-.67.2-.36.118-.715.247-1.064.39-.152.06-.302.128-.453.194-.387.17-.77.35-1.14.55-.075.04-.146.085-.22.126a16.287 16.287 0 0 0-3.37 2.5c-.106.1-.218.195-.322.3-.237.24-.457.494-.68.748-.175.202-.35.404-.52.616-.092.118-.197.22-.288.342l.02.016 1.608 1.207-1.608-1.205-.02-.015-.3.4-6 8v5l3.027-4.036L147 66l2.7-3.6c.072-.097.157-.18.232-.275.14-.178.288-.35.437-.518.177-.204.355-.408.544-.6.092-.092.19-.176.285-.267a13.333 13.333 0 0 1 2.732-2.024c.063-.035.124-.074.188-.108.303-.163.612-.31.927-.447.125-.055.25-.11.377-.16a11.66 11.66 0 0 1 1.417-.48c.256-.074.513-.146.776-.203.262-.056.528-.098.795-.14.204-.03.405-.07.61-.092.488-.052.98-.085 1.477-.085 7.444 0 13.5 6.056 13.5 13.5V90h3V70.5c0-9.098-7.402-16.5-16.5-16.5zm-65.805 51.184c6.727.473 12.576-4.633 13.04-11.36.224-3.26-.834-6.41-2.98-8.873a12.145 12.145 0 0 0-8.38-4.167 12.71 12.71 0 0 0-.848-.03c-6.364 0-11.75 4.947-12.192 11.39-.463 6.727 4.633 12.577 11.36 13.04zM80.342 91.938c.577-8.378 7.862-14.725 16.24-14.147a15.13 15.13 0 0 1 10.436 5.19 15.138 15.138 0 0 1 3.71 11.05c-.553 8.023-7.258 14.183-15.183 14.183-.35 0-.702-.013-1.056-.037-8.378-.577-14.724-7.863-14.148-16.238zm38.204-27.48a6.746 6.746 0 0 0-7.184 6.26c-.257 3.705 2.55 6.928 6.257 7.183a6.74 6.74 0 0 0 7.184-6.258c.256-3.706-2.552-6.93-6.258-7.185zm9.25 7.39c-.352 5.13-4.64 9.068-9.706 9.068-.224 0-.45-.008-.676-.023-5.356-.37-9.414-5.027-9.045-10.383.368-5.356 5.017-9.414 10.382-9.045 5.356.368 9.414 5.026 9.045 10.383zM247.5 75c0-1.654-1.346-3-3-3s-3 1.346-3 3 1.346 3 3 3 3-1.346 3-3zm3 0c0 3.31-2.69 6-6 6s-6-2.69-6-6 2.69-6 6-6 6 2.69 6 6zm-21 0c0-1.654-1.346-3-3-3s-3 1.346-3 3 1.346 3 3 3 3-1.346 3-3zm3 0c0 3.31-2.69 6-6 6s-6-2.69-6-6 2.69-6 6-6 6 2.69 6 6zm-21 0c0-1.654-1.346-3-3-3s-3 1.346-3 3 1.346 3 3 3 3-1.346 3-3zm3 0c0 3.31-2.69 6-6 6s-6-2.69-6-6 2.69-6 6-6 6 2.69 6 6zm33.97-41.29a1.46 1.46 0 0 0-.094-.13c-.018-.024-.032-.05-.052-.073-5.257-5.95-10.032-8.672-14.59-8.35-4.486.325-8.126 3.6-11.428 7.843-.38.488-.756.99-1.127 1.5-.36.492-.715.992-1.067 1.5a203.874 203.874 0 0 0-2.988 4.48c-1.69 2.592-3.405 5.215-5.2 7.52a42.28 42.28 0 0 1-1.227 1.5c-.45.526-.906 1.027-1.37 1.5-2.292 2.344-4.746 3.98-7.473 4.253-3.057.308-6.384-1.054-10.096-4.138l-.142-.115c-.55-.46-1.107-.963-1.673-1.5a45.757 45.757 0 0 1-1.078-1.054c-.21-.214-.474-.323-.747-.383a4.117 4.117 0 0 0-.417-.042c-.15.01-.3.03-.44.084l-.026.007c-.175.072-.34.178-.483.317-.002.003-.006.003-.008.006l-.003.003c-.144.144-.254.31-.327.487-.003.005-.003.01-.005.016-.07.172-.106.356-.108.54l-.002.014c0 .183.036.365.102.538.004.01.005.022.01.032.07.175.176.34.317.484 0 0 0 .004.002.006l.006.005.003.002c1.807 1.83 3.556 3.32 5.26 4.497 3.135 2.163 6.113 3.236 8.994 3.236.388 0 .777-.02 1.162-.06 4.406-.443 7.988-3.365 11.202-7.236.404-.486.803-.986 1.196-1.5.375-.49.747-.99 1.115-1.5 1.36-1.89 2.67-3.892 3.967-5.88 1.393-2.13 2.762-4.225 4.147-6.12.378-.517.757-1.016 1.14-1.5.412-.524.827-1.023 1.246-1.5 2.415-2.75 4.942-4.645 7.78-4.852 2.936-.213 6.142 1.382 9.747 4.852.485.467.977.965 1.476 1.5.3.32.6.65.903.993.402.456 1.02.6 1.566.433.02-.006.04-.01.06-.018.164-.06.32-.148.46-.266.01-.008.022-.01.03-.018.013-.01.02-.022.032-.033.04-.036.075-.077.11-.118.03-.034.06-.067.085-.104.03-.04.053-.085.078-.13.023-.04.048-.08.067-.122.02-.045.034-.09.05-.137.015-.047.032-.092.043-.14.01-.045.015-.09.022-.136.007-.053.014-.105.016-.16 0-.044-.002-.09-.005-.133a1.296 1.296 0 0 0-.048-.298 1.39 1.39 0 0 0-.043-.142c-.018-.046-.04-.09-.062-.135-.02-.042-.042-.084-.067-.124zM249 22.5c0-.827-.673-1.5-1.5-1.5h-60c-.827 0-1.5.673-1.5 1.5v39c0 .827.673 1.5 1.5 1.5h60c.827 0 1.5-.673 1.5-1.5v-39zm3 0v39c0 2.48-2.02 4.5-4.5 4.5h-60c-2.48 0-4.5-2.02-4.5-4.5v-39c0-2.48 2.02-4.5 4.5-4.5h60c2.48 0 4.5 2.02 4.5 4.5zM156.797 33c-.188.464-.297.97-.297 1.5s.11 1.036.297 1.5a4.004 4.004 0 0 0 3.703 2.5 4.004 4.004 0 0 0 3.703-2.5c.188-.464.297-.97.297-1.5s-.11-1.036-.297-1.5a3.97 3.97 0 0 0-.56-.944l3.156-5.466a1.5 1.5 0 0 0-2.6-1.5l-3.154 5.465c-.18-.025-.36-.055-.546-.055a4.004 4.004 0 0 0-3.703 2.5zm5.953-23.25c.664 0 1.254-.293 1.666-.75.36-.398.584-.92.584-1.5a2.25 2.25 0 0 0-4.5 0c0 .58.225 1.102.584 1.5.412.457 1.002.75 1.666.75zm-6.75 0c.664 0 1.254-.293 1.666-.75.36-.398.584-.92.584-1.5a2.25 2.25 0 0 0-4.5 0c0 .58.225 1.102.584 1.5.412.457 1.002.75 1.666.75zm-6.943-.02c.065.006.127.02.193.02.634 0 1.204-.264 1.613-.686.393-.405.637-.955.637-1.564a2.25 2.25 0 0 0-4.5 0 2.24 2.24 0 0 0 2.057 2.23zM59 48h65a1.5 1.5 0 0 0 0-3H59a1.5 1.5 0 0 0 0 3zm29.193 93.23l-.15.327a46.77 46.77 0 0 0-.81 1.922c-.068.174-.134.35-.2.527-.232.61-.455 1.22-.66 1.838-.08.236-.15.476-.225.714-.18.574-.36 1.15-.517 1.732-.09.334-.166.674-.25 1.012-.124.5-.254 1-.36 1.506a46.01 46.01 0 0 0-.478 2.586c-.006.042-.01.083-.017.125a44.917 44.917 0 0 0-.306 2.517 46.283 46.283 0 0 0-.13 1.678c-.01.196-.025.39-.034.588-.01.232-.02.465-.026.697h3c.006-.186.014-.37.022-.557.01-.183.022-.364.033-.547.03-.526.07-1.05.12-1.573.016-.164.03-.327.05-.49.065-.625.144-1.247.236-1.865.007-.037.01-.075.017-.113 1.07-7.014 3.837-13.632 8.163-19.417l6.915-9.22 2.928-3.904L138 78v-5l-44.73 59.64a46.65 46.65 0 0 0-5.077 8.59zM174 102v57H177V93h-3v9zm19.5-27a2.99 2.99 0 0 0-1.5-2.583 2.968 2.968 0 0 0-1.5-.417c-1.654 0-3 1.346-3 3s1.346 3 3 3c.55 0 1.057-.16 1.5-.417A2.993 2.993 0 0 0 193.5 75zm3 0c0 2.79-1.916 5.134-4.5 5.803-.48.124-.98.197-1.5.197-3.31 0-6-2.69-6-6s2.69-6 6-6c.52 0 1.02.073 1.5.197 2.584.67 4.5 3.013 4.5 5.803zM24.75 48.75c.664 0 1.254-.293 1.666-.75.36-.398.584-.92.584-1.5a2.25 2.25 0 0 0-4.5 0c0 .58.225 1.102.584 1.5.412.457 1.002.75 1.666.75zm-6.75 0c.664 0 1.254-.293 1.666-.75.36-.398.584-.92.584-1.5a2.25 2.25 0 0 0-4.5 0c0 .58.225 1.102.584 1.5.412.457 1.002.75 1.666.75zm-6.943-.02c.065.006.127.02.193.02.634 0 1.204-.264 1.613-.686.393-.405.637-.955.637-1.564a2.25 2.25 0 0 0-4.5 0 2.24 2.24 0 0 0 2.057 2.23zM60 120a2.993 2.993 0 0 0-1.5-2.583A2.968 2.968 0 0 0 57 117c-.55 0-1.057.16-1.5.417A2.993 2.993 0 0 0 54 120a2.99 2.99 0 0 0 1.5 2.583c.443.258.95.417 1.5.417s1.057-.16 1.5-.417A2.99 2.99 0 0 0 60 120zm3 0c0 2.79-1.916 5.134-4.5 5.803-.48.124-.98.197-1.5.197s-1.02-.073-1.5-.197c-2.584-.67-4.5-3.013-4.5-5.803s1.916-5.134 4.5-5.803c.48-.124.98-.197 1.5-.197s1.02.073 1.5.197c2.584.67 4.5 3.013 4.5 5.803zm11 11a2.993 2.993 0 0 0-1.5-2.583A2.968 2.968 0 0 0 71 128c-.55 0-1.057.16-1.5.417A2.993 2.993 0 0 0 68 131a2.99 2.99 0 0 0 1.5 2.583c.443.258.95.417 1.5.417s1.057-.16 1.5-.417A2.99 2.99 0 0 0 74 131zm3 0c0 2.79-1.916 5.134-4.5 5.803-.48.124-.98.197-1.5.197s-1.02-.073-1.5-.197c-2.584-.67-4.5-3.013-4.5-5.803s1.916-5.134 4.5-5.803c.48-.124.98-.197 1.5-.197s1.02.073 1.5.197c2.584.67 4.5 3.013 4.5 5.803zm-31 0a2.993 2.993 0 0 0-1.5-2.583A2.968 2.968 0 0 0 43 128c-.55 0-1.057.16-1.5.417A2.993 2.993 0 0 0 40 131a2.99 2.99 0 0 0 1.5 2.583c.443.258.95.417 1.5.417s1.057-.16 1.5-.417A2.99 2.99 0 0 0 46 131zm3 0c0 2.79-1.916 5.134-4.5 5.803-.48.124-.98.197-1.5.197s-1.02-.073-1.5-.197c-2.584-.67-4.5-3.013-4.5-5.803s1.916-5.134 4.5-5.803c.48-.124.98-.197 1.5-.197s1.02.073 1.5.197c2.584.67 4.5 3.013 4.5 5.803zm-17-11a2.993 2.993 0 0 0-1.5-2.583A2.968 2.968 0 0 0 29 117c-.55 0-1.057.16-1.5.417A2.993 2.993 0 0 0 26 120a2.99 2.99 0 0 0 1.5 2.583c.443.258.95.417 1.5.417s1.057-.16 1.5-.417A2.99 2.99 0 0 0 32 120zm3 0c0 2.79-1.916 5.134-4.5 5.803-.48.124-.98.197-1.5.197s-1.02-.073-1.5-.197c-2.584-.67-4.5-3.013-4.5-5.803s1.916-5.134 4.5-5.803c.48-.124.98-.197 1.5-.197s1.02.073 1.5.197c2.584.67 4.5 3.013 4.5 5.803zm-17 11a2.993 2.993 0 0 0-1.5-2.583A2.968 2.968 0 0 0 15 128c-.55 0-1.057.16-1.5.417A2.993 2.993 0 0 0 12 131a2.99 2.99 0 0 0 1.5 2.583c.443.258.95.417 1.5.417s1.057-.16 1.5-.417A2.99 2.99 0 0 0 18 131zm3 0c0 2.79-1.916 5.134-4.5 5.803-.48.124-.98.197-1.5.197s-1.02-.073-1.5-.197C10.916 136.133 9 133.79 9 131s1.916-5.134 4.5-5.803c.48-.124.98-.197 1.5-.197s1.02.073 1.5.197c2.584.67 4.5 3.013 4.5 5.803zm28.94-59.44a1.495 1.495 0 0 0 2.122 0 1.502 1.502 0 0 0 0-2.12l-9-9a1.502 1.502 0 0 0-2.123 0 1.502 1.502 0 0 0 0 2.12l9 9zm-13.63-8.87a1.502 1.502 0 0 0-2.12 0 1.502 1.502 0 0 0 0 2.12l13.5 13.5a1.495 1.495 0 0 0 2.122 0 1.502 1.502 0 0 0 0-2.12l-13.5-13.5zM25.06 80.56a1.502 1.502 0 0 0 0-2.12l-9-9a1.502 1.502 0 0 0-2.12 0 1.502 1.502 0 0 0 0 2.12l9 9a1.495 1.495 0 0 0 2.122 0zm6.88-9l9 9a1.495 1.495 0 0 0 2.122 0 1.502 1.502 0 0 0 0-2.12l-9-9-9-9a1.502 1.502 0 0 0-2.123 0 1.502 1.502 0 0 0 0 2.12l9 9zm-2.25 6.75a1.495 1.495 0 0 0 2.122 0 1.502 1.502 0 0 0 0-2.12l-13.5-13.5a1.502 1.502 0 0 0-2.123 0 1.502 1.502 0 0 0 0 2.12l13.5 13.5zm49.93-3.12c-.665 0-1.334-.023-2.008-.07C65.064 74.256 54.918 65.475 51.71 54h3.132c3.116 9.89 12.024 17.374 22.976 18.128 12.202.836 23.036-6.94 26.547-18.128h3.13C104.064 66.335 92.72 75.19 79.62 75.19z" fill="#73559B"/></g></svg>