<?xml version="1.0" encoding="UTF-8" standalone="no"?>
<svg width="270px" height="171px" viewBox="0 0 270 171" version="1.1" xmlns="http://www.w3.org/2000/svg" xmlns:xlink="http://www.w3.org/1999/xlink" xmlns:sketch="http://www.bohemiancoding.com/sketch/ns">
    <!-- Generator: Sketch 3.5.1 (25234) - http://www.bohemiancoding.com/sketch -->
    <title>Group 5</title>
    <desc>Created with Sketch.</desc>
    <defs></defs>
    <g id="Page-1" stroke="none" stroke-width="1" fill="none" fill-rule="evenodd" sketch:type="MSPage">
        <g id="Group-5" sketch:type="MSLayerGroup">
            <path d="M265.5,9 L261,9 L261,4.5 C261,2.019 258.981,0 256.5,0 L142.5,0 C140.019,0 138,2.019 138,4.5 L138,39 L4.5,39 C2.019,39 0,41.019 0,43.5 L0,52.5 L0,157.5 C0,159.981 2.019,162 4.5,162 L9,162 L9,166.5 C9,168.981 11.019,171 13.5,171 L187.5,171 C189.981,171 192,168.981 192,166.5 L192,102 L265.5,102 C267.981,102 270,99.981 270,97.5 L270,13.5 C270,11.019 267.981,9 265.5,9" id="Fill-1" fill="#FFFFFF" sketch:type="MSShapeGroup"></path>
            <path d="M183,102 L192,102 L192,93 L183,93 L183,102 Z" id="Fill-3" fill="#CDBAE1" sketch:type="MSShapeGroup"></path>
            <path d="M151.5,102 L174,102 L174,93 L147,93 L147,97.5 C147,99.981 149.019,102 151.5,102 L151.5,102 Z M180,93 L177,93 L177,102 L180,102 L180,93 Z M265.5,9 L261,9 L261,88.5 C261,90.981 258.981,93 256.5,93 L192,93 L192,102 L265.5,102 C267.981,102 270,99.981 270,97.5 L270,13.5 C270,11.019 267.981,9 265.5,9 L265.5,9 Z M183,102 L192,102 L192,166.5 C192,168.981 189.981,171 187.5,171 L13.5,171 C11.019,171 9,168.981 9,166.5 L9,162 L74.168,162 L93.831,162 L118.5,162 L142.5,162 L178.5,162 C180.981,162 183,159.981 183,157.5 L183,102 Z" id="Fill-5" fill="#E1D0F3" sketch:type="MSShapeGroup"></path>
            <path d="M160.5,84 C153.056,84 147,77.944 147,70.5 C147,67.336 148.102,64.429 149.932,62.125 C149.857,62.219 149.772,62.303 149.699,62.4 L149.7,62.4 L147,66 L144.027,69.964 C144.021,70.144 144,70.319 144,70.5 C144,74.018 145.116,77.276 147,79.957 C149.988,84.209 154.92,87 160.5,87 C166.08,87 171.012,84.209 174,79.957 L174,70.5 C174,77.944 167.944,84 160.5,84 L160.5,84 Z M130.5,114 C121.307,114 112.736,116.692 105.513,121.314 L102.585,125.218 L95.67,134.438 C94.929,135.429 94.251,136.453 93.602,137.49 C101.296,125.196 114.958,117 130.5,117 C153.983,117 173.167,135.707 173.962,159 L174,159 L174,148.96 L174,144.088 C167.351,126.524 150.364,114 130.5,114 L130.5,114 Z M69.5,136.803 L69.5,151.5 C69.5,152.328 70.171,153 71,153 C71.829,153 72.5,152.328 72.5,151.5 L72.5,136.803 C72.02,136.927 71.519,137 71,137 C70.481,137 69.98,136.927 69.5,136.803 L69.5,136.803 Z M71,87 C70.171,87 69.5,87.672 69.5,88.5 L69.5,125.197 C69.98,125.073 70.481,125 71,125 C71.519,125 72.02,125.073 72.5,125.197 L72.5,88.5 C72.5,87.672 71.829,87 71,87 L71,87 Z M147.32,60.615 L148.928,61.821 L147.321,60.614 L147.32,60.615 Z M87.038,159 C87.044,158.815 87.044,158.628 87.052,158.443 C87.044,158.629 87.036,158.814 87.03,159 L87.038,159 Z M130.5,147 C123.564,147 117.838,152.26 117.088,159 L118.604,159 L120.12,159 C120.852,153.92 125.221,150 130.5,150 C135.779,150 140.148,153.92 140.88,159 L142.396,159 L143.912,159 C143.162,152.26 137.436,147 130.5,147 L130.5,147 Z M231,84 L222,84 C221.171,84 220.5,84.672 220.5,85.5 C220.5,86.328 221.171,87 222,87 L231,87 C231.829,87 232.5,86.328 232.5,85.5 C232.5,84.672 231.829,84 231,84 L231,84 Z M156,70.5 C156,72.981 158.019,75 160.5,75 C162.981,75 165,72.981 165,70.5 C165,68.019 162.981,66 160.5,66 C158.019,66 156,68.019 156,70.5 L156,70.5 Z M160.5,63 C164.636,63 168,66.364 168,70.5 C168,74.636 164.636,78 160.5,78 C156.364,78 153,74.636 153,70.5 C153,66.364 156.364,63 160.5,63 L160.5,63 Z M195,84 L192,84 L186,84 C185.171,84 184.5,84.672 184.5,85.5 C184.5,86.328 185.171,87 186,87 L192,87 L195,87 C195.829,87 196.5,86.328 196.5,85.5 C196.5,84.672 195.829,84 195,84 L195,84 Z M249,84 L240,84 C239.171,84 238.5,84.672 238.5,85.5 C238.5,86.328 239.171,87 240,87 L249,87 C249.829,87 250.5,86.328 250.5,85.5 C250.5,84.672 249.829,84 249,84 L249,84 Z M164.203,33 L173.917,33 C173.168,26.26 167.437,21 160.5,21 C153.563,21 147.832,26.26 147.083,33 L156.797,33 C156.609,33.464 156.5,33.969 156.5,34.5 C156.5,35.031 156.609,35.536 156.797,36 L147.083,36 C147.199,37.042 147.446,38.042 147.786,39 C147.969,39.515 148.177,40.016 148.418,40.5 C148.678,41.021 148.97,41.521 149.292,42 C151.717,45.612 155.832,48 160.5,48 C165.168,48 169.283,45.612 171.708,42 C172.03,41.521 172.322,41.021 172.582,40.5 C172.823,40.016 173.031,39.515 173.214,39 C173.554,38.042 173.801,37.042 173.917,36 L164.203,36 C164.391,35.536 164.5,35.031 164.5,34.5 C164.5,33.969 164.391,33.464 164.203,33 L164.203,33 Z M176.924,33 L177,33 L177,34.5 L177,36 L176.924,36 C176.831,37.031 176.635,38.032 176.36,39 C176.215,39.511 176.046,40.011 175.854,40.5 C175.653,41.013 175.428,41.513 175.178,42 C173.947,44.4 172.15,46.459 169.957,48 C167.276,49.884 164.018,51 160.5,51 C156.982,51 153.724,49.884 151.043,48 C149.472,46.896 148.104,45.528 147,43.957 C146.563,43.334 146.171,42.681 145.822,42 C145.572,41.513 145.347,41.013 145.146,40.5 C144.954,40.011 144.785,39.511 144.64,39 C144.365,38.032 144.169,37.031 144.076,36 L144,36 L144,34.5 L144,33 L144.076,33 C144.343,30.057 145.387,27.338 147,25.043 C149.988,20.791 154.92,18 160.5,18 C169.092,18 176.163,24.604 176.924,33 L176.924,33 Z M158.696,54.104 C159.291,54.04 159.892,54 160.5,54 C159.89,54 159.289,54.039 158.696,54.104 L158.696,54.104 Z M153.932,58.716 C152.945,59.267 152.029,59.944 151.199,60.74 C152.02,59.957 152.935,59.273 153.932,58.716 L153.932,58.716 Z M213,84 L204,84 C203.171,84 202.5,84.672 202.5,85.5 C202.5,86.328 203.171,87 204,87 L213,87 C213.829,87 214.5,86.328 214.5,85.5 C214.5,84.672 213.829,84 213,84 L213,84 Z M187.65,48.015 C187.515,48.029 187.384,48.057 187.262,48.104 C187.404,48.049 187.553,48.03 187.703,48.021 C187.844,48.011 187.981,48.032 188.12,48.062 C188.393,48.123 188.656,48.232 188.867,48.446 C189.23,48.814 189.589,49.162 189.945,49.5 C190.511,50.037 191.069,50.539 191.618,51 L191.724,51 L209.329,51 C209.792,50.527 210.247,50.026 210.698,49.5 C211.111,49.017 211.521,48.52 211.926,48 L187.8,48 C187.748,48 187.7,48.01 187.65,48.015 L187.65,48.015 Z M13.5,136.803 L13.5,151.5 C13.5,152.328 14.171,153 15,153 C15.829,153 16.5,152.328 16.5,151.5 L16.5,136.803 C16.02,136.927 15.519,137 15,137 C14.481,137 13.98,136.927 13.5,136.803 L13.5,136.803 Z M186.3,49.494 L186.3,49.5 C186.3,49.688 186.338,49.866 186.402,50.032 C186.336,49.859 186.3,49.677 186.3,49.494 L186.3,49.494 Z M187.8,36 L220.113,36 C220.465,35.492 220.82,34.992 221.179,34.5 C221.55,33.989 221.926,33.488 222.306,33 L187.8,33 C186.971,33 186.3,33.672 186.3,34.5 C186.3,35.328 186.971,36 187.8,36 L187.8,36 Z M57,87 C56.171,87 55.5,87.672 55.5,88.5 L55.5,114.197 C55.98,114.073 56.481,114 57,114 C57.519,114 58.02,114.073 58.5,114.197 L58.5,88.5 C58.5,87.672 57.829,87 57,87 L57,87 Z M215.669,48 C215.301,48.51 214.929,49.009 214.554,49.5 C214.161,50.014 213.762,50.514 213.358,51 L247.2,51 C248.029,51 248.7,50.328 248.7,49.5 C248.7,48.672 248.029,48 247.2,48 L215.669,48 Z M247.642,35.926 C247.096,36.094 246.478,35.949 246.076,35.493 C245.772,35.149 245.472,34.819 245.173,34.5 C244.674,33.965 244.182,33.467 243.697,33 L226.17,33 C225.751,33.477 225.336,33.976 224.923,34.5 C224.541,34.984 224.162,35.483 223.784,36 L247.2,36 C247.355,36 247.502,35.97 247.642,35.926 L247.642,35.926 Z M248.7,34.5 C248.7,34.469 248.693,34.441 248.691,34.411 C248.694,34.455 248.697,34.5 248.696,34.544 C248.696,34.529 248.7,34.515 248.7,34.5 L248.7,34.5 Z M29,87 C28.171,87 27.5,87.672 27.5,88.5 L27.5,114.197 C27.98,114.073 28.481,114 29,114 C29.519,114 30.02,114.073 30.5,114.197 L30.5,88.5 C30.5,87.672 29.829,87 29,87 L29,87 Z M41.5,136.803 L41.5,151.5 C41.5,152.328 42.171,153 43,153 C43.829,153 44.5,152.328 44.5,151.5 L44.5,136.803 C44.02,136.927 43.519,137 43,137 C42.481,137 41.98,136.927 41.5,136.803 L41.5,136.803 Z M43,87 C42.171,87 41.5,87.672 41.5,88.5 L41.5,125.197 C41.98,125.073 42.481,125 43,125 C43.519,125 44.02,125.073 44.5,125.197 L44.5,88.5 C44.5,87.672 43.829,87 43,87 L43,87 Z M55.5,125.803 L55.5,151.5 C55.5,152.328 56.171,153 57,153 C57.829,153 58.5,152.328 58.5,151.5 L58.5,125.803 C58.02,125.927 57.519,126 57,126 C56.481,126 55.98,125.927 55.5,125.803 L55.5,125.803 Z M15,87 C14.171,87 13.5,87.672 13.5,88.5 L13.5,125.197 C13.98,125.073 14.481,125 15,125 C15.519,125 16.02,125.073 16.5,125.197 L16.5,88.5 C16.5,87.672 15.829,87 15,87 L15,87 Z M29,126 C29.519,126 30.02,125.927 30.5,125.803 L30.5,151.5 C30.5,152.328 29.829,153 29,153 C28.171,153 27.5,152.328 27.5,151.5 L27.5,125.803 C27.98,125.927 28.481,126 29,126 L29,126 Z" id="Fill-6" fill="#C2A1E7" sketch:type="MSShapeGroup"></path>
            <path d="M258,9 L258,12 L147.276,12 L141,12 L141,4.5 C141,3.673 141.673,3 142.5,3 L256.5,3 C257.327,3 258,3.673 258,4.5 L258,9 Z M258,88.5 C258,89.327 257.327,90 256.5,90 L192,90 L183,90 L181.5,90 L180,90 L177,90 L174,90 L147,90 L142.5,90 C141.673,90 141,89.327 141,88.5 L141,74 L141,68.999 L141,54 L141,52.5 L141,51 L141,48 L141,42 L141,40.5 L141,39 L141,15 L147,15 L258,15 L258,88.5 Z M180,102 L180,157.5 C180,158.327 179.327,159 178.5,159 L177,159 L176.962,159 L175.462,159 L174,159 L173.962,159 L143.912,159 L142.396,159 L140.88,159 L120.12,159 L118.604,159 L117.088,159 L93.831,159 L87.038,159 L87.03,159 L85.538,159 L84.038,159 L84.03,159 L74.168,159 L9,159 L4.5,159 C3.673,159 3,158.327 3,157.5 L3,54 L9,54 L51.71,54 L54.842,54 L104.365,54 L107.496,54 L138,54 L138,72.999 L138,78 L138,88.5 C138,90.981 140.019,93 142.5,93 L147,93 L174,93 L177,93 L180,93 L180,102 Z M3,43.5 C3,42.673 3.673,42 4.5,42 L138,42 L138,48 L138,51 L108.164,51 L105.112,51 L54.084,51 L51.044,51 L9.276,51 L3,51 L3,43.5 Z M256.5,0 L142.5,0 C140.019,0 138,2.019 138,4.5 L138,39 L4.5,39 C2.019,39 0,41.019 0,43.5 L0,52.5 L0,157.5 C0,159.981 2.019,162 4.5,162 L9,162 L74.168,162 L93.831,162 L118.5,162 L142.5,162 L178.5,162 C180.981,162 183,159.981 183,157.5 L183,102 L183,93 L192,93 L256.5,93 C258.981,93 261,90.981 261,88.5 L261,9 L261,4.5 C261,2.019 258.981,0 256.5,0 L256.5,0 Z" id="Fill-7" fill="#472A70" sketch:type="MSShapeGroup"></path>
            <path d="M160.5,54 C159.892,54 159.291,54.04 158.696,54.104 C158.444,54.131 158.197,54.179 157.948,54.218 C157.623,54.268 157.298,54.319 156.978,54.388 C156.656,54.458 156.34,54.544 156.026,54.633 C155.801,54.696 155.577,54.76 155.355,54.833 C154.995,54.951 154.641,55.08 154.292,55.222 C154.14,55.284 153.99,55.351 153.839,55.417 C153.453,55.588 153.07,55.767 152.7,55.966 C152.625,56.006 152.554,56.052 152.48,56.093 C151.262,56.772 150.132,57.608 149.11,58.592 C149.004,58.693 148.892,58.788 148.788,58.894 C148.551,59.132 148.331,59.387 148.109,59.641 C147.933,59.842 147.757,60.044 147.589,60.256 C147.496,60.374 147.391,60.477 147.3,60.598 L147.321,60.614 L148.928,61.821 L147.32,60.615 L147.3,60.6 L147,61 L141,68.999 L141,74 L144.027,69.964 L147,66 L149.7,62.4 L149.699,62.4 C149.772,62.303 149.857,62.219 149.932,62.125 C150.073,61.947 150.22,61.776 150.369,61.607 C150.547,61.403 150.725,61.199 150.914,61.008 C151.006,60.915 151.104,60.831 151.199,60.74 C152.029,59.944 152.945,59.267 153.932,58.716 C153.995,58.681 154.056,58.642 154.12,58.608 C154.423,58.445 154.732,58.299 155.047,58.161 C155.172,58.105 155.297,58.05 155.424,57.999 C155.709,57.884 155.996,57.777 156.289,57.682 C156.471,57.622 156.656,57.569 156.841,57.518 C157.098,57.446 157.355,57.374 157.618,57.317 C157.88,57.261 158.146,57.219 158.413,57.178 C158.617,57.147 158.818,57.107 159.024,57.085 C159.511,57.033 160.002,57 160.5,57 C167.944,57 174,63.056 174,70.5 L174,79.957 L174,90 L177,90 L177,70.5 C177,61.402 169.598,54 160.5,54 L160.5,54 Z M94.695,105.184 C101.422,105.657 107.271,100.551 107.734,93.824 L107.734,93.823 C107.959,90.564 106.901,87.414 104.755,84.951 C102.61,82.487 99.634,81.008 96.375,80.783 C96.091,80.764 95.808,80.754 95.527,80.754 C89.163,80.754 83.778,85.7 83.335,92.144 C82.872,98.87 87.968,104.72 94.695,105.184 L94.695,105.184 Z M80.342,91.938 C80.919,83.56 88.204,77.213 96.581,77.791 C100.639,78.07 104.345,79.913 107.018,82.98 C109.689,86.048 111.007,89.972 110.728,94.03 C110.175,102.053 103.47,108.213 95.545,108.213 C95.195,108.213 94.843,108.2 94.489,108.176 C86.112,107.599 79.766,100.313 80.342,91.938 L80.342,91.938 Z M118.546,64.457 C118.389,64.446 118.233,64.441 118.079,64.441 C114.572,64.441 111.606,67.167 111.362,70.717 C111.106,74.422 113.914,77.645 117.62,77.9 C121.34,78.151 124.549,75.348 124.804,71.642 C125.06,67.936 122.252,64.713 118.546,64.457 L118.546,64.457 Z M127.797,71.848 L127.797,71.849 C127.444,76.978 123.157,80.916 118.09,80.916 C117.866,80.916 117.641,80.908 117.414,80.893 C112.058,80.524 108,75.866 108.369,70.51 C108.738,65.154 113.387,61.096 118.752,61.465 C124.108,61.833 128.166,66.491 127.797,71.848 L127.797,71.848 Z M247.5,75 C247.5,73.346 246.154,72 244.5,72 C242.846,72 241.5,73.346 241.5,75 C241.5,76.654 242.846,78 244.5,78 C246.154,78 247.5,76.654 247.5,75 L247.5,75 Z M250.5,75 C250.5,78.309 247.809,81 244.5,81 C241.191,81 238.5,78.309 238.5,75 C238.5,71.691 241.191,69 244.5,69 C247.809,69 250.5,71.691 250.5,75 L250.5,75 Z M229.5,75 C229.5,73.346 228.154,72 226.5,72 C224.846,72 223.5,73.346 223.5,75 C223.5,76.654 224.846,78 226.5,78 C228.154,78 229.5,76.654 229.5,75 L229.5,75 Z M232.5,75 C232.5,78.309 229.809,81 226.5,81 C223.191,81 220.5,78.309 220.5,75 C220.5,71.691 223.191,69 226.5,69 C229.809,69 232.5,71.691 232.5,75 L232.5,75 Z M211.5,75 C211.5,73.346 210.154,72 208.5,72 C206.846,72 205.5,73.346 205.5,75 C205.5,76.654 206.846,78 208.5,78 C210.154,78 211.5,76.654 211.5,75 L211.5,75 Z M214.5,75 C214.5,78.309 211.809,81 208.5,81 C205.191,81 202.5,78.309 202.5,75 C202.5,71.691 205.191,69 208.5,69 C211.809,69 214.5,71.691 214.5,75 L214.5,75 Z M248.471,33.711 C248.443,33.666 248.41,33.622 248.376,33.579 C248.358,33.556 248.344,33.53 248.324,33.507 C243.067,27.558 238.292,24.835 233.733,25.156 C229.248,25.482 225.608,28.758 222.306,33 C221.926,33.488 221.55,33.989 221.179,34.5 C220.82,34.992 220.465,35.492 220.113,36 C219.1,37.463 218.109,38.976 217.125,40.481 C215.434,43.072 213.72,45.695 211.926,48 C211.521,48.52 211.111,49.017 210.698,49.5 C210.247,50.026 209.792,50.527 209.329,51 C207.036,53.344 204.582,54.979 201.855,55.253 C198.798,55.561 195.471,54.199 191.759,51.115 C191.712,51.076 191.666,51.04 191.618,51 C191.069,50.539 190.511,50.037 189.945,49.5 C189.589,49.162 189.23,48.814 188.867,48.446 C188.656,48.232 188.393,48.123 188.12,48.063 C187.982,48.043 187.844,48.027 187.703,48.021 C187.553,48.03 187.404,48.049 187.262,48.104 C187.254,48.106 187.245,48.108 187.237,48.111 C187.062,48.182 186.898,48.288 186.754,48.427 C186.752,48.43 186.748,48.43 186.746,48.433 L186.743,48.436 C186.599,48.58 186.489,48.746 186.416,48.923 C186.413,48.928 186.413,48.934 186.411,48.939 C186.341,49.112 186.304,49.296 186.302,49.48 C186.302,49.485 186.3,49.489 186.3,49.494 C186.3,49.677 186.336,49.859 186.402,50.032 C186.406,50.042 186.407,50.054 186.412,50.064 C186.483,50.239 186.588,50.404 186.729,50.548 C186.73,50.549 186.731,50.552 186.732,50.554 C186.734,50.556 186.736,50.557 186.738,50.559 L186.741,50.562 C188.547,52.391 190.296,53.883 192,55.059 C195.135,57.223 198.113,58.296 200.994,58.296 C201.382,58.296 201.771,58.276 202.156,58.237 C206.562,57.793 210.144,54.871 213.358,51 C213.762,50.514 214.161,50.014 214.554,49.5 C214.929,49.009 215.301,48.51 215.669,48 C217.029,46.11 218.34,44.108 219.637,42.121 C221.03,39.989 222.399,37.895 223.784,36 C224.162,35.483 224.541,34.984 224.923,34.5 C225.336,33.976 225.751,33.477 226.17,33 C228.585,30.251 231.112,28.355 233.951,28.148 C236.886,27.935 240.092,29.53 243.697,33 C244.182,33.467 244.674,33.965 245.173,34.5 C245.472,34.819 245.772,35.149 246.076,35.493 C246.478,35.949 247.096,36.094 247.642,35.926 C247.662,35.92 247.682,35.915 247.702,35.908 C247.866,35.849 248.022,35.76 248.162,35.642 C248.172,35.634 248.184,35.632 248.193,35.624 C248.205,35.614 248.213,35.602 248.224,35.591 C248.264,35.554 248.299,35.513 248.334,35.472 C248.363,35.438 248.393,35.405 248.419,35.368 C248.449,35.327 248.473,35.283 248.498,35.239 C248.521,35.198 248.546,35.159 248.565,35.116 C248.585,35.071 248.599,35.025 248.615,34.979 C248.63,34.933 248.647,34.888 248.658,34.84 C248.668,34.795 248.673,34.75 248.68,34.704 C248.687,34.651 248.694,34.599 248.696,34.544 C248.697,34.5 248.694,34.455 248.691,34.411 C248.688,34.356 248.684,34.303 248.675,34.25 C248.667,34.204 248.656,34.158 248.643,34.113 C248.63,34.064 248.617,34.017 248.599,33.97 C248.582,33.924 248.56,33.88 248.538,33.835 C248.517,33.793 248.496,33.751 248.471,33.711 L248.471,33.711 Z M249,22.5 C249,21.673 248.327,21 247.5,21 L187.5,21 C186.673,21 186,21.673 186,22.5 L186,48 L186,61.5 C186,62.327 186.673,63 187.5,63 L192,63 L247.5,63 C248.327,63 249,62.327 249,61.5 L249,22.5 Z M252,22.5 L252,61.5 C252,63.981 249.981,66 247.5,66 L192,66 L187.5,66 C185.019,66 183,63.981 183,61.5 L183,52.5 L183,48 L183,43.5 L183,22.5 C183,20.019 185.019,18 187.5,18 L247.5,18 C249.981,18 252,20.019 252,22.5 L252,22.5 Z M156.797,33 C156.609,33.464 156.5,33.969 156.5,34.5 C156.5,35.031 156.609,35.536 156.797,36 C157.393,37.463 158.825,38.5 160.5,38.5 C162.175,38.5 163.607,37.463 164.203,36 C164.391,35.536 164.5,35.031 164.5,34.5 C164.5,33.969 164.391,33.464 164.203,33 C164.063,32.656 163.868,32.344 163.643,32.056 L166.799,26.59 C167.213,25.872 166.967,24.955 166.25,24.541 C165.533,24.127 164.616,24.372 164.201,25.09 L161.046,30.555 C160.866,30.53 160.687,30.5 160.5,30.5 C158.825,30.5 157.393,31.537 156.797,33 L156.797,33 Z M162.75,9.75 C163.414,9.75 164.004,9.457 164.416,9 C164.775,8.602 165,8.079 165,7.5 C165,6.257 163.993,5.25 162.75,5.25 C161.507,5.25 160.5,6.257 160.5,7.5 C160.5,8.079 160.725,8.602 161.084,9 C161.496,9.457 162.086,9.75 162.75,9.75 L162.75,9.75 Z M156,9.75 C156.664,9.75 157.254,9.457 157.666,9 C158.025,8.602 158.25,8.079 158.25,7.5 C158.25,6.257 157.243,5.25 156,5.25 C154.757,5.25 153.75,6.257 153.75,7.5 C153.75,8.079 153.975,8.602 154.334,9 C154.746,9.457 155.336,9.75 156,9.75 L156,9.75 Z M149.057,9.73 C149.122,9.736 149.184,9.75 149.25,9.75 C149.884,9.75 150.454,9.486 150.863,9.064 C151.256,8.659 151.5,8.109 151.5,7.5 C151.5,6.257 150.493,5.25 149.25,5.25 C148.007,5.25 147,6.257 147,7.5 C147,8.677 147.906,9.631 149.057,9.73 L149.057,9.73 Z M59,48 L105.5,48 L108.484,48 L124,48 C124.829,48 125.5,47.328 125.5,46.5 C125.5,45.672 124.829,45 124,45 L59,45 C58.171,45 57.5,45.672 57.5,46.5 C57.5,47.328 58.171,48 59,48 L59,48 Z M88.193,141.229 C88.143,141.338 88.092,141.447 88.043,141.557 C87.759,142.192 87.489,142.833 87.234,143.479 C87.165,143.654 87.099,143.831 87.032,144.007 C86.801,144.616 86.578,145.227 86.373,145.845 C86.294,146.081 86.223,146.321 86.148,146.559 C85.968,147.134 85.789,147.709 85.631,148.292 C85.54,148.626 85.464,148.966 85.38,149.304 C85.256,149.805 85.126,150.304 85.019,150.81 C84.837,151.664 84.676,152.526 84.542,153.396 C84.536,153.438 84.531,153.479 84.525,153.521 C84.425,154.179 84.343,154.842 84.272,155.508 C84.253,155.685 84.236,155.86 84.219,156.037 C84.166,156.593 84.124,157.153 84.091,157.715 C84.079,157.911 84.065,158.106 84.056,158.303 C84.045,158.535 84.037,158.768 84.03,159 L84.038,159 L85.538,159 L87.03,159 C87.036,158.814 87.044,158.629 87.052,158.443 C87.061,158.26 87.074,158.079 87.085,157.896 C87.116,157.37 87.155,156.846 87.205,156.323 C87.221,156.159 87.236,155.996 87.254,155.832 C87.32,155.208 87.399,154.586 87.491,153.968 C87.497,153.931 87.501,153.893 87.507,153.855 C88.578,146.841 91.344,140.223 95.67,134.438 L102.585,125.218 L105.513,121.314 L138,78 L138,72.999 L93.269,132.64 C91.247,135.343 89.565,138.224 88.193,141.229 L88.193,141.229 Z M174,102 L174,144.088 L174,148.96 L174,159 L175.462,159 L176.962,159 L177,159 L177,102 L177,93 L174,93 L174,102 Z M193.5,75 C193.5,73.895 192.892,72.937 192,72.417 C191.557,72.159 191.049,72 190.5,72 C188.846,72 187.5,73.346 187.5,75 C187.5,76.654 188.846,78 190.5,78 C191.049,78 191.557,77.841 192,77.583 C192.892,77.062 193.5,76.105 193.5,75 L193.5,75 Z M196.5,75 C196.5,77.79 194.584,80.134 192,80.803 C191.52,80.927 191.019,81 190.5,81 C187.191,81 184.5,78.309 184.5,75 C184.5,71.691 187.191,69 190.5,69 C191.019,69 191.52,69.073 192,69.197 C194.584,69.866 196.5,72.21 196.5,75 L196.5,75 Z M24.75,48.75 C25.414,48.75 26.004,48.457 26.416,48 C26.775,47.602 27,47.079 27,46.5 C27,45.257 25.993,44.25 24.75,44.25 C23.507,44.25 22.5,45.257 22.5,46.5 C22.5,47.079 22.725,47.602 23.084,48 C23.496,48.457 24.086,48.75 24.75,48.75 L24.75,48.75 Z M18,48.75 C18.664,48.75 19.254,48.457 19.666,48 C20.025,47.602 20.25,47.079 20.25,46.5 C20.25,45.257 19.243,44.25 18,44.25 C16.757,44.25 15.75,45.257 15.75,46.5 C15.75,47.079 15.975,47.602 16.334,48 C16.746,48.457 17.336,48.75 18,48.75 L18,48.75 Z M11.057,48.73 C11.122,48.736 11.184,48.75 11.25,48.75 C11.884,48.75 12.454,48.486 12.863,48.064 C13.256,47.659 13.5,47.109 13.5,46.5 C13.5,45.257 12.493,44.25 11.25,44.25 C10.007,44.25 9,45.257 9,46.5 C9,47.677 9.906,48.631 11.057,48.73 L11.057,48.73 Z M60,120 C60,118.895 59.392,117.938 58.5,117.417 C58.057,117.159 57.549,117 57,117 C56.451,117 55.943,117.159 55.5,117.417 C54.608,117.938 54,118.895 54,120 C54,121.105 54.608,122.063 55.5,122.583 C55.943,122.841 56.451,123 57,123 C57.549,123 58.057,122.841 58.5,122.583 C59.392,122.063 60,121.105 60,120 L60,120 Z M63,120 C63,122.79 61.084,125.134 58.5,125.803 C58.02,125.927 57.519,126 57,126 C56.481,126 55.98,125.927 55.5,125.803 C52.916,125.134 51,122.79 51,120 C51,117.21 52.916,114.866 55.5,114.197 C55.98,114.073 56.481,114 57,114 C57.519,114 58.02,114.073 58.5,114.197 C61.084,114.866 63,117.21 63,120 L63,120 Z M74,131 C74,129.895 73.392,128.938 72.5,128.417 C72.057,128.159 71.549,128 71,128 C70.451,128 69.943,128.159 69.5,128.417 C68.608,128.938 68,129.895 68,131 C68,132.105 68.608,133.063 69.5,133.583 C69.943,133.841 70.451,134 71,134 C71.549,134 72.057,133.841 72.5,133.583 C73.392,133.063 74,132.105 74,131 L74,131 Z M77,131 C77,133.79 75.084,136.134 72.5,136.803 C72.02,136.927 71.519,137 71,137 C70.481,137 69.98,136.927 69.5,136.803 C66.916,136.134 65,133.79 65,131 C65,128.21 66.916,125.866 69.5,125.197 C69.98,125.073 70.481,125 71,125 C71.519,125 72.02,125.073 72.5,125.197 C75.084,125.866 77,128.21 77,131 L77,131 Z M46,131 C46,129.895 45.392,128.938 44.5,128.417 C44.057,128.159 43.549,128 43,128 C42.451,128 41.943,128.159 41.5,128.417 C40.608,128.938 40,129.895 40,131 C40,132.105 40.608,133.063 41.5,133.583 C41.943,133.841 42.451,134 43,134 C43.549,134 44.057,133.841 44.5,133.583 C45.392,133.063 46,132.105 46,131 L46,131 Z M49,131 C49,133.79 47.084,136.134 44.5,136.803 C44.02,136.927 43.519,137 43,137 C42.481,137 41.98,136.927 41.5,136.803 C38.916,136.134 37,133.79 37,131 C37,128.21 38.916,125.866 41.5,125.197 C41.98,125.073 42.481,125 43,125 C43.519,125 44.02,125.073 44.5,125.197 C47.084,125.866 49,128.21 49,131 L49,131 Z M32,120 C32,118.895 31.392,117.938 30.5,117.417 C30.057,117.159 29.549,117 29,117 C28.451,117 27.943,117.159 27.5,117.417 C26.608,117.938 26,118.895 26,120 C26,121.105 26.608,122.063 27.5,122.583 C27.943,122.841 28.451,123 29,123 C29.549,123 30.057,122.841 30.5,122.583 C31.392,122.063 32,121.105 32,120 L32,120 Z M35,120 C35,122.79 33.084,125.134 30.5,125.803 C30.02,125.927 29.519,126 29,126 C28.481,126 27.98,125.927 27.5,125.803 C24.916,125.134 23,122.79 23,120 C23,117.21 24.916,114.866 27.5,114.197 C27.98,114.073 28.481,114 29,114 C29.519,114 30.02,114.073 30.5,114.197 C33.084,114.866 35,117.21 35,120 L35,120 Z M18,131 C18,129.895 17.392,128.938 16.5,128.417 C16.057,128.159 15.549,128 15,128 C14.451,128 13.943,128.159 13.5,128.417 C12.608,128.938 12,129.895 12,131 C12,132.105 12.608,133.063 13.5,133.583 C13.943,133.841 14.451,134 15,134 C15.549,134 16.057,133.841 16.5,133.583 C17.392,133.063 18,132.105 18,131 L18,131 Z M21,131 C21,133.79 19.084,136.134 16.5,136.803 C16.02,136.927 15.519,137 15,137 C14.481,137 13.98,136.927 13.5,136.803 C10.916,136.134 9,133.79 9,131 C9,128.21 10.916,125.866 13.5,125.197 C13.98,125.073 14.481,125 15,125 C15.519,125 16.02,125.073 16.5,125.197 C19.084,125.866 21,128.21 21,131 L21,131 Z M49.939,71.561 C50.232,71.854 50.616,72 51,72 C51.384,72 51.768,71.854 52.061,71.561 C52.646,70.975 52.646,70.025 52.061,69.439 L43.061,60.439 C42.475,59.854 41.525,59.854 40.939,60.439 C40.354,61.025 40.354,61.975 40.939,62.561 L49.939,71.561 Z M36.311,62.689 C35.725,62.104 34.775,62.104 34.189,62.689 C33.604,63.275 33.604,64.225 34.189,64.811 L47.689,78.311 C47.982,78.604 48.366,78.75 48.75,78.75 C49.134,78.75 49.518,78.604 49.811,78.311 C50.396,77.725 50.396,76.775 49.811,76.189 L36.311,62.689 Z M25.061,80.561 C25.646,79.975 25.646,79.025 25.061,78.439 L16.061,69.439 C15.475,68.854 14.525,68.854 13.939,69.439 C13.354,70.025 13.354,70.975 13.939,71.561 L22.939,80.561 C23.232,80.854 23.616,81 24,81 C24.384,81 24.768,80.854 25.061,80.561 L25.061,80.561 Z M31.939,71.561 L40.939,80.561 C41.232,80.854 41.616,81 42,81 C42.384,81 42.768,80.854 43.061,80.561 C43.646,79.975 43.646,79.025 43.061,78.439 L34.061,69.439 L25.061,60.439 C24.475,59.854 23.525,59.854 22.939,60.439 C22.354,61.025 22.354,61.975 22.939,62.561 L31.939,71.561 Z M29.689,78.311 C29.982,78.604 30.366,78.75 30.75,78.75 C31.134,78.75 31.518,78.604 31.811,78.311 C32.396,77.725 32.396,76.775 31.811,76.189 L18.311,62.689 C17.725,62.104 16.775,62.104 16.189,62.689 C15.604,63.275 15.604,64.225 16.189,64.811 L29.689,78.311 Z M79.62,75.189 C78.955,75.189 78.286,75.167 77.612,75.12 C65.064,74.256 54.918,65.475 51.71,54 L54.842,54 C57.958,63.889 66.866,71.374 77.818,72.128 C90.02,72.964 100.854,65.187 104.365,54 L107.496,54 C104.063,66.335 92.72,75.189 79.62,75.189 L79.62,75.189 Z" id="Fill-8" fill="#73559B" sketch:type="MSShapeGroup"></path>
        </g>
    </g>
</svg>
