<svg id="start" xmlns="http://www.w3.org/2000/svg" viewBox="0 0 24 24"><title>play</title><path d="M12.705,20.5h0a0.753,0.753,0,0,1-.727-0.824L12,10.322A0.841,0.841,0,0,1,12.227,9.7,0.779,0.779,0,0,1,13.259,9.7l6.365,4.594a0.908,0.908,0,0,1,.008,1.5l-6.4,4.526A0.885,0.885,0,0,1,12.705,20.5ZM13,10.74l-0.017,8.525,5.975-4.224Z" transform="translate(-3 -3)" style="fill:#866f98"/><path d="M15,4A11,11,0,1,1,4,15,11.012,11.012,0,0,1,15,4m0-1A12,12,0,1,0,27,15,12,12,0,0,0,15,3h0Z" transform="translate(-3 -3)" style="fill:#866f98"/></svg>