<svg xmlns="http://www.w3.org/2000/svg" viewBox="-102 -4.5 240 45"><path fill="#CCADD2" d="M-63.6 2L-97.4.3c-2.5-.1-4.5 1.6-4.5 3.8v1.6L-60 7V5.7c.1-2-1.5-3.6-3.6-3.7zm-33 1.6c0 .3-.3.7-.7.7h-1.3c-.3 0-.7-.3-.7-.7V2.4c0-.3.3-.7.7-.7h1.3c.3 0 .7.3.7.7v1.2zm4.5.1c0 .3-.3.7-.7.5H-94c-.3 0-.7-.3-.7-.7V2.3c0-.3.3-.7.7-.5h1.3c.3 0 .7.3.7.7v1.2h-.1zm4.3.1c0 .3-.3.7-.7.5h-1.3c-.3 0-.7-.3-.7-.7V2.4c0-.3.3-.7.7-.5h1.3c.3 0 .7.3.7.7v1.2zM-101.9 32c0 2.2 2.1 3.8 4.5 3.8l33.8-1.7c2-.1 3.6-1.7 3.6-3.7V8.5l-41.9-1.3V32zm18.8-15.8c-.8-.8-.8-2 0-2.8.8-.8 2.1-.7 2.9 0l5.7 5.3c.8.7.8 2 0 2.5l-5.7 5.4c-.8.8-2.1.8-2.9 0-.8-.7-.8-2 0-2.8l4.3-4c0 .4-4.3-3.6-4.3-3.6z"/><path fill="#FFF" d="M-30.8 10c-.3-.1-.7-.1-1.2-.3-.5-.1-.8-.1-1.3-.1-.8 0-1.4.1-2.1.3-.7.1-1.2.5-1.6.9-.5.3-.9.8-1.3 1.3-.3.5-.8.9-1.2 1.4v-3.3h-7.3v1.2c0 .5 0 .9.1 1.6v20.3h8V20.5c0-.8 0-1.3.1-1.7.1-.5.3-.8.8-1.2.1-.1.5-.5.9-.7.5-.1.9-.3 1.7-.3.5 0 .9 0 1.4.1.5.1.8.3 1.3.7l1.7-7.4zm24.3 23.1V10.3h-8v13.3c0 .7 0 1.2-.1 1.4-.1.3-.3.8-.8 1.3-.1.3-.5.5-.8.7-.3.1-.8.3-1.3.3-1.7 0-2.5-1.2-2.5-3.2V10.3h-8v15.8c0 1.2.1 2.1.5 3 .3.9.7 1.7 1.3 2.4.6.7 1.3 1.3 2.2 1.6.9.3 2.1.7 3.3.7 1.6 0 2.9-.3 4-.9 1.2-.7 2.1-1.6 2.9-2.8v3h7.3zm27.3 0V17.3c0-1.2-.1-2.1-.5-3-.3-.9-.7-1.7-1.3-2.4-.6-.7-1.4-1.3-2.4-1.6-.9-.3-2.1-.7-3.6-.7-1.6 0-3 .3-4.3 1.2-1.2.7-2.2 1.6-3 2.9v-3.2h-7.4v22.8h8V20c0-.7 0-1.2.1-1.4.1-.3.3-.8.8-1.2.4-.3.8-.4 1-.7.5-.1.8-.3 1.3-.3.9 0 1.7.3 2.1.8.5.5.7 1.3.7 2.4v13.7l8.5-.2zm27 0V17.3c0-1.2-.1-2.1-.5-3-.3-.9-.7-1.7-1.3-2.4-.7-.7-1.4-1.3-2.4-1.6-.9-.3-2.1-.7-3.6-.7-1.6 0-3 .3-4.3 1.2-1.2.7-2.2 1.6-3 2.9v-3.2h-7.4v22.8h8V20c0-.7 0-1.2.1-1.4.1-.3.3-.8.8-1.2.3-.3.7-.5.9-.7.5-.1.8-.3 1.3-.3.9 0 1.7.3 2.1.8.5.5.7 1.3.7 2.4v13.7l8.6-.2zm17-7.6c0 .9-.3 1.6-.8 2.2-.7.7-1.4.9-2.5.9-.7 0-1.3-.1-1.6-.7-.5-.5-.7-.9-.7-1.6 0-.7.1-.9.5-1.4.3-.3.7-.7 1.2-.8.5-.1.9-.3 1.4-.3.5 0 .9-.1 1.4-.1h1.5l-.4 1.8zm9.5 2.7c-.1 0-.3.1-.5.1h-.5c-.3 0-.7-.1-.8-.5-.1-.3-.1-.7-.1-.9v-9.2c0-1.7-.3-3-.9-4.2-.6-1.2-1.4-2-2.4-2.5-1-.6-2.1-.9-3.3-1.3-1.3-.1-2.4-.3-3.6-.3-1.7 0-3.6.1-5 .5-1.6.3-3 .8-4.6 1.4l1.7 5.7c.8-.5 1.6-.9 2.8-1.3.9-.3 2.2-.5 3.3-.5.8 0 1.6 0 2.1.1s.9.3 1.3.7c.3.3.5.5.7.8.1.3.1.7.1.9v.8c0 .3-.1.7-.5.7-.3.1-.7.1-1.2.1-1.3 0-2.8.1-4 .3-1.4.1-2.8.5-3.8 1.2-1.1.4-2 1.2-2.8 2.2s-1.2 2.2-1.2 3.8c0 .9.1 2 .5 2.8.3.8.8 1.6 1.4 2.2s1.3 1.2 2.2 1.4c.8.3 1.7.5 2.9.5 1.6 0 3-.3 4.2-.8 1.2-.5 2.1-1.3 3-2.4.3.8.8 1.6 1.6 2.1s1.7.8 3 .8c.8 0 1.6 0 2.4-.1s1.4-.3 2-.3v-4.8zm17.8-3.9c-.1.7-.3 1.3-.7 2-.3.7-.7 1.2-1.2 1.4-.5.3-1.2.7-2 .7-.9 0-1.7-.1-2.2-.7-.5-.5-.7-.9-.7-1.7v-6.3c0-.5 0-.9.1-1.3.1-.3.3-.7.8-1.2.3-.3.7-.5.9-.7.3-.1.8-.3 1.3-.3.8 0 1.4.1 2 .7.5.5.8.9 1.2 1.6.3.7.5 1.3.5 2 .1.7.1 1.3.1 2 .2.3.1 1.2-.1 1.8zm8.1-7.3c-.3-1.4-.8-2.8-1.6-3.8-.8-1.2-1.6-2-2.8-2.8-1.2-.7-2.4-.9-4-.9-1.4 0-2.8.3-3.7.9-.9.7-2 1.4-2.5 2.4V1.7h-8v31.4h7.8v-.9c.5.5 1.3.9 2.2 1.3.9.3 2 .5 2.8.5 2 0 3.6-.3 4.8-1.2 1.3-.8 2.4-1.7 3.2-3 .8-1.2 1.4-2.5 1.7-4 .3-1.4.5-2.9.5-4.3 0-1.7-.2-3-.4-4.5zm12.1 16.1V1.7h-8v31.4h8zm11.3-14.5c0-.5 0-.8.1-1.3s.3-.9.7-1.3c.3-.5.7-.8 1.2-.9.5-.3.9-.3 1.7-.3 1.2 0 2.1.5 2.8 1.3.7.8.8 1.7.8 2.9h-7.2v-.3h-.1zm13.9-2.4c-.3-1.3-.9-2.4-2-3.3-.8-.9-2-1.7-3.3-2.4-1.3-.7-3-.9-4.8-.9-2 0-3.7.3-5.1.9-1.4.7-2.8 1.6-3.7 2.8-.9 1.2-1.7 2.4-2.2 3.8-.5 1.4-.8 3-.8 4.8 0 2.1.3 3.8.9 5.3.6 1.5 1.6 2.8 2.8 3.7 1.2.9 2.5 1.7 4.2 2.2s3.3.8 5.3.8c1.6 0 3.2-.1 4.8-.5 1.4-.3 2.8-.7 3.8-.9l-1.4-5.7c-.8.3-1.7.7-2.8.9-.9.3-2.1.5-3.2.5-2.1 0-3.7-.5-4.8-1.3-1.2-.8-1.6-2.1-1.6-3.6V23h14.2v-1.5V20c.4-1.3.1-2.6-.3-3.8z"/></svg>