<?xml version="1.0" encoding="UTF-8" standalone="no"?>
<svg width="3335px" height="3335px" viewBox="0 0 3335 3335" version="1.1" xmlns="http://www.w3.org/2000/svg" xmlns:xlink="http://www.w3.org/1999/xlink" xmlns:sketch="http://www.bohemiancoding.com/sketch/ns">
    <!-- Generator: Sketch 3.5.1 (25234) - http://www.bohemiancoding.com/sketch -->
    <title>Group 4</title>
    <desc>Created with Sketch.</desc>
    <defs></defs>
    <g id="Page-1" stroke="none" stroke-width="1" fill="none" fill-rule="evenodd" sketch:type="MSPage">
        <g id="Group-4" sketch:type="MSLayerGroup" transform="translate(2.000000, 1.000000)">
            <g id="lines" stroke="#81559E" stroke-width="3" sketch:type="MSShapeGroup" stroke-linecap="round" stroke-linejoin="round">
                <path d="M1868.7635,1720.4684 C1878.0335,1686.0024 1878.6375,1648.7104 1868.7355,1611.7574 C1858.8335,1574.8034 1839.6645,1542.8094 1814.4045,1517.5964" id="Stroke-1"></path>
                <path d="M1814.4042,1517.5963 C1788.3462,1491.5873 1755.8042,1472.7993 1720.2512,1463.2373" id="Stroke-3"></path>
                <path d="M1611.5393,1463.2646 C1574.5853,1473.1666 1542.5913,1492.3356 1517.3783,1517.5966" id="Stroke-5"></path>
                <path d="M1814.4041,1814.6218 C1840.4131,1788.5638 1859.2011,1756.0218 1868.7631,1720.4688" id="Stroke-7"></path>
                <path d="M1720.2433,1868.9535 C1757.1973,1859.0515 1789.1903,1839.8825 1814.4043,1814.6215" id="Stroke-9"></path>
                <path d="M1517.3783,1517.5963 C1491.3693,1543.6543 1472.5813,1576.1963 1463.0193,1611.7493" id="Stroke-11"></path>
                <path d="M1463.019,1611.7496 C1453.749,1646.2156 1453.145,1683.5076 1463.047,1720.4606 C1472.949,1757.4146 1492.117,1789.4086 1517.378,1814.6216" id="Stroke-13"></path>
                <path d="M1517.3785,1814.6218 C1543.4355,1840.6308 1575.9785,1859.4188 1611.5315,1868.9808" id="Stroke-15"></path>
                <path d="M1941.2179,1739.8826 C1953.7979,1693.1076 1954.6179,1642.4976 1941.1799,1592.3456 C1927.7419,1542.1946 1901.7269,1498.7746 1867.4449,1464.5556" id="Stroke-17"></path>
                <path d="M1867.4445,1464.556 C1832.0805,1429.258 1787.9155,1403.76 1739.6645,1390.782" id="Stroke-19"></path>
                <path d="M1739.6648,1390.7825 C1692.8898,1378.2025 1642.2798,1377.3825 1592.1278,1390.8205 C1541.9758,1404.2585 1498.5558,1430.2735 1464.3378,1464.5565" id="Stroke-21"></path>
                <path d="M1592.1174,1941.4358 C1638.8924,1954.0158 1689.5024,1954.8358 1739.6544,1941.3978 C1789.8064,1927.9598 1833.2264,1901.9448 1867.4444,1867.6618" id="Stroke-23"></path>
                <path d="M1390.5647,1592.3356 C1377.9837,1639.1106 1377.1647,1689.7206 1390.6027,1739.8726 C1404.0407,1790.0236 1430.0557,1833.4436 1464.3387,1867.6616" id="Stroke-25"></path>
                <path d="M1464.3383,1867.662 C1499.7023,1902.96 1543.8663,1928.459 1592.1173,1941.436" id="Stroke-27"></path>
                <path d="M2028.1632,1763.1794 C2044.7162,1701.6334 2045.7952,1635.0404 2028.1132,1569.0514" id="Stroke-29"></path>
                <path d="M1931.0928,1400.9077 C1884.5608,1354.4627 1826.4498,1320.9127 1762.9618,1303.8367" id="Stroke-31"></path>
                <path d="M1762.9617,1303.8372 C1701.4157,1287.2842 1634.8227,1286.2052 1568.8347,1303.8872 C1502.8447,1321.5682 1445.7137,1355.7992 1400.6897,1400.9082" id="Stroke-33"></path>
                <path d="M1931.0927,1931.3104 C1977.5377,1884.7784 2011.0877,1826.6674 2028.1637,1763.1794" id="Stroke-35"></path>
                <path d="M1568.8203,2028.381 C1630.3663,2044.934 1696.9593,2046.013 1762.9483,2028.331 C1828.9373,2010.65 1886.0683,1976.419 1931.0923,1931.31" id="Stroke-37"></path>
                <path d="M1400.6895,1400.9077 C1354.2445,1447.4397 1320.6945,1505.5507 1303.6195,1569.0387" id="Stroke-39"></path>
                <path d="M1303.6195,1569.0387 C1287.0655,1630.5847 1285.9875,1697.1777 1303.6695,1763.1657" id="Stroke-41"></path>
                <path d="M1400.6898,1931.3103 C1447.2208,1977.7553 1505.3318,2011.3053 1568.8198,2028.3813" id="Stroke-43"></path>
                <path d="M2129.5994,1790.3591 C2150.7874,1711.5801 2152.1684,1626.3411 2129.5354,1541.8761 C2106.9034,1457.4101 2063.0884,1384.2821 2005.3494,1326.6511" id="Stroke-45"></path>
                <path d="M2005.3491,1326.6514 C1945.7881,1267.2024 1871.4061,1224.2574 1790.1411,1202.4014" id="Stroke-47"></path>
                <path d="M1541.6582,1202.4646 C1457.1922,1225.0976 1384.0632,1268.9126 1326.4332,1326.6516" id="Stroke-49"></path>
                <path d="M2005.349,2005.5669 C2064.798,1946.0059 2107.743,1871.6239 2129.599,1790.3589" id="Stroke-51"></path>
                <path d="M1790.1245,2129.7534 C1874.5905,2107.1214 1947.7185,2063.3054 2005.3485,2005.5664" id="Stroke-53"></path>
                <path d="M1326.4329,1326.6514 C1266.9839,1386.2124 1224.0389,1460.5944 1202.1829,1541.8594" id="Stroke-55"></path>
                <path d="M1202.1833,1541.859 C1180.9943,1620.638 1179.6143,1705.876 1202.2473,1790.342 C1224.8793,1874.808 1268.6943,1947.936 1326.4333,2005.567" id="Stroke-57"></path>
                <path d="M1326.4335,2005.5668 C1385.9935,2065.0158 1460.3755,2107.9608 1541.6405,2129.8168" id="Stroke-59"></path>
                <path d="M2245.5264,1821.4216 C2272.0114,1722.9476 2273.7374,1616.3996 2245.4464,1510.8176 C2217.1564,1405.2356 2162.3874,1313.8256 2090.2134,1241.7866" id="Stroke-61"></path>
                <path d="M2090.2136,1241.7869 C2015.7626,1167.4749 1922.7846,1113.7949 1821.2036,1086.4739" id="Stroke-63"></path>
                <path d="M1821.2039,1086.4741 C1722.7299,1059.9891 1616.1819,1058.2631 1510.5999,1086.5531 C1405.0169,1114.8441 1313.6069,1169.6131 1241.5679,1241.7871" id="Stroke-65"></path>
                <path d="M1510.5778,2245.7443 C1609.0518,2272.2293 1715.5998,2273.9553 1821.1828,2245.6643 C1926.7648,2217.3743 2018.1748,2162.6053 2090.2138,2090.4313" id="Stroke-67"></path>
                <path d="M1086.2563,1510.7964 C1059.7703,1609.2704 1058.0453,1715.8184 1086.3353,1821.4004 C1114.6263,1926.9824 1169.3943,2018.3934 1241.5693,2090.4314" id="Stroke-69"></path>
                <path d="M1241.569,2090.4312 C1316.019,2164.7432 1408.997,2218.4242 1510.578,2245.7442" id="Stroke-71"></path>
                <path d="M2375.9441,1856.3669 C2408.3881,1735.7369 2410.5031,1605.2149 2375.8471,1475.8769" id="Stroke-73"></path>
                <path d="M2185.686,1146.3145 C2094.484,1055.2825 1980.586,989.5235 1856.149,956.0565" id="Stroke-75"></path>
                <path d="M1856.1493,956.0562 C1735.5193,923.6122 1604.9973,921.4972 1475.6593,956.1532 C1346.3203,990.8102 1234.3423,1057.9022 1146.0953,1146.3142" id="Stroke-77"></path>
                <path d="M2185.686,2185.9038 C2276.718,2094.7018 2342.477,1980.8038 2375.944,1856.3668" id="Stroke-79"></path>
                <path d="M1475.6322,2376.1622 C1596.2622,2408.6062 1726.7842,2410.7212 1856.1232,2376.0642 C1985.4612,2341.4082 2097.4392,2274.3162 2185.6862,2185.9042" id="Stroke-81"></path>
                <path d="M1146.0956,1146.3145 C1055.0636,1237.5165 989.3046,1351.4145 955.8386,1475.8515" id="Stroke-83"></path>
                <path d="M955.8385,1475.8511 C923.3935,1596.4821 921.2795,1727.0031 955.9355,1856.3411" id="Stroke-85"></path>
                <path d="M1146.0964,2185.9037 C1237.2974,2276.9357 1351.1954,2342.6947 1475.6324,2376.1617" id="Stroke-87"></path>
                <path d="M2520.8528,1895.1951 C2559.9178,1749.9461 2562.4648,1592.7881 2520.7358,1437.0541 C2479.0068,1281.3201 2398.2228,1146.4901 2291.7668,1040.2341" id="Stroke-89"></path>
                <path d="M2291.7666,1040.2339 C2181.9516,930.6239 2044.8096,851.4449 1894.9776,811.1479" id="Stroke-91"></path>
                <path d="M1436.8364,811.2646 C1281.1014,852.9936 1146.2714,933.7776 1040.0144,1040.2336" id="Stroke-93"></path>
                <path d="M2291.7664,2291.9844 C2401.3764,2182.1694 2480.5554,2045.0274 2520.8524,1895.1954" id="Stroke-95"></path>
                <path d="M1894.9462,2520.9534 C2050.6802,2479.2244 2185.5102,2398.4404 2291.7662,2291.9844" id="Stroke-97"></path>
                <path d="M1040.0148,1040.2339 C930.4048,1150.0489 851.2258,1287.1909 810.9298,1437.0229" id="Stroke-99"></path>
                <path d="M810.9297,1437.0229 C771.8627,1582.2719 769.3177,1739.4299 811.0467,1895.1639 C852.7757,2050.8979 933.5587,2185.7279 1040.0157,2291.9839" id="Stroke-101"></path>
                <path d="M1040.0159,2291.9841 C1149.8299,2401.5941 1286.9719,2480.7731 1436.8039,2521.0711" id="Stroke-103"></path>
                <path d="M2680.2524,1937.9061 C2726.6014,1765.5771 2729.6224,1579.1181 2680.1134,1394.3491 C2630.6044,1209.5801 2534.7594,1049.6121 2408.4554,923.5451" id="Stroke-105"></path>
                <path d="M2408.4553,923.5454 C2278.1663,793.5004 2115.4553,699.5584 1937.6883,651.7474" id="Stroke-107"></path>
                <path d="M1937.6884,651.7478 C1765.3594,605.3998 1578.9004,602.3778 1394.1314,651.8868 C1209.3614,701.3958 1049.3934,797.2418 923.3264,923.5458" id="Stroke-109"></path>
                <path d="M1394.0927,2680.4706 C1566.4217,2726.8196 1752.8807,2729.8406 1937.6517,2680.3306 C2122.4197,2630.8226 2282.3877,2534.9766 2408.4547,2408.6726" id="Stroke-111"></path>
                <path d="M651.5302,1394.312 C605.1802,1566.642 602.1602,1753.1 651.6692,1937.869 C701.1782,2122.638 797.0222,2282.606 923.3272,2408.673" id="Stroke-113"></path>
                <path d="M923.3273,2408.6728 C1053.6143,2538.7188 1216.3253,2632.6598 1394.0923,2680.4708" id="Stroke-115"></path>
                <path d="M2854.1431,1984.4999 C2908.4371,1782.6289 2911.9761,1564.2049 2853.9801,1347.7619" id="Stroke-117"></path>
                <path d="M2535.752,796.2485 C2383.128,643.9095 2192.523,533.8645 1984.282,477.8575" id="Stroke-119"></path>
                <path d="M1984.2821,477.8574 C1782.4111,423.5634 1563.9871,420.0244 1347.5441,478.0204 C1131.0991,536.0164 943.7081,648.2934 796.0291,796.2484" id="Stroke-121"></path>
                <path d="M2535.7517,2535.9697 C2688.0907,2383.3457 2798.1357,2192.7407 2854.1427,1984.4997" id="Stroke-123"></path>
                <path d="M1347.4985,2854.3612 C1549.3695,2908.6552 1767.7935,2912.1942 1984.2385,2854.1982 C2200.6825,2796.2022 2388.0725,2683.9252 2535.7515,2535.9692" id="Stroke-125"></path>
                <path d="M796.029,796.2488 C643.69,948.8728 533.645,1139.4778 477.64,1347.7178" id="Stroke-127"></path>
                <path d="M477.6396,1347.7183 C423.3436,1549.5903 419.8066,1768.0133 477.8026,1984.4563 C535.7986,2200.9003 648.0726,2388.2913 796.0306,2535.9693" id="Stroke-129"></path>
                <path d="M796.0306,2535.9694 C948.6526,2688.3084 1139.2576,2798.3544 1347.4986,2854.3614" id="Stroke-131"></path>
                <path d="M1770.8912,1666.109 C1770.8912,1724.099 1723.8812,1771.109 1665.8912,1771.109 C1607.9012,1771.109 1560.8912,1724.099 1560.8912,1666.109 C1560.8912,1608.119 1607.9012,1561.109 1665.8912,1561.109 C1723.8812,1561.109 1770.8912,1608.119 1770.8912,1666.109 L1770.8912,1666.109 Z" id="Stroke-133"></path>
                <path d="M1771.9719,1772.1896 C1790.0149,1754.1796 1803.7079,1731.3276 1810.7799,1704.9316 C1817.8529,1678.5366 1817.4209,1651.8996 1810.7999,1627.2806" id="Stroke-135"></path>
                <path d="M1771.9718,1560.0284 C1753.9618,1541.9854 1731.1098,1528.2924 1704.7138,1521.2204 C1678.3188,1514.1474 1651.6818,1514.5794 1627.0628,1521.2004" id="Stroke-137"></path>
                <path d="M1704.7195,1811.0178 C1730.1145,1804.1878 1753.3595,1790.7678 1771.9715,1772.1898" id="Stroke-139"></path>
                <path d="M1559.8105,1772.1896 C1577.8205,1790.2326 1600.6725,1803.9256 1627.0685,1810.9976 C1653.4635,1818.0706 1680.1005,1817.6386 1704.7195,1811.0176" id="Stroke-141"></path>
                <path d="M1627.063,1521.2002 C1601.668,1528.0302 1578.423,1541.4502 1559.811,1560.0282" id="Stroke-143"></path>
                <path d="M1559.8108,1560.0284 C1541.7668,1578.0384 1528.0748,1600.8904 1521.0028,1627.2864 C1513.9298,1653.6814 1514.3608,1680.3184 1520.9828,1704.9374" id="Stroke-145"></path>
                <path d="M3057.0151,2038.8593 C3120.5791,1802.5223 3124.7221,1546.8063 3056.8241,1293.4093 C2988.9271,1040.0123 2857.4811,820.6283 2684.2651,647.7363" id="Stroke-147"></path>
                <path d="M2684.2649,647.7358 C2505.5829,469.3878 2282.4359,340.5538 2038.6419,274.9848" id="Stroke-149"></path>
                <path d="M1293.1919,275.1758 C1039.7929,343.0738 820.4079,474.5198 647.5159,647.7358" id="Stroke-151"></path>
                <path d="M2684.2644,2684.4825 C2862.6124,2505.8005 2991.4464,2282.6545 3057.0154,2038.8595" id="Stroke-153"></path>
                <path d="M2038.5907,3057.0422 C2291.9877,2989.1442 2511.3717,2857.6992 2684.2647,2684.4822" id="Stroke-155"></path>
                <path d="M647.5159,647.7361 C469.1679,826.4181 340.3339,1049.5651 274.7679,1293.3591" id="Stroke-157"></path>
                <path d="M274.7675,1293.3588 C211.2015,1529.6968 207.0605,1785.4118 274.9585,2038.8088 C342.8555,2292.2058 474.2995,2511.5908 647.5175,2684.4818" id="Stroke-159"></path>
                <path d="M647.5178,2684.4821 C826.1978,2862.8311 1049.3438,2991.6641 1293.1388,3057.2331" id="Stroke-161"></path>
                <path d="M3274.3784,2097.1014 C3347.8734,1823.8364 3352.6644,1528.1654 3274.1574,1235.1754 C3195.6514,942.1854 3043.6674,688.5214 2843.3854,488.6154" id="Stroke-163"></path>
                <path d="M2843.3857,488.6152 C2636.7847,282.4002 2378.7717,133.4362 2096.8837,57.6222" id="Stroke-165"></path>
                <path d="M2096.8838,57.6221 C1823.6188,-15.8739 1527.9478,-20.6639 1234.9578,57.8421 C941.9648,136.3501 688.3018,288.3341 488.3948,488.6151" id="Stroke-167"></path>
                <path d="M1234.8962,3274.5967 C1508.1612,3348.0927 1803.8322,3352.8827 2096.8252,3274.3757 C2389.8152,3195.8687 2643.4782,3043.8847 2843.3852,2843.6037" id="Stroke-169"></path>
                <path d="M57.4043,1235.1167 C-16.0937,1508.3827 -20.8817,1804.0527 57.6253,2097.0427 C136.1313,2390.0327 288.1133,2643.6967 488.3973,2843.6027" id="Stroke-171"></path>
                <path d="M488.397,2843.6029 C694.995,3049.8189 953.009,3198.7829 1234.896,3274.5969" id="Stroke-173"></path>
                <path d="M1803.0046,1605.2399 L1808.8036,1583.5989 L1787.1236,1577.7899 C1790.2426,1582.0629 1793.1516,1586.4999 1795.8126,1591.0989 C1798.4536,1595.6629 1800.8466,1600.3879 1803.0046,1605.2399 L1803.0046,1605.2399 Z" id="Stroke-187"></path>
                <path d="M1544.6561,1754.3975 L1523.0151,1748.5985 L1528.8241,1726.9185 C1530.9661,1731.7565 1533.3531,1736.4945 1536.0051,1741.0985 C1538.6381,1745.6685 1541.5331,1750.1025 1544.6561,1754.3975 L1544.6561,1754.3975 Z" id="Stroke-189"></path>
                <path d="M1681.7338,1186.9309 L1665.8918,1171.0879 L1650.0208,1186.9589 C1655.2808,1186.3949 1660.5778,1186.0929 1665.8918,1186.0879 C1671.1648,1186.0829 1676.4528,1186.3739 1681.7338,1186.9309 L1681.7338,1186.9309 Z" id="Stroke-191"></path>
                <path d="M1681.7338,781.9309 L1665.8918,766.0879 L1650.0208,781.9589 C1655.2808,781.3949 1660.5778,781.0929 1665.8918,781.0879 C1671.1648,781.0829 1676.4528,781.3739 1681.7338,781.9309 L1681.7338,781.9309 Z" id="Stroke-193"></path>
                <path d="M1681.7338,226.9309 L1665.8918,211.0879 L1650.0208,226.9589 C1655.2808,226.3949 1660.5778,226.0929 1665.8918,226.0879 C1671.1648,226.0829 1676.4528,226.3739 1681.7338,226.9309 L1681.7338,226.9309 Z" id="Stroke-195"></path>
                <path d="M1681.7338,2145.246 L1665.8918,2161.089 L1650.0208,2145.218 C1655.2808,2145.782 1660.5778,2146.084 1665.8918,2146.088 C1671.1648,2146.094 1676.4528,2145.803 1681.7338,2145.246 L1681.7338,2145.246 Z" id="Stroke-197"></path>
                <path d="M1681.7338,2550.246 L1665.8918,2566.089 L1650.0208,2550.218 C1655.2808,2550.782 1660.5778,2551.084 1665.8918,2551.088 C1671.1648,2551.093 1676.4528,2550.803 1681.7338,2550.246 L1681.7338,2550.246 Z" id="Stroke-199"></path>
                <path d="M1681.7338,3105.246 L1665.8918,3121.088 L1650.0208,3105.218 C1655.2808,3105.782 1660.5778,3106.083 1665.8918,3106.088 C1671.1648,3106.093 1676.4528,3105.803 1681.7338,3105.246 L1681.7338,3105.246 Z" id="Stroke-201"></path>
                <path d="M1904.0756,1821.9181 L1925.7166,1816.1191 L1919.9076,1794.4391 C1917.7656,1799.2771 1915.3786,1804.0151 1912.7266,1808.6191 C1910.0936,1813.1891 1907.1986,1817.6231 1904.0756,1821.9181 L1904.0756,1821.9181 Z" id="Stroke-203"></path>
                <path d="M2176.8735,1979.4181 L2198.5145,1973.6191 L2192.7055,1951.9391 C2190.5635,1956.7771 2188.1765,1961.5151 2185.5245,1966.1191 C2182.8915,1970.6891 2179.9965,1975.1231 2176.8735,1979.4181 L2176.8735,1979.4181 Z" id="Stroke-205"></path>
                <path d="M2566.585,2204.4181 L2588.226,2198.6191 L2582.417,2176.9391 C2580.275,2181.7771 2577.888,2186.5151 2575.236,2191.1191 C2572.603,2195.6891 2569.708,2200.1231 2566.585,2204.4181 L2566.585,2204.4181 Z" id="Stroke-207"></path>
                <path d="M3099.1907,2511.9181 L3120.8317,2506.1191 L3115.0227,2484.4391 C3112.8807,2489.2771 3110.4937,2494.0151 3107.8417,2498.6191 C3105.2087,2503.1891 3102.3137,2507.6231 3099.1907,2511.9181 L3099.1907,2511.9181 Z" id="Stroke-209"></path>
                <path d="M1411.9001,1537.7605 L1406.1011,1516.1195 L1427.7811,1510.3105 C1424.6621,1514.5835 1421.7531,1519.0205 1419.0921,1523.6195 C1416.4511,1528.1835 1414.0581,1532.9085 1411.9001,1537.7605 L1411.9001,1537.7605 Z" id="Stroke-211"></path>
                <path d="M1139.1022,1380.2605 L1133.3032,1358.6195 L1154.9832,1352.8105 C1151.8642,1357.0835 1148.9552,1361.5205 1146.2942,1366.1195 C1143.6532,1370.6835 1141.2602,1375.4085 1139.1022,1380.2605 L1139.1022,1380.2605 Z" id="Stroke-213"></path>
                <path d="M749.3907,1155.2605 L743.5917,1133.6195 L765.2717,1127.8105 C762.1527,1132.0835 759.2437,1136.5205 756.5827,1141.1195 C753.9417,1145.6835 751.5487,1150.4085 749.3907,1155.2605 L749.3907,1155.2605 Z" id="Stroke-215"></path>
                <path d="M216.7851,847.7605 L210.9861,826.1195 L232.6661,820.3105 C229.5471,824.5835 226.6381,829.0205 223.9771,833.6195 C221.3361,838.1835 218.9431,842.9085 216.7851,847.7605 L216.7851,847.7605 Z" id="Stroke-217"></path>
                <path d="M1038.0313,2046.8975 L1016.3903,2041.0985 L1022.1993,2019.4185 C1024.3413,2024.2565 1026.7283,2028.9945 1029.3803,2033.5985 C1032.0133,2038.1685 1034.9083,2042.6025 1038.0313,2046.8975 L1038.0313,2046.8975 Z" id="Stroke-219"></path>
                <path d="M609.3486,2294.3975 L587.7076,2288.5985 L593.5166,2266.9185 C595.6586,2271.7565 598.0456,2276.4945 600.6976,2281.0985 C603.3306,2285.6685 606.2256,2290.1025 609.3486,2294.3975 L609.3486,2294.3975 Z" id="Stroke-221"></path>
                <path d="M2309.6294,1312.7399 L2315.4284,1291.0989 L2293.7484,1285.2899 C2296.8674,1289.5629 2299.7764,1293.9999 2302.4374,1298.5989 C2305.0784,1303.1629 2307.4714,1307.8879 2309.6294,1312.7399 L2309.6294,1312.7399 Z" id="Stroke-223"></path>
                <path d="M2738.312,1065.24 L2744.111,1043.599 L2722.431,1037.79 C2725.55,1042.063 2728.459,1046.5 2731.12,1051.099 C2733.761,1055.663 2736.154,1060.388 2738.312,1065.24 L2738.312,1065.24 Z" id="Stroke-225"></path>
                <path d="M1680.8914,1876.0884 C1680.8914,1884.3724 1674.1754,1891.0884 1665.8914,1891.0884 C1657.6074,1891.0884 1650.8914,1884.3724 1650.8914,1876.0884 C1650.8914,1867.8044 1657.6074,1861.0884 1665.8914,1861.0884 C1674.1754,1861.0884 1680.8914,1867.8044 1680.8914,1876.0884 L1680.8914,1876.0884 Z" id="Stroke-227"></path>
                <path d="M1356.1497,1853.5988 C1356.1497,1861.8828 1349.4337,1868.5988 1341.1497,1868.5988 C1332.8657,1868.5988 1326.1497,1861.8828 1326.1497,1853.5988 C1326.1497,1845.3148 1332.8657,1838.5988 1341.1497,1838.5988 C1349.4337,1838.5988 1356.1497,1845.3148 1356.1497,1853.5988 L1356.1497,1853.5988 Z" id="Stroke-229"></path>
                <path d="M1680.8914,1456.0884 C1680.8914,1464.3724 1674.1754,1471.0884 1665.8914,1471.0884 C1657.6074,1471.0884 1650.8914,1464.3724 1650.8914,1456.0884 C1650.8914,1447.8044 1657.6074,1441.0884 1665.8914,1441.0884 C1674.1754,1441.0884 1680.8914,1447.8044 1680.8914,1456.0884 L1680.8914,1456.0884 Z" id="Stroke-231"></path>
                <path d="M2005.6687,1478.5988 C2005.6687,1486.8828 1998.9527,1493.5988 1990.6687,1493.5988 C1982.3847,1493.5988 1975.6687,1486.8828 1975.6687,1478.5988 C1975.6687,1470.3148 1982.3847,1463.5988 1990.6687,1463.5988 C1998.9527,1463.5988 2005.6687,1470.3148 2005.6687,1478.5988 L2005.6687,1478.5988 Z" id="Stroke-233"></path>
            </g>
            <g id="Page-1" transform="translate(1591.000000, 1529.000000)" sketch:type="MSShapeGroup">
                <path d="M105,146 C105,162.569 91.569,176 75,176 C58.431,176 45,162.569 45,146 L45,137 C45,120.431 58.431,107 75,107 C91.569,107 105,120.431 105,137 L105,146 Z M124,92.838 C118.882,87.164 112.793,82.385 106,78.755 C96.751,73.812 86.199,71 75,71 C63.801,71 53.249,73.812 44,78.755 C37.207,82.385 31.118,87.164 26,92.838 C15.44,104.543 9,120.032 9,137 C9,173.393 38.607,203 75,203 C111.393,203 141,173.393 141,137 C141,120.032 134.56,104.543 124,92.838 L124,92.838 Z" id="Fill-4" fill="#BFA1D4"></path>
                <path d="M75,167 C58.431,167 45,153.569 45,137 L45,146 C45,162.569 58.431,176 75,176 C91.569,176 105,162.569 105,146 L105,137 C105,153.569 91.569,167 75,167" id="Fill-6-Copy" fill="#AB8DC1"></path>
                <path d="M75,111.5 C60.939,111.5 49.5,122.939 49.5,137 C49.5,151.061 60.939,162.5 75,162.5 C89.061,162.5 100.5,151.061 100.5,137 C100.5,122.939 89.061,111.5 75,111.5" id="Fill-8" fill="#FFFFFF"></path>
                <path d="M43.9998,49.4999 C43.9998,32.4069 57.9068,18.4999 74.9998,18.4999 C92.0928,18.4999 105.9998,32.4069 105.9998,49.4999 L105.9998,68.7109 C96.5488,64.4129 86.0598,61.9999 74.9998,61.9999 C63.9408,61.9999 53.4508,64.4129 43.9998,68.7109 L43.9998,49.4999 Z M74.9998,202.9999 C38.6078,202.9999 8.9998,173.3929 8.9998,136.9999 C8.9998,120.0319 15.4408,104.5429 25.9998,92.8379 C31.1188,87.1639 37.2068,82.3849 43.9998,78.7549 C53.2488,73.8129 63.8008,70.9999 74.9998,70.9999 C86.1998,70.9999 96.7508,73.8129 105.9998,78.7549 C112.7928,82.3849 118.8818,87.1639 123.9998,92.8379 C134.5598,104.5429 140.9998,120.0319 140.9998,136.9999 C140.9998,173.3929 111.3928,202.9999 74.9998,202.9999 L74.9998,202.9999 Z M123.9998,80.2469 L123.9998,49.4999 C123.9998,22.4809 102.0188,0.4999 74.9998,0.4999 C47.9808,0.4999 25.9998,22.4809 25.9998,49.4999 L25.9998,80.2469 C10.0848,93.9999 -0.000200000002,114.3159 -0.000200000002,136.9999 C-0.000200000002,178.4219 33.5788,211.9999 74.9998,211.9999 C116.4218,211.9999 149.9998,178.4219 149.9998,136.9999 C149.9998,114.3159 139.9148,93.9999 123.9998,80.2469 L123.9998,80.2469 Z" id="Fill-10" fill="#3B1854"></path>
                <path d="M75,162.5 C60.939,162.5 49.5,151.061 49.5,137 C49.5,122.939 60.939,111.5 75,111.5 C89.061,111.5 100.5,122.939 100.5,137 C100.5,151.061 89.061,162.5 75,162.5 M75,107 C58.431,107 45,120.431 45,137 C45,153.569 58.431,167 75,167 C91.569,167 105,153.569 105,137 C105,120.431 91.569,107 75,107" id="Fill-13" fill="#3B1854"></path>
            </g>
        </g>
    </g>
</svg>