<svg width="3335" height="3335" viewBox="0 0 3335 3335" xmlns="http://www.w3.org/2000/svg"><title>Group 4</title><g fill="none" fill-rule="evenodd"><g stroke="#81559E" stroke-width="3" stroke-linecap="round" stroke-linejoin="round"><path d="M1870.764 1721.468c9.27-34.466 9.874-71.758-.028-108.71-9.903-36.955-29.072-68.95-54.332-94.162M1816.404 1518.596a211.022 211.022 0 0 0-94.153-54.36M1613.54 1464.265c-36.955 9.902-68.95 29.07-94.162 54.332M1816.404 1815.622a211.022 211.022 0 0 0 54.36-94.153M1722.243 1869.954c36.954-9.902 68.947-29.072 94.16-54.332M1519.378 1518.596a211.022 211.022 0 0 0-54.36 94.153M1465.02 1612.75c-9.27 34.466-9.875 71.758.027 108.71 9.902 36.955 29.07 68.95 54.33 94.162M1519.379 1815.622a211.016 211.016 0 0 0 94.15 54.36M1943.218 1740.883c12.58-46.775 13.4-97.385-.038-147.537-13.438-50.15-39.453-93.57-73.735-127.79M1869.445 1465.556c-35.364-35.298-79.53-60.796-127.78-73.774M1741.665 1391.783c-46.775-12.58-97.385-13.4-147.537.038s-93.572 39.454-127.79 73.736M1594.117 1942.436c46.775 12.58 97.385 13.4 147.537-.038s93.572-39.453 127.79-73.736M1392.565 1593.336c-12.58 46.775-13.4 97.385.038 147.537 13.438 50.15 39.453 93.57 73.736 127.79M1466.338 1868.662a286.383 286.383 0 0 0 127.78 73.774M2030.163 1764.18c16.553-61.547 17.632-128.14-.05-194.13M1933.093 1401.908c-46.532-46.445-104.643-79.995-168.13-97.07M1764.962 1304.837c-61.546-16.553-128.14-17.632-194.127.05-65.99 17.68-123.12 51.912-168.145 97.02M1933.093 1932.31c46.445-46.532 79.995-104.643 97.07-168.13M1570.82 2029.38c61.546 16.554 128.14 17.633 194.128-.05 65.99-17.68 123.12-51.91 168.144-97.02M1402.69 1401.908c-46.446 46.532-79.995 104.643-97.07 168.13M1305.62 1570.04c-16.554 61.545-17.632 128.138.05 194.126M1402.69 1932.31c46.53 46.445 104.642 79.995 168.13 97.07M2131.6 1791.36c21.187-78.78 22.568-164.02-.065-248.484-22.632-84.466-66.447-157.594-124.186-215.225M2007.35 1327.65c-59.562-59.448-133.944-102.393-215.21-124.25M1543.658 1203.465c-84.466 22.633-157.595 66.448-215.225 124.187M2007.35 2006.567c59.448-59.56 102.393-133.943 124.25-215.208M1792.124 2130.753c84.466-22.632 157.594-66.448 215.225-124.187M1328.433 1327.65c-59.45 59.562-102.394 133.944-124.25 215.21"/><path d="M1204.183 1542.86c-21.19 78.778-22.57 164.016.064 248.482 22.632 84.466 66.447 157.594 124.186 215.225M1328.434 2006.567c59.56 59.45 133.942 102.394 215.207 124.25M2247.526 1822.422c26.485-98.474 28.21-205.022-.08-310.604s-83.06-196.992-155.233-269.03M2092.214 1242.787c-74.45-74.312-167.43-127.992-269.01-155.313M1823.204 1087.474c-98.474-26.485-205.022-28.21-310.604.08-105.583 28.29-196.993 83.06-269.032 155.233M1512.578 2246.744c98.474 26.485 205.022 28.21 310.605-.08 105.582-28.29 196.992-83.06 269.03-155.233M1088.256 1511.796c-26.486 98.474-28.21 205.022.08 310.604s83.058 196.993 155.233 269.03M1243.57 2091.43c74.45 74.313 167.427 127.994 269.008 155.314M2377.944 1857.367c32.444-120.63 34.56-251.152-.097-380.49M2187.686 1147.314c-91.202-91.032-205.1-156.79-329.537-190.258"/><path d="M1858.15 957.056c-120.63-32.444-251.153-34.56-380.49.097-129.34 34.657-241.318 101.75-329.565 190.16M2187.686 2186.904c91.032-91.202 156.79-205.1 190.258-329.537M1477.632 2377.162c120.63 32.444 251.152 34.56 380.49-.098 129.34-34.656 241.317-101.748 329.564-190.16M1148.096 1147.314c-91.032 91.202-156.79 205.1-190.257 329.537M957.838 1476.85c-32.444 120.632-34.558 251.153.098 380.49M1148.096 2186.904c91.2 91.032 205.1 156.79 329.536 190.258M2522.853 1896.195c39.065-145.25 41.612-302.407-.117-458.14-41.73-155.735-122.513-290.565-228.97-396.82M2293.767 1041.234c-109.815-109.61-246.957-188.79-396.79-229.086M1438.836 812.265c-155.735 41.73-290.565 122.513-396.822 228.97M2293.766 2292.984c109.61-109.815 188.79-246.957 229.086-396.79M1896.946 2521.953c155.734-41.73 290.564-122.513 396.82-228.97M1042.015 1041.234c-109.61 109.815-188.79 246.957-229.085 396.79"/><path d="M812.93 1438.023c-39.067 145.25-41.612 302.407.117 458.14 41.73 155.735 122.512 290.565 228.97 396.82M1042.016 2292.984c109.814 109.61 246.956 188.79 396.788 229.087M2682.252 1938.906c46.35-172.33 49.37-358.788-.14-543.557-49.508-184.77-145.353-344.738-271.657-470.805M2410.455 924.545c-130.29-130.045-293-223.987-470.767-271.798M1939.688 652.748c-172.33-46.348-358.788-49.37-543.557.14-184.77 49.508-344.737 145.354-470.804 271.658M1396.093 2681.47c172.33 46.35 358.788 49.37 543.56-.14 184.767-49.507 344.735-145.353 470.802-271.657M653.53 1395.312c-46.35 172.33-49.37 358.788.14 543.557 49.508 184.768 145.352 344.736 271.657 470.803M925.327 2409.673c130.287 130.046 292.998 223.987 470.765 271.798M2856.143 1985.5c54.294-201.87 57.833-420.295-.163-636.738M2537.752 797.25c-152.624-152.34-343.23-262.385-551.47-318.392M1986.282 478.857c-201.87-54.294-420.295-57.833-636.738.163C1133.1 537.016 945.708 649.293 798.03 797.248M2537.752 2536.97c152.34-152.624 262.384-343.23 318.39-551.47M1349.498 2855.36c201.87 54.295 420.295 57.834 636.74-.162 216.444-57.996 403.835-170.273 551.513-318.23M798.03 797.25c-152.34 152.623-262.385 343.228-318.39 551.468M479.64 1348.718c-54.296 201.872-57.833 420.295.163 636.738C537.8 2201.9 650.073 2389.29 798.03 2536.97M798.03 2536.97c152.623 152.338 343.228 262.384 551.47 318.39M1772.89 1667.11c0 57.99-47.01 105-105 105s-105-47.01-105-105 47.01-105 105-105 105 47.01 105 105zM1773.972 1773.19c18.043-18.01 31.736-40.862 38.808-67.258 7.073-26.395 6.64-53.032.02-77.65M1773.972 1561.028c-18.01-18.043-40.862-31.736-67.258-38.808-26.395-7.073-53.032-6.64-77.65-.02M1706.72 1812.018a150.724 150.724 0 0 0 67.252-38.828M1561.81 1773.19c18.01 18.043 40.862 31.736 67.26 38.808 26.394 7.073 53.03 6.64 77.65.02M1629.063 1522.2a150.724 150.724 0 0 0-67.252 38.828M1561.81 1561.028c-18.043 18.01-31.735 40.862-38.807 67.258-7.073 26.395-6.642 53.032-.02 77.65M3059.015 2039.86c63.564-236.338 67.707-492.054-.19-745.45-67.898-253.398-199.344-472.782-372.56-645.674M2686.265 648.736c-178.682-178.348-401.83-307.182-645.623-372.75M1295.192 276.176c-253.4 67.898-472.784 199.344-645.676 372.56M2686.264 2685.483c178.348-178.683 307.182-401.83 372.75-645.624M2040.59 3058.042c253.398-67.898 472.782-199.343 645.675-372.56M649.516 648.736c-178.348 178.682-307.182 401.83-372.748 645.623M276.767 1294.36c-63.565 236.337-67.707 492.052.192 745.45 67.896 253.396 199.34 472.78 372.558 645.672M649.518 2685.482c178.68 178.35 401.826 307.182 645.62 372.75M3276.378 2098.1c73.495-273.264 78.286-568.935-.22-861.925-78.507-292.99-230.49-546.654-430.773-746.56M2845.386 489.615c-206.6-206.215-464.614-355.18-746.502-430.993M2098.884 58.622c-273.265-73.496-568.936-78.286-861.926.22-292.993 78.508-546.656 230.492-746.563 430.773M1236.896 3275.597c273.265 73.496 568.936 78.286 861.93-.22 292.99-78.508 546.652-230.492 746.56-430.773M59.404 1236.117c-73.498 273.266-78.286 568.936.22 861.926 78.507 292.99 230.49 546.654 430.773 746.56M490.397 2844.603c206.598 206.216 464.612 355.18 746.5 430.994M1805.005 1606.24l5.8-21.64-21.68-5.81a150.02 150.02 0 0 1 8.688 13.31c2.64 4.563 5.034 9.288 7.192 14.14zM1546.656 1755.398l-21.64-5.8 5.808-21.68a150.297 150.297 0 0 0 7.18 14.18 149.742 149.742 0 0 0 8.652 13.3zM1683.734 1187.93l-15.842-15.842-15.87 15.87a150.19 150.19 0 0 1 15.87-.87c5.273-.005 10.56.286 15.842.843zM1683.734 782.93l-15.842-15.842-15.87 15.87a150.19 150.19 0 0 1 15.87-.87c5.273-.005 10.56.286 15.842.843zM1683.734 227.93l-15.842-15.842-15.87 15.87a150.19 150.19 0 0 1 15.87-.87c5.273-.005 10.56.286 15.842.843zM1683.734 2146.246l-15.842 15.843-15.87-15.872c5.26.564 10.556.866 15.87.87 5.273.006 10.56-.285 15.842-.842zM1683.734 2551.246l-15.842 15.843-15.87-15.872c5.26.564 10.556.866 15.87.87 5.273.005 10.56-.285 15.842-.842zM1683.734 3106.246l-15.842 15.842-15.87-15.87c5.26.564 10.556.865 15.87.87 5.273.005 10.56-.285 15.842-.842zM1906.076 1822.918l21.64-5.8-5.808-21.68a150.297 150.297 0 0 1-7.18 14.18 149.742 149.742 0 0 1-8.652 13.3zM2178.874 1980.418l21.64-5.8-5.81-21.68a150.297 150.297 0 0 1-7.18 14.18 149.742 149.742 0 0 1-8.65 13.3zM2568.585 2205.418l21.64-5.8-5.808-21.68a150.297 150.297 0 0 1-7.18 14.18 149.742 149.742 0 0 1-8.652 13.3zM3101.19 2512.918l21.642-5.8-5.81-21.68a150.297 150.297 0 0 1-7.18 14.18 149.742 149.742 0 0 1-8.65 13.3zM1413.9 1538.76l-5.8-21.64 21.68-5.81a150.02 150.02 0 0 0-8.688 13.31 149.634 149.634 0 0 0-7.192 14.14zM1141.102 1381.26l-5.8-21.64 21.68-5.81a150.02 150.02 0 0 0-8.688 13.31 149.634 149.634 0 0 0-7.192 14.14zM751.39 1156.26l-5.798-21.64 21.68-5.81a150.02 150.02 0 0 0-8.69 13.31 149.634 149.634 0 0 0-7.19 14.14zM218.785 848.76l-5.8-21.64 21.68-5.81a150.02 150.02 0 0 0-8.688 13.31 149.634 149.634 0 0 0-7.192 14.14zM1040.03 2047.898l-21.64-5.8 5.81-21.68a150.297 150.297 0 0 0 7.18 14.18 149.742 149.742 0 0 0 8.65 13.3z"/><path d="M611.35 2295.398l-21.642-5.8 5.81-21.68a150.297 150.297 0 0 0 7.18 14.18 149.742 149.742 0 0 0 8.65 13.3zM2311.63 1313.74l5.798-21.64-21.68-5.81a150.02 150.02 0 0 1 8.69 13.31c2.64 4.563 5.033 9.288 7.19 14.14zM2740.312 1066.24l5.8-21.64-21.68-5.81a150.02 150.02 0 0 1 8.688 13.31c2.64 4.563 5.034 9.288 7.192 14.14zM1682.89 1877.088c0 8.284-6.715 15-15 15-8.283 0-15-6.716-15-15 0-8.284 6.717-15 15-15 8.285 0 15 6.716 15 15zM1358.15 1854.6c0 8.283-6.716 15-15 15-8.284 0-15-6.717-15-15 0-8.285 6.716-15 15-15 8.284 0 15 6.715 15 15zM1682.89 1457.088c0 8.284-6.715 15-15 15-8.283 0-15-6.716-15-15 0-8.284 6.717-15 15-15 8.285 0 15 6.716 15 15zM2007.67 1479.6c0 8.283-6.717 15-15 15-8.285 0-15-6.717-15-15 0-8.285 6.715-15 15-15 8.283 0 15 6.715 15 15z"/></g><path d="M1698 1676c0 16.57-13.43 30-30 30s-30-13.43-30-30v-9c0-16.57 13.43-30 30-30s30 13.43 30 30v9zm19-53.162a66.397 66.397 0 0 0-18-14.083 65.578 65.578 0 0 0-31-7.755c-11.2 0-21.75 2.812-31 7.755a66.397 66.397 0 0 0-18 14.083c-10.56 11.705-17 27.194-17 44.162 0 36.393 29.607 66 66 66s66-29.607 66-66c0-16.968-6.44-32.457-17-44.162z" fill="#BFA1D4"/><path d="M1668 1697c-16.57 0-30-13.43-30-30v9c0 16.57 13.43 30 30 30s30-13.43 30-30v-9c0 16.57-13.43 30-30 30" fill="#AB8DC1"/><path d="M1668 1641.5c-14.06 0-25.5 11.44-25.5 25.5s11.44 25.5 25.5 25.5 25.5-11.44 25.5-25.5-11.44-25.5-25.5-25.5" fill="#FFF"/><path d="M1637 1579.5c0-17.093 13.907-31 31-31s31 13.907 31 31v19.21a74.68 74.68 0 0 0-31-6.71 74.684 74.684 0 0 0-31 6.71v-19.21zm31 153.5c-36.392 0-66-29.607-66-66 0-16.968 6.44-32.457 17-44.162a66.412 66.412 0 0 1 18-14.083 65.59 65.59 0 0 1 31-7.755c11.2 0 21.75 2.813 31 7.755a66.397 66.397 0 0 1 18 14.083c10.56 11.705 17 27.194 17 44.162 0 36.393-29.607 66-66 66zm49-122.753V1579.5c0-27.02-21.98-49-49-49s-49 21.98-49 49v30.747c-15.915 13.753-26 34.07-26 56.753 0 41.422 33.58 75 75 75 41.422 0 75-33.578 75-75 0-22.684-10.085-43-26-56.753z" fill="#3B1854"/><path d="M1668 1692.5c-14.06 0-25.5-11.44-25.5-25.5s11.44-25.5 25.5-25.5 25.5 11.44 25.5 25.5-11.44 25.5-25.5 25.5m0-55.5c-16.57 0-30 13.43-30 30s13.43 30 30 30 30-13.43 30-30-13.43-30-30-30" fill="#3B1854"/></g></svg>