<svg id="Layer_1" data-name="Layer 1" xmlns="http://www.w3.org/2000/svg" xmlns:xlink="http://www.w3.org/1999/xlink" viewBox="0 0 100 35.328"><defs><clipPath id="clip-path" transform="translate(-0.008)"><polygon points="12.395 14.561 25.17 7.137 34.351 12.438 21.576 19.862 12.395 14.561" style="fill:none"/></clipPath><clipPath id="clip-path-2" transform="translate(-0.008)"><polygon points="67.376 11.065 73.96 7.239 85.561 13.936 78.977 17.763 67.376 11.065" style="fill:none"/></clipPath></defs><title>workflow</title><path d="M2.157,10.117L21.569,0.411a3.889,3.889,0,0,1,3.478,0L44.46,10.117a3.889,3.889,0,0,1,2.15,3.478v8.138a3.889,3.889,0,0,1-2.15,3.478L25.048,34.917a3.889,3.889,0,0,1-3.478,0L2.157,25.211a3.889,3.889,0,0,1-2.15-3.478V13.595A3.889,3.889,0,0,1,2.157,10.117Z" transform="translate(-0.008)" style="fill:#e6e6e6"/><g style="isolation:isolate"><g style="clip-path:url(#clip-path)"><path d="M14.963,15.2a0.79,0.79,0,0,1-.449-0.641,0.742,0.742,0,0,1,.455-0.627,2.1,2.1,0,0,1,1.08-.265,2.167,2.167,0,0,1,1.1.265,0.757,0.757,0,0,1,.455.63,0.742,0.742,0,0,1-.455.627,2.1,2.1,0,0,1-1.08.265,2.327,2.327,0,0,1-1.1-.254m12.811-1.062a0.776,0.776,0,0,1-.455-0.638,0.755,0.755,0,0,1,.461-0.63,2.1,2.1,0,0,1,1.08-.265,2.167,2.167,0,0,1,1.1.265,0.757,0.757,0,0,1,.455.63,0.742,0.742,0,0,1-.455.627,2.127,2.127,0,0,1-1.087.269,2.243,2.243,0,0,1-1.1-.258M24.1,9.887a0.766,0.766,0,0,1-.468-0.63A0.742,0.742,0,0,1,24.09,8.63a2.127,2.127,0,0,1,1.087-.269,2.246,2.246,0,0,1,1.1.262,0.771,0.771,0,0,1,.449.634,0.755,0.755,0,0,1-.461.63,2.1,2.1,0,0,1-1.08.265A2.139,2.139,0,0,1,24.1,9.887M27.009,8.2a3.96,3.96,0,0,0-3.666,0,1.494,1.494,0,0,0-.671.678,0.939,0.939,0,0,0,.023.763l-5.988,3.48a4.385,4.385,0,0,0-1.317-.011,3.194,3.194,0,0,0-1.169.391,1.273,1.273,0,0,0-.764,1.058,1.31,1.31,0,0,0,.776,1.065,3.745,3.745,0,0,0,1.835.442,3.638,3.638,0,0,0,1.824-.446,1.309,1.309,0,0,0,.758-1q0.143,0.017.477,0.033c0.236,0.011.395,0.022,0.49,0.033a3.445,3.445,0,0,1,1.021.405,7.724,7.724,0,0,0,3.67.8,8.724,8.724,0,0,0,2.118-.269,7.832,7.832,0,0,0,1.772-.667l-0.013-.007a4.731,4.731,0,0,0,1.349.007,3.194,3.194,0,0,0,1.169-.391,1.273,1.273,0,0,0,.764-1.058,1.291,1.291,0,0,0-.776-1.058,3.961,3.961,0,0,0-3.659,0,1.494,1.494,0,0,0-.671.678,0.891,0.891,0,0,0,.023.763l-0.273.159a3.835,3.835,0,0,1-1.831.4,3.862,3.862,0,0,1-1.835-.4,6.71,6.71,0,0,0-2.251-.822L24.528,10.7a4.644,4.644,0,0,0,1.317.011,3.194,3.194,0,0,0,1.169-.391,1.278,1.278,0,0,0,.77-1.062A1.291,1.291,0,0,0,27.009,8.2" transform="translate(-0.008)" style="fill:#555"/></g></g><polygon points="45.802 11.285 45.802 11.285 45.802 11.286 45.802 11.285" style="fill:#bbb"/><polygon points="0.8 11.285 0.8 11.285 0.8 11.286 0.8 11.285" style="fill:#bbb"/><path d="M3.239,12.5A1.279,1.279,0,0,0,2.6,13.595v1.48l19.417,9.709v7.461L22.727,32.6a1.3,1.3,0,0,0,1.163,0l0.713-.357V24.784l19.417-9.709v-1.48a1.279,1.279,0,0,0-.643-1.093L23.309,22.536Z" transform="translate(-0.008)" style="fill:#bbb"/><polygon points="46.602 13.594 46.602 13.595 46.602 13.595 46.602 13.594" style="fill:#bbb"/><path d="M46.4,12.385c-0.008-.023-0.021-0.044-0.03-0.067C46.377,12.341,46.39,12.362,46.4,12.385Z" transform="translate(-0.008)" style="fill:#bbb"/><polygon points="0 13.595 0 13.595 0 13.594 0 13.595" style="fill:#bbb"/><path d="M0.219,12.385c0.008-.023.021-0.044,0.03-0.067C0.24,12.341.227,12.362,0.219,12.385Z" transform="translate(-0.008)" style="fill:#bbb"/><path d="M23.309,2.589a1.307,1.307,0,0,1,.581.137L43.3,12.432a1.293,1.293,0,0,1,.719,1.163v8.138A1.293,1.293,0,0,1,43.3,22.9L23.89,32.6a1.3,1.3,0,0,1-1.163,0L3.315,22.9A1.293,1.293,0,0,1,2.6,21.733V13.595a1.293,1.293,0,0,1,.719-1.163L22.727,2.726a1.307,1.307,0,0,1,.581-0.137m0-2.589a3.888,3.888,0,0,0-1.739.411L2.157,10.117a3.889,3.889,0,0,0-2.15,3.478v8.138a3.889,3.889,0,0,0,2.15,3.478l19.412,9.706a3.889,3.889,0,0,0,3.478,0L44.46,25.211a3.889,3.889,0,0,0,2.15-3.478V13.595a3.889,3.889,0,0,0-2.15-3.478L25.048,0.411A3.888,3.888,0,0,0,23.309,0h0Z" transform="translate(-0.008)" style="fill:#555"/><path d="M55.555,10.117L74.968,0.411a3.889,3.889,0,0,1,3.478,0l19.412,9.706a3.889,3.889,0,0,1,2.15,3.478v8.138a3.889,3.889,0,0,1-2.15,3.478L78.446,34.917a3.889,3.889,0,0,1-3.478,0L55.555,25.211a3.889,3.889,0,0,1-2.15-3.478V13.595A3.889,3.889,0,0,1,55.555,10.117Z" transform="translate(-0.008)" style="fill:#e6e6e6"/><polygon points="99.2 11.285 99.2 11.285 99.2 11.286 99.2 11.285" style="fill:#bbb"/><polygon points="54.198 11.285 54.198 11.285 54.198 11.286 54.198 11.285" style="fill:#bbb"/><path d="M56.637,12.5a1.279,1.279,0,0,0-.643,1.093v1.48l19.417,9.709v7.461L76.125,32.6a1.3,1.3,0,0,0,1.163,0L78,32.245V24.784l19.417-9.709v-1.48a1.279,1.279,0,0,0-.643-1.093L76.707,22.536Z" transform="translate(-0.008)" style="fill:#bbb"/><polygon points="100 13.594 100 13.595 100 13.595 100 13.594" style="fill:#bbb"/><path d="M99.8,12.385c-0.008-.023-0.021-0.044-0.03-0.067C99.775,12.341,99.788,12.362,99.8,12.385Z" transform="translate(-0.008)" style="fill:#bbb"/><polygon points="53.398 13.595 53.398 13.595 53.398 13.594 53.398 13.595" style="fill:#bbb"/><path d="M53.617,12.385c0.008-.023.021-0.044,0.03-0.067C53.638,12.341,53.626,12.362,53.617,12.385Z" transform="translate(-0.008)" style="fill:#bbb"/><path d="M76.707,2.589a1.307,1.307,0,0,1,.581.137L96.7,12.432a1.293,1.293,0,0,1,.719,1.163v8.138A1.293,1.293,0,0,1,96.7,22.9L77.288,32.6a1.3,1.3,0,0,1-1.163,0L56.713,22.9a1.293,1.293,0,0,1-.719-1.163V13.595a1.293,1.293,0,0,1,.719-1.163L76.125,2.726a1.307,1.307,0,0,1,.581-0.137m0-2.589a3.888,3.888,0,0,0-1.739.411L55.555,10.117a3.889,3.889,0,0,0-2.15,3.478v8.138a3.889,3.889,0,0,0,2.15,3.478l19.412,9.706a3.889,3.889,0,0,0,3.478,0l19.412-9.706a3.889,3.889,0,0,0,2.15-3.478V13.595a3.889,3.889,0,0,0-2.15-3.478L78.446,0.411A3.888,3.888,0,0,0,76.707,0h0Z" transform="translate(-0.008)" style="fill:#555"/><g style="isolation:isolate"><g style="clip-path:url(#clip-path-2)"><path d="M74.658,13.557A1.314,1.314,0,0,1,73.9,12.5a1.268,1.268,0,0,1,.745-1.054,3.713,3.713,0,0,1,1.824-.439,3.614,3.614,0,0,1,1.816.439,1.294,1.294,0,0,1,.77,1.054,1.285,1.285,0,0,1-.758,1.054A3.664,3.664,0,0,1,76.486,14a3.886,3.886,0,0,1-1.829-.439m5.106-2.967a6.564,6.564,0,0,0-2.747-.77,7.654,7.654,0,0,0-2.919.358l-2.6-1.5-1.649.958,2.6,1.5a1.843,1.843,0,0,0-.608,1.692,2.555,2.555,0,0,0,1.339,1.589,6.453,6.453,0,0,0,2.741.767,7.686,7.686,0,0,0,2.925-.354l2.6,1.5,1.649-.958-2.6-1.5a1.845,1.845,0,0,0,.6-1.7,2.566,2.566,0,0,0-1.333-1.585" transform="translate(-0.008)" style="fill:#555"/></g></g></svg>