<svg data-name="Layer 1" xmlns="http://www.w3.org/2000/svg" viewBox="0 0 88.682 100"><title>logo-node.js</title><path d="M44.328 100a7.69 7.69 0 0 1-3.844-1.028l-12.235-7.24c-1.826-1.02-.935-1.382-.332-1.59a24.566 24.566 0 0 0 5.532-2.517.946.946 0 0 1 .91.067l9.4 5.58a1.2 1.2 0 0 0 1.137 0l36.643-21.15a1.154 1.154 0 0 0 .56-.988V28.84a1.182 1.182 0 0 0-.567-1.01L44.903 6.7a1.147 1.147 0 0 0-1.128 0L7.153 27.836a1.176 1.176 0 0 0-.58 1V71.13a1.12 1.12 0 0 0 .578.98l10.04 5.8c5.447 2.72 8.782-.49 8.782-3.71V32.45a1.055 1.055 0 0 1 1.068-1.057h4.646a1.06 1.06 0 0 1 1.054 1.056V74.2c0 7.268-3.96 11.438-10.85 11.438-2.118 0-3.788 0-8.442-2.29L3.84 77.813A7.735 7.735 0 0 1 0 71.134V28.84a7.724 7.724 0 0 1 3.84-6.68L40.487.984a8.03 8.03 0 0 1 7.7 0L84.83 22.16a7.738 7.738 0 0 1 3.852 6.68v42.29a7.75 7.75 0 0 1-3.85 6.682L48.19 98.97a7.7 7.7 0 0 1-3.862 1.03z" fill="#8cc84b"/><path d="M55.647 70.864c-16.036 0-19.4-7.36-19.4-13.532a1.055 1.055 0 0 1 1.06-1.06h4.743a1.066 1.066 0 0 1 1.053.9c.714 4.825 2.847 7.262 12.545 7.262 7.72 0 11.006-1.747 11.006-5.842 0-2.36-.93-4.114-12.93-5.29C43.7 52.31 37.5 50.093 37.5 42.07c0-7.39 6.232-11.8 16.682-11.8 11.74 0 17.547 4.075 18.284 12.817a1.06 1.06 0 0 1-1.054 1.153h-4.756a1.055 1.055 0 0 1-1.028-.828c-1.142-5.073-3.916-6.694-11.445-6.694-8.43 0-9.408 2.94-9.408 5.135 0 2.665 1.156 3.44 12.536 4.947 11.263 1.492 16.61 3.6 16.61 11.515-.003 7.977-6.658 12.547-18.27 12.547z" fill="#8cc84b"/></svg>