<svg xmlns="http://www.w3.org/2000/svg" viewBox="0 0 82.545 100"><defs><linearGradient id="a" x1="28.951" y1="87.828" x2="109.903" y2="18.18" gradientTransform="matrix(.563 0 0 -.568 -9.583 52.26)" gradientUnits="userSpaceOnUse"><stop offset="0" stop-color="#5a9fd4"/><stop offset="1" stop-color="#306998"/></linearGradient><linearGradient id="b" x1="141.199" y1="-23.974" x2="112.291" y2="16.925" gradientTransform="matrix(.563 0 0 -.568 -9.583 52.26)" gradientUnits="userSpaceOnUse"><stop offset="0" stop-color="#ffd43b"/><stop offset="1" stop-color="#ffe873"/></linearGradient><radialGradient id="c" cx="226.809" cy="-21.543" r="21.562" gradientTransform="matrix(0 -.24 -1.055 0 27.454 149.248)" gradientUnits="userSpaceOnUse"><stop offset="0" stop-color="#b8b8b8" stop-opacity=".498"/><stop offset="1" stop-color="#7f7f7f" stop-opacity="0"/></radialGradient></defs><title>logo-python</title><path d="M49.51 0a56.85 56.85 0 0 0-9.515.812c-8.425 1.488-9.955 4.6-9.955 10.35v7.588h19.91v2.53H22.567c-5.786 0-10.853 3.478-12.438 10.094-1.83 7.584-1.91 12.316 0 20.235 1.415 5.89 4.794 10.09 10.58 10.09h6.847v-9.1a12.653 12.653 0 0 1 12.437-12.362H59.88a10.03 10.03 0 0 0 9.956-10.117V11.163c0-5.4-4.552-9.45-9.955-10.35A62.1 62.1 0 0 0 49.51 0zM38.74 6.1a3.794 3.794 0 1 1-3.735 3.806A3.778 3.778 0 0 1 38.74 6.1z" transform="translate(-8.728)" fill="url(#a)"/><path d="M72.32 21.28v8.84a12.77 12.77 0 0 1-12.44 12.625H39.995a10.157 10.157 0 0 0-9.955 10.117v18.96c0 5.4 4.69 8.568 9.954 10.116a33.31 33.31 0 0 0 19.887 0c5.013-1.45 9.956-4.372 9.956-10.117v-7.587H49.95V61.7h29.84c5.787 0 7.944-4.036 9.956-10.094 2.08-6.237 1.99-12.234 0-20.235-1.43-5.76-4.16-10.093-9.955-10.093h-7.47zM61.133 69.29a3.795 3.795 0 1 1-3.734 3.784 3.758 3.758 0 0 1 3.734-3.783z" transform="translate(-8.728)" fill="url(#b)"/><path d="M76.856 94.826c0 2.857-11.946 5.174-26.68 5.174s-26.682-2.316-26.682-5.174 11.946-5.174 26.68-5.174 26.682 2.317 26.682 5.174z" transform="translate(-8.728)" style="isolation:isolate" opacity=".444" fill="url(#c)"/></svg>