<svg id="Layer_1" data-name="Layer 1" xmlns="http://www.w3.org/2000/svg" viewBox="0 0 100 35.16"><title>logo-rails</title><path d="M86.992,63.008V67.58h8.26a4.724,4.724,0,0,0,4.7-4.7V61.114a4.665,4.665,0,0,0-4.7-4.7H91.135V54.294h8.159V49.7h-7.83a4.807,4.807,0,0,0-4.723,4.774v1.591a4.722,4.722,0,0,0,4.723,4.7c5.683,0.025-1.364,0,3.89,0v2.223" transform="translate(0.05 -32.42)" style="fill:#c00"/><path d="M42.739,61.9s4.42-.379,4.42-6.087A6.034,6.034,0,0,0,41.8,49.571H32.155V67.58H37V63.236L41.2,67.58h7.174Zm-1.869-3.688H37V54.092h3.89a2.03,2.03,0,0,1,1.086,2.046A2.084,2.084,0,0,1,40.869,58.209Z" transform="translate(0.05 -32.42)" style="fill:#c00"/><path d="M59.132,49.7H54.206a4.731,4.731,0,0,0-4.7,4.7V67.58h4.925V64.423h4.622V67.58H63.83V54.4A4.66,4.66,0,0,0,59.132,49.7Zm-0.076,9.624H54.408v-4.37s0-.985,1.541-0.985h1.692a1.157,1.157,0,0,1,1.389.985v4.37h0.025Z" transform="translate(0.05 -32.42)" style="fill:#c00"/><rect x="66.128" y="17.277" width="5.128" height="17.883" style="fill:#c00"/><polygon points="78.454 30.538 78.454 17.277 73.352 17.277 73.352 30.538 73.352 35.16 78.454 35.16 85.35 35.16 85.35 30.538 78.454 30.538" style="fill:#c00"/><path d="M1.718,67.58H21.673s-3.814-17.4,8.815-24.451c2.753-1.339,11.518-6.34,25.865,4.269,0.455-.379.884-0.682,0.884-0.682S44.1,33.607,29.478,35.072c-7.35.657-16.393,7.35-21.7,16.191A43.691,43.691,0,0,0,1.718,67.58Z" transform="translate(0.05 -32.42)" style="fill:#c00"/><path d="M1.718,67.58H21.673s-3.814-17.4,8.815-24.451c2.753-1.339,11.518-6.34,25.865,4.269,0.455-.379.884-0.682,0.884-0.682S44.1,33.607,29.478,35.072c-7.35.657-16.393,7.35-21.7,16.191A43.691,43.691,0,0,0,1.718,67.58Z" transform="translate(0.05 -32.42)" style="fill:#c00"/><path d="M1.718,67.58H21.673s-3.814-17.4,8.815-24.451c2.753-1.339,11.518-6.34,25.865,4.269,0.455-.379.884-0.682,0.884-0.682S44.1,33.607,29.478,35.072c-7.376.657-16.418,7.35-21.723,16.191A43.335,43.335,0,0,0,1.718,67.58Z" transform="translate(0.05 -32.42)" style="fill:#c00"/><path d="M43.294,36.486l0.1-1.692a12.352,12.352,0,0,0-2.45-.884l-0.1,1.667C41.678,35.855,42.486,36.158,43.294,36.486Z" transform="translate(0.05 -32.42)" style="fill:#c00"/><path d="M40.895,41.841l-0.1,1.591a14.085,14.085,0,0,1,2.5.3l0.1-1.566A17.887,17.887,0,0,0,40.895,41.841Z" transform="translate(0.05 -32.42)" style="fill:#c00"/><path d="M31.549,33.961H31.8L31.3,32.42a20.154,20.154,0,0,0-2.425.152l0.48,1.49A21.324,21.324,0,0,1,31.549,33.961Z" transform="translate(0.05 -32.42)" style="fill:#c00"/><path d="M32.761,43.256L33.342,45a15.98,15.98,0,0,1,2.2-.884l-0.556-1.667A18.326,18.326,0,0,0,32.761,43.256Z" transform="translate(0.05 -32.42)" style="fill:#c00"/><path d="M21.294,36.613L20.157,34.87c-0.631.328-1.288,0.682-1.97,1.086l1.162,1.768C20.006,37.32,20.637,36.941,21.294,36.613Z" transform="translate(0.05 -32.42)" style="fill:#c00"/><path d="M26.472,47.979L27.684,49.8A14.025,14.025,0,0,1,29.175,48l-1.137-1.718A13.974,13.974,0,0,0,26.472,47.979Z" transform="translate(0.05 -32.42)" style="fill:#c00"/><path d="M22.809,56.113l2.046,1.617a20.172,20.172,0,0,1,.53-2.955l-1.819-1.44A24.016,24.016,0,0,0,22.809,56.113Z" transform="translate(0.05 -32.42)" style="fill:#c00"/><path d="M11.746,44.115L9.953,42.549c-0.657.631-1.288,1.263-1.869,1.894l1.945,1.667A25.581,25.581,0,0,1,11.746,44.115Z" transform="translate(0.05 -32.42)" style="fill:#c00"/><path d="M4.118,55.405l-2.9-1.061C0.733,55.431.2,56.694-.05,57.376l2.9,1.061C3.183,57.578,3.714,56.34,4.118,55.405Z" transform="translate(0.05 -32.42)" style="fill:#c00"/><path d="M22.43,62.528a25.661,25.661,0,0,0,.3,3.183L25.765,66.8a33.385,33.385,0,0,1-.606-3.284Z" transform="translate(0.05 -32.42)" style="fill:#c00"/></svg>