<svg id="Layer_1" data-name="Layer 1" xmlns="http://www.w3.org/2000/svg" viewBox="0 0 88.974 99.999"><title>logo-c++</title><path d="M50,35.287A14.71,14.71,0,0,0,37.227,57.3l25.5-14.681A14.7,14.7,0,0,0,50,35.287Z" transform="translate(-5.513 0)" style="fill:#5f96ce"/><path d="M20.453,50A29.55,29.55,0,0,1,75.585,35.213l17.81-10.255a8.5,8.5,0,0,0-3.219-3.136Q72.409,11.577,54.633,1.346a8.726,8.726,0,0,0-9.456.093C40.463,4.22,16.858,17.744,9.824,21.818A8.215,8.215,0,0,0,5.517,29.4Q5.511,50,5.513,70.6a8.875,8.875,0,0,0,1.04,4.358L24.366,64.7A29.414,29.414,0,0,1,20.453,50Z" transform="translate(-5.513 0)" style="fill:#5f96ce"/><path d="M37.227,57.3a14.71,14.71,0,0,0,25.594-.085L50.136,49.866Z" transform="translate(-5.513 0)" style="fill:#054e86"/><path d="M50,79.547A29.536,29.536,0,0,1,24.366,64.7L6.553,74.96A8.459,8.459,0,0,0,9.82,78.181c7.034,4.074,30.642,17.6,35.356,20.378a8.729,8.729,0,0,0,9.459.094Q72.4,88.4,90.18,78.177a8.459,8.459,0,0,0,3.267-3.221l-17.785-10.3A29.538,29.538,0,0,1,50,79.547Z" transform="translate(-5.513 0)" style="fill:#054e86"/><path d="M94.483,29.4A8.838,8.838,0,0,0,93.4,24.957L50.136,49.866,93.447,74.957a8.886,8.886,0,0,0,1.04-4.358S94.487,43.136,94.483,29.4ZM79.752,51.66H76.368v3.385H72.983V51.66H69.6V48.276h3.384V44.891h3.385v3.385h3.384V51.66Zm12.349,0H88.717v3.385H85.332V51.66H81.948V48.276h3.384V44.891h3.385v3.385H92.1V51.66Z" transform="translate(-5.513 0)" style="fill:#0062a1"/><polygon points="83.204 44.891 79.819 44.891 79.819 48.275 76.435 48.275 76.435 51.66 79.819 51.66 79.819 55.045 83.204 55.045 83.204 51.66 86.588 51.66 86.588 48.275 83.204 48.275 83.204 44.891" style="fill:#fff"/><polygon points="70.855 44.891 67.47 44.891 67.47 48.275 64.086 48.275 64.086 51.66 67.47 51.66 67.47 55.045 70.855 55.045 70.855 51.66 74.239 51.66 74.239 48.275 70.855 48.275 70.855 44.891" style="fill:#fff"/><path d="M62.821,57.214a14.713,14.713,0,1,1-.1-14.6l12.86-7.4a29.547,29.547,0,1,0,.077,29.441Z" transform="translate(-5.513 0)" style="fill:#fff"/></svg>