<svg id="Layer_1" data-name="Layer 1" xmlns="http://www.w3.org/2000/svg" viewBox="0 0 100 100"><title>logo-php</title><rect width="100" height="100" style="fill:#6f81b9"/><path d="M31.753,39.573H18.893l-5.56,28.152h6.6l1.39-7.3h6.257c5.908,0.348,12.512-4.518,12.512-12.86C40.095,42.7,37.315,39.922,31.753,39.573Zm-4.865,15.64H22.717l1.738-10.427h4.518c2.433,0,4.17,1.043,4.17,3.128C32.8,53.823,30.015,54.865,26.888,55.213Zm11.89,5.213,5.56-28.152h6.6l-1.39,7.3h6.257c5.56,0.348,7.647,3.128,6.952,6.6l-2.433,14.25H53.375l2.433-12.86c0.348-1.738.348-2.78-2.085-2.78H48.51l-3.128,15.64h-6.6ZM78.325,39.573H65.467l-5.56,28.152h6.6l1.39-7.3h6.257c5.907,0.347,12.51-4.518,12.51-12.86C86.667,42.7,83.887,39.922,78.325,39.573ZM73.46,55.213H69.29l1.738-10.427h4.518c2.433,0,4.17,1.043,4.17,3.128C79.368,53.823,76.588,54.865,73.46,55.213Z" transform="translate(0 0)" style="fill:#fff"/></svg>