<svg xmlns="http://www.w3.org/2000/svg" viewBox="0 0 100 100"><path fill="#5382A1" d="M36.877 77.336s-3.82 2.222 2.72 2.974c7.924.904 11.974.774 20.707-.878 0 0 2.296 1.44 5.502 2.686-19.577 8.39-44.305-.486-28.93-4.782M34.484 66.387s-4.286 3.173 2.26 3.85c8.465.873 15.15.945 26.717-1.283 0 0 1.6 1.622 4.117 2.51-23.668 6.92-50.03.545-33.093-5.077"/><path fill="#E76F00" d="M54.65 47.815c4.825 5.553-1.266 10.55-1.266 10.55s12.248-6.322 6.623-14.24c-5.253-7.383-9.282-11.05 12.528-23.7 0 0-34.235 8.55-17.884 27.39"/><path fill="#5382A1" d="M80.542 85.434s2.828 2.33-3.114 4.133c-11.3 3.423-47.03 4.457-56.956.136-3.568-1.552 3.123-3.706 5.228-4.158 2.195-.476 3.45-.387 3.45-.387-3.97-2.795-25.65 5.49-11.013 7.86 39.913 6.473 72.758-2.914 62.405-7.584M38.714 55.043s-18.175 4.317-6.436 5.884c4.956.664 14.837.513 24.04-.258 7.522-.635 15.074-1.984 15.074-1.984s-2.652 1.136-4.57 2.446c-18.457 4.854-54.11 2.596-43.847-2.37 8.68-4.195 15.74-3.72 15.74-3.72M71.318 73.267C90.08 63.517 81.405 54.15 75.35 55.41c-1.484.31-2.146.578-2.146.578s.55-.863 1.603-1.237c11.978-4.21 21.19 12.42-3.867 19.008 0 0 .29-.258.378-.49"/><path fill="#E76F00" d="M60.006 0s10.39 10.394-9.855 26.377c-16.234 12.82-3.7 20.13-.006 28.484-9.476-8.55-16.43-16.076-11.765-23.08C45.226 21.495 64.2 16.51 60.005 0"/><path fill="#5382A1" d="M40.558 99.686c18.01 1.153 45.663-.64 46.318-9.16 0 0-1.26 3.23-14.883 5.795-15.37 2.894-34.33 2.556-45.573.702 0 0 2.302 1.905 14.138 2.664"/></svg>