<?xml version="1.0" encoding="utf-8"?>
<!-- Generator: Adobe Illustrator 19.2.0, SVG Export Plug-In . SVG Version: 6.00 Build 0)  -->
<!DOCTYPE svg PUBLIC "-//W3C//DTD SVG 1.1//EN" "http://www.w3.org/Graphics/SVG/1.1/DTD/svg11.dtd">
<svg version="1.1" id="Layer_1" xmlns="http://www.w3.org/2000/svg" xmlns:xlink="http://www.w3.org/1999/xlink" x="0px" y="0px"
	 viewBox="0 0 100 100" enable-background="new 0 0 100 100" xml:space="preserve">
<path fill="#5382A1" d="M36.877,77.336c0,0-3.821,2.222,2.72,2.974c7.924,0.904,11.974,0.774,20.707-0.878
	c0,0,2.296,1.44,5.502,2.686C46.229,90.508,21.501,81.632,36.877,77.336"/>
<path fill="#5382A1" d="M34.484,66.387c0,0-4.286,3.173,2.26,3.85c8.465,0.873,15.15,0.945,26.717-1.283c0,0,1.6,1.622,4.116,2.509
	C43.909,78.384,17.546,72.009,34.484,66.387"/>
<path fill="#E76F00" d="M54.651,47.815c4.824,5.553-1.267,10.551-1.267,10.551s12.248-6.323,6.623-14.24
	c-5.253-7.384-9.282-11.052,12.528-23.701C72.534,20.425,38.3,28.975,54.651,47.815"/>
<path fill="#5382A1" d="M80.542,85.434c0,0,2.828,2.33-3.114,4.133c-11.3,3.423-47.03,4.457-56.956,0.136
	c-3.568-1.552,3.123-3.706,5.228-4.158c2.195-0.476,3.449-0.387,3.449-0.387c-3.968-2.795-25.648,5.489-11.012,7.861
	C58.05,99.491,90.895,90.104,80.542,85.434"/>
<path fill="#5382A1" d="M38.714,55.043c0,0-18.175,4.317-6.436,5.884c4.956,0.664,14.837,0.513,24.04-0.258
	c7.522-0.634,15.074-1.983,15.074-1.983s-2.652,1.136-4.571,2.446c-18.456,4.854-54.11,2.596-43.846-2.369
	C31.656,54.567,38.714,55.043,38.714,55.043"/>
<path fill="#5382A1" d="M71.318,73.267c18.762-9.749,10.087-19.118,4.032-17.856c-1.484,0.309-2.146,0.577-2.146,0.577
	s0.551-0.863,1.603-1.237c11.978-4.211,21.19,12.42-3.867,19.007C70.941,73.759,71.231,73.5,71.318,73.267"/>
<path fill="#E76F00" d="M60.006,0c0,0,10.39,10.394-9.855,26.377c-16.235,12.821-3.702,20.131-0.007,28.484
	c-9.476-8.55-16.431-16.077-11.765-23.082C45.227,21.496,64.199,16.51,60.006,0"/>
<path fill="#5382A1" d="M40.558,99.686c18.009,1.153,45.663-0.64,46.318-9.161c0,0-1.259,3.23-14.883,5.796
	c-15.371,2.893-34.329,2.555-45.573,0.701C26.42,97.021,28.722,98.927,40.558,99.686"/>
</svg>
