<svg data-name="Layer 1" xmlns="http://www.w3.org/2000/svg" viewBox="0 0 100 100"><title>logo-php</title><path fill="#6f81b9" d="M0 0h100v100H0z"/><path d="M31.753 39.573h-12.86l-5.56 28.152h6.6l1.39-7.3h6.257c5.908.348 12.512-4.518 12.512-12.86.003-4.865-2.777-7.643-8.34-7.992zm-4.865 15.64h-4.17l1.737-10.427h4.518c2.433 0 4.17 1.043 4.17 3.128-.343 5.91-3.128 6.95-6.255 7.3zm11.89 5.213l5.56-28.152h6.6l-1.39 7.3h6.257c5.56.348 7.647 3.128 6.952 6.6l-2.433 14.25h-6.95l2.434-12.86c.348-1.738.348-2.78-2.085-2.78H48.51l-3.128 15.64h-6.6zm39.547-20.853H65.467l-5.56 28.152h6.6l1.39-7.3h6.257c5.907.347 12.51-4.518 12.51-12.86.003-4.865-2.777-7.643-8.34-7.992zm-4.865 15.64h-4.17l1.738-10.427h4.518c2.433 0 4.17 1.043 4.17 3.128-.348 5.91-3.128 6.95-6.256 7.3z" fill="#fff"/></svg>