<svg data-name="Layer 1" xmlns="http://www.w3.org/2000/svg" viewBox="0 0 100 35.16"><title>logo-rails</title><path d="M87.042 30.588v4.572h8.26a4.724 4.724 0 0 0 4.7-4.7v-1.766a4.665 4.665 0 0 0-4.7-4.7h-4.117v-2.12h8.16V17.28h-7.83a4.807 4.807 0 0 0-4.724 4.774v1.59a4.722 4.722 0 0 0 4.724 4.7c5.683.026-1.364 0 3.89 0v2.224M42.79 29.48s4.42-.38 4.42-6.087a6.034 6.034 0 0 0-5.36-6.242h-9.645v18.01h4.845v-4.344l4.2 4.344h7.174zm-1.87-3.688h-3.87v-4.12h3.89a2.03 2.03 0 0 1 1.086 2.046 2.084 2.084 0 0 1-1.107 2.07zM59.182 17.28h-4.926a4.73 4.73 0 0 0-4.7 4.7v13.18h4.925v-3.157h4.623v3.157h4.777V21.98a4.66 4.66 0 0 0-4.698-4.7zm-.076 9.624h-4.648v-4.37s0-.985 1.54-.985h1.693a1.157 1.157 0 0 1 1.39.984v4.37h.025zM66.128 17.277h5.128V35.16h-5.128zM78.454 30.538v-13.26h-5.102V35.16H85.35v-4.622h-6.896z" fill="#c00"/><path d="M1.768 35.16h19.955s-3.814-17.4 8.815-24.45c2.753-1.34 11.518-6.34 25.865 4.268.455-.38.884-.682.884-.682S44.15 1.186 29.527 2.652c-7.35.657-16.392 7.35-21.7 16.19a43.69 43.69 0 0 0-6.06 16.318z" fill="#c00"/><path d="M1.768 35.16h19.955s-3.814-17.4 8.815-24.45c2.753-1.34 11.518-6.34 25.865 4.268.455-.38.884-.682.884-.682S44.15 1.186 29.527 2.652c-7.35.657-16.392 7.35-21.7 16.19a43.69 43.69 0 0 0-6.06 16.318z" fill="#c00"/><path d="M1.768 35.16h19.955s-3.814-17.4 8.815-24.45c2.753-1.34 11.518-6.34 25.865 4.268.455-.38.884-.682.884-.682S44.15 1.186 29.527 2.652c-7.375.657-16.417 7.35-21.722 16.19A43.335 43.335 0 0 0 1.768 35.16zM43.344 4.066l.1-1.692a12.352 12.352 0 0 0-2.45-.884l-.1 1.667c.834.278 1.642.58 2.45.91z" fill="#c00"/><path d="M40.945 9.42l-.1 1.592a14.085 14.085 0 0 1 2.5.3l.1-1.566a17.887 17.887 0 0 0-2.5-.325zM31.6 1.54h.25L31.35 0a20.154 20.154 0 0 0-2.425.152l.48 1.49a21.324 21.324 0 0 1 2.194-.1zM32.81 10.836l.582 1.744a15.98 15.98 0 0 1 2.2-.884l-.556-1.667a18.326 18.326 0 0 0-2.225.806zM21.344 4.193L20.207 2.45a40.2 40.2 0 0 0-1.97 1.086L19.4 5.304c.656-.404 1.287-.783 1.944-1.11zM26.522 15.56l1.212 1.82a14.025 14.025 0 0 1 1.49-1.8l-1.136-1.718a13.974 13.974 0 0 0-1.566 1.697zM22.86 23.693l2.045 1.617a20.172 20.172 0 0 1 .53-2.955l-1.82-1.44a24.016 24.016 0 0 0-.756 2.778zM11.796 11.695l-1.793-1.566a43.63 43.63 0 0 0-1.87 1.893l1.946 1.667a25.58 25.58 0 0 1 1.716-1.995zM4.168 22.985l-2.9-1.06C.783 23.01.25 24.274 0 24.954l2.9 1.062c.333-.86.864-2.097 1.268-3.032zM22.48 30.108a25.66 25.66 0 0 0 .3 3.183l3.035 1.09a33.385 33.385 0 0 1-.606-3.284z" fill="#c00"/></svg>