<svg data-name="Layer 1" xmlns="http://www.w3.org/2000/svg" xmlns:xlink="http://www.w3.org/1999/xlink" viewBox="0 0 100 99.722"><defs><linearGradient id="b" x1="87.858" y1="-8.511" x2="66.762" y2="28.735" gradientTransform="matrix(1 0 0 -1 0 100.28)" gradientUnits="userSpaceOnUse"><stop offset="0" stop-color="#fb7655"/><stop offset=".41" stop-color="#e42b1e"/><stop offset=".99" stop-color="#900"/><stop offset="1" stop-color="#900"/></linearGradient><linearGradient id="a" x1="98.367" y1="22.778" x2="71.179" y2="41.023" gradientTransform="matrix(1 0 0 -1 0 100.28)" gradientUnits="userSpaceOnUse"><stop offset="0" stop-color="#871101"/><stop offset=".99" stop-color="#911209"/><stop offset="1" stop-color="#911209"/></linearGradient><linearGradient id="c" x1="76.614" y1="-9.639" x2="49.427" y2="8.605" xlink:href="#a"/><linearGradient id="d" x1="19.531" y1="35.985" x2="23.745" y2="8.593" gradientTransform="matrix(1 0 0 -1 0 100.28)" gradientUnits="userSpaceOnUse"><stop offset="0" stop-color="#fff"/><stop offset=".23" stop-color="#e57252"/><stop offset=".46" stop-color="#de3b20"/><stop offset=".99" stop-color="#a60003"/><stop offset="1" stop-color="#a60003"/></linearGradient><linearGradient id="e" x1="48.52" y1="61.562" x2="50.073" y2="33.607" gradientTransform="matrix(1 0 0 -1 0 100.28)" gradientUnits="userSpaceOnUse"><stop offset="0" stop-color="#fff"/><stop offset=".23" stop-color="#e4714e"/><stop offset=".56" stop-color="#be1a0d"/><stop offset=".99" stop-color="#a80d00"/><stop offset="1" stop-color="#a80d00"/></linearGradient><linearGradient id="f" x1="74.246" y1="87.4" x2="78.895" y2="67.365" gradientTransform="matrix(1 0 0 -1 0 100.28)" gradientUnits="userSpaceOnUse"><stop offset="0" stop-color="#fff"/><stop offset=".18" stop-color="#e46342"/><stop offset=".4" stop-color="#c82410"/><stop offset=".99" stop-color="#a80d00"/><stop offset="1" stop-color="#a80d00"/></linearGradient><linearGradient id="g" x1="60.05" y1="94.456" x2="80.083" y2="104.473" gradientTransform="matrix(1 0 0 -1 0 100.28)" gradientUnits="userSpaceOnUse"><stop offset="0" stop-color="#fff"/><stop offset=".54" stop-color="#c81f11"/><stop offset=".99" stop-color="#bf0905"/><stop offset="1" stop-color="#bf0905"/></linearGradient><linearGradient id="h" x1="1.97" y1="42.968" x2="3.619" y2="26.46" gradientTransform="matrix(1 0 0 -1 0 100.28)" gradientUnits="userSpaceOnUse"><stop offset="0" stop-color="#fff"/><stop offset=".31" stop-color="#de4024"/><stop offset=".99" stop-color="#bf190b"/><stop offset="1" stop-color="#bf190b"/></linearGradient><linearGradient id="i" x1="-9.366" y1="21.997" x2="68.144" y2="101.699" gradientTransform="matrix(1 0 0 -1 0 100.42)" gradientUnits="userSpaceOnUse"><stop offset="0" stop-color="#bd0012"/><stop offset=".07" stop-color="#fff"/><stop offset=".17" stop-color="#fff"/><stop offset=".27" stop-color="#c82f1c"/><stop offset=".33" stop-color="#820c01"/><stop offset=".46" stop-color="#a31601"/><stop offset=".72" stop-color="#b31301"/><stop offset=".99" stop-color="#e82609"/><stop offset="1" stop-color="#e82609"/></linearGradient><linearGradient id="j" x1="50.005" y1="13.958" x2="26.658" y2="19.72" gradientTransform="matrix(1 0 0 -1 0 100.42)" gradientUnits="userSpaceOnUse"><stop offset="0" stop-color="#8c0c01"/><stop offset=".54" stop-color="#990c00"/><stop offset=".99" stop-color="#a80d0e"/><stop offset="1" stop-color="#a80d0e"/></linearGradient><linearGradient id="k" x1="90.105" y1="41.979" x2="69.365" y2="60.568" gradientTransform="matrix(1 0 0 -1 0 100.42)" gradientUnits="userSpaceOnUse"><stop offset="0" stop-color="#7e110b"/><stop offset=".99" stop-color="#9e0c00"/><stop offset="1" stop-color="#9e0c00"/></linearGradient><linearGradient id="l" x1="97.725" y1="76.086" x2="87.394" y2="87.131" gradientTransform="matrix(1 0 0 -1 0 100.42)" gradientUnits="userSpaceOnUse"><stop offset="0" stop-color="#79130d"/><stop offset=".99" stop-color="#9e120b"/><stop offset="1" stop-color="#9e120b"/></linearGradient><radialGradient id="m" cx="72.595" cy="60.212" r="25.416" gradientTransform="matrix(1 0 0 -1 0 100.42)" gradientUnits="userSpaceOnUse"><stop offset="0" stop-color="#a80d00"/><stop offset=".99" stop-color="#7e0e08"/><stop offset="1" stop-color="#7e0e08"/></radialGradient><radialGradient id="n" cx="37.396" cy="26.718" r="33.788" gradientTransform="matrix(1 0 0 -1 0 100.42)" gradientUnits="userSpaceOnUse"><stop offset="0" stop-color="#a30c00"/><stop offset=".99" stop-color="#800e08"/><stop offset="1" stop-color="#800e08"/></radialGradient><linearGradient id="o" x1="13.461" y1=".682" x2="5.042" y2="29.246" gradientTransform="matrix(1 0 0 -1 0 100.42)" gradientUnits="userSpaceOnUse"><stop offset="0" stop-color="#8b2114"/><stop offset=".43" stop-color="#9e100a"/><stop offset=".99" stop-color="#b3100c"/><stop offset="1" stop-color="#b3100c"/></linearGradient><linearGradient id="p" x1="78.05" y1="95.336" x2="96.926" y2="87.004" gradientTransform="matrix(1 0 0 -1 0 100.42)" gradientUnits="userSpaceOnUse"><stop offset="0" stop-color="#b31000"/><stop offset=".44" stop-color="#910f08"/><stop offset=".99" stop-color="#791c12"/><stop offset="1" stop-color="#791c12"/></linearGradient></defs><title>logo-ruby</title><path fill="url(#b)" d="M77.474 65.82L20.38 99.722l73.926-5.016L100 20.164 77.474 65.82z"/><path fill="url(#a)" d="M94.427 94.655L88.073 50.8 70.766 73.654l23.66 21z"/><path fill="url(#c)" d="M94.513 94.655L47.963 91l-27.335 8.627 73.885-4.972z"/><path fill="url(#d)" d="M20.693 99.637l11.63-38.097-25.59 5.472 13.96 32.625z"/><path fill="url(#e)" d="M70.762 73.78l-10.7-41.912L29.44 60.57l41.322 13.21z"/><path fill="url(#f)" d="M97.572 32.458L68.627 8.818l-8.06 26.058 37.005-2.418z"/><path fill="url(#g)" d="M84.036.39L67.012 9.796 56.272.262 84.035.39z"/><path fill="url(#h)" d="M0 79.79l7.132-13.006-5.77-15.494L0 79.79z"/><path d="M.98 50.8l5.803 16.46L32 61.606l28.8-26.76 8.124-25.81L56.124 0 34.376 8.14c-6.854 6.376-20.153 18.988-20.632 19.22S4.96 43.31.98 50.8z" fill="#fff"/><path d="M21.36 21.362c14.854-14.728 34-23.43 41.352-16.015s-.445 25.433-15.3 40.153S13.65 69.406 6.3 61.992s.206-25.907 15.06-40.63z" transform="translate(0 -.14)" fill="url(#i)"/><path d="M20.693 99.76L32.23 61.543l38.32 12.31C56.7 86.843 41.286 97.827 20.693 99.76z" transform="translate(0 -.14)" fill="url(#j)"/><path d="M60.85 34.91l9.836 38.963C82.26 61.7 92.646 48.623 97.733 32.44z" transform="translate(0 -.14)" fill="url(#k)"/><path d="M97.633 32.638c3.937-11.88 4.845-28.926-13.72-32.09L68.684 8.96z" transform="translate(0 -.14)" fill="url(#l)"/><path d="M0 79.62c.545 19.608 14.692 19.9 20.72 20.072L6.8 67.182z" fill="#9e1209"/><path d="M60.9 34.97c8.9 5.466 26.82 16.443 27.184 16.645.565.318 7.727-12.078 9.352-19.083z" transform="translate(0 -.14)" fill="url(#m)"/><path d="M32.216 61.543L47.64 91.3a99.73 99.73 0 0 0 22.8-17.428z" transform="translate(0 -.14)" fill="url(#n)"/><path d="M6.738 67.362L4.553 93.386c4.124 5.633 9.8 6.122 15.747 5.683C15.995 88.353 7.394 66.927 6.738 67.36z" transform="translate(0 -.14)" fill="url(#o)"/><path d="M68.59 9.027l30.642 4.3C97.6 6.4 92.576 1.927 84.016.527z" transform="translate(0 -.14)" fill="url(#p)"/></svg>