<svg id="svg2" xmlns="http://www.w3.org/2000/svg" xmlns:xlink="http://www.w3.org/1999/xlink" viewBox="0 0 82.545 100"><defs><linearGradient id="linear-gradient" x1="28.951" y1="87.828" x2="109.903" y2="18.18" gradientTransform="matrix(0.563, 0, 0, -0.568, -9.583, 52.26)" gradientUnits="userSpaceOnUse"><stop offset="0" stop-color="#5a9fd4"/><stop offset="1" stop-color="#306998"/></linearGradient><linearGradient id="linear-gradient-2" x1="141.199" y1="-23.974" x2="112.291" y2="16.925" gradientTransform="matrix(0.563, 0, 0, -0.568, -9.583, 52.26)" gradientUnits="userSpaceOnUse"><stop offset="0" stop-color="#ffd43b"/><stop offset="1" stop-color="#ffe873"/></linearGradient><radialGradient id="radial-gradient" cx="226.809" cy="-21.543" r="21.562" gradientTransform="matrix(0, -0.24, -1.055, 0, 27.454, 149.248)" gradientUnits="userSpaceOnUse"><stop offset="0" stop-color="#b8b8b8" stop-opacity="0.498"/><stop offset="1" stop-color="#7f7f7f" stop-opacity="0"/></radialGradient></defs><title>logo-python</title><g id="g2303"><path id="path1948" d="M49.509,0a56.851,56.851,0,0,0-9.514.812c-8.425,1.488-9.955,4.6-9.955,10.35V18.75h19.91V21.28H22.567c-5.786,0-10.853,3.478-12.438,10.094-1.828,7.584-1.909,12.316,0,20.235C11.545,57.5,14.924,61.7,20.711,61.7h6.846v-9.1A12.653,12.653,0,0,1,39.994,40.238H59.881a10.031,10.031,0,0,0,9.955-10.117V11.162c0-5.4-4.552-9.449-9.955-10.35A62.1,62.1,0,0,0,49.509,0ZM38.741,6.1a3.794,3.794,0,1,1-3.736,3.806A3.778,3.778,0,0,1,38.741,6.1Z" transform="translate(-8.728)" style="fill:url(#linear-gradient)"/><path id="path1950" d="M72.319,21.28v8.841A12.77,12.77,0,0,1,59.881,42.745H39.994a10.157,10.157,0,0,0-9.955,10.117V71.821c0,5.4,4.692,8.569,9.955,10.117a33.311,33.311,0,0,0,19.887,0c5.012-1.451,9.955-4.372,9.955-10.117V64.233H49.949V61.7H79.791c5.786,0,7.943-4.036,9.955-10.094,2.079-6.237,1.99-12.234,0-20.235-1.43-5.76-4.161-10.094-9.955-10.094H72.319ZM61.134,69.291A3.795,3.795,0,1,1,57.4,73.074,3.758,3.758,0,0,1,61.134,69.291Z" transform="translate(-8.728)" style="fill:url(#linear-gradient-2)"/><path id="path1894" d="M76.856,94.826c0,2.857-11.946,5.174-26.681,5.174s-26.681-2.316-26.681-5.174,11.946-5.174,26.681-5.174S76.856,91.969,76.856,94.826Z" transform="translate(-8.728)" style="opacity:0.44382017850875854;isolation:isolate;fill:url(#radial-gradient)"/></g></svg>