<svg data-name="Layer 1" xmlns="http://www.w3.org/2000/svg" viewBox="0 0 88.974 99.999"><title>logo-c++</title><path d="M44.487 35.287A14.71 14.71 0 0 0 31.714 57.3l25.5-14.68a14.7 14.7 0 0 0-12.727-7.333z" fill="#5f96ce"/><path d="M14.94 50a29.55 29.55 0 0 1 55.132-14.787l17.81-10.255a8.5 8.5 0 0 0-3.22-3.136Q66.897 11.577 49.12 1.346a8.726 8.726 0 0 0-9.456.093C34.95 4.22 11.344 17.743 4.31 21.817A8.215 8.215 0 0 0 .005 29.4Q-.002 50 0 70.6a8.875 8.875 0 0 0 1.04 4.358L18.853 64.7A29.414 29.414 0 0 1 14.94 50z" fill="#5f96ce"/><path d="M31.714 57.3a14.71 14.71 0 0 0 25.594-.085l-12.685-7.35z" fill="#054e86"/><path d="M44.487 79.547A29.536 29.536 0 0 1 18.853 64.7L1.04 74.96a8.46 8.46 0 0 0 3.267 3.22c7.034 4.075 30.642 17.6 35.356 20.38a8.73 8.73 0 0 0 9.46.093Q66.886 88.4 84.666 78.177a8.46 8.46 0 0 0 3.267-3.22l-17.785-10.3a29.538 29.538 0 0 1-25.663 14.89z" fill="#054e86"/><path d="M88.97 29.4a8.838 8.838 0 0 0-1.083-4.443l-43.264 24.91 43.31 25.09a8.886 8.886 0 0 0 1.04-4.358s0-27.464-.003-41.2zM74.24 51.66h-3.385v3.385H67.47V51.66h-3.383v-3.384h3.384V44.89h3.386v3.386h3.384v3.384zm12.348 0h-3.384v3.385H79.82V51.66h-3.385v-3.384h3.384V44.89h3.384v3.386h3.383v3.384z" fill="#0062a1"/><path fill="#fff" d="M83.204 44.89H79.82v3.385h-3.385v3.385h3.384v3.385h3.384V51.66h3.384v-3.385h-3.384V44.89zM70.855 44.89H67.47v3.385h-3.384v3.385h3.384v3.385h3.385V51.66h3.384v-3.385h-3.385V44.89z"/><path d="M57.308 57.214a14.713 14.713 0 1 1-.1-14.6l12.86-7.4a29.547 29.547 0 1 0 .077 29.44z" fill="#fff"/></svg>