<svg id="Layer_1" data-name="Layer 1" xmlns="http://www.w3.org/2000/svg" xmlns:xlink="http://www.w3.org/1999/xlink" viewBox="0 0 100 99.722"><defs><linearGradient id="linear-gradient" x1="87.858" y1="-8.511" x2="66.762" y2="28.735" gradientTransform="matrix(1, 0, 0, -1, 0, 100.281)" gradientUnits="userSpaceOnUse"><stop offset="0" stop-color="#fb7655"/><stop offset="0.41" stop-color="#e42b1e"/><stop offset="0.99" stop-color="#900"/><stop offset="1" stop-color="#900"/></linearGradient><linearGradient id="linear-gradient-2" x1="98.367" y1="22.778" x2="71.179" y2="41.023" gradientTransform="matrix(1, 0, 0, -1, 0, 100.281)" gradientUnits="userSpaceOnUse"><stop offset="0" stop-color="#871101"/><stop offset="0.99" stop-color="#911209"/><stop offset="1" stop-color="#911209"/></linearGradient><linearGradient id="linear-gradient-3" x1="76.614" y1="-9.639" x2="49.427" y2="8.605" xlink:href="#linear-gradient-2"/><linearGradient id="linear-gradient-4" x1="19.531" y1="35.985" x2="23.745" y2="8.593" gradientTransform="matrix(1, 0, 0, -1, 0, 100.281)" gradientUnits="userSpaceOnUse"><stop offset="0" stop-color="#fff"/><stop offset="0.23" stop-color="#e57252"/><stop offset="0.46" stop-color="#de3b20"/><stop offset="0.99" stop-color="#a60003"/><stop offset="1" stop-color="#a60003"/></linearGradient><linearGradient id="linear-gradient-5" x1="48.52" y1="61.562" x2="50.073" y2="33.607" gradientTransform="matrix(1, 0, 0, -1, 0, 100.281)" gradientUnits="userSpaceOnUse"><stop offset="0" stop-color="#fff"/><stop offset="0.23" stop-color="#e4714e"/><stop offset="0.56" stop-color="#be1a0d"/><stop offset="0.99" stop-color="#a80d00"/><stop offset="1" stop-color="#a80d00"/></linearGradient><linearGradient id="linear-gradient-6" x1="74.246" y1="87.4" x2="78.895" y2="67.365" gradientTransform="matrix(1, 0, 0, -1, 0, 100.281)" gradientUnits="userSpaceOnUse"><stop offset="0" stop-color="#fff"/><stop offset="0.18" stop-color="#e46342"/><stop offset="0.4" stop-color="#c82410"/><stop offset="0.99" stop-color="#a80d00"/><stop offset="1" stop-color="#a80d00"/></linearGradient><linearGradient id="linear-gradient-7" x1="60.05" y1="94.456" x2="80.083" y2="104.473" gradientTransform="matrix(1, 0, 0, -1, 0, 100.281)" gradientUnits="userSpaceOnUse"><stop offset="0" stop-color="#fff"/><stop offset="0.54" stop-color="#c81f11"/><stop offset="0.99" stop-color="#bf0905"/><stop offset="1" stop-color="#bf0905"/></linearGradient><linearGradient id="linear-gradient-8" x1="1.97" y1="42.968" x2="3.619" y2="26.46" gradientTransform="matrix(1, 0, 0, -1, 0, 100.281)" gradientUnits="userSpaceOnUse"><stop offset="0" stop-color="#fff"/><stop offset="0.31" stop-color="#de4024"/><stop offset="0.99" stop-color="#bf190b"/><stop offset="1" stop-color="#bf190b"/></linearGradient><linearGradient id="linear-gradient-9" x1="-9.366" y1="21.997" x2="68.144" y2="101.699" gradientTransform="matrix(1, 0, 0, -1, 0, 100.42)" gradientUnits="userSpaceOnUse"><stop offset="0" stop-color="#bd0012"/><stop offset="0.07" stop-color="#fff"/><stop offset="0.17" stop-color="#fff"/><stop offset="0.27" stop-color="#c82f1c"/><stop offset="0.33" stop-color="#820c01"/><stop offset="0.46" stop-color="#a31601"/><stop offset="0.72" stop-color="#b31301"/><stop offset="0.99" stop-color="#e82609"/><stop offset="1" stop-color="#e82609"/></linearGradient><linearGradient id="linear-gradient-10" x1="50.005" y1="13.958" x2="26.658" y2="19.72" gradientTransform="matrix(1, 0, 0, -1, 0, 100.42)" gradientUnits="userSpaceOnUse"><stop offset="0" stop-color="#8c0c01"/><stop offset="0.54" stop-color="#990c00"/><stop offset="0.99" stop-color="#a80d0e"/><stop offset="1" stop-color="#a80d0e"/></linearGradient><linearGradient id="linear-gradient-11" x1="90.105" y1="41.979" x2="69.365" y2="60.568" gradientTransform="matrix(1, 0, 0, -1, 0, 100.42)" gradientUnits="userSpaceOnUse"><stop offset="0" stop-color="#7e110b"/><stop offset="0.99" stop-color="#9e0c00"/><stop offset="1" stop-color="#9e0c00"/></linearGradient><linearGradient id="linear-gradient-12" x1="97.725" y1="76.086" x2="87.394" y2="87.131" gradientTransform="matrix(1, 0, 0, -1, 0, 100.42)" gradientUnits="userSpaceOnUse"><stop offset="0" stop-color="#79130d"/><stop offset="0.99" stop-color="#9e120b"/><stop offset="1" stop-color="#9e120b"/></linearGradient><radialGradient id="radial-gradient" cx="72.595" cy="60.212" r="25.416" gradientTransform="matrix(1, 0, 0, -1, 0, 100.42)" gradientUnits="userSpaceOnUse"><stop offset="0" stop-color="#a80d00"/><stop offset="0.99" stop-color="#7e0e08"/><stop offset="1" stop-color="#7e0e08"/></radialGradient><radialGradient id="radial-gradient-2" cx="37.396" cy="26.718" r="33.788" gradientTransform="matrix(1, 0, 0, -1, 0, 100.42)" gradientUnits="userSpaceOnUse"><stop offset="0" stop-color="#a30c00"/><stop offset="0.99" stop-color="#800e08"/><stop offset="1" stop-color="#800e08"/></radialGradient><linearGradient id="linear-gradient-13" x1="13.461" y1="0.682" x2="5.042" y2="29.246" gradientTransform="matrix(1, 0, 0, -1, 0, 100.42)" gradientUnits="userSpaceOnUse"><stop offset="0" stop-color="#8b2114"/><stop offset="0.43" stop-color="#9e100a"/><stop offset="0.99" stop-color="#b3100c"/><stop offset="1" stop-color="#b3100c"/></linearGradient><linearGradient id="linear-gradient-14" x1="78.05" y1="95.336" x2="96.926" y2="87.004" gradientTransform="matrix(1, 0, 0, -1, 0, 100.42)" gradientUnits="userSpaceOnUse"><stop offset="0" stop-color="#b31000"/><stop offset="0.44" stop-color="#910f08"/><stop offset="0.99" stop-color="#791c12"/><stop offset="1" stop-color="#791c12"/></linearGradient></defs><title>logo-ruby</title><polygon id="polygon3282" points="77.474 65.82 20.381 99.722 94.306 94.706 100 20.164 77.474 65.82" style="fill:url(#linear-gradient)"/><polygon id="polygon3293" points="94.427 94.655 88.073 50.8 70.766 73.654 94.427 94.655" style="fill:url(#linear-gradient-2)"/><polygon id="polygon3304" points="94.513 94.655 47.963 91.001 20.628 99.627 94.513 94.655" style="fill:url(#linear-gradient-3)"/><polygon id="polygon3319" points="20.693 99.637 32.322 61.54 6.733 67.012 20.693 99.637" style="fill:url(#linear-gradient-4)"/><polygon id="polygon3334" points="70.762 73.78 60.062 31.868 29.44 60.571 70.762 73.78" style="fill:url(#linear-gradient-5)"/><polygon id="polygon3349" points="97.572 32.458 68.627 8.817 60.566 34.876 97.572 32.458" style="fill:url(#linear-gradient-6)"/><polygon id="polygon3362" points="84.036 0.389 67.012 9.797 56.271 0.262 84.036 0.389" style="fill:url(#linear-gradient-7)"/><polygon id="polygon3375" points="0 79.791 7.132 66.784 1.363 51.29 0 79.791" style="fill:url(#linear-gradient-8)"/><path id="path3377" d="M0.979,50.939L6.783,67.4,32,61.744,60.8,34.984,68.924,9.173l-12.8-9.034L34.376,8.28C27.522,14.655,14.223,27.267,13.744,27.5S4.961,43.449.979,50.939Z" transform="translate(0 -0.139)" style="fill:#fff"/><path id="path3400" d="M21.36,21.362c14.854-14.728,34-23.429,41.352-16.015S62.267,30.78,47.413,45.5,13.648,69.406,6.3,61.992,6.506,36.085,21.36,21.362Z" transform="translate(0 -0.139)" style="fill:url(#linear-gradient-9)"/><path id="path3413" d="M20.693,99.76L32.231,61.543,70.55,73.853C56.7,86.844,41.286,97.827,20.693,99.76Z" transform="translate(0 -0.139)" style="fill:url(#linear-gradient-10)"/><path id="path3424" d="M60.849,34.909l9.837,38.964C82.259,61.7,92.646,48.622,97.733,32.441Z" transform="translate(0 -0.139)" style="fill:url(#linear-gradient-11)"/><path id="path3435" d="M97.633,32.638C101.57,20.757,102.478,3.712,83.914.548L68.682,8.961Z" transform="translate(0 -0.139)" style="fill:url(#linear-gradient-12)"/><path id="path3437" d="M0,79.758c0.545,19.609,14.692,19.9,20.719,20.073L6.8,67.322Z" transform="translate(0 -0.139)" style="fill:#9e1209"/><path id="path3448" d="M60.9,34.969C69.8,40.436,87.72,51.413,88.084,51.615c0.565,0.318,7.727-12.078,9.352-19.083Z" transform="translate(0 -0.139)" style="fill:url(#radial-gradient)"/><path id="path3459" d="M32.216,61.543L47.64,91.3a99.73,99.73,0,0,0,22.8-17.428Z" transform="translate(0 -0.139)" style="fill:url(#radial-gradient-2)"/><path id="path3472" d="M6.738,67.362L4.553,93.386c4.124,5.633,9.8,6.122,15.747,5.683C15.995,88.354,7.394,66.928,6.738,67.362Z" transform="translate(0 -0.139)" style="fill:url(#linear-gradient-13)"/><path id="path3485" d="M68.591,9.027l30.641,4.3C97.6,6.4,92.576,1.926,84.016.527Z" transform="translate(0 -0.139)" style="fill:url(#linear-gradient-14)"/></svg>