<svg id="Layer_1" data-name="Layer 1" xmlns="http://www.w3.org/2000/svg" viewBox="0 0 88.682 100"><title>logo-node.js</title><path d="M49.988,100a7.691,7.691,0,0,1-3.844-1.028L33.909,91.733c-1.825-1.02-.934-1.383-0.331-1.591a24.566,24.566,0,0,0,5.532-2.517,0.946,0.946,0,0,1,.911.067l9.4,5.581a1.2,1.2,0,0,0,1.136,0L87.2,72.122a1.154,1.154,0,0,0,.561-0.988V28.84a1.182,1.182,0,0,0-.568-1.01L50.564,6.7a1.147,1.147,0,0,0-1.129,0L12.813,27.836a1.176,1.176,0,0,0-.579,1V71.131a1.121,1.121,0,0,0,.577.978l10.038,5.8c5.448,2.72,8.783-.488,8.783-3.709V32.449A1.055,1.055,0,0,1,32.7,31.393h4.646A1.059,1.059,0,0,1,38.4,32.449V74.2c0,7.268-3.96,11.438-10.851,11.438-2.117,0-3.787,0-8.441-2.291L9.5,77.814A7.735,7.735,0,0,1,5.66,71.133V28.84A7.724,7.724,0,0,1,9.5,22.16L46.147,0.984a8.03,8.03,0,0,1,7.7,0L90.491,22.16a7.738,7.738,0,0,1,3.851,6.68V71.131a7.75,7.75,0,0,1-3.851,6.681L53.85,98.97A7.7,7.7,0,0,1,49.988,100Z" transform="translate(-5.66)" style="fill:#8cc84b"/><path d="M61.307,70.864c-16.036,0-19.4-7.361-19.4-13.532a1.055,1.055,0,0,1,1.06-1.059H47.71a1.066,1.066,0,0,1,1.053.9c0.714,4.824,2.847,7.261,12.545,7.261,7.72,0,11.006-1.747,11.006-5.842,0-2.361-.931-4.114-12.929-5.291-10.026-.988-16.227-3.207-16.227-11.228,0-7.391,6.232-11.8,16.682-11.8,11.739,0,17.547,4.074,18.284,12.816a1.059,1.059,0,0,1-1.054,1.154H72.314a1.055,1.055,0,0,1-1.028-.828c-1.142-5.073-3.916-6.694-11.445-6.694-8.43,0-9.409,2.938-9.409,5.134,0,2.665,1.156,3.441,12.536,4.947,11.263,1.492,16.61,3.6,16.61,11.515C79.575,66.294,72.92,70.864,61.307,70.864Z" transform="translate(-5.66)" style="fill:#8cc84b"/></svg>