<svg xmlns="http://www.w3.org/2000/svg" viewBox="0 0 18 14">
	<path fill="#FFFFFF" d="M15.003,14H2.997C1.342,14,0,12.658,0,11.003V3c0-1.657,1.343-3,3-3h12.003C16.658,0,18,1.342,18,2.997v8.006C18,12.658,16.658,14,15.003,14z"/>
	<path opacity="0.1" d="M15.003,1C16.104,1,17,1.896,17,2.997v8.006C17,12.104,16.104,13,15.003,13H2.997C1.896,13,1,12.104,1,11.003V3c0-1.103,0.897-2,2-2H15.003 M15.003,0H3C1.343,0,0,1.343,0,3v8.003C0,12.658,1.342,14,2.997,14h12.006C16.658,14,18,12.658,18,11.003V2.997C18,1.342,16.658,0,15.003,0L15.003,0z"/>
	<path fill="#1E7DAF" d="M5,10H4V6c0-1.105,0.895-2,2-2h1v4C7,9.105,6.105,10,5,10z"/>
	<path fill="#E62932" d="M8.5,10h-1V6c0-1.105,0.895-2,2-2h1v4C10.5,9.105,9.605,10,8.5,10z"/>
	<path fill="#31B74D" d="M12,10h-1V6c0-1.105,0.895-2,2-2h1v4C14,9.105,13.105,10,12,10z"/>
</svg>
