<svg xmlns="http://www.w3.org/2000/svg" viewBox="0 0 18 14">
	<path fill="#0CA6F2" d="M15.003,14H2.997C1.342,14,0,12.658,0,11.003V3c0-1.657,1.343-3,3-3h12.003C16.658,0,18,1.342,18,2.997v8.006C18,12.658,16.658,14,15.003,14z"/>
	<path opacity="0.2" d="M15.003,1C16.104,1,17,1.896,17,2.997v8.006C17,12.104,16.104,13,15.003,13H2.997C1.896,13,1,12.104,1,11.003V3c0-1.103,0.897-2,2-2H15.003 M15.003,0H3C1.343,0,0,1.343,0,3v8.003C0,12.658,1.342,14,2.997,14h12.006C16.658,14,18,12.658,18,11.003V2.997C18,1.342,16.658,0,15.003,0L15.003,0z"/>
	<path fill="#FFFFFF" d="M14.89,7.086l1.012,1.141h1.057l-1.537-1.712l1.537-1.731h-1.012l-1.044,1.128l-1.012-1.128h-3.307v3.443h3.255L14.89,7.086z M11.402,7.514V6.827h1.803v-0.7h-1.803V5.498h2.062l0.901,1.005l-0.94,1.012H11.402z"/>
	<path fill="#FFFFFF" d="M4.242,8.228h1.673V5.53l1.193,2.698h0.726L9.022,5.53l0.006,2.698h0.811V4.784H8.503L7.511,7.119L6.434,4.784H5.092V8.04L3.698,4.784H2.472L1,8.228h0.895l0.318-0.772h1.712L4.242,8.228z M2.504,6.743l0.564-1.375l0.564,1.375H2.504z"/>
</svg>
