<?xml version="1.0" encoding="utf-8"?>
<!-- Generator: Adobe Illustrator 18.1.1, SVG Export Plug-In . SVG Version: 6.00 Build 0)  -->
<!DOCTYPE svg PUBLIC "-//W3C//DTD SVG 1.1//EN" "http://www.w3.org/Graphics/SVG/1.1/DTD/svg11.dtd">
<svg version="1.1" id="Layer_1" xmlns="http://www.w3.org/2000/svg" xmlns:xlink="http://www.w3.org/1999/xlink" x="0px" y="0px"
	 viewBox="0 0 30 30" enable-background="new 0 0 30 30" xml:space="preserve">
<path d="M25.5,28h-21C3.1,28,2,26.9,2,25.5v-21C2,3.1,3.1,2,4.5,2h21C26.9,2,28,3.1,28,4.5v21C28,26.9,26.9,28,25.5,28z M4.5,4
	C4.3,4,4,4.3,4,4.5v21C4,25.7,4.3,26,4.5,26h21c0.2,0,0.5-0.3,0.5-0.5v-21C26,4.3,25.7,4,25.5,4H4.5z"/>
<path d="M23.6,7.7H6.5C6.2,7.7,6,7.5,6,7.2s0.2-0.5,0.5-0.5h17.1c0.3,0,0.5,0.2,0.5,0.5S23.9,7.7,23.6,7.7z"/>
<path d="M23.6,11.6H6.5c-0.3,0-0.5-0.2-0.5-0.5s0.2-0.5,0.5-0.5h17.1c0.3,0,0.5,0.2,0.5,0.5S23.9,11.6,23.6,11.6z"/>
<path d="M23.5,15.5h-17C6.2,15.5,6,15.3,6,15s0.2-0.5,0.5-0.5h17c0.3,0,0.5,0.2,0.5,0.5S23.8,15.5,23.5,15.5z"/>
<path d="M23.5,19.4h-17c-0.3,0-0.5-0.2-0.5-0.5s0.2-0.5,0.5-0.5h17c0.3,0,0.5,0.2,0.5,0.5S23.8,19.4,23.5,19.4z"/>
<path d="M23.5,23.3h-17c-0.3,0-0.5-0.2-0.5-0.5s0.2-0.5,0.5-0.5h17c0.3,0,0.5,0.2,0.5,0.5S23.8,23.3,23.5,23.3z"/>
</svg>
