<?xml version="1.0" encoding="utf-8"?>
<!-- Generator: Adobe Illustrator 18.1.1, SVG Export Plug-In . SVG Version: 6.00 Build 0)  -->
<!DOCTYPE svg PUBLIC "-//W3C//DTD SVG 1.1//EN" "http://www.w3.org/Graphics/SVG/1.1/DTD/svg11.dtd">
<svg version="1.1" id="Layer_1" xmlns="http://www.w3.org/2000/svg" xmlns:xlink="http://www.w3.org/1999/xlink" x="0px" y="0px"
	 viewBox="0 0 30 30" enable-background="new 0 0 30 30" xml:space="preserve">
<g>
	<path d="M15,28C7.8,28,2,22.2,2,15C2,7.8,7.8,2,15,2c7.2,0,13,5.8,13,13C28,22.2,22.2,28,15,28z M15,4C8.9,4,4,8.9,4,15
		s4.9,11,11,11s11-4.9,11-11S21.1,4,15,4z"/>
	<path d="M13.2,20.5c-0.3,0-0.5-0.1-0.7-0.3c-0.4-0.4-0.4-1,0-1.4l3.8-3.8l-3.8-3.8c-0.4-0.4-0.4-1,0-1.4s1-0.4,1.4,0l5.2,5.2
		L14,20.2C13.8,20.4,13.5,20.5,13.2,20.5z"/>
</g>
</svg>
