<?xml version="1.0" encoding="utf-8"?>
<!-- Generator: Adobe Illustrator 17.1.0, SVG Export Plug-In . SVG Version: 6.00 Build 0)  -->
<!DOCTYPE svg PUBLIC "-//W3C//DTD SVG 1.1//EN" "http://www.w3.org/Graphics/SVG/1.1/DTD/svg11.dtd">
<svg version="1.1" id="Layer_1" xmlns="http://www.w3.org/2000/svg" xmlns:xlink="http://www.w3.org/1999/xlink" x="0px" y="0px"
	 viewBox="0 0 30 30" enable-background="new 0 0 30 30" xml:space="preserve">
<g id="flash_2_">
	<path fill="none" stroke="#5B3777" stroke-width="2" stroke-miterlimit="10" d="M13.68,17.257c0.076-0.257-0.08-0.347-0.349-0.347
		H8.755c-0.269,0-0.347-0.29-0.176-0.496c0,0,9.428-12.527,9.613-12.768c0.139-0.226,0.291-0.18,0.241,0.082
		c-0.071,0.333-2.084,8.835-2.084,8.835c-0.097,0.251,0.044,0.441,0.313,0.441h4.576c0.269,0,0.355,0.174,0.191,0.387
		c0,0-9.441,12.752-9.612,12.966c-0.17,0.214-0.328,0.212-0.241-0.154C11.662,25.837,13.68,17.257,13.68,17.257z"/>
</g>
</svg>
