<?xml version="1.0" encoding="utf-8"?>
<!-- Generator: Adobe Illustrator 18.1.1, SVG Export Plug-In . SVG Version: 6.00 Build 0)  -->
<!DOCTYPE svg PUBLIC "-//W3C//DTD SVG 1.1//EN" "http://www.w3.org/Graphics/SVG/1.1/DTD/svg11.dtd">
<svg version="1.1" id="Layer_1" xmlns="http://www.w3.org/2000/svg" xmlns:xlink="http://www.w3.org/1999/xlink" x="0px" y="0px"
	 viewBox="0 0 30 30" enable-background="new 0 0 30 30" xml:space="preserve">
<path d="M23.9,14.9c0-1.8-1.5-3.2-3.2-3.2c-1.8,0-3.2,1.5-3.2,3.2c0,1.3,0.8,2.4,1.9,2.9c-0.4,0.6-1.2,1.4-2.1,1.4
	c-0.9,0-2.7,0.2-4.1,0.8v-6.8c1.3-0.4,2.2-1.6,2.2-3.1c0-1.8-1.5-3.2-3.2-3.2c-1.8,0-3.2,1.5-3.2,3.2c0,1.4,0.9,2.6,2.2,3.1v9.1V23
	c-1.3,0.4-2.2,1.6-2.2,3.1c0,1.8,1.5,3.2,3.2,3.2c1.8,0,3.2-1.5,3.2-3.2c0-1.4-0.9-2.6-2.2-3.1v-0.5c0.3-0.5,2.5-1.2,4.1-1.2
	c1.9,0,3.7-1.7,4.2-3.2C22.9,17.7,23.9,16.4,23.9,14.9z M12.2,8.7c0.8,0,1.5,0.7,1.5,1.5s-0.7,1.5-1.5,1.5s-1.5-0.7-1.5-1.5
	S11.3,8.7,12.2,8.7z M12.2,27.5c-0.8,0-1.5-0.7-1.5-1.5c0-0.8,0.6-1.5,1.4-1.5h0.2c0.8,0,1.4,0.7,1.4,1.5
	C13.7,26.9,13,27.5,12.2,27.5z M20.7,16.4c-0.8,0-1.5-0.7-1.5-1.5s0.7-1.5,1.5-1.5c0.8,0,1.5,0.7,1.5,1.5S21.5,16.4,20.7,16.4z"/>
<path d="M24.6,3H5.4C4.1,3,3,4.1,3,5.4v19.2C3,25.9,4.1,27,5.4,27H8c-0.1-0.3-0.1-0.6-0.1-1c0-0.4,0.1-0.7,0.1-1H5.4
	C5.2,25,5,24.8,5,24.6V5.4C5,5.2,5.2,5,5.4,5h19.2C24.8,5,25,5.2,25,5.4v19.2c0,0.2-0.2,0.4-0.4,0.4h-8.4c0.1,0.3,0.1,0.7,0.1,1
	c0,0.3,0,0.7-0.1,1h8.4c1.3,0,2.4-1.1,2.4-2.4V5.4C27,4.1,25.9,3,24.6,3z"/>
</svg>
