<?xml version="1.0" encoding="utf-8"?>
<!-- Generator: Adobe Illustrator 18.1.1, SVG Export Plug-In . SVG Version: 6.00 Build 0)  -->
<!DOCTYPE svg PUBLIC "-//W3C//DTD SVG 1.1//EN" "http://www.w3.org/Graphics/SVG/1.1/DTD/svg11.dtd">
<svg version="1.1" id="Layer_1" xmlns="http://www.w3.org/2000/svg" xmlns:xlink="http://www.w3.org/1999/xlink" x="0px" y="0px"
	 viewBox="0 0 30 30" enable-background="new 0 0 30 30" xml:space="preserve">
<path d="M25.3,9.1L22,2.7c-0.1-0.3-0.3-0.3-0.5,0L20,5.6c-1.5-0.8-3.2-1.2-5-1.2C9.2,4.4,4.5,9.1,4.5,14.9h2c0-4.7,3.8-8.5,8.5-8.5
	c1.5,0,2.9,0.4,4.1,1l-1.5,3c-0.1,0.3,0,0.4,0.3,0.4L25,9.7C25.3,9.6,25.4,9.4,25.3,9.1z"/>
<path d="M14.5,24.1c-1.5,0-2.9-0.4-4.1-1l1.5-3c0.1-0.3,0-0.4-0.3-0.4l-7.1,1.1c-0.3,0.1-0.4,0.3-0.3,0.6l3.3,6.4
	c0.1,0.3,0.3,0.3,0.5,0l1.5-2.9c1.5,0.8,3.2,1.2,5,1.2c5.8,0,10.5-4.7,10.5-10.5h-2C23,20.3,19.2,24.1,14.5,24.1z"/>
</svg>
