<svg xmlns="http://www.w3.org/2000/svg" viewBox="0 0 200 200" enable-background="new 0 0 200 200"><linearGradient id="a" gradientUnits="userSpaceOnUse" x1="9.627" y1="100" x2="189.622" y2="100" gradientTransform="matrix(1 0 0 -1 0 200)"><stop offset="0" stop-color="#715A83"/><stop offset="1" stop-color="#835992"/></linearGradient><path fill="url(#a)" d="M9.6 83.5l180-49.3-49.9 131.6-65-43.6 114.8-87.9-136.7 79-43.2-29.8z"/><linearGradient id="b" gradientUnits="userSpaceOnUse" x1="52.798" y1="105.514" x2="189.627" y2="105.514" gradientTransform="matrix(1 0 0 -1 0 200)"><stop offset="0" stop-color="#4B3A59"/><stop offset="1" stop-color="#6D497A"/></linearGradient><path fill="url(#b)" d="M63.3 154.7l-10.5-41.4 136.8-79.1-114.8 88-11.5 32.5z"/><linearGradient id="c" gradientUnits="userSpaceOnUse" x1="63.298" y1="61.541" x2="90.18" y2="61.541" gradientTransform="matrix(1 0 0 -1 0 200)"><stop offset="0" stop-color="#4B3A59"/><stop offset="1" stop-color="#6D497A"/></linearGradient><path fill="url(#c)" d="M74.8 122.2l15.4 10.3-26.9 22.3 11.5-32.6z"/><linearGradient id="d" gradientUnits="userSpaceOnUse" x1="99.625" y1="108.276" x2="99.625" y2="165.777" gradientTransform="matrix(1 0 0 -1 0 200)"><stop offset="0" stop-color="#5E4A6D"/><stop offset="1" stop-color="#855B94"/></linearGradient><path fill="url(#d)" d="M9.6 83.5l80.6 8.2 99.4-57.5-180 49.3z"/><linearGradient id="e" gradientUnits="userSpaceOnUse" x1="146.682" y1="34.223" x2="146.682" y2="165.777" gradientTransform="matrix(1 0 0 -1 0 200)"><stop offset="0" stop-color="#5E4A6D"/><stop offset="1" stop-color="#855B94"/></linearGradient><path fill="url(#e)" d="M103.7 100l36 65.8 49.9-131.6-85.9 65.8z"/><linearGradient id="f" gradientUnits="userSpaceOnUse" x1="139.643" y1="89.612" x2="139.643" y2="165.777" gradientTransform="matrix(1 0 0 -1 0 200)"><stop offset="0" stop-color="#3E2447"/><stop offset="1" stop-color="#392A44"/></linearGradient><path fill="url(#f)" d="M89.9 91.7l99.4-57.5-99.4 76.2v-18.7z"/></svg>