<?xml version="1.0" encoding="utf-8"?>
<!-- Generator: Adobe Illustrator 18.1.1, SVG Export Plug-In . SVG Version: 6.00 Build 0)  -->
<!DOCTYPE svg PUBLIC "-//W3C//DTD SVG 1.1//EN" "http://www.w3.org/Graphics/SVG/1.1/DTD/svg11.dtd">
<svg version="1.1" id="Layer_1" xmlns="http://www.w3.org/2000/svg" xmlns:xlink="http://www.w3.org/1999/xlink" x="0px" y="0px"
	 viewBox="0 0 30 30" enable-background="new 0 0 30 30" xml:space="preserve">
<path d="M19.8,22.4h-5v-1.4h-4.1v1.4h-2c-0.2,0-0.3-0.1-0.5-0.2s-0.2-0.3-0.2-0.5v-2h6.8c-0.1-0.2-0.1-0.5-0.1-0.7
	c0-0.2,0-0.4,0.1-0.6h-4V6.1h10.9l0,5.3c0.2-0.1,0.5-0.1,0.7-0.1c0.2,0,0.4,0,0.6,0.1V6.1c0-0.4-0.2-0.7-0.4-0.9s-0.6-0.4-0.9-0.4
	c-0.8,0-3.1,0-6.8,0H7.9C7.6,4.8,7.3,4.9,7,5.2S6.6,5.8,6.6,6.1v16.3c0,0.4,0.2,0.7,0.4,0.9s0.6,0.4,0.9,0.4h2.7v2.7l2-2l2,2v-2.7h5
	V22.4z"/>
<rect x="12" y="12.9" width="1.4" height="1.4"/>
<rect x="12" y="7.5" width="1.4" height="1.4"/>
<rect x="12" y="15.6" width="1.4" height="1.4"/>
<rect x="12" y="10.2" width="1.4" height="1.4"/>
<path d="M27.5,18h-4.2v-4.2c0-0.6-0.4-1-1-1s-1,0.4-1,1V18H17c-0.6,0-1,0.4-1,1s0.4,1,1,1h4.2v4.2c0,0.6,0.4,1,1,1s1-0.4,1-1V20h4.2
	c0.6,0,1-0.4,1-1S28,18,27.5,18z"/>
</svg>
