<?xml version="1.0" encoding="utf-8"?>
<!-- Generator: Adobe Illustrator 17.1.0, SVG Export Plug-In . SVG Version: 6.00 Build 0)  -->
<!DOCTYPE svg PUBLIC "-//W3C//DTD SVG 1.1//EN" "http://www.w3.org/Graphics/SVG/1.1/DTD/svg11.dtd">
<svg version="1.1" id="Layer_1" xmlns="http://www.w3.org/2000/svg" xmlns:xlink="http://www.w3.org/1999/xlink" x="0px" y="0px"
	 viewBox="0 0 30 30" enable-background="new 0 0 30 30" xml:space="preserve">
<path fill="none" stroke="#555555" stroke-width="2" stroke-miterlimit="10" d="M25.9,16.4C26,16,26,15.5,26,15c0-0.5,0-1-0.1-1.4
	L23,12.9c-0.2-0.7-0.5-1.4-0.8-2l1.5-2.6c-0.6-0.8-1.3-1.4-2-2l-2.6,1.5c-0.6-0.4-1.3-0.6-2-0.8l-0.7-2.9C16,4,15.5,4,15,4
	c-0.5,0-1,0-1.4,0.1L12.9,7c-0.7,0.2-1.4,0.5-2,0.8L8.3,6.3c-0.8,0.6-1.4,1.3-2,2l1.5,2.6c-0.4,0.6-0.6,1.3-0.8,2l-2.9,0.7
	C4,14,4,14.5,4,15c0,0.5,0,1,0.1,1.4L7,17.1c0.2,0.7,0.5,1.4,0.8,2l-1.5,2.6c0.6,0.8,1.3,1.4,2,2l2.6-1.5c0.6,0.4,1.3,0.6,2,0.8
	l0.7,2.9C14,26,14.5,26,15,26c0.5,0,1,0,1.4-0.1l0.7-2.9c0.7-0.2,1.4-0.5,2-0.8l2.6,1.5c0.8-0.6,1.4-1.3,2-2l-1.5-2.6
	c0.4-0.6,0.6-1.3,0.8-2L25.9,16.4z M15,18.5c-1.9,0-3.5-1.6-3.5-3.5c0-1.9,1.6-3.5,3.5-3.5c1.9,0,3.5,1.6,3.5,3.5
	C18.5,16.9,16.9,18.5,15,18.5z"/>
</svg>
