<svg xmlns="http://www.w3.org/2000/svg" viewBox="0 0 30 30" enable-background="new 0 0 30 30"><path stroke="#5B3777" stroke-width="2" stroke-miterlimit="10" d="M24.5 22.032c0 .802-.65 1.452-1.452 1.452h-16.096c-.802 0-1.452-.65-1.452-1.452v-14.159c0-.802.65-1.452 1.452-1.452h16.095c.802 0 1.452.65 1.452 1.452v14.159z" fill="none"/><path fill="#5B3777" d="M14.656 19.276v-4.997h-1.937v-1.177c.271.007.534-.013.787-.06.253-.048.481-.132.683-.253s.372-.28.511-.479c.139-.198.231-.444.275-.737h1.244v7.704l-1.563-.001z"/><g stroke="#5B3777" stroke-miterlimit="10" fill="none"><path d="M9.766 3.515v5.81M20.234 3.515v5.81"/></g></svg>