<?xml version="1.0" encoding="utf-8"?>
<!-- Generator: Adobe Illustrator 18.1.1, SVG Export Plug-In . SVG Version: 6.00 Build 0)  -->
<!DOCTYPE svg PUBLIC "-//W3C//DTD SVG 1.1//EN" "http://www.w3.org/Graphics/SVG/1.1/DTD/svg11.dtd">
<svg version="1.1" id="Layer_1" xmlns="http://www.w3.org/2000/svg" xmlns:xlink="http://www.w3.org/1999/xlink" x="0px" y="0px"
	 viewBox="0 0 30 30" enable-background="new 0 0 30 30" xml:space="preserve">
<g>
	<rect x="4" y="11.2" width="2.5" height="2.5"/>
	<rect x="6.9" y="8.4" width="2.5" height="2.5"/>
	<rect x="6.9" y="11.2" width="2.5" height="2.5"/>
	<rect x="9.7" y="11.2" width="2.5" height="2.5"/>
	<rect x="9.7" y="8.4" width="2.5" height="2.5"/>
	<rect x="12.6" y="11.2" width="2.5" height="2.5"/>
	<rect x="12.6" y="8.4" width="2.5" height="2.5"/>
	<rect x="12.6" y="5.5" width="2.5" height="2.5"/>
	<rect x="15.4" y="11.2" width="2.5" height="2.5"/>
	<path d="M28.6,11.8c-1-0.6-2.2-0.6-3.3-0.3c-0.1-1.2-0.9-2.2-1.8-2.9l-0.4-0.3l-0.3,0.3c-0.6,0.7-0.8,1.9-0.7,2.8
		c0.1,0.7,0.3,1.3,0.7,1.8c-0.3,0.2-0.7,0.3-1,0.4c-0.6,0.2-1.3,0.3-2,0.3h-1.4H3.5l0,0H1.1v0.4c-0.1,1.4,0.1,2.9,0.7,4.2L2,19.2
		l0,0c1.8,3,4.9,4.3,8.2,4.3c6.5,0,11.9-2.9,14.4-9.1c1.7,0.1,3.3-0.4,4.2-2L29,12L28.6,11.8z"/>
</g>
</svg>
