<?xml version="1.0" encoding="utf-8"?>
<!-- Generator: Adobe Illustrator 18.1.1, SVG Export Plug-In . SVG Version: 6.00 Build 0)  -->
<!DOCTYPE svg PUBLIC "-//W3C//DTD SVG 1.1//EN" "http://www.w3.org/Graphics/SVG/1.1/DTD/svg11.dtd">
<svg version="1.1" id="Layer_1" xmlns="http://www.w3.org/2000/svg" xmlns:xlink="http://www.w3.org/1999/xlink" x="0px" y="0px"
	 viewBox="0 0 30 30" enable-background="new 0 0 30 30" xml:space="preserve">
<path d="M25,12.2v12.4c0,0.2-0.2,0.4-0.4,0.4H5.4C5.2,25,5,24.8,5,24.6V5.4C5,5.2,5.2,5,5.4,5h12.2l2-2H5.4C4.1,3,3,4.1,3,5.4v19.2
	C3,25.9,4.1,27,5.4,27h19.2c1.3,0,2.4-1.1,2.4-2.4V10.2L25,12.2z"/>
<path d="M26.2,6l-2.3-2.3c-0.6-0.6-1.6-0.6-2.2,0L8.1,17.3l-0.4,0.6l-1.1,3.9c-0.1,0.4,0,0.8,0.2,1.1c0.2,0.3,0.6,0.5,1,0.5l4-1
	l0.6-0.3L26.1,8.2c0.3-0.3,0.5-0.7,0.5-1.1C26.6,6.7,26.4,6.3,26.2,6z M9.4,19.3l1.2,1.2l-1.7,0.5L9.4,19.3z M11.6,20l-1.6-1.6
	L20.3,7.9L22,9.6L11.6,20z M22.7,8.9L21,7.2l1.7-1.8l1.7,1.7L22.7,8.9z"/>
</svg>
