<?xml version="1.0" encoding="utf-8"?>
<!-- Generator: Adobe Illustrator 17.1.0, SVG Export Plug-In . SVG Version: 6.00 Build 0)  -->
<!DOCTYPE svg PUBLIC "-//W3C//DTD SVG 1.1//EN" "http://www.w3.org/Graphics/SVG/1.1/DTD/svg11.dtd">
<svg version="1.1" id="Layer_1" xmlns="http://www.w3.org/2000/svg" xmlns:xlink="http://www.w3.org/1999/xlink" x="0px" y="0px"
	 viewBox="0 0 30 30" enable-background="new 0 0 30 30" xml:space="preserve">
<path fill="none" stroke="#5B3777" stroke-width="2" stroke-miterlimit="10" d="M24.5,22.032c0,0.802-0.65,1.452-1.452,1.452H6.952
	c-0.802,0-1.452-0.65-1.452-1.452V7.873c0-0.802,0.65-1.452,1.452-1.452h16.095c0.802,0,1.452,0.65,1.452,1.452V22.032z"/>
<g>
	<path fill="#5B3777" d="M14.656,19.276v-4.997h-1.937v-1.177c0.271,0.007,0.534-0.013,0.787-0.06
		c0.253-0.048,0.481-0.132,0.683-0.253s0.372-0.28,0.511-0.479c0.139-0.198,0.231-0.444,0.275-0.737h1.244v7.704L14.656,19.276
		L14.656,19.276z"/>
</g>
<g>
	<line fill="none" stroke="#5B3777" stroke-miterlimit="10" x1="9.766" y1="3.515" x2="9.766" y2="9.325"/>
	<line fill="none" stroke="#5B3777" stroke-miterlimit="10" x1="20.234" y1="3.515" x2="20.234" y2="9.325"/>
</g>
</svg>
