<?xml version="1.0" encoding="utf-8"?>
<!-- Generator: Adobe Illustrator 18.1.1, SVG Export Plug-In . SVG Version: 6.00 Build 0)  -->
<!DOCTYPE svg PUBLIC "-//W3C//DTD SVG 1.1//EN" "http://www.w3.org/Graphics/SVG/1.1/DTD/svg11.dtd">
<svg version="1.1" id="Layer_1" xmlns="http://www.w3.org/2000/svg" xmlns:xlink="http://www.w3.org/1999/xlink" x="0px" y="0px"
	 viewBox="0 0 30 30" enable-background="new 0 0 30 30" xml:space="preserve">
<path d="M26.1,10.2V8.3c0-1-0.9-1.9-1.9-1.9h-12V6.2c0-1.2-0.8-2-2-2H5.9c-1.2,0-2,0.8-2,2v4C2.8,10.4,2,11.3,2,12.5l1.9,11.2
	C4,25,5,26,6.3,26h17.4c1.3,0,2.3-1,2.4-2.3l1.9-11l0-0.2C28,11.3,27.2,10.4,26.1,10.2z M5.9,6.2h4.3v1.2c0,0.6,0.4,1,1,1h12.9V10
	c-1.3,0-3.9,0-9.1,0c-5.1,0-7.7,0-9.1,0V6.2z M24.1,23.4l0,0.2c0,0.2-0.2,0.4-0.4,0.4H6.3c-0.2,0-0.4-0.2-0.4-0.4L4,12.4
	c0-0.2,0.2-0.3,0.4-0.3h21.2c0.2,0,0.4,0.1,0.4,0.3L24.1,23.4z"/>
</svg>
