<svg xmlns="http://www.w3.org/2000/svg" viewBox="0 0 30 30" enable-background="new 0 0 30 30"><linearGradient id="a" gradientUnits="userSpaceOnUse" x1="15" y1="-26.453" x2="15" y2="42.948" gradientTransform="matrix(1 0 0 -1 0 30)"><stop offset="0" stop-color="#ccc"/><stop offset="1" stop-color="#ddd"/></linearGradient><path fill="url(#a)" d="M29 23c0 3.314-2.686 6-6 6h-16c-3.314 0-6-2.686-6-6v-16c0-3.314 2.686-6 6-6h12l10 10v12z"/><linearGradient id="b" gradientUnits="userSpaceOnUse" x1="60" y1="159.167" x2="60" y2="92.5" gradientTransform="scale(.15)"><stop offset="0" stop-color="#4EA943"/><stop offset="1" stop-color="#81BB4B"/></linearGradient><circle fill="url(#b)" cx="9" cy="18.875" r="5"/><path fill="#fff" d="M11.5 18.042h-1.667v-1.667c0-.46-.373-.833-.833-.833s-.833.373-.833.833v1.667h-1.667c-.46 0-.833.373-.833.833 0 .46.373.833.833.833h1.667v1.667c0 .46.373.833.833.833s.833-.373.833-.833v-1.667h1.667c.46 0 .833-.373.833-.833 0-.46-.373-.833-.833-.833z"/><path opacity=".3" enable-background="new" d="M23 27h-16c-3.314 0-6-2.686-6-6v2c0 3.314 2.686 6 6 6h16c3.314 0 6-2.686 6-6v-2c0 3.314-2.686 6-6 6z"/><path opacity=".1" enable-background="new" d="M29 11h-10v-10z"/></svg>