<?xml version="1.0" encoding="utf-8"?>
<!-- Generator: Adobe Illustrator 18.1.1, SVG Export Plug-In . SVG Version: 6.00 Build 0)  -->
<!DOCTYPE svg PUBLIC "-//W3C//DTD SVG 1.1//EN" "http://www.w3.org/Graphics/SVG/1.1/DTD/svg11.dtd">
<svg version="1.1" id="Layer_1" xmlns="http://www.w3.org/2000/svg" xmlns:xlink="http://www.w3.org/1999/xlink" x="0px" y="0px"
	 viewBox="0 0 30 30" enable-background="new 0 0 30 30" xml:space="preserve">
<g>
	<path d="M21,22.2c-0.3,0-0.5-0.1-0.7-0.3L15,16.6l-5.3,5.3c-0.4,0.4-1,0.4-1.4,0s-0.4-1,0-1.4l5.3-5.3L8.3,9.9
		c-0.4-0.4-0.4-1,0-1.4s1-0.4,1.4,0l5.3,5.3l5.3-5.3c0.4-0.4,1-0.4,1.4,0s0.4,1,0,1.4l-5.3,5.3l5.3,5.3c0.4,0.4,0.4,1,0,1.4
		C21.5,22.1,21.3,22.2,21,22.2z"/>
</g>
</svg>
