<?xml version="1.0" encoding="utf-8"?>
<!-- Generator: Adobe Illustrator 17.1.0, SVG Export Plug-In . SVG Version: 6.00 Build 0)  -->
<!DOCTYPE svg PUBLIC "-//W3C//DTD SVG 1.1//EN" "http://www.w3.org/Graphics/SVG/1.1/DTD/svg11.dtd">
<svg version="1.1" id="Layer_1" xmlns="http://www.w3.org/2000/svg" xmlns:xlink="http://www.w3.org/1999/xlink" x="0px" y="0px"
	 viewBox="0 0 30 30" enable-background="new 0 0 30 30" xml:space="preserve">
<path fill="none" d="M25.5,4.5C22.7,1.5,19.1,0,15,0S7.3,1.5,4.5,4.5C1.5,7.3,0,10.9,0,15s1.5,7.7,4.5,10.5c2.8,3,6.4,4.5,10.5,4.5
	s7.7-1.5,10.5-4.5c3-3,4.5-6.4,4.5-10.5S28.5,7.3,25.5,4.5z M17.6,18.9c0.4,0.4,0.9,1.3,0.9,2.4v3.6c0,0.4,0.2,0.6,0.9,0.6
	c-1.3,0.4-2.6,0.6-4.1,0.6s-2.8-0.2-4.1-0.6c0.6,0.2,0.9-0.2,0.9-0.6v-2.1C8.4,23.6,7.7,21,7.7,21c-0.9-1.5-1.5-1.9-1.5-1.9
	c-1.1-0.9,0-0.9,0-0.9c1.3,0,1.9,1.3,1.9,1.3c1.3,1.9,3,1.5,3.9,1.1c0-0.9,0.4-1.3,0.9-1.7c-2.8-0.4-6-1.5-6-6.4
	c0-1.5,0.4-2.6,1.3-3.4c0-0.2-0.4-1.7,0.2-3.4c0,0,1.1-0.4,3.6,1.3c0.9-0.2,1.9-0.4,3.2-0.4c1.1,0,2.1,0.2,3.2,0.4
	c2.6-1.7,3.6-1.3,3.6-1.3c0.6,1.7,0.2,3,0.2,3.4c0.9,0.9,1.3,2.1,1.3,3.4C23.4,17.4,20.4,18.6,17.6,18.9z"/>
</svg>
