<?xml version="1.0" encoding="utf-8"?>
<!-- Generator: Adobe Illustrator 18.1.1, SVG Export Plug-In . SVG Version: 6.00 Build 0)  -->
<!DOCTYPE svg PUBLIC "-//W3C//DTD SVG 1.1//EN" "http://www.w3.org/Graphics/SVG/1.1/DTD/svg11.dtd">
<svg version="1.1" id="Layer_1" xmlns="http://www.w3.org/2000/svg" xmlns:xlink="http://www.w3.org/1999/xlink" x="0px" y="0px"
	 viewBox="0 0 30 30" enable-background="new 0 0 30 30" xml:space="preserve">
<path d="M24,8.7h-1.2h-3.6V7.3c0-0.7-0.6-1.3-1.3-1.3h-5.8c-0.7,0-1.3,0.6-1.3,1.3v1.5H7.2H6C5.7,8.7,5.5,9,5.5,9.2
	S5.7,9.7,6,9.7h1.3l1.5,13c0,0.7,0.6,1.3,1.3,1.3h9.7c0.7,0,1.3-0.6,1.3-1.3l1.6-13H24c0.3,0,0.5-0.2,0.5-0.5S24.3,8.7,24,8.7z
	 M11.8,7.3c0-0.2,0.1-0.3,0.3-0.3h5.8c0.2,0,0.3,0.1,0.3,0.3v1.5h-6.5V7.3z M20.2,22.7c0,0.2-0.1,0.3-0.3,0.3h-1.2l-0.3-2.6
	c0-0.3-0.3-0.5-0.6-0.4c-0.3,0-0.5,0.3-0.4,0.6l0.3,2.5H16l-0.7-5.6c0-0.3-0.3-0.5-0.6-0.4c-0.3,0-0.5,0.3-0.4,0.6L15,23h-2.1
	l-1.1-9.2c0-0.3-0.3-0.5-0.6-0.4c-0.3,0-0.5,0.3-0.4,0.6l1.1,9.1h-1.7c-0.2,0-0.3-0.1-0.3-0.4L8.3,9.7h13.4L20.2,22.7z"/>
</svg>
