<?xml version="1.0" encoding="utf-8"?>
<!-- Generator: Adobe Illustrator 18.1.1, SVG Export Plug-In . SVG Version: 6.00 Build 0)  -->
<!DOCTYPE svg PUBLIC "-//W3C//DTD SVG 1.1//EN" "http://www.w3.org/Graphics/SVG/1.1/DTD/svg11.dtd">
<svg version="1.1" id="Layer_1" xmlns="http://www.w3.org/2000/svg" xmlns:xlink="http://www.w3.org/1999/xlink" x="0px" y="0px"
	 viewBox="0 0 30 30" enable-background="new 0 0 30 30" xml:space="preserve">
<path d="M24.2,3.5H5.8c-1.2,0-2.3,1.1-2.3,2.3v18.4c0,1.2,1.1,2.3,2.3,2.3h18.4c1.2,0,2.3-1.1,2.3-2.3V5.8
	C26.5,4.6,25.4,3.5,24.2,3.5z M5.5,24.2V5.8c0-0.1,0.2-0.3,0.3-0.3H17v19H5.8C5.7,24.5,5.5,24.3,5.5,24.2z M24.5,24.2
	c0,0.1-0.2,0.3-0.3,0.3H18v-19h6.2c0.1,0,0.3,0.2,0.3,0.3V24.2z"/>
</svg>
