<?xml version="1.0" encoding="utf-8"?>
<!-- Generator: Adobe Illustrator 18.1.0, SVG Export Plug-In . SVG Version: 6.00 Build 0)  -->
<!DOCTYPE svg PUBLIC "-//W3C//DTD SVG 1.1//EN" "http://www.w3.org/Graphics/SVG/1.1/DTD/svg11.dtd">
<svg version="1.1" id="Layer_1" xmlns="http://www.w3.org/2000/svg" xmlns:xlink="http://www.w3.org/1999/xlink" x="0px" y="0px"
	 viewBox="0 0 30 30" enable-background="new 0 0 30 30" xml:space="preserve">
<path fill="none" stroke="#555555" stroke-width="2" stroke-miterlimit="10" d="M27,25.5c0,0.8-0.7,1.5-1.5,1.5h-21
	C3.7,27,3,26.3,3,25.5v-21C3,3.7,3.7,3,4.5,3h21C26.3,3,27,3.7,27,4.5V25.5z"/>
	<path fill="#555555" d="M17.3,11l-4.6,3v-1.6l3.2-2v0l-3.2-2V6.7l4.6,3V11z"/>
	<path fill="#555555" d="M6.4,9.7l4.6-3v1.6l-3.2,2v0l3.2,2V14l-4.6-3V9.7z"/>
</svg>
