<?xml version="1.0" encoding="utf-8"?>
<!-- Generator: Adobe Illustrator 18.0.0, SVG Export Plug-In . SVG Version: 6.00 Build 0)  -->
<!DOCTYPE svg PUBLIC "-//W3C//DTD SVG 1.1//EN" "http://www.w3.org/Graphics/SVG/1.1/DTD/svg11.dtd">
<svg version="1.1" id="Layer_1" xmlns="http://www.w3.org/2000/svg" xmlns:xlink="http://www.w3.org/1999/xlink" x="0px" y="0px"
	 viewBox="0 0 30 30" enable-background="new 0 0 30 30" xml:space="preserve">
<g id="flash_1_">
	<path fill="none" stroke="#FC7022" stroke-width="2" stroke-miterlimit="10" d="M13.7,17.3c0.1-0.3-0.1-0.3-0.3-0.3H8.8
		c-0.3,0-0.3-0.3-0.2-0.5c0,0,9.4-12.5,9.6-12.8c0.1-0.2,0.3-0.2,0.2,0.1c-0.1,0.3-2.1,8.8-2.1,8.8c-0.1,0.3,0,0.4,0.3,0.4h4.6
		c0.3,0,0.4,0.2,0.2,0.4c0,0-9.4,12.8-9.6,13c-0.2,0.2-0.3,0.2-0.2-0.2C11.7,25.8,13.7,17.3,13.7,17.3z"/>
</g>
<rect x="2" y="14" transform="matrix(0.5748 0.8183 -0.8183 0.5748 18.6518 -5.8962)" fill="#FC7022" width="26" height="2"/>
<rect x="3.4" y="12.6" transform="matrix(0.5748 0.8183 -0.8183 0.5748 18.0949 -7.6578)" fill="#FFFFFF" width="26" height="2"/>
</svg>
