<?xml version="1.0" encoding="utf-8"?>
<!-- Generator: Adobe Illustrator 18.1.1, SVG Export Plug-In . SVG Version: 6.00 Build 0)  -->
<!DOCTYPE svg PUBLIC "-//W3C//DTD SVG 1.1//EN" "http://www.w3.org/Graphics/SVG/1.1/DTD/svg11.dtd">
<svg version="1.1" id="Layer_1" xmlns="http://www.w3.org/2000/svg" xmlns:xlink="http://www.w3.org/1999/xlink" x="0px" y="0px"
	 viewBox="0 0 30 30" enable-background="new 0 0 30 30" xml:space="preserve">
<path d="M23.5,14.2H16V6.7c0-0.6-0.4-1-1-1c-0.6,0-1,0.4-1,1v7.5H6.5c-0.6,0-1,0.4-1,1c0,0.6,0.4,1,1,1H14v7.5c0,0.6,0.4,1,1,1
	c0.6,0,1-0.4,1-1v-7.5h7.5c0.6,0,1-0.4,1-1C24.5,14.6,24.1,14.2,23.5,14.2z"/>
</svg>
