<?xml version="1.0" encoding="utf-8"?>
<!-- Generator: Adobe Illustrator 18.1.1, SVG Export Plug-In . SVG Version: 6.00 Build 0)  -->
<!DOCTYPE svg PUBLIC "-//W3C//DTD SVG 1.1//EN" "http://www.w3.org/Graphics/SVG/1.1/DTD/svg11.dtd">
<svg version="1.1" id="Layer_1" xmlns="http://www.w3.org/2000/svg" xmlns:xlink="http://www.w3.org/1999/xlink" x="0px" y="0px"
	 viewBox="0 0 30 30" enable-background="new 0 0 30 30" xml:space="preserve">
<g>
	<path d="M17.7,24.5c1.6-0.1,2.8-1.4,2.8-2.9v-4.7c0.1-1.6-1.2-2.9-2.8-2.9h-2.1c1-0.1,1.7-0.5,2.4-1.2c0.9-0.9,1.3-1.8,1.3-3
		s-0.4-2.3-1.3-3c-0.9-0.9-1.8-1.3-3-1.3c-1.2,0-2.3,0.4-3,1.3c-0.9,0.8-1.3,1.7-1.3,2.9s0.4,2.3,1.3,3c0.6,0.6,1.5,1.1,2.4,1.2
		h-2.1c-1.6,0-3,1.3-3,3v4.7c0,1.6,1.3,2.9,2.8,2.9"/>
	<path d="M8,23c0-0.3-0.1-0.4-0.2-1.3V17c0-1.1,0.3-2.1,1-2.8H7.7c0.8-0.1,1.4-0.4,1.9-1c0.1-0.2,0.2-0.3,0.3-0.4
		c-0.5-0.9-0.9-1.9-0.9-3l0,0l0,0c0-0.5,0.1-1.1,0.2-1.6C8.6,7.6,8,7.4,7.1,7.4c-1,0-1.7,0.3-2.4,1s-1,1.4-1,2.4s0.3,1.7,1,2.4
		c0.5,0.5,1.2,0.9,1.9,1H5.1c-1.3,0-2.4,1.1-2.4,2.4v4.2c0,1.3,1,2.3,2.3,2.4"/>
	<path d="M25,23c1.3-0.1,2.3-1.1,2.3-2.4v-4.2c0-1.3-1.1-2.4-2.4-2.4h-1.6c0.8-0.1,1.4-0.4,1.9-1c0.6-0.6,1-1.4,1-2.4
		s-0.3-1.7-1-2.4s-1.4-1-2.4-1c-0.9,0-1.5,0.2-2.2,0.8c0.1,0.5,0.2,1.1,0.2,1.6l0,0l0,0c0,1.1-0.3,2.2-0.9,3
		c0.1,0.1,0.2,0.2,0.3,0.4c0.5,0.5,1.2,0.9,1.9,1h-1.1c0.6,0.8,1,1.7,1,2.8v4.7c-0.1,1-0.2,1-0.2,1.3"/>
</g>
</svg>
