<?xml version="1.0" encoding="utf-8"?>
<!-- Generator: Adobe Illustrator 18.1.1, SVG Export Plug-In . SVG Version: 6.00 Build 0)  -->
<!DOCTYPE svg PUBLIC "-//W3C//DTD SVG 1.1//EN" "http://www.w3.org/Graphics/SVG/1.1/DTD/svg11.dtd">
<svg version="1.1" id="Layer_1" xmlns="http://www.w3.org/2000/svg" xmlns:xlink="http://www.w3.org/1999/xlink" x="0px" y="0px"
	 viewBox="0 0 30 30" enable-background="new 0 0 30 30" xml:space="preserve">
<path d="M25.5,28h-21C3.1,28,2,26.9,2,25.5v-21C2,3.1,3.1,2,4.5,2h21C26.9,2,28,3.1,28,4.5v21C28,26.9,26.9,28,25.5,28z M4.5,4
	C4.3,4,4,4.3,4,4.5v21C4,25.7,4.3,26,4.5,26h21c0.2,0,0.5-0.3,0.5-0.5v-21C26,4.3,25.7,4,25.5,4H4.5z"/>
<path d="M11,11l-4.6,3v-1.6l3.2-2l0,0l-3.2-2V6.7l4.6,3V11z"/>
<path d="M18.9,15.1v1.3h-5.8v-1.3C13.1,15.1,18.9,15.1,18.9,15.1z"/>
</svg>
