<svg xmlns="http://www.w3.org/2000/svg" viewBox="0 0 14 14" enable-background="new 0 0 14 14"><path fill="#fff" d="M11.9 2.1c-1.3-1.4-3-2.1-4.9-2.1s-3.6.7-4.9 2.1c-1.4 1.3-2.1 3-2.1 4.9s.7 3.6 2.1 4.9c1.3 1.4 3 2.1 4.9 2.1s3.6-.7 4.9-2.1c1.4-1.4 2.1-3 2.1-4.9s-.7-3.6-2.1-4.9zm-3.7 6.7c.2.2.4.6.4 1.1v1.7c0 .2.1.3.4.3-.6.2-1.2.3-1.9.3s-1.3-.1-1.9-.3c.3.1.4-.1.4-.3v-1c-1.7.4-2-.8-2-.8-.4-.7-.7-.9-.7-.9-.5-.4 0-.4 0-.4.6 0 .9.6.9.6.6.9 1.4.7 1.8.5 0-.4.2-.6.4-.8-1.3-.2-2.8-.7-2.8-3 0-.7.2-1.2.6-1.6 0-.1-.2-.8.1-1.6 0 0 .5-.2 1.7.6.4-.1.9-.2 1.5-.2.5 0 1 .1 1.5.2 1.2-.8 1.7-.6 1.7-.6.3.8.1 1.4.1 1.6.4.4.6 1 .6 1.6-.1 2.3-1.5 2.9-2.8 3z"/></svg>