<?xml version="1.0" encoding="utf-8"?>
<!-- Generator: Adobe Illustrator 17.1.0, SVG Export Plug-In . SVG Version: 6.00 Build 0)  -->
<!DOCTYPE svg PUBLIC "-//W3C//DTD SVG 1.1//EN" "http://www.w3.org/Graphics/SVG/1.1/DTD/svg11.dtd">
<svg version="1.1" id="Layer_1" xmlns="http://www.w3.org/2000/svg" xmlns:xlink="http://www.w3.org/1999/xlink" x="0px" y="0px"
	 viewBox="0 0 30 30" enable-background="new 0 0 30 30" xml:space="preserve">
<g>
	<path fill="none" stroke="#555555" stroke-width="2" stroke-miterlimit="10" d="M25.1,23.6c0,0.8-0.6,1.4-1.4,1.4H6.3
		c-0.8,0-1.4-0.6-1.4-1.4L4,12.5c0-0.8,0.6-1.4,1.4-1.4h19.2c0.8,0,1.4,0.6,1.4,1.4L25.1,23.6z"/>
</g>
<path fill="none" stroke="#555555" stroke-width="2" stroke-miterlimit="10" d="M24.2,8.4h-6.7c-1.3,0-0.3-2-2.4-2
	c-2.1,0-1.7,0-1.7,0s0.5,0-1.6,0c-2.1,0-1.2,2-2.5,2H5.8c-0.5,0-0.9,0.4-0.9,0.9v1.9c0.1-0.1,0.3-0.1,0.5-0.1h19.2
	c0.2,0,0.3,0,0.5,0.1V9.3C25.1,8.8,24.7,8.4,24.2,8.4z"/>
</svg>
