<?xml version="1.0" encoding="utf-8"?>
<!-- Generator: Adobe Illustrator 18.1.1, SVG Export Plug-In . SVG Version: 6.00 Build 0)  -->
<!DOCTYPE svg PUBLIC "-//W3C//DTD SVG 1.1//EN" "http://www.w3.org/Graphics/SVG/1.1/DTD/svg11.dtd">
<svg version="1.1" id="Layer_1" xmlns="http://www.w3.org/2000/svg" xmlns:xlink="http://www.w3.org/1999/xlink" x="0px" y="0px"
	 viewBox="0 0 30 30" enable-background="new 0 0 30 30" xml:space="preserve">
<path d="M15,5c5.5,0,10,4.5,10,10s-4.5,10-10,10S5,20.5,5,15S9.5,5,15,5 M15,3C8.4,3,3,8.4,3,15s5.4,12,12,12s12-5.4,12-12
	S21.6,3,15,3L15,3z"/>
<path d="M15,18.3c-0.6,0-1-0.4-1-1V9.5c0-0.6,0.4-1,1-1s1,0.4,1,1v7.8C16,17.8,15.6,18.3,15,18.3z"/>
<path d="M15,22.2c-0.3,0-0.5-0.1-0.7-0.3c-0.2-0.2-0.3-0.4-0.3-0.7c0-0.3,0.1-0.5,0.3-0.7c0.4-0.4,1-0.4,1.4,0
	c0.2,0.2,0.3,0.4,0.3,0.7c0,0.3-0.1,0.5-0.3,0.7C15.5,22.1,15.3,22.2,15,22.2z"/>
</svg>
