<?xml version="1.0" encoding="utf-8"?>
<!-- Generator: Adobe Illustrator 17.1.0, SVG Export Plug-In . SVG Version: 6.00 Build 0)  -->
<!DOCTYPE svg PUBLIC "-//W3C//DTD SVG 1.1//EN" "http://www.w3.org/Graphics/SVG/1.1/DTD/svg11.dtd">
<svg version="1.1" id="Layer_1" xmlns="http://www.w3.org/2000/svg" xmlns:xlink="http://www.w3.org/1999/xlink" x="0px" y="0px"
	 viewBox="0 0 30 30" enable-background="new 0 0 30 30" xml:space="preserve">
<path fill="#555555" d="M24.1,5.9C21.7,3.3,18.5,2,15,2S8.3,3.3,5.9,5.9C3.3,8.3,2,11.5,2,15s1.3,6.7,3.9,9.1
	C8.3,26.7,11.5,28,15,28s6.7-1.3,9.1-3.9c2.6-2.6,3.9-5.6,3.9-9.1S26.7,8.3,24.1,5.9z M17.2,18.3c0.4,0.4,0.7,1.1,0.7,2v3.2
	c0,0.4,0.2,0.6,0.7,0.6c-1.1,0.4-2.2,0.6-3.5,0.6s-2.4-0.2-3.5-0.6c0.6,0.2,0.7-0.2,0.7-0.6v-1.9c-3.2,0.7-3.7-1.5-3.7-1.5
	c-0.7-1.3-1.3-1.7-1.3-1.7c-0.9-0.7,0-0.7,0-0.7c1.1,0,1.7,1.1,1.7,1.1c1.1,1.7,2.6,1.3,3.3,0.9c0-0.7,0.4-1.1,0.7-1.5
	C10.7,18,7.9,17,7.9,12.8c0-1.3,0.4-2.2,1.1-3c0-0.2-0.4-1.5,0.2-3c0,0,0.9-0.4,3.2,1.1c0.7-0.2,1.7-0.4,2.8-0.4
	c0.9,0,1.9,0.2,2.8,0.4c2.2-1.5,3.2-1.1,3.2-1.1c0.6,1.5,0.2,2.6,0.2,3c0.7,0.7,1.1,1.9,1.1,3C22.2,17,19.6,18.2,17.2,18.3z"/>
</svg>
