<?xml version="1.0" encoding="utf-8"?>
<!-- Generator: Adobe Illustrator 18.1.1, SVG Export Plug-In . SVG Version: 6.00 Build 0)  -->
<!DOCTYPE svg PUBLIC "-//W3C//DTD SVG 1.1//EN" "http://www.w3.org/Graphics/SVG/1.1/DTD/svg11.dtd">
<svg version="1.1" id="Layer_1" xmlns="http://www.w3.org/2000/svg" xmlns:xlink="http://www.w3.org/1999/xlink" x="0px" y="0px"
	 viewBox="0 0 30 30" enable-background="new 0 0 30 30" xml:space="preserve">
<path d="M15,27c-0.6,0-1.1,0-1.6-0.1l-0.6-0.1l-0.7-2.9c-0.4-0.1-0.8-0.3-1.2-0.4l-2.7,1.6l-0.5-0.5c-0.7-0.6-1.5-1.3-2.1-2.2
	l-0.4-0.5l1.6-2.7c-0.2-0.4-0.3-0.8-0.5-1.1l-2.9-0.7l-0.1-0.6C3,16.1,3,15.6,3,15c0-0.6,0-1.1,0.1-1.6l0.1-0.6l2.9-0.7
	c0.1-0.4,0.3-0.8,0.4-1.2L5.1,8.2l0.5-0.5c0.6-0.7,1.3-1.5,2.2-2.1l0.5-0.4l2.7,1.6c0.4-0.2,0.8-0.3,1.1-0.5l0.7-2.9l0.6-0.1
	C13.9,3,14.4,3,15,3c0.6,0,1.1,0,1.6,0.1l0.6,0.1l0.7,2.9c0.4,0.1,0.8,0.3,1.2,0.4l2.7-1.6l0.5,0.5c0.7,0.6,1.5,1.3,2.1,2.2l0.4,0.5
	l-1.6,2.7c0.2,0.4,0.3,0.8,0.5,1.1l2.9,0.7l0.1,0.6C27,13.9,27,14.4,27,15s0,1.1-0.1,1.6l-0.1,0.6l-2.9,0.7
	c-0.1,0.4-0.3,0.8-0.4,1.2l1.6,2.7l-0.5,0.5c-0.6,0.7-1.3,1.5-2.2,2.1l-0.5,0.4l-2.7-1.6c-0.4,0.2-0.8,0.3-1.1,0.5l-0.7,2.9
	l-0.6,0.1C16.1,27,15.6,27,15,27z M14.4,25c0.4,0,0.8,0,1.2,0l0.7-2.8l0.6-0.2c0.6-0.2,1.2-0.4,1.8-0.7l0.5-0.2l2.5,1.4
	c0.3-0.3,0.6-0.6,0.9-0.9L21,19.1l0.3-0.5c0.3-0.5,0.5-1.1,0.7-1.7l0.2-0.6l2.8-0.7c0-0.2,0-0.4,0-0.6c0-0.2,0-0.4,0-0.6l-2.8-0.7
	L22,13.2c-0.2-0.6-0.4-1.2-0.7-1.8l-0.2-0.5l1.4-2.5c-0.3-0.3-0.6-0.6-0.9-0.9L19.1,9l-0.5-0.3c-0.5-0.3-1.1-0.5-1.7-0.7l-0.6-0.2
	L15.6,5c-0.4,0-0.8,0-1.2,0l-0.7,2.8L13.2,8c-0.6,0.2-1.2,0.4-1.8,0.7l-0.5,0.2L8.4,7.5C8.1,7.8,7.8,8.1,7.5,8.4L9,10.9l-0.3,0.5
	c-0.3,0.5-0.5,1.1-0.7,1.7l-0.2,0.6L5,14.4c0,0.2,0,0.4,0,0.6c0,0.2,0,0.4,0,0.6l2.8,0.7L8,16.8c0.2,0.6,0.4,1.2,0.7,1.8l0.2,0.5
	l-1.4,2.5c0.3,0.3,0.6,0.6,0.9,0.9l2.5-1.5l0.5,0.3c0.5,0.3,1.1,0.5,1.7,0.7l0.6,0.2L14.4,25z M15,19.5c-2.4,0-4.5-2.1-4.5-4.5
	s2.1-4.5,4.5-4.5s4.5,2.1,4.5,4.5S17.4,19.5,15,19.5z M15,12.5c-1.4,0-2.5,1.1-2.5,2.5c0,1.4,1.1,2.5,2.5,2.5c1.4,0,2.5-1.1,2.5-2.5
	C17.5,13.6,16.4,12.5,15,12.5z"/>
</svg>
