<?xml version="1.0" encoding="utf-8"?>
<!-- Generator: Adobe Illustrator 18.1.1, SVG Export Plug-In . SVG Version: 6.00 Build 0)  -->
<!DOCTYPE svg PUBLIC "-//W3C//DTD SVG 1.1//EN" "http://www.w3.org/Graphics/SVG/1.1/DTD/svg11.dtd">
<svg version="1.1" id="Layer_1" xmlns="http://www.w3.org/2000/svg" xmlns:xlink="http://www.w3.org/1999/xlink" x="0px" y="0px"
	 viewBox="0 0 30 30" enable-background="new 0 0 30 30" xml:space="preserve">
<path fill="#aaa" d="M14.9,16.1c-0.8,0-1.5-0.7-1.5-1.5c0-1.3-2-1.3-2,0c0.1,1.9,1.6,3.4,3.5,3.5C16.2,18.1,16.2,16.1,14.9,16.1z"/>
<path fill="#aaa" d="M23.8,22.7l-3.6-3.5c1.1-1.2,1.7-2.8,1.7-4.6c0-3.9-3.1-7-7-7s-7,3.1-7,7s3.1,7,7,7c1.4,0,2.7-0.4,3.8-1.1l3.7,3.6
	L23.8,22.7z M9.9,14.6c0-2.8,2.2-5,5-5s5,2.2,5,5s-2.2,5-5,5S9.9,17.4,9.9,14.6z"/>
</svg>
