<svg xmlns="http://www.w3.org/2000/svg" viewBox="0 0 30 30" enable-background="new 0 0 30 30"><linearGradient id="a" gradientUnits="userSpaceOnUse" x1="23.465" y1="29.661" x2="6.535" y2=".339"><stop offset="0" stop-color="#5E5E5E"/><stop offset="1" stop-color="#3F3F3F"/></linearGradient><path fill="url(#a)" d="M29 23c0 3.314-2.686 6-6 6h-16c-3.314 0-6-2.686-6-6v-16c0-3.314 2.686-6 6-6h16c3.314 0 6 2.686 6 6v16z"/><path opacity=".4" fill="#fff" enable-background="new" d="M23.333 8.919c0 .46-.373.833-.833.833h-15c-.46 0-.833-.373-.833-.833s.373-.833.833-.833h15c.46 0 .833.372.833.833zm0-3.333c0 .46-.373.833-.833.833h-15c-.46 0-.833-.373-.833-.833s.373-.833.833-.833h15c.46 0 .833.372.833.833zm0 10c0 .46-.373.833-.833.833h-15c-.46 0-.833-.373-.833-.833s.373-.834.833-.834h15c.46 0 .833.373.833.834zm-4.306-3.334c0 .46-.373.833-.833.833h-10.694c-.46 0-.833-.373-.833-.833s.373-.833.833-.833h10.694c.461 0 .833.373.833.833zm0 6.829c0 .46-.373.833-.833.833h-10.694c-.46 0-.833-.373-.833-.833 0-.46.373-.833.833-.833h10.694c.461-.001.833.372.833.833zm0 3.333c0 .46-.373.833-.833.833h-10.694c-.46 0-.833-.373-.833-.833 0-.46.373-.833.833-.833h10.694c.461 0 .833.372.833.833z"/><path opacity=".4" d="M23 27h-16c-3.314 0-6-2.686-6-6v2c0 3.314 2.686 6 6 6h16c3.314 0 6-2.686 6-6v-2c0 3.314-2.686 6-6 6z"/></svg>