<?xml version="1.0" encoding="utf-8"?>
<!-- Generator: Adobe Illustrator 17.1.0, SVG Export Plug-In . SVG Version: 6.00 Build 0)  -->
<!DOCTYPE svg PUBLIC "-//W3C//DTD SVG 1.1//EN" "http://www.w3.org/Graphics/SVG/1.1/DTD/svg11.dtd">
<svg version="1.1" id="Layer_1" xmlns="http://www.w3.org/2000/svg" xmlns:xlink="http://www.w3.org/1999/xlink" x="0px" y="0px"
	 viewBox="0 0 30 30" enable-background="new 0 0 30 30" xml:space="preserve">
<g>
	<path fill="none" stroke="#555555" stroke-width="2" stroke-miterlimit="10" d="M25.1,23.6c0,0.8-0.6,1.4-1.4,1.4H6.3
		c-0.8,0-1.4-0.6-1.4-1.4L3,12.5c0-0.8,0.6-1.4,1.4-1.4h21.2c0.8,0,1.4,0.6,1.4,1.4L25.1,23.6z"/>
</g>
<path fill="none" stroke="#555555" stroke-width="2" stroke-linejoin="round" stroke-miterlimit="10" d="M24.2,7.4h-13V6.2
	c0-0.6-0.4-1-1-1H5.9c-0.6,0-1,0.4-1,1v2v0.6v2.2c0.1-0.1,20-0.1,20.2,0V8.3C25.1,7.8,24.7,7.4,24.2,7.4z"/>
</svg>
