<?xml version="1.0" encoding="utf-8"?>
<!-- Generator: Adobe Illustrator 17.1.0, SVG Export Plug-In . SVG Version: 6.00 Build 0)  -->
<!DOCTYPE svg PUBLIC "-//W3C//DTD SVG 1.1//EN" "http://www.w3.org/Graphics/SVG/1.1/DTD/svg11.dtd">
<svg version="1.1" id="Layer_1" xmlns="http://www.w3.org/2000/svg" xmlns:xlink="http://www.w3.org/1999/xlink" x="0px" y="0px"
	 viewBox="0 0 30 30" enable-background="new 0 0 30 30" xml:space="preserve">
<g>
	<path fill="none" stroke="#CCCCCC" stroke-width="2" stroke-miterlimit="10" d="M26,24.3c0,0.8-0.7,1.5-1.5,1.5h-19
		c-0.8,0-1.5-0.7-1.5-1.5L3,12.2c0-0.8,0.7-1.5,1.5-1.5h21c0.8,0,1.5,0.7,1.5,1.5L26,24.3z"/>
</g>
<path fill="none" stroke="#CCCCCC" stroke-width="2" stroke-miterlimit="10" d="M25,7.8h-7.3c-1.4,0-0.4-2.2-2.7-2.2
	c-2.3,0-1.8,0-1.8,0s0.5,0-1.8,0c-2.3,0-1.3,2.2-2.7,2.2H5c-0.6,0-1,0.4-1,1v2.1c0.2-0.1,0.3-0.1,0.5-0.1h21c0.2,0,0.3,0,0.5,0.1
	V8.8C26,8.2,25.6,7.8,25,7.8z"/>
</svg>
