<?xml version="1.0" encoding="utf-8"?>
<!-- Generator: Adobe Illustrator 17.1.0, SVG Export Plug-In . SVG Version: 6.00 Build 0)  -->
<!DOCTYPE svg PUBLIC "-//W3C//DTD SVG 1.1//EN" "http://www.w3.org/Graphics/SVG/1.1/DTD/svg11.dtd">
<svg version="1.1" id="Layer_1" xmlns="http://www.w3.org/2000/svg" xmlns:xlink="http://www.w3.org/1999/xlink" x="0px" y="0px"
	 viewBox="0 0 30 30" enable-background="new 0 0 30 30" xml:space="preserve">
<g>
	<path fill="none" stroke="#5B3777" stroke-miterlimit="10" d="M10.121,18.409c4.629,0,2.115,3.392,11.809,3.392"/>
	<path fill="none" stroke="#5B3777" stroke-width="2" stroke-miterlimit="10" d="M21.695,21.406l-4.347-7.173v-7.06
		C17.73,6.972,18,6.584,18,6.121V5.968c0-0.663-0.537-1.2-1.2-1.2h-3.6c-0.663,0-1.2,0.537-1.2,1.2v0.153
		c0,0.462,0.27,0.851,0.652,1.051v7.06l-4.347,7.173c0,0-2.608,3.826,1.565,3.826s5.13,0,5.13,0s0.956,0,5.13,0
		S21.695,21.406,21.695,21.406z"/>
</g>
</svg>
