<svg xmlns="http://www.w3.org/2000/svg" viewBox="0 0 30 30" enable-background="new 0 0 30 30"><linearGradient id="a" gradientUnits="userSpaceOnUse" x1="15" y1="1" x2="15" y2="29"><stop offset="0" stop-color="#544173"/><stop offset="1" stop-color="#80578F"/></linearGradient><path fill="url(#a)" d="M28 6c0-1.657-1.343-3.719-3-3.719h-8.938c0-.707-.573-1.281-1.281-1.281h-11.031c-.708 0-1.5.574-1.5 1.281 0 0-.25 2.062-.25 3.719l-1 17c0 3.314 2.686 6 6 6h16c3.314 0 6-2.686 6-6l-1-17z"/><path opacity=".4" d="M23 27h-16c-3.314 0-6-2.686-6-6v2c0 3.314 2.686 6 6 6h16c3.314 0 6-2.686 6-6v-2c0 3.314-2.686 6-6 6z"/><linearGradient id="b" gradientUnits="userSpaceOnUse" x1="15" y1="5" x2="15" y2="27"><stop offset="0" stop-color="#835992"/><stop offset="1" stop-color="#655089"/></linearGradient><path fill="url(#b)" d="M26 5h-22c-1.657 0-3 1.343-3 3v13c0 3.314 2.686 6 6 6h16c3.314 0 6-2.686 6-6v-13c0-1.657-1.343-3-3-3z"/><linearGradient id="c" gradientUnits="userSpaceOnUse" x1="60" y1="-129.167" x2="60" y2="-62.5" gradientTransform="matrix(.15 0 0 -.15 0 4.5)"><stop offset="0" stop-color="#4EA943"/><stop offset="1" stop-color="#81BB4B"/></linearGradient><circle fill="url(#c)" cx="9" cy="18.875" r="5"/><path fill="#fff" d="M11.5 18.042h-1.667v-1.667c0-.46-.373-.833-.833-.833-.46 0-.833.373-.833.833v1.667h-1.667c-.46 0-.833.373-.833.833 0 .46.373.833.833.833h1.667v1.667c0 .46.373.833.833.833.46 0 .833-.373.833-.833v-1.667h1.667c.46 0 .833-.373.833-.833 0-.46-.373-.833-.833-.833z"/></svg>