<?xml version="1.0" encoding="utf-8"?>
<!-- Generator: Adobe Illustrator 18.1.1, SVG Export Plug-In . SVG Version: 6.00 Build 0)  -->
<!DOCTYPE svg PUBLIC "-//W3C//DTD SVG 1.1//EN" "http://www.w3.org/Graphics/SVG/1.1/DTD/svg11.dtd">
<svg version="1.1" id="Layer_1" xmlns="http://www.w3.org/2000/svg" xmlns:xlink="http://www.w3.org/1999/xlink" x="0px" y="0px"
	 viewBox="0 0 30 30" enable-background="new 0 0 30 30" xml:space="preserve">
<path d="M24.2,14h-14l5.9-5.9c0.4-0.4,0.4-1,0-1.4s-1-0.4-1.4,0l-7.6,7.6c0,0,0,0,0,0L6.4,15l0.7,0.7c0,0,0,0,0,0l7.6,7.6
	c0.2,0.2,0.5,0.3,0.7,0.3s0.5-0.1,0.7-0.3c0.4-0.4,0.4-1,0-1.4L10.2,16h14c0.6,0,1-0.4,1-1C25.2,14.4,24.8,14,24.2,14z"/>
</svg>
