<?xml version="1.0" encoding="utf-8"?>
<!-- Generator: Adobe Illustrator 18.1.1, SVG Export Plug-In . SVG Version: 6.00 Build 0)  -->
<!DOCTYPE svg PUBLIC "-//W3C//DTD SVG 1.1//EN" "http://www.w3.org/Graphics/SVG/1.1/DTD/svg11.dtd">
<svg version="1.1" id="Layer_1" xmlns="http://www.w3.org/2000/svg" xmlns:xlink="http://www.w3.org/1999/xlink" x="0px" y="0px"
	 viewBox="0 0 30 30" enable-background="new 0 0 30 30" xml:space="preserve">
<circle cx="6.9" cy="7" r="1"/>
<circle cx="10.2" cy="7" r="1"/>
<circle cx="6.9" cy="15" r="1"/>
<circle cx="10.2" cy="15" r="1"/>
<circle cx="6.9" cy="23.1" r="1"/>
<circle cx="10.2" cy="23.1" r="1"/>
<path d="M25.5,2h-21C3.1,2,2,3.1,2,4.5v21C2,26.9,3.1,28,4.5,28h21c1.4,0,2.5-1.1,2.5-2.5v-21C28,3.1,26.9,2,25.5,2z M4.5,4h21
	C25.7,4,26,4.3,26,4.5v6H4v-6C4,4.3,4.3,4,4.5,4z M26,11.5v7H4v-7H26z M25.5,26h-21C4.3,26,4,25.7,4,25.5v-6h22v6
	C26,25.7,25.7,26,25.5,26z"/>
</svg>
