<?xml version="1.0" encoding="utf-8"?>
<!-- Generator: Adobe Illustrator 18.0.0, SVG Export Plug-In . SVG Version: 6.00 Build 0)  -->
<!DOCTYPE svg PUBLIC "-//W3C//DTD SVG 1.1//EN" "http://www.w3.org/Graphics/SVG/1.1/DTD/svg11.dtd">
<svg version="1.1" id="Layer_1" xmlns="http://www.w3.org/2000/svg" xmlns:xlink="http://www.w3.org/1999/xlink" x="0px" y="0px"
	 viewBox="0 0 30 30" enable-background="new 0 0 30 30" xml:space="preserve">
<g>
	<path fill="#231F20" d="M20.2,8.7h-3.6c-3.5,0-6.3,2.8-6.3,6.3c0,0.8,0.2,1.6,0.5,2.3h2.7c0.1,0,0.2,0,0.3-0.1
		c-0.5-0.6-0.8-1.4-0.8-2.3c0-2,1.6-3.7,3.7-3.7h3.6c2,0,3.7,1.6,3.7,3.7s-1.6,3.7-3.7,3.7H20c-0.6,1.1-1.4,2-2.4,2.6h2.6
		c3.5,0,6.3-2.8,6.3-6.3S23.7,8.7,20.2,8.7z"/>
	<path fill="#231F20" d="M19.5,16.6c0.1-0.5,0.2-1.1,0.2-1.6c0-0.8-0.2-1.6-0.5-2.3h-2.7c-0.1,0-0.2,0.1-0.3,0.1
		c0.5,0.6,0.8,1.4,0.8,2.3c0,0,0,0,0,0c0,2-1.6,3.6-3.7,3.6H9.8c-1.7,0-3.1-1.1-3.5-2.6c-0.1-0.3-0.2-0.7-0.2-1c0-2,1.6-3.7,3.7-3.7
		H10c0.6-1,1.4-2,2.4-2.6H9.8c-3.5,0-6.3,2.8-6.3,6.3c0,0.4,0,0.7,0.1,1.1c0.5,3,3.1,5.2,6.2,5.2h3.6C16.3,21.3,18.8,19.3,19.5,16.6
		z"/>
</g>
</svg>
