<svg xmlns="http://www.w3.org/2000/svg" viewBox="0 0 30 30" enable-background="new 0 0 30 30"><linearGradient id="a" gradientUnits="userSpaceOnUse" x1="15" y1="1" x2="15" y2="29" gradientTransform="matrix(1 0 0 -1 0 30)"><stop offset="0" stop-color="#5E4A80"/><stop offset="1" stop-color="#80578F"/></linearGradient><path fill="url(#a)" d="M29 23c0 3.314-2.686 6-6 6h-16c-3.314 0-6-2.686-6-6v-16c0-3.314 2.686-6 6-6h16c3.314 0 6 2.686 6 6v16z"/><path opacity=".4" enable-background="new" d="M23 12.72l-7.95-1.245c-8.01 0-8.05 7.489-8.05 7.489s2.074-3.388 8.05-3.388v3.828l7.95-5.684v-1z"/><path fill="#fff" enable-background="new" d="M15.05 7.037v3.438c-8.01 0-8.05 8.489-8.05 8.489s2.074-4.388 8.05-4.388v3.828l7.95-5.684-7.95-5.683z"/><path opacity=".4" enable-background="new" d="M23 27h-16c-3.314 0-6-2.686-6-6v2c0 3.314 2.686 6 6 6h16c3.314 0 6-2.686 6-6v-2c0 3.314-2.686 6-6 6z"/></svg>