<?xml version="1.0" encoding="utf-8"?>
<!-- Generator: Adobe Illustrator 17.1.0, SVG Export Plug-In . SVG Version: 6.00 Build 0)  -->
<!DOCTYPE svg PUBLIC "-//W3C//DTD SVG 1.1//EN" "http://www.w3.org/Graphics/SVG/1.1/DTD/svg11.dtd">
<svg version="1.1" xmlns="http://www.w3.org/2000/svg" xmlns:xlink="http://www.w3.org/1999/xlink" x="0px" y="0px"
	 viewBox="0 0 30 30" enable-background="new 0 0 30 30" xml:space="preserve">
<g id="check" display="none">
	<path display="inline" fill="none" stroke="#4CA844" stroke-width="2" stroke-miterlimit="10" d="M23.2,10.3l-9.6,9.6l-5.4-5.4"/>
</g>
<g id="fail" display="none">
	<g display="inline">
		<path fill="none" stroke="#FD7022" stroke-width="2" stroke-miterlimit="10" d="M9,9.2l12,12 M21,9.2l-12,12"/>
	</g>
</g>
<g id="chevron-left" display="none">
	<polyline display="inline" fill="none" stroke="#555555" stroke-width="2" stroke-miterlimit="10" points="18.5,24 9.5,15 18.5,6 	
		"/>
</g>
<g id="chevron-right" display="none">
	<polyline display="inline" fill="none" stroke="#555555" stroke-width="2" stroke-miterlimit="10" points="9.5,6 18.5,15 9.5,24 	
		"/>
</g>
<g id="error" display="none">
	<circle display="inline" fill="none" stroke="#FC7022" stroke-width="2" stroke-miterlimit="10" cx="15" cy="15" r="12"/>
	
		<line display="inline" fill="none" stroke="#FC7022" stroke-width="2" stroke-miterlimit="10" x1="15" y1="8.5" x2="15" y2="16.3"/>
	
		<line display="inline" fill="none" stroke="#FC7022" stroke-width="2" stroke-miterlimit="10" x1="15" y1="19.1" x2="15" y2="21.3"/>
</g>
<g id="search" display="none">
	<g display="inline">
		<circle fill="none" stroke="#CCCCCC" stroke-width="2" stroke-miterlimit="10" cx="14.9" cy="14.6" r="6"/>
		<line fill="none" stroke="#CCCCCC" stroke-width="2" stroke-miterlimit="10" x1="23.1" y1="23.4" x2="18.8" y2="19.2"/>
	</g>
</g>
<g id="add" display="none">
	<g display="inline">
		<path fill="none" stroke="#CCCCCC" stroke-width="2" stroke-miterlimit="10" d="M15,6.7l0,17 M23.5,15.2l-17,0"/>
	</g>
</g>
<g id="recipe" display="none">
	<g display="inline">
		<path fill="none" stroke="#00A651" stroke-miterlimit="10" d="M10.1,18.4c4.6,0,2.1,3.4,11.8,3.4"/>
		<path fill="none" stroke="#00A651" stroke-width="2" stroke-miterlimit="10" d="M21.7,21.4l-4.3-7.2V7.2C17.7,7,18,6.6,18,6.1V6
			c0-0.7-0.5-1.2-1.2-1.2h-3.6C12.5,4.8,12,5.3,12,6v0.2c0,0.5,0.3,0.9,0.7,1.1v7.1l-4.3,7.2c0,0-2.6,3.8,1.6,3.8s5.1,0,5.1,0
			s1,0,5.1,0S21.7,21.4,21.7,21.4z"/>
	</g>
</g>
<g id="duration" display="none">
	<g display="inline">
		<circle fill="none" stroke="#FC7022" stroke-width="2" stroke-miterlimit="10" cx="14.4" cy="17" r="8.5"/>
		<path fill="#FC7022" d="M11.4,4.4v2.1c1-0.3,2-0.4,3-0.4s2,0.2,3,0.4V4.4c-1-0.2-2-0.4-3-0.4S12.4,4.1,11.4,4.4z"/>
		<g>
			<path fill="#FC7022" d="M22.5,6.9l-1.4,1.4c0.8,0.6,1.5,1.3,2.1,2.1L24.6,9C24,8.2,23.3,7.5,22.5,6.9z"/>
		</g>
		<circle fill="#FC7022" cx="14.4" cy="17" r="2"/>
	</g>
	<line display="inline" fill="none" stroke="#FC7022" stroke-miterlimit="10" x1="14.4" y1="17" x2="14.4" y2="12"/>
</g>
<g id="calendar" display="none">
	<path display="inline" fill="none" stroke="#FC7022" stroke-width="2" stroke-miterlimit="10" d="M24.5,22c0,0.8-0.7,1.5-1.5,1.5H7
		c-0.8,0-1.5-0.7-1.5-1.5V7.9c0-0.8,0.7-1.5,1.5-1.5H23c0.8,0,1.5,0.7,1.5,1.5V22z"/>
	<g display="inline">
		<path fill="#FC7022" d="M14.7,19.3v-5h-1.9v-1.2c0.3,0,0.5,0,0.8-0.1c0.3,0,0.5-0.1,0.7-0.3c0.2-0.1,0.4-0.3,0.5-0.5
			c0.1-0.2,0.2-0.4,0.3-0.7h1.2v7.7H14.7z"/>
	</g>
	<g display="inline">
		<line fill="none" stroke="#FC7022" stroke-miterlimit="10" x1="9.8" y1="3.5" x2="9.8" y2="9.3"/>
		<line fill="none" stroke="#FC7022" stroke-miterlimit="10" x1="20.2" y1="3.5" x2="20.2" y2="9.3"/>
	</g>
</g>
<g id="trigger" display="none">
	<g id="flash_2_" display="inline">
		<path fill="none" stroke="#FC7022" stroke-width="2" stroke-miterlimit="10" d="M13.7,17.3c0.1-0.3-0.1-0.3-0.3-0.3H8.8
			c-0.3,0-0.3-0.3-0.2-0.5c0,0,9.4-12.5,9.6-12.8c0.1-0.2,0.3-0.2,0.2,0.1c-0.1,0.3-2.1,8.8-2.1,8.8c-0.1,0.3,0,0.4,0.3,0.4h4.6
			c0.3,0,0.4,0.2,0.2,0.4c0,0-9.4,12.8-9.6,13c-0.2,0.2-0.3,0.2-0.2-0.2C11.7,25.8,13.7,17.3,13.7,17.3z"/>
	</g>
</g>
<g id="back" display="none">
	<g id="back_1_" display="inline">
		<circle fill="none" stroke="#CCCCCC" stroke-width="2" stroke-miterlimit="10" cx="15" cy="15" r="10"/>
		<polyline fill="none" stroke="#CCCCCC" stroke-width="2" stroke-miterlimit="10" points="17.1,19.2 12.9,15 17.1,10.8 		"/>
	</g>
</g>
<g id="edit" display="none">
	<path display="inline" fill="none" stroke="#CCCCCC" stroke-width="2" stroke-miterlimit="10" d="M25.3,7.3l-2.7-2.7
		c-0.2-0.2-0.6-0.2-0.9,0l-0.4,0.4L20,6.4l0,0L6,20.3c-0.1,0.1-0.2,0.2-0.2,0.3l-1.3,4.7l4.7-1.3c0.1,0,0.2-0.1,0.3-0.2L23.5,10l0,0
		l1.3-1.3l0.4-0.4C25.6,7.9,25.6,7.5,25.3,7.3z"/>
	
		<line display="inline" fill="none" stroke="#CCCCCC" stroke-width="2" stroke-miterlimit="10" x1="18.9" y1="7" x2="22.9" y2="11.1"/>
</g>
<g id="restart" display="none">
	<g display="inline">
		<g>
			<path fill="#CCCCCC" d="M17.6,4.4c0-0.3-0.1-0.4-0.4-0.3l-6,2.9C11,7.2,11,7.5,11.1,7.7l4.8,4.7c0.2,0.2,0.4,0.1,0.4-0.1
				L17.6,4.4z"/>
		</g>
		<path fill="none" stroke="#CCCCCC" stroke-width="2" stroke-miterlimit="10" d="M7.5,11.9L7.5,11.9c-0.9,1.4-1.4,3.1-1.4,4.9
			c0,4.9,4,8.9,8.9,8.9s8.9-4,8.9-8.9c0-4.9-4-8.9-8.9-8.9"/>
	</g>
</g>
<g id="asterisk" display="none">
	
		<line display="inline" fill="none" stroke="#33CCFF" stroke-width="2" stroke-miterlimit="10" x1="15" y1="15.4" x2="15" y2="7.9"/>
	
		<line display="inline" fill="none" stroke="#33CCFF" stroke-width="2" stroke-miterlimit="10" x1="15" y1="15.4" x2="22.5" y2="12.8"/>
	
		<line display="inline" fill="none" stroke="#33CCFF" stroke-width="2" stroke-miterlimit="10" x1="15" y1="15.4" x2="19.7" y2="22.1"/>
	
		<line display="inline" fill="none" stroke="#33CCFF" stroke-width="2" stroke-miterlimit="10" x1="15" y1="15.4" x2="7.5" y2="12.8"/>
	
		<line display="inline" fill="none" stroke="#33CCFF" stroke-width="2" stroke-miterlimit="10" x1="15" y1="15.4" x2="10.3" y2="22.1"/>
</g>
<g id="folder-open" display="none">
	<g display="inline">
		<path fill="none" stroke="#555555" stroke-width="2" stroke-miterlimit="10" d="M25.1,23.6c0,0.8-0.6,1.4-1.4,1.4H6.3
			c-0.8,0-1.4-0.6-1.4-1.4L3,12.5c0-0.8,0.6-1.4,1.4-1.4h21.2c0.8,0,1.4,0.6,1.4,1.4L25.1,23.6z"/>
	</g>
	<path display="inline" fill="none" stroke="#555555" stroke-width="2" stroke-linejoin="round" stroke-miterlimit="10" d="
		M24.2,7.4h-13V6.2c0-0.6-0.4-1-1-1H5.9c-0.6,0-1,0.4-1,1v2v0.6v2.2c0.1-0.1,20-0.1,20.2,0V8.3C25.1,7.8,24.7,7.4,24.2,7.4z"/>
</g>
<g id="delete" display="none">
	<g display="inline">
		<path fill="none" stroke="#555555" stroke-width="2" stroke-miterlimit="10" d="M6.9,8.6l1.8,15c0,0.5,0.4,0.9,0.9,0.9h10.8
			c0.5,0,0.9-0.4,0.9-0.9l1.8-15H6.9z"/>
		<path fill="none" stroke="#555555" stroke-width="2" stroke-miterlimit="10" d="M10.9,8.6V6.4c0-0.5,0.4-0.9,0.9-0.9h6.5
			c0.5,0,0.9,0.4,0.9,0.9v2.2"/>
		<line fill="none" stroke="#555555" stroke-miterlimit="10" x1="10.9" y1="13.8" x2="12.1" y2="24.5"/>
		<line fill="none" stroke="#555555" stroke-miterlimit="10" x1="14.8" y1="17.8" x2="15.6" y2="24.5"/>
		<line fill="none" stroke="#555555" stroke-miterlimit="10" x1="18.1" y1="21.2" x2="18.5" y2="24.5"/>
		<line fill="none" stroke="#555555" stroke-width="2" stroke-miterlimit="10" x1="5" y1="8.6" x2="25" y2="8.6"/>
	</g>
</g>
<g id="select">
	<polyline fill="none" stroke="#555555" stroke-width="2" stroke-miterlimit="10" points="9.5,10.5 15,5.5 20.5,10.5 	"/>
	<polyline fill="none" stroke="#555555" stroke-width="2" stroke-miterlimit="10" points="20.5,19.5 15,24.5 9.5,19.5 	"/>
</g>
</svg>
