<svg xmlns="http://www.w3.org/2000/svg" viewBox="0 0 30 30" enable-background="new 0 0 30 30"><path fill="#F1F2F2" d="M1 23c0 3.3 2.7 6 6 6h16c3.3 0 6-2.7 6-6v-16h-28v16z"/><linearGradient id="a" gradientUnits="userSpaceOnUse" x1="15" y1="23" x2="15" y2="29" gradientTransform="matrix(1 0 0 -1 0 30)"><stop offset="0" stop-color="#5E4A80"/><stop offset="1" stop-color="#80578F"/></linearGradient><path fill="url(#a)" d="M23 1h-16c-3.3 0-6 2.7-6 6h28c0-3.3-2.7-6-6-6z"/><path opacity=".3" enable-background="new" d="M1 7h28v1h-28v-1zm22 20h-16c-3.3 0-6-2.7-6-6v2c0 3.3 2.7 6 6 6h16c3.3 0 6-2.7 6-6v-2c0 3.3-2.7 6-6 6z"/></svg>