<?xml version="1.0" encoding="utf-8"?>
<!-- Generator: Adobe Illustrator 18.1.1, SVG Export Plug-In . SVG Version: 6.00 Build 0)  -->
<!DOCTYPE svg PUBLIC "-//W3C//DTD SVG 1.1//EN" "http://www.w3.org/Graphics/SVG/1.1/DTD/svg11.dtd">
<svg version="1.1" id="Layer_1" xmlns="http://www.w3.org/2000/svg" xmlns:xlink="http://www.w3.org/1999/xlink" x="0px" y="0px"
	 viewBox="0 0 30 30" enable-background="new 0 0 30 30" xml:space="preserve">
<path d="M11.6,26.3c-0.9,0-1.8-0.4-2.5-1l-1.7-1.7c-0.7-0.7-1-1.5-1-2.5s0.4-1.8,1-2.5l5.5-5.5c0.4-0.4,1-0.4,1.4,0
	s0.4,1,0,1.4l-5.5,5.5c-0.3,0.3-0.4,0.6-0.4,1s0.2,0.8,0.4,1l1.7,1.7c0.6,0.6,1.5,0.6,2.1,0l5.5-5.5c0.4-0.4,1-0.4,1.4,0
	s0.4,1,0,1.4l-5.5,5.5C13.4,26,12.6,26.3,11.6,26.3z"/>
<path d="M16.3,17c-0.3,0-0.5-0.1-0.7-0.3c-0.4-0.4-0.4-1,0-1.4l5.5-5.5c0.3-0.3,0.4-0.6,0.4-1c0-0.4-0.2-0.8-0.4-1
	l-1.7-1.7c-0.6-0.6-1.5-0.6-2.1,0l-5.5,5.5c-0.4,0.4-1,0.4-1.4,0s-0.4-1,0-1.4l5.5-5.5c1.3-1.3,3.6-1.3,4.9,0l1.7,1.7
	c0.7,0.7,1,1.5,1,2.5c0,0.9-0.4,1.8-1,2.5L17,16.7C16.8,16.9,16.6,17,16.3,17z"/>
</svg>
