<?xml version="1.0" encoding="utf-8"?>
<!-- Generator: Adobe Illustrator 18.1.1, SVG Export Plug-In . SVG Version: 6.00 Build 0)  -->
<!DOCTYPE svg PUBLIC "-//W3C//DTD SVG 1.1//EN" "http://www.w3.org/Graphics/SVG/1.1/DTD/svg11.dtd">
<svg version="1.1" id="Layer_1" xmlns="http://www.w3.org/2000/svg" xmlns:xlink="http://www.w3.org/1999/xlink" x="0px" y="0px"
	 viewBox="157.5 0 45 45" enable-background="new 157.5 0 45 45" xml:space="preserve">
<g>
	<path fill="#535353" d="M195.9,38.4c4.4-4.4,6.6-9.7,6.6-15.9s-2.2-11.5-6.6-15.9C191.5,2.2,186.2,0,180,0s-11.5,2.2-15.9,6.6
		c-4.4,4.4-6.6,9.7-6.6,15.9s2.2,11.5,6.6,15.9c4.4,4.4,9.7,6.6,15.9,6.6S191.5,42.8,195.9,38.4z"/>
	<path fill="#FFFFFF" d="M191.3,33.8L191.3,33.8v-0.1l1.5-20l0,0c0.1-2.2-0.7-4.3-3.3-5.1c1.4,0.5,1.6,1.6,2,3.1l-7.1-1.1l7,5.7
		l-0.4,0.7l-8.8,0.6l2.7,10.5l0,0l0,0l0.3,0.2l4.7,4.9h-12c0.3-0.1,0.5-0.3,0.8-0.4v0c2.3-1.2,4.1-2.7,5.7-4.3l0.5-0.4l-10.4-3.3
		l0,0l0,0l7.7-7.2l2.2-7l-0.1,0h0l4.2-2.3l0,0l0,0l-7.5,0L181,8.2l-5.9,2.2c-1.9,1.7-5.4,5.1-5.6,5.2c-0.1,0.1-2,3.6-3.1,5.7
		l-0.1,0.2l-0.2,0.4l0,0.1c-0.3,0.8-0.5,2.3-0.5,5c0,1.2,0.1,2.4,0.2,3.3c0.1,0.6,0.1,1,0.3,1.5c0.1,0.4,0.1,0.7,0.1,0.7l0.1,0
		c1.1,2.6,3.7,2.7,5,2.8l0,0L191.3,33.8L191.3,33.8L191.3,33.8L191.3,33.8L191.3,33.8z M167.6,26.4L167.6,26.4L167.6,26.4l-1,1.8
		c-0.3-1.6-0.4-3.6-0.3-5.4L167.6,26.4L167.6,26.4z M171.4,35.1L171.4,35.1l-0.5-1.1c-1.2-2.9-3-7.4-3.3-7.6v0l6.8-1.5l0.1-0.1l0,0
		C174.5,24.8,171.4,35.1,171.4,35.1z M191,31.4l-1.2-9.2l2.1-4.3L191,31.4z"/>
</g>
</svg>
