<?xml version="1.0" encoding="utf-8"?>
<!-- Generator: Adobe Illustrator 18.1.1, SVG Export Plug-In . SVG Version: 6.00 Build 0)  -->
<!DOCTYPE svg PUBLIC "-//W3C//DTD SVG 1.1//EN" "http://www.w3.org/Graphics/SVG/1.1/DTD/svg11.dtd">
<svg version="1.1" id="Layer_1" xmlns="http://www.w3.org/2000/svg" xmlns:xlink="http://www.w3.org/1999/xlink" x="0px" y="0px"
	 viewBox="157.5 0 45 45" enable-background="new 157.5 0 45 45" xml:space="preserve">
<g>
	<circle fill="#272727" cx="180" cy="22.5" r="22.5"/>
	<path fill="#FFFFFF" d="M181.9,9.4h-4.7l-0.1,7.8c-0.7-0.2-1.3-0.3-2.1-0.3c-5.1,0-8.3,3.2-8.3,8.2c0,5.2,3.1,7.9,9,7.9
		c2,0,3.7-0.2,6.2-0.7C181.9,32.3,181.9,9.4,181.9,9.4z M177.1,28.9c-0.7,0.1-1.1,0.1-1.7,0.1c-2.5,0-3.8-1.4-3.8-4
		c0-2.7,1.4-4.2,3.9-4.2c0.6,0,1.1,0.1,1.6,0.3V28.9z M184.1,26.2c0,4.2-0.2,5.7-0.9,7.1c-0.6,1.3-1.7,2.2-3.8,3.2l4.4,2.1
		c2.1-1.1,3.1-2,3.9-3.5c0.8-1.6,1.1-3.4,1.1-7.2l0-11.6h-4.7C184.2,16.3,184.1,26.2,184.1,26.2z M184.2,9.4v4.7h4.7V9.4H184.2z"/>
</g>
</svg>
