<svg xmlns="http://www.w3.org/2000/svg" viewBox="0 0 60 60" enable-background="new 0 0 60 60"><path fill="#DD1B16" d="M51.209 51.209c5.827-5.877 8.791-12.93 8.791-21.209s-2.964-15.332-8.791-21.21c-5.877-5.826-12.93-8.79-21.209-8.79s-15.332 2.964-21.21 8.79c-5.826 5.878-8.79 12.931-8.79 21.21s2.964 15.332 8.79 21.209c5.878 5.878 12.931 8.791 21.21 8.791s15.332-2.913 21.209-8.791z"/><path fill="#fff" d="M33.169 30.975l-3.169-7.207v7.206h3.169zm-3.179-21.975l-.01.014-20.451 7.802 3.146 26.646 17.305 9.538.01-.001 17.335-9.536 3.146-26.646-20.481-7.817zm7.33 31.413l-2.767-6.292h-4.553v15.731l-.009.114-.009.001-14.919-8.223-2.713-22.973 17.632-6.727.009-.012.009.003v3.208l11.187 25.17h-3.867zm-10.489-9.438l3.169-7.207v-8.525l-11.187 25.17h3.867l2.767-6.292h4.553v-3.146h-3.169z"/></svg>