<?xml version="1.0" encoding="utf-8"?>
<!-- Generator: Adobe Illustrator 18.1.1, SVG Export Plug-In . SVG Version: 6.00 Build 0)  -->
<!DOCTYPE svg PUBLIC "-//W3C//DTD SVG 1.1//EN" "http://www.w3.org/Graphics/SVG/1.1/DTD/svg11.dtd">
<svg version="1.1" id="Layer_1" xmlns="http://www.w3.org/2000/svg" xmlns:xlink="http://www.w3.org/1999/xlink" x="0px" y="0px"
	 viewBox="157.5 0 45 45" enable-background="new 157.5 0 45 45" xml:space="preserve">
<g>
	<path fill="#A8A8A8" d="M195.9,38.4c4.4-4.4,6.6-9.7,6.6-15.9s-2.2-11.5-6.6-15.9C191.5,2.2,186.2,0,180,0s-11.5,2.2-15.9,6.6
		c-4.4,4.4-6.6,9.7-6.6,15.9s2.2,11.5,6.6,15.9c4.4,4.4,9.7,6.6,15.9,6.6S191.5,42.8,195.9,38.4z"/>
	<g>
		<path fill="#FFFFFF" d="M180,39c-0.4,0-0.9-0.1-1.3-0.3l-4-2.4c-0.6-0.3-0.3-0.5-0.1-0.5c0.8-0.3,1-0.3,1.8-0.8
			c0.1-0.1,0.2,0,0.3,0l3.1,1.8c0.1,0.1,0.3,0.1,0.4,0l12.1-7c0.1-0.1,0.2-0.2,0.2-0.3V15.5c0-0.1-0.1-0.3-0.2-0.3l-12.1-7
			c-0.1-0.1-0.3-0.1-0.4,0l-12.1,7c-0.1,0.1-0.2,0.2-0.2,0.3v13.9c0,0.1,0.1,0.3,0.2,0.3l3.3,1.9c1.8,0.9,2.9-0.2,2.9-1.2V16.7
			c0-0.2,0.2-0.3,0.4-0.3h1.5c0.2,0,0.4,0.2,0.4,0.3v13.8c0,2.4-1.3,3.8-3.6,3.8c-0.7,0-1.2,0-2.8-0.8l-3.2-1.8
			c-0.8-0.5-1.3-1.3-1.3-2.2V15.5c0-0.9,0.5-1.8,1.3-2.2l12.1-7c0.8-0.4,1.8-0.4,2.5,0l12.1,7c0.8,0.5,1.3,1.3,1.3,2.2v13.9
			c0,0.9-0.5,1.7-1.3,2.2l-12.1,7C180.9,38.9,180.4,39,180,39L180,39z M183.7,29.4c-5.3,0-6.4-2.4-6.4-4.5c0-0.2,0.2-0.3,0.3-0.3
			h1.6c0.2,0,0.3,0.1,0.3,0.3c0.2,1.6,0.9,2.4,4.1,2.4c2.5,0,3.6-0.6,3.6-1.9c0-0.8-0.3-1.4-4.3-1.7c-3.3-0.3-5.4-1.1-5.4-3.7
			c0-2.4,2.1-3.9,5.5-3.9c3.9,0,5.8,1.3,6,4.2c0,0.1,0,0.2-0.1,0.3c-0.1,0.1-0.2,0.1-0.3,0.1h-1.6c-0.2,0-0.3-0.1-0.3-0.3
			c-0.4-1.7-1.3-2.2-3.8-2.2c-2.8,0-3.1,1-3.1,1.7c0,0.9,0.4,1.1,4.1,1.6c3.7,0.5,5.5,1.2,5.5,3.8C189.8,27.9,187.6,29.4,183.7,29.4
			z"/>
	</g>
</g>
</svg>
