<?xml version="1.0" encoding="utf-8"?>
<!-- Generator: Adobe Illustrator 18.1.1, SVG Export Plug-In . SVG Version: 6.00 Build 0)  -->
<!DOCTYPE svg PUBLIC "-//W3C//DTD SVG 1.1//EN" "http://www.w3.org/Graphics/SVG/1.1/DTD/svg11.dtd">
<svg version="1.1" id="Layer_1" xmlns="http://www.w3.org/2000/svg" xmlns:xlink="http://www.w3.org/1999/xlink" x="0px" y="0px"
	 viewBox="157.5 0 45 45" enable-background="new 157.5 0 45 45" xml:space="preserve">
<circle fill="#878787" cx="180" cy="22.5" r="22.5"/>
<path fill="#FFFFFF" d="M179.3,29.9c-0.2-9.6,0-19.8,0.1-23.7c-0.1,0.2-0.3,0.5-0.6,0.7c-1,0.9-6.3,6.3-6.6,14.6
	c-0.2,6.5,3.1,10.6,5,12.5c0.3-0.3,1.6-1.3,2.1-3.1C179.3,30.6,179.3,30.3,179.3,29.9z M180.1,32.5c-0.5,0.9-1.3,1.3-2.1,2.1
	c0.2,0.2,0.4,0.3,0.5,0.4c0.6,1.6,0.7,5.1,0.7,5.1l1.5-0.3c0,0,0.4-3.9,1.2-4.7l0.7-0.6C182,34.1,180.8,33.6,180.1,32.5z
	 M187.8,21.4c-0.3-5.8-2.7-10-6.4-14c-1.3-1.4-1.5-2.5-1.5-2.5s0,0.4-0.2,0.8c0.5,3.4,1.9,13.4,1.4,24.2c0,3.3,1.9,4.1,1.9,4.1l0,0
	C184.9,32.1,188.1,28.1,187.8,21.4z"/>
</svg>
