<?xml version="1.0" encoding="utf-8"?>
<!-- Generator: Adobe Illustrator 18.1.1, SVG Export Plug-In . SVG Version: 6.00 Build 0)  -->
<!DOCTYPE svg PUBLIC "-//W3C//DTD SVG 1.1//EN" "http://www.w3.org/Graphics/SVG/1.1/DTD/svg11.dtd">
<svg version="1.1" id="Layer_1" xmlns="http://www.w3.org/2000/svg" xmlns:xlink="http://www.w3.org/1999/xlink" x="0px" y="0px"
	 viewBox="157.5 0 45 45" enable-background="new 157.5 0 45 45" xml:space="preserve">
<g>
	<circle fill="#727272" cx="180" cy="22.5" r="22.5"/>
	<path fill="#FFFFFF" d="M183.1,20.4c1.7,0,3.1-1.4,3.1-3.1v-5c0,0,0-2-1-3.1c-1-1-4.1-1-4.1-1h-5.1c0,0-2,0.5-3.1,2
		c-1,1.5-1,4.1-1,4.1h7.6c0.3,0,0.5,0.2,0.5,0.5s-0.2,0.5-0.5,0.5h-8.7c0,0-5.1-0.1-5.1,7.1l4.1,7.1v-4.1c0-2.8,2.3-5.1,5.1-5.1
		H183.1z M175.1,12.8c-0.7,0-1.2-0.6-1.2-1.2c0-0.7,0.6-1.2,1.2-1.2c0.7,0,1.2,0.6,1.2,1.2C176.4,12.2,175.8,12.8,175.1,12.8z
		 M190.2,15.4v4.1c0,2.8-2.3,5.1-5.1,5.1h-8.1c-1.7,0-3.1,1.4-3.1,3.1v5.1c0,0,0,2,1,3.1c1,1,3.1,1,3.1,1h6.1c0,0,2-0.5,3.1-2
		c1-1.5,1-4.1,1-4.1h-7.6c-0.3,0-0.5-0.2-0.5-0.5s0.2-0.5,0.5-0.5h8.7c0,0,5.1,0.1,5.1-7.1C194.3,22.5,190.2,15.4,190.2,15.4z
		 M184.9,32.2c0.7,0,1.2,0.6,1.2,1.2c0,0.7-0.6,1.2-1.2,1.2c-0.7,0-1.2-0.6-1.2-1.2C183.6,32.8,184.2,32.2,184.9,32.2z"/>
</g>
</svg>
