<?xml version="1.0" encoding="utf-8"?>
<!-- Generator: Adobe Illustrator 18.1.1, SVG Export Plug-In . SVG Version: 6.00 Build 0)  -->
<!DOCTYPE svg PUBLIC "-//W3C//DTD SVG 1.1//EN" "http://www.w3.org/Graphics/SVG/1.1/DTD/svg11.dtd">
<svg version="1.1" id="Layer_1" xmlns="http://www.w3.org/2000/svg" xmlns:xlink="http://www.w3.org/1999/xlink" x="0px" y="0px"
	 viewBox="157.5 0 45 45" enable-background="new 157.5 0 45 45" xml:space="preserve">
<circle fill="#5D5D5D" cx="180" cy="22.5" r="22.5"/>
<path fill="#FFFFFF" d="M166.3,19.8c1.6,0.8,10.3,4.3,11.7,5c1.4,0.7,2.4,0.7,4.1-0.2c1.8-0.9,10-4.3,11.6-5.1
	c0.8-0.4,1.2-0.7,1.2-1l0-3l0,0c0-0.3-0.4-0.6-1.2-0.9c-1.5-0.6-9.7-3.8-11.3-4.4c-1.6-0.6-2.2-0.5-4,0.1
	c-1.8,0.7-10.5,4.1-12.1,4.7c-0.8,0.3-1.2,0.6-1.1,0.9v3C165.1,19.1,165.5,19.5,166.3,19.8z M180.6,20.3l-4.8-2l6.9-1.1
	C182.7,17.2,180.6,20.3,180.6,20.3z M191,15.5l-4.1,1.6l-0.4,0.2l-4.1-1.6l4.5-1.8L191,15.5z M179.1,12.6l-0.7-1.2l2.1,0.8l2-0.6
	l-0.5,1.3l2,0.7l-2.6,0.3l-0.6,1.4l-0.9-1.5l-3-0.3C176.8,13.4,179.1,12.6,179.1,12.6z M173.9,14.3c2,0,3.7,0.6,3.7,1.4
	c0,0.8-1.6,1.4-3.7,1.4c-2,0-3.7-0.6-3.7-1.4C170.2,14.9,171.9,14.3,173.9,14.3z M193.7,26.4c-1.6,0.8-9.8,4.2-11.6,5.1
	c-1.8,0.9-2.7,0.9-4.1,0.2c-1.4-0.7-10.1-4.2-11.7-5c-0.8-0.4-1.2-0.7-1.2-1v3c0,0.3,0.4,0.6,1.2,1c1.6,0.8,10.3,4.3,11.7,5
	c1.4,0.7,2.4,0.7,4.1-0.2c1.8-0.9,10-4.3,11.6-5.1c0.8-0.4,1.2-0.7,1.2-1l0-3l0,0C194.9,25.7,194.5,26,193.7,26.4z M193.7,21.5
	c-1.6,0.8-9.8,4.2-11.6,5.1s-2.7,0.9-4.1,0.2c-1.4-0.7-10.1-4.2-11.7-5c-0.8-0.4-1.2-0.7-1.2-1v3c0,0.3,0.4,0.6,1.2,1
	c1.6,0.8,10.3,4.3,11.7,5c1.4,0.7,2.4,0.7,4.1-0.2c1.8-0.9,10-4.3,11.6-5.1c0.8-0.4,1.2-0.7,1.2-1l0-3l0,0
	C194.9,20.8,194.5,21.1,193.7,21.5z"/>
</svg>
