<?xml version="1.0" encoding="utf-8"?>
<!-- Generator: Adobe Illustrator 18.1.1, SVG Export Plug-In . SVG Version: 6.00 Build 0)  -->
<!DOCTYPE svg PUBLIC "-//W3C//DTD SVG 1.1//EN" "http://www.w3.org/Graphics/SVG/1.1/DTD/svg11.dtd">
<svg version="1.1" id="Layer_1" xmlns="http://www.w3.org/2000/svg" xmlns:xlink="http://www.w3.org/1999/xlink" x="0px" y="0px"
	 viewBox="0 0 30 30" enable-background="new 0 0 30 30" xml:space="preserve">
<circle fill="#6F81B9" cx="15" cy="15" r="15"/>
<path fill="#FFFFFF" d="M9.5,11.9H5.7L4,20.3h2l0.4-2.2h1.9c1.8,0.1,3.8-1.4,3.8-3.9C12,12.8,11.2,12,9.5,11.9z M8.1,16.6H6.8
	l0.5-3.1h1.4c0.7,0,1.3,0.3,1.3,0.9C9.8,16.1,9,16.5,8.1,16.6z"/>
<path id="h" fill="#FFFFFF" d="M11.6,18.1l1.7-8.4h2l-0.4,2.2h1.9c1.7,0.1,2.3,0.9,2.1,2l-0.7,4.3H16l0.7-3.9
	c0.1-0.5,0.1-0.8-0.6-0.8h-1.6l-0.9,4.7H11.6z"/>
<path fill="#FFFFFF" d="M23.5,11.9h-3.9L18,20.3h2l0.4-2.2h1.9c1.8,0.1,3.8-1.4,3.8-3.9C26,12.8,25.2,12,23.5,11.9z M22,16.6h-1.3
	l0.5-3.1h1.4c0.7,0,1.3,0.3,1.3,0.9C23.8,16.1,23,16.5,22,16.6z"/>
</svg>
