<?xml version="1.0" encoding="utf-8"?>
<!-- Generator: Adobe Illustrator 18.1.0, SVG Export Plug-In . SVG Version: 6.00 Build 0)  -->
<!DOCTYPE svg PUBLIC "-//W3C//DTD SVG 1.1//EN" "http://www.w3.org/Graphics/SVG/1.1/DTD/svg11.dtd">
<svg version="1.1" id="Layer_1" xmlns="http://www.w3.org/2000/svg" xmlns:xlink="http://www.w3.org/1999/xlink" x="0px" y="0px"
	 viewBox="0 0 93 72" enable-background="new 0 0 93 72" xml:space="preserve">
<path fill="#F0F8FB" stroke="#AECED6" stroke-miterlimit="10" d="M86,70.1H7.1c-3.1,0-5.5-2.5-5.5-5.5V8.1c0-3.1,2.5-5.5,5.5-5.5H86
	c3.1,0,5.5,2.5,5.5,5.5v56.4C91.5,67.6,89.1,70.1,86,70.1z"/>
<path fill="#D5EBF3" d="M84.9,46.3H7.9c-1.9,0-3.4-1.5-3.4-3.4V29.8c0-1.9,1.5-3.4,3.4-3.4h77.1c1.9,0,3.4,1.5,3.4,3.4v13.1
	C88.3,44.8,86.8,46.3,84.9,46.3z"/>
<path fill="#D5EBF3" d="M84.9,46.3H7.9c-1.9,0-3.4-1.5-3.4-3.4V29.8c0-1.9,1.5-3.4,3.4-3.4h77.1c1.9,0,3.4,1.5,3.4,3.4v13.1
	C88.3,44.8,86.8,46.3,84.9,46.3z"/>
<g>
	<path fill="#D5EBF3" d="M85,13.4v2.9h-4.5c-0.3,1.3-1,2.3-2,3.1c-1,0.8-2.2,1.2-3.5,1.2c-1.4,0-2.5-0.4-3.5-1.2
		c-1-0.8-1.7-1.8-2-3.1h-4.5v-2.9h4.5c0.3-1.3,1-2.3,2-3.1c1-0.8,2.2-1.2,3.5-1.2c1.4,0,2.5,0.4,3.5,1.2c1,0.8,1.7,1.8,2,3.1H85z
		 M77,16.8c0.5-0.5,0.8-1.2,0.8-2c0-0.8-0.3-1.5-0.8-2c-0.5-0.5-1.2-0.8-2-0.8c-0.8,0-1.5,0.3-2,0.8c-0.5,0.5-0.8,1.2-0.8,2
		c0,0.8,0.3,1.5,0.8,2c0.5,0.5,1.2,0.8,2,0.8C75.7,17.7,76.4,17.4,77,16.8z"/>
</g>
<rect x="7" y="13.4" fill="#D5EBF3" width="51.6" height="2.9"/>
<g>
	<path fill="#AECED6" d="M85,34.9v2.9h-4.5c-0.3,1.3-1,2.3-2,3.1c-1,0.8-2.2,1.2-3.5,1.2c-1.4,0-2.5-0.4-3.5-1.2s-1.7-1.8-2-3.1
		h-4.5v-2.9h4.5c0.3-1.3,1-2.3,2-3.1c1-0.8,2.2-1.2,3.5-1.2c1.4,0,2.5,0.4,3.5,1.2c1,0.8,1.7,1.8,2,3.1H85z M77,38.4
		c0.5-0.5,0.8-1.2,0.8-2c0-0.8-0.3-1.5-0.8-2c-0.5-0.5-1.2-0.8-2-0.8c-0.8,0-1.5,0.3-2,0.8c-0.5,0.5-0.8,1.2-0.8,2
		c0,0.8,0.3,1.5,0.8,2c0.5,0.5,1.2,0.8,2,0.8C75.7,39.2,76.4,38.9,77,38.4z"/>
</g>
<rect x="7" y="34.9" fill="#AECED6" width="51.6" height="2.9"/>
<g>
	<path fill="#D5EBF3" d="M85,56.8v2.9h-4.5c-0.3,1.3-1,2.3-2,3.1c-1,0.8-2.2,1.2-3.5,1.2c-1.4,0-2.5-0.4-3.5-1.2s-1.7-1.8-2-3.1
		h-4.5v-2.9h4.5c0.3-1.3,1-2.3,2-3.1c1-0.8,2.2-1.2,3.5-1.2c1.4,0,2.5,0.4,3.5,1.2c1,0.8,1.7,1.8,2,3.1H85z M77,60.3
		c0.5-0.5,0.8-1.2,0.8-2c0-0.8-0.3-1.5-0.8-2c-0.5-0.5-1.2-0.8-2-0.8c-0.8,0-1.5,0.3-2,0.8c-0.5,0.5-0.8,1.2-0.8,2
		c0,0.8,0.3,1.5,0.8,2c0.5,0.5,1.2,0.8,2,0.8C75.7,61.1,76.4,60.9,77,60.3z"/>
</g>
<rect x="7" y="56.8" fill="#D5EBF3" width="51.6" height="2.9"/>
<g>
</g>
<g>
</g>
<g>
</g>
<g>
</g>
<g>
</g>
<g>
</g>
<g>
</g>
<g>
</g>
<g>
</g>
<g>
</g>
<g>
</g>
<g>
</g>
<g>
</g>
<g>
</g>
<g>
</g>
</svg>
