<?xml version="1.0" encoding="utf-8"?>
<!-- Generator: Adobe Illustrator 18.1.0, SVG Export Plug-In . SVG Version: 6.00 Build 0)  -->
<!DOCTYPE svg PUBLIC "-//W3C//DTD SVG 1.1//EN" "http://www.w3.org/Graphics/SVG/1.1/DTD/svg11.dtd">
<svg version="1.1" id="Layer_1" xmlns="http://www.w3.org/2000/svg" xmlns:xlink="http://www.w3.org/1999/xlink" x="0px" y="0px"
	 viewBox="0 0 150 96" enable-background="new 0 0 150 96" xml:space="preserve">
<path fill="#F0F8FB" stroke="#C8E4EE" stroke-width="3" stroke-miterlimit="10" d="M90.4,71.5c-1.5,0-3.1,1.3-3.1,2.8v3.9
	c0,1.5,1.7,2.2,3.1,2.2h47.9v-9H90.4z"/>
<path fill="#F0F8FB" stroke="#C8E4EE" stroke-width="3" stroke-miterlimit="10" d="M90.4,54.5c-1.5,0-3.1,1.3-3.1,2.8v3.9
	c0,1.5,1.7,2.2,3.1,2.2h47.9v-9H90.4z"/>
<path fill="#F0F8FB" stroke="#C8E4EE" stroke-width="3" stroke-miterlimit="10" d="M17.4,54.5c-1.5,0-3.1,1.3-3.1,2.8v3.9
	c0,1.5,1.7,2.2,3.1,2.2h46.9v-9H17.4z"/>
<path fill="#F0F8FB" stroke="#C8E4EE" stroke-width="3" stroke-miterlimit="10" d="M17.4,71.5c-1.5,0-3.1,1.3-3.1,2.8v3.9
	c0,1.5,1.7,2.2,3.1,2.2h46.9v-9H17.4z"/>
<g>
	<path fill="#DEF3F9" stroke="#C8E4EE" stroke-width="3" stroke-miterlimit="10" d="M10.1,63.3v17.2c0,1.2,0.4,2.2,1.4,3.1
		s1.9,1.4,3.1,1.4h49.6c0.1,0,0.1,0,0.1,0c0.9-0.2,1.5-1,1.5-1.9v-0.3c0-1-0.7-1.8-1.7-1.9c0,0,0,0,0,0H18.5c-1.7,0-3-1.4-3-3v-3.4
		c0-1.5,1.2-2.7,2.7-2.7h45.6c1.2,0,2.1-0.7,2.1-2.1s-1.7-2-1.7-2C64.2,66.2,10.1,62.1,10.1,63.3z"/>
</g>
<polygon fill="#EFEBF2" stroke="#D2C7DA" stroke-width="2" stroke-miterlimit="10" points="19.8,75 19.8,91 26.8,83.8 33.8,91 
	33.8,75 "/>
<g>
	<path fill="#DEF3F9" stroke="#C8E4EE" stroke-width="3" stroke-miterlimit="10" d="M64.5,3.8c-0.9-0.9-1.9-1.3-3.1-1.3
		c-2.8,0-10.6,0-23.4,0H14.6c-1.2,0-2.2,0.3-3.1,1.3s-1.4,1.8-1.4,3V63c0,1.2,0.4,2.2,1.4,3.1s1.9,1.4,3.1,1.4h49.6
		c0.1,0,0.1,0,0.1,0c0.9-0.2,1.5-1,1.5-1.9v-0.3c0-1-0.7-1.8-1.7-1.9c0,0,0,0,0,0H18.5c-1.7,0-3-1.4-3-3v-3.4c0-1.5,1.2-2.7,2.7-2.7
		h45.6c1.2,0,2.1-0.9,2.1-2.1V6.8C65.9,5.5,65.5,4.7,64.5,3.8z"/>
</g>
<polygon fill="#FDE8B0" stroke="#E0C792" stroke-width="2" stroke-miterlimit="10" points="40.8,59 40.8,74.5 47.8,67.3 54.8,74.5 
	54.8,59 "/>
<g>
	<path fill="#DEF3F9" stroke="#C8E4EE" stroke-width="3" stroke-miterlimit="10" d="M84.1,63.3v17.2c0,1.2,0.4,2.2,1.4,3.1
		s1.9,1.4,3.1,1.4h49.6c0.1,0,0.1,0,0.1,0c0.9-0.2,1.5-1,1.5-1.9v-0.3c0-1-0.7-1.8-1.7-1.9c0,0,0,0,0,0H92.5c-1.7,0-3-1.4-3-3v-3.4
		c0-1.5,1.2-2.7,2.7-2.7h45.6c1.2,0,2.1-0.7,2.1-2.1s-1.7-2-1.7-2C138.2,66.2,84.1,62.1,84.1,63.3z"/>
</g>
<g>
	<path fill="#DEF3F9" stroke="#C8E4EE" stroke-width="3" stroke-miterlimit="10" d="M138.5,3.8c-0.9-0.9-1.9-1.3-3.1-1.3
		c-2.8,0-10.6,0-23.4,0H88.6c-1.2,0-2.2,0.3-3.1,1.3s-1.4,1.8-1.4,3V63c0,1.2,0.4,2.2,1.4,3.1s1.9,1.4,3.1,1.4h49.6
		c0.1,0,0.1,0,0.1,0c0.9-0.2,1.5-1,1.5-1.9v-0.3c0-1-0.7-1.8-1.7-1.9c0,0,0,0,0,0H92.5c-1.7,0-3-1.4-3-3v-3.4c0-1.5,1.2-2.7,2.7-2.7
		h45.6c1.2,0,2.1-0.9,2.1-2.1V6.8C139.9,5.5,139.5,4.7,138.5,3.8z"/>
</g>
<polygon fill="#B8ECC3" stroke="#9FCEA7" stroke-width="2" stroke-miterlimit="10" points="105.8,59 105.8,73.5 112.8,66.3 
	119.8,73.5 119.8,59 "/>
<g>
</g>
<g>
</g>
<g>
</g>
<g>
</g>
<g>
</g>
<g>
</g>
<g>
</g>
<g>
</g>
<g>
</g>
<g>
</g>
<g>
</g>
<g>
</g>
<g>
</g>
<g>
</g>
<g>
</g>
</svg>
