<?xml version="1.0" encoding="utf-8"?>
<!-- Generator: Adobe Illustrator 18.1.0, SVG Export Plug-In . SVG Version: 6.00 Build 0)  -->
<!DOCTYPE svg PUBLIC "-//W3C//DTD SVG 1.1//EN" "http://www.w3.org/Graphics/SVG/1.1/DTD/svg11.dtd">
<svg version="1.1" id="Layer_1" xmlns="http://www.w3.org/2000/svg" xmlns:xlink="http://www.w3.org/1999/xlink" x="0px" y="0px"
	 viewBox="0 0 600 300" enable-background="new 0 0 600 300" xml:space="preserve">
<rect x="284.2" y="80.6" fill="#F0F8FB" stroke="#C8E4EE" stroke-width="3" stroke-miterlimit="10" width="221" height="160.4"/>
<rect x="64" y="59" fill="#EFEBF2" stroke="#D2C7DA" stroke-width="3" stroke-miterlimit="10" width="220.5" height="182"/>
<g>
	<path fill="#3CCB5A" d="M75.3,81.7h1l0.1,1.4h0c0.6-0.9,1.5-1.5,2.6-1.5c0.5,0,0.8,0.1,1.2,0.2l-0.3,1c-0.4-0.1-0.6-0.2-1.1-0.2
		c-0.8,0-1.7,0.4-2.3,1.6v3.3h-1.2V81.7z"/>
	<path fill="#3CCB5A" d="M84.4,81.6c1.5,0,2.9,1.1,2.9,3.1c0,1.9-1.4,3.1-2.9,3.1s-2.9-1.1-2.9-3.1C81.5,82.7,82.9,81.6,84.4,81.6z
		 M84.4,86.8c1,0,1.7-0.8,1.7-2.1s-0.7-2.1-1.7-2.1s-1.7,0.8-1.7,2.1S83.4,86.8,84.4,86.8z"/>
	<path fill="#3CCB5A" d="M91.6,81.6c1.5,0,2.9,1.1,2.9,3.1c0,1.9-1.4,3.1-2.9,3.1s-2.9-1.1-2.9-3.1C88.7,82.7,90.1,81.6,91.6,81.6z
		 M91.6,86.8c1,0,1.7-0.8,1.7-2.1s-0.7-2.1-1.7-2.1s-1.7,0.8-1.7,2.1S90.6,86.8,91.6,86.8z"/>
	<path fill="#3CCB5A" d="M97.6,82.7H96v-0.9l1.7-0.1l0.2-1.6h1v1.6h2.8v1h-2.8v2.6c0,1,0.3,1.5,1.4,1.5c0.5,0,0.9-0.1,1.3-0.3
		l0.2,0.9c-0.5,0.2-1.2,0.3-1.9,0.3c-1.7,0-2.3-1-2.3-2.5V82.7z"/>
	<path fill="#3CCB5A" d="M109,86.4h-0.7l-0.1-0.7h0c-0.3,0.4-0.9,0.8-1.5,0.8c-0.9,0-1.5-0.6-1.5-1.6c0-1.2,1.1-1.8,3.1-2.1v-0.2
		c0-1.1-0.5-2-1.7-2c-1.4,0-2.6,1.3-2.6,3.9c0,2.6,1.2,3.9,2.7,3.9c0.7,0,1.2-0.2,1.7-0.5l0.4,0.6c-0.6,0.4-1.3,0.7-2.1,0.7
		c-1.9,0-3.5-1.6-3.5-4.7c0-3.1,1.6-4.6,3.5-4.6c1.7,0,2.5,1.3,2.5,2.9V86.4z M106.9,85.7c0.4,0,0.8-0.2,1.2-0.7v-1.4
		c-1.5,0.2-2.1,0.6-2.1,1.3C106,85.4,106.3,85.7,106.9,85.7z"/>
	<path fill="#3CCB5A" d="M111.3,81.7h1l0.1,1.4h0c0.6-0.9,1.5-1.5,2.6-1.5c0.5,0,0.8,0.1,1.2,0.2l-0.3,1c-0.4-0.1-0.6-0.2-1.1-0.2
		c-0.8,0-1.7,0.4-2.3,1.6v3.3h-1.2V81.7z"/>
	<path fill="#3CCB5A" d="M123,87.6h-1l-0.1-1h0c-0.6,0.7-1.2,1.1-2.1,1.1c-1.4,0-2-0.8-2-2.4v-3.6h1.2v3.5c0,1,0.3,1.5,1.2,1.5
		c0.6,0,1.1-0.3,1.6-1v-4h1.2V87.6z"/>
	<path fill="#3CCB5A" d="M125.1,81.7h1l0.1,0.9h0c0.6-0.6,1.2-1.1,2.2-1.1c1.4,0,2,0.9,2,2.4v3.6h-1.2v-3.5c0-1-0.3-1.5-1.2-1.5
		c-0.6,0-1.1,0.3-1.7,0.9v4h-1.2V81.7z"/>
	<path fill="#3CCB5A" d="M132.3,81.7h1l0.1,0.9h0c0.6-0.6,1.2-1.1,2.2-1.1c1.4,0,2,0.9,2,2.4v3.6h-1.2v-3.5c0-1-0.3-1.5-1.2-1.5
		c-0.6,0-1.1,0.3-1.7,0.9v4h-1.2V81.7z"/>
	<path fill="#3CCB5A" d="M143.5,83.9c0-0.7-0.4-1.3-1.5-1.3c-0.7,0-1.4,0.3-2,0.7l-0.4-0.8c0.6-0.4,1.6-0.8,2.6-0.8
		c1.6,0,2.4,0.9,2.4,2.5v3.5h-1l-0.1-0.8h0c-0.6,0.5-1.4,0.9-2.2,0.9c-1.1,0-2-0.7-2-1.7C139.4,84.7,140.5,84.1,143.5,83.9z
		 M141.7,86.8c0.6,0,1.2-0.3,1.8-0.8v-1.4c-2.3,0.2-3,0.6-3,1.3C140.5,86.6,141,86.8,141.7,86.8z"/>
	<path fill="#3CCB5A" d="M146.7,79.1h1.2v2.3l0,1.1c0.5-0.5,1.2-0.8,1.9-0.8c1.5,0,2.4,1.2,2.4,3c0,2-1.3,3.2-2.6,3.2
		c-0.6,0-1.2-0.3-1.8-0.8h0l-0.1,0.6h-0.9V79.1z M149.3,86.8c0.9,0,1.6-0.8,1.6-2.2c0-1.2-0.5-2-1.5-2c-0.5,0-1,0.2-1.5,0.8v2.8
		C148.4,86.6,148.9,86.8,149.3,86.8z"/>
	<path fill="#3CCB5A" d="M153.8,79.1h3.1v6.5c0,0.8,0.5,1.2,1.1,1.2c0.3,0,0.6-0.1,1.1-0.3l0.3,0.9c-0.6,0.2-1,0.3-1.6,0.3
		c-1.3,0-2-0.8-2-2.2V80h-1.9V79.1z"/>
	<path fill="#3CCB5A" d="M163.8,81.6c1.7,0,2.7,1.1,2.7,2.8c0,0.2,0,0.5-0.1,0.6H162c0.1,1.2,0.9,1.8,2.1,1.8c0.6,0,1.2-0.2,1.7-0.5
		l0.4,0.8c-0.6,0.4-1.4,0.7-2.3,0.7c-1.8,0-3.2-1.1-3.2-3.1C160.8,82.8,162.3,81.6,163.8,81.6z M165.4,84.2c0-1-0.6-1.6-1.6-1.6
		c-0.9,0-1.7,0.6-1.8,1.6H165.4z"/>
	<path fill="#D2C7DA" d="M170.8,81.3c0.6,0,1.1,0.5,1.1,1.1s-0.5,1.1-1.1,1.1c-0.6,0-1.1-0.5-1.1-1.1S170.2,81.3,170.8,81.3z
		 M170.8,85.5c0.6,0,1.1,0.5,1.1,1.1c0,0.7-0.5,1.1-1.1,1.1c-0.6,0-1.1-0.5-1.1-1.1C169.8,86,170.2,85.5,170.8,85.5z"/>
	<path fill="#729FCF" d="M175.3,84.3c0.4-1.2,1.1-1.6,1.7-1.6c1,0,1.4,1,2.1,1c0.4,0,0.7-0.2,0.9-1l0.7,0.3
		c-0.4,1.2-1.1,1.5-1.7,1.5c-1,0-1.4-1-2.1-1c-0.4,0-0.7,0.2-0.9,1L175.3,84.3z"/>
	<path fill="#D2C7DA" d="M183.6,85.2h-0.9v-0.8h1l0.2-1.7h-1v-0.8h1.1l0.3-2.1h0.7l-0.3,2.1h1.5l0.3-2.1h0.7l-0.3,2.1h1v0.8h-1.1
		l-0.2,1.7h1v0.8h-1.1l-0.3,2.4h-0.7l0.3-2.4h-1.5l-0.3,2.4h-0.7L183.6,85.2z M185.9,84.4l0.2-1.7h-1.5l-0.2,1.7H185.9z"/>
</g>
<rect x="201.4" y="74.5" fill="#D2C7DA" width="8.7" height="17.4"/>
<rect x="285" y="59" fill="#D5EBF3" stroke="#C8E4EE" stroke-width="3" stroke-miterlimit="10" width="220.2" height="32.1"/>
<g>
	<path fill="#5D5D5D" d="M318,73.9h1l0.1,1.4h0c0.6-0.9,1.5-1.5,2.6-1.5c0.5,0,0.8,0.1,1.2,0.2l-0.3,1c-0.4-0.1-0.6-0.2-1.1-0.2
		c-0.8,0-1.7,0.4-2.3,1.6v3.3H318V73.9z"/>
	<path fill="#5D5D5D" d="M329.6,79.8h-1l-0.1-1h0c-0.6,0.7-1.2,1.1-2.1,1.1c-1.4,0-2-0.8-2-2.4v-3.6h1.2v3.5c0,1,0.3,1.5,1.2,1.5
		c0.6,0,1.1-0.3,1.6-1v-4h1.2V79.8z"/>
	<path fill="#5D5D5D" d="M331.8,73.9h1l0.1,0.9h0c0.6-0.6,1.2-1.1,2.2-1.1c1.4,0,2,0.9,2,2.4v3.6h-1.2v-3.5c0-1-0.3-1.5-1.2-1.5
		c-0.6,0-1.1,0.3-1.7,0.9v4h-1.2V73.9z"/>
	<path fill="#5D5D5D" d="M339,73.9h1l0.1,0.9h0c0.6-0.6,1.2-1.1,2.2-1.1c1.4,0,2,0.9,2,2.4v3.6h-1.2v-3.5c0-1-0.3-1.5-1.2-1.5
		c-0.6,0-1.1,0.3-1.7,0.9v4H339V73.9z"/>
	<path fill="#5D5D5D" d="M350.2,76.1c0-0.7-0.4-1.3-1.5-1.3c-0.7,0-1.4,0.3-2,0.7l-0.4-0.8c0.6-0.4,1.6-0.8,2.6-0.8
		c1.6,0,2.4,0.9,2.4,2.5v3.5h-1l-0.1-0.8h0c-0.6,0.5-1.4,0.9-2.2,0.9c-1.1,0-2-0.7-2-1.7C346,76.9,347.2,76.3,350.2,76.1z M348.4,79
		c0.6,0,1.2-0.3,1.8-0.8v-1.4c-2.3,0.2-3,0.6-3,1.3C347.2,78.8,347.7,79,348.4,79z"/>
	<path fill="#5D5D5D" d="M353.4,71.3h1.2v2.3l0,1.1c0.5-0.5,1.2-0.8,1.9-0.8c1.5,0,2.4,1.2,2.4,3c0,2-1.3,3.2-2.6,3.2
		c-0.6,0-1.2-0.3-1.8-0.8h0l-0.1,0.6h-0.9V71.3z M356,79c0.9,0,1.6-0.8,1.6-2.2c0-1.2-0.5-2-1.5-2c-0.5,0-1,0.2-1.5,0.8v2.8
		C355.1,78.8,355.6,79,356,79z"/>
	<path fill="#5D5D5D" d="M360.4,71.3h3.1v6.5c0,0.8,0.5,1.2,1.1,1.2c0.3,0,0.6-0.1,1.1-0.3l0.3,0.9c-0.6,0.2-1,0.3-1.6,0.3
		c-1.3,0-2-0.8-2-2.2v-5.5h-1.9V71.3z"/>
	<path fill="#5D5D5D" d="M370.5,73.8c1.7,0,2.7,1.1,2.7,2.8c0,0.2,0,0.5-0.1,0.6h-4.4c0.1,1.2,0.9,1.8,2.1,1.8
		c0.6,0,1.2-0.2,1.7-0.5l0.4,0.8c-0.6,0.4-1.4,0.7-2.3,0.7c-1.8,0-3.2-1.1-3.2-3.1C367.5,75,369,73.8,370.5,73.8z M372.1,76.4
		c0-1-0.6-1.6-1.6-1.6c-0.9,0-1.7,0.6-1.8,1.6H372.1z"/>
	<path fill="#5D5D5D" d="M377.5,77.7c0.6,0,1.1,0.5,1.1,1.1c0,0.7-0.5,1.1-1.1,1.1s-1.1-0.5-1.1-1.1
		C376.5,78.2,376.9,77.7,377.5,77.7z"/>
	<path fill="#5D5D5D" d="M382.2,73.9h3.8v5.9h-1.2v-4.9h-2.6V73.9z M384.4,72c0-0.5,0.4-0.9,0.9-0.9s0.9,0.3,0.9,0.9
		c0,0.5-0.4,0.8-0.9,0.8S384.4,72.5,384.4,72z"/>
	<path fill="#5D5D5D" d="M391.9,73.8c1.5,0,2.9,1.1,2.9,3.1c0,1.9-1.4,3.1-2.9,3.1s-2.9-1.1-2.9-3.1C389,74.9,390.4,73.8,391.9,73.8
		z M391.9,79c1,0,1.7-0.8,1.7-2.1s-0.7-2.1-1.7-2.1c-1,0-1.7,0.8-1.7,2.1S390.9,79,391.9,79z"/>
	<path fill="#5D5D5D" d="M399.1,73.5c0.6,0,1.1,0.5,1.1,1.1s-0.5,1.1-1.1,1.1s-1.1-0.5-1.1-1.1S398.5,73.5,399.1,73.5z M399.1,77.7
		c0.6,0,1.1,0.5,1.1,1.1c0,0.7-0.5,1.1-1.1,1.1s-1.1-0.5-1.1-1.1C398.1,78.2,398.5,77.7,399.1,77.7z"/>
	<path fill="#5D5D5D" d="M404,78.1c0.5,0.5,1.2,0.9,2.1,0.9c1,0,1.7-0.5,1.7-1.3c0-0.8-0.7-1.4-2.7-1.4v-0.9c1.7,0,2.4-0.6,2.4-1.3
		c0-0.7-0.6-1.1-1.5-1.1c-0.7,0-1.3,0.3-1.8,0.8l-0.6-0.7c0.7-0.6,1.5-1,2.5-1c1.5,0,2.6,0.7,2.6,2c0,0.9-0.6,1.5-1.6,1.8v0
		c1,0.2,1.9,0.9,1.9,1.9c0,1.4-1.3,2.2-2.8,2.2c-1.3,0-2.2-0.5-2.8-1.1L404,78.1z"/>
	<path fill="#5D5D5D" d="M410.7,76c0-2.6,1.1-3.9,2.8-3.9c1.7,0,2.8,1.4,2.8,3.9c0,2.6-1.1,4-2.8,4C411.8,80,410.7,78.5,410.7,76z
		 M411.8,76c0,2.1,0.7,3,1.7,3s1.7-0.9,1.7-3c0-2.1-0.7-3-1.7-3S411.8,73.8,411.8,76z M412.7,75.9c0-0.5,0.4-0.8,0.8-0.8
		c0.4,0,0.8,0.3,0.8,0.8c0,0.5-0.4,0.8-0.8,0.8C413.1,76.7,412.7,76.4,412.7,75.9z"/>
	<path fill="#5D5D5D" d="M418.4,78.1c0.5,0.5,1.2,0.9,2.1,0.9c1,0,1.7-0.5,1.7-1.3c0-0.8-0.7-1.4-2.7-1.4v-0.9
		c1.7,0,2.4-0.6,2.4-1.3c0-0.7-0.6-1.1-1.5-1.1c-0.7,0-1.3,0.3-1.8,0.8L418,73c0.7-0.6,1.5-1,2.5-1c1.5,0,2.6,0.7,2.6,2
		c0,0.9-0.6,1.5-1.6,1.8v0c1,0.2,1.9,0.9,1.9,1.9c0,1.4-1.3,2.2-2.8,2.2c-1.3,0-2.2-0.5-2.8-1.1L418.4,78.1z"/>
	<path fill="#5D5D5D" d="M425.1,76c0-2.6,1.1-3.9,2.8-3.9s2.8,1.4,2.8,3.9c0,2.6-1.1,4-2.8,4S425.1,78.5,425.1,76z M426.2,76
		c0,2.1,0.7,3,1.7,3s1.7-0.9,1.7-3c0-2.1-0.7-3-1.7-3S426.2,73.8,426.2,76z M427.1,75.9c0-0.5,0.4-0.8,0.8-0.8s0.8,0.3,0.8,0.8
		c0,0.5-0.4,0.8-0.8,0.8S427.1,76.4,427.1,75.9z"/>
</g>
<g>
	<circle fill="#FCC0C0" stroke="#D3A1A1" stroke-width="2" stroke-miterlimit="10" cx="302" cy="75" r="6"/>
	<line fill="none" stroke="#D3A1A1" stroke-width="2" stroke-miterlimit="10" x1="297.9" y1="79.2" x2="306.2" y2="70.8"/>
</g>
<line fill="none" stroke="#CCCCCC" stroke-width="3" stroke-miterlimit="10" x1="284.5" y1="30" x2="284.5" y2="270"/>
<rect x="299.9" y="105.3" fill="#D5EBF3" stroke="#C8E4EE" stroke-width="3" stroke-miterlimit="10" width="26.9" height="20.2"/>
<rect x="299.9" y="183" fill="#D5EBF3" stroke="#C8E4EE" stroke-width="3" stroke-miterlimit="10" width="49" height="44.7"/>
<rect x="361.2" y="183" fill="#D5EBF3" stroke="#C8E4EE" stroke-width="3" stroke-miterlimit="10" width="49" height="44.7"/>
<line fill="#D5EBF3" stroke="#C8E4EE" stroke-width="3" stroke-miterlimit="10" x1="337.1" y1="107.3" x2="491.8" y2="107.3"/>
<line fill="#D5EBF3" stroke="#C8E4EE" stroke-width="3" stroke-miterlimit="10" x1="337.1" y1="122.7" x2="491.8" y2="122.7"/>
<line fill="#D5EBF3" stroke="#C8E4EE" stroke-width="3" stroke-miterlimit="10" x1="297.5" y1="138.2" x2="491.8" y2="138.2"/>
<line fill="#D5EBF3" stroke="#C8E4EE" stroke-width="3" stroke-miterlimit="10" x1="297.5" y1="153.6" x2="491.8" y2="153.6"/>
<line fill="#D5EBF3" stroke="#C8E4EE" stroke-width="3" stroke-miterlimit="10" x1="297.5" y1="169" x2="470.3" y2="169"/>
<g>
</g>
<g>
</g>
<g>
</g>
<g>
</g>
<g>
</g>
<g>
</g>
<g>
</g>
<g>
</g>
<g>
</g>
<g>
</g>
<g>
</g>
<g>
</g>
<g>
</g>
<g>
</g>
<g>
</g>
</svg>
