<?xml version="1.0" encoding="utf-8"?>
<!-- Generator: Adobe Illustrator 18.1.0, SVG Export Plug-In . SVG Version: 6.00 Build 0)  -->
<!DOCTYPE svg PUBLIC "-//W3C//DTD SVG 1.1//EN" "http://www.w3.org/Graphics/SVG/1.1/DTD/svg11.dtd">
<svg version="1.1" id="Layer_1" xmlns="http://www.w3.org/2000/svg" xmlns:xlink="http://www.w3.org/1999/xlink" x="0px" y="0px"
	 viewBox="0 0 72 96" enable-background="new 0 0 72 96" xml:space="preserve">
<path fill="#D5EBF3" stroke="#C8E4EE" stroke-width="3" stroke-miterlimit="10" d="M68,4.8c1.1,1.1,1.7,2.4,1.8,3.9v67.5
	c-0.1,1.5-0.6,2.8-1.8,3.9s-2.4,1.7-3.9,1.8H7.9C6.4,81.7,5.1,81.1,4,80s-1.7-2.4-1.8-3.9V8.6C2.3,7.2,2.9,5.9,4,4.8S6.4,3.1,7.9,3
	H36c15.4,0,24.7,0,28.1,0C65.6,3.1,66.9,3.6,68,4.8z"/>
<path fill="#F0F8FB" stroke="#C8E4EE" stroke-width="3" stroke-miterlimit="10" d="M63.1,65.5H6.9v8.4c0,0.7,0.3,1.3,0.8,1.9
	s1.2,0.9,2,0.9h50.6c0.8-0.1,1.4-0.4,2-0.9s0.8-1.2,0.8-1.9V65.5z"/>
<polygon fill="#F0F8FB" stroke="#C8E4EE" stroke-width="3" stroke-miterlimit="10" points="64.2,8.6 19.1,8.6 19.1,59.2 64.1,59.2 
	"/>
<polygon fill="#EFEBF2" stroke="#D2C7DA" stroke-width="3" stroke-miterlimit="10" points="15.5,73.5 15.5,93 24.1,84.4 32.5,93 
	32.5,73.5 "/>
<g>
	<rect x="24.2" y="14.2" fill="#D5EBF3" width="5.6" height="5.6"/>
	<rect x="24.2" y="25.5" fill="#D5EBF3" width="5.6" height="5.6"/>
	<rect x="24.2" y="36.8" fill="#D5EBF3" width="5.6" height="5.6"/>
	<rect x="24.2" y="48" fill="#D5EBF3" width="5.6" height="5.6"/>
</g>
<g>
</g>
<g>
</g>
<g>
</g>
<g>
</g>
<g>
</g>
<g>
</g>
<g>
</g>
<g>
</g>
<g>
</g>
<g>
</g>
<g>
</g>
<g>
</g>
<g>
</g>
<g>
</g>
<g>
</g>
</svg>
