<?xml version="1.0" encoding="utf-8"?>
<!-- Generator: Adobe Illustrator 18.1.0, SVG Export Plug-In . SVG Version: 6.00 Build 0)  -->
<!DOCTYPE svg PUBLIC "-//W3C//DTD SVG 1.1//EN" "http://www.w3.org/Graphics/SVG/1.1/DTD/svg11.dtd">
<svg version="1.1" id="Layer_1" xmlns="http://www.w3.org/2000/svg" xmlns:xlink="http://www.w3.org/1999/xlink" x="0px" y="0px"
	 viewBox="0 0 96 72" enable-background="new 0 0 96 72" xml:space="preserve">
<circle fill="#F0F8FB" stroke="#D5EBF3" stroke-width="3" stroke-miterlimit="10" cx="46.7" cy="37" r="30.7"/>
<g>
	<path fill="#AECED6" d="M41.2,24.2c0.8,0.8,1.2,1.8,1.2,3.1c0,0.8-0.2,1.5-0.6,2.2c-0.4,0.6-0.9,1.2-1.6,1.5v14.1
		c0.7,0.4,1.2,0.9,1.6,1.5s0.6,1.4,0.6,2.2c0,1.2-0.4,2.3-1.2,3.1c-0.8,0.8-1.8,1.2-3.1,1.2c-1.2,0-2.3-0.4-3.1-1.2
		s-1.2-1.8-1.2-3.1c0-0.8,0.2-1.5,0.6-2.2c0.4-0.6,0.9-1.2,1.6-1.5V31c-0.7-0.4-1.2-0.9-1.6-1.5c-0.4-0.6-0.6-1.4-0.6-2.2
		c0-1.2,0.4-2.3,1.2-3.1c0.8-0.8,1.8-1.2,3.1-1.2C39.3,23,40.4,23.4,41.2,24.2z M39.6,28.8c0.4-0.4,0.6-0.9,0.6-1.5
		c0-0.6-0.2-1.1-0.6-1.5c-0.4-0.4-0.9-0.6-1.5-0.6s-1.1,0.2-1.5,0.6c-0.4,0.4-0.6,0.9-0.6,1.5c0,0.6,0.2,1.1,0.6,1.5
		c0.4,0.4,0.9,0.6,1.5,0.6C38.7,29.4,39.2,29.2,39.6,28.8z M39.6,50.4c0.4-0.4,0.6-0.9,0.6-1.5c0-0.6-0.2-1.1-0.6-1.5
		c-0.4-0.4-0.9-0.6-1.5-0.6s-1.1,0.2-1.5,0.6c-0.4,0.4-0.6,0.9-0.6,1.5c0,0.6,0.2,1.1,0.6,1.5c0.4,0.4,0.9,0.6,1.5,0.6
		C38.7,51,39.2,50.8,39.6,50.4z M59.1,46.7c0.4,0.6,0.6,1.4,0.6,2.2c0,1.2-0.4,2.3-1.2,3.1s-1.8,1.2-3.1,1.2c-1.2,0-2.3-0.4-3.1-1.2
		s-1.2-1.8-1.2-3.1c0-0.8,0.2-1.5,0.6-2.2s0.9-1.2,1.6-1.5V31.6c0-0.6-0.2-1.1-0.7-1.5s-0.9-0.7-1.5-0.7h-2.2v4.3l-6.5-6.5l6.5-6.5
		v4.3c0,0,0,0,0.3,0H51c1.7,0.1,3.2,0.7,4.5,2c1.3,1.3,2,2.8,2,4.5v8c0,3.4,0,5.2,0,5.6C58.2,45.5,58.7,46,59.1,46.7z M56.9,50.4
		c0.4-0.4,0.6-0.9,0.6-1.5c0-0.6-0.2-1.1-0.6-1.5c-0.4-0.4-0.9-0.6-1.5-0.6c-0.6,0-1.1,0.2-1.5,0.6c-0.4,0.4-0.6,0.9-0.6,1.5
		c0,0.6,0.2,1.1,0.6,1.5c0.4,0.4,0.9,0.6,1.5,0.6C56,51,56.5,50.8,56.9,50.4z"/>
</g>
<path fill="#FFF9EA" stroke="#FDE8B0" stroke-width="2" stroke-miterlimit="10" d="M67.8,3.5c0.6-1,2.1-1,2.6,0l5,8.7l5,8.7
	c0.6,1-0.1,2.3-1.3,2.3H69.1H59c-1.2,0-1.9-1.3-1.3-2.3l5-8.7L67.8,3.5z"/>
<g>
	<path fill="#F3C858" d="M68,10.7h2.2v5.5H68V10.7z M68,17.3h2.2v2.2H68V17.3z"/>
</g>
<g>
</g>
<g>
</g>
<g>
</g>
<g>
</g>
<g>
</g>
<g>
</g>
<g>
</g>
<g>
</g>
<g>
</g>
<g>
</g>
<g>
</g>
<g>
</g>
<g>
</g>
<g>
</g>
<g>
</g>
</svg>
