<?xml version="1.0" encoding="utf-8"?>
<!-- Generator: Adobe Illustrator 18.1.1, SVG Export Plug-In . SVG Version: 6.00 Build 0)  -->
<!DOCTYPE svg PUBLIC "-//W3C//DTD SVG 1.1//EN" "http://www.w3.org/Graphics/SVG/1.1/DTD/svg11.dtd">
<svg version="1.1" id="Layer_1" xmlns="http://www.w3.org/2000/svg" xmlns:xlink="http://www.w3.org/1999/xlink" x="0px" y="0px"
	 viewBox="0 0 180 180" enable-background="new 0 0 180 180" xml:space="preserve">
<polygon fill="#FFFFFF" points="90,70.1 48.5,49.4 48.5,149.2 90,170 131.5,149.2 131.5,49.4 "/>
<path fill="none" stroke="#555555" stroke-width="2" stroke-linecap="round" stroke-linejoin="round" stroke-miterlimit="10" d="
	M69.2,101.3"/>
<path fill="#5B3777" d="M58.1,148.1c-1.7,0-3-1.4-3-3s1.4-3,3-3s3,1.4,3,3S59.8,148.1,58.1,148.1z M58.1,144.1c-0.6,0-1,0.5-1,1
	s0.5,1,1,1s1-0.5,1-1S58.6,144.1,58.1,144.1z"/>
<path fill="#5B3777" d="M66.2,152.2c-1.7,0-3-1.4-3-3c0-1.7,1.4-3,3-3s3,1.4,3,3C69.2,150.8,67.9,152.2,66.2,152.2z M66.2,148.1
	c-0.6,0-1,0.5-1,1c0,0.6,0.5,1,1,1s1-0.5,1-1C67.2,148.6,66.8,148.1,66.2,148.1z"/>
<g>
	<path fill="#5B3777" d="M90,133.4c-0.1,0-0.3,0-0.4-0.1L48,112.5c-0.5-0.2-0.7-0.8-0.4-1.3c0.2-0.5,0.8-0.7,1.3-0.4l41.5,20.8
		c0.5,0.2,0.7,0.8,0.4,1.3C90.7,133.2,90.4,133.4,90,133.4z"/>
	<path fill="#5B3777" d="M90,133.4c-0.4,0-0.7-0.2-0.9-0.6c-0.2-0.5,0-1.1,0.4-1.3l41.5-20.8c0.5-0.2,1.1,0,1.3,0.4
		c0.2,0.5,0,1.1-0.4,1.3l-41.5,20.8C90.3,133.4,90.2,133.4,90,133.4z"/>
</g>
<path fill="#5B3777" d="M96.8,160.5c-0.6,0-1-0.4-1-1v-4.2c0-0.6,0.4-1,1-1s1,0.4,1,1v4.2C97.8,160,97.4,160.5,96.8,160.5z"/>
<path fill="#5B3777" d="M101.8,158.4c-0.6,0-1-0.4-1-1v-4.2c0-0.6,0.4-1,1-1s1,0.4,1,1v4.2C102.8,157.9,102.3,158.4,101.8,158.4z"/>
<path fill="#5B3777" d="M58.1,129.9c-1.7,0-3-1.4-3-3c0-1.7,1.4-3,3-3s3,1.4,3,3C61.1,128.6,59.8,129.9,58.1,129.9z M58.1,125.9
	c-0.6,0-1,0.5-1,1c0,0.6,0.5,1,1,1s1-0.5,1-1C59.1,126.3,58.6,125.9,58.1,125.9z"/>
<path fill="#5B3777" d="M66.2,134c-1.7,0-3-1.4-3-3c0-1.7,1.4-3,3-3s3,1.4,3,3C69.2,132.6,67.9,134,66.2,134z M66.2,129.9
	c-0.6,0-1,0.5-1,1c0,0.6,0.5,1,1,1s1-0.5,1-1C67.2,130.4,66.8,129.9,66.2,129.9z"/>
<path fill="#5B3777" d="M96.8,142.2c-0.6,0-1-0.4-1-1v-4.2c0-0.6,0.4-1,1-1s1,0.4,1,1v4.2C97.8,141.8,97.4,142.2,96.8,142.2z"/>
<path fill="#5B3777" d="M101.8,140.1c-0.6,0-1-0.4-1-1V135c0-0.6,0.4-1,1-1s1,0.4,1,1v4.2C102.8,139.7,102.3,140.1,101.8,140.1z"/>
<g>
	<path fill="#5B3777" d="M90,114.6c-0.1,0-0.3,0-0.4-0.1L48,93.7c-0.5-0.2-0.7-0.8-0.4-1.3c0.2-0.5,0.8-0.7,1.3-0.4l41.5,20.8
		c0.5,0.2,0.7,0.8,0.4,1.3C90.7,114.4,90.4,114.6,90,114.6z"/>
	<path fill="#5B3777" d="M90,114.6c-0.4,0-0.7-0.2-0.9-0.6c-0.2-0.5,0-1.1,0.4-1.3l41.5-20.8c0.5-0.2,1.1,0,1.3,0.4
		c0.2,0.5,0,1.1-0.4,1.3l-41.5,20.8C90.3,114.6,90.2,114.6,90,114.6z"/>
</g>
<path fill="#5B3777" d="M58.1,111.1c-1.7,0-3-1.4-3-3c0-1.7,1.4-3,3-3s3,1.4,3,3C61.1,109.8,59.8,111.1,58.1,111.1z M58.1,107.1
	c-0.6,0-1,0.5-1,1c0,0.6,0.5,1,1,1s1-0.5,1-1C59.1,107.5,58.6,107.1,58.1,107.1z"/>
<path fill="#5B3777" d="M66.2,115.2c-1.7,0-3-1.4-3-3c0-1.7,1.4-3,3-3s3,1.4,3,3C69.2,113.8,67.9,115.2,66.2,115.2z M66.2,111.1
	c-0.6,0-1,0.5-1,1c0,0.6,0.5,1,1,1s1-0.5,1-1C67.2,111.6,66.8,111.1,66.2,111.1z"/>
<path fill="#5B3777" d="M96.8,123.4c-0.6,0-1-0.4-1-1v-4.2c0-0.6,0.4-1,1-1s1,0.4,1,1v4.2C97.8,123,97.4,123.4,96.8,123.4z"/>
<path fill="#5B3777" d="M101.8,121.3c-0.6,0-1-0.4-1-1v-4.2c0-0.6,0.4-1,1-1s1,0.4,1,1v4.2C102.8,120.9,102.3,121.3,101.8,121.3z"/>
<path fill="#5B3777" d="M132,48.5c-0.3-0.2-0.7-0.2-1,0L90,69L48.9,48.5c-0.3-0.2-0.7-0.1-1,0s-0.5,0.5-0.5,0.9v99.9
	c0,0.4,0.2,0.7,0.6,0.9l41.5,20.8c0,0,0,0,0,0c0.1,0.1,0.3,0.1,0.4,0.1s0.3,0,0.4-0.1c0,0,0,0,0,0l41.5-20.8
	c0.3-0.2,0.6-0.5,0.6-0.9V49.4C132.5,49,132.3,48.7,132,48.5z M130.5,111L91,130.8v-16.6l39.5-19.8V111z M89,130.8L49.5,111V94.5
	L89,114.2V130.8z M49.5,113.3L89,133v16.6l-39.5-19.8V113.3z M91,133l39.5-19.8v16.6L91,149.6V133z M130.5,51v41.2L91,112V70.7
	L130.5,51z M89,70.7V112L49.5,92.2V51L89,70.7z M49.5,148.6v-16.6L89,151.8v16.6L49.5,148.6z M91,168.4v-16.6l39.5-19.8v16.6
	L91,168.4z"/>
<path fill="#5B3777" d="M96.8,104.6c-0.6,0-1-0.4-1-1v-4.2c0-0.6,0.4-1,1-1s1,0.4,1,1v4.2C97.8,104.2,97.4,104.6,96.8,104.6z"/>
<path fill="#5B3777" d="M101.8,102.5c-0.6,0-1-0.4-1-1v-4.2c0-0.6,0.4-1,1-1s1,0.4,1,1v4.2C102.8,102.1,102.3,102.5,101.8,102.5z"/>
<path fill="#5B3777" d="M96.8,85.8c-0.6,0-1-0.4-1-1v-4.2c0-0.6,0.4-1,1-1s1,0.4,1,1v4.2C97.8,85.4,97.4,85.8,96.8,85.8z"/>
<polygon fill="#FFFFFF" points="152.3,30.8 110.8,10 90,28.6 69.2,10 27.7,30.8 48.5,49.4 48.5,49.4 48.5,49.4 27.7,70.1 69.2,90.9 
	90,70.1 110.8,90.9 152.3,70.1 131.5,49.4 "/>
<path fill="#5B3777" d="M90,71.1c-0.2,0-0.3,0-0.4-0.1L48,50.2c-0.3-0.2-0.6-0.5-0.6-0.9s0.2-0.7,0.6-0.9l41.5-20.8
	c0.3-0.1,0.6-0.1,0.9,0L132,48.5c0.3,0.2,0.6,0.5,0.6,0.9s-0.2,0.7-0.6,0.9L90.4,71C90.3,71.1,90.2,71.1,90,71.1z M50.7,49.4L90,69
	l39.3-19.6L90,29.7L50.7,49.4z"/>
<path fill="#5B3777" d="M153,69.4l-20-20l20-17.9c0.2-0.2,0.4-0.5,0.3-0.9c0-0.3-0.2-0.6-0.5-0.8L111.2,9.1
	c-0.4-0.2-0.8-0.1-1.1,0.1L90,27.2l-20.1-18c-0.3-0.3-0.7-0.3-1.1-0.1L27.3,29.9c-0.3,0.1-0.5,0.4-0.5,0.8c0,0.3,0.1,0.7,0.3,0.9
	l20,17.9l-20,20c-0.2,0.2-0.3,0.5-0.3,0.9c0.1,0.3,0.3,0.6,0.5,0.7l41.5,20.8c0.1,0.1,0.3,0.1,0.4,0.1c0.3,0,0.5-0.1,0.7-0.3
	L90,71.5l20.1,20.1c0.2,0.2,0.4,0.3,0.7,0.3c0.2,0,0.3,0,0.4-0.1L152.7,71c0.3-0.1,0.5-0.4,0.5-0.7S153.2,69.6,153,69.4z
	 M110.9,11.2L150.5,31l-19.2,17.2L91.8,28.4L110.9,11.2z M69.1,11.2l19.2,17.2L48.6,48.2L29.5,31L69.1,11.2z M69,89.7L29.4,69.8
	l19.7-19.7l39.9-20v39.5L69,89.7z M111,89.7l-20-20V30.2l39.9,20l19.7,19.7L111,89.7z"/>
</svg>
