<?xml version="1.0" encoding="utf-8"?>
<!-- Generator: Adobe Illustrator 19.1.0, SVG Export Plug-In . SVG Version: 6.00 Build 0)  -->
<!DOCTYPE svg PUBLIC "-//W3C//DTD SVG 1.1//EN" "http://www.w3.org/Graphics/SVG/1.1/DTD/svg11.dtd">
<svg version="1.1" id="Layer_1" xmlns="http://www.w3.org/2000/svg" xmlns:xlink="http://www.w3.org/1999/xlink" x="0px" y="0px"
	 viewBox="533 -230 1086 477" style="enable-background:new 533 -230 1086 477;" xml:space="preserve">
<style type="text/css">
	.st0{opacity:0.75;fill:#834FAB;fill-opacity:0.2;enable-background:new    ;}
</style>
<path class="st0" d="M1219.7-117.3c14.6,0,27.9-6,37.5-15.5c9.6-9.6,15.5-22.9,15.5-37.5c0-8-1.8-15.4-4.9-22.2
	c-2.6-5.8-6.2-11-10.6-15.4c-9.6-9.6-22.8-15.5-37.5-15.5s-27.9,5.9-37.5,15.5c-4.5,4.5-8.1,9.8-10.8,15.7c-3,6.7-4.7,14-4.7,21.8
	c0,14.7,5.9,27.9,15.5,37.5C1191.8-123.3,1205-117.3,1219.7-117.3z M1180.4-163.4c1.4-0.2,2.7-0.5,7.5-2.8c4.8-2.4-0.6-3.8-0.3-7.2
	c0.3-3.4,4.8-3.1,6.6-5.1c1.8-1.9-1.3-3.2-2.7-4.3c-1.4-1.1-3.7,0.3-4.5,1.8s-1.1,2.8-2.8,2.5c-1.7-0.3-2.2-0.6-3.2-2.5
	c-1-1.9,0.6-2,4.3-4.5c3.7-2.5,1.4-2.5,1.3-3.5c-0.1-1-1.7-0.6-3.5-1.3l-0.1-0.1c-1.6-0.7-0.7-2.6,0.4-3.3c1.1-0.8,2.4-0.9,3.5-0.2
	c1.1,0.8,1.1,1.3,4.1,0.2c3-1.2,3.1-0.2,4.1,1.2c0.6,0.9,1.4,2.3,2.2,3.5c0.5,0.8,0.9,1.4,1.3,1.9c1.1,1.4,3.9,0,6.3-1.4l0.1-0.1
	c2.3-1.4,1.5-3.7,1.6-5.6c0.2-2-1.4-2-2.2-2.7c-0.9-0.7-1-3.2-2-4.6c-1-1.5-2.9-1.3-4.2-0.9c-1.3,0.4-3.4,2.2-3.8,2.1
	c-0.5-0.1-0.3-2.2-1.3-2.9c-0.6-0.4-2.8-0.5-4.7-0.8c8.2-7.6,19.2-12.3,31.2-12.3c12.6,0,24.1,5.1,32.4,13.4
	c1.9,1.9,3.6,3.9,5.1,6.1c-4.6,1.5-12.7,4.3-13.3,5.1c-0.8,1.1-3.8,1.7-5.2,1c-1.4-0.7-2.4-1.5-3.8-1.4c-1.4,0.1-1.9,0.3-2.9,1.4
	c-0.6,0.7-1.7,1.7-2.9,2.2c-0.7,0.3-1.4,0.5-2,0.2c-0.2-0.1-0.3-0.1-0.5-0.1c-0.5-0.2-0.9-0.1-1.3,0c-0.6,0.2-1,0.6-1,0.6
	c-1.5,2,0.3,4.5,1.4,4.4c1.1-0.2,2.5-2.4,3.2-2.4s2.2,1.3,2.5,1.8c0.2,0.5-1.2,3.6-2,3.7c-0.8,0.1-3.9,1.1-4.6,1.1s-3.8-1.2-4.5-0.4
	c-0.7,0.9-2.1,0.7-1.4,2.7c0.8,2,0,3.5-0.5,3.7c-0.6,0.1-5.2,1.4-0.6,1.5c4.6,0.2,5.7-1.4,6.7-1.5c1-0.1,2.7-1.4,3.8-0.8
	c1.1,0.6,2.9-0.3,3.8,0c0.9,0.3,3-2.4,4-1.4c1,0.9,0.8,2.9,0.5,3.6c-0.3,0.6-2,1.2-1.6,2.2c0.5,0.9,1.3,2.2,2.6,3.2
	c1.2,0.9,2.1,2.2,2.9,1.2c0.9-1,0.9-2.2,1.3-2.8c0.4-0.5,4.4,0.2,4.5,1c0.1,0.9,2.1,2.7,2.5,2.8c0.5,0.2,2,0.9,2,0.9s0.4,0.5,1.1,2
	s2.1,1.5,3.1,1.2c1-0.3,1.8-2.3,3.1-2.2c1.4,0.2,2-0.4,3.4,1c1.3,1.3,1.6,1.6,2.3,2.7c-2,8.1-6.2,15.3-11.9,21
	c-8.3,8.3-19.8,13.4-32.4,13.4c-7.6,0-14.6-1.9-20.9-5.1c0.8-1.6,1.3-6,1.3-6s1.1-11.1,0.7-11.8c-0.4-0.7-3.2-3.4-5-4.2
	c-1.8-0.8-3.5,0.2-5-0.4c-1.6-0.6-2.3-3-3.4-3.8c-1.1-0.8-2.8-0.8-4.5-1.3s-2.9-2.7-3.3-3.5C1178.8-161.2,1179.1-163.2,1180.4-163.4
	z M1180-154.1c1.7,0.5,3.4,3.1,4.1,3.4s-0.7,6.5-1.4,7.4c-2.5-3.4-4.6-7.3-6.1-11.4C1177.7-154.4,1179-154.4,1180-154.1z"/>
<path class="st0" d="M1209,65.5V33.9c0-6.9,5.6-12.6,12.6-12.6h25.3c0-6.4-5.2-11.5-11.5-11.5h-40.2c-6.4,0-11.5,5.2-11.5,11.5v26.4
	c0,6.4,5.2,11.5,11.5,11.5h1.1v19L1209,65.5z"/>
<path class="st0" d="M1271.9-52.3c0-29-23.4-52.4-52.3-52.4c-28.9,0-52.3,23.5-52.3,52.4c0,28.9,23.4,52.3,52.3,52.3
	C1248.5,0,1271.9-23.3,1271.9-52.3z M1178.6-40.5c-2.2-8.6,2.4-18,11.3-25.5l-6.8-4l25.6-6.6c-0.2,0.1-0.6,0.2-0.9,0.4
	c0.3-0.1,0.7-0.3,1-0.4c-13.7,6.3-21.7,19.9-18.3,33c3.4,13.1,16.9,21.2,31.9,20.1C1201-20.1,1182-27.1,1178.6-40.5z M1230-56.7
	c-1,1.5-2.8,2.7-5.3,3.8c-2.5,1.1-6.4,2-11.5,2.9h-0.3l-0.1,2.1c0,2.1,0.5,3.8,1.6,4.9c1.1,1.1,2.6,1.7,4.4,1.7c1.5,0,3-0.3,4.4-1
	c1.4-0.7,3.1-2,5-3.8c0.3,0.2,1,0.7,1.4,1c-2.1,2.2-4.3,3.8-6.5,4.7c-2.2,1-4.6,1.5-7.1,1.5c-3.5,0-6.3-1-8.3-2.9
	c-2-1.9-3-4.5-3-7.8c0-2.9,0.9-5.8,2.6-8.5c1.7-2.7,4.1-4.8,7-6.4c3-1.6,6.2-2.4,9.6-2.4c2.4,0,4.4,0.6,5.7,1.7c1.4,1.1,2,2.5,2,4.2
	C1231.6-59.6,1231.1-58.1,1230-56.7z M1232.2-26.7c13.7-6.3,21.7-19.9,18.3-33c-3.4-13.1-16.9-21.2-31.9-20.1
	c21.5-3.5,40.4,3.5,43.9,17c2.2,8.6-2.4,18-11.3,25.5l6.8,4l-25.6,6.6c0.2-0.1,0.5-0.2,0.8-0.4C1232.9-27,1232.5-26.8,1232.2-26.7z"
	/>
<path class="st0" d="M1464.9-95.7c1.2-0.9,2-2.5,2.6-4.5c0.4-2.1,0.2-3.6-0.6-4.4c-0.8-0.9-2.4-1.3-4.7-1.3h-4.2l-2.3,11.6h3.7
	C1461.8-94.3,1463.7-94.8,1464.9-95.7z"/>
<path class="st0" d="M1152.1-15.5c0-4.3-3.3-7.7-7.5-8.1v-0.1h-8.9c-4.5,0.1-8.1,3.7-8.1,8.2v4.1h-12.2c-4.5,0-8.2,3.7-8.2,8.2V5
	h65.3v-8.2c0-4.5-3.6-8.2-8.2-8.2h-12.2V-15.5z M1131.7-11.4c0-4.5,3.7-8.2,8.2-8.2s8.1,3.7,8.1,8.2H1131.7z"/>
<path class="st0" d="M1109,51.7L1098.5,29c-1.5-3.2-5.2-4.5-8.3-3.1l-34.1,15.7c-3.2,1.5-4.5,5.2-3.1,8.3l10.5,22.7
	c1.5,3.1,5.2,4.5,8.5,2.9l3.8-1.7l-1.2,7.4l4.1,1.5l7.4-13.7l1.3,2.8l5.7-2.6l-1.3-2.8l15.2,3.3l1.5-4.1l-6.4-3.9l3.8-1.7
	C1109.1,58.6,1110.4,54.8,1109,51.7z M1069.2,70l-10.5-22.7l34.1-15.7l10.5,22.7L1069.2,70z"/>
<path class="st0" d="M1221.6-65c-1.6,0-3.1,0.9-4.4,2.7c-1.8,2.5-3.2,5.9-4,10.2l-0.1,0.5l0.5-0.1c3.5-0.7,6-1.7,7.6-3.1
	c2.2-2,3.3-4.2,3.3-6.7c0-1-0.3-1.9-0.8-2.5C1223.1-64.7,1222.4-65,1221.6-65z"/>
<path class="st0" d="M1547-100.6c39.8,0,72-32.3,72-72c0-39.8-32.2-72-72-72s-72,32.2-72,72C1475-132.8,1507.2-100.6,1547-100.6z
	 M1556.4-214.8c-1.5,4.1-1.7,8.8-0.9,11.9c0.4,1.8,1.9,5.1,3.3,7.1c2.6,3.7,4.3,4.6,7.6,6.6c1.5,0.9,3.1,1.6,3.8,1.8
	c3.2,0.9,9.9,3.3,20.7-3.9c-1.2,2.8-8.4,8.1-11.6,8.8c-12.6,2.6-20.7-3.2-24.9-9.9c-0.6-1-1.8-3.7-2-4.4
	C1550.8-202.2,1551.5-210.5,1556.4-214.8z M1537.3-210.6c-2,3.8-2.8,6.8-3,8.7c-2.3,22.1,18,37.9,35.9,38.1c8,0.1,16.4-3.6,21.4-8.8
	c-4.4,10.8-17,17.8-33.9,15.6c-14.1-1.9-27.6-15.9-29-29.9C1527.7-197.1,1531.3-203.2,1537.3-210.6z M1513.9-201.6
	c0.2,0-1.8,3.1-1.6,3.1l-0.4,1.3c-10.7,32.8,22.2,60.9,54.2,57.8c7.7-0.8,17.5-5,23.5-10.9l-0.4,1c-6.8,13.1-18.9,21-36.1,21.4
	c-8,0.1-15.7-1.9-20.7-4.1c-10.8-4.8-19.9-13.7-24.9-23.1C1500.4-168.7,1499.1-187.5,1513.9-201.6z"/>
<polygon class="st0" points="1074.3,43.5 1082.6,46.6 1079.5,54.9 1071.2,51.8 1065.5,54.4 1082.1,60.5 1086.7,48.1 1095,51.2 
	1088.5,37 "/>
<path class="st0" d="M1372.3-174.3l-20.6,3.9c3.7,4.2,8,7.7,12.6,10.3C1367.7-164.3,1370.4-169.1,1372.3-174.3z"/>
<path class="st0" d="M1363.7-229.6h-22.5c-1.1,2.8-2,5.8-2.7,8.9l27.8-5.2C1365.5-227.2,1364.6-228.4,1363.7-229.6z"/>
<path class="st0" d="M1317.1-186.5c1.5,5.1,3.8,9.8,6.8,13.7l15-2.8c-2.5-4.3-4.6-8.9-6.1-13.9L1317.1-186.5z"/>
<path class="st0" d="M1374.8-204.8c-1-5.1-2.6-9.8-4.7-14.2l-32.6,6.1c-0.4,4.8-0.2,9.8,0.8,14.9L1374.8-204.8z"/>
<path class="st0" d="M1375.6-197.5l-35.4,6.7c1.6,5,3.8,9.6,6.5,13.8l27.8-5.2C1375.5-187.1,1375.9-192.2,1375.6-197.5z"/>
<path class="st0" d="M1382.1-206.2l15.3-2.9c-1.5-5.1-3.8-9.7-6.9-13.8l-12.9,2.4C1379.6-216,1381.1-211.3,1382.1-206.2z"/>
<path class="st0" d="M1384.5-229.3l-0.4-0.3h-11.4c0.5,0.7,1,1.4,1.5,2.2L1384.5-229.3z"/>
<path class="st0" d="M1394.1-178.3l-13.6,2.6c-1.8,6.1-4.5,11.7-7.9,16.7C1382-162.8,1389.5-169.7,1394.1-178.3z"/>
<path class="st0" d="M1333.4-229.7h-3.1c-4,3.5-7.4,7.7-9.9,12.4l10.4-2C1331.3-222.9,1332.2-226.4,1333.4-229.7z"/>
<path class="st0" d="M1273.8-85.8c5.9,17.8,28.4,28,42.4,36.8c13.4-9.6,35.3-21,40.3-39c6.6-23.9-26.1-42.7-41.8-15.2
	C1297.6-129.9,1265.9-109.3,1273.8-85.8z"/>
<path class="st0" d="M1382.6-99.7c0,21,23.6,38,52.7,38c1.4,0,2.9,0,4.3-0.1l12.4,11.7l4.1-14.6c18.7-5.8,31.9-19.3,31.9-35
	c0-21-23.6-38-52.7-38C1406.2-137.7,1382.6-120.7,1382.6-99.7z M1464.4-110.3c3.6,0,6.2,0.9,7.9,2.7c1.7,1.9,2.2,4.4,1.5,7.7
	c-0.3,1.3-0.8,2.6-1.4,3.7c-0.6,1.1-1.5,2.2-2.5,3.1c-1.2,1.1-2.6,1.9-4.1,2.4s-3.4,0.7-5.7,0.7h-5.3l-1.5,7.4h-6.2l5.5-27.7H1464.4
	z M1436.3-117.8l-1.5,7.4h5.4c3.4,0,5.8,0.6,7.1,1.8c1.3,1.2,1.7,3.1,1.3,5.6l-2.6,12.9h-6.2l2.4-12.2c0.3-1.4,0.2-2.4-0.3-2.9
	s-1.5-0.8-3.1-0.8h-4.9l-3.1,15.9h-6.1l5.5-27.7H1436.3z M1404.6-110.3h11.8c3.6,0,6.2,0.9,7.8,2.7c1.6,1.9,2.1,4.4,1.5,7.7
	c-0.3,1.3-0.8,2.6-1.4,3.7c-0.6,1.1-1.5,2.2-2.5,3.1c-1.2,1.1-2.6,1.9-4.1,2.4s-3.4,0.7-5.7,0.7h-5.3l-1.5,7.4h-6.2L1404.6-110.3z"
	/>
<path class="st0" d="M1382.3-183.7l15-2.8c1.4-4.9,1.9-10.1,1.4-15.4l-15.7,3C1383.4-193.7,1383.1-188.6,1382.3-183.7z"/>
<path class="st0" d="M1416.8-95.7c1.2-0.9,2-2.5,2.5-4.5c0.4-2.1,0.2-3.6-0.6-4.4c-0.8-0.9-2.4-1.3-4.7-1.3h-4.2l-2.3,11.6h3.7
	C1413.7-94.3,1415.6-94.8,1416.8-95.7z"/>
<path class="st0" d="M1215.5-154.2c0,0,1.3,2.1,2.3,2.1s2.8-1.4,4.4-1.5c1.5-0.1,2.4,1.1,2.8,1.8c0.5,0.7,0.7,3.9,0.6,4.9
	c-0.1,1,0.2,7.3,0.6,7.8c0.4,0.6,3.5,3.5,4.6,3.5c1.2,0,2.4-2,3.4-2.8c0.9-0.8,2.2-4.3,2.2-5.3v-5.1c0-0.9,1.3-2.2,1.9-3
	c1-1,2-2.8,1.7-3.9c-0.3-1.1-1.8-0.3-2.8-0.6c-1-0.2-1.8-2.3-2.1-3.9c-0.2-1.6-1.4-3.4-2.9-4.1s-2.5,0-3.9-0.7
	c-1.4-0.7-3.6-2.3-5-2.7c-1.4-0.4-3.4-0.1-4.8-0.8c-1.4-0.7-3.5,1.1-3.5,1.1s-1.6,3-2.2,3.9c-0.5,0.9-0.7,4.4-0.4,5.5
	C1212.7-156.8,1215.5-154.2,1215.5-154.2z"/>
<path class="st0" d="M1343.5-168.8l-13.5,2.5c7.3,6.4,16.9,10.1,27,10.2C1351.9-159.5,1347.4-163.8,1343.5-168.8z"/>
<path class="st0" d="M1164.3,37.6c4.5,0,8.2-3.7,8.2-8.2V9H1148v4.1c0,4.5-3.7,8.2-8.2,8.2s-8.2-3.7-8.2-8.2V9h-24.5v20.4
	c0,4.5,3.7,8.2,8.2,8.2H1164.3z"/>
<path class="st0" d="M1356.2-123.7c41.6,0,75.4-33.7,75.4-75.4c0-10.8-2.4-21.2-6.5-30.5h-22.3c4.4,6.3,7.6,13.6,9.1,21.6
	c5.6,30.2-14.2,59.2-44.4,64.9c-30.1,5.6-59.2-14.2-64.9-44.4c-2.8-15.3,0.8-30.3,9.1-42.1h-24.4c-4.2,9.3-6.5,19.6-6.5,30.5
	C1280.8-157.5,1314.6-123.7,1356.2-123.7z"/>
<path class="st0" d="M1331-196.7c-0.9-5-1.2-10-1-14.9l-12.9,2.4c-1.4,4.9-1.9,10.1-1.4,15.4L1331-196.7z"/>
<path class="st0" d="M959.1,140c-13.9,0-25.2,11.3-25.3,25.3c0,14,11.3,25.3,25.3,25.3s25.3-11.3,25.3-25.3S973,140,959.1,140z
	 M956.5,146c0-1.4,1.2-2.5,2.6-2.5s2.5,1.1,2.5,2.5v15.3c0,1.4-1.1,2.5-2.5,2.5c-1.5,0-2.6-1.1-2.6-2.5V146z M959.1,184.2
	c-9.9,0-17.9-8-17.9-17.9c0-8.1,5.4-14.9,12.8-17.1v5.4c-4.5,2-7.7,6.5-7.7,11.7c0,7.1,5.8,12.8,12.8,12.8c7.1,0,12.8-5.8,12.8-12.8
	c0-5.3-3.2-9.7-7.7-11.7v-5.4c7.4,2.2,12.8,9,12.8,17.1C977,176.2,969,184.2,959.1,184.2z"/>
<polygon class="st0" points="1164.5,102.9 1098.8,134 1146.4,146.8 "/>
<path class="st0" d="M1145.8,66.9c-40.3,0-73,32.7-72.9,72.9c0,40.3,32.6,72.9,72.9,72.9s72.9-32.6,72.9-72.9
	S1186.1,66.9,1145.8,66.9z M1200.9,154.6c-1.1,2.8-3.2,5.2-6.1,6.6l-68,32.2c-2.9,1.4-6.2,1.6-9,0.6s-5.3-3-6.6-5.8l-21.1-44.6
	c-1-2.2-1.3-4.6-0.9-6.7c-0.1-0.5-0.1-1.1,0-1.6c0.2-0.8,0.6-1.4,1.2-1.8c1.2-2.2,3.1-4,5.5-5.2l0.1-0.1l67.9-32.2
	c2.2-1.1,4.5-1.4,6.7-1.1h0.2h0.1c0.7,0.1,1.4,0.3,2,0.5c2.8,1,5.3,3,6.6,5.8l21.1,44.6C1201.9,148.7,1202,151.8,1200.9,154.6z"/>
<path class="st0" d="M1172,102.2l-20.8,49.6c-0.6,1.5-2.3,2.3-3.9,1.7l-51.4-13.7c0.1,0.2,0.2,0.5,0.3,0.7l21.1,44.6
	c0.6,1.2,1.7,2.1,2.9,2.5c1.2,0.4,2.6,0.4,3.9-0.2l67.9-32.2h0.1c1.2-0.6,2.1-1.6,2.6-2.8c0.5-1.2,0.5-2.6-0.1-3.8l-21.1-44.6
	C1173.2,103.3,1172.6,102.7,1172,102.2z"/>
<path class="st0" d="M1327.2,75.3c-3.1-1.9-6.9-2.7-10.8-1.9c-8.1,1.6-13.4,9.5-11.8,17.6c0.1,0.9,0.4,1.7,0.7,2.5
	c-3.9-5.5-8.8-10.3-13.5-10.7c-12.4-1.1-2,14.6,0.3,18c-3.1-2.7-9.7-7.9-14.1-4.8c-4.5,3.2,4.6,11.1,6.8,13.5
	c-3.2-2.1-10.4-2.3-12,1.5c-2.8,6.7,9.8,9.4,20.3,9.2c0.2,0,0.4,0,0.6,0c-6.9,7.5-15.4,12-26.7,10.3c12.5,13.7,30.1,15.5,49.5,6.7
	c14.7-6.7,19.6-25.4,14.8-40.1c2.5-3.3,3.7-7.6,2.8-12c-0.3-1.4-0.7-2.8-1.4-4l4.9-10.3L1327.2,75.3z M1321.1,86.6
	c-1.5,0.3-2.8-0.6-3.1-2c-0.3-1.4,0.6-2.8,2.1-3c1.4-0.3,2.8,0.6,3.1,2C1323.4,84.9,1322.5,86.3,1321.1,86.6z"/>
<path class="st0" d="M1240.6,84.5v18.9l18.9-18.9h12.6c6.9,0,12.6-5.6,12.6-12.6V40.3c0-6.9-5.6-12.6-12.6-12.6h-44.2
	c-6.9,0-12.6,5.6-12.6,12.6h0.1v31.6c0,6.9,5.6,12.6,12.6,12.6H1240.6z M1227.9,40.3h44.2v6.3h-44.2V40.3z M1227.9,52.9h44.2v6.3
	h-44.2V52.9z M1227.9,65.6h25.3v6.3h-25.3V65.6z"/>
<path class="st0" d="M1267.5,142.8h-1h-39.1h-1.1c-0.6,0-1,0.4-1,1v28.3c0,0.5,0.4,0.9,0.9,0.9h1.1h13.2v2h-0.7c-0.5,0-1,0.4-1,0.9
	l-0.7,1.7l-0.7,1.7v0.1v1.4c-0.1,0.5,0.3,0.6,0.9,0.6h16.2c0.6,0,0.8-0.4,0.8-0.9v-1v-0.1l-1.1-1.8l-1-1.8c-0.1-0.5-0.5-0.9-1-0.9
	h-0.1v-2h14.4h1c0.5,0,0.9-0.4,0.9-0.9v-28.3C1268.4,143.2,1268,142.8,1267.5,142.8z M1264.9,168.3c0,0.4-0.3,0.7-0.7,0.7h-34.6
	c-0.4,0-0.7-0.3-0.7-0.7h-0.1v-21.9c0-0.4,0.3-0.7,0.5-0.7h34.6c0.7,0,1,0.3,1,0.7V168.3z"/>
<path class="st0" d="M994.3,14.2c-3.4,15.5,6.4,30.7,21.9,34.1c15.4,3.3,30.7-6.5,34.1-21.9c3.4-15.5-6.4-30.7-21.9-34.1
	C1012.9-11.1,997.7-1.3,994.3,14.2z M1018.5-0.9c-1.6,1.7-3.2,3.6-4.5,5.7l-5.3-1.2C1011.5,1.3,1014.9-0.3,1018.5-0.9z M1012.7,20.1
	l18.2,4c-0.9,2.6-2.1,4.9-3.6,7L1013,28C1012.6,25.5,1012.4,22.8,1012.7,20.1z M1005.5,6.8l6.6,1.4c-1.1,2.3-1.9,4.7-2.5,7.3
	l-7.8-1.7C1002.6,11.2,1003.9,8.9,1005.5,6.8z M1001.4,25.5c-0.6-2.5-0.8-5.2-0.5-7.9l8.1,1.8c-0.3,2.6-0.2,5.3,0.1,7.8L1001.4,25.5
	z M1003.1,29.8l6.9,1.5c0.8,3.1,2.1,6.1,3.8,8.7C1009,37.9,1005.2,34.2,1003.1,29.8z M1014,32.2l10.6,2.3c-1.9,2.1-4.2,3.8-6.6,5.1
	C1016.4,37.4,1015.1,34.9,1014,32.2z M1021.8,41.7c2.6-1.6,5-3.8,7.1-6.3l6.9,1.5C1031.9,40.1,1027,41.9,1021.8,41.7z M1039,33.7
	l-7.7-1.7c1.4-2.2,2.5-4.5,3.3-7.1l8.1,1.8C1041.9,29.3,1040.6,31.7,1039,33.7z M1043.1,15c0.6,2.5,0.8,5.2,0.4,8l-7.8-1.7
	c0.6-2.6,0.8-5.2,0.8-7.7L1043.1,15z M1041.6,10.8l-5.3-1.2c-0.4-2.4-1-4.8-1.8-7C1037.5,4.7,1039.9,7.5,1041.6,10.8z M1032,20.4
	l-18.7-4c0.6-2.6,1.5-5.1,2.6-7.3l16.7,3.6C1032.7,15.2,1032.6,17.8,1032,20.4z M1032.2,8.8l-14.3-3.1c1.9-2.7,4.1-5,6.6-6.8
	c0.8,0.1,1.5,0.2,2.3,0.4c0.7,0.2,1.5,0.4,2.2,0.6C1030.6,2.5,1031.7,5.5,1032.2,8.8z"/>
<rect x="1135.8" y="9" class="st0" width="8.2" height="8.2"/>
<path class="st0" d="M1144.3-102.5c0-50.6-41-91.6-91.6-91.6c-50.6,0-91.6,41-91.6,91.6s41,91.6,91.6,91.6
	C1103.3-10.9,1144.3-51.9,1144.3-102.5z M1010.1-70.1c-8,0-14.5-6.5-14.5-14.5v-58.1c0-8,6.5-14.5,14.5-14.5h87.2
	c8,0,14.5,6.5,14.5,14.5v58.1c0,8-6.5,14.5-14.5,14.5h-29v14.5h14.5c8,0,14.5,6.5,14.5,14.5h-87.1c0-8,6.5-14.5,14.5-14.5h14.5
	v-14.5H1010.1z"/>
<path class="st0" d="M1029.3,162.8c21.6,0,39.1-4.3,39.1-9.6c-0.8-7.1-6.1-13.8-10.9-15.1c-8.1-2.1-15.6-5-18-10.6
	c0,0-0.1-0.2-0.2-0.6c1.1-0.1,2.2-0.3,3.5-0.6c2.6-0.6,5.2-3.2,4.3-3.9c-1-0.7,4.6-0.5,3.3-3.5c-0.5-1.1-3.3-9.4-4.6-14.8
	c-1.3-5.3-2-22.6-15.1-22c-7.6-2.3-14.6,3.3-16.1,7c-2,5.1-1.5,11.9-2.3,15c-1.4,5.4-3.9,13.9-4.6,14.8c-0.7,1,1.3,2.6,2.6,2.4
	c2-0.2,1.8,0,0.9,0.7c-0.9,0.7,1.5,3.7,4.2,4.4c1.4,0.3,2.6,0.5,3.8,0.6c-0.1,0.3-0.2,0.5-0.2,0.5c-2.4,5.6-9.9,8.5-18,10.6
	c-4.8,1.3-10.1,8-10.8,15.1C990.2,158.5,1007.7,162.8,1029.3,162.8L1029.3,162.8z"/>
<polygon class="st0" points="1575.5,-82.1 1588.4,-69.3 1590.5,-71.4 1577.6,-84.2 "/>
<polygon class="st0" points="1571.4,-77.7 1573.5,-75.6 1571.4,-73.5 1580,-65 1582.1,-67.1 1584.2,-65 1586.3,-67.1 1573.4,-79.9 
	"/>
<path class="st0" d="M1546.8-61.1l5.5-4.8L1547-74l-6.6,1.4l-8.4-5.6l-0.4-7.2l-9.7-1l-3,5.9l-9.7,3l-5.9-4.2l-6.8,6.9l2.8,6
	l-3.7,9.4l-7,2l1.2,9.6l6.6,1.5l5.1,8.7l-2.8,6.7l8.3,5.1l5.3-4.1l10,1.5l3.5,6.3l9.2-3.3l0.1-6.6l7.4-6.9l7.2,1.2l3.1-9.2l-5.2-4.2
	L1546.8-61.1z M1521.4-41.3c-7.3,0-13.2-5.9-13.3-13.2c0-7.3,6-13.2,13.3-13.2c7.4,0,13.3,5.9,13.3,13.2S1528.7-41.3,1521.4-41.3z"
	/>
<path class="st0" d="M1338.6,16h66.4c0.9,0,1.6-0.7,1.7-1.5v-41.2c0-0.8-0.8-1.5-1.7-1.5h-66.4c-0.9,0-1.7,0.7-1.7,1.5v41.2
	C1336.9,15.3,1337.7,16,1338.6,16z"/>
<path class="st0" d="M1588.3-103.3c-2.4,2.3-3.7,5.3-4.2,8.4l-4.3,8.7l6.4,6.4l0.6-9.2h3l0.1,5.5l4.8-4.9l2.1,2.1l-8.4,8.6l4.3,4.3
	l8.7-4.4c3.1-0.4,6-1.8,8.4-4.2c5.8-6,5.8-15.5-0.1-21.4C1603.7-109.2,1594.2-109.2,1588.3-103.3z"/>
<path class="st0" d="M1397.1,28.7c-0.2-0.3-1.3-0.6-2.5-0.6l-57.2-0.2c-1.2,0-2.3,0.2-2.5,0.7l-7.8,5.9c-0.1,0.3,1.1,0.6,2.6,0.6
	h69.3c1.6,0,2.7-0.3,2.5-0.6L1397.1,28.7z"/>
<path class="st0" d="M1486.3-34.6c-1.3-4.1-5.6-6.4-9.7-5.1l-26,8c-4.1,1.2-6.4,5.6-5,9.7l5.7,18.5c1.3,4.1,5.6,6.4,9.7,5.1l7.4-2.3
	l3.4,11.1l7.7-14.5l7.4-2.3c4.1-1.3,6.4-5.6,5.1-9.7L1486.3-34.6z M1452.9-24.3l26-8l1.1,3.7l-25.9,8L1452.9-24.3z M1458.6-5.8
	l-1.1-3.7l14.8-4.6l1.1,3.7L1458.6-5.8z M1456.3-13.2l-1.1-3.7l26-8l1.1,3.7L1456.3-13.2z"/>
<path class="st0" d="M1411.1,27.9h-10.7c-1.2,0-1.6,0.3-1.7,0.7l4.6,5.8c-0.2,0.4,2.1,0.6,3.6,0.6h11.8c1.6,0,2.7-0.3,2.6-0.6
	l-7.8-5.9C1413.4,28.2,1412.3,27.9,1411.1,27.9z"/>
<path class="st0" d="M1372.4-59.5c-37.2,0-67.3,30.1-67.3,67.3s30.1,67.3,67.3,67.3s67.3-30.1,67.3-67.3S1409.6-59.5,1372.4-59.5z
	 M1429.1,36.8V37l0.1,0.1l0.1,3.7c0,0.8-0.8,1.3-3,1.3H1323c-2.2,0-3.5-0.2-3.5-1.1l-0.2-2.9c0,0,0.3-1.1,0.3-1.3l10.3-11.7l0.9-1.1
	l0.1-0.2c-0.4-0.4-0.7-0.9-0.7-1.5v-54.5c0-1.1,0.9-2,2.1-2h78.6c1.2,0,2.1,0.9,2.1,2v54.5l-0.1,0.5c1.2,0.2,2.2,0.6,2.4,1.2l5,4.7
	L1429.1,36.8z"/>
<rect x="1010.2" y="-142.7" class="st0" width="87.1" height="58.1"/>
<path class="st0" d="M908.4-60.9c0.4,0.2,0.9,0.3,1.3,0.3c1.5,0.1,2.8-0.7,3.4-2c0.8-1.7,0.1-3.8-1.7-4.6s-3.9-0.1-4.7,1.7
	c-0.3,0.6-0.4,1.3-0.3,2C906.6-62.4,907.3-61.4,908.4-60.9z"/>
<path class="st0" d="M874.5-68.9c-1.8-0.8-3.9,0-4.7,1.7c-0.2,0.2-0.2,0.5-0.3,0.8c-0.3,1.5,0.5,3.1,2,3.8c0.3,0.2,0.6,0.3,1,0.3
	c1.5,0.2,2.9-0.6,3.6-2l0.2-0.2C876.9-66.2,876.2-68.1,874.5-68.9z"/>
<path class="st0" d="M884.4-42.2l0.4,0.1c0.5,0.2,1.1,0.3,1.6,0.2c1.1-0.2,2.2-0.9,2.7-2l0.1-0.3c0.6-1.6-0.1-3.4-1.6-4.2l-0.2-0.1
	c-0.6-0.2-1.1-0.3-1.7-0.3c-1.2,0.1-2.4,0.8-3,2c-0.2,0.3-0.3,0.6-0.3,0.9C882.2-44.4,882.9-42.9,884.4-42.2z"/>
<path class="st0" d="M817.3-181.1l10,17l-5.5,13.1l16.3,9.9l10.4-8l19.7,2.9l6.9,12.4l18-6.5l0.2-13l14.5-13.4l14.1,2.4l6.1-17.9
	l-10.2-8.4l-1.6-19.6l10.7-9.4l-6.6-10.1H821l2.1,4.5l-7.2,18.3l-13.8,3.9l2.4,18.8L817.3-181.1z M866.5-222.9
	c14.4,0,26.1,11.5,26.1,25.8c0,14.2-11.7,25.8-26.1,25.8c-14.3,0-26-11.6-26-25.8C840.5-211.3,852.1-222.9,866.5-222.9z"/>
<path class="st0" d="M839-57.6c0,24.3,19.7,44,44,44s44-19.7,44-44c0-24.3-19.7-44-44-44S839-81.9,839-57.6z M889.3-52.6
	c0.7,0.4,1.3,0.8,1.9,1.3l11.6-9.3c-1-2-1.2-4.5-0.1-6.8c1.9-4,6.6-5.7,10.7-3.8c4,1.8,5.8,6.5,3.9,10.5c-1.8,3.9-6.6,5.6-10.6,3.8
	c-0.3-0.2-0.6-0.3-0.9-0.5l-12.2,9.7c0.5,1.8,0.5,3.8-0.4,5.6c-1.8,3.9-6.6,5.6-10.6,3.8s-5.8-6.5-3.9-10.5c0.3-0.6,0.7-1.2,1.1-1.7
	l-4.7-7.7c-1.8,0.5-3.7,0.4-5.5-0.4c-1-0.5-1.8-1.1-2.5-1.8l-12.9,6.6c-0.1,0.3-0.2,0.5-0.3,0.8c-0.8,1.8-2.9,2.5-4.7,1.7
	s-2.5-2.8-1.7-4.6c0.8-1.7,2.9-2.5,4.7-1.7l12.9-6.7c-0.3-1.6-0.2-3.3,0.6-4.9c1.9-3.9,6.6-5.6,10.6-3.8s5.8,6.5,3.9,10.5
	c-0.3,0.8-0.8,1.5-1.4,2.1l4.5,7.5C885.2-53.5,887.3-53.5,889.3-52.6z"/>
<path class="st0" d="M935.8-118.8l6.5,6.2l2.1-7.7c9.9-3.1,16.8-10.2,16.8-18.4c0-11-12.5-20-27.8-20c-15.3,0-27.7,8.9-27.6,20
	c0,11,12.4,20,27.7,20C934.3-118.7,935.1-118.8,935.8-118.8z"/>
<path class="st0" d="M1007.9-202c0.8-0.2,1.7-0.4,2.5-0.6l8.8,5.4l0.5-9.2c9.8-5.5,15.7-14.4,14.6-23.3h-60.6
	c-1.7,3.8-2.3,7.8-1.5,11.7C974.8-205.6,990.8-198.4,1007.9-202z"/>
<path class="st0" d="M1081.1-202.1c0.4,0.2,0.8,0.4,1.2,0.6s0.8,0.3,1.2,0.5l51.7,25.1c9.1,4.5,20.1,0.7,24.5-8.3
	c4.1-8.5,1-18.6-6.9-23.5c2.9-8.2-0.5-17.4-8.1-21.9h-68.6c-0.9,1.1-1.7,2.3-2.4,3.7C1069.5-217.2,1072.8-206.9,1081.1-202.1z"/>
<path class="st0" d="M955.6-208.2l4.2,8.2l5.8-8.5c0.9-0.2,1.8-0.3,2.6-0.5c0.9-0.2,1.9-0.4,2.8-0.7c-2.6-2.7-4.5-6-5.1-9.7
	c-0.8-3.5-0.5-7,0.6-10.3h-34.3c-0.1,1.6,0,3.1,0.3,4.7C934.5-215.7,943.9-209.3,955.6-208.2z"/>
<path class="st0" d="M926,12.4c-33.1,0-60,26.8-60,60c0,33.1,26.9,60,60,60s60-26.9,60-60C986,39.3,959.1,12.4,926,12.4z
	 M925.5,112.9c-23.6,0.5-42.8-3.9-43-9.8c0.7-7.9,0.9-17.1,5.7-19.7c4.1-2.2,9.3-4,13.6-5.7c2.9-1,5.3-1.9,7.3-2.8l0.8-1
	c0.8-0.5,1.7-0.9,2.4-1.5l0.2-0.2h-0.1c1.4-1.2,2.2-2.6,2.7-4.6c-1.5-1.9-2.8-4.3-3.6-7.1c-0.5-1.7-0.8-3.5-0.9-5.4
	c-0.6-0.4-1.1-1.2-1.5-2.3c-0.1-0.4-0.2-0.8-0.3-1.2c-0.5-2.4-1.6-4.4,0.8-4.8h0.2c0-0.3-0.1-0.5-0.1-0.7c-0.6-2.6-1.4-5.5-1.6-8.1
	c-0.3-2.9-0.1-5.5,1.5-7.4c2.1-2.5,5.9-5.8,9.7-6.2c1.3-0.1,2.4-0.2,3.5-0.2c3.2,0,5.5,0.6,7.4,2.8c2.5,0,4.9,1,6.8,2.6
	c3.7,3.1,4.3,6.9,3.8,9.9c-0.4,2.4-1.5,4.4-2.3,6.6l-0.1,0.2c2.3,0.3,1.3,2.4,0.9,4.7c-0.3,1.7-0.9,3-1.7,3.6
	c-0.1,4.8-1.7,9.2-4.1,12.4c0.4,1.8,1,3.2,1.9,4.3l0.4,0.4c0.2,0.3,0.5,0.6,0.8,0.8h-0.1c2.4,2,5.9,3,10.9,4.5
	c4.7,1.4,9.9,2.9,14.2,5c4.8,2.3,5.4,11.1,6.4,18.8c0.1,0.2,0.1,0.4,0.1,0.6C968.2,107.3,949.1,112.4,925.5,112.9z"/>
<path class="st0" d="M801.5-12.1c-23.7,9.5-35.2,36.4-25.7,60.1s36.4,35.2,60.1,25.7s35.2-36.4,25.7-60.1
	C852.1-10.1,825.2-21.6,801.5-12.1z M824.1,7.6c4.3-1.7,9.2,0.4,10.9,4.7c1.8,4.3-0.3,9.2-4.6,10.9c-4.3,1.7-9.2-0.4-10.9-4.7
	C817.7,14.2,819.8,9.3,824.1,7.6z M798.7,17.8c4.3-1.7,9.2,0.4,10.9,4.7s-0.4,9.2-4.7,10.9c-4.3,1.7-9.2-0.4-10.9-4.7
	S794.4,19.6,798.7,17.8z M829.7,58.5c-12.3,4.9-25.8,2.5-35.6-5.2c9.8,1.7,21,0.6,32-3.8s19.9-11.3,25.8-19.3
	C850.2,42.5,842.1,53.5,829.7,58.5z"/>
<path class="st0" d="M805-62.6c0-37.6-30.4-68-68-68c-37.5,0-68,30.4-68,68c0,37.6,30.4,68,68,68S805-25,805-62.6z M749-10.6
	c7.3-2.9,13.8-8.8,14.8-17.3c0.8-7.9-3.3-14.6-8.8-19.6c-5.2-4.8-11.5-7.8-17.2-11.9c-3.3-2.4-8.3-7-6.5-11.8
	c-2.3,2-4.1,4.9-4.8,7.9c-1.5,6,2.2,10.7,5.9,14.9c3.8,4.3,3.5,11.5-2.9,12.9c-2.8,0.6-5.6-0.5-7.3-2.8c-1.8-2.5-1.4-5-0.7-7.8
	c-5.9,4.3-10.7,10.9-10.7,18.7c0,7.2,5.7,14.2,11.9,16.9c-12.2-2.9-23-11.1-26.4-24c-3.3-12.9,1.3-25.9,8.8-36.2
	c3.7-5.2,8.1-9.8,12.7-14.2c4.3-4.1,8.9-7.9,12.8-12.4c4-4.6,9-12.9,5.2-19.2c6.8,5.2,12.3,14,11.4,23.1c-0.7,7.2-6,14.6-0.8,21.4
	c4,5.4,13.3,2.6,13-4.5c12.1,6.4,21.8,17.6,21.5,32.2C780.6-26.5,764.5-14.1,749-10.6z"/>
<path class="st0" d="M982.5-23.8l3.8-3.3l-3.6-5.6l-4.5,1l-5.8-3.9l-0.3-5l-6.7-0.7l-2.1,4.1l-6.7,2.1l-4.1-2.9l-4.7,4.8l1.9,4.2
	l-2.5,6.5l-4.8,1.4l0.8,6.6l4.5,1.1l3.5,6l-1.9,4.6l5.7,3.5l3.7-2.8l6.9,1l2.4,4.4l6.4-2.2l0.1-4.6l5.1-4.7l5,0.8l2.1-6.3l-3.6-3.2
	L982.5-23.8z M965-9.9c-5.1,0-9.2-4.1-9.2-9.1s4.1-9.1,9.2-9.1s9.2,4.1,9.2,9.1S970.1-9.9,965-9.9z"/>
<path class="st0" d="M663.1-187.8c2.3-2.8,0.6-9.4-4.4-9.3c3.4-5-1.8-8.8-5.1-9.5c-7.5-1.7-20.2,8.5-27.7,10.7
	c-9.6-4.7-4.7-23.3-16.8-25.9c-4.8-1-5.2,4-3.8,5.8c1.5,2,1,6.3,2,8.5c2.3,4.7,1.3,10,2.2,14.8c1.3,6.5,0.2,12.4-3.4,17.9l-0.4-0.6
	c-1.2-2-3.6-2.9-5.4-1.8l-13.2,7.7c-1.8,1-2.3,3.6-1.1,5.6l16.8,28.7c1.2,2,3.6,2.9,5.4,1.8l13.2-7.7c1.8-1,2.3-3.6,1.1-5.6
	l-0.8-1.4c4.9-2.7,8.7-5,9.5-5.8c8.8-1.8,15.6-3,20.9-4.7c2.6-0.9,7.1-4,10.8-7c4.6-3.7,5-8.6,1-11.3
	C668.1-179.3,669.3-185.9,663.1-187.8z"/>
<path class="st0" d="M785.9-142.9c0,0.8,0.2,1.5,0.6,2.2l0.1,0.2l15,24.7l-5.7,4.1c-0.2,0.2-0.4,0.4-0.6,0.7c-0.5,1-0.2,2.3,0.7,2.8
	l16,9.5l16,9.5c0.3,0.2,0.7,0.3,1.1,0.2c1-0.2,1.8-1.2,1.7-2.3l-1.7-19.8l-1.7-19.6c0-0.4-0.1-0.8-0.3-1.1c-0.5-0.9-1.7-1.1-2.6-0.5
	l-5.7,4.1l-15-24.7c-0.8-1.5-2.3-2.2-3.9-2c-0.7,0.1-1.4,0.3-2,0.7l-0.2,0.1l-9.8,7C786.6-146.1,785.9-144.5,785.9-142.9z"/>
<path class="st0" d="M735.3-151.1c32,0,58-25.9,58-58c0-7.3-1.4-14.2-3.8-20.6h-37c0.3,0.9,0.7,1.9,0.9,3c1.2,5.1,0.6,10.2-1.4,14.7
	l-1.5,15.2l-9.3,2.1l-4.3-18.5l-4.6,1.1l2.4,10.5l-7.3-4.5l-2.5,4l11.7,8.5l-13.9,3.2l-7.9-13c-3.7-3.2-6.5-7.5-7.7-12.6
	c-1.1-4.7-0.7-9.5,0.9-13.7h-26.9c-2.5,6.4-3.8,13.3-3.8,20.6C677.3-177.1,703.3-151.1,735.3-151.1z M754.8-178.3l-4.6,1.1l1.1,4.6
	l-18.5,4.3l-1.1-4.6l-4.6,1.1l-1.1-4.6l27.8-6.4L754.8-178.3z M751.6-192.1l1.1,4.6l-27.8,6.4l-1.1-4.6L751.6-192.1z"/>
<path class="st0" d="M653.2-98.5l5.5-4.8l-5.3-8.1l-6.6,1.4l-8.4-5.6l-0.4-7.2l-9.7-1l-3,5.9l-9.7,3l-5.9-4.2l-6.8,6.9l2.8,6
	l-3.6,9.3l-7,2l1.2,9.6l6.5,1.6l5.1,8.7l-2.8,6.7l8.3,5.1l5.3-4.1l10,1.5l3.5,6.3l9.2-3.3l0.1-6.6l7.4-6.9l7.2,1.2l3.1-9.2l-5.2-4.2
	L653.2-98.5z M627.8-78.7c-7.3,0-13.3-5.9-13.3-13.2c0-7.3,6-13.2,13.3-13.2s13.3,5.9,13.3,13.2C641.1-84.6,635.1-78.7,627.8-78.7z"
	/>
<path class="st0" d="M563.6-215.2c-5.2,0-9.4,4.2-9.4,9.4c0,5.2,4.2,9.4,9.4,9.4s9.4-4.2,9.4-9.4C573-211,568.8-215.2,563.6-215.2z
	 M563.6-198.2c-0.3,0-0.6,0-0.9-0.1c3.8-0.4,6.8-3.7,6.8-7.6c0-3.9-3-7.2-6.8-7.6c0.3,0,0.6-0.1,0.9-0.1c4.2,0,7.6,3.4,7.6,7.6
	C571.2-201.6,567.8-198.2,563.6-198.2z"/>
<path class="st0" d="M560.7-227.4c-13.6,0-24.6,11-24.6,24.6c0,13.6,11,24.6,24.6,24.6c13.6,0,24.6-11,24.6-24.6
	C585.2-216.4,574.2-227.4,560.7-227.4z M563.6-194c-2.8,0-5.3-0.9-7.3-2.5l-8.4,8.4l-2-2l8.4-8.4c-1.6-2-2.5-4.5-2.5-7.3
	c0-6.5,5.3-11.8,11.8-11.8c6.5,0,11.8,5.3,11.8,11.8C575.4-199.3,570.1-194,563.6-194z"/>
<path class="st0" d="M1044.9,175.7c-19.8,0-35.9,16.1-35.9,35.9c0,19.8,16.1,35.9,35.9,35.9c19.8,0,35.9-16.1,35.9-35.9
	C1080.8,191.7,1064.7,175.7,1044.9,175.7z M1058.5,209.6c0,0-19,22.2-19.3,22.6c-0.3,0.4-0.6,0.5-0.9,0.5h-0.3l-0.3-0.3
	c-0.3-0.4-0.2-0.8-0.1-1.1c0.2-0.7,5.7-16.4,5.7-16.4h-10.8c-0.5,0-0.9-0.3-1.1-0.7c-0.2-0.5-0.1-1,0.2-1.4
	c6.4-7.3,18.8-21.3,19.2-21.7c0.3-0.5,0.7-0.6,0.9-0.6h0.3l0.3,0.3c0.1,0.2,0.3,0.5,0.2,1c-0.2,0.7-5.5,15.4-5.6,16l10.8,0
	c0.5,0,1,0.2,1.1,0.6C1058.9,208.7,1058.8,209.1,1058.5,209.6z"/>
</svg>
