<?xml version="1.0" encoding="utf-8"?>
<!-- Generator: Adobe Illustrator 19.1.0, SVG Export Plug-In . SVG Version: 6.00 Build 0)  -->
<!DOCTYPE svg PUBLIC "-//W3C//DTD SVG 1.1//EN" "http://www.w3.org/Graphics/SVG/1.1/DTD/svg11.dtd">
<svg version="1.1" id="Layer_1" xmlns="http://www.w3.org/2000/svg" xmlns:xlink="http://www.w3.org/1999/xlink" x="0px" y="0px"
	 viewBox="193 -88 1086 477" style="enable-background:new 193 -88 1086 477;" xml:space="preserve">
<style type="text/css">
	.st0{opacity:0.75;fill:#834FAB;fill-opacity:0.2;enable-background:new    ;}
</style>
<path class="st0" d="M1041,41.8c0,21,23.6,38,52.7,38c1.4,0,2.9,0,4.3-0.1l12.4,11.7l4.1-14.6c18.7-5.8,31.9-19.3,31.9-35
	c0-21-23.6-38-52.7-38C1064.6,3.8,1041,20.8,1041,41.8z"/>
<path class="st0" d="M878.1,24.2c14.6,0,27.9-6,37.5-15.5c9.6-9.6,15.5-22.9,15.5-37.5c0-8-1.8-15.4-4.9-22.2
	c-2.6-5.8-6.2-11-10.6-15.4c-9.6-9.6-22.8-15.5-37.5-15.5s-27.9,5.9-37.5,15.5c-4.5,4.5-8.1,9.8-10.8,15.7c-3,6.7-4.7,14-4.7,21.8
	c0,14.7,5.9,27.9,15.5,37.5C850.2,18.2,863.4,24.2,878.1,24.2z M838.8-21.9c1.4-0.2,2.7-0.5,7.5-2.8c4.8-2.4-0.6-3.8-0.3-7.2
	c0.3-3.4,4.8-3.1,6.6-5.1c1.8-1.9-1.3-3.2-2.7-4.3c-1.4-1.1-3.7,0.3-4.5,1.8s-1.1,2.8-2.8,2.5c-1.7-0.3-2.2-0.6-3.2-2.5
	s0.6-2,4.3-4.5c3.7-2.5,1.4-2.5,1.3-3.5s-1.7-0.6-3.5-1.3l-0.1-0.1c-1.6-0.7-0.7-2.6,0.4-3.3c1.1-0.8,2.4-0.9,3.5-0.2
	c1.1,0.8,1.1,1.3,4.1,0.2c3-1.2,3.1-0.2,4.1,1.2c0.6,0.9,1.4,2.3,2.2,3.5c0.5,0.8,0.9,1.4,1.3,1.9c1.1,1.4,3.9,0,6.3-1.4l0.1-0.1
	c2.3-1.4,1.5-3.7,1.6-5.6c0.2-2-1.4-2-2.2-2.7c-0.9-0.7-1-3.2-2-4.6c-1-1.5-2.9-1.3-4.2-0.9c-1.3,0.4-3.4,2.2-3.8,2.1
	c-0.5-0.1-0.3-2.2-1.3-2.9c-0.6-0.4-2.8-0.5-4.7-0.8c8.2-7.6,19.2-12.3,31.2-12.3c12.6,0,24.1,5.1,32.4,13.4
	c1.9,1.9,3.6,3.9,5.1,6.1c-4.6,1.5-12.7,4.3-13.3,5.1c-0.8,1.1-3.8,1.7-5.2,1c-1.4-0.7-2.4-1.5-3.8-1.4s-1.9,0.3-2.9,1.4
	c-0.6,0.7-1.7,1.7-2.9,2.2c-0.7,0.3-1.4,0.5-2,0.2c-0.2-0.1-0.3-0.1-0.5-0.1c-0.5-0.2-0.9-0.1-1.3,0c-0.6,0.2-1,0.6-1,0.6
	c-1.5,2,0.3,4.5,1.4,4.4c1.1-0.2,2.5-2.4,3.2-2.4s2.2,1.3,2.5,1.8c0.2,0.5-1.2,3.6-2,3.7c-0.8,0.1-3.9,1.1-4.6,1.1s-3.8-1.2-4.5-0.4
	c-0.7,0.9-2.1,0.7-1.4,2.7c0.8,2,0,3.5-0.5,3.7c-0.6,0.1-5.2,1.4-0.6,1.5c4.6,0.2,5.7-1.4,6.7-1.5s2.7-1.4,3.8-0.8
	c1.1,0.6,2.9-0.3,3.8,0s3-2.4,4-1.4c1,0.9,0.8,2.9,0.5,3.6c-0.3,0.6-2,1.2-1.6,2.2c0.5,0.9,1.3,2.2,2.6,3.2c1.2,0.9,2.1,2.2,2.9,1.2
	c0.9-1,0.9-2.2,1.3-2.8c0.4-0.5,4.4,0.2,4.5,1c0.1,0.9,2.1,2.7,2.5,2.8c0.5,0.2,2,0.9,2,0.9s0.4,0.5,1.1,2s2.1,1.5,3.1,1.2
	s1.8-2.3,3.1-2.2c1.4,0.2,2-0.4,3.4,1c1.3,1.3,1.6,1.6,2.3,2.7c-2,8.1-6.2,15.3-11.9,21c-8.3,8.3-19.8,13.4-32.4,13.4
	c-7.6,0-14.6-1.9-20.9-5.1c0.8-1.6,1.3-6,1.3-6s1.1-11.1,0.7-11.8s-3.2-3.4-5-4.2s-3.5,0.2-5-0.4c-1.6-0.6-2.3-3-3.4-3.8
	s-2.8-0.8-4.5-1.3s-2.9-2.7-3.3-3.5C837.2-19.7,837.5-21.7,838.8-21.9z M838.4-12.6c1.7,0.5,3.4,3.1,4.1,3.4s-0.7,6.5-1.4,7.4
	c-2.5-3.4-4.6-7.3-6.1-11.4C836.1-12.9,837.4-12.9,838.4-12.6z"/>
<path class="st0" d="M867.4,207v-31.6c0-6.9,5.6-12.6,12.6-12.6h25.3c0-6.4-5.2-11.5-11.5-11.5h-40.2c-6.4,0-11.5,5.2-11.5,11.5
	v26.4c0,6.4,5.2,11.5,11.5,11.5h1.1v19L867.4,207z"/>
<path class="st0" d="M930.3,89.2c0-29-23.4-52.4-52.3-52.4s-52.3,23.5-52.3,52.4s23.4,52.3,52.3,52.3S930.3,118.2,930.3,89.2z
	 M837,101c-2.2-8.6,2.4-18,11.3-25.5l-6.8-4l25.6-6.6c-0.2,0.1-0.6,0.2-0.9,0.4c0.3-0.1,0.7-0.3,1-0.4c-13.7,6.3-21.7,19.9-18.3,33
	c3.4,13.1,16.9,21.2,31.9,20.1C859.4,121.4,840.4,114.4,837,101z M888.4,84.8c-1,1.5-2.8,2.7-5.3,3.8s-6.4,2-11.5,2.9h-0.3l-0.1,2.1
	c0,2.1,0.5,3.8,1.6,4.9c1.1,1.1,2.6,1.7,4.4,1.7c1.5,0,3-0.3,4.4-1c1.4-0.7,3.1-2,5-3.8c0.3,0.2,1,0.7,1.4,1
	c-2.1,2.2-4.3,3.8-6.5,4.7c-2.2,1-4.6,1.5-7.1,1.5c-3.5,0-6.3-1-8.3-2.9c-2-1.9-3-4.5-3-7.8c0-2.9,0.9-5.8,2.6-8.5s4.1-4.8,7-6.4
	c3-1.6,6.2-2.4,9.6-2.4c2.4,0,4.4,0.6,5.7,1.7c1.4,1.1,2,2.5,2,4.2C890,81.9,889.5,83.4,888.4,84.8z M890.6,114.8
	c13.7-6.3,21.7-19.9,18.3-33C905.5,68.7,892,60.6,877,61.7c21.5-3.5,40.4,3.5,43.9,17c2.2,8.6-2.4,18-11.3,25.5l6.8,4l-25.6,6.6
	c0.2-0.1,0.5-0.2,0.8-0.4C891.3,114.5,890.9,114.7,890.6,114.8z"/>
<path class="st0" d="M810.5,126c0-4.3-3.3-7.7-7.5-8.1v-0.1h-8.9c-4.5,0.1-8.1,3.7-8.1,8.2v4.1h-12.2c-4.5,0-8.2,3.7-8.2,8.2v8.2
	H831v-8.2c0-4.5-3.6-8.2-8.2-8.2h-12.2L810.5,126L810.5,126z M790.1,130.1c0-4.5,3.7-8.2,8.2-8.2s8.1,3.7,8.1,8.2
	C806.4,130.1,790.1,130.1,790.1,130.1z"/>
<path class="st0" d="M767.4,193.2l-10.5-22.7c-1.5-3.2-5.2-4.5-8.3-3.1l-34.1,15.7c-3.2,1.5-4.5,5.2-3.1,8.3l10.5,22.7
	c1.5,3.1,5.2,4.5,8.5,2.9l3.8-1.7l-1.2,7.4l4.1,1.5l7.4-13.7l1.3,2.8l5.7-2.6l-1.3-2.8l15.2,3.3l1.5-4.1l-6.4-3.9l3.8-1.7
	C767.5,200.1,768.8,196.3,767.4,193.2z M727.6,211.5l-10.5-22.7l34.1-15.7l10.5,22.7L727.6,211.5z"/>
<path class="st0" d="M880,76.5c-1.6,0-3.1,0.9-4.4,2.7c-1.8,2.5-3.2,5.9-4,10.2l-0.1,0.5l0.5-0.1c3.5-0.7,6-1.7,7.6-3.1
	c2.2-2,3.3-4.2,3.3-6.7c0-1-0.3-1.9-0.8-2.5C881.5,76.8,880.8,76.5,880,76.5z"/>
<path class="st0" d="M1205.4,40.9c39.8,0,72-32.3,72-72c0-39.8-32.2-72-72-72s-72,32.2-72,72S1165.6,40.9,1205.4,40.9z M1214.8-73.3
	c-1.5,4.1-1.7,8.8-0.9,11.9c0.4,1.8,1.9,5.1,3.3,7.1c2.6,3.7,4.3,4.6,7.6,6.6c1.5,0.9,3.1,1.6,3.8,1.8c3.2,0.9,9.9,3.3,20.7-3.9
	c-1.2,2.8-8.4,8.1-11.6,8.8c-12.6,2.6-20.7-3.2-24.9-9.9c-0.6-1-1.8-3.7-2-4.4C1209.2-60.7,1209.9-69,1214.8-73.3z M1195.8-69.1
	c-2,3.8-2.8,6.8-3,8.7c-2.3,22.1,18,37.9,35.9,38.1c8,0.1,16.4-3.6,21.4-8.8c-4.4,10.8-17,17.8-33.9,15.6
	c-14.1-1.9-27.6-15.9-29-29.9C1186.1-55.6,1189.8-61.7,1195.8-69.1z M1172.3-60.1c0.2,0-1.8,3.1-1.6,3.1l-0.4,1.3
	c-10.7,32.8,22.2,60.9,54.2,57.8c7.7-0.8,17.5-5,23.5-10.9l-0.4,1c-6.8,13.1-18.9,21-36.1,21.4c-8,0.1-15.7-1.9-20.7-4.1
	c-10.8-4.8-19.9-13.7-24.9-23.1C1158.8-27.2,1157.5-46,1172.3-60.1z"/>
<polygon class="st0" points="732.8,185 741,188.1 737.9,196.4 729.6,193.3 723.9,195.9 740.5,202 745.1,189.6 753.4,192.7 
	746.9,178.5 "/>
<path class="st0" d="M1030.8-32.8l-20.6,3.9c3.7,4.2,8,7.7,12.6,10.3C1026.1-22.8,1028.8-27.6,1030.8-32.8z"/>
<path class="st0" d="M1022.1-88.1h-22.5c-1.1,2.8-2,5.8-2.7,8.9l27.8-5.2C1023.9-85.7,1023-86.9,1022.1-88.1z"/>
<path class="st0" d="M975.5-45c1.5,5.1,3.8,9.8,6.8,13.7l15-2.8c-2.5-4.3-4.6-8.9-6.1-13.9L975.5-45z"/>
<path class="st0" d="M1033.2-63.3c-1-5.1-2.6-9.8-4.7-14.2L996-71.4c-0.4,4.8-0.2,9.8,0.8,14.9L1033.2-63.3z"/>
<path class="st0" d="M1034-56l-35.4,6.7c1.6,5,3.8,9.6,6.5,13.8l27.8-5.2C1033.9-45.6,1034.3-50.7,1034-56z"/>
<path class="st0" d="M1040.5-64.7l15.3-2.9c-1.5-5.1-3.8-9.7-6.9-13.8L1036-79C1038-74.5,1039.5-69.8,1040.5-64.7z"/>
<path class="st0" d="M1042.9-87.8l-0.4-0.3h-11.4c0.5,0.7,1,1.4,1.5,2.2L1042.9-87.8z"/>
<path class="st0" d="M1052.5-36.8l-13.6,2.6c-1.8,6.1-4.5,11.7-7.9,16.7C1040.4-21.3,1047.9-28.2,1052.5-36.8z"/>
<path class="st0" d="M991.8-88.2h-3.1c-4,3.5-7.4,7.7-9.9,12.4l10.4-2C989.8-81.4,990.6-84.9,991.8-88.2z"/>
<path class="st0" d="M932.2,55.7c5.9,17.8,28.4,28,42.4,36.8c13.4-9.6,35.3-21,40.3-39c6.6-23.9-26.1-42.7-41.8-15.2
	C956,11.6,924.3,32.2,932.2,55.7z"/>
<path class="st0" d="M1040.8-42.2l15-2.8c1.4-4.9,1.9-10.1,1.4-15.4l-15.7,3C1041.8-52.2,1041.5-47.1,1040.8-42.2z"/>
<path class="st0" d="M873.9-12.7c0,0,1.3,2.1,2.3,2.1s2.8-1.4,4.4-1.5c1.5-0.1,2.4,1.1,2.8,1.8c0.5,0.7,0.7,3.9,0.6,4.9
	s0.2,7.3,0.6,7.8c0.4,0.6,3.5,3.5,4.6,3.5c1.2,0,2.4-2,3.4-2.8c0.9-0.8,2.2-4.3,2.2-5.3v-5.1c0-0.9,1.3-2.2,1.9-3c1-1,2-2.8,1.7-3.9
	c-0.3-1.1-1.8-0.3-2.8-0.6c-1-0.2-1.8-2.3-2.1-3.9c-0.2-1.6-1.4-3.4-2.9-4.1s-2.5,0-3.9-0.7s-3.6-2.3-5-2.7s-3.4-0.1-4.8-0.8
	s-3.5,1.1-3.5,1.1s-1.6,3-2.2,3.9c-0.5,0.9-0.7,4.4-0.4,5.5C871.1-15.3,873.9-12.7,873.9-12.7z"/>
<path class="st0" d="M1001.9-27.3l-13.5,2.5c7.3,6.4,16.9,10.1,27,10.2C1010.3-18,1005.8-22.3,1001.9-27.3z"/>
<path class="st0" d="M822.8,179.1c4.5,0,8.2-3.7,8.2-8.2v-20.4h-24.5v4.1c0,4.5-3.7,8.2-8.2,8.2s-8.2-3.7-8.2-8.2v-4.1h-24.5v20.4
	c0,4.5,3.7,8.2,8.2,8.2H822.8z"/>
<path class="st0" d="M1014.6,17.8c41.6,0,75.4-33.7,75.4-75.4c0-10.8-2.4-21.2-6.5-30.5h-22.3c4.4,6.3,7.6,13.6,9.1,21.6
	c5.6,30.2-14.2,59.2-44.4,64.9C995.8,4,966.7-15.8,961-46c-2.8-15.3,0.8-30.3,9.1-42.1h-24.4c-4.2,9.3-6.5,19.6-6.5,30.5
	C939.2-16,973,17.8,1014.6,17.8z"/>
<path class="st0" d="M989.4-55.2c-0.9-5-1.2-10-1-14.9l-12.9,2.4c-1.4,4.9-1.9,10.1-1.4,15.4L989.4-55.2z"/>
<path class="st0" d="M617.5,281.5c-13.9,0-25.2,11.3-25.3,25.3c0,14,11.3,25.3,25.3,25.3s25.3-11.3,25.3-25.3
	S631.4,281.5,617.5,281.5z M614.9,287.5c0-1.4,1.2-2.5,2.6-2.5c1.4,0,2.5,1.1,2.5,2.5v15.3c0,1.4-1.1,2.5-2.5,2.5
	c-1.5,0-2.6-1.1-2.6-2.5V287.5z M617.5,325.7c-9.9,0-17.9-8-17.9-17.9c0-8.1,5.4-14.9,12.8-17.1v5.4c-4.5,2-7.7,6.5-7.7,11.7
	c0,7.1,5.8,12.8,12.8,12.8c7.1,0,12.8-5.8,12.8-12.8c0-5.3-3.2-9.7-7.7-11.7v-5.4c7.4,2.2,12.8,9,12.8,17.1
	C635.4,317.7,627.4,325.7,617.5,325.7z"/>
<polygon class="st0" points="822.9,244.4 757.2,275.5 804.8,288.3 "/>
<path class="st0" d="M804.2,208.4c-40.3,0-73,32.7-72.9,72.9c0,40.3,32.6,72.9,72.9,72.9s72.9-32.6,72.9-72.9
	S844.5,208.4,804.2,208.4z M859.3,296.1c-1.1,2.8-3.2,5.2-6.1,6.6l-68,32.2c-2.9,1.4-6.2,1.6-9,0.6s-5.3-3-6.6-5.8l-21.1-44.6
	c-1-2.2-1.3-4.6-0.9-6.7c-0.1-0.5-0.1-1.1,0-1.6c0.2-0.8,0.6-1.4,1.2-1.8c1.2-2.2,3.1-4,5.5-5.2l0.1-0.1l67.9-32.2
	c2.2-1.1,4.5-1.4,6.7-1.1h0.2h0.1c0.7,0.1,1.4,0.3,2,0.5c2.8,1,5.3,3,6.6,5.8l21.1,44.6C860.3,290.2,860.4,293.3,859.3,296.1z"/>
<path class="st0" d="M830.4,243.7l-20.8,49.6c-0.6,1.5-2.3,2.3-3.9,1.7l-51.4-13.7c0.1,0.2,0.2,0.5,0.3,0.7l21.1,44.6
	c0.6,1.2,1.7,2.1,2.9,2.5c1.2,0.4,2.6,0.4,3.9-0.2l67.9-32.2h0.1c1.2-0.6,2.1-1.6,2.6-2.8c0.5-1.2,0.5-2.6-0.1-3.8l-21.1-44.6
	C831.6,244.8,831,244.2,830.4,243.7z"/>
<path class="st0" d="M985.6,216.8c-3.1-1.9-6.9-2.7-10.8-1.9c-8.1,1.6-13.4,9.5-11.8,17.6c0.1,0.9,0.4,1.7,0.7,2.5
	c-3.9-5.5-8.8-10.3-13.5-10.7c-12.4-1.1-2,14.6,0.3,18c-3.1-2.7-9.7-7.9-14.1-4.8c-4.5,3.2,4.6,11.1,6.8,13.5
	c-3.2-2.1-10.4-2.3-12,1.5c-2.8,6.7,9.8,9.4,20.3,9.2c0.2,0,0.4,0,0.6,0c-6.9,7.5-15.4,12-26.7,10.3c12.5,13.7,30.1,15.5,49.5,6.7
	c14.7-6.7,19.6-25.4,14.8-40.1c2.5-3.3,3.7-7.6,2.8-12c-0.3-1.4-0.7-2.8-1.4-4l4.9-10.3L985.6,216.8z M979.5,228.1
	c-1.5,0.3-2.8-0.6-3.1-2c-0.3-1.4,0.6-2.8,2.1-3c1.4-0.3,2.8,0.6,3.1,2C981.8,226.4,980.9,227.8,979.5,228.1z"/>
<path class="st0" d="M899,226v18.9l18.9-18.9h12.6c6.9,0,12.6-5.6,12.6-12.6v-31.6c0-6.9-5.6-12.6-12.6-12.6h-44.2
	c-6.9,0-12.6,5.6-12.6,12.6h0.1v31.6c0,6.9,5.6,12.6,12.6,12.6H899z M886.3,181.8h44.2v6.3h-44.2V181.8z M886.3,194.4h44.2v6.3
	h-44.2V194.4z M886.3,207.1h25.3v6.3h-25.3V207.1z"/>
<path class="st0" d="M925.9,284.3h-1h-39.1h-1.1c-0.6,0-1,0.4-1,1v28.3c0,0.5,0.4,0.9,0.9,0.9h1.1h13.2v2h-0.7c-0.5,0-1,0.4-1,0.9
	l-0.7,1.7l-0.7,1.7v0.1v1.4c-0.1,0.5,0.3,0.6,0.9,0.6H913c0.6,0,0.8-0.4,0.8-0.9v-1v-0.1l-1.1-1.8l-1-1.8c-0.1-0.5-0.5-0.9-1-0.9
	h-0.1v-2H925h1c0.5,0,0.9-0.4,0.9-0.9v-28.3C926.8,284.7,926.4,284.3,925.9,284.3z M923.3,309.8c0,0.4-0.3,0.7-0.7,0.7h-34.6
	c-0.4,0-0.7-0.3-0.7-0.7h-0.1v-21.9c0-0.4,0.3-0.7,0.5-0.7h34.6c0.7,0,1,0.3,1,0.7L923.3,309.8L923.3,309.8z"/>
<path class="st0" d="M652.8,155.7c-3.4,15.5,6.4,30.7,21.9,34.1c15.4,3.3,30.7-6.5,34.1-21.9c3.4-15.5-6.4-30.7-21.9-34.1
	C671.3,130.4,656.2,140.2,652.8,155.7z M676.9,140.6c-1.6,1.7-3.2,3.6-4.5,5.7l-5.3-1.2C669.9,142.8,673.3,141.2,676.9,140.6z
	 M671.2,161.6l18.2,4c-0.9,2.6-2.1,4.9-3.6,7l-14.3-3.1C671,167,670.8,164.3,671.2,161.6z M663.9,148.3l6.6,1.4
	c-1.1,2.3-1.9,4.7-2.5,7.3l-7.8-1.7C661,152.7,662.3,150.4,663.9,148.3z M659.8,167c-0.6-2.5-0.8-5.2-0.5-7.9l8.1,1.8
	c-0.3,2.6-0.2,5.3,0.1,7.8L659.8,167z M661.5,171.3l6.9,1.5c0.8,3.1,2.1,6.1,3.8,8.7C667.4,179.4,663.7,175.7,661.5,171.3z
	 M672.4,173.7L683,176c-1.9,2.1-4.2,3.8-6.6,5.1C674.8,178.9,673.5,176.4,672.4,173.7z M680.2,183.2c2.6-1.6,5-3.8,7.1-6.3l6.9,1.5
	C690.3,181.6,685.4,183.4,680.2,183.2z M697.4,175.2l-7.7-1.7c1.4-2.2,2.5-4.5,3.3-7.1l8.1,1.8C700.3,170.8,699,173.2,697.4,175.2z
	 M701.5,156.5c0.6,2.5,0.8,5.2,0.4,8l-7.8-1.7c0.6-2.6,0.8-5.2,0.8-7.7L701.5,156.5z M700,152.3l-5.3-1.2c-0.4-2.4-1-4.8-1.8-7
	C695.9,146.2,698.3,149,700,152.3z M690.4,161.9l-18.7-4c0.6-2.6,1.5-5.1,2.6-7.3l16.7,3.6C691.1,156.7,691,159.3,690.4,161.9z
	 M690.6,150.3l-14.3-3.1c1.9-2.7,4.1-5,6.6-6.8c0.8,0.1,1.5,0.2,2.3,0.4c0.7,0.2,1.5,0.4,2.2,0.6C689,144,690.1,147,690.6,150.3z"/>
<rect x="794.2" y="150.5" class="st0" width="8.2" height="8.2"/>
<path class="st0" d="M802.8,39c0-50.6-41-91.6-91.6-91.6s-91.6,41-91.6,91.6s41,91.6,91.6,91.6C761.8,130.6,802.8,89.6,802.8,39z
	 M668.5,71.4c-8,0-14.5-6.5-14.5-14.5V-1.2c0-8,6.5-14.5,14.5-14.5h87.2c8,0,14.5,6.5,14.5,14.5v58.1c0,8-6.5,14.5-14.5,14.5h-29
	v14.5h14.5c8,0,14.5,6.5,14.5,14.5h-87.1c0-8,6.5-14.5,14.5-14.5h14.5V71.4H668.5z"/>
<path class="st0" d="M687.8,304.3c21.6,0,39.1-4.3,39.1-9.6c-0.8-7.1-6.1-13.8-10.9-15.1c-8.1-2.1-15.6-5-18-10.6
	c0,0-0.1-0.2-0.2-0.6c1.1-0.1,2.2-0.3,3.5-0.6c2.6-0.6,5.2-3.2,4.3-3.9c-1-0.7,4.6-0.5,3.3-3.5c-0.5-1.1-3.3-9.4-4.6-14.8
	c-1.3-5.3-2-22.6-15.1-22c-7.6-2.3-14.6,3.3-16.1,7c-2,5.1-1.5,11.9-2.3,15c-1.4,5.4-3.9,13.9-4.6,14.8c-0.7,1,1.3,2.6,2.6,2.4
	c2-0.2,1.8,0,0.9,0.7c-0.9,0.7,1.5,3.7,4.2,4.4c1.4,0.3,2.6,0.5,3.8,0.6c-0.1,0.3-0.2,0.5-0.2,0.5c-2.4,5.6-9.9,8.5-18,10.6
	c-4.8,1.3-10.1,8-10.8,15.1C648.7,300,666.2,304.3,687.8,304.3L687.8,304.3z"/>
<polygon class="st0" points="1233.9,59.4 1246.8,72.2 1248.9,70.1 1236,57.3 "/>
<polygon class="st0" points="1229.8,63.8 1231.9,65.9 1229.8,68 1238.4,76.5 1240.5,74.4 1242.6,76.5 1244.8,74.4 1231.8,61.6 "/>
<path class="st0" d="M1205.2,80.4l5.5-4.8l-5.3-8.1l-6.6,1.4l-8.4-5.6l-0.4-7.2l-9.7-1l-3,5.9l-9.7,3l-5.9-4.2l-6.8,6.9l2.8,6
	l-3.7,9.4l-7,2l1.2,9.6l6.6,1.5l5.1,8.7l-2.8,6.7l8.3,5.1l5.3-4.1l10,1.5l3.5,6.3l9.2-3.3l0.1-6.6l7.4-6.9l7.2,1.2l3.1-9.2l-5.2-4.2
	L1205.2,80.4z M1179.8,100.2c-7.3,0-13.2-5.9-13.3-13.2c0-7.3,6-13.2,13.3-13.2c7.4,0,13.3,5.9,13.3,13.2
	C1193.2,94.3,1187.1,100.2,1179.8,100.2z"/>
<path class="st0" d="M997,157.5h66.4c0.9,0,1.6-0.7,1.7-1.5v-41.2c0-0.8-0.8-1.5-1.7-1.5H997c-0.9,0-1.7,0.7-1.7,1.5V156
	C995.3,156.8,996.1,157.5,997,157.5z"/>
<path class="st0" d="M1246.8,38.2c-2.4,2.3-3.7,5.3-4.2,8.4l-4.3,8.7l6.4,6.4l0.6-9.2h3l0.1,5.5l4.8-4.9l2.1,2.1l-8.4,8.6l4.3,4.3
	l8.7-4.4c3.1-0.4,6-1.8,8.4-4.2c5.8-6,5.8-15.5-0.1-21.4C1262.1,32.3,1252.6,32.3,1246.8,38.2z"/>
<path class="st0" d="M1055.5,170.2c-0.2-0.3-1.3-0.6-2.5-0.6l-57.2-0.2c-1.2,0-2.3,0.2-2.5,0.7l-7.8,5.9c-0.1,0.3,1.1,0.6,2.6,0.6
	h69.3c1.6,0,2.7-0.3,2.5-0.6L1055.5,170.2z"/>
<path class="st0" d="M1144.8,106.9c-1.3-4.1-5.6-6.4-9.7-5.1l-26,8c-4.1,1.2-6.4,5.6-5,9.7l5.7,18.5c1.3,4.1,5.6,6.4,9.7,5.1
	l7.4-2.3l3.4,11.1l7.7-14.5l7.4-2.3c4.1-1.3,6.4-5.6,5.1-9.7L1144.8,106.9z M1111.3,117.2l26-8l1.1,3.7l-25.9,8L1111.3,117.2z
	 M1117,135.7l-1.1-3.7l14.8-4.6l1.1,3.7L1117,135.7z M1114.8,128.3l-1.1-3.7l26-8l1.1,3.7L1114.8,128.3z"/>
<path class="st0" d="M1069.5,169.4h-10.7c-1.2,0-1.6,0.3-1.7,0.7l4.6,5.8c-0.2,0.4,2.1,0.6,3.6,0.6h11.8c1.6,0,2.7-0.3,2.6-0.6
	l-7.8-5.9C1071.8,169.7,1070.8,169.4,1069.5,169.4z"/>
<path class="st0" d="M1030.8,82c-37.2,0-67.3,30.1-67.3,67.3s30.1,67.3,67.3,67.3s67.3-30.1,67.3-67.3S1068,82,1030.8,82z
	 M1087.5,178.3v0.2l0.1,0.1l0.1,3.7c0,0.8-0.8,1.3-3,1.3H981.4c-2.2,0-3.5-0.2-3.5-1.1l-0.2-2.9c0,0,0.3-1.1,0.3-1.3l10.3-11.7
	l0.9-1.1l0.1-0.2c-0.4-0.4-0.7-0.9-0.7-1.5v-54.5c0-1.1,0.9-2,2.1-2h78.6c1.2,0,2.1,0.9,2.1,2v54.5l-0.1,0.5
	c1.2,0.2,2.2,0.6,2.4,1.2l5,4.7L1087.5,178.3z"/>
<rect x="668.7" y="-1.2" class="st0" width="87.1" height="58.1"/>
<path class="st0" d="M566.8,80.6c0.4,0.2,0.9,0.3,1.3,0.3c1.5,0.1,2.8-0.7,3.4-2c0.8-1.7,0.1-3.8-1.7-4.6c-1.8-0.8-3.9-0.1-4.7,1.7
	c-0.3,0.6-0.4,1.3-0.3,2C565,79.1,565.8,80.1,566.8,80.6z"/>
<path class="st0" d="M532.9,72.6c-1.8-0.8-3.9,0-4.7,1.7c-0.2,0.2-0.2,0.5-0.3,0.8c-0.3,1.5,0.5,3.1,2,3.8c0.3,0.2,0.6,0.3,1,0.3
	c1.5,0.2,2.9-0.6,3.6-2l0.2-0.2C535.3,75.3,534.7,73.4,532.9,72.6z"/>
<path class="st0" d="M542.8,99.3l0.4,0.1c0.5,0.2,1.1,0.3,1.6,0.2c1.1-0.2,2.2-0.9,2.7-2l0.1-0.3c0.6-1.6-0.1-3.4-1.6-4.2l-0.2-0.1
	c-0.6-0.2-1.1-0.3-1.7-0.3c-1.2,0.1-2.4,0.8-3,2c-0.2,0.3-0.3,0.6-0.3,0.9C540.7,97.1,541.3,98.6,542.8,99.3z"/>
<path class="st0" d="M475.7-39.6l10,17l-5.5,13.1l16.3,9.9l10.4-8l19.7,2.9l6.9,12.4l18-6.5l0.2-13l14.5-13.4l14.1,2.4l6.1-17.9
	l-10.2-8.4l-1.6-19.6l10.7-9.4l-6.6-10.1h-99.3l2.1,4.5l-7.2,18.3l-13.8,3.9l2.4,18.8L475.7-39.6z M524.9-81.4
	c14.4,0,26.1,11.5,26.1,25.8c0,14.2-11.7,25.8-26.1,25.8c-14.3,0-26-11.6-26-25.8C498.9-69.8,510.5-81.4,524.9-81.4z"/>
<path class="st0" d="M497.4,83.9c0,24.3,19.7,44,44,44c24.3,0,44-19.7,44-44s-19.7-44-44-44C517.2,39.9,497.4,59.6,497.4,83.9z
	 M547.8,88.9c0.7,0.4,1.3,0.8,1.9,1.3l11.6-9.3c-1-2-1.2-4.5-0.1-6.8c1.9-4,6.6-5.7,10.7-3.8c4,1.8,5.8,6.5,3.9,10.5
	c-1.8,3.9-6.6,5.6-10.6,3.8c-0.3-0.2-0.6-0.3-0.9-0.5l-12.2,9.7c0.5,1.8,0.5,3.8-0.4,5.6c-1.8,3.9-6.6,5.6-10.6,3.8
	c-4-1.8-5.8-6.5-3.9-10.5c0.3-0.6,0.7-1.2,1.1-1.7l-4.7-7.7c-1.8,0.5-3.7,0.4-5.5-0.4c-1-0.5-1.8-1.1-2.5-1.8l-12.9,6.6
	c-0.1,0.3-0.2,0.5-0.3,0.8c-0.8,1.8-2.9,2.5-4.7,1.7s-2.5-2.8-1.7-4.6c0.8-1.7,2.9-2.5,4.7-1.7l12.9-6.7c-0.3-1.6-0.2-3.3,0.6-4.9
	c1.9-3.9,6.6-5.6,10.6-3.8s5.8,6.5,3.9,10.5c-0.3,0.8-0.8,1.5-1.4,2.1l4.5,7.5C543.7,88,545.8,88,547.8,88.9z"/>
<path class="st0" d="M594.2,22.7l6.5,6.2l2.1-7.7c9.9-3.1,16.8-10.2,16.8-18.4c0-11-12.5-20-27.8-20c-15.3,0-27.7,8.9-27.6,20
	c0,11,12.4,20,27.7,20C592.8,22.8,593.5,22.7,594.2,22.7z"/>
<path class="st0" d="M666.3-60.5c0.8-0.2,1.7-0.4,2.5-0.6l8.8,5.4l0.5-9.2c9.8-5.5,15.7-14.4,14.6-23.3h-60.6
	c-1.7,3.8-2.3,7.8-1.5,11.7C633.2-64.1,649.2-56.9,666.3-60.5z"/>
<path class="st0" d="M739.5-60.6c0.4,0.2,0.8,0.4,1.2,0.6s0.8,0.3,1.2,0.5l51.7,25.1c9.1,4.5,20.1,0.7,24.5-8.3
	c4.1-8.5,1-18.6-6.9-23.5c2.9-8.2-0.5-17.4-8.1-21.9h-68.6c-0.9,1.1-1.7,2.3-2.4,3.7C727.9-75.7,731.2-65.4,739.5-60.6z"/>
<path class="st0" d="M614-66.7l4.2,8.2L624-67c0.9-0.2,1.8-0.3,2.6-0.5c0.9-0.2,1.9-0.4,2.8-0.7c-2.6-2.7-4.5-6-5.1-9.7
	c-0.8-3.5-0.5-7,0.6-10.3h-34.3c-0.1,1.6,0,3.1,0.3,4.7C592.9-74.2,602.3-67.8,614-66.7z"/>
<path class="st0" d="M584.4,153.9c-33.1,0-60,26.8-60,60c0,33.1,26.9,60,60,60s60-26.9,60-60S617.5,153.9,584.4,153.9z M583.9,254.4
	c-23.6,0.5-42.8-3.9-43-9.8c0.7-7.9,0.9-17.1,5.7-19.7c4.1-2.2,9.3-4,13.6-5.7c2.9-1,5.3-1.9,7.3-2.8l0.8-1c0.8-0.5,1.7-0.9,2.4-1.5
	l0.2-0.2h-0.1c1.4-1.2,2.2-2.6,2.7-4.6c-1.5-1.9-2.8-4.3-3.6-7.1c-0.5-1.7-0.8-3.5-0.9-5.4c-0.6-0.4-1.1-1.2-1.5-2.3
	c-0.1-0.4-0.2-0.8-0.3-1.2c-0.5-2.4-1.6-4.4,0.8-4.8h0.2c0-0.3-0.1-0.5-0.1-0.7c-0.6-2.6-1.4-5.5-1.6-8.1c-0.3-2.9-0.1-5.5,1.5-7.4
	c2.1-2.5,5.9-5.8,9.7-6.2c1.3-0.1,2.4-0.2,3.5-0.2c3.2,0,5.5,0.6,7.4,2.8c2.5,0,4.9,1,6.8,2.6c3.7,3.1,4.3,6.9,3.8,9.9
	c-0.4,2.4-1.5,4.4-2.3,6.6l-0.1,0.2c2.3,0.3,1.3,2.4,0.9,4.7c-0.3,1.7-0.9,3-1.7,3.6c-0.1,4.8-1.7,9.2-4.1,12.4
	c0.4,1.8,1,3.2,1.9,4.3l0.4,0.4c0.2,0.3,0.5,0.6,0.8,0.8H595c2.4,2,5.9,3,10.9,4.5c4.7,1.4,9.9,2.9,14.2,5
	c4.8,2.3,5.4,11.1,6.4,18.8c0.1,0.2,0.1,0.4,0.1,0.6C626.7,248.8,607.5,253.9,583.9,254.4z"/>
<path class="st0" d="M459.9,129.4c-23.7,9.5-35.2,36.4-25.7,60.1s36.4,35.2,60.1,25.7c23.7-9.5,35.2-36.4,25.7-60.1
	C510.5,131.4,483.6,119.9,459.9,129.4z M482.5,149.1c4.3-1.7,9.2,0.4,10.9,4.7c1.8,4.3-0.3,9.2-4.6,10.9s-9.2-0.4-10.9-4.7
	C476.1,155.7,478.2,150.8,482.5,149.1z M457.1,159.3c4.3-1.7,9.2,0.4,10.9,4.7s-0.4,9.2-4.7,10.9c-4.3,1.7-9.2-0.4-10.9-4.7
	S452.9,161.1,457.1,159.3z M488.1,200c-12.3,4.9-25.8,2.5-35.6-5.2c9.8,1.7,21,0.6,32-3.8s19.9-11.3,25.8-19.3
	C508.6,184,500.5,195,488.1,200z"/>
<path class="st0" d="M463.4,78.9c0-37.6-30.4-68-68-68c-37.5,0-68,30.4-68,68s30.4,68,68,68S463.4,116.5,463.4,78.9z M407.4,130.9
	c7.3-2.9,13.8-8.8,14.8-17.3c0.8-7.9-3.3-14.6-8.8-19.6c-5.2-4.8-11.5-7.8-17.2-11.9c-3.3-2.4-8.3-7-6.5-11.8
	c-2.3,2-4.1,4.9-4.8,7.9c-1.5,6,2.2,10.7,5.9,14.9c3.8,4.3,3.5,11.5-2.9,12.9c-2.8,0.6-5.6-0.5-7.3-2.8c-1.8-2.5-1.4-5-0.7-7.8
	c-5.9,4.3-10.7,10.9-10.7,18.7c0,7.2,5.7,14.2,11.9,16.9c-12.2-2.9-23-11.1-26.4-24c-3.3-12.9,1.3-25.9,8.8-36.2
	c3.7-5.2,8.1-9.8,12.7-14.2c4.3-4.1,8.9-7.9,12.8-12.4c4-4.6,9-12.9,5.2-19.2c6.8,5.2,12.3,14,11.4,23.1c-0.7,7.2-6,14.6-0.8,21.4
	c4,5.4,13.3,2.6,13-4.5c12.1,6.4,21.8,17.6,21.5,32.2C439,115,422.9,127.4,407.4,130.9z"/>
<path class="st0" d="M640.9,117.7l3.8-3.3l-3.6-5.6l-4.5,1l-5.8-3.9l-0.3-5l-6.7-0.7l-2.1,4.1l-6.7,2.1l-4.1-2.9l-4.7,4.8l1.9,4.2
	l-2.5,6.5l-4.8,1.4l0.8,6.6l4.5,1.1l3.5,6l-1.9,4.6l5.7,3.5l3.7-2.8l6.9,1l2.4,4.4l6.4-2.2l0.1-4.6l5.1-4.7l5,0.8l2.1-6.3l-3.6-3.2
	L640.9,117.7z M623.4,131.6c-5.1,0-9.2-4.1-9.2-9.1s4.1-9.1,9.2-9.1c5.1,0,9.2,4.1,9.2,9.1S628.5,131.6,623.4,131.6z"/>
<path class="st0" d="M321.5-46.3c2.3-2.8,0.6-9.4-4.4-9.3c3.4-5-1.8-8.8-5.1-9.5c-7.5-1.7-20.2,8.5-27.7,10.7
	c-9.6-4.7-4.7-23.3-16.8-25.9c-4.8-1-5.2,4-3.8,5.8c1.5,2,1,6.3,2,8.5c2.3,4.7,1.3,10,2.2,14.8c1.3,6.5,0.2,12.4-3.4,17.9l-0.4-0.6
	c-1.2-2-3.6-2.9-5.4-1.8L245.5-28c-1.8,1-2.3,3.6-1.1,5.6l16.8,28.7c1.2,2,3.6,2.9,5.4,1.8l13.2-7.7c1.8-1,2.3-3.6,1.1-5.6l-0.8-1.4
	c4.9-2.7,8.7-5,9.5-5.8c8.8-1.8,15.6-3,20.9-4.7c2.6-0.9,7.1-4,10.8-7c4.6-3.7,5-8.6,1-11.3C326.5-37.8,327.7-44.4,321.5-46.3z"/>
<path class="st0" d="M444.4-1.4c0,0.8,0.2,1.5,0.6,2.2L445,1l15,24.7l-5.7,4.1c-0.2,0.2-0.4,0.4-0.6,0.7c-0.5,1-0.2,2.3,0.7,2.8
	l16,9.5l16,9.5c0.3,0.2,0.7,0.3,1.1,0.2c1-0.2,1.8-1.2,1.7-2.3l-1.7-19.8l-1.7-19.6c0-0.4-0.1-0.8-0.3-1.1c-0.5-0.9-1.7-1.1-2.6-0.5
	l-5.7,4.1l-15-24.7c-0.8-1.5-2.3-2.2-3.9-2c-0.7,0.1-1.4,0.3-2,0.7l-0.2,0.1l-9.8,7C445-4.6,444.4-3,444.4-1.4z"/>
<path class="st0" d="M393.7-9.6c32,0,58-25.9,58-58c0-7.3-1.4-14.2-3.8-20.6h-37c0.3,0.9,0.7,1.9,0.9,3c1.2,5.1,0.6,10.2-1.4,14.7
	l-1.5,15.2l-9.3,2.1l-4.3-18.5l-4.6,1.1l2.4,10.5l-7.3-4.5l-2.5,4l11.7,8.5l-13.9,3.2l-7.9-13c-3.7-3.2-6.5-7.5-7.7-12.6
	c-1.1-4.7-0.7-9.5,0.9-13.7h-26.9c-2.5,6.4-3.8,13.3-3.8,20.6C335.7-35.6,361.7-9.6,393.7-9.6z M413.2-36.8l-4.6,1.1l1.1,4.6
	l-18.5,4.3l-1.1-4.6l-4.6,1.1l-1.1-4.6l27.8-6.4L413.2-36.8z M410-50.6l1.1,4.6l-27.8,6.4l-1.1-4.6L410-50.6z"/>
<path class="st0" d="M311.6,43l5.5-4.8l-5.3-8.1l-6.6,1.4l-8.4-5.6l-0.4-7.2l-9.7-1l-3,5.9l-9.7,3l-5.9-4.2l-6.8,6.9l2.8,6l-3.6,9.3
	l-7,2l1.2,9.6l6.5,1.6l5.1,8.7l-2.8,6.7l8.3,5.1l5.3-4.1l10,1.5l3.5,6.3l9.2-3.3l0.1-6.6l7.4-6.9l7.2,1.2l3.1-9.2l-5.2-4.2L311.6,43
	z M286.2,62.8c-7.3,0-13.3-5.9-13.3-13.2c0-7.3,6-13.2,13.3-13.2s13.3,5.9,13.3,13.2S293.5,62.8,286.2,62.8z"/>
<path class="st0" d="M222-73.7c-5.2,0-9.4,4.2-9.4,9.4s4.2,9.4,9.4,9.4s9.4-4.2,9.4-9.4S227.2-73.7,222-73.7z M222-56.7
	c-0.3,0-0.6,0-0.9-0.1c3.8-0.4,6.8-3.7,6.8-7.6c0-3.9-3-7.2-6.8-7.6c0.3,0,0.6-0.1,0.9-0.1c4.2,0,7.6,3.4,7.6,7.6
	C229.6-60.1,226.2-56.7,222-56.7z"/>
<path class="st0" d="M219.1-85.9c-13.6,0-24.6,11-24.6,24.6s11,24.6,24.6,24.6s24.6-11,24.6-24.6C243.6-74.9,232.6-85.9,219.1-85.9z
	 M222-52.5c-2.8,0-5.3-0.9-7.3-2.5l-8.4,8.4l-2-2l8.4-8.4c-1.6-2-2.5-4.5-2.5-7.3c0-6.5,5.3-11.8,11.8-11.8s11.8,5.3,11.8,11.8
	C233.9-57.8,228.5-52.5,222-52.5z"/>
<path class="st0" d="M703.3,317.2c-19.8,0-35.9,16.1-35.9,35.9s16.1,35.9,35.9,35.9s35.9-16.1,35.9-35.9
	C739.2,333.2,723.1,317.2,703.3,317.2z M716.9,351.1c0,0-19,22.2-19.3,22.6c-0.3,0.4-0.6,0.5-0.9,0.5h-0.3l-0.3-0.3
	c-0.3-0.4-0.2-0.8-0.1-1.1c0.2-0.7,5.7-16.4,5.7-16.4h-10.8c-0.5,0-0.9-0.3-1.1-0.7c-0.2-0.5-0.1-1,0.2-1.4
	c6.4-7.3,18.8-21.3,19.2-21.7c0.3-0.5,0.7-0.6,0.9-0.6h0.3l0.3,0.3c0.1,0.2,0.3,0.5,0.2,1c-0.2,0.7-5.5,15.4-5.6,16h10.8
	c0.5,0,1,0.2,1.1,0.6C717.3,350.2,717.2,350.6,716.9,351.1z"/>
</svg>
