<?xml version="1.0" encoding="utf-8"?>
<!-- Generator: Adobe Illustrator 18.1.1, SVG Export Plug-In . SVG Version: 6.00 Build 0)  -->
<!DOCTYPE svg PUBLIC "-//W3C//DTD SVG 1.1//EN" "http://www.w3.org/Graphics/SVG/1.1/DTD/svg11.dtd">
<svg version="1.1" id="Layer_1" xmlns="http://www.w3.org/2000/svg" xmlns:xlink="http://www.w3.org/1999/xlink" x="0px" y="0px"
	 viewBox="0 0 300 300" enable-background="new 0 0 300 300" xml:space="preserve">
<g>
	<defs>
		<circle id="SVGID_1_" cx="150" cy="160.3" r="113.1"/>
	</defs>
	<use xlink:href="#SVGID_1_"  overflow="visible" fill="#FFFFFF"/>
	<clipPath id="SVGID_2_">
		<use xlink:href="#SVGID_1_"  overflow="visible"/>
	</clipPath>
	<g clip-path="url(#SVGID_2_)">
		<rect x="91.8" y="140.9" fill="#FFFFFF" width="2.3" height="132.4"/>
		<rect x="86.2" y="140.9" fill="#FFFFFF" width="2.3" height="132.4"/>
		<rect x="80.6" y="140.9" fill="#FFFFFF" width="2.3" height="132.4"/>
		<rect x="75" y="140.9" fill="#FFFFFF" width="2.3" height="132.4"/>
		<rect x="69.4" y="140.9" fill="#FFFFFF" width="2.3" height="132.4"/>
		<rect x="63.8" y="140.9" fill="#FFFFFF" width="2.3" height="132.4"/>
		<rect x="58.2" y="140.9" fill="#FFFFFF" width="2.3" height="132.4"/>
		<rect x="52.6" y="140.9" fill="#FFFFFF" width="2.3" height="132.4"/>
		<rect x="47" y="140.9" fill="#FFFFFF" width="2.3" height="132.4"/>
		<rect x="41.4" y="140.9" fill="#FFFFFF" width="2.3" height="132.4"/>
		<rect x="35.8" y="140.9" fill="#FFFFFF" width="2.3" height="132.4"/>
	</g>
	<g clip-path="url(#SVGID_2_)">
		<rect x="148.9" y="140.9" fill="#FFFFFF" width="2.3" height="132.4"/>
		<rect x="140.7" y="140.9" fill="#FFFFFF" width="2.3" height="132.4"/>
		<rect x="132.5" y="140.9" fill="#FFFFFF" width="2.3" height="132.4"/>
		<rect x="124.4" y="140.9" fill="#FFFFFF" width="2.3" height="132.4"/>
		<rect x="116.2" y="140.9" fill="#FFFFFF" width="2.3" height="132.4"/>
		<rect x="108.1" y="140.9" fill="#FFFFFF" width="2.3" height="132.4"/>
		<rect x="99.9" y="140.9" fill="#FFFFFF" width="2.3" height="132.4"/>
		<rect x="91.8" y="140.9" fill="#FFFFFF" width="2.3" height="132.4"/>
	</g>
	<g clip-path="url(#SVGID_2_)">
		<rect x="206" y="140.9" fill="#FFFFFF" width="2.3" height="132.4"/>
		<rect x="197.8" y="140.9" fill="#FFFFFF" width="2.3" height="132.4"/>
		<rect x="189.6" y="140.9" fill="#FFFFFF" width="2.3" height="132.4"/>
		<rect x="181.5" y="140.9" fill="#FFFFFF" width="2.3" height="132.4"/>
		<rect x="173.3" y="140.9" fill="#FFFFFF" width="2.3" height="132.4"/>
		<rect x="165.2" y="140.9" fill="#FFFFFF" width="2.3" height="132.4"/>
		<rect x="157" y="140.9" fill="#FFFFFF" width="2.3" height="132.4"/>
		<rect x="148.9" y="140.9" fill="#FFFFFF" width="2.3" height="132.4"/>
	</g>
	<g clip-path="url(#SVGID_2_)">
		<rect x="261.9" y="140.9" fill="#FFFFFF" width="2.3" height="132.4"/>
		<rect x="256.3" y="140.9" fill="#FFFFFF" width="2.3" height="132.4"/>
		<rect x="250.7" y="140.9" fill="#FFFFFF" width="2.3" height="132.4"/>
		<rect x="245.1" y="140.9" fill="#FFFFFF" width="2.3" height="132.4"/>
		<rect x="239.5" y="140.9" fill="#FFFFFF" width="2.3" height="132.4"/>
		<rect x="234" y="140.9" fill="#FFFFFF" width="2.3" height="132.4"/>
		<rect x="228.4" y="140.9" fill="#FFFFFF" width="2.3" height="132.4"/>
		<rect x="222.8" y="140.9" fill="#FFFFFF" width="2.3" height="132.4"/>
		<rect x="217.2" y="140.9" fill="#FFFFFF" width="2.3" height="132.4"/>
		<rect x="211.6" y="140.9" fill="#FFFFFF" width="2.3" height="132.4"/>
		<rect x="206" y="140.9" fill="#FFFFFF" width="2.3" height="132.4"/>
	</g>
</g>
<path fill="#F9C029" d="M150,275.6c-30.8,0-59.8-12-81.6-33.8c-45-45-45-118.1,0-163.1c21.8-21.8,50.7-33.8,81.6-33.8
	c30.8,0,59.8,12,81.6,33.8c45,45,45,118.1,0,163.1C209.8,263.6,180.8,275.6,150,275.6z M150,49.5c-29.6,0-57.4,11.5-78.3,32.4
	c-43.2,43.2-43.2,113.5,0,156.7c20.9,20.9,48.7,32.4,78.3,32.4s57.4-11.5,78.3-32.4c43.2-43.2,43.2-113.5,0-156.7
	C207.4,61,179.6,49.5,150,49.5z"/>
<g>
	<defs>
		<circle id="SVGID_3_" cx="150" cy="160.3" r="113.1"/>
	</defs>
	<clipPath id="SVGID_4_">
		<use xlink:href="#SVGID_3_"  overflow="visible"/>
	</clipPath>
	<g clip-path="url(#SVGID_4_)">
		<rect x="91.8" y="140.9" fill="#F9C029" width="2.3" height="132.4"/>
		<rect x="86.2" y="140.9" fill="#F9C029" width="2.3" height="132.4"/>
		<rect x="80.6" y="140.9" fill="#F9C029" width="2.3" height="132.4"/>
		<rect x="75" y="140.9" fill="#F9C029" width="2.3" height="132.4"/>
		<rect x="69.4" y="140.9" fill="#F9C029" width="2.3" height="132.4"/>
		<rect x="63.8" y="140.9" fill="#F9C029" width="2.3" height="132.4"/>
		<rect x="58.2" y="140.9" fill="#F9C029" width="2.3" height="132.4"/>
		<rect x="52.6" y="140.9" fill="#F9C029" width="2.3" height="132.4"/>
		<rect x="47" y="140.9" fill="#F9C029" width="2.3" height="132.4"/>
		<rect x="41.4" y="140.9" fill="#F9C029" width="2.3" height="132.4"/>
		<rect x="35.8" y="140.9" fill="#F9C029" width="2.3" height="132.4"/>
	</g>
	<g clip-path="url(#SVGID_4_)">
		<rect x="148.9" y="140.9" fill="#F9C029" width="2.3" height="132.4"/>
		<rect x="140.7" y="140.9" fill="#F9C029" width="2.3" height="132.4"/>
		<rect x="132.5" y="140.9" fill="#F9C029" width="2.3" height="132.4"/>
		<rect x="124.4" y="140.9" fill="#F9C029" width="2.3" height="132.4"/>
		<rect x="116.2" y="140.9" fill="#F9C029" width="2.3" height="132.4"/>
		<rect x="108.1" y="140.9" fill="#F9C029" width="2.3" height="132.4"/>
		<rect x="99.9" y="140.9" fill="#F9C029" width="2.3" height="132.4"/>
		<rect x="91.8" y="140.9" fill="#F9C029" width="2.3" height="132.4"/>
	</g>
	<g clip-path="url(#SVGID_4_)">
		<rect x="206" y="140.9" fill="#F9C029" width="2.3" height="132.4"/>
		<rect x="197.8" y="140.9" fill="#F9C029" width="2.3" height="132.4"/>
		<rect x="189.6" y="140.9" fill="#F9C029" width="2.3" height="132.4"/>
		<rect x="181.5" y="140.9" fill="#F9C029" width="2.3" height="132.4"/>
		<rect x="173.3" y="140.9" fill="#F9C029" width="2.3" height="132.4"/>
		<rect x="165.2" y="140.9" fill="#F9C029" width="2.3" height="132.4"/>
		<rect x="157" y="140.9" fill="#F9C029" width="2.3" height="132.4"/>
		<rect x="148.9" y="140.9" fill="#F9C029" width="2.3" height="132.4"/>
	</g>
	<g clip-path="url(#SVGID_4_)">
		<rect x="261.9" y="140.9" fill="#F9C029" width="2.3" height="132.4"/>
		<rect x="256.3" y="140.9" fill="#F9C029" width="2.3" height="132.4"/>
		<rect x="250.7" y="140.9" fill="#F9C029" width="2.3" height="132.4"/>
		<rect x="245.1" y="140.9" fill="#F9C029" width="2.3" height="132.4"/>
		<rect x="239.5" y="140.9" fill="#F9C029" width="2.3" height="132.4"/>
		<rect x="234" y="140.9" fill="#F9C029" width="2.3" height="132.4"/>
		<rect x="228.4" y="140.9" fill="#F9C029" width="2.3" height="132.4"/>
		<rect x="222.8" y="140.9" fill="#F9C029" width="2.3" height="132.4"/>
		<rect x="217.2" y="140.9" fill="#F9C029" width="2.3" height="132.4"/>
		<rect x="211.6" y="140.9" fill="#F9C029" width="2.3" height="132.4"/>
		<rect x="206" y="140.9" fill="#F9C029" width="2.3" height="132.4"/>
	</g>
</g>
<circle fill="#FDE8AF" cx="150" cy="140.9" r="113.1"/>
<path fill="#F9C029" d="M150,256.3c-30.8,0-59.8-12-81.6-33.8c-45-45-45-118.1,0-163.1c21.8-21.8,50.7-33.8,81.6-33.8
	s59.8,12,81.6,33.8c45,45,45,118.1,0,163.1C209.8,244.3,180.8,256.3,150,256.3z M150,30.2c-29.6,0-57.4,11.5-78.3,32.4
	c-43.2,43.2-43.2,113.5,0,156.7c20.9,20.9,48.7,32.4,78.3,32.4s57.4-11.5,78.3-32.4c43.2-43.2,43.2-113.5,0-156.7
	C207.4,41.7,179.6,30.2,150,30.2z"/>
<circle fill="#FFFFFF" cx="150" cy="140.9" r="91.1"/>
<path fill="#FDE8AF" d="M223,127.7c0,0-7.3-34.7-22.2-44.1s-75.3-7.4-87.9-4.3c-22.6,5.7-39.6,57.4-45.8,96.3
	c-1.7,10.7,29.7,57.3,83.4,57.4c32.3,0,69.5-23,82.8-55.7C233.5,177,223,127.7,223,127.7z M113.3,137.4c-2.5,0-4.6-2.1-4.6-4.6
	s2.1-4.6,4.6-4.6c2.5,0,4.6,2.1,4.6,4.6S115.8,137.4,113.3,137.4z M187.8,137.4c-2.5,0-4.6-2.1-4.6-4.6s2.1-4.6,4.6-4.6
	s4.6,2.1,4.6,4.6S190.3,137.4,187.8,137.4z"/>
<path fill="#F9C029" d="M150,233.1c-24.6,0-47.8-9.6-65.2-27c-35.9-35.9-35.9-94.4,0-130.4c17.4-17.4,40.6-27,65.2-27
	c24.6,0,47.8,9.6,65.2,27s27,40.6,27,65.2c0,24.6-9.6,47.8-27,65.2S174.6,233.1,150,233.1z M150,51c-24,0-46.6,9.4-63.6,26.3
	c-35.1,35.1-35.1,92.1,0,127.2c17,17,39.6,26.3,63.6,26.3c24,0,46.6-9.4,63.6-26.3c17-17,26.3-39.6,26.3-63.6s-9.4-46.6-26.3-63.6
	C196.6,60.4,174,51,150,51z"/>
<path fill="#FDE8AF" d="M203.4,84.9c2.9,3.2,10.4,7.2,18.7,39.5c9-2.8,15.6-11.2,15.6-21.1c0-12.2-9.9-22.1-22.1-22.1
	C211,81.3,206.9,82.6,203.4,84.9L203.4,84.9z"/>
<path fill="#FDE8AF" d="M80.1,124.4c-9-2.8-15.6-11.2-15.6-21.1c0-12.2,9.9-22.1,22.1-22.1c5.1,0,9.8,1.7,13.6,4.6"/>
<path fill="#FDE8AF" d="M84.1,114.4c-3.1-1-5.3-4-5.3-7.4c0-4.3,3.5-7.8,7.8-7.8c1.3,0,2.6,0.3,3.7,0.9"/>
<path fill="#F9C029" d="M96.3,127.7c-1.2,0-2.2-0.9-2.3-2.1c-0.1-1.3,0.8-2.4,2.1-2.5c8.9-0.8,23.9-4.1,26.2-9.2
	c0.5-1.1,1.9-1.7,3-1.2c1.1,0.5,1.7,1.9,1.2,3c-4.1,9.2-27.3,11.7-29.9,11.9C96.4,127.7,96.3,127.7,96.3,127.7z"/>
<path fill="#F9C029" d="M206.2,134.3c-1.1,0-2-0.7-2.2-1.8c-0.6-3-14.2-13.5-25.2-12.7c-1.2,0.1-2.3-0.8-2.4-2.1
	c-0.1-1.3,0.8-2.3,2.1-2.4c13-1,28.8,10.5,30,16.3c0.3,1.2-0.5,2.4-1.8,2.7C206.5,134.3,206.3,134.3,206.2,134.3z"/>
<path fill="#F9C029" d="M187.8,139.6c-3.8,0-6.9-3.1-6.9-6.9c0-3.8,3.1-6.9,6.9-6.9s6.9,3.1,6.9,6.9
	C194.7,136.6,191.6,139.6,187.8,139.6z M187.8,130.4c-1.3,0-2.3,1-2.3,2.3s1,2.3,2.3,2.3s2.3-1,2.3-2.3S189.1,130.4,187.8,130.4z"/>
<path fill="#F9C029" d="M113.3,139.6c-3.8,0-6.9-3.1-6.9-6.9c0-3.8,3.1-6.9,6.9-6.9c3.8,0,6.9,3.1,6.9,6.9
	C120.2,136.6,117.1,139.6,113.3,139.6z M113.3,130.4c-1.3,0-2.3,1-2.3,2.3s1,2.3,2.3,2.3c1.3,0,2.3-1,2.3-2.3
	S114.6,130.4,113.3,130.4z"/>
<path fill="#FDE8AF" d="M142.7,81.3c0,0-6.9-16.1-7.8-17.5c-0.9-1.4,12.9,4.6,16.8,11.5c3.7,6.6,7.1-2.9,8.5-2.9s0,6.1,0,6.1"/>
<g>
	<path fill="#FFFFFF" d="M165.6,147c2.1-2.4,3.3-5.4,3.3-8.8c0-7.4-6-13.4-13.4-13.4h-10.9c-7.4,0-13.4,6-13.4,13.4
		c0,3.6,1.4,6.8,3.7,9.2l0,0c-11.9,4.7-24.3,14.4-21.6,26.8c2.8,12.4,25.8,28.1,36.8,27.6c11,0.5,34.3-15.6,37.1-28
		C189.9,161.3,177.5,151.7,165.6,147z"/>
	<path fill="#F9C029" d="M149.6,202.9c-11.8,0-34.6-15.9-37.4-28.5c-2.8-12.6,8.7-22.3,20.8-27.5c-1.9-2.5-2.9-5.5-2.9-8.7
		c0-8,6.5-14.5,14.5-14.5h10.9c8,0,14.5,6.5,14.5,14.5c0,2.9-0.9,5.8-2.7,8.3c12.1,5.2,23.6,14.9,20.8,27.5
		c-2.8,12.8-25.8,28.9-37.7,28.9l0,0l-0.5,0L149.6,202.9z M135.2,148.5c-11.2,4.5-23.4,13.8-20.8,25.4c2.6,11.5,24.3,26.7,35.2,26.7
		l0.4,0l0.5,0c10.9,0,32.9-15.4,35.5-27.1c2.6-11.7-9.6-21-20.8-25.5c-0.3-0.1-0.6-0.4-0.7-0.8c-0.1-0.4,0-0.7,0.2-1
		c2-2.3,3.1-5.1,3.1-8c0-6.8-5.5-12.3-12.3-12.3h-10.9c-6.8,0-12.3,5.5-12.3,12.3c0,3.1,1.2,6.1,3.4,8.4c0.3,0.3,0.4,0.8,0.2,1.2
		C135.8,148.2,135.5,148.4,135.2,148.5z"/>
</g>
<ellipse fill="#FDE8AF" cx="150" cy="159.5" rx="17.8" ry="7.7"/>
<line fill="#FFFFFF" x1="150" y1="167.2" x2="150" y2="183.9"/>
<path fill="#F9C029" d="M170,159.5c0-5.7-8.6-10-20.1-10s-20.1,4.3-20.1,10c0,5.3,7.5,9.4,17.8,9.9v14.5c0,1.3,1,2.3,2.3,2.3
	c1.3,0,2.3-1,2.3-2.3v-14.5C162.5,168.9,170,164.8,170,159.5z M150,164.9c-9.3,0-15.5-3.3-15.5-5.4s6.2-5.4,15.5-5.4
	s15.5,3.3,15.5,5.4S159.3,164.9,150,164.9z"/>
<path fill="#F9C029" d="M233.6,168.7c-0.7-4-2.2-12.2-5.9-30c-1-4.5-1.9-8.8-3-12.9c9.1-3.7,15.1-12.5,15.1-22.5
	c0-13.4-10.9-24.4-24.3-24.4c-4.3,0-8.4,1.1-12.1,3.2c-5.8-3.6-22.6-7.3-40.4-8.6c-0.1-1.6-0.5-2.1-0.8-2.4c-0.5-0.7-1.3-1-2.1-1
	c-1.6,0-2.5,1.3-3.5,2.7c-0.5,0.7-1.7,2.4-2.1,2.6c0,0-0.4-0.2-0.9-1.2c-3.8-6.9-16-12.9-18.7-12.9c0,0,0,0,0,0
	c-0.9,0-1.7,0.5-2.2,1.3c-0.4,0.7-0.3,1.8,0.1,2.5c0.4,0.6,2,4.2,3.8,8.3c-15.8,1-28,4.2-36.3,9.7c-0.1,0-0.1,0.1-0.2,0.2
	c-4-2.8-8.7-4.2-13.7-4.2c-13.4,0-24.4,10.9-24.4,24.4c0,10.1,6.1,19,15.4,22.7c-3.4,10-6.4,20.4-8.9,30.1
	c-3.9,14.9-4.4,16.9-4.5,17c0,0,2.6,5.5,2.9,4.6c0.1-0.2,1.9-5.2,5.9-20.5c14.1-53.4,24.8-67,29.9-70.4c7.8-5.2,19.9-8.3,35.7-9.1
	c0.7,1.5,1.3,3,1.9,4.4c0.4,0.9,1.2,1.4,2.1,1.4c0.3,0,0.6-0.1,0.9-0.2c1.2-0.5,1.7-1.8,1.2-3c-1-2.4-3.5-8.2-5.5-12.5
	c3.7,2,8.5,5.2,10.4,8.6c1.2,2.2,2.8,3.4,4.5,3.5c1.4,0.1,2.7-0.6,3.7-1.5c0,1.1,0.7,2,1.8,2.3c1.2,0.3,2.4-0.5,2.7-1.7
	c0.1-0.3,0.1-0.6,0.2-0.9c22.2,1.6,37.2,6.2,39.1,8.3c0.4,0.4,0.8,0.9,1.3,1.4c0.2,0.2,0.5,0.5,0.7,0.7c0.1,0.1,0.2,0.2,0.3,0.3
	c0.1,0.1,0.3,0.3,0.4,0.5c0.2,0.2,0.4,0.4,0.6,0.6c0,0,0.1,0.1,0.1,0.1c1.8,2.1,4.2,5.4,6.8,11.3l5.1,13.8c0.1,0.3,0.2,0.7,0.3,1
	c0.4,1.3,0.8,2.7,1.2,4.2c0.2,0.6,0.3,1.3,0.5,1.9c1.4,5.3,2.8,11.1,4.2,17.4c3.7,17.7,5.2,25.9,5.9,29.8c0.7,4.1,1.6,7.3,2.6,9.1
	c0.4,0.7,3.8-4,3.2-5.1C234.3,172.4,234.3,172.4,233.6,168.7z M83.1,111.3c-1.2-1-2-2.6-2-4.3c0-3.1,2.5-5.5,5.5-5.5
	c0.2,0,0.5,0.1,0.7,0.1C85.9,104.6,84.5,107.8,83.1,111.3z M89.5,97.3c-0.9-0.3-1.9-0.4-2.9-0.4c-5.6,0-10.1,4.5-10.1,10.1
	c0,3.6,1.9,6.8,4.9,8.6c-0.8,2-1.5,4-2.2,6.1c-7.5-3-12.4-10.2-12.4-18.4c0-10.9,8.9-19.8,19.8-19.8c3.6,0,7.1,1,10.2,2.8
	C94.3,89.1,91.8,92.9,89.5,97.3z M215.6,83.5c10.9,0,19.8,8.9,19.8,19.8c0,7.9-4.6,14.9-11.7,18.1c-0.1-0.4-0.2-0.8-0.3-1.2
	c-0.1-0.5-0.3-1.1-0.5-1.6c-0.2-0.9-0.5-1.7-0.7-2.5c3.4-1.7,5.7-5.1,5.7-9c0-5.6-4.5-10.1-10.1-10.1c-0.9,0-1.7,0.1-2.6,0.3
	c-3.2-6.6-6-9.8-8-11.8C209.7,84.2,212.6,83.5,215.6,83.5z M217,101.5c3.2-0.4,6.2,2.2,6.2,5.5c0,1.9-1,3.6-2.5,4.6
	c-0.2-0.7-0.4-1.3-0.6-1.9c-0.1-0.2-0.1-0.4-0.2-0.6c-0.3-1-0.7-2-1-2.9c-0.2-0.5-0.3-0.9-0.5-1.3c-0.2-0.5-0.4-0.9-0.5-1.4
	c-0.2-0.5-0.4-1-0.6-1.5C217.2,101.8,217.1,101.7,217,101.5z"/>
</svg>
