<?xml version="1.0" encoding="utf-8"?>
<!-- Generator: Adobe Illustrator 18.1.1, SVG Export Plug-In . SVG Version: 6.00 Build 0)  -->
<!DOCTYPE svg PUBLIC "-//W3C//DTD SVG 1.1//EN" "http://www.w3.org/Graphics/SVG/1.1/DTD/svg11.dtd">
<svg version="1.1" id="Layer_1" xmlns="http://www.w3.org/2000/svg" xmlns:xlink="http://www.w3.org/1999/xlink" x="0px" y="0px"
	 viewBox="0 0 360 45" enable-background="new 0 0 360 45" xml:space="preserve">
<g opacity="0.5">
	<g>
		<g>
			<g>
				<g>
					<path fill="#474747" d="M140.6,2c-1.2,0-2.2,1-2.2,2.2c0,1.2,1,2.2,2.2,2.2c1.2,0,2.2-1,2.2-2.2C142.7,2.9,141.8,2,140.6,2
						L140.6,2L140.6,2z"/>
				</g>
			</g>
			<g>
				<g>
					<path fill="#474747" d="M154.8,2c-1.2,0-2.2,1-2.2,2.2c0,1.2,1,2.2,2.2,2.2c1.2,0,2.2-1,2.2-2.2C157,2.9,156,2,154.8,2L154.8,2
						L154.8,2z"/>
				</g>
			</g>
		</g>
		<g>
			<g>
				<path fill="#474747" d="M147.7,0c-1.2,0-2.2,1-2.2,2.2c0,1.2,1,2.2,2.2,2.2c1.2,0,2.2-1,2.2-2.2C149.9,1,148.9,0,147.7,0
					L147.7,0L147.7,0z"/>
			</g>
		</g>
	</g>
	<g>
		<path fill="#474747" d="M159.9,8c-0.1-0.1-0.3-0.1-0.4-0.1c-0.1,0-0.2,0-0.2,0c-1.5,0.6-3,1-4.3,1.3c-0.3,0.1-0.5,0.3-0.6,0.5
			c-1,2.7-3.5,5.3-6.2,8c-0.1,0.1-0.3,0.2-0.5,0.2c-0.2,0-0.4-0.1-0.5-0.2c-2.6-2.7-5.2-5.3-6.2-8c-0.1-0.2-0.3-0.5-0.6-0.5
			c-1.4-0.3-2.9-0.8-4.3-1.3c-0.1,0-0.2,0-0.2,0c-0.1,0-0.3,0-0.4,0.1c-0.2,0.1-0.3,0.4-0.3,0.6c0.2,2.3,1.1,4.5,2.7,6.8
			c1.5,2.2,3.5,4.2,5.4,6.1c3.5,3.6,6.8,7,7.1,10.9c0,0.4,0.3,0.6,0.7,0.6h4.1c0.2,0,0.4-0.1,0.5-0.2c0.1-0.1,0.2-0.3,0.2-0.5
			c-0.1-2.6-1.1-5.2-3-8c-0.4-0.6-0.8-1.1-1.3-1.7c-0.2-0.2-0.1-0.5,0-0.6c0.1-0.1,0.3-0.3,0.4-0.4c1.9-1.9,3.9-4,5.4-6.1
			c1.6-2.3,2.5-4.5,2.7-6.8C160.2,8.4,160.1,8.1,159.9,8z"/>
		<g>
			<path fill="#474747" d="M143.3,24.5c-0.1-0.1-0.2-0.2-0.5-0.2c-0.3,0-0.5,0.2-0.6,0.3c-1.7,2.6-2.6,5.1-2.8,7.6
				c0,0.2,0.1,0.4,0.2,0.5c0.1,0.1,0.3,0.2,0.5,0.2h4.1c0.4,0,0.7-0.3,0.7-0.6c0.1-1.2,0.5-2.4,1.1-3.7c0.2-0.4,0.1-0.9-0.1-1
				C145.3,26.8,144.5,25.8,143.3,24.5z"/>
		</g>
		<path fill="#474747" d="M147.7,10c1.3,0,2-0.1,2.3-0.1c0.3,0,0.6,0.3,0.6,0.6c0,0.1,0,0.2-0.1,0.3c-0.2,0.5-1,2.1-2.4,3.5
			c-0.2,0.2-0.3,0.2-0.5,0.2h0c-0.1,0-0.3,0-0.5-0.2c-1.5-1.4-2.2-3.1-2.4-3.5c0-0.1-0.1-0.1-0.1-0.3c0-0.4,0.3-0.6,0.6-0.6
			C145.6,10,146.4,10,147.7,10L147.7,10z"/>
	</g>
</g>
<g opacity="0.5">
	<path fill="#939393" d="M203.9,7.6l3.7,6.4c0.6-0.2,1.2-0.1,1.8,0.2l1.9-3.4l-3.2-5.6L203.9,7.6L203.9,7.6L203.9,7.6z"/>
	<path fill="#939393" d="M198.4,15.8h7.4c0.1-0.2,0.1-0.4,0.3-0.6c0.2-0.3,0.5-0.6,0.8-0.8l-1.9-3.4h-6.5L198.4,15.8L198.4,15.8
		L198.4,15.8z"/>
	<path fill="#939393" d="M210.6,17.8c-0.2,0.3-0.5,0.6-0.8,0.8l1.9,3.4h6.5v-4.8h-7.4C210.8,17.4,210.7,17.6,210.6,17.8z"/>
	<path fill="#939393" d="M210.2,14.6c0.4,0.4,0.7,1,0.8,1.6h3.9l3.2-5.6l-4.2-2.4L210.2,14.6z"/>
	<path fill="#939393" d="M202.7,24.8l3.7-6.4c-0.4-0.4-0.7-1-0.8-1.6h-3.9l-3.2,5.6L202.7,24.8L202.7,24.8L202.7,24.8z"/>
	<path fill="#939393" d="M212.7,25.4l-3.7-6.4c-0.6,0.2-1.2,0.1-1.8-0.2l-1.9,3.4l3.2,5.6L212.7,25.4L212.7,25.4L212.7,25.4z"/>
	<path fill="#797979" d="M208.3,3.3c7.3,0,13.2,5.9,13.2,13.2c0,7.3-5.9,13.2-13.2,13.2c-7.3,0-13.2-5.9-13.2-13.2
		C195.1,9.2,201,3.3,208.3,3.3 M208.3,0c-9.1,0-16.5,7.4-16.5,16.5c0,9.1,7.4,16.5,16.5,16.5c9.1,0,16.5-7.4,16.5-16.5
		C224.8,7.4,217.4,0,208.3,0L208.3,0z"/>
</g>
</svg>
