<?xml version="1.0" encoding="utf-8"?>
<!-- Generator: Adobe Illustrator 18.1.1, SVG Export Plug-In . SVG Version: 6.00 Build 0)  -->
<!DOCTYPE svg PUBLIC "-//W3C//DTD SVG 1.1//EN" "http://www.w3.org/Graphics/SVG/1.1/DTD/svg11.dtd">
<svg version="1.1" id="Layer_1" xmlns="http://www.w3.org/2000/svg" xmlns:xlink="http://www.w3.org/1999/xlink" x="0px" y="0px"
	 viewBox="60 -22.5 240 90" enable-background="new 60 -22.5 240 90" xml:space="preserve">
<g opacity="0.5">
	<g>
		<g>
			<g>
				<g>
					<path fill="#474747" d="M82.5-17c-3.3,0-6,2.7-6,6s2.7,6,6,6s6-2.7,6-6C88.3-14.6,85.8-17,82.5-17L82.5-17L82.5-17z"/>
				</g>
			</g>
			<g>
				<g>
					<path fill="#474747" d="M121.3-17c-3.3,0-6,2.7-6,6s2.7,6,6,6s6-2.7,6-6C127.3-14.6,124.5-17,121.3-17L121.3-17L121.3-17z"/>
				</g>
			</g>
		</g>
		<g>
			<g>
				<path fill="#474747" d="M101.9-22.5c-3.3,0-6,2.7-6,6s2.7,6,6,6s6-2.7,6-6S105.2-22.5,101.9-22.5L101.9-22.5L101.9-22.5z"/>
			</g>
		</g>
	</g>
	<g>
		<path fill="#474747" d="M135.2-0.7C134.9-1,134.4-1,134.1-1c-0.3,0-0.5,0-0.5,0c-4.1,1.6-8.2,2.7-11.7,3.5
			c-0.8,0.3-1.4,0.8-1.6,1.4c-2.7,7.4-9.5,14.5-16.9,21.8c-0.3,0.3-0.8,0.5-1.4,0.5c-0.5,0-1.1-0.3-1.4-0.5
			C93.5,18.4,86.4,11.3,83.6,4c-0.3-0.5-0.8-1.4-1.6-1.4C78.2,1.8,74.1,0.4,70.3-1c-0.3,0-0.5,0-0.5,0c-0.3,0-0.8,0-1.1,0.3
			c-0.5,0.3-0.8,1.1-0.8,1.6c0.5,6.3,3,12.3,7.4,18.5c4.1,6,9.5,11.5,14.7,16.6c9.5,9.8,18.5,19.1,19.4,29.7c0,1.1,0.8,1.6,1.9,1.6
			h11.2c0.5,0,1.1-0.3,1.4-0.5c0.3-0.3,0.5-0.8,0.5-1.4c-0.3-7.1-3-14.2-8.2-21.8c-1.1-1.6-2.2-3-3.5-4.6c-0.5-0.5-0.3-1.4,0-1.6
			c0.3-0.3,0.8-0.8,1.1-1.1c5.2-5.2,10.6-10.9,14.7-16.6c4.4-6.3,6.8-12.3,7.4-18.5C136,0.4,135.7-0.4,135.2-0.7z"/>
		<g>
			<path fill="#474747" d="M89.9,44.3c-0.3-0.3-0.5-0.5-1.4-0.5s-1.4,0.5-1.6,0.8c-4.6,7.1-7.1,13.9-7.6,20.7c0,0.5,0.3,1.1,0.5,1.4
				c0.3,0.3,0.8,0.5,1.4,0.5h11.2c1.1,0,1.9-0.8,1.9-1.6c0.3-3.3,1.4-6.5,3-10.1c0.5-1.1,0.3-2.5-0.3-2.7
				C95.4,50.6,93.2,47.9,89.9,44.3z"/>
		</g>
		<path fill="#474747" d="M101.9,4.8c3.5,0,5.5-0.3,6.3-0.3s1.6,0.8,1.6,1.6c0,0.3,0,0.5-0.3,0.8c-0.5,1.4-2.7,5.7-6.5,9.5
			c-0.5,0.5-0.8,0.5-1.4,0.5l0,0c-0.3,0-0.8,0-1.4-0.5c-4.1-3.8-6-8.5-6.5-9.5c0-0.3-0.3-0.3-0.3-0.8c0-1.1,0.8-1.6,1.6-1.6
			C96.2,4.8,98.4,4.8,101.9,4.8L101.9,4.8z"/>
	</g>
</g>
<g opacity="0.5">
	<path fill="#939393" d="M235.2-1.8l10.1,17.5c1.6-0.5,3.3-0.3,4.9,0.5l5.2-9.3l-8.7-15.3L235.2-1.8L235.2-1.8L235.2-1.8z"/>
	<path fill="#939393" d="M220.2,20.6h20.2c0.3-0.5,0.3-1.1,0.8-1.6c0.5-0.8,1.4-1.6,2.2-2.2l-5.2-9.3h-17.7L220.2,20.6L220.2,20.6
		L220.2,20.6z"/>
	<path fill="#939393" d="M253.5,26c-0.5,0.8-1.4,1.6-2.2,2.2l5.2,9.3h17.7V24.4H254C254,25,253.7,25.5,253.5,26z"/>
	<path fill="#939393" d="M252.4,17.3c1.1,1.1,1.9,2.7,2.2,4.4h10.6l8.7-15.3l-11.5-6.5L252.4,17.3z"/>
	<path fill="#939393" d="M231.9,45.1L242,27.7c-1.1-1.1-1.9-2.7-2.2-4.4h-10.6l-8.7,15.3L231.9,45.1L231.9,45.1L231.9,45.1z"/>
	<path fill="#939393" d="M259.2,46.8l-10.1-17.5c-1.6,0.5-3.3,0.3-4.9-0.5L239,38l8.7,15.3L259.2,46.8L259.2,46.8L259.2,46.8z"/>
	<path fill="#797979" d="M247.2-13.5c19.9,0,36,16.1,36,36s-16.1,36-36,36s-36-16.1-36-36S227.3-13.5,247.2-13.5 M247.2-22.5
		c-24.8,0-45,20.2-45,45s20.2,45,45,45s45-20.2,45-45S272-22.5,247.2-22.5L247.2-22.5z"/>
</g>
</svg>
