<?xml version="1.0" encoding="utf-8"?>
<!-- Generator: Adobe Illustrator 18.1.1, SVG Export Plug-In . SVG Version: 6.00 Build 0)  -->
<!DOCTYPE svg PUBLIC "-//W3C//DTD SVG 1.1//EN" "http://www.w3.org/Graphics/SVG/1.1/DTD/svg11.dtd">
<svg version="1.1" id="Layer_1" xmlns="http://www.w3.org/2000/svg" xmlns:xlink="http://www.w3.org/1999/xlink" x="0px" y="0px"
	 viewBox="0 0 360 45" enable-background="new 0 0 360 45" xml:space="preserve">
<g>
	<g opacity="0.5">
		<path fill="#696969" d="M114,33.4c-0.8,0-1.5-0.3-2-1l-7.6-9.5c-0.5-0.6-0.7-1.4-0.5-2.2l2.7-11.8c0.2-0.8,0.7-1.4,1.4-1.8l11-5.3
			c0.3-0.2,0.7-0.3,1.1-0.3c0.4,0,0.8,0.1,1.1,0.3l11,5.2c0.7,0.3,1.2,1,1.4,1.8l2.7,11.8c0.2,0.8,0,1.6-0.5,2.2l-7.6,9.5
			c-0.5,0.6-1.2,1-2,1L114,33.4z"/>
		<path fill="#FFFFFF" d="M131.1,20L131.1,20L131.1,20L131.1,20L131.1,20L131.1,20L131.1,20c-0.1,0-0.2,0-0.2,0c-0.2,0-0.3,0-0.4,0
			c-0.1,0-0.1,0-0.2,0l0,0c-0.5,0-0.8-0.1-1.2-0.2c-0.2-0.1-0.2-0.2-0.2-0.2l0,0l0,0l0,0l0,0l0,0l0,0l-0.3-0.1c0.1-1,0.1-2-0.2-3.1
			c-0.2-1-0.7-2-1.2-2.8l0.2-0.2l0,0l0,0l0,0l0,0l0,0l0,0l0,0c0-0.1,0-0.2,0.1-0.3c0.3-0.2,0.6-0.4,1-0.7l0,0c0.1,0,0.1-0.1,0.2-0.1
			c0.1-0.1,0.2-0.1,0.4-0.2c0,0,0.1,0,0.1-0.1l0,0l0,0l0,0c0.3-0.3,0.4-0.7,0.2-1c-0.1-0.2-0.3-0.2-0.5-0.2s-0.3,0.1-0.5,0.2l0,0
			l0,0l0,0l0,0l0,0l0,0l-0.1,0.1c-0.1,0.1-0.2,0.2-0.3,0.3c0,0-0.1,0.1-0.2,0.2l0,0c-0.3,0.3-0.6,0.6-0.9,0.8
			c-0.1,0-0.1,0.1-0.2,0.1h-0.1l0,0l0,0l0,0l0,0l0,0l0,0l-0.3,0.2c-0.3-0.3-0.6-0.6-0.9-0.8c-1.3-1-2.9-1.7-4.5-1.8V9.8l0,0l0,0l0,0
			l0,0l0,0l0,0c-0.1-0.1-0.2-0.1-0.2-0.3c0-0.3,0-0.7,0.1-1.2l0,0c0-0.1,0-0.2,0-0.2c0-0.1,0-0.3,0.1-0.4V7.6c0,0,0,0,0-0.1l0,0l0,0
			l0,0l0,0l0,0c0-0.4-0.3-0.7-0.7-0.7c-0.2,0-0.3,0.1-0.5,0.2s-0.2,0.3-0.2,0.5l0,0l0,0l0,0l0,0l0,0l0,0v0.1c0,0.2,0,0.3,0.1,0.4
			c0,0.1,0,0.1,0,0.2l0,0c0,0.4,0.1,0.8,0.1,1.2c0,0.2-0.1,0.2-0.2,0.3l0,0l0,0l0,0l0,0l0,0l0,0V10c-0.4,0-0.8,0.1-1.2,0.2
			c-1.7,0.4-3.2,1.2-4.3,2.4l-0.2-0.2l0,0l0,0l0,0l0,0l0,0l0,0l0,0h-0.1c-0.1,0-0.1,0-0.2-0.1c-0.3-0.2-0.6-0.5-0.9-0.8l0,0
			c0,0-0.1-0.1-0.2-0.2c-0.1-0.1-0.2-0.2-0.3-0.3c0,0-0.1,0-0.1-0.1l0,0l0,0l0,0c-0.1-0.1-0.3-0.2-0.5-0.2s-0.4,0.1-0.5,0.2
			c-0.2,0.3-0.2,0.7,0.2,1l0,0l0,0l0,0l0,0l0,0l0.1,0.1c0.1,0.1,0.2,0.2,0.4,0.2c0.1,0,0.1,0.1,0.2,0.1l0,0c0.4,0.2,0.7,0.4,1,0.7
			c0.1,0.1,0.1,0.2,0.1,0.3l0,0l0,0l0,0l0,0l0,0l0,0l0.2,0.2c0,0.1-0.1,0.1-0.1,0.2c-1.1,1.7-1.5,3.7-1.2,5.7l-0.3,0.1l0,0l0,0l0,0
			l0,0l0,0l0,0l0,0c0,0.1-0.1,0.2-0.2,0.2c-0.3,0.1-0.7,0.2-1.2,0.2l0,0c-0.1,0-0.2,0-0.2,0c-0.1,0-0.3,0-0.4,0h-0.1c0,0,0,0-0.1,0
			l0,0l0,0l0,0l0,0l0,0c-0.4,0.1-0.6,0.5-0.6,0.8c0.1,0.3,0.3,0.5,0.7,0.5c0.1,0,0.1,0,0.2,0l0,0l0,0l0,0l0,0l0,0l0,0h0.1
			c0.2,0,0.3-0.1,0.4-0.2c0.1,0,0.1-0.1,0.2-0.1l0,0c0.4-0.2,0.8-0.3,1.1-0.3l0,0c0.1,0,0.2,0.1,0.3,0.1l0,0l0,0l0,0l0,0l0,0l0,0
			h0.3c0.5,1.6,1.5,3,2.8,4.1c0.3,0.2,0.6,0.4,0.9,0.6l-0.1,0.3l0,0l0,0l0,0l0,0l0,0l0,0c0,0.1,0.1,0.2,0,0.3
			c-0.1,0.3-0.3,0.7-0.6,1l0,0c0,0.1-0.1,0.1-0.1,0.2c-0.1,0.1-0.2,0.2-0.2,0.3c0,0,0,0.1-0.1,0.1l0,0l0,0l0,0l0,0l0,0l0,0
			c-0.2,0.4,0,0.8,0.3,0.9c0.1,0,0.2,0.1,0.3,0.1c0.3,0,0.5-0.2,0.7-0.4l0,0l0,0l0,0l0,0l0,0l0,0c0,0,0-0.1,0.1-0.1
			c0.1-0.2,0.1-0.3,0.1-0.4s0-0.1,0.1-0.2l0,0c0.2-0.4,0.3-0.8,0.5-1.1c0.1-0.1,0.2-0.2,0.3-0.2l0,0l0,0l0,0l0,0l0,0l0,0l0.2-0.3
			c1,0.4,2,0.6,3,0.6c0.6,0,1.3-0.1,1.9-0.2c0.4-0.1,0.8-0.2,1.1-0.3l0.1,0.2l0,0l0,0l0,0l0,0l0,0l0,0l0,0c0.1,0,0.2,0.1,0.3,0.2
			c0.2,0.3,0.3,0.7,0.5,1.1l0,0c0,0.1,0,0.1,0.1,0.2c0,0.1,0.1,0.3,0.1,0.4c0,0,0,0.1,0.1,0.1l0,0l0,0l0,0l0,0l0,0l0,0
			c0.1,0.3,0.4,0.4,0.7,0.4c0.1,0,0.2,0,0.3-0.1c0.2-0.1,0.3-0.2,0.3-0.4s0-0.4,0-0.5l0,0l0,0l0,0l0,0l0,0l0,0c0,0,0-0.1-0.1-0.1
			c-0.1-0.1-0.2-0.2-0.2-0.3c0-0.1-0.1-0.1-0.1-0.2l0,0c-0.2-0.4-0.5-0.7-0.6-1c0-0.2,0-0.2,0-0.3l0,0l0,0l0,0l0,0l0,0l0,0l-0.1-0.3
			c1.2-0.7,2.1-1.6,2.9-2.8c0.4-0.6,0.7-1.3,0.9-2h0.3l0,0l0,0l0,0l0,0l0,0l0,0l0,0c0.1,0,0.2-0.1,0.3-0.1l0,0
			c0.3,0,0.7,0.2,1.1,0.3l0,0c0.1,0,0.1,0.1,0.2,0.1c0.1,0.1,0.2,0.1,0.4,0.2h0.1c0,0,0,0,0.1,0l0,0l0,0c0.1,0,0.1,0,0.2,0
			c0.3,0,0.6-0.2,0.7-0.5C131.8,20.4,131.5,20.1,131.1,20z M121.1,18.9l-1,0.5l-1-0.5l-0.2-1l0.7-0.8h1.1l0.7,0.8L121.1,18.9z
			 M126.7,16.6c0.2,0.7,0.2,1.5,0.2,2.2l-3.3-1l0,0c-0.3-0.1-0.5-0.4-0.4-0.7c0-0.1,0.1-0.2,0.1-0.2l2.6-2.4
			C126.3,15.2,126.6,15.9,126.7,16.6z M124.9,13.3l-2.8,2c-0.2,0.2-0.6,0.1-0.8-0.1c-0.1-0.1-0.1-0.2-0.1-0.2l-0.2-3.5
			C122.4,11.5,123.8,12.2,124.9,13.3z M118.6,11.5c0.2,0,0.5-0.1,0.7-0.1l-0.2,3.5l0,0c0,0.3-0.3,0.6-0.6,0.6c-0.1,0-0.2,0-0.3-0.1
			l-2.9-2.1C116.2,12.4,117.3,11.8,118.6,11.5z M114.3,14.6l2.6,2.3l0,0c0.2,0.2,0.3,0.6,0.1,0.8c-0.1,0.1-0.2,0.2-0.3,0.2l-3.4,1
			C113.2,17.3,113.5,15.8,114.3,14.6z M113.7,20.5l3.5-0.6c0.3,0,0.5,0.2,0.6,0.5c0,0.1,0,0.2,0,0.3l0,0l-1.3,3.2
			C115.2,23.1,114.2,21.9,113.7,20.5z M121.6,24.8c-0.5,0.1-1,0.2-1.5,0.2c-0.8,0-1.5-0.1-2.2-0.3l1.7-3.1c0.2-0.2,0.5-0.3,0.7-0.2
			c0.1,0.1,0.2,0.2,0.3,0.2l0,0l1.7,3C122.1,24.7,121.8,24.7,121.6,24.8z M125.9,21.8c-0.5,0.9-1.3,1.6-2.1,2.1l-1.4-3.3
			c-0.1-0.3,0-0.5,0.3-0.7c0.1,0,0.2-0.1,0.3-0.1l3.5,0.6C126.4,20.9,126.1,21.3,125.9,21.8z"/>
	</g>
	<g opacity="0.5">
		<path fill="#9D9D9D" d="M160.9,25.6c7.8-5,16.7-1.4,21.1,1C175.8,24.2,166.9,23.7,160.9,25.6z"/>
		
			<radialGradient id="SVGID_1_" cx="237.9248" cy="-22.5422" r="34.4159" gradientTransform="matrix(0.8265 0 0 -0.8265 -30.5798 -9.8854)" gradientUnits="userSpaceOnUse">
			<stop  offset="0" style="stop-color:#9D9D9D"/>
			<stop  offset="0.1112" style="stop-color:#888888"/>
			<stop  offset="0.2566" style="stop-color:#757575"/>
			<stop  offset="0.4243" style="stop-color:#676767"/>
			<stop  offset="0.632" style="stop-color:#5F5F5F"/>
			<stop  offset="1" style="stop-color:#5C5C5C"/>
		</radialGradient>
		<path fill="url(#SVGID_1_)" d="M174.6,2.7c3.8,0,7,2.2,8.4,5.4h-3c-1.3-1.6-3.3-2.6-5.5-2.6s-4.2,1-5.5,2.5
			c0.1-0.1,0.1-0.1,0.2-0.2c3.1-2.2,7.2,0.2,7.2,0.2s-3.9-1.1-6.5,0.7c-2.6,1.8-2.2,5.5-2.2,5.5s0,0,0-0.1v0.1
			c-0.6-0.5-1.4-0.8-2.2-0.8c-0.1-0.5-0.2-1.1-0.2-1.6C165.3,6.7,169.5,2.7,174.6,2.7L174.6,2.7z M162.8,23.5v-0.8
			c2.4-1.8,6.9-4.1,12.3-2.5c8.2,2.6,13.4,6.1,19.8,4.5c6.3-1.6,6.9-5,6.9-5s-1.1,4.9-7.4,6c-6.2,1.1-12-0.1-19.3-2.9
			C170.1,21,165.4,22.4,162.8,23.5L162.8,23.5z M162.8,21.9c0.5-0.3,0.9-0.6,1.3-0.8c-0.2-0.1-0.4-0.3-0.6-0.5
			c-0.3-0.3-0.6-0.7-0.8-1v1.7l0,0c0.1,0.1,0.2,0.1,0.3,0.2c-0.1,0-0.2-0.1-0.3-0.2v0.6H162.8z M162.8,14v-2.9
			c0.6-0.2,1.2-0.3,1.9-0.4c0,0.3-0.1,0.7-0.1,1c0,0.6,0,1.1,0.1,1.7C164,13.5,163.4,13.7,162.8,14z M162.8,11.1V14
			c-1.3,0.7-2.2,2.1-2.2,3.7s0.9,3,2.2,3.7v0.5c-0.5,0.4-1,0.7-1.4,1c-1.9-1.2-3.1-3.2-3.1-5.6C158.2,14.5,160.1,12,162.8,11.1
			L162.8,11.1z M162.8,19.6c-0.8-1.6-0.5-3.4-0.5-3.4s-1.4,3.2,0.5,5.1V19.6L162.8,19.6z M162.8,22.7c-1.3,0.9-2,1.7-2,1.7
			s0.7-0.4,2-0.9V22.7z"/>
		<path fill="#9D9D9D" d="M183.4,21.5c0,0,3.9,2,7.6,1.7s4.8-1.6,4.8-1.6s-1.4,2.5-4.9,2.6S183.4,21.6,183.4,21.5z"/>
		<rect x="180.4" y="8.8" fill="#9D9D9D" width="3.3" height="3.3"/>
		<rect x="193.5" y="17.9" fill="#676767" width="2.5" height="2.5"/>
		<rect x="184.4" y="5.8" fill="#9D9D9D" width="4.4" height="4.4"/>
		<rect x="197.1" y="13.4" fill="#676767" width="4.4" height="4.4"/>
		<rect x="189.2" y="10.5" fill="#9D9D9D" width="2.4" height="2.4"/>
		<rect x="190.8" y="15.3" fill="#9D9D9D" width="2.4" height="2.4"/>
		<rect x="185.7" y="15.6" fill="#676767" width="2.4" height="2.4"/>
		<rect x="194.2" y="10.6" fill="#676767" width="2.4" height="2.4"/>
	</g>
	<g opacity="0.5">
		<polygon fill="#B8B8B8" points="238.4,12.5 223.5,7.4 223.5,29.2 238.4,34.4 		"/>
		<polygon fill="#B8B8B8" points="241.4,12.5 256.2,7.4 256.2,29.2 241.4,34.4 		"/>
		<polygon fill="#B8B8B8" points="254.8,5.9 239.9,0.8 225,5.9 239.9,11 		"/>
	</g>
	<g>
		<g>
			<g>
				<polygon fill="#211D1E" points="168.8,30.7 170.3,30.7 170.3,29.2 173.3,29.2 173.3,30.7 174.8,30.7 174.8,21.7 176.3,21.7 
					176.3,20.2 179.3,20.2 179.3,21.7 180.7,21.7 180.7,26.2 186.7,26.2 186.7,27.7 189.7,27.7 189.7,29.2 191.2,29.2 191.2,36.7 
					189.7,36.7 189.7,39.7 188.2,39.7 188.2,44.2 185.2,44.2 185.2,42.7 183.7,42.7 183.7,44.2 176.3,44.2 176.3,41.2 174.8,41.2 
					174.8,39.7 173.3,39.7 173.3,38.2 171.8,38.2 171.8,35.2 170.3,35.2 170.3,33.7 168.8,33.7 				"/>
				<polygon fill="#FFFFFF" points="170.3,30.7 173.3,30.7 173.3,32.2 174.8,32.2 174.8,33.7 176.3,33.7 176.3,21.7 179.3,21.7 
					179.3,30.7 180.7,30.7 180.7,27.7 183.7,27.7 183.7,30.7 185.2,30.7 185.2,27.7 186.7,27.7 186.7,30.7 188.2,30.7 188.2,29.2 
					189.7,29.2 189.7,36.7 188.2,36.7 188.2,39.7 186.7,39.7 186.7,42.7 185.2,42.7 185.2,41.2 183.7,41.2 183.7,42.7 177.8,42.7 
					177.8,41.2 176.3,41.2 176.3,39.7 174.8,39.7 174.8,38.2 173.3,38.2 173.3,35.2 171.8,35.2 171.8,33.7 170.3,33.7 				"/>
				<rect x="179.3" y="33.7" fill="#211D1E" width="1.5" height="6"/>
				<rect x="182.2" y="33.7" fill="#211D1E" width="1.5" height="6"/>
				<rect x="185.2" y="33.7" fill="#211D1E" width="1.5" height="6"/>
			</g>
		</g>
	</g>
</g>
</svg>
