<svg xmlns="http://www.w3.org/2000/svg" viewBox="0 0 30 30" enable-background="new 0 0 30 30"><linearGradient id="a" gradientUnits="userSpaceOnUse" x1="15" y1="29" x2="15" y2="7"><stop offset="0" stop-color="#5E5E5E"/><stop offset="1" stop-color="#3F3F3F"/></linearGradient><path fill="url(#a)" d="M1 23c0 3.314 2.686 6 6 6h16c3.314 0 6-2.686 6-6v-16h-28v16z"/><linearGradient id="b" gradientUnits="userSpaceOnUse" x1="15" y1="7" x2="15" y2="1"><stop offset="0" stop-color="#5E4A80"/><stop offset="1" stop-color="#80578F"/></linearGradient><path fill="url(#b)" d="M23 1h-16c-3.314 0-6 2.686-6 6h28c0-3.314-2.686-6-6-6z"/><path fill="#F1F2F2" d="M5 11h3v5h-3v-5z"/><path opacity=".4" d="M23 27h-16c-3.314 0-6-2.686-6-6v2c0 3.314 2.686 6 6 6h16c3.314 0 6-2.686 6-6v-2c0 3.314-2.686 6-6 6z"/><path opacity=".2" d="M1 7h28v1h-28zM5 16h3v1h-3z"/></svg>