<svg xmlns="http://www.w3.org/2000/svg" viewBox="0 0 30 30" enable-background="new 0 0 30 30"><linearGradient id="a" gradientUnits="userSpaceOnUse" x1="15" y1="29" x2="15" y2="1"><stop offset="0" stop-color="#5E4A80"/><stop offset="1" stop-color="#80578F"/></linearGradient><path fill="url(#a)" d="M29 23c0 3.314-2.686 6-6 6h-16c-3.314 0-6-2.686-6-6v-16c0-3.314 2.686-6 6-6h16c3.314 0 6 2.686 6 6v16z"/><path opacity=".4" d="M23 27h-16c-3.314 0-6-2.686-6-6v2c0 3.314 2.686 6 6 6h16c3.314 0 6-2.686 6-6v-2c0 3.314-2.686 6-6 6z"/><path opacity=".4" fill-rule="evenodd" clip-rule="evenodd" d="M14.999 5.024c-5.655 0-10.24 4.585-10.24 10.241 0 4.524 2.934 8.363 7.004 9.717.512.094.699-.222.699-.494l-.014-1.742c-2.849.619-3.45-1.373-3.45-1.373-.466-1.183-1.137-1.498-1.137-1.498-.93-.635.07-.623.07-.623 1.028.074 1.569 1.057 1.569 1.057.914 1.565 2.397 1.113 2.98.851.093-.662.358-2.137.65-2.393-2.274-.258-4.665-.113-4.665-4.037 0-1.118.399-2.032 1.054-2.748-.023-.058.035-.893 0-1.024-.123-.456-.333-.59.1-1.686 0 0 .86-.275 2.816 1.05.817-.227 1.693-.341 2.564-.345.87.004 1.746.118 2.564.345 1.955-1.325 2.813-1.05 2.813-1.05.408 1.03.214 1.211.102 1.686-.042.175.028.954 0 1.024.656.716 1.053 1.63 1.053 2.748 0 3.934-2.394 3.776-4.676 4.029.368.316.695 1.965.695 2.921 0 1.369-.013 2.474-.013 2.809 0 .274.184.592.704.492 4.066-1.357 6.997-5.193 6.997-9.716.003-5.656-4.583-10.241-10.239-10.241z"/><path fill-rule="evenodd" clip-rule="evenodd" fill="#fff" enable-background="new" d="M14.999 4c-5.654 0-10.24 4.585-10.24 10.241 0 4.524 2.934 8.363 7.004 9.717.512.094.699-.222.699-.494l-.014-1.742c-2.849.619-3.45-1.373-3.45-1.373-.466-1.183-1.137-1.498-1.137-1.498-.93-.635.07-.623.07-.623 1.028.074 1.569 1.057 1.569 1.057.914 1.565 2.397 1.113 2.98.851.093-.662.358-1.113.65-1.369-2.274-.258-4.665-1.137-4.665-5.061 0-1.118.399-2.032 1.054-2.748-.105-.259-.457-1.3.1-2.71 0 0 .86-.275 2.816 1.05.817-.227 1.693-.341 2.564-.345.87.004 1.746.118 2.564.345 1.955-1.325 2.813-1.05 2.813-1.05.559 1.41.207 2.451.102 2.71.656.716 1.053 1.63 1.053 2.748 0 3.934-2.394 4.8-4.676 5.053.368.316.695.941.695 1.896 0 1.369-.013 2.474-.013 2.809 0 .274.184.592.704.492 4.066-1.357 6.997-5.193 6.997-9.716.003-5.655-4.583-10.24-10.239-10.24z"/><linearGradient id="b" gradientUnits="userSpaceOnUse" x1="9.536" y1="11.677" x2="9.536" y2="11.677"><stop offset="0" stop-color="#5E4A80"/><stop offset="1" stop-color="#80578F"/></linearGradient><path fill="url(#b)" d="M9.536 11.677"/></svg>