<?xml version="1.0" encoding="utf-8"?>
<!-- Generator: Adobe Illustrator 17.0.0, SVG Export Plug-In . SVG Version: 6.00 Build 0)  -->
<!DOCTYPE svg PUBLIC "-//W3C//DTD SVG 1.1//EN" "http://www.w3.org/Graphics/SVG/1.1/DTD/svg11.dtd">
<svg version="1.1" xmlns="http://www.w3.org/2000/svg" xmlns:xlink="http://www.w3.org/1999/xlink" x="0px" y="0px" width="100px"
	 height="101.669px" viewBox="0 0 100 101.669" enable-background="new 0 0 100 101.669" xml:space="preserve">
<g id="Layer_1">
	<path fill="#613A82" d="M85.294,6.324c-4.412-2.654-9.823-3.728-15.288-2.628c-11.577,2.33-19.099,13.511-16.794,24.969
		c0.251,1.247,0.598,2.424,1.046,3.556c-5.444-7.853-12.454-14.622-19.066-15.207c-17.49-1.531-2.844,20.748,0.45,25.517
		c-4.386-3.865-13.676-11.165-19.933-6.791c-6.365,4.44,6.5,15.623,9.662,19.08c-4.614-3.008-14.791-3.276-17.068,2.104
		c-4.024,9.513,13.893,13.394,28.78,13.095c0.3-0.016,0.6-0.016,0.914-0.043C28.27,80.659,16.098,86.984,0,84.565
		c17.756,19.333,42.59,21.979,70.138,9.448c20.836-9.496,27.812-35.942,21.04-56.783c3.592-4.68,5.209-10.801,3.962-17.007
		c-0.409-2.016-1.1-3.934-2.024-5.663L100,0L85.294,6.324z M76.737,22.375c-2.013,0.404-3.951-0.895-4.347-2.861
		c-0.398-1.979,0.89-3.913,2.901-4.318c2.013-0.405,3.954,0.879,4.353,2.857C80.039,20.02,78.75,21.969,76.737,22.375z"/>
</g>
<g id="Layer_2">
</g>
</svg>
