<?xml version="1.0" encoding="utf-8"?>
<!-- Generator: Adobe Illustrator 17.0.0, SVG Export Plug-In . SVG Version: 6.00 Build 0)  -->
<!DOCTYPE svg PUBLIC "-//W3C//DTD SVG 1.1//EN" "http://www.w3.org/Graphics/SVG/1.1/DTD/svg11.dtd">
<svg version="1.1" xmlns="http://www.w3.org/2000/svg" xmlns:xlink="http://www.w3.org/1999/xlink" x="0px" y="0px" width="120px"
	 height="112.523px" viewBox="0 0 120 112.523" enable-background="new 0 0 120 112.523" xml:space="preserve">
<g id="Layer_1">
	<g>
		<g>
			<path fill="#613A82" d="M119.974,74.98l-0.019-59.985c-0.005-8.284-6.718-14.988-14.995-14.987l-89.971,0.04
				C6.71,0.052-0.003,6.763-0.001,15.045L0.02,75.033c0.003,8.278,6.719,14.998,15,14.996l9.995-0.004l-9.989,14.993l7.501,7.496
				l29.975-22.442l0.002,7.431l14.997-0.006L67.5,90.005l0.091,0.001l29.912,22.477l7.497-7.504L94.992,89.993l10.002-0.003
				C113.267,89.986,119.978,83.258,119.974,74.98z M15.017,75.027l-0.022-59.989l89.972-0.037l0.018,59.987L15.017,75.027z
				 M67.5,37.518L52.494,52.502L37.516,37.498L22.523,37.49l29.96,30.011l22.51-22.476l14.989,15.002l0.029-37.482l-37.495-0.026
				L67.5,37.518z"/>
		</g>
	</g>
</g>
<g id="Layer_2">
</g>
</svg>
