<?xml version="1.0" encoding="utf-8"?>
<!-- Generator: Adobe Illustrator 17.0.0, SVG Export Plug-In . SVG Version: 6.00 Build 0)  -->
<!DOCTYPE svg PUBLIC "-//W3C//DTD SVG 1.1//EN" "http://www.w3.org/Graphics/SVG/1.1/DTD/svg11.dtd">
<svg version="1.1" xmlns="http://www.w3.org/2000/svg" xmlns:xlink="http://www.w3.org/1999/xlink" x="0px" y="0px" width="160px"
	 height="160px" viewBox="0 0 160 160" enable-background="new 0 0 160 160" xml:space="preserve">
<g id="Layer_1">
	<g>
		<g>
			<path fill="#613A82" d="M133.661,89.661l-0.004-0.013L110.5,40.755l-0.022-0.041c-0.393-0.812-0.978-1.486-1.685-1.994
				L86.026,93.164l-0.012,0.005c-0.731,1.576-2.522,2.487-4.267,2.097L25.294,80.208c0.068,0.256,0.176,0.521,0.29,0.763
				l0.008-0.003l0.012,0.025l23.167,48.889l0.018,0.033l-0.008,0.01c0.635,1.318,1.807,2.273,3.135,2.722
				c1.356,0.462,2.911,0.403,4.311-0.244l-0.006-0.015l0.02-0.009l0.01,0.023l74.557-35.352l0.064-0.029l-0.01-0.022l0.032-0.016
				L130.903,97c1.37-0.674,2.384-1.817,2.879-3.12l0.024-0.038c0.503-1.33,0.505-2.833-0.134-4.187L133.661,89.661z M100.541,39.431
				L28.501,73.578l52.141,14.046L100.541,39.431z M80,0C35.817,0,0,35.818,0,80c0,44.183,35.817,80,80,80c44.183,0,80-35.817,80-80
				C160,35.818,124.182,0,80,0z M140.655,96.153l-0.014,0.006c-1.158,3.043-3.476,5.695-6.685,7.231l-0.024,0.011l0.002,0.007
				l-0.036,0.017l-0.002-0.008L59.265,138.78l0.008,0.015l-0.006,0.008l-0.012-0.017c-3.249,1.532-6.819,1.657-9.924,0.612
				c-3.061-1.026-5.719-3.226-7.194-6.318l-0.004-0.008l-0.028,0.008l-0.018-0.034L18.92,84.155l-0.002-0.024l0.018-0.008
				c-1.144-2.427-1.398-5.054-0.931-7.54c-0.124-0.552,0.707-3.186,1.316-3.654c1.276-2.372,3.333-4.411,6-5.687V67.23l0.04-0.018
				l0.004,0.01l0.11-0.057l74.517-35.313l-0.008-0.018l0.02-0.01l0.002,0.022c2.386-1.134,4.936-1.491,7.35-1.181l0.024-0.003
				l0.26,0.042h0.03l0.072,0.004c0.725,0.123,1.478,0.285,2.181,0.537c3.069,1.021,5.735,3.221,7.202,6.308l0.014,0.015l0.014-0.007
				l0.016,0.031l23.157,48.902l0.018,0.014l-0.016,0.008c1.466,3.104,1.482,6.572,0.321,9.613l0.008,0.016L140.655,96.153z"/>
		</g>
	</g>
</g>
<g id="Layer_2">
</g>
</svg>
