<?xml version="1.0" encoding="utf-8"?>
<!-- Generator: Adobe Illustrator 18.1.1, SVG Export Plug-In . SVG Version: 6.00 Build 0)  -->
<!DOCTYPE svg PUBLIC "-//W3C//DTD SVG 1.1//EN" "http://www.w3.org/Graphics/SVG/1.1/DTD/svg11.dtd">
<svg version="1.1" id="Layer_1" xmlns="http://www.w3.org/2000/svg" xmlns:xlink="http://www.w3.org/1999/xlink" x="0px" y="0px"
	 viewBox="0 0 152 152" enable-background="new 0 0 152 152" xml:space="preserve">
<g>
	<path fill="#D41F06" d="M129.7,129.7C144.5,114.8,152,97,152,76s-7.5-38.8-22.3-53.7C114.8,7.5,97,0,76,0S37.2,7.5,22.3,22.3
		C7.5,37.2,0,55,0,76s7.5,38.8,22.3,53.7C37.2,144.6,55,152,76,152S114.8,144.6,129.7,129.7z"/>
	<path fill="#FFFFFF" d="M114.2,114.2l0.1,0.1l-0.1-0.5l5.2-67.6l-0.1,0.1c0.2-7.4-2.4-14.4-11.1-17.3c4.6,1.8,5.3,5.4,6.6,10.6
		l-24-3.7l23.6,19.3l-1.3,2.4l-29.6,2l9,35.6l0.1-0.1l0,0l0.9,0.8l15.9,16.5H68.9c0.9-0.4,1.7-0.9,2.6-1.4l0,0.1
		c7.7-4.2,13.8-9.1,19.4-14.5l1.6-1.5l-35-11.3v0l0,0l26.1-24.3L91,36l-0.2-0.1l-0.1,0l14.1-7.8l0,0l0,0L79.6,28l-0.3-0.2l-19.9,7.4
		C53.1,41,41,52.5,40.5,52.8c-0.4,0.2-6.7,12.1-10.6,19.4l-0.3,0.6l-0.7,1.4l0.1,0.3c-0.9,2.7-1.7,7.7-1.7,16.8
		c0,4.1,0.4,8,0.8,11.1c0.2,1.9,0.4,3.5,0.9,5c0.3,1.5,0.5,2.4,0.5,2.4l0.3-0.1c3.8,8.7,12.4,9.1,16.9,9.3l0,0l67.6-4.6l0,0l0.2,0
		L114.2,114.2L114.2,114.2z M34.1,89.2L34.1,89.2L34.1,89.2l-3.3,6.1c-0.9-5.4-1.5-12-1-18.3L34.1,89.2L34.1,89.2z M46.9,118.6
		l-0.1,0.1l-1.6-3.7c-4-9.9-10.1-24.9-11-25.7l0-0.1l23-5.2l0.2-0.2l0,0C57.4,83.9,46.9,118.6,46.9,118.6z M113.1,105.9l-4.2-31.1
		l7.1-14.5L113.1,105.9z"/>
</g>
</svg>
