<?xml version="1.0"?>
<svg xmlns="http://www.w3.org/2000/svg" viewBox="0 0 60 60" enable-background="new 0 0 60 60"><path d="M33.169 30.975l-3.169-7.206v7.206h3.169zm-3.179-21.975l-.01.014-20.451 7.802 3.146 26.646 17.304 9.537.01-.002 17.335-9.536 3.146-26.646-20.481-7.816zm7.33 31.413l-2.767-6.293h-4.553v15.731l-.009.114-.009.001-14.919-8.223-2.713-22.974 17.632-6.727.009-.012.009.003v3.208l11.187 25.17h-3.867zm-10.489-9.439l3.169-7.206v-8.525l-11.187 25.17h3.867l2.767-6.293h4.553v-3.146h-3.169z" fill-rule="evenodd" clip-rule="evenodd" fill="#888"/></svg>
