<?xml version="1.0"?>
<svg xmlns="http://www.w3.org/2000/svg" viewBox="0 0 60 60" enable-background="new 0 0 60 60"><path d="M14.32 14.89" stroke="#64FFFF" stroke-width="1.053" stroke-miterlimit="10" fill="none"/><path d="M42.237 42.807" fill="#888" stroke="#64FFFF" stroke-width="1.053" stroke-miterlimit="10"/><path d="M22.092 17.321h1.501v-2.143h-10.714v2.143h1.636c1.894 0 1.578.178 1.578 3.23v17.818c0 3.052.316 3.594-1.578 3.594h-1.636v2.143h10.714v-2.143h-1.501c-1.894 0-1.713-.543-1.713-3.594v-17.818c0-3.052-.181-3.23 1.713-3.23z" fill="#888"/><path d="M37.53 15c-7.31 0-13.235 6.716-13.235 15 0 8.284 5.926 15 13.235 15s13.235-6.716 13.235-15c0-8.284-5.925-15-13.235-15zm0 28.235c-4.386 0-7.941-5.926-7.941-13.235 0-7.31 3.555-13.235 7.941-13.235 4.386 0 7.941 5.926 7.941 13.235 0 7.31-3.555 13.235-7.941 13.235z" fill-rule="evenodd" clip-rule="evenodd" fill="#888"/></svg>
