<svg xmlns="http://www.w3.org/2000/svg" viewBox="0 0 60 60" enable-background="new 0 0 60 60"><g><path fill="#95A4C5" d="M51.209 51.209c5.827-5.877 8.791-12.93 8.791-21.209s-2.964-15.332-8.791-21.21c-5.877-5.826-12.93-8.79-21.209-8.79s-15.332 2.964-21.21 8.79c-5.826 5.878-8.79 12.931-8.79 21.21s2.964 15.332 8.79 21.209c5.878 5.878 12.931 8.791 21.21 8.791s15.332-2.913 21.209-8.791z"/><path fill="#fff" d="M37.079 25.678s-.545-5.085-5.591-5.226-7.637 3.814-7.637 9.464 2.864 10.17 7.773 10.17 5.455-5.65 5.455-5.65l9.409.565s.554 5.103-3.383 8.996c-3.938 3.893-8.77 4.529-12.145 4.502-3.375-.027-8.055.053-12.58-4.582s-5.293-9.137-5.293-13.56.858-10.282 6.239-14.726c3.657-3.019 7.364-4.132 11.071-4.132 15.478 0 16.517 14.275 16.517 14.275l-9.835-.096z"/></g></svg>