<svg xmlns="http://www.w3.org/2000/svg" viewBox="0 0 60 60" enable-background="new 0 0 60 60"><g><circle fill="#0482C4" cx="30" cy="30" r="30"/><path fill="#fff" d="M41.878 11.691c-1.412-2.152-3.837-2.089-6.581-.715-.408.204-.823.441-1.242.699-4.871 3.007-10.389 9.517-13.008 14.916.195.978.232 2.17.225 3.071l-.011.631-.032.713-.031-.58-.021-.287-.02-.16c-.093-.642-.452-2.039-.612-2.648-.461.691-.879 1.341-1.242 1.933.443 1.824.243 4.693.243 4.693s.001-.189-.052-.864c-.048-.597-.56-2.549-.683-3.006-.683.957-1.579 1.795-1.503 2.07.149.533.387 1.781.38 3.008-.016 2.117-.495 3.375-.495 3.375s-.415 1.314-.461 1.564c-.517 1.643-.936 3.186-1.224 4.778-.382 2.107-.344 4.06-.189 5.118l.894-.077c-.1-2.028.312-4.541 1.175-7.335 1.318-4.271 3.704-9.207 6.992-14.138 5.292-7.355 11.352-12.771 16.128-14.853-4.455 2.278-12.119 11.463-14.612 14.956-2.792 3.912-5.038 7.684-6.781 11.407 2.756-3.823 8.206-3.688 8.206-3.688s.803-2.027 3.923-4.782c-1.412-.053-3.737-.119-4.552-.007-1.201.164-1.534.24-1.534.24s4.069-1.193 7.328-1.353c5.867-5.396 12.838-13.426 9.392-18.679z"/></g></svg>