<?xml version="1.0"?>
<svg xmlns="http://www.w3.org/2000/svg" viewBox="0 0 60 60" enable-background="new 0 0 60 60"><path d="M21.422 43.107l2.067-9.863h2.944c2.567-.002 4.304-.06 5.372-.207 1.663-.233 3.028-.567 4.138-1.065 1.094-.494 2.101-1.213 3.01-2.128.962-.97 1.728-2.212 2.336-3.692.622-1.511.938-3.087.936-4.695.004-1.748-.401-3.352-1.25-4.704-.828-1.336-2.024-2.349-3.469-2.928-1.444-.58-3.224-.822-5.394-.826h-12.682l-6.532 31.132h8.307l.217-1.025zm3.802-22.887h4.004l.334-.002c1.873 0 3.213.139 3.649.244l.13.042c.428.162.652.346.844.615.154.229.286.583.288 1.219-.004.982-.264 1.807-.839 2.646-.573.811-1.298 1.379-2.342 1.775-.104.043-.234.085-.389.125-1.083.284-3.38.51-6.584.51h-.603l1.507-7.174zm19.584.052c.034.387.057.779.056 1.181 0 16.31-18.039 14.93-19.052 14.93-.056.056-2.511 10.832-2.511 10.832h-5.268l-.256 1.785h8.532l.216-1.025 2.067-9.864h2.72c2.566-.002 4.304-.06 5.373-.206 1.663-.233 3.027-.568 4.138-1.065 1.093-.493 2.1-1.212 3.01-2.127.963-.97 1.728-2.211 2.337-3.692.622-1.511.937-3.087.935-4.695 0-3.576-1.676-5.318-2.294-6.053z" fill-rule="evenodd" clip-rule="evenodd" fill="#888"/></svg>
