<?xml version="1.0"?>
<svg xmlns="http://www.w3.org/2000/svg" viewBox="0 0 60 60" enable-background="new 0 0 60 60"><path d="M45.555 14.535h-31.111c-2.455 0-4.445 1.966-4.445 4.393v13.178c0 9.704 7.959 17.57 17.778 17.57h4.445c9.819 0 17.778-7.866 17.778-17.57v-13.178c0-2.427-1.99-4.393-4.445-4.393zm-15.555 28.553c-7.364 0-13.334-5.901-13.334-13.178v-6.59h6.667v6.59c0 3.638 2.984 6.589 6.667 6.589 3.681 0 6.666-2.951 6.666-6.589h6.667c0 7.278-5.97 13.178-13.333 13.178zm13.222-15.375l-6.444-1.647 1.556-6.37 6.556 1.647-1.667 6.369z" fill="#888"/></svg>
