<svg xmlns="http://www.w3.org/2000/svg" viewBox="0 0 60 60" enable-background="new 0 0 60 60"><g><path fill="#ED1C24" d="M51.209 51.209c5.827-5.877 8.791-12.93 8.791-21.209s-2.964-15.332-8.791-21.21c-5.877-5.826-12.93-8.79-21.209-8.79s-15.332 2.964-21.21 8.79c-5.826 5.878-8.79 12.931-8.79 21.21s2.964 15.332 8.79 21.209c5.878 5.878 12.931 8.791 21.21 8.791s15.332-2.913 21.209-8.791z"/><path fill="#fff" d="M21.25 14.294c3.424 0 6.21 2.786 6.21 6.21s-2.786 6.21-6.21 6.21-6.21-2.786-6.21-6.21 2.785-6.21 6.21-6.21m0-1.294c-4.144 0-7.503 3.359-7.503 7.503s3.359 7.503 7.503 7.503 7.503-3.359 7.503-7.503-3.36-7.503-7.503-7.503zM46.292 20.503c0-2.063-.75-3.845-2.204-5.299-1.501-1.454-3.236-2.204-5.299-2.204s-3.846.75-5.3 2.204c-1.5 1.454-2.204 3.236-2.204 5.299s.703 3.846 2.204 5.299c1.454 1.454 3.236 2.204 5.3 2.204s3.798-.75 5.299-2.204c1.454-1.453 2.204-3.235 2.204-5.299zM28.753 39.497c0-2.016-.703-3.799-2.204-5.3-1.501-1.5-3.236-2.204-5.347-2.204-2.017 0-3.798.703-5.252 2.204-1.454 1.501-2.204 3.283-2.204 5.3 0 2.11.75 3.846 2.204 5.299 1.454 1.5 3.236 2.204 5.252 2.204 2.11 0 3.845-.704 5.347-2.204 1.5-1.454 2.204-3.189 2.204-5.299zM38.789 33.287c3.424 0 6.21 2.786 6.21 6.21s-2.786 6.21-6.21 6.21-6.21-2.786-6.21-6.21 2.786-6.21 6.21-6.21m0-1.294c-4.144 0-7.503 3.359-7.503 7.503s3.359 7.504 7.503 7.504 7.503-3.359 7.503-7.503-3.359-7.504-7.503-7.504z"/></g></svg>