<svg xmlns="http://www.w3.org/2000/svg" viewBox="0 0 60 60" enable-background="new 0 0 60 60"><g><circle fill="#00B0ED" cx="30" cy="30" r="30"/><path fill="#fff" d="M52 18.594c-1.472.653-3.053 1.094-4.713 1.292 1.694-1.016 2.996-2.624 3.608-4.54-1.586.94-3.342 1.623-5.211 1.991-1.497-1.595-3.63-2.592-5.99-2.592-4.532 0-8.207 3.674-8.207 8.206 0 .643.073 1.27.212 1.87-6.82-.342-12.867-3.609-16.915-8.574-.706 1.212-1.111 2.622-1.111 4.126 0 2.847 1.449 5.359 3.651 6.831-1.345-.043-2.611-.412-3.717-1.027l-.001.103c0 3.976 2.829 7.293 6.583 8.047-.689.188-1.414.288-2.162.288-.529 0-1.043-.051-1.544-.147 1.044 3.26 4.075 5.633 7.666 5.699-2.809 2.201-6.347 3.513-10.192 3.513-.662 0-1.316-.039-1.958-.115 3.632 2.328 7.945 3.687 12.58 3.687 15.095 0 23.349-12.505 23.349-23.349 0-.356-.008-.71-.024-1.062 1.604-1.155 2.996-2.601 4.096-4.247z"/></g><g><path fill="#ED1C24" d="M51.209 51.209c5.827-5.877 8.791-12.93 8.791-21.209s-2.964-15.332-8.791-21.21c-5.877-5.826-12.93-8.79-21.209-8.79s-15.332 2.964-21.21 8.79c-5.826 5.878-8.79 12.931-8.79 21.21s2.964 15.332 8.79 21.209c5.878 5.878 12.931 8.791 21.21 8.791s15.332-2.913 21.209-8.791z"/><path fill="#fff" d="M21.25 14.294c3.424 0 6.21 2.786 6.21 6.21s-2.786 6.21-6.21 6.21-6.21-2.786-6.21-6.21 2.785-6.21 6.21-6.21m0-1.294c-4.144 0-7.503 3.359-7.503 7.503s3.359 7.503 7.503 7.503 7.503-3.359 7.503-7.503-3.36-7.503-7.503-7.503zM46.292 20.503c0-2.063-.75-3.845-2.204-5.299-1.501-1.454-3.236-2.204-5.299-2.204s-3.846.75-5.3 2.204c-1.5 1.454-2.204 3.236-2.204 5.299s.703 3.846 2.204 5.299c1.454 1.454 3.236 2.204 5.3 2.204s3.798-.75 5.299-2.204c1.454-1.453 2.204-3.235 2.204-5.299zM28.753 39.497c0-2.016-.703-3.799-2.204-5.3-1.501-1.5-3.236-2.204-5.347-2.204-2.017 0-3.798.703-5.252 2.204-1.454 1.501-2.204 3.283-2.204 5.3 0 2.11.75 3.846 2.204 5.299 1.454 1.5 3.236 2.204 5.252 2.204 2.11 0 3.845-.704 5.347-2.204 1.5-1.454 2.204-3.189 2.204-5.299zM38.789 33.287c3.424 0 6.21 2.786 6.21 6.21s-2.786 6.21-6.21 6.21-6.21-2.786-6.21-6.21 2.786-6.21 6.21-6.21m0-1.294c-4.144 0-7.503 3.359-7.503 7.503s3.359 7.504 7.503 7.504 7.503-3.359 7.503-7.503-3.359-7.504-7.503-7.504z"/></g><g><circle fill="#5A3776" cx="30" cy="30" r="30"/><path fill="#fff" d="M42.75 17.361h-25.5c-2.408 0-4.25 1.842-4.25 4.25v15.583c0 2.408 1.842 4.25 4.25 4.25h8.5l4.25 5.195 4.25-5.194h8.5c2.408 0 4.25-1.842 4.25-4.25v-15.584c0-2.408-1.842-4.25-4.25-4.25z"/></g><g><circle fill="#0482C4" cx="30" cy="30" r="30"/><path fill="#fff" d="M41.878 11.691c-1.412-2.152-3.837-2.089-6.581-.715-.408.204-.823.441-1.242.699-4.871 3.007-10.389 9.517-13.008 14.916.195.978.232 2.17.225 3.071l-.011.631-.032.713-.031-.58-.021-.287-.02-.16c-.093-.642-.452-2.039-.612-2.648-.461.691-.879 1.341-1.242 1.933.443 1.824.243 4.693.243 4.693s.001-.189-.052-.864c-.048-.597-.56-2.549-.683-3.006-.683.957-1.579 1.795-1.503 2.07.149.533.387 1.781.38 3.008-.016 2.117-.495 3.375-.495 3.375s-.415 1.314-.461 1.564c-.517 1.643-.936 3.186-1.224 4.778-.382 2.107-.344 4.06-.189 5.118l.894-.077c-.1-2.028.312-4.541 1.175-7.335 1.318-4.271 3.704-9.207 6.992-14.138 5.292-7.355 11.352-12.771 16.128-14.853-4.455 2.278-12.119 11.463-14.612 14.956-2.792 3.912-5.038 7.684-6.781 11.407 2.756-3.823 8.206-3.688 8.206-3.688s.803-2.027 3.923-4.782c-1.412-.053-3.737-.119-4.552-.007-1.201.164-1.534.24-1.534.24s4.069-1.193 7.328-1.353c5.867-5.396 12.838-13.426 9.392-18.679z"/></g><g><path fill="#165B78" d="M51.209 51.209c5.827-5.877 8.791-12.93 8.791-21.209s-2.964-15.332-8.791-21.21c-5.877-5.826-12.93-8.79-21.209-8.79s-15.332 2.964-21.21 8.79c-5.826 5.878-8.79 12.931-8.79 21.21s2.964 15.332 8.79 21.209c5.878 5.878 12.931 8.791 21.21 8.791s15.332-2.913 21.209-8.791z"/><path stroke="#64FFFF" stroke-width="1.053" stroke-miterlimit="10" d="M14.32 14.89M42.237 42.807" fill="none"/><path fill="#fff" d="M22.092 17.321h1.501v-2.143h-10.713999999999999v2.143h1.636c1.894 0 1.578.178 1.578 3.23v17.819c0 3.052.316 3.594-1.578 3.594h-1.636v2.143h10.713999999999999v-2.143h-1.501c-1.894 0-1.713-.543-1.713-3.594v-17.818c-.001-3.052-.182-3.231 1.713-3.231z"/><path fill="#fff" d="M37.53 15c-7.31 0-13.235 6.716-13.235 15 0 8.284 5.926 15 13.235 15s13.235-6.716 13.235-15c0-8.284-5.925-15-13.235-15zm0 28.235c-4.386 0-7.941-5.926-7.941-13.235 0-7.31 3.555-13.235 7.941-13.235 4.386 0 7.941 5.926 7.941 13.235 0 7.31-3.555 13.235-7.941 13.235z"/></g><g><path fill="#D41F06" d="M51.209 51.209c5.827-5.877 8.791-12.93 8.791-21.209s-2.964-15.332-8.791-21.21c-5.877-5.826-12.93-8.79-21.209-8.79s-15.332 2.964-21.21 8.79c-5.826 5.878-8.79 12.931-8.79 21.21s2.964 15.332 8.79 21.209c5.878 5.878 12.931 8.791 21.21 8.791s15.332-2.913 21.209-8.791z"/><path fill="#fff" d="M45.084 45.083l.04.035-.028-.191 2.039-26.7-.024.044c.083-2.902-.935-5.686-4.369-6.822 1.818.712 2.103 2.115 2.59 4.179l-9.459-1.46 9.317 7.62-.508.931-11.68.781 3.551 14.066.038-.041-.009.012.357.317 6.291 6.524h-16.027c.344-.173.682-.358 1.018-.545l.013.025c3.022-1.639 5.44-3.609 7.643-5.723l.627-.576-13.833-4.444v.002l-.004-.001 10.317-9.588 2.933-9.318-.062-.044-.058-.009 5.568-3.068.005.001.002-.001-9.939-.045-.135-.095-7.853 2.939c-2.474 2.301-7.275 6.855-7.448 6.94-.156.08-2.658 4.788-4.188 7.67l-.135.255-.284.535.038.106c-.336 1.066-.668 3.026-.668 6.627 0 1.63.152 3.158.33 4.394.061.737.177 1.392.342 1.97.124.6.215.95.215.95l.099-.055c1.482 3.451 4.911 3.605 6.664 3.655l-.016.014 26.687-1.811.001-.013.074-.005-.073.001.001-.038zm-31.606-9.86l-.01-.008-.002.03-1.299 2.376c-.35-2.14-.594-4.726-.385-7.22l1.698 4.817-.002.005zm5.053 11.605l-.045.039-.633-1.478c-1.576-3.916-3.971-9.819-4.342-10.141l-.009-.022 9.088-2.039.077-.072.003.006-4.139 13.707zm26.105-5.022l-1.647-12.296 2.813-5.706-1.166 18.002z"/></g><g><path fill="#1CABE2" d="M51.209 51.209c5.827-5.877 8.791-12.93 8.791-21.209s-2.964-15.332-8.791-21.21c-5.877-5.826-12.93-8.79-21.209-8.79s-15.332 2.964-21.21 8.79c-5.826 5.878-8.79 12.931-8.79 21.21s2.964 15.332 8.79 21.209c5.878 5.878 12.931 8.791 21.21 8.791s15.332-2.913 21.209-8.791z"/><path fill="#fff" d="M43.776 42.079l-4.665-9.331c4.282-.895 7.158-5.56 7.158-9.459s-1.342-9.458-9.587-10.289h-24.285l-.011 3.962 5.571.959v24.413l-5.56.703-.012 3.963h19.44v-3.898l-5.688-.831-.064-8.798 4.985-.021 6.967 13.548h11.695v-4.09l-5.944-.831zm-10.8-13.805h-6.902v-9.97h7.605c2.972 0 4.239 2.599 4.239 4.687 0 2.834-1.513 5.283-4.942 5.283z"/></g><g><circle fill="#D82A20" cx="30" cy="30" r="30"/><path fill="#fff" d="M11.769 26.45c2.102 1.005 13.773 5.719 15.617 6.601 1.844.882 3.141.894 5.476-.323 2.335-1.218 13.302-5.727 15.419-6.83 1.078-.562 1.554-.997 1.553-1.392l.001-3.953-.009-.003c.016-.402-.51-.756-1.571-1.144-2.063-.756-12.964-5.095-15.052-5.859-2.087-.765-2.938-.733-5.391.147s-14.06 5.434-16.125 6.242c-1.033.405-1.538.78-1.522 1.18v4.01c0 .399.553.822 1.604 1.324zm19.017.558l-6.417-2.661 9.193-1.411-2.776 4.072zm13.914-6.326l-5.437 2.146-.589.232-5.434-2.149 6.02-2.381 5.44 2.152zm-15.96-3.94l-.889-1.639 2.772 1.085 2.616-.856-.708 1.695 2.666.998-3.436.357-.77 1.852-1.244-2.066-3.969-.357 2.962-1.069zm-6.848 2.312c2.713 0 4.913.853 4.913 1.904 0 1.052-2.2 1.904-4.913 1.904-2.714 0-4.913-.853-4.913-1.904s2.199-1.904 4.913-1.904zm26.389 16.152c-2.117 1.103-13.084 5.613-15.419 6.83-2.335 1.217-3.632 1.206-5.476.324-1.845-.881-13.515-5.596-15.617-6.601-1.051-.502-1.587-.926-1.603-1.326v4.01c0 .4.552.824 1.603 1.326 2.102 1.005 13.773 5.719 15.617 6.601s3.141.894 5.476-.324c2.335-1.217 13.302-5.726 15.419-6.83 1.078-.562 1.554-.996 1.553-1.393l.001-3.953-.009-.003c-.016.381-.516.803-1.545 1.339zm0-6.539c-2.117 1.104-13.084 5.613-15.419 6.83-2.335 1.217-3.632 1.205-5.476.323-1.845-.881-13.515-5.596-15.617-6.601-1.051-.502-1.587-.926-1.603-1.326v4.01c0 .401.552.824 1.603 1.326 2.102 1.005 13.773 5.72 15.617 6.601 1.844.882 3.141.894 5.476-.323s13.302-5.727 15.419-6.83c1.078-.562 1.554-.997 1.553-1.393l.001-3.953-.009-.003c-.016.381-.516.803-1.545 1.339z"/></g><g><circle fill="#AA4042" cx="30" cy="30" r="30"/><g fill="#fff"><path d="M37.444 12c-.18.003-.306.025-.337.058-.063.066-.007.379.12.694.208.512.297.579.877.631l.833.082c.102.015.23-.043.284-.13.054-.087.017-.39-.077-.674-.161-.486-.223-.525-1.046-.622-.24-.028-.474-.042-.654-.039zM31.094 13.186c-.342 0-1.443.615-1.537.858-.106.274.958 1.619 1.281 1.619.124 0 .503-.185.843-.41.34-.224.621-.487.621-.588.002-.284-.976-1.479-1.208-1.479zM45.649 14.27c-.374 0-.046.592.53.954.695.437 1.046.532 1.046.289-.001-.165-1.367-1.243-1.576-1.243zM38.658 14.323c-.527.013-1.043.092-1.908.246-1.814.323-4.031 1.025-4.784 1.518-2.855 1.866-5.327 4.623-7.574 8.451-3.204 5.457-4.966 11.831-5.545 20.028l-.101 1.412.063.024h8.007c4.441 0 8.107-.033 8.147-.072.04-.04-.223-.964-.588-2.052-1.182-3.527-1.939-7.646-1.946-10.57-.01-3.843 1.181-8.104 3.045-10.893 1.002-1.499 2.555-3.036 3.074-3.04.199-.001.67-.211 1.05-.467.38-.257 1.18-.616 1.773-.795 1.837-.556 4.315-.239 6.605.838.809.381 1.017.429 1.127.255.281-.441.115-.769-.771-1.503-2.341-1.94-4.874-2.962-8.128-3.286-.551-.055-.951-.088-1.32-.092l-.226-.002zM24.06 18.707c-.347.064-1.504 1.56-1.306 1.739.424.383 1.847 1.228 1.956 1.161.07-.043.335-.384.593-.756.258-.373.467-.742.467-.819 0-.119-1.028-.936-1.653-1.315l-.057-.01zM45.601 18.967c-.123 0-.23.023-.284.077-.085.085-.111.271-.058.41.127.329 1.267.269 1.267-.067 0-.21-.555-.42-.925-.42zM40.98 19.121l-.241.038c-.563.134-.978.348-.978.506 0 .069.142.251.313.405.171.154.308.377.308.491 0 .253.122.259.756.038.558-.194.572-.258.26-1.002-.15-.361-.225-.479-.418-.476zM37.011 22.161c-.192 0-.67.515-.67.723 0 .267.778 1.445.954 1.445.072 0 .242-.174.381-.385.24-.365.232-.42-.159-1.084-.227-.385-.453-.699-.506-.699zM18.722 27.268c-.209 0-.877 1.605-.877 2.105 0 .187 1.709.95 2.192.978.175.01.354-.293.593-1.017.277-.841.299-1.066.135-1.214-.258-.232-1.742-.852-2.043-.852zM34.433 27.331l-.116.096c-.081.127-.148.31-.149.41-.001.099-.041.288-.091.419-.059.154.146.458.583.862.756.699.834.728.968.381.236-.613.083-1.095-.535-1.696-.324-.315-.497-.455-.612-.472h-.048zM33.614 33.334c-.175-.007-.223.129-.222.4.004.867.159 1.084 1.06 1.484 1.183.525 1.281.518 1.176-.091-.143-.824-.169-.86-1.026-1.349-.51-.292-.812-.437-.988-.444zM15.629 37.795c-.261 0-.983 2.336-.838 2.712.078.203.658.3 2.134.356l.713.024.284-1.243c.171-.747.23-1.288.145-1.363-.14-.121-1.964-.486-2.438-.486zM34.756 40.936l-.087.019c-.051.051.027.473.173.935.225.71.331.847.689.901.594.09 2.211.126 2.211.048 0-.323-.66-1.474-.882-1.537-.658-.187-1.779-.377-2.104-.366z"/></g></g><g><circle fill="#3882BE" cx="30" cy="30" r="30"/><path fill="#fff" d="M34.071 27.201c2.249 0 4.071-1.823 4.071-4.071v-6.701s-.014-2.729-1.357-4.071c-1.37-1.372-5.428-1.358-5.428-1.358h-6.786s-2.727.698-4.071 2.714c-1.37 2.055-1.357 5.428-1.357 5.428h10.178c.375 0 .679.304.679.679s-.304.679-.679.679h-11.535s-6.786-.085-6.786 9.5l5.429 9.5v-5.513c0-3.748 3.038-6.786 6.786-6.786h10.856zm-10.56-10.179c-.913 0-1.654-.74-1.654-1.654s.74-1.654 1.654-1.654c.913 0 1.654.74 1.654 1.654s-.74 1.654-1.654 1.654zm20.06 3.478v5.429c0 3.748-3.038 6.786-6.786 6.786h-10.856c-2.249 0-4.071 1.823-4.071 4.071v6.786s.014 2.729 1.357 4.071c1.37 1.371 4.071 1.357 4.071 1.357h8.143s2.727-.698 4.071-2.714c1.37-2.055 1.357-5.429 1.357-5.429h-10.178c-.375 0-.679-.304-.679-.679s.304-.679.679-.679h11.536s6.786.085 6.786-9.5l-5.43-9.499zm-7.082 22.478c.914 0 1.654.741 1.654 1.654 0 .914-.741 1.654-1.654 1.654-.914 0-1.654-.741-1.654-1.654 0-.914.74-1.654 1.654-1.654z"/></g><g><circle fill="#00457C" cx="30" cy="30" r="30"/><path fill="#fff" d="M21.421 43.107l2.067-9.863h2.944c2.567-.001 4.304-.06 5.372-.207 1.663-.233 3.028-.567 4.138-1.065 1.094-.494 2.101-1.213 3.011-2.128.962-.97 1.728-2.212 2.336-3.692.622-1.511.938-3.087.936-4.695.004-1.748-.401-3.352-1.25-4.704-.827-1.336-2.024-2.349-3.469-2.928-1.444-.58-3.224-.822-5.394-.826h-12.682l-6.532 31.132h8.307l.216-1.024zm3.803-22.887h4.004l.334-.002c1.874 0 3.213.139 3.649.244l.13.042c.428.162.652.346.844.615.154.229.286.583.289 1.219-.004.982-.264 1.807-.839 2.646-.573.811-1.299 1.379-2.342 1.775l-.389.125c-1.083.284-3.38.51-6.584.51h-.603l1.507-7.174zm19.583.052c.034.387.057.779.056 1.181 0 16.31-18.039 14.93-19.052 14.93-.056.056-2.511 10.832-2.511 10.832h-5.268l-.256 1.785h8.532l.216-1.025 2.067-9.863h2.72c2.566-.002 4.304-.06 5.373-.206 1.663-.233 3.027-.568 4.138-1.065 1.093-.493 2.1-1.212 3.009-2.127.963-.97 1.728-2.211 2.337-3.692.622-1.511.937-3.087.935-4.695-.001-3.578-1.677-5.32-2.296-6.055z"/></g></svg>