<?xml version="1.0"?>
<svg xmlns="http://www.w3.org/2000/svg" viewBox="0 0 60 60" enable-background="new 0 0 60 60"><g fill="#888"><path d="M30 21.1c-.6 1.9 0 3.9 1.8 6 .6.6.8 1.3.8 2-.1 1.3-1.3 2.3-1.3 2.3l.3.5c.1-.1 3.1-1.6 3.7-4 .2-1 0-1.9-.6-2.8l-.3-.4c-1-1.3-1.7-2.4-1.5-3.6.3-1.6 2.6-3.5 7.3-6.3l-.2-.5c-.3.1-8.5 2.2-10 6.8zM29.9 30.3l.4-.3c-.4-.9-1-1.7-1.6-2.6-2-2.9-3.9-5.6 1.5-9.9 3.6-2.9 5.6-5.7 5.7-8.4.1-2.4-1.2-3.8-1.3-3.9l-.2.2-.3.1c1.2 4.8-2 7.3-5.3 9.9-1.6 1.3-3.3 2.6-4.4 4.2-2.1 3.4 1.4 7 5.5 10.7zM25.9 34.4c4 0 8.5-.4 11.7-1.2h.1c.8-.6 2-1.1 2-1.1l-.2-.5s-3.4.6-6.8.9c-4.3.4-8.6.4-10.8.1-1.3-.2-1.5-.4-1.5-.4.1-.4 2.1-1.1 4.5-1.7l-.1-.3v-.3c-.1 0-3.3-.2-7.2 1.7-.8.4-1.1.8-.9 1.2.5 1.1 4.5 1.6 9.2 1.6zM39.7 31.2l.8-.3s.3-.1.9-.2c1.2-.2 2.5.5 2.9 1.6.6 1.8-1.2 4-4.9 5.9l-.1.1v.1l-.1.1.3.5c5.6-1.5 6.9-3.9 7.3-5.1.3-1.2-.1-2.4-1-3.2-1.2-1.1-3-1.3-4.7-.7-.6.2-.9.6-.9.7l-.5.5zM24.2 40.4l-.2-.5c-1.4.4-2.2.9-2.3 1.5-.1.3 0 .7.5 1.2 1 .8 3.7 1.6 7 1.6 2.5 0 5.4-.4 8.1-1.6l.6-.3-.6-.2c-1.4-.5-2.4-1.2-2.4-1.2l-.1-.1h-.1c-3.8.7-5.6.8-9.2.4-1.4-.2-1.5-.4-1.5-.4-.1-.1 0-.2.2-.4zM46.3 46s-.8 1.4-6.5 2.4c-7.2 1.3-15.6 1.1-20.4.3l-1-.2.8.7c.1.1 1.3.9 6.5 1.3 1.4.1 3 .1 4.6.1 7.5 0 16.2-1.1 16.5-4.5l-.5-.1zM44.9 45c.1-.4 0-.9-1-1.4l-.1.2-.2.2s.2.2.2.4-.2.5-1.5.9c-4.9 1.5-20.9 2.1-25.4.1-.3-.1-.3-.2-.3-.2 0-.3 1.4-.9 2.6-1.1.9-.2 1.5-.2 1.5-.2l1 .1-.8-.6c-1.2-.9-5 .2-6.7 1.3-.8.5-1.1 1-1 1.5.1.6.9 1 2.5 1.3 4.3.7 8.5 1 12.2 1 9.5 0 16.5-1.9 17-3.5zM38.8 37.6l-.8-.3c-1.1-.4-1.7-1.1-1.7-1.1l-.1-.1h-.1c-5.1 1-8.2 1-11.9.6-.9-.1-1.3-.3-1.4-.5-.1-.2.3-.6.5-.7l-.4-.5c-2 .7-2.8 1.4-2.6 2.2.4 1.4 3.6 2 7.3 2 3.5 0 7.5-.5 10.3-1.3l.9-.3z"/></g></svg>
