<svg xmlns="http://www.w3.org/2000/svg" viewBox="0 0 60 60" enable-background="new 0 0 60 60"><path fill="#181616" d="M51.209 51.21c5.827-5.878 8.791-12.931 8.791-21.21s-2.964-15.332-8.791-21.21c-5.877-5.826-12.93-8.79-21.209-8.79s-15.332 2.964-21.21 8.79c-5.826 5.878-8.79 12.931-8.79 21.21s2.964 15.332 8.79 21.21c5.878 5.877 12.931 8.79 21.21 8.79s15.332-2.913 21.209-8.79z"/><path fill="#fff" d="M36.689 49.654c0-.849.032-3.643.032-7.105 0-2.416-.828-3.997-1.758-4.796 5.77-.641 11.826-2.831 11.826-12.781 0-2.827-1.002-5.14-2.662-6.95.266-.655 1.155-3.289-.258-6.854 0 0-2.171-.696-7.115 2.655-2.069-.574-4.285-.862-6.484-.872-2.203.01-4.418.297-6.484.872-4.948-3.352-7.122-2.655-7.122-2.655-1.409 3.566-.52 6.199-.254 6.854-1.657 1.811-2.666 4.123-2.666 6.95 0 9.925 6.046 12.147 11.798 12.801-.74.647-1.409 1.789-1.644 3.463-1.476.663-5.227 1.806-7.538-2.152 0 0-1.368-2.486-3.967-2.669 0 0-2.53-.033-.178 1.574 0 0 1.698.797 2.876 3.789 0 0 1.52 5.037 8.725 3.472.012 2.161.035 3.79.035 4.405 0 .683-.469 1.475-1.748 1.25 2.568.853 5.312 1.322 8.167 1.322 2.856 0 5.602-.469 8.171-1.323-1.291.231-1.752-.563-1.752-1.25z"/></svg>