<svg xmlns="http://www.w3.org/2000/svg" viewBox="0 0 60 60" enable-background="new 0 0 60 60"><g><path fill="#FEA620" d="M51.209 51.209c5.827-5.877 8.791-12.93 8.791-21.209s-2.964-15.332-8.791-21.21c-5.877-5.826-12.93-8.79-21.209-8.79s-15.332 2.964-21.21 8.79c-5.826 5.878-8.79 12.931-8.79 21.21s2.964 15.332 8.79 21.209c5.878 5.878 12.931 8.791 21.21 8.791s15.332-2.913 21.209-8.791z"/><path fill="#fff" d="M45.555 14.535h-31.11c-2.455 0-4.445 1.967-4.445 4.393v13.178c0 9.704 7.959 17.57 17.778 17.57h4.445c9.818 0 17.777-7.866 17.777-17.57v-13.178c0-2.427-1.99-4.393-4.445-4.393zm-15.555 28.553c-7.364 0-13.334-5.901-13.334-13.178v-6.59h6.667v6.59c0 3.638 2.984 6.589 6.667 6.589 3.681 0 6.666-2.951 6.666-6.589h6.667c0 7.277-5.969 13.178-13.333 13.178zm13.222-15.376l-6.444-1.646 1.556-6.37 6.556 1.647-1.668 6.369z"/></g></svg>