<svg xmlns="http://www.w3.org/2000/svg" viewBox="0 0 60 60" enable-background="new 0 0 60 60"><g><circle fill="#00B0ED" cx="30" cy="30" r="30"/><path fill="#fff" d="M52 18.594c-1.472.653-3.053 1.094-4.713 1.292 1.694-1.016 2.996-2.624 3.608-4.54-1.586.94-3.342 1.623-5.211 1.991-1.497-1.595-3.63-2.592-5.99-2.592-4.532 0-8.207 3.674-8.207 8.206 0 .643.073 1.27.212 1.87-6.82-.342-12.867-3.609-16.915-8.574-.706 1.212-1.111 2.622-1.111 4.126 0 2.847 1.449 5.359 3.651 6.831-1.345-.043-2.611-.412-3.717-1.027l-.001.103c0 3.976 2.829 7.293 6.583 8.047-.689.188-1.414.288-2.162.288-.529 0-1.043-.051-1.544-.147 1.044 3.26 4.075 5.633 7.666 5.699-2.809 2.201-6.347 3.513-10.192 3.513-.662 0-1.316-.039-1.958-.115 3.632 2.328 7.945 3.687 12.58 3.687 15.095 0 23.349-12.505 23.349-23.349 0-.356-.008-.71-.024-1.062 1.604-1.155 2.996-2.601 4.096-4.247z"/></g></svg>