<svg xmlns="http://www.w3.org/2000/svg" viewBox="0 0 60 60" enable-background="new 0 0 60 60"><g><circle fill="#186DEE" cx="30" cy="30" r="30"/><path fill="#fff" d="M36.366 31.215c-.383-.22-.677-.53-.922-.873s-.424-.718-.579-1.06c-.188-1.069.587-2.357 1.346-2.847 5.971-3.817 6.362-9.649 1.24-14.347h2.814l1.941-2.088h-12.12c-12.096-.09-14.535 18.662.253 18.271-.734 1.876-.612 3.613 1.15 5.106-21.313 2.096-14.568 16.117-5.179 16.395 3.254.236 2.259.179 4.315.228 6.599-.204 10.081-2.969 11.525-6.868 1.231-3.328.301-8.409-5.784-11.917zm-5.114-4.6l.008-.008c-2.064 0-3.719-1.117-4.976-3.352-1.052-1.851-1.574-3.842-1.574-5.971 0-1.321.261-2.422.783-3.295.873-1.533 2.21-2.3 4.029-2.3 1.99 0 3.63 1.134 4.918 3.401 1.117 1.958 1.672 4.029 1.672 6.232 0 1.68-.432 2.953-1.305 3.825-.969.979-2.16 1.468-3.555 1.468zm5.922 19.405c-1.403 1.085-3.328 1.631-5.783 1.631-2.773 0-5.008-.595-6.705-1.786-1.705-1.191-2.553-2.732-2.553-4.625 0-2.561 1.509-4.364 4.519-5.416 1.648-.563 3.491-.84 5.522-.84.522 0 .93.016 1.207.049 2.21 1.582 3.662 2.749 4.364 3.524.914 1.02 1.37 2.153 1.37 3.418 0 1.679-.644 3.025-1.941 4.045z"/></g></svg>