<?xml version="1.0"?>
<svg xmlns="http://www.w3.org/2000/svg" viewBox="0 0 60 60" enable-background="new 0 0 60 60"><path fill="#888" d="M46 43v-5.4c0-.7-.2-1.3-.4-1.8l-.1-.2c.3-.5.4-1.1.4-1.7v-2.3c0-1.3-.1-2.6 0-3.9 0-.6-.3-1.1-.5-1.6l-.1-.2c0-.1-.1-.2-.2-.3.4-.5.5-1.1.6-1.8v-6.9c0-1.4-.7-2.6-2-3.6-1.2-.9-2.8-1.5-4.7-2-1.8-.4-3.6-.6-5.5-.7l-1-.1c-2.1-.2-7 .1-8.2.2-2.6.3-4.7.7-6.8 1.6-1.2.5-2.9 1.5-3.4 3.6l-.1 3.3v3.1999999999999997c0 .5 0 1 .1 1.4.1.4.2.7.4 1 .1.2.2.3.3.6-.6 1-.6 2.3-.6 3.4v4.8999999999999995c0 .7.2 1.3.5 1.9-.4.7-.4 1.1-.4 2.3 0 1.2 0 2.4.1 3.5 0 .8 0 1.5.1 2.3 0 1.2.5 2.2 1.5 3.1 1.4 1.3 3.2 1.8 4.7 2.2 2.6.7 5.4 1 9.2 1h1.7c2.6 0 5.6-.2 8.6-1 1.3-.4 2.5-.9 3.6-1.6 1.6-1.3 2.3-2.6 2.2-4.4zm-20.9-29.5c1.8-.2 3.9-.3 5.9-.1-.7.2-.8.6-.8.9v.2c-.4.1-.8.1-1.3.2s-1 .4-1.4.7c-.5.4-.8 1.1-.8 1.8.1.7.5 1.3 1.1 1.6.9.5 2 .6 2.3.6 1.2.1 2.2.2 3.2.2 2.1 0 3.9-.2 5.9-.7.4-.1 1.1-.3 1.6-.6.4-.2 1.1-.5 1.1-1.3 0-.2 0-.3-.1-.4l.3.2c.2.2.4.5.4.9v6c0 .4-.1.5-.3.7l-.2.1c-.6.3-1.2.7-1.8.9-2.2.8-4.8 1.2-7.7 1.3h-6.3999999999999995v-.7c-1.7.1-3.5-.1-5-.4-2.2-.6-3.4-1.7-3.8-3.4-.3-1.3-.2-2.7 0-4.1l.5 1 .2-1.8c.1-.6 1.6-2.5 3-3.1.9-.4 2-.7 3-.9l-.4.4 1.5-.2zm17.3 20c0 .5-.2.8-.7 1.1-1.1.7-2.4 1-3.4 1.2-3.8.8-7.8 1-12.4.6-2.3-.2-4.4-.4-6.6-1.2-.5-.2-1-.5-1.5-.8-.3-.2-.4-.4-.4-.7v-5.8c0-.1 0-.2.1-.3.1.6.4 1.1 1.1 1.3 1.2.4 2.4.7 3.6.9 2.2.4 4.6.6 7.3.6 1 0 2.2 0 3.4-.1 2.5-.1 5.2-.3 7.8-1.2l.4-.1c.9-.4 1.2-.6 1.3-1.2v5.7zm-24.9 4.3c.1.6.3.9.9 1.2l.6.2c.8.3 1.7.6 2.5.7 2.5.5 5.2.7 8.2.7 1 0 2 0 3.2-.1 2.7-.1 5.1-.5 7.4-1.2l.4-.1c1.1-.4 1.5-.6 1.6-1.4 0 1.8 0 3.6.1 5.6 0 .7-.3 1-.6 1.1-.9.4-1.7.8-2.5 1-2.6.7-5.2.9-7.4 1h-2.2c-2.9 0-5.5-.2-7.9-.7-.9-.2-1.8-.5-2.7-.8l-.5-.2c-.3-.1-.6-.3-.8-.5-.3-.2-.4-.5-.4-.7v-3.9l.1-1.9z"/></svg>
