<svg xmlns="http://www.w3.org/2000/svg" viewBox="0 0 18 14">
	<path fill="#0CA6F2" d="M15.003,0H3C1.343,0,0,1.343,0,3v2h18V2.997C18,1.342,16.658,0,15.003,0z"/>
	<path fill="#F2AE24" d="M2.997,14H15c1.657,0,3-1.343,3-3V9H0l0,2.003C0,12.658,1.342,14,2.997,14z"/>
	<rect y="5" fill="#FFFFFF" width="18" height="4"/>
	<path opacity="0.2" d="M15.003,1C16.104,1,17,1.896,17,2.997v8.006C17,12.104,16.104,13,15.003,13H2.997C1.896,13,1,12.104,1,11.003V3c0-1.103,0.897-2,2-2H15.003 M15.003,0H3C1.343,0,0,1.343,0,3v8.003C0,12.658,1.342,14,2.997,14h12.006C16.658,14,18,12.658,18,11.003V2.997C18,1.342,16.658,0,15.003,0L15.003,0z"/>
</svg>
