<svg xmlns="http://www.w3.org/2000/svg" viewBox="0 0 18 14">
	<path fill="#1E7DAF" d="M15.003,14H2.997C1.342,14,0,12.658,0,11.003V3c0-1.657,1.343-3,3-3h12.003C16.658,0,18,1.342,18,2.997v8.006C18,12.658,16.658,14,15.003,14z"/>
	<circle fill="#F25058" cx="6.455" cy="7" r="4"/>
	<path fill="#F2AE24" d="M11.545,3C10.069,3,8.793,3.809,8.1,5H9v1H7.687C7.604,6.321,7.545,6.653,7.545,7s0.058,0.679,0.141,1H9v1H8.1c0.693,1.191,1.968,2,3.445,2c2.209,0,4-1.791,4-4C15.545,4.791,13.755,3,11.545,3z"/>
	<path opacity="0.2" d="M15.003,1C16.104,1,17,1.896,17,2.997v8.006C17,12.104,16.104,13,15.003,13H2.997C1.896,13,1,12.104,1,11.003V3c0-1.103,0.897-2,2-2H15.003 M15.003,0H3C1.343,0,0,1.343,0,3v8.003C0,12.658,1.342,14,2.997,14h12.006C16.658,14,18,12.658,18,11.003V2.997C18,1.342,16.658,0,15.003,0L15.003,0z"/>
</svg>
