<?xml version="1.0" encoding="utf-8"?>
<!-- Generator: Adobe Illustrator 18.1.0, SVG Export Plug-In . SVG Version: 6.00 Build 0)  -->
<!DOCTYPE svg PUBLIC "-//W3C//DTD SVG 1.1//EN" "http://www.w3.org/Graphics/SVG/1.1/DTD/svg11.dtd">
<svg version="1.1" id="Layer_1" xmlns="http://www.w3.org/2000/svg" xmlns:xlink="http://www.w3.org/1999/xlink" x="0px" y="0px"
	 viewBox="0 0 45 45" enable-background="new 0 0 45 45" xml:space="preserve">
<path fill="#FFFFFF" d="M30.5,17.8c0.1,2.8-2.6,4.5-4.9,1.8c-2.1-2.5,0.4-6,0.7-8.9c0.3-3.6-2.1-6.7-4.7-8.7
	c1.4,2.5-0.5,5.8-1.9,7.6c-1.5,1.8-3.2,3.3-4.8,4.9c-1.7,1.7-3.4,3.6-4.8,5.6c-2.8,4.1-4.6,9.2-3.3,14.3c0.9,3.7,3.4,6.5,6.4,8.1
	c2,1.3,1.1-0.4,0.8-0.9c-1-1.3-1.7-2.8-1.7-4.4c0-3.1,1.8-5.7,4-7.4c-0.3,1.1-0.4,2.1,0.3,3.1c0.6,0.9,1.7,1.4,2.7,1.1
	c2.4-0.6,2.5-3.4,1.1-5.1c-1.4-1.6-2.8-3.5-2.2-5.9c0.3-1.2,0.9-2.3,1.8-3.1c-0.7,1.9,1.2,3.7,2.5,4.7c2.2,1.6,4.5,2.8,6.5,4.7
	c2.1,2,3.6,4.6,3.3,7.7c-0.2,2.2-1.3,3.9-2.9,5.2c-0.4,0.3-0.2,0.6,0.5,0.5c4.7-2.2,8.7-6.5,8.8-12.2C38.7,24.8,35.1,20.4,30.5,17.8
	L30.5,17.8z"/>
</svg>
