<?xml version="1.0" encoding="utf-8"?>
<!-- Generator: Adobe Illustrator 18.1.0, SVG Export Plug-In . SVG Version: 6.00 Build 0)  -->
<!DOCTYPE svg PUBLIC "-//W3C//DTD SVG 1.1//EN" "http://www.w3.org/Graphics/SVG/1.1/DTD/svg11.dtd">
<svg version="1.1" id="Layer_1" xmlns="http://www.w3.org/2000/svg" xmlns:xlink="http://www.w3.org/1999/xlink" x="0px" y="0px"
	 viewBox="0 0 45 45" enable-background="new 0 0 45 45" xml:space="preserve">
<path fill="#FFFFFF" d="M35,12.6c-0.6-0.5-2-1.3-3.4-1.7l-0.9-2.6l-4.9-4.8c-1.2-1-2.1-1.1-3.1-0.8l-0.1,0l-12,8.6L3.4,23.2
	c-0.2,0.6-0.2,1.6,0.9,2.7l4.2,4.3l1.9,0.7l0,0.1l0,0.2l0.1,0.2l0.1,0.4l0,0c0.5,1.6,1.6,3.6,2.5,4.3l6.3,6.3l14.9-0.1l1.8-5.7
	l5.4-1.8l0-15.5L35,12.6L35,12.6z M23.2,4.1c0.1,0,0.3-0.1,0.4-0.1c0.1,0,0.4,0,1.1,0.6l4.5,4.5l0.5,1.3l-16,0L23.2,4.1L23.2,4.1z
	 M12,30.3l0-17l5.3,5.4l17,17.1l-3.7,1.7l-18.6-6.8L12,30.3L12,30.3z M33.3,40.8l-13.1,0.1L14.3,35c-0.5-0.4-1.1-1.4-1.6-2.4l18,6.6
	l3.6-1.6L33.3,40.8L33.3,40.8z M40.1,33.8l-3,1l1.5-3.6l-6.4-18.3c0.7,0.3,1.3,0.6,1.6,0.9l6.2,6.3L40.1,33.8L40.1,33.8z"/>
</svg>
