<?xml version="1.0" encoding="utf-8"?>
<!-- Generator: Adobe Illustrator 18.1.0, SVG Export Plug-In . SVG Version: 6.00 Build 0)  -->
<!DOCTYPE svg PUBLIC "-//W3C//DTD SVG 1.1//EN" "http://www.w3.org/Graphics/SVG/1.1/DTD/svg11.dtd">
<svg version="1.1" id="Layer_1" xmlns="http://www.w3.org/2000/svg" xmlns:xlink="http://www.w3.org/1999/xlink" x="0px" y="0px"
	 viewBox="0 0 45 45" enable-background="new 0 0 45 45" xml:space="preserve">
<path fill="#FFFFFF" stroke="#FFFFFF" stroke-width="0.563" d="M16.9,34.3c0,0-1.6,1,1.2,1.3c3.4,0.4,5.1,0.3,8.9-0.4
	c0,0,1,0.6,2.4,1.2C20.9,39.9,10.2,36.1,16.9,34.3 M15.8,29.5c0,0-1.8,1.4,1,1.7c3.6,0.4,6.5,0.4,11.5-0.6c0,0,0.7,0.7,1.8,1.1
	C19.9,34.7,8.5,32,15.8,29.5 M24.5,21.6c2.1,2.4-0.5,4.5-0.5,4.5s5.3-2.7,2.8-6.1c-2.3-3.2-4-4.8,5.4-10.2
	C32.2,9.8,17.5,13.5,24.5,21.6 M35.6,37.7c0,0,1.2,1-1.3,1.8c-4.9,1.5-20.2,1.9-24.5,0.1c-1.5-0.7,1.3-1.6,2.2-1.8
	c0.9-0.2,1.5-0.2,1.5-0.2c-1.7-1.2-11,2.4-4.7,3.4C26,43.8,40.1,39.7,35.6,37.7 M17.6,24.7c0,0-7.8,1.9-2.8,2.5
	c2.1,0.3,6.4,0.2,10.3-0.1c3.2-0.3,6.5-0.9,6.5-0.9s-1.1,0.5-2,1.1c-7.9,2.1-23.3,1.1-18.9-1C14.6,24.5,17.6,24.7,17.6,24.7
	 M31.7,32.5c8.1-4.2,4.3-8.2,1.7-7.7c-0.6,0.1-0.9,0.2-0.9,0.2s0.2-0.4,0.7-0.5c5.2-1.8,9.1,5.3-1.7,8.2
	C31.5,32.7,31.6,32.6,31.7,32.5 M26.8,1c0,0,4.5,4.5-4.2,11.3c-7,5.5-1.6,8.7,0,12.2c-4.1-3.7-7.1-6.9-5.1-9.9
	C20.4,10.2,28.6,8.1,26.8,1 M18.4,43.9c7.7,0.5,19.6-0.3,19.9-3.9c0,0-0.5,1.4-6.4,2.5c-6.6,1.2-14.8,1.1-19.6,0.3
	C12.4,42.7,13.4,43.5,18.4,43.9"/>
</svg>
