<?xml version="1.0" encoding="utf-8"?>
<!-- Generator: Adobe Illustrator 18.1.0, SVG Export Plug-In . SVG Version: 6.00 Build 0)  -->
<!DOCTYPE svg PUBLIC "-//W3C//DTD SVG 1.1//EN" "http://www.w3.org/Graphics/SVG/1.1/DTD/svg11.dtd">
<svg version="1.1" id="Layer_1" xmlns="http://www.w3.org/2000/svg" xmlns:xlink="http://www.w3.org/1999/xlink" x="0px" y="0px"
	 viewBox="0 0 45 45" enable-background="new 0 0 45 45" xml:space="preserve">
<g>
	<path fill="#FFFFFF" d="M22.5,42.5c-0.5,0-1.1-0.1-1.5-0.4l-4.9-2.9c-0.7-0.4-0.4-0.6-0.1-0.6c1-0.3,1.2-0.4,2.2-1
		c0.1-0.1,0.3,0,0.4,0l3.8,2.2c0.1,0.1,0.3,0.1,0.5,0l14.7-8.5c0.1-0.1,0.2-0.2,0.2-0.4V14c0-0.2-0.1-0.3-0.2-0.4L22.7,5.2
		c-0.1-0.1-0.3-0.1-0.5,0L7.6,13.6c-0.1,0.1-0.2,0.2-0.2,0.4V31c0,0.2,0.1,0.3,0.2,0.4l4,2.3c2.2,1.1,3.5-0.2,3.5-1.5V15.5
		c0-0.2,0.2-0.4,0.4-0.4h1.9c0.2,0,0.4,0.2,0.4,0.4v16.7c0,2.9-1.6,4.6-4.3,4.6c-0.8,0-1.5,0-3.4-0.9l-3.8-2.2
		c-0.9-0.5-1.5-1.6-1.5-2.7V14c0-1.1,0.6-2.1,1.5-2.7L21,2.9c0.9-0.5,2.2-0.5,3.1,0l14.7,8.5c0.9,0.5,1.5,1.6,1.5,2.7V31
		c0,1.1-0.6,2.1-1.5,2.7L24,42.1C23.6,42.4,23,42.5,22.5,42.5L22.5,42.5z M27,30.8c-6.4,0-7.8-2.9-7.8-5.4c0-0.2,0.2-0.4,0.4-0.4
		h1.9c0.2,0,0.4,0.2,0.4,0.4c0.3,1.9,1.1,2.9,5,2.9c3.1,0,4.4-0.7,4.4-2.3c0-0.9-0.4-1.6-5.2-2.1c-4-0.4-6.5-1.3-6.5-4.5
		c0-3,2.5-4.7,6.7-4.7c4.7,0,7,1.6,7.3,5.1c0,0.1,0,0.2-0.1,0.3c-0.1,0.1-0.2,0.1-0.3,0.1h-1.9c-0.2,0-0.4-0.1-0.4-0.3
		c-0.5-2-1.6-2.7-4.6-2.7c-3.4,0-3.8,1.2-3.8,2.1c0,1.1,0.5,1.4,5,2c4.5,0.6,6.6,1.4,6.6,4.6C34.3,29,31.7,30.8,27,30.8z"/>
</g>
</svg>
