<svg xmlns="http://www.w3.org/2000/svg" viewBox="0 0 60 60" enable-background="new 0 0 60 60"><g><circle fill="#FFC72C" cx="30" cy="30" r="30"/><path fill="#fff" stroke="#fff" stroke-width="1.071" d="M32.391 10.797c2.164.191 4.248.306 6.363.811 1.549.37 3.145.96 4.469 1.887 1.089.762 1.794 1.754 1.819 3.132-.037 2.292.016 4.638 0 6.933-.004.57-.121 1.122-.512 1.56-.294.329.076.49.171.727.218.545.484 1.116.509 1.686-.082 2.103.031 4.124.031 6.245-.001.5-.078 1.041-.337 1.485-.175.299-.05.487.1.661.187.499.373 1.076.399 1.654.082 1.821-.016 3.663.088 5.483.095 1.67-.603 2.804-1.959 3.706-1.102.733-2.258 1.148-3.505 1.563-2.784.734-5.534.877-8.398.932-3.608.069-7.299-.03-10.816-.93-1.623-.415-3.192-.971-4.474-2.111-.812-.723-1.314-1.6-1.329-2.71-.024-1.902-.132-3.862-.112-5.764.012-1.223.06-1.472.387-2.109.057-.111.108-.18.044-.285-.353-.573-.532-1.157-.543-1.811-.025-1.493-.075-3.036-.087-4.529-.009-1.199-.093-2.681.624-3.568-.226-.827-.556-1.075-.686-1.772-.085-.457-.061-1.263-.075-1.734-.029-.972-.029-1.798-.062-2.77l.037-3.406c.468-1.663 1.653-2.567 3.144-3.219 2.109-.923 4.372-1.281 6.637-1.547 1.043-.123 5.665-.412 8.073-.2zm3.165 3.954c1.102.221 2.359.388 3.797.712.467.105 1.11.431 1.542.649.364.184.641.41.629.885-.013.47-.469.659-.836.836-.436.211-1.004.382-1.472.499-3.072.769-5.755.823-8.883.549-.665-.058-1.51-.242-2.099-.566-.951-.524-1.077-1.823-.221-2.503.337-.268.749-.476 1.16-.586.817-.22 1.729-.274 2.508-.428-.118-.042-.254-.085-.425-.184-.12-.07-.439-.072-.449-.362-.027-.259.305-.314.424-.349.375-.11.812-.197 1.198-.237 1.185-.123 2.298-.106 3.618-.219-3.677-.537-7.351-.941-10.979-.454l.474-.474c-1.645.225-3.297.528-4.741 1.173-1.517.677-3.219 2.658-3.334 3.518l-.309-.661c-.606 1.8-.752 3.97-.387 5.764.458 2.247 2.183 3.281 4.131 3.825 1.634.361 3.524.499 5.213.405l-1.672.374c.431.118 1.1.26 1.519.262 2.185.01 4.37.029 6.554-.005 2.668-.041 5.307-.392 7.835-1.305.761-.275 1.476-.71 2.183-1.11.448-.253.594-.596.586-1.148-.027-1.998.029-3.984.036-5.982.002-.521-.155-.983-.562-1.292-.382-.291-.803-.566-1.25-.73-1.984-.726-4.067-.793-5.788-.856zm-17.588 11.803c-.569.361-1.049.763-1.048 1.41.004 1.935.023 3.841.013 5.777-.003.484.267.899.661 1.146.515.324 1.047.65 1.615.857 2.158.79 4.417 1.024 6.694 1.203 4.22.332 8.375.234 12.539-.599 1.251-.25 2.451-.586 3.568-1.235.632-.367.979-.797.961-1.584-.042-1.808-.019-3.556 0-5.365.007-.666-.299-1.344-.998-1.622l-.037.536c-.01 1.05-.026 1.098-1.011 1.497l-.374.125c-2.514.828-5.07 1.065-7.686 1.185-3.583.165-7.052.142-10.592-.511-1.147-.212-2.39-.526-3.508-.876-.505-.158-.66-.528-.759-1.12-.038-.225-.038-.51-.038-.824zm-.012 9.782c-.565.384-1.012.676-1.011 1.322.003 1.966.024 3.998.013 5.964-.003.506.276.902.665 1.183.303.22.623.451.972.568 1.055.352 2.112.732 3.198.955 3.374.694 6.795.831 10.229.702 2.533-.095 5.055-.313 7.508-.987.886-.243 1.744-.615 2.582-1 .647-.297.94-.836.926-1.6-.034-1.886-.065-3.748-.054-5.635.003-.578-.402-1.298-1.011-1.46v.462c-.014 1.443-.096 1.422-1.472 1.909l-.287.087c-2.404.732-4.767 1.09-7.256 1.2-3.786.168-7.573.096-11.307-.651-1.036-.207-2.039-.589-3.045-.927-.41-.138-.509-.288-.588-.745-.062-.362-.062-.899-.062-1.347z"/></g></svg>