<?xml version="1.0"?>
<svg xmlns="http://www.w3.org/2000/svg" viewBox="0 0 60 60" enable-background="new 0 0 60 60"><path d="M34.272 34.567l-.002.707c.306.085.081-.515.002-.706zm-4.252-20.567c-9.858 0-17.85 3.425-17.85 7.65l.796 8.705c1.675 2.26 8.705 4.12 16.773 4.12.774 0 1.898.008 2.83.015v4.944c-.933-.005-1.858-.011-2.83-.011-7.744 0-14.37-3.81-16.468-6.676l1.364 8.295c1.122 4.224 6.738 6.957 15.384 6.957 4.085 0 1.912-.004 4.244-.004l-.023-5.096h.029v-3.217l11.708 2.958 1.852-21.33c-.417-4.067-8.219-7.311-17.81-7.311zm-16.721 7.495c2.656 7.066 17.372 5.366 17.372 5.366l1.859 2.444s-16.894.478-19.231-7.809zm30.157 16.733l-9.186-2.234v-1.432l.002.006.013-4.467 9.596 2.01-.426 6.118zm.715-8.303l-10.521-2.314-5.301-7.17 16.175 3.887c-.093 1.657-.218 3.235-.353 5.597z" fill-rule="evenodd" clip-rule="evenodd" fill="#888"/></svg>
