<svg xmlns="http://www.w3.org/2000/svg" viewBox="0 0 60 60" enable-background="new 0 0 60 60"><g><path fill="#573D7D" d="M51.209 51.209c5.827-5.877 8.791-12.93 8.791-21.209s-2.964-15.332-8.791-21.21c-5.877-5.826-12.93-8.79-21.209-8.79s-15.332 2.964-21.21 8.79c-5.826 5.878-8.79 12.931-8.79 21.21s2.964 15.332 8.79 21.209c5.878 5.878 12.931 8.791 21.21 8.791s15.332-2.913 21.209-8.791z"/><path fill="#fff" d="M31.166 31.213h-3.123v5.09h3.123c1.069 0 1.87-.213 2.405-.638.543-.425.815-1.068.815-1.927 0-.842-.267-1.471-.801-1.888-.535-.424-1.342-.637-2.419-.637zm10.342-18.281h-23.016c-3.033 0-5.492 2.459-5.492 5.491v23.153c0 3.033 2.459 5.492 5.492 5.492h23.015c3.033 0 5.492-2.459 5.492-5.492v-23.152c.001-3.033-2.458-5.492-5.491-5.492zm-3.82 25.402c-1.345.92-3.39 1.38-6.136 1.38h-8.831v-19.437h7.987c2.865 0 4.938.408 6.219 1.224 1.29.816 1.935 2.122 1.935 3.919 0 .946-.235 1.753-.705 2.421-.47.66-1.152 1.15-2.045 1.471 1.142.312 2.027.89 2.653 1.732.626.842.94 1.875.94 3.098.001 1.875-.672 3.272-2.017 4.192zm-4.795-11.053c.433-.347.65-.859.65-1.536 0-.668-.217-1.176-.65-1.523-.433-.356-1.069-.534-1.907-.534h-2.944v4.114h2.944c.838 0 1.474-.174 1.907-.521z"/></g></svg>