<?xml version="1.0"?>
<svg xmlns="http://www.w3.org/2000/svg" viewBox="0 0 60 60" enable-background="new 0 0 60 60"><path d="M45.084 45.083l.04.035-.028-.191 2.039-26.7-.024.044c.083-2.902-.935-5.686-4.369-6.822 1.818.712 2.103 2.115 2.59 4.179l-9.459-1.46 9.317 7.62-.508.931-11.68.782 3.551 14.066.038-.041-.009.012.357.317 6.29 6.524h-16.027c.344-.173.682-.358 1.018-.545l.013.025c3.022-1.639 5.44-3.608 7.643-5.723l.627-.576-13.833-4.444-.001.002-.004-.001 10.317-9.588 2.933-9.318-.062-.044-.058-.009 5.568-3.068.005.001.002-.001-9.94-.045-.135-.095-7.853 2.939c-2.474 2.301-7.275 6.855-7.448 6.94-.156.08-2.658 4.788-4.189 7.67l-.135.255-.284.534.037.106c-.336 1.066-.668 3.026-.668 6.627 0 1.63.152 3.158.33 4.394.061.737.176 1.392.342 1.97.124.6.215.95.215.95l.1-.055c1.482 3.451 4.911 3.605 6.664 3.655l-.016.014 26.687-1.811.001-.013.074-.005-.073.001.003-.036zm-31.607-9.86l-.01-.008-.003.03-1.299 2.376c-.35-2.14-.594-4.726-.385-7.22l1.698 4.817-.003.005zm5.053 11.605l-.045.039-.633-1.478c-1.575-3.916-3.971-9.819-4.342-10.141l-.009-.022 9.088-2.039.077-.072.003.006-4.138 13.707zm26.106-5.023l-1.647-12.296 2.813-5.706-1.165 18.002z" fill-rule="evenodd" clip-rule="evenodd" fill="#888"/></svg>
