<?xml version="1.0"?>
<svg xmlns="http://www.w3.org/2000/svg" viewBox="0 0 60 60" enable-background="new 0 0 60 60"><path d="M31.166 31.213h-3.123v5.09h3.123c1.069 0 1.87-.213 2.405-.638.543-.425.815-1.068.815-1.927 0-.842-.267-1.471-.801-1.888-.534-.425-1.34-.638-2.418-.638zm1.727-3.932c.433-.347.649-.859.649-1.536 0-.668-.217-1.176-.649-1.523-.433-.356-1.069-.534-1.907-.534h-2.943v4.114h2.943c.838 0 1.474-.174 1.907-.521zm8.615-14.349h-23.015c-3.033 0-5.492 2.459-5.492 5.492v23.153c0 3.033 2.459 5.492 5.492 5.492h23.015c3.033 0 5.492-2.459 5.492-5.492v-23.153c0-3.033-2.459-5.492-5.492-5.492zm-3.819 25.402c-1.345.92-3.39 1.38-6.136 1.38h-8.831v-19.437h7.987c2.865 0 4.938.408 6.219 1.224 1.29.816 1.935 2.122 1.935 3.919 0 .946-.235 1.753-.705 2.421-.47.66-1.152 1.15-2.045 1.471 1.142.313 2.027.89 2.653 1.732.626.842.94 1.875.94 3.099 0 1.875-.673 3.272-2.018 4.192z" fill-rule="evenodd" clip-rule="evenodd" fill="#888"/></svg>
