<?xml version="1.0"?>
<svg xmlns="http://www.w3.org/2000/svg" viewBox="0 0 60 60" enable-background="new 0 0 60 60"><path d="M48.281 28.667c-2.117 1.103-13.084 5.613-15.419 6.83-2.335 1.217-3.632 1.205-5.476.323-1.845-.881-13.515-5.596-15.617-6.601-1.051-.502-1.587-.926-1.603-1.325v4.01c0 .401.552.824 1.603 1.326 2.102 1.005 13.773 5.72 15.617 6.601 1.844.882 3.141.894 5.476-.323 2.335-1.218 13.302-5.727 15.419-6.83 1.078-.561 1.554-.997 1.553-1.393l.001-3.953-.009-.003c-.015.38-.516.802-1.545 1.338zm-36.512-2.217c2.102 1.005 13.773 5.72 15.617 6.601 1.844.882 3.141.894 5.476-.323 2.335-1.218 13.302-5.727 15.419-6.83 1.078-.562 1.554-.997 1.553-1.393l.001-3.953-.009-.003c.017-.402-.51-.756-1.571-1.144-2.063-.756-12.964-5.095-15.052-5.859-2.087-.765-2.938-.733-5.391.147s-14.06 5.434-16.125 6.242c-1.033.405-1.538.78-1.522 1.18v4.01c0 .4.553.824 1.603 1.326zm19.017.557l-6.417-2.661 9.193-1.411-2.776 4.072zm13.915-6.326l-5.437 2.146-.589.232-5.434-2.149 6.02-2.381 5.44 2.152zm-15.961-3.94l-.888-1.639 2.772 1.085 2.616-.856-.708 1.695 2.666.998-3.436.357-.77 1.853-1.244-2.066-3.969-.357 2.962-1.069zm-6.848 2.313c2.713 0 4.913.853 4.913 1.905s-2.2 1.905-4.913 1.905c-2.714 0-4.913-.853-4.913-1.905s2.2-1.904 4.913-1.904zm26.389 16.152c-2.117 1.103-13.084 5.613-15.419 6.83-2.335 1.218-3.632 1.206-5.476.324-1.845-.881-13.515-5.596-15.617-6.601-1.051-.502-1.587-.926-1.603-1.325v4.01c0 .4.552.824 1.603 1.326 2.102 1.005 13.773 5.719 15.617 6.601s3.141.894 5.476-.324c2.335-1.217 13.302-5.726 15.419-6.83 1.078-.561 1.554-.997 1.553-1.393l.001-3.953-.009-.003c-.015.38-.516.802-1.545 1.338z" fill-rule="evenodd" clip-rule="evenodd" fill="#888"/></svg>
