<?xml version="1.0"?>
<svg xmlns="http://www.w3.org/2000/svg" viewBox="0 0 60 60" enable-background="new 0 0 60 60"><path d="M48.102 19.163c-.763-.733-2.102-2.299-3.234-3.348.09-.66.239-1.842.181-2.075-.082-.326 0-.895-.489-.487-.301.251-.663 1.057-.898 1.641l-.239-.095c-1.548-.407-.933-.093-2.441.284-.413-.487-.9-1.67-.9-1.67s-.618-.795-1.109-.179c-.776.975-1.519 3.32-1.861 4.296-2.696 7.687-3.875.308-13.166 6.64-4.578 3.12-5.215 7.823-5.215 7.823s-1.69-1.166-3.993-.896c-3.362.394-5.215 4.162-5.134 7.416.57 8.986 13.002 8.475 14.424 8.475 7.059.163 12.212-1.345 14.858-2.365 1.069-.678.23-.911-.519-.911-2.317.003-5.881.017-9.204.017-1.605 0-5.727.039-7.748-.129-2.689-.224-2.961-2.135-2.275-3.212l.896-.57s.899.084 1.589.774c.39.39.354.789.453 1.2.125.519 1.25.633 1.544.633h3.339c1.238 0-.06-1.141.326-1.141 1.299 0 2.121 1.141 3.18 1.141h3.586c.257 0-1.141-1.408-1.107-1.876.043-.617 2.164.271 1.037-.887-.567-.583-1.023-.982-1.268-1.735-.51-1.567.987-2.399 1.395-2.399.407 0 1.248 1.494 2.132 3.612.251.602.506 1.501.746 1.981.396.791 1.304 1.304 1.304 1.304h2.608c2.141 0 1.644-1.072.549-1.632-.322-.183-.632-.436-.665-.742-.281-2.585-1.055-8.791-1.055-8.791s1.824-1.221 2.965-2.769l2.12-5.648s2.652.499 2.726-.252c.804-2.137 1.16-2.857.566-3.427zm-6.556-1.266s1.872-.237 2.85 1.252c-1.797 1.718-2.954-1.173-2.85-1.252z" fill="#888"/></svg>
