<svg xmlns="http://www.w3.org/2000/svg" viewBox="0 0 60 60" enable-background="new 0 0 60 60"><g><circle fill="#fff" cx="30" cy="30" r="30"/><circle fill="#9CCE7A" cx="30" cy="30" r="30"/><path fill="#fff" d="M29.407 36.201c-.143-8.048.032-16.542.114-19.814-.124.202-.285.408-.498.598-.817.726-5.264 5.267-5.513 12.161-.195 5.407 2.556 8.822 4.203 10.409.274-.214 1.294-1.101 1.772-2.553-.045-.246-.078-.506-.078-.801zm7.074-7.136c-.231-4.813-2.269-8.365-5.351-11.674-1.103-1.185-1.216-2.108-1.216-2.108s-.028.304-.188.697c.445 2.828 1.597 11.229 1.202 20.221-.005 2.741 1.582 3.408 1.582 3.408l.036.013c1.551-1.578 4.203-4.965 3.935-10.557zm-6.425 9.315c-.423.768-1.062 1.115-1.74 1.726l.425.353c.469 1.331.606 4.258.606 4.258l1.216-.243s.346-3.255.973-3.893l.562-.524c-.436-.393-1.394-.781-2.042-1.677z"/><path fill="#fff" d="M47.806 17.757l-16.113-9.312c-1.012-.577-2.368-.577-3.387 0l-16.115 9.312c-1.044.601-1.691 1.729-1.691 2.938v18.599c0 1.207.647 2.336 1.691 2.938l16.114 9.305c.516.298 1.101.452 1.691.452.597 0 1.181-.154 1.698-.453l16.113-9.305c1.045-.607 1.694-1.731 1.694-2.938v-18.599c-.001-1.208-.651-2.333-1.695-2.937zm-1.2 21.537c0 .178-.097.349-.247.435l-16.115 9.301c-.138.084-.349.084-.5 0l-14.587-8.433-1.513-.874c-.155-.084-.253-.252-.253-.43v-18.599c0-.177.098-.352.255-.441l16.105-9.296c.149-.087.348-.087.497 0l16.108 9.293c.153.092.25.262.25.444v18.6z"/></g></svg>