<?xml version="1.0"?>
<svg xmlns="http://www.w3.org/2000/svg" viewBox="0 0 60 60" enable-background="new 0 0 60 60"><path d="M9.25 38.199c-.346 0-.64-.124-.885-.372-.244-.248-.365-.544-.365-.89s.121-.643.365-.895c.245-.251.539-.377.885-.377.353 0 .653.126.901.377.248.252.372.55.372.895s-.124.642-.372.89c-.247.248-.548.372-.901.372zm17.608-.247h-2.321l-8.312-12.874c-.21-.323-.383-.66-.518-1.014h-.068c.06.346.09 1.086.09 2.219v11.668h-1.893v-16.151h2.455l8.087 12.671c.338.525.555.885.653 1.081h.045c-.075-.465-.113-1.258-.113-2.376v-11.376h1.893v16.151zm12.455 0h-8.56v-16.151h8.2v1.712h-6.307v5.372h5.834v1.701h-5.834v5.654h6.668v1.712zm12.687-14.439h-4.663v14.438h-1.892v-14.439h-4.652v-1.712h11.206v1.712z" fill="#888"/></svg>
