<?xml version="1.0"?>
<svg xmlns="http://www.w3.org/2000/svg" viewBox="0 0 60 60" enable-background="new 0 0 60 60"><path d="M21.25 14.294c3.424 0 6.21 2.786 6.21 6.21s-2.786 6.21-6.21 6.21-6.21-2.786-6.21-6.21 2.786-6.21 6.21-6.21m0-1.294c-4.144 0-7.503 3.359-7.503 7.503s3.359 7.503 7.503 7.503 7.503-3.359 7.503-7.503-3.359-7.503-7.503-7.503zm25.042 7.503c0-2.063-.75-3.845-2.204-5.299-1.501-1.454-3.236-2.204-5.299-2.204-2.064 0-3.845.75-5.3 2.204-1.5 1.454-2.204 3.236-2.204 5.299s.703 3.845 2.204 5.299c1.454 1.454 3.236 2.204 5.3 2.204 2.064 0 3.798-.75 5.299-2.204 1.454-1.454 2.204-3.236 2.204-5.299zm-17.539 18.994c0-2.016-.703-3.799-2.204-5.3-1.501-1.5-3.236-2.204-5.346-2.204-2.017 0-3.798.703-5.252 2.204-1.454 1.501-2.204 3.283-2.204 5.3 0 2.11.75 3.845 2.204 5.299 1.454 1.5 3.236 2.204 5.252 2.204 2.11 0 3.845-.704 5.346-2.204 1.5-1.454 2.204-3.189 2.204-5.299zm10.036-6.21c3.424 0 6.21 2.786 6.21 6.21s-2.786 6.21-6.21 6.21-6.21-2.786-6.21-6.21 2.786-6.21 6.21-6.21m0-1.294c-4.144 0-7.503 3.359-7.503 7.503s3.359 7.503 7.503 7.503 7.503-3.359 7.503-7.503-3.359-7.503-7.503-7.503z" fill="#888"/></svg>
