<?xml version="1.0"?>
<svg xmlns="http://www.w3.org/2000/svg" viewBox="0 0 60 60" enable-background="new 0 0 60 60"><path d="M39.828 39.828c0-5.203-4.056-9.418-9.172-9.761v-.132c-.221.015-.431.066-.655.066-5.428 0-9.828-4.4-9.828-9.828 0-5.202 4.055-9.417 9.17-9.761-10.24.678-18.342 9.177-18.342 19.589 0 10.412 8.102 18.91 18.343 19.589.221.015.432.066.657.066l.219-.022.436.022v-.066c5.116-.343 9.172-4.558 9.172-9.762zm-9.172 6.965v.067l-.443-.022-.212.021c-.219 0-.424-.045-.638-.064-8.802-.663-15.566-7.823-15.566-16.794 0-4.168 1.326-7.983 3.812-10.943-.033.368-.056.739-.056 1.116 0 6.875 5.573 12.712 12.449 12.712l.655-.033v.099c3.668.336 6.288 3.122 6.288 6.877 0 3.756-2.62 6.629-6.288 6.965zm0-36.382v-.066l-.406.021.383.043.023.002zm-.005 0l-.018-.002-.414-.042.03-.002-.249-.02-.216.022-.439-.022v.067c-4.392.34-7.116 4.28-7.116 8.451 0 4.04 2.724 8.111 7.116 8.451v.066c6.513 0 12.451 5.28 12.451 11.793 0 3.385-2.243 6.745-4.738 8.908 7.02-2.999 11.942-9.964 11.942-18.081 0-10.415-8.106-18.915-18.35-19.589z" fill-rule="evenodd" clip-rule="evenodd" fill="#888"/></svg>
