<svg xmlns="http://www.w3.org/2000/svg" viewBox="0 0 60 60" enable-background="new 0 0 60 60"><g><circle fill="#8DA9CA" cx="30" cy="30" r="30"/><path fill="#fff" d="M30 9c-2.905 0-5.672.59-8.188 1.657-3.676 4.821-7.451 11.6-1.075 21.914l5.82-11.203 6.111 12.173s4.85-9.409 8.633-8.827v1.067s-7.245 10.79-6.663 14.282l-1.873-2.836s-.97 5.723-.97 6.887l-5.82-13.095-3.104 7.76c-6.852-3.597-9.394-5.307-13.702-11.401-.107.859-.169 1.733-.169 2.622 0 11.598 9.402 21 21 21s21-9.402 21-21-9.402-21-21-21z"/></g></svg>