<?xml version="1.0" encoding="utf-8"?>
<!-- Generator: Adobe Illustrator 19.1.0, SVG Export Plug-In . SVG Version: 6.00 Build 0)  -->
<!DOCTYPE svg PUBLIC "-//W3C//DTD SVG 1.1//EN" "http://www.w3.org/Graphics/SVG/1.1/DTD/svg11.dtd">
<svg version="1.1" id="Layer_1" xmlns="http://www.w3.org/2000/svg" xmlns:xlink="http://www.w3.org/1999/xlink" x="0px" y="0px"
	 viewBox="0 15.3 60 31.7" style="enable-background:new 0 15.3 60 31.7;" xml:space="preserve">
<style type="text/css">
	.st0{fill:#D6AF6B;}
	.st1{fill:#C69B4F;}
	.st2{fill:#52306C;}
</style>
<g>
	<polygon class="st0" points="49.1,39.7 10.9,39.7 15.7,22 44.3,22 	"/>
	<rect x="10.9" y="39.7" class="st1" width="38.2" height="2.2"/>
	<path class="st2" d="M49.6,39.6l-4.9-18.1H15.3l-4.9,18.1v0.5v2.2h39.2v-2.2V39.6z M16,22.5H44l4.5,16.7h-37L16,22.5z M48.6,41.4
		H11.4v-1.3h37.3V41.4z"/>
	<g>
		<g>
			<path class="st2" d="M18.5,35.7l0-8.8h0.6l0,4.3c0,1.1,0,2.1-0.1,3.2h0c0.2-1.1,0.4-2.1,0.7-3.2l0.9-4.2h0.5l0.1,4.1
				c0,1,0.1,2.1,0,3.3h0c0.2-1.3,0.4-2.2,0.6-3.2l0.8-4.2h0.6l-1.7,8.8h-0.6l-0.1-4.3c0-0.9,0-1.9,0-2.9h0c-0.2,1-0.4,1.9-0.6,2.9
				l-1,4.3C19.1,35.7,18.5,35.7,18.5,35.7z"/>
			<path class="st2" d="M25.4,31.5h-1.4l-0.2,3.3h1.6l0,0.9h-2.2l0.6-8.8h2l0,0.9h-1.4l-0.2,2.9h1.3L25.4,31.5z"/>
			<path class="st2" d="M26.5,26.9h0.6l-0.3,8h1.6l0,0.9h-2.2L26.5,26.9z"/>
			<path class="st2" d="M31.1,35.6c-0.2,0.1-0.4,0.2-0.8,0.2c-1.1,0-1.9-1.4-1.8-4.4c0.1-3.5,1.1-4.6,1.9-4.6c0.3,0,0.5,0.1,0.6,0.2
				l-0.1,0.9c-0.1-0.1-0.3-0.2-0.5-0.2c-0.6,0-1.2,0.9-1.3,3.6c0,2.7,0.6,3.6,1.3,3.6c0.2,0,0.5-0.1,0.6-0.2L31.1,35.6z"/>
			<path class="st2" d="M34.4,31.3c0.1,3.3-0.6,4.6-1.5,4.6c-0.9,0-1.6-1.6-1.6-4.5c0-2.9,0.6-4.5,1.5-4.5
				C33.7,26.8,34.3,28.4,34.4,31.3z M32,31.3c0,1.8,0.3,3.6,1,3.6c0.7,0,0.9-1.9,0.8-3.7c-0.1-1.6-0.3-3.6-1-3.6
				C32.2,27.7,32,29.5,32,31.3z"/>
			<path class="st2" d="M38.5,31.9c-0.1-1.2-0.3-2.5-0.3-3.5h0c0,1-0.1,2-0.2,3.1l-0.4,4.1h-0.4l-0.9-4c-0.2-1.1-0.5-2.2-0.6-3.2h0
				c0.1,1,0.1,2.3,0.1,3.5l0.1,3.7h-0.6l-0.1-8.8h0.6l0.8,4c0.3,1.2,0.4,2,0.6,3h0c0-1,0.1-1.8,0.2-3l0.3-4h0.7l1,8.8h-0.6
				L38.5,31.9z"/>
			<path class="st2" d="M42,31.5h-1.4l0.3,3.3h1.6l0.1,0.9h-2.2l-0.8-8.8h2l0.1,0.9h-1.4l0.3,2.9h1.3L42,31.5z"/>
		</g>
	</g>
	<g>
		<g>
			<path class="st2" d="M16.4,22.3c-0.1,0-0.2-0.1-0.2-0.2v-1.9c0-0.1,0.1-0.2,0.2-0.2s0.2,0.1,0.2,0.2V22
				C16.6,22.2,16.5,22.3,16.4,22.3z"/>
			<path class="st2" d="M20.2,22.3c-0.1,0-0.2-0.1-0.2-0.2v-1.9c0-0.1,0.1-0.2,0.2-0.2s0.2,0.1,0.2,0.2V22
				C20.4,22.2,20.3,22.3,20.2,22.3z"/>
			<path class="st2" d="M24,22.3c-0.1,0-0.2-0.1-0.2-0.2v-1.9c0-0.1,0.1-0.2,0.2-0.2s0.2,0.1,0.2,0.2V22
				C24.3,22.2,24.2,22.3,24,22.3z"/>
			<path class="st2" d="M27.8,22.3c-0.1,0-0.2-0.1-0.2-0.2v-1.9c0-0.1,0.1-0.2,0.2-0.2s0.2,0.1,0.2,0.2V22
				C28.1,22.2,28,22.3,27.8,22.3z"/>
			<path class="st2" d="M31.7,22.3c-0.1,0-0.2-0.1-0.2-0.2v-1.9c0-0.1,0.1-0.2,0.2-0.2s0.2,0.1,0.2,0.2V22
				C31.9,22.2,31.8,22.3,31.7,22.3z"/>
			<path class="st2" d="M35.5,22.3c-0.1,0-0.2-0.1-0.2-0.2v-1.9c0-0.1,0.1-0.2,0.2-0.2s0.2,0.1,0.2,0.2V22
				C35.7,22.2,35.6,22.3,35.5,22.3z"/>
			<path class="st2" d="M39.3,22.3c-0.1,0-0.2-0.1-0.2-0.2v-1.9c0-0.1,0.1-0.2,0.2-0.2s0.2,0.1,0.2,0.2V22
				C39.6,22.2,39.4,22.3,39.3,22.3z"/>
			<path class="st2" d="M43.1,22.3c-0.1,0-0.2-0.1-0.2-0.2v-1.9c0-0.1,0.1-0.2,0.2-0.2s0.2,0.1,0.2,0.2V22
				C43.4,22.2,43.3,22.3,43.1,22.3z"/>
		</g>
		<g>
			<path class="st2" d="M18.1,25.1c-0.1,0-0.2-0.1-0.2-0.2v-1.4c0-0.1,0.1-0.2,0.2-0.2s0.2,0.1,0.2,0.2v1.4
				C18.3,25,18.2,25.1,18.1,25.1z"/>
			<path class="st2" d="M22,25.1c-0.1,0-0.2-0.1-0.2-0.2v-1.4c0-0.1,0.1-0.2,0.2-0.2s0.2,0.1,0.2,0.2v1.4C22.3,25,22.2,25.1,22,25.1
				z"/>
			<path class="st2" d="M26,25.1c-0.1,0-0.2-0.1-0.2-0.2v-1.4c0-0.1,0.1-0.2,0.2-0.2s0.2,0.1,0.2,0.2v1.4C26.3,25,26.1,25.1,26,25.1
				z"/>
			<path class="st2" d="M30,25.1c-0.1,0-0.2-0.1-0.2-0.2v-1.4c0-0.1,0.1-0.2,0.2-0.2s0.2,0.1,0.2,0.2v1.4C30.2,25,30.1,25.1,30,25.1
				z"/>
			<path class="st2" d="M34,25.1c-0.1,0-0.2-0.1-0.2-0.2v-1.4c0-0.1,0.1-0.2,0.2-0.2s0.2,0.1,0.2,0.2v1.4C34.2,25,34.1,25.1,34,25.1
				z"/>
			<path class="st2" d="M38,25.1c-0.1,0-0.2-0.1-0.2-0.2v-1.4c0-0.1,0.1-0.2,0.2-0.2s0.2,0.1,0.2,0.2v1.4C38.2,25,38.1,25.1,38,25.1
				z"/>
			<path class="st2" d="M41.9,25.1c-0.1,0-0.2-0.1-0.2-0.2v-1.4c0-0.1,0.1-0.2,0.2-0.2s0.2,0.1,0.2,0.2v1.4
				C42.2,25,42.1,25.1,41.9,25.1z"/>
		</g>
		<path class="st2" d="M16.1,27.5c-0.1,0-0.2-0.1-0.2-0.2v-1.4c0-0.1,0.1-0.2,0.2-0.2s0.2,0.1,0.2,0.2v1.4
			C16.4,27.4,16.3,27.5,16.1,27.5z"/>
		<path class="st2" d="M43.9,27.5c-0.1,0-0.2-0.1-0.2-0.2v-1.4c0-0.1,0.1-0.2,0.2-0.2s0.2,0.1,0.2,0.2v1.4
			C44.1,27.4,44,27.5,43.9,27.5z"/>
		<path class="st2" d="M16.1,32.3c-0.1,0-0.2-0.1-0.2-0.2v-1.4c0-0.1,0.1-0.2,0.2-0.2s0.2,0.1,0.2,0.2V32
			C16.4,32.2,16.3,32.3,16.1,32.3z"/>
		<path class="st2" d="M43.9,32.3c-0.1,0-0.2-0.1-0.2-0.2v-1.4c0-0.1,0.1-0.2,0.2-0.2s0.2,0.1,0.2,0.2V32
			C44.1,32.2,44,32.3,43.9,32.3z"/>
		<path class="st2" d="M16.1,37c-0.1,0-0.2-0.1-0.2-0.2v-1.4c0-0.1,0.1-0.2,0.2-0.2s0.2,0.1,0.2,0.2v1.4C16.4,36.9,16.3,37,16.1,37z
			"/>
		<path class="st2" d="M43.9,37c-0.1,0-0.2-0.1-0.2-0.2v-1.4c0-0.1,0.1-0.2,0.2-0.2s0.2,0.1,0.2,0.2v1.4C44.1,36.9,44,37,43.9,37z"
			/>
		<path class="st2" d="M14.2,34.7c-0.1,0-0.2-0.1-0.2-0.2V33c0-0.1,0.1-0.2,0.2-0.2s0.2,0.1,0.2,0.2v1.4
			C14.5,34.6,14.4,34.7,14.2,34.7z"/>
		<path class="st2" d="M45.8,34.7c-0.1,0-0.2-0.1-0.2-0.2V33c0-0.1,0.1-0.2,0.2-0.2S46,32.9,46,33v1.4C46,34.6,45.9,34.7,45.8,34.7z
			"/>
		<g>
			<path class="st2" d="M14.2,39.4c-0.1,0-0.2-0.1-0.2-0.2v-1.4c0-0.1,0.1-0.2,0.2-0.2s0.2,0.1,0.2,0.2v1.4
				C14.5,39.3,14.4,39.4,14.2,39.4z"/>
			<path class="st2" d="M18.2,39.4c-0.1,0-0.2-0.1-0.2-0.2v-1.4c0-0.1,0.1-0.2,0.2-0.2s0.2,0.1,0.2,0.2v1.4
				C18.4,39.3,18.3,39.4,18.2,39.4z"/>
			<path class="st2" d="M22.1,39.4c-0.1,0-0.2-0.1-0.2-0.2v-1.4c0-0.1,0.1-0.2,0.2-0.2s0.2,0.1,0.2,0.2v1.4
				C22.4,39.3,22.2,39.4,22.1,39.4z"/>
			<path class="st2" d="M26.1,39.4c-0.1,0-0.2-0.1-0.2-0.2v-1.4c0-0.1,0.1-0.2,0.2-0.2s0.2,0.1,0.2,0.2v1.4
				C26.3,39.3,26.2,39.4,26.1,39.4z"/>
			<path class="st2" d="M30,39.4c-0.1,0-0.2-0.1-0.2-0.2v-1.4c0-0.1,0.1-0.2,0.2-0.2s0.2,0.1,0.2,0.2v1.4
				C30.2,39.3,30.1,39.4,30,39.4z"/>
			<path class="st2" d="M33.9,39.4c-0.1,0-0.2-0.1-0.2-0.2v-1.4c0-0.1,0.1-0.2,0.2-0.2s0.2,0.1,0.2,0.2v1.4
				C34.2,39.3,34.1,39.4,33.9,39.4z"/>
			<path class="st2" d="M37.9,39.4c-0.1,0-0.2-0.1-0.2-0.2v-1.4c0-0.1,0.1-0.2,0.2-0.2s0.2,0.1,0.2,0.2v1.4
				C38.1,39.3,38,39.4,37.9,39.4z"/>
			<path class="st2" d="M41.8,39.4c-0.1,0-0.2-0.1-0.2-0.2v-1.4c0-0.1,0.1-0.2,0.2-0.2s0.2,0.1,0.2,0.2v1.4
				C42.1,39.3,42,39.4,41.8,39.4z"/>
			<path class="st2" d="M45.8,39.4c-0.1,0-0.2-0.1-0.2-0.2v-1.4c0-0.1,0.1-0.2,0.2-0.2s0.2,0.1,0.2,0.2v1.4
				C46,39.3,45.9,39.4,45.8,39.4z"/>
		</g>
	</g>
</g>
</svg>
