<?xml version="1.0" encoding="utf-8"?>
<!-- Generator: Adobe Illustrator 19.1.0, SVG Export Plug-In . SVG Version: 6.00 Build 0)  -->
<!DOCTYPE svg PUBLIC "-//W3C//DTD SVG 1.1//EN" "http://www.w3.org/Graphics/SVG/1.1/DTD/svg11.dtd">
<svg version="1.1" id="Layer_1" xmlns="http://www.w3.org/2000/svg" xmlns:xlink="http://www.w3.org/1999/xlink" x="0px" y="0px"
	 viewBox="0 15.27 60 31.73" enable-background="new 0 15.27 60 31.73" xml:space="preserve">
<g>
	<ellipse fill="#E2E2E2" cx="6.57" cy="29.041" rx="3.808" ry="2.154"/>
	<path fill="#52306C" d="M6.57,31.56c-2.339,0-4.172-1.106-4.172-2.518s1.833-2.518,4.172-2.518s4.172,1.106,4.172,2.518
		C10.742,30.454,8.909,31.56,6.57,31.56z M6.57,27.251c-1.867,0-3.444,0.82-3.444,1.79s1.577,1.79,3.444,1.79s3.444-0.82,3.444-1.79
		S8.437,27.251,6.57,27.251z"/>
</g>
<ellipse opacity="0.12" enable-background="new    " cx="6.57" cy="36.598" rx="3.782" ry="1.621"/>
<polygon fill="#D6AF6B" points="49.368,42.832 11.132,42.832 15.912,25.148 44.588,25.148 "/>
<rect x="11.132" y="42.832" fill="#C69B4F" width="38.235" height="2.217"/>
<path fill="#52306C" d="M49.846,42.768L44.954,24.67H15.546l-4.891,18.099v0.541v2.217h39.191V43.31V42.768z M16.278,25.626h27.945
	l4.521,16.728H11.756L16.278,25.626z M48.89,44.571H11.61V43.31h37.28V44.571z"/>
<g>
	<g>
		<path fill="#52306C" d="M18.736,38.879l-0.032-8.822h0.615l-0.026,4.253c-0.008,1.113-0.024,2.095-0.075,3.182h0.033
			c0.183-1.113,0.414-2.069,0.659-3.195l0.913-4.24h0.507l0.108,4.149c0.028,1.047,0.062,2.054,0.031,3.285h0.024
			c0.198-1.269,0.376-2.225,0.564-3.233l0.778-4.202h0.576l-1.736,8.822h-0.626l-0.142-4.294c-0.017-0.928-0.025-1.924,0.005-2.892
			h-0.016c-0.174,0.994-0.354,1.95-0.578,2.932l-0.98,4.255C19.338,38.879,18.736,38.879,18.736,38.879z"/>
		<path fill="#52306C" d="M25.696,34.69h-1.357l-0.201,3.312h1.59l-0.041,0.877h-2.246l0.588-8.822h1.974l-0.041,0.876h-1.394
			l-0.177,2.907h1.346L25.696,34.69z"/>
		<path fill="#52306C" d="M26.745,30.057h0.591l-0.27,7.971h1.574l-0.017,0.851h-2.229L26.745,30.057z"/>
		<path fill="#52306C" d="M31.368,38.723c-0.174,0.143-0.449,0.235-0.8,0.235c-1.103,0-1.862-1.388-1.805-4.386
			c0.066-3.481,1.1-4.594,1.913-4.594c0.315,0,0.537,0.104,0.645,0.222l-0.127,0.851c-0.124-0.092-0.256-0.183-0.527-0.183
			c-0.557,0-1.22,0.915-1.254,3.613c-0.035,2.696,0.584,3.587,1.264,3.587c0.24,0,0.455-0.092,0.587-0.196L31.368,38.723z"/>
		<path fill="#52306C" d="M34.675,34.402c0.123,3.312-0.557,4.582-1.46,4.582c-0.936,0-1.576-1.559-1.6-4.53
			c-0.024-2.92,0.578-4.503,1.483-4.503C33.98,29.951,34.57,31.588,34.675,34.402z M32.257,34.468
			c0.026,1.819,0.274,3.626,0.98,3.626c0.72,0,0.851-1.924,0.798-3.652c-0.051-1.649-0.29-3.6-0.97-3.6
			C32.414,30.842,32.231,32.674,32.257,34.468z"/>
		<path fill="#52306C" d="M38.728,35.083c-0.128-1.165-0.263-2.462-0.314-3.456h-0.03c-0.046,0.981-0.112,2.029-0.207,3.063
			l-0.402,4.136h-0.409l-0.874-3.967c-0.236-1.126-0.45-2.212-0.603-3.233h-0.024c0.051,1.034,0.081,2.265,0.11,3.521l0.075,3.731
			h-0.576l-0.071-8.822h0.637l0.841,4.031c0.254,1.165,0.445,2.029,0.621,3.037h0.025c0.042-1.007,0.11-1.845,0.209-3.037
			l0.317-4.031h0.66l1.019,8.822H39.13L38.728,35.083z"/>
		<path fill="#52306C" d="M42.205,34.69h-1.357l0.316,3.312h1.59l0.097,0.877h-2.247l-0.79-8.822h1.974l0.096,0.876H40.49
			l0.277,2.907h1.346L42.205,34.69z"/>
	</g>
</g>
<g>
	<g>
		<path fill="#52306C" d="M16.622,25.427c-0.132,0-0.239-0.107-0.239-0.239v-1.912c0-0.132,0.107-0.239,0.239-0.239
			s0.239,0.107,0.239,0.239v1.912C16.861,25.32,16.754,25.427,16.622,25.427z"/>
		<path fill="#52306C" d="M20.446,25.427c-0.132,0-0.239-0.107-0.239-0.239v-1.912c0-0.132,0.107-0.239,0.239-0.239
			s0.239,0.107,0.239,0.239v1.912C20.685,25.32,20.578,25.427,20.446,25.427z"/>
		<path fill="#52306C" d="M24.269,25.427c-0.132,0-0.239-0.107-0.239-0.239v-1.912c0-0.132,0.107-0.239,0.239-0.239
			s0.239,0.107,0.239,0.239v1.912C24.508,25.32,24.401,25.427,24.269,25.427z"/>
		<path fill="#52306C" d="M28.093,25.427c-0.132,0-0.239-0.107-0.239-0.239v-1.912c0-0.132,0.107-0.239,0.239-0.239
			s0.239,0.107,0.239,0.239v1.912C28.332,25.32,28.225,25.427,28.093,25.427z"/>
		<path fill="#52306C" d="M31.916,25.427c-0.132,0-0.239-0.107-0.239-0.239v-1.912c0-0.132,0.107-0.239,0.239-0.239
			s0.239,0.107,0.239,0.239v1.912C32.155,25.32,32.048,25.427,31.916,25.427z"/>
		<path fill="#52306C" d="M35.74,25.427c-0.132,0-0.239-0.107-0.239-0.239v-1.912c0-0.132,0.107-0.239,0.239-0.239
			s0.239,0.107,0.239,0.239v1.912C35.979,25.32,35.871,25.427,35.74,25.427z"/>
		<path fill="#52306C" d="M39.563,25.427c-0.132,0-0.239-0.107-0.239-0.239v-1.912c0-0.132,0.107-0.239,0.239-0.239
			s0.239,0.107,0.239,0.239v1.912C39.802,25.32,39.695,25.427,39.563,25.427z"/>
		<path fill="#52306C" d="M43.387,25.427c-0.132,0-0.239-0.107-0.239-0.239v-1.912c0-0.132,0.107-0.239,0.239-0.239
			s0.239,0.107,0.239,0.239v1.912C43.626,25.32,43.518,25.427,43.387,25.427z"/>
	</g>
	<g>
		<path fill="#52306C" d="M18.301,28.248c-0.132,0-0.239-0.107-0.239-0.239v-1.434c0-0.132,0.107-0.239,0.239-0.239
			s0.239,0.107,0.239,0.239v1.434C18.54,28.141,18.434,28.248,18.301,28.248z"/>
		<path fill="#52306C" d="M22.284,28.248c-0.132,0-0.239-0.107-0.239-0.239v-1.434c0-0.132,0.107-0.239,0.239-0.239
			s0.239,0.107,0.239,0.239v1.434C22.523,28.141,22.416,28.248,22.284,28.248z"/>
		<path fill="#52306C" d="M26.267,28.248c-0.132,0-0.239-0.107-0.239-0.239v-1.434c0-0.132,0.107-0.239,0.239-0.239
			s0.239,0.107,0.239,0.239v1.434C26.506,28.141,26.399,28.248,26.267,28.248z"/>
		<path fill="#52306C" d="M30.25,28.248c-0.132,0-0.239-0.107-0.239-0.239v-1.434c0-0.132,0.107-0.239,0.239-0.239
			s0.239,0.107,0.239,0.239v1.434C30.489,28.141,30.382,28.248,30.25,28.248z"/>
		<path fill="#52306C" d="M34.233,28.248c-0.132,0-0.239-0.107-0.239-0.239v-1.434c0-0.132,0.107-0.239,0.239-0.239
			s0.239,0.107,0.239,0.239v1.434C34.472,28.141,34.365,28.248,34.233,28.248z"/>
		<path fill="#52306C" d="M38.215,28.248c-0.132,0-0.239-0.107-0.239-0.239v-1.434c0-0.132,0.107-0.239,0.239-0.239
			s0.239,0.107,0.239,0.239v1.434C38.454,28.141,38.347,28.248,38.215,28.248z"/>
		<path fill="#52306C" d="M42.199,28.248c-0.132,0-0.239-0.107-0.239-0.239v-1.434c0-0.132,0.107-0.239,0.239-0.239
			s0.239,0.107,0.239,0.239v1.434C42.438,28.141,42.33,28.248,42.199,28.248z"/>
	</g>
	<path fill="#52306C" d="M16.39,30.638c-0.132,0-0.239-0.107-0.239-0.239v-1.434c0-0.132,0.107-0.239,0.239-0.239
		s0.239,0.107,0.239,0.239v1.434C16.629,30.531,16.522,30.638,16.39,30.638z"/>
	<path fill="#52306C" d="M44.11,30.638c-0.132,0-0.239-0.107-0.239-0.239v-1.434c0-0.132,0.107-0.239,0.239-0.239
		s0.239,0.107,0.239,0.239v1.434C44.349,30.531,44.242,30.638,44.11,30.638z"/>
	<path fill="#52306C" d="M16.39,35.417c-0.132,0-0.239-0.107-0.239-0.239v-1.434c0-0.132,0.107-0.239,0.239-0.239
		s0.239,0.107,0.239,0.239v1.434C16.629,35.31,16.522,35.417,16.39,35.417z"/>
	<path fill="#52306C" d="M44.11,35.417c-0.132,0-0.239-0.107-0.239-0.239v-1.434c0-0.132,0.107-0.239,0.239-0.239
		s0.239,0.107,0.239,0.239v1.434C44.349,35.31,44.242,35.417,44.11,35.417z"/>
	<path fill="#52306C" d="M16.39,40.197c-0.132,0-0.239-0.107-0.239-0.239v-1.434c0-0.132,0.107-0.239,0.239-0.239
		s0.239,0.107,0.239,0.239v1.434C16.629,40.089,16.522,40.197,16.39,40.197z"/>
	<path fill="#52306C" d="M44.11,40.197c-0.132,0-0.239-0.107-0.239-0.239v-1.434c0-0.132,0.107-0.239,0.239-0.239
		s0.239,0.107,0.239,0.239v1.434C44.349,40.089,44.242,40.197,44.11,40.197z"/>
	<path fill="#52306C" d="M14.478,37.807c-0.132,0-0.239-0.107-0.239-0.239v-1.434c0-0.132,0.107-0.239,0.239-0.239
		s0.239,0.107,0.239,0.239v1.434C14.717,37.7,14.61,37.807,14.478,37.807z"/>
	<path fill="#52306C" d="M46.022,37.807c-0.132,0-0.239-0.107-0.239-0.239v-1.434c0-0.132,0.107-0.239,0.239-0.239
		s0.239,0.107,0.239,0.239v1.434C46.261,37.7,46.154,37.807,46.022,37.807z"/>
	<g>
		<path fill="#52306C" d="M14.478,42.586c-0.132,0-0.239-0.107-0.239-0.239v-1.434c0-0.132,0.107-0.239,0.239-0.239
			s0.239,0.107,0.239,0.239v1.434C14.717,42.479,14.61,42.586,14.478,42.586z"/>
		<path fill="#52306C" d="M18.421,42.586c-0.132,0-0.239-0.107-0.239-0.239v-1.434c0-0.132,0.107-0.239,0.239-0.239
			s0.239,0.107,0.239,0.239v1.434C18.66,42.479,18.553,42.586,18.421,42.586z"/>
		<path fill="#52306C" d="M22.364,42.586c-0.132,0-0.239-0.107-0.239-0.239v-1.434c0-0.132,0.107-0.239,0.239-0.239
			s0.239,0.107,0.239,0.239v1.434C22.603,42.479,22.496,42.586,22.364,42.586z"/>
		<path fill="#52306C" d="M26.307,42.586c-0.132,0-0.239-0.107-0.239-0.239v-1.434c0-0.132,0.107-0.239,0.239-0.239
			s0.239,0.107,0.239,0.239v1.434C26.546,42.479,26.439,42.586,26.307,42.586z"/>
		<path fill="#52306C" d="M30.25,42.586c-0.132,0-0.239-0.107-0.239-0.239v-1.434c0-0.132,0.107-0.239,0.239-0.239
			s0.239,0.107,0.239,0.239v1.434C30.489,42.479,30.382,42.586,30.25,42.586z"/>
		<path fill="#52306C" d="M34.193,42.586c-0.132,0-0.239-0.107-0.239-0.239v-1.434c0-0.132,0.107-0.239,0.239-0.239
			s0.239,0.107,0.239,0.239v1.434C34.432,42.479,34.325,42.586,34.193,42.586z"/>
		<path fill="#52306C" d="M38.136,42.586c-0.132,0-0.239-0.107-0.239-0.239v-1.434c0-0.132,0.107-0.239,0.239-0.239
			s0.239,0.107,0.239,0.239v1.434C38.375,42.479,38.268,42.586,38.136,42.586z"/>
		<path fill="#52306C" d="M42.079,42.586c-0.132,0-0.239-0.107-0.239-0.239v-1.434c0-0.132,0.107-0.239,0.239-0.239
			s0.239,0.107,0.239,0.239v1.434C42.318,42.479,42.211,42.586,42.079,42.586z"/>
		<path fill="#52306C" d="M46.022,42.586c-0.132,0-0.239-0.107-0.239-0.239v-1.434c0-0.132,0.107-0.239,0.239-0.239
			s0.239,0.107,0.239,0.239v1.434C46.261,42.479,46.154,42.586,46.022,42.586z"/>
	</g>
</g>
<g opacity="0.12">
	<path d="M6.57,26.887c-0.419,0-0.814,0.048-1.191,0.118c0.411,1.99,1.018,3.638,1.619,3.729c0.649,0.098,1.685-1.237,2.633-2.963
		C8.938,27.238,7.83,26.887,6.57,26.887z"/>
</g>
<ellipse fill="#52306C" cx="6.57" cy="30.561" rx="1.87" ry="1.058"/>
<g>
	<path fill="#36C147" d="M4.384,21.087c0.433-2.862,2.313-4.952,4.201-4.666c1.888,0.286,3.067,2.837,2.635,5.699
		s-3.451,8.817-4.798,8.614C5.202,30.55,3.951,23.95,4.384,21.087z"/>
	<path fill="#2A9F43" d="M8.238,17.123L8.238,17.123c0.079,0,0.159,0.006,0.238,0.018c1.462,0.221,2.389,2.451,2.023,4.871
		c-0.183,1.21-0.901,3.149-1.829,4.938c-1.056,2.036-1.812,2.812-2.115,3.012c-0.247-0.329-0.731-1.421-1.127-3.54
		c-0.374-2.003-0.501-4.055-0.324-5.226C5.449,18.912,6.826,17.123,8.238,17.123 M8.238,16.395c-1.766,0-3.448,2.006-3.854,4.692
		c-0.433,2.863,0.818,9.463,2.038,9.647c0.023,0.003,0.045,0.005,0.069,0.005c1.378,0,4.303-5.805,4.729-8.619
		c0.433-2.862-0.747-5.414-2.635-5.699C8.469,16.404,8.354,16.395,8.238,16.395L8.238,16.395z"/>
</g>
<g opacity="0.12">
	<path d="M2.8,25.087c-0.221-1.896,1.137-3.612,3.033-3.833c1.896-0.222,3.613,1.136,3.834,3.033s-1.375,6.291-2.728,6.449
		C5.713,30.878,3.021,26.983,2.8,25.087z"/>
</g>
<g>
	<path fill="#3CCB5A" d="M2.224,25.087c-0.222-1.896,1.136-3.612,3.033-3.833c1.896-0.222,3.612,1.136,3.833,3.033
		s-1.375,6.291-2.728,6.449C5.136,30.878,2.445,26.983,2.224,25.087z"/>
	<path fill="#2A9F43" d="M5.662,21.958L5.662,21.958c1.382,0,2.545,1.037,2.706,2.413c0.218,1.866-1.389,5.489-2.066,5.64
		c-0.192-0.02-0.931-0.522-1.879-1.881c-0.797-1.143-1.39-2.4-1.475-3.127c-0.084-0.724,0.118-1.437,0.57-2.009
		c0.452-0.572,1.1-0.933,1.824-1.017C5.449,21.964,5.556,21.958,5.662,21.958 M5.661,21.23c-0.134,0-0.269,0.008-0.405,0.024
		c-1.896,0.221-3.254,1.937-3.032,3.833c0.217,1.862,2.817,5.652,4.071,5.652c0.023,0,0.045-0.001,0.067-0.004
		c1.353-0.158,2.949-4.553,2.728-6.449C8.885,22.526,7.391,21.23,5.661,21.23L5.661,21.23z"/>
</g>
<line fill="none" stroke="#2A9F43" stroke-width="0.5" stroke-linecap="round" stroke-miterlimit="10" x1="7.475" y1="18.457" x2="8.051" y2="17.88"/>
<line fill="none" stroke="#2A9F43" stroke-width="0.5" stroke-linecap="round" stroke-miterlimit="10" x1="7.475" y1="20.762" x2="8.051" y2="20.186"/>
<line fill="none" stroke="#2A9F43" stroke-width="0.5" stroke-linecap="round" stroke-miterlimit="10" x1="4.016" y1="23.644" x2="4.593" y2="23.068"/>
<line fill="none" stroke="#2A9F43" stroke-width="0.5" stroke-linecap="round" stroke-miterlimit="10" x1="6.322" y1="25.95" x2="6.898" y2="25.374"/>
<line fill="none" stroke="#2A9F43" stroke-width="0.5" stroke-linecap="round" stroke-miterlimit="10" x1="4.016" y1="25.95" x2="4.593" y2="25.374"/>
<line fill="none" stroke="#2A9F43" stroke-width="0.5" stroke-linecap="round" stroke-miterlimit="10" x1="6.322" y1="28.256" x2="6.898" y2="27.679"/>
<line fill="none" stroke="#2A9F43" stroke-width="0.5" stroke-linecap="round" stroke-miterlimit="10" x1="6.322" y1="23.644" x2="6.898" y2="23.068"/>
<line fill="none" stroke="#2A9F43" stroke-width="0.5" stroke-linecap="round" stroke-miterlimit="10" x1="5.169" y1="24.221" x2="5.746" y2="24.797"/>
<line fill="none" stroke="#2A9F43" stroke-width="0.5" stroke-linecap="round" stroke-miterlimit="10" x1="7.475" y1="24.221" x2="8.051" y2="24.797"/>
<line fill="none" stroke="#2A9F43" stroke-width="0.5" stroke-linecap="round" stroke-miterlimit="10" x1="5.169" y1="26.527" x2="5.746" y2="27.103"/>
<line fill="none" stroke="#2A9F43" stroke-width="0.5" stroke-linecap="round" stroke-miterlimit="10" x1="8.628" y1="19.033" x2="9.204" y2="19.609"/>
<line fill="none" stroke="#2A9F43" stroke-width="0.5" stroke-linecap="round" stroke-miterlimit="10" x1="6.322" y1="19.033" x2="6.898" y2="19.609"/>
<line fill="none" stroke="#2A9F43" stroke-width="0.5" stroke-linecap="round" stroke-miterlimit="10" x1="8.628" y1="21.339" x2="9.204" y2="21.915"/>
<g>
	<path fill="#E2E2E2" d="M6.57,31.196c-2.103,0-3.808-0.964-3.808-2.154v3.827c0,2.114,1.705,3.827,3.808,3.827
		s3.808-1.713,3.808-3.827v-3.827C10.378,30.231,8.673,31.196,6.57,31.196z"/>
	<path fill="#52306C" d="M6.57,37.06c-2.301,0-4.172-1.88-4.172-4.191v-3.827h0.728c0,0.97,1.577,1.79,3.444,1.79
		s3.444-0.82,3.444-1.79h0.728v3.827C10.742,35.18,8.87,37.06,6.57,37.06z M3.126,30.481v2.388c0,1.909,1.545,3.463,3.444,3.463
		s3.444-1.554,3.444-3.463v-2.388c-0.746,0.656-1.998,1.078-3.444,1.078S3.872,31.137,3.126,30.481z"/>
</g>
<path opacity="0.5" fill="#FFFFFF" enable-background="new    " d="M3.049,30.309v2.56c0,1.199,0.599,2.256,1.509,2.896v-4.591
	C3.934,30.969,3.412,30.673,3.049,30.309z"/>
</svg>
