<?xml version="1.0" encoding="utf-8"?>
<!-- Generator: Adobe Illustrator 17.0.0, SVG Export Plug-In . SVG Version: 6.00 Build 0)  -->
<!DOCTYPE svg PUBLIC "-//W3C//DTD SVG 1.1//EN" "http://www.w3.org/Graphics/SVG/1.1/DTD/svg11.dtd">
<svg version="1.1" xmlns="http://www.w3.org/2000/svg" xmlns:xlink="http://www.w3.org/1999/xlink" x="0px" y="0px" width="160px"
	 height="160px" viewBox="0 0 160 160" enable-background="new 0 0 160 160" xml:space="preserve">
<g id="Layer_1">
	<g>
		<g>
			<path fill="#613A82" d="M109.401,104.722c-0.191-0.375-1.515-0.677-2.969-0.677l-68.01-0.187c-1.448,0-2.728,0.306-2.854,0.679
				l-9.214,7.051c-0.134,0.375,1.233,0.679,3.049,0.679h82.35c1.808,0,3.116-0.304,2.928-0.679L109.401,104.722z M39.835,89.681
				h78.876c1.096,0,1.983-0.783,1.983-1.755V39.008c0-0.968-0.888-1.754-1.983-1.754H39.835c-1.096,0-1.988,0.786-1.988,1.754
				v48.917C37.848,88.898,38.739,89.681,39.835,89.681z M126.029,103.858l-12.743-0.017c-1.45,0-1.836,0.438-2.033,0.816
				l5.458,6.944c-0.191,0.375,2.511,0.666,4.323,0.666h14.017c1.81,0,3.181-0.304,3.049-0.679l-9.219-7.051
				C128.755,104.165,127.474,103.858,126.029,103.858z M80,0C35.816,0,0,35.817,0,80s35.816,80,80,80c44.182,0,80-35.817,80-80
				S124.182,0,80,0z M144.154,120.766H21.341c-2.648,0-4.227-0.199-4.019-1.078l-0.187-3.435c0,0,0.304-1.324,0.36-1.565
				l12.196-13.863l1.063-1.304l0.1-0.234c-0.525-0.443-0.859-1.083-0.859-1.804V32.68c0-1.333,1.12-2.407,2.496-2.407h93.403
				c1.374,0,2.493,1.074,2.493,2.407v64.802l-0.082,0.568c1.434,0.245,2.576,0.81,2.802,1.469l5.97,5.577l10.432,9.59l0.022,0.182
				l0.065,0.061l0.091,4.347C147.687,120.143,146.802,120.766,144.154,120.766z"/>
		</g>
	</g>
</g>
<g id="Layer_2">
</g>
</svg>
