<?xml version="1.0" encoding="utf-8"?>
<!-- Generator: Adobe Illustrator 17.0.0, SVG Export Plug-In . SVG Version: 6.00 Build 0)  -->
<!DOCTYPE svg PUBLIC "-//W3C//DTD SVG 1.1//EN" "http://www.w3.org/Graphics/SVG/1.1/DTD/svg11.dtd">
<svg version="1.1" xmlns="http://www.w3.org/2000/svg" xmlns:xlink="http://www.w3.org/1999/xlink" x="0px" y="0px" width="120px"
	 height="124.792px" viewBox="0 0 120 124.792" enable-background="new 0 0 120 124.792" xml:space="preserve">
<g id="Layer_1">
	<path fill="#613A82" d="M60.033,124.792c33.083,0,59.9-6.612,59.96-14.785H120c-1.221-10.893-9.325-21.231-16.724-23.187
		c-12.362-3.251-23.898-7.737-27.61-16.32c0,0-0.129-0.344-0.31-0.886c1.639-0.15,3.377-0.458,5.302-0.944
		c4.117-1.02,8.119-5.011,6.672-6.031c-1.459-1.041,7.013-0.84,5.078-5.401c-0.694-1.602-4.936-14.424-7.008-22.646
		c-2.065-8.164-3.105-34.697-23.202-33.733c-11.543-3.613-22.395,4.995-24.659,10.69c-3.091,7.771-2.308,18.294-3.514,23.043
		c-2.078,8.222-5.975,21.213-7.009,22.646c-1.134,1.587,1.971,3.934,3.919,3.676c3.122-0.406,2.899-0.007,1.44,1.016
		c-1.448,1.035,2.276,5.72,6.397,6.74c2.151,0.542,4.059,0.862,5.857,0.988c-0.178,0.525-0.292,0.842-0.292,0.842
		c-3.717,8.583-15.257,13.069-27.621,16.32C9.328,88.777,1.225,99.114,0,110.007h0.013c0.052,8.173,26.863,14.785,59.939,14.785
		H60.033z"/>
</g>
<g id="Layer_2">
</g>
</svg>
