<?xml version="1.0" encoding="utf-8"?>
<!-- Generator: Adobe Illustrator 17.0.0, SVG Export Plug-In . SVG Version: 6.00 Build 0)  -->
<!DOCTYPE svg PUBLIC "-//W3C//DTD SVG 1.1//EN" "http://www.w3.org/Graphics/SVG/1.1/DTD/svg11.dtd">
<svg version="1.1" xmlns="http://www.w3.org/2000/svg" xmlns:xlink="http://www.w3.org/1999/xlink" x="0px" y="0px" width="160px"
	 height="160px" viewBox="0 0 160 160" enable-background="new 0 0 160 160" xml:space="preserve">
<g id="Layer_1">
	<path fill="#613A82" d="M79.997,0C35.815,0,0.007,35.819,0.007,80.002c0,44.186,35.808,79.998,79.99,79.998
		c44.181,0,79.996-35.812,79.996-79.998C159.993,35.819,124.179,0,79.997,0z M71.723,18.933c0-4.458,3.616-8.07,8.089-8.07
		c4.467,0,8.075,3.612,8.075,8.07v48.485c0,4.461-3.608,8.073-8.075,8.073c-4.473,0-8.089-3.612-8.089-8.073V18.933z
		 M79.812,140.131c-31.226,0-56.546-25.326-56.546-56.562c0-25.603,17.04-47.224,40.385-54.181v17.201
		c-14.259,6.234-24.238,20.413-24.238,36.981c0,22.321,18.084,40.404,40.399,40.404c22.308,0,40.391-18.083,40.391-40.404
		c0-16.567-9.974-30.747-24.236-36.981V29.388c23.348,6.957,40.394,28.578,40.394,54.181
		C136.361,114.805,111.033,140.131,79.812,140.131z"/>
</g>
<g id="Layer_2">
</g>
</svg>
