<?xml version="1.0" encoding="utf-8"?>
<!-- Generator: Adobe Illustrator 17.0.0, SVG Export Plug-In . SVG Version: 6.00 Build 0)  -->
<!DOCTYPE svg PUBLIC "-//W3C//DTD SVG 1.1//EN" "http://www.w3.org/Graphics/SVG/1.1/DTD/svg11.dtd">
<svg version="1.1" xmlns="http://www.w3.org/2000/svg" xmlns:xlink="http://www.w3.org/1999/xlink" x="0px" y="0px" width="160px"
	 height="160px" viewBox="0 0 160 160" enable-background="new 0 0 160 160" xml:space="preserve">
<g id="Layer_1">
	<path fill="#613A82" d="M79.678,0.008C35.528,0.193-0.149,36.16,0.013,80.307c0.179,44.179,36.131,79.849,80.284,79.66
		c44.179-0.153,79.859-36.105,79.681-80.293C159.808,35.538,123.857-0.146,79.678,0.008z M103.592,46.218
		c8.02-0.03,14.525,6.433,14.555,14.424c0.036,7.995-6.431,14.531-14.439,14.554c-7.992,0.036-14.516-6.43-14.521-14.424
		C89.116,52.756,95.595,46.251,103.592,46.218z M56.139,46.403c8.002-0.023,14.518,6.426,14.534,14.442
		c0.032,7.998-6.425,14.516-14.429,14.534c-8.002,0.04-14.519-6.414-14.539-14.433C41.657,52.944,48.121,46.437,56.139,46.403z
		 M80.184,131.51c-23.036,0.09-43.188-12.415-53.961-31.033c14.596,8.995,33.404,14.368,53.913,14.275
		c20.506-0.062,39.241-5.597,53.786-14.697C123.31,118.761,103.249,131.425,80.184,131.51z"/>
</g>
<g id="Layer_2">
</g>
</svg>
