<?xml version="1.0" encoding="utf-8"?>
<!-- Generator: Adobe Illustrator 17.0.0, SVG Export Plug-In . SVG Version: 6.00 Build 0)  -->
<!DOCTYPE svg PUBLIC "-//W3C//DTD SVG 1.1//EN" "http://www.w3.org/Graphics/SVG/1.1/DTD/svg11.dtd">
<svg version="1.1" xmlns="http://www.w3.org/2000/svg" xmlns:xlink="http://www.w3.org/1999/xlink" x="0px" y="0px" width="160px"
	 height="160px" viewBox="0 0 160 160" enable-background="new 0 0 160 160" xml:space="preserve">
<g id="Layer_1">
	<g>
		<path fill="#613A82" d="M160,80c0-44.183-35.818-80-80-80C35.817,0,0,35.817,0,80c0,44.183,35.817,80,80,80
			C124.182,160,160,124.183,160,80z M79.379,134.008c-31.494,0.651-57.172-5.185-57.39-13.053h-0.017
			c0.954-10.513,1.186-22.733,7.584-26.208c5.587-3.021,12.449-5.333,18.615-7.424c3.894-1.314,7.142-2.419,9.768-3.67l1.064-1.389
			c1.002-0.596,2.254-1.257,3.194-1.99l0.284-0.254l-0.139-0.033c1.734-1.551,2.882-3.493,3.534-6.097
			c-2.091-2.571-3.777-5.814-4.827-9.52c-0.666-2.264-1.093-4.706-1.238-7.257c-0.797-0.554-1.533-1.658-2.049-3.093
			c-0.18-0.519-0.34-1.067-0.464-1.644c-0.628-3.14-2.109-5.84,1.074-6.39l0.229-0.017c-0.038-0.406-0.082-0.738-0.125-0.955
			c-0.766-3.525-1.799-7.34-2.132-10.861c-0.444-3.8-0.188-7.291,1.938-9.802c2.851-3.372,7.92-7.789,12.921-8.274
			c1.706-0.179,3.232-0.283,4.639-0.29c4.238-0.055,7.21,0.8,9.8,3.716c3.405,0.041,6.591,1.331,9.109,3.476
			c4.837,4.117,5.666,9.26,5,13.196c-0.52,3.124-1.983,5.84-3.089,8.75l-0.112,0.321c2.969,0.488,1.644,3.205,1.155,6.293
			c-0.35,2.187-1.238,3.968-2.254,4.779c-0.114,6.434-2.216,12.25-5.43,16.503c0.527,2.348,1.377,4.185,2.594,5.669l0.479,0.526
			l0.028,0.055c0.346,0.368,0.697,0.72,1.096,1.037l-0.091,0.023c3.139,2.581,7.89,4.012,14.523,5.966
			c6.255,1.815,13.198,3.856,18.895,6.644c6.395,3.13,7.237,14.807,8.555,25.088c0.055,0.262,0.09,0.506,0.104,0.763l-0.007,0.018
			l0.011,0.005C136.309,126.48,110.898,133.369,79.379,134.008z"/>
	</g>
</g>
<g id="Layer_2">
</g>
</svg>
