<?xml version="1.0" encoding="utf-8"?>
<!-- Generator: Adobe Illustrator 18.0.0, SVG Export Plug-In . SVG Version: 6.00 Build 0)  -->
<!DOCTYPE svg PUBLIC "-//W3C//DTD SVG 1.1//EN" "http://www.w3.org/Graphics/SVG/1.1/DTD/svg11.dtd">
<svg version="1.1" id="Layer_1" xmlns="http://www.w3.org/2000/svg" xmlns:xlink="http://www.w3.org/1999/xlink" x="0px" y="0px"
	 viewBox="0 0 30 30" enable-background="new 0 0 30 30" xml:space="preserve">
<g>
	<path fill="#565656" d="M15,3.8C8.7,3.8,3.6,8.9,3.6,15.3c0,5,3.3,9.3,7.8,10.8c0.6,0.1,0.8-0.3,0.8-0.5s0-1,0-1.9
		c-3.2,0.7-3.9-1.5-3.9-1.5c-0.5-1.3-1.2-1.7-1.2-1.7c-1.1-0.7,0-0.7,0-0.7c1.1,0.1,1.8,1.1,1.8,1.1c1.1,1.8,2.6,1.2,3.3,1
		c0.1-0.7,0.4-1.2,0.7-1.5c-2.6-0.3-5.2-1.2-5.2-5.6c0-1.2,0.4-2.3,1.1-3.1c-0.1-0.3-0.5-1.5,0.1-3c0,0,1-0.3,3.2,1.1
		C13,9.5,13.9,9.5,15,9.5c1,0,1.9,0.1,2.9,0.4c2.2-1.5,3.2-1.1,3.2-1.1c0.6,1.6,0.3,2.7,0.1,3c0.7,0.8,1.1,1.9,1.1,3.1
		c0,4.4-2.6,5.4-5.2,5.6c0.4,0.4,0.8,1.1,0.8,2.1c0,1.5,0,2.7,0,3.2c0,0.3,0.2,0.7,0.8,0.5c4.6-1.5,7.8-5.8,7.8-10.8
		C26.5,8.9,21.4,3.8,15,3.8z"/>
</g>
<g>
	<path fill="none" stroke="#FFFFFF" stroke-width="6" stroke-linecap="round" stroke-miterlimit="10" d="M5.4,17.1l8,8 M13.4,17.1
		l-8,8"/>
</g>
<g>
	<path fill="none" stroke="#F27228" stroke-width="2" stroke-miterlimit="10" d="M5.4,17.1l8,8 M13.4,17.1l-8,8"/>
</g>
</svg>
