<?xml version="1.0" encoding="utf-8"?>
<!-- Generator: Adobe Illustrator 17.1.0, SVG Export Plug-In . SVG Version: 6.00 Build 0)  -->
<!DOCTYPE svg PUBLIC "-//W3C//DTD SVG 1.1//EN" "http://www.w3.org/Graphics/SVG/1.1/DTD/svg11.dtd">
<svg version="1.1" id="Layer_1" xmlns="http://www.w3.org/2000/svg" xmlns:xlink="http://www.w3.org/1999/xlink" x="0px" y="0px"
	 viewBox="0 0 14 14" enable-background="new 0 0 14 14" xml:space="preserve">
<rect x="1" y="2" fill="#888888" enable-background="new    " width="12" height="1"/>
<linearGradient id="SVGID_1_" gradientUnits="userSpaceOnUse" x1="7" y1="13" x2="7" y2="1">
	<stop  offset="0" style="stop-color:#999999"/>
	<stop  offset="1" style="stop-color:#E8E8E8"/>
</linearGradient>
<polygon fill="url(#SVGID_1_)" points="8,3 8,1 2,1 2,3 0,3 0,12 1,13 13,13 14,12 14,3 "/>
<path opacity="0.2" fill="#231F20" enable-background="new    " d="M13,3H0v0.969v8L1,13h12l1-1.031V3H13z M1,12V4h12v8H1z"/>
<polygon opacity="0.2" fill="#231F20" enable-background="new    " points="3,1 2,1 2,3 3,3 3,2 7,2 7,3 8,3 8,2 8,1 "/>
</svg>
