<?xml version="1.0" encoding="utf-8"?>
<!-- Generator: Adobe Illustrator 18.0.0, SVG Export Plug-In . SVG Version: 6.00 Build 0)  -->
<!DOCTYPE svg PUBLIC "-//W3C//DTD SVG 1.1//EN" "http://www.w3.org/Graphics/SVG/1.1/DTD/svg11.dtd">
<svg version="1.1" id="Layer_1" xmlns="http://www.w3.org/2000/svg" xmlns:xlink="http://www.w3.org/1999/xlink" x="0px" y="0px"
	 viewBox="0 0 30 30" enable-background="new 0 0 30 30" xml:space="preserve">
<g id="file_new_1_">
	<g>
		<polygon fill="none" stroke="#565656" stroke-width="2" stroke-linejoin="round" stroke-miterlimit="10" points="23.5,24.9 
			8.5,24.9 8.5,3.7 15.3,3.7 23.5,11.8 		"/>
		<polygon fill="none" stroke="#565656" stroke-width="2" stroke-linejoin="round" stroke-miterlimit="10" points="23.5,11.8 
			15.3,11.8 15.3,3.7 		"/>
	</g>
</g>
<path fill="#FFFFFF" d="M15.3,19.5l-5-5C10,14.2,9.8,14,9.5,13.9c-0.6-0.3-1.3-0.3-1.9,0C7.2,14,7,14.2,6.7,14.5l-5,5
	C1.3,19.9,1,20.6,1,21.2s0.3,1.3,0.7,1.8c0.9,0.9,2.6,0.9,3.5,0L6,22.3v2.9c0,1.4,1.1,2.5,2.5,2.5s2.5-1.1,2.5-2.5v-2.9l0.7,0.7
	c0.9,0.9,2.6,0.9,3.5,0c0.5-0.5,0.7-1.1,0.7-1.8S15.7,19.9,15.3,19.5z"/>
<g>
	<g>
		
			<line fill="none" stroke="#47C8F5" stroke-width="2" stroke-linecap="round" stroke-linejoin="round" stroke-miterlimit="10" x1="8.5" y1="16.3" x2="8.5" y2="25.1"/>
	</g>
</g>
<polyline fill="none" stroke="#47C8F5" stroke-width="2" stroke-linecap="round" stroke-linejoin="round" stroke-miterlimit="10" points="
	3.6,21.2 8.5,16.3 13.4,21.2 "/>
</svg>
