<?xml version="1.0" encoding="utf-8"?>
<!-- Generator: Adobe Illustrator 17.1.0, SVG Export Plug-In . SVG Version: 6.00 Build 0)  -->
<!DOCTYPE svg PUBLIC "-//W3C//DTD SVG 1.1//EN" "http://www.w3.org/Graphics/SVG/1.1/DTD/svg11.dtd">
<svg version="1.1" id="Layer_1" xmlns="http://www.w3.org/2000/svg" xmlns:xlink="http://www.w3.org/1999/xlink" x="0px" y="0px"
	 viewBox="0 0 30 30" enable-background="new 0 0 30 30" xml:space="preserve">
<g>
	<path fill-rule="evenodd" clip-rule="evenodd" fill="#555555" d="M15,2.3c-7.2,0-13,5.8-13,13c0,5.7,3.7,10.6,8.9,12.3
		c0.7,0.1,0.9-0.3,0.9-0.6c0-0.3,0-1.1,0-2.2c-3.6,0.8-4.4-1.7-4.4-1.7c-0.6-1.5-1.4-1.9-1.4-1.9C4.8,20.4,6,20.4,6,20.4
		c1.3,0.1,2,1.3,2,1.3c1.2,2,3,1.4,3.8,1.1c0.1-0.8,0.5-1.4,0.8-1.7c-2.9-0.3-5.9-1.4-5.9-6.4c0-1.4,0.5-2.6,1.3-3.5
		c-0.1-0.3-0.6-1.7,0.1-3.4c0,0,1.1-0.3,3.6,1.3c1-0.3,2.1-0.4,3.3-0.4c1.1,0,2.2,0.1,3.3,0.4c2.5-1.7,3.6-1.3,3.6-1.3
		c0.7,1.8,0.3,3.1,0.1,3.4c0.8,0.9,1.3,2.1,1.3,3.5c0,5-3,6.1-5.9,6.4c0.5,0.4,0.9,1.2,0.9,2.4c0,1.7,0,3.1,0,3.6
		c0,0.3,0.2,0.8,0.9,0.6c5.2-1.7,8.9-6.6,8.9-12.3C28,8.1,22.2,2.3,15,2.3z"/>
</g>
</svg>
