<?xml version="1.0" encoding="utf-8"?>
<!-- Generator: Adobe Illustrator 18.0.0, SVG Export Plug-In . SVG Version: 6.00 Build 0)  -->
<!DOCTYPE svg PUBLIC "-//W3C//DTD SVG 1.1 Tiny//EN" "http://www.w3.org/Graphics/SVG/1.1/DTD/svg11-tiny.dtd">
<svg version="1.1" baseProfile="tiny" id="Layer_1" xmlns="http://www.w3.org/2000/svg" xmlns:xlink="http://www.w3.org/1999/xlink"
	 x="0px" y="0px" viewBox="0 0 30 30" xml:space="preserve">
<polygon fill="none" stroke="#555555" stroke-width="2" stroke-linejoin="round" stroke-miterlimit="10" points="16.5,8.6 14.8,5.4 
	4.5,5.4 4.5,22.6 25.5,22.6 25.5,8.6 "/>
<path fill="#FFFFFF" d="M14.8,21.4l-5-5C9.5,16.2,9.3,16,9,15.8c-0.6-0.3-1.3-0.3-1.9,0c-0.3,0.1-0.6,0.3-0.8,0.5l-5,5
	c-0.5,0.5-0.7,1.1-0.7,1.8s0.3,1.3,0.7,1.8c0.9,0.9,2.6,0.9,3.5,0l0.7-0.7V27c0,1.4,1.1,2.5,2.5,2.5s2.5-1.1,2.5-2.5v-2.9l0.7,0.7
	c0.9,0.9,2.6,0.9,3.5,0c0.5-0.5,0.7-1.1,0.7-1.8S15.2,21.9,14.8,21.4z"/>
<g>
	<g>
		
			<line fill="none" stroke="#47C8F5" stroke-width="2" stroke-linecap="round" stroke-linejoin="round" stroke-miterlimit="10" x1="8" y1="18.2" x2="8" y2="27"/>
	</g>
</g>
<polyline fill="none" stroke="#47C8F5" stroke-width="2" stroke-linecap="round" stroke-linejoin="round" stroke-miterlimit="10" points="
	3.1,23.1 8,18.2 12.9,23.1 "/>
</svg>
