<?xml version="1.0" encoding="utf-8"?>
<!-- Generator: Adobe Illustrator 18.0.0, SVG Export Plug-In . SVG Version: 6.00 Build 0)  -->
<!DOCTYPE svg PUBLIC "-//W3C//DTD SVG 1.1//EN" "http://www.w3.org/Graphics/SVG/1.1/DTD/svg11.dtd">
<svg version="1.1" id="Layer_1" xmlns="http://www.w3.org/2000/svg" xmlns:xlink="http://www.w3.org/1999/xlink" x="0px" y="0px"
	 viewBox="0 0 30 30" enable-background="new 0 0 30 30" xml:space="preserve">
<g id="file_new_1_">
	<g>
		<polygon fill="none" stroke="#565656" stroke-width="2" stroke-linejoin="round" stroke-miterlimit="10" points="23.5,24.9 
			8.5,24.9 8.5,3.7 15.3,3.7 23.5,11.8 		"/>
		<polygon fill="none" stroke="#565656" stroke-width="2" stroke-linejoin="round" stroke-miterlimit="10" points="23.5,11.8 
			15.3,11.8 15.3,3.7 		"/>
	</g>
</g>
<polygon fill="#FFFFFF" points="17.4,20.7 15.8,16 11,17.6 11,12.9 6,12.9 6,17.6 1.2,16 0,20.7 4.6,22.4 1.5,26.9 5.6,29.7 
	8.5,26.1 11.4,29.7 15.5,26.9 12.4,22.4 "/>
<g>
	<line fill="none" stroke="#47C8F5" stroke-width="2" stroke-miterlimit="10" x1="8.5" y1="21.1" x2="8.5" y2="15.4"/>
	<line fill="none" stroke="#47C8F5" stroke-width="2" stroke-miterlimit="10" x1="8.5" y1="21.1" x2="14.2" y2="19.2"/>
	<line fill="none" stroke="#47C8F5" stroke-width="2" stroke-miterlimit="10" x1="8.5" y1="21.1" x2="12" y2="26.3"/>
	<line fill="none" stroke="#47C8F5" stroke-width="2" stroke-miterlimit="10" x1="8.5" y1="21.1" x2="2.8" y2="19.2"/>
	<line fill="none" stroke="#47C8F5" stroke-width="2" stroke-miterlimit="10" x1="8.5" y1="21.1" x2="5" y2="26.3"/>
</g>
</svg>
