<svg id="Layer_1" data-name="Layer 1" xmlns="http://www.w3.org/2000/svg" viewBox="0 0 60 60"><title>icons-stacks</title><rect x="78.346" y="10.904" width="33.166" height="33.166" rx="6.242" ry="6.242" transform="translate(-14.534 -62.901) rotate(50)" fill="#87a0d8" stroke="#52306c" stroke-linecap="round" stroke-linejoin="round" stroke-width="2"/><path d="M102.253,10.418L83.368,17.292a6.613,6.613,0,0,0-3.952,8.476l5.8,15.948,3.653,4.353a6.242,6.242,0,0,0,8.794.769L113.51,33.543a6.242,6.242,0,0,0,.769-8.794Z" transform="translate(-69.5 0)" opacity="0.15"/><rect x="84.309" y="13.875" width="33.166" height="33.166" rx="6.242" ry="6.242" transform="matrix(0.342, 0.94, -0.94, 0.342, 25.506, -74.767)" fill="#45bf93" stroke="#52306c" stroke-linecap="round" stroke-linejoin="round" stroke-width="2"/><path d="M113.7,17.154H94.063a6.616,6.616,0,0,0-6.616,6.616V42l1.4,3.844a6.242,6.242,0,0,0,8,3.731L116.282,42.5a6.242,6.242,0,0,0,3.731-8Z" transform="translate(-69.5 0)" opacity="0.15"/><rect x="89.434" y="18.893" width="33.166" height="33.166" rx="6.242" ry="6.242" transform="translate(71.994 -70.541) rotate(90)" fill="#b1d676" stroke="#52306c" stroke-linecap="round" stroke-linejoin="round" stroke-width="2"/><path d="M92.517,25.333a3.109,3.109,0,0,1,3.109-3.109H99.5" transform="translate(-69.5 0)" fill="none" stroke="#fff" stroke-linecap="round" stroke-miterlimit="10" opacity="0.4"/><line x1="23.017" y1="28.834" x2="23.017" y2="27.58" fill="none" stroke="#fff" stroke-linecap="round" stroke-miterlimit="10" opacity="0.4"/><rect width="60" height="60" fill="none"/><path d="M106.015,47.448a1.845,1.845,0,0,1-.921-0.246l-2.93-1.733c-0.437-.244-0.224-0.331-0.079-0.381a5.889,5.889,0,0,0,1.325-.6,0.226,0.226,0,0,1,.218.016l2.25,1.336a0.287,0.287,0,0,0,.272,0l8.774-5.064a0.276,0.276,0,0,0,.134-0.237V30.41a0.284,0.284,0,0,0-.136-0.242l-8.77-5.059a0.274,0.274,0,0,0-.27,0L97.114,30.17a0.283,0.283,0,0,0-.139.24V40.535a0.267,0.267,0,0,0,.138.234l2.4,1.389c1.3,0.651,2.1-.117,2.1-0.888v-10a0.253,0.253,0,0,1,.255-0.253h1.112a0.253,0.253,0,0,1,.254.253v10a2.432,2.432,0,0,1-2.6,2.738,3.759,3.759,0,0,1-2.021-.548l-2.3-1.325a1.852,1.852,0,0,1-.92-1.6V30.41a1.849,1.849,0,0,1,.921-1.6l8.774-5.07a1.922,1.922,0,0,1,1.844,0l8.772,5.07a1.853,1.853,0,0,1,.922,1.6V40.535a1.855,1.855,0,0,1-.922,1.6L106.939,47.2a1.842,1.842,0,0,1-.924.247h0Zm2.71-6.976c-3.839,0-4.643-1.762-4.643-3.24a0.252,0.252,0,0,1,.254-0.253h1.134a0.255,0.255,0,0,1,.252.215c0.171,1.155.682,1.738,3,1.738,1.848,0,2.635-.418,2.635-1.4,0-.565-0.223-0.985-3.1-1.267-2.4-.237-3.885-0.768-3.885-2.688,0-1.769,1.492-2.826,3.994-2.826,2.81,0,4.2.975,4.378,3.068a0.253,0.253,0,0,1-.252.276h-1.139a0.253,0.253,0,0,1-.246-0.2c-0.273-1.215-.938-1.6-2.74-1.6-2.018,0-2.253.7-2.253,1.229,0,0.638.277,0.824,3,1.185,2.7,0.357,3.977.861,3.977,2.757C113.1,39.377,111.5,40.472,108.724,40.472Z" transform="translate(-69.5 0)" fill="#6c7f47"/></svg>