<svg id="Layer_1" data-name="Layer 1" xmlns="http://www.w3.org/2000/svg" viewBox="0 0 60 60"><title>icons-github-bot</title><path d="M186.908,40.973a21.655,21.655,0,1,0-5.516,6.2l3.573,0.957,4.158,1.114-1.114-4.158Z" transform="translate(-138.333 0)" fill="#3ccb5a"/><path d="M187.443,27.516A21.594,21.594,0,0,1,165.849,49.11c-5.583,0-9.662-1.144-13.495-4.622a21.513,21.513,0,0,0,15.979,7.106,19.779,19.779,0,0,0,13.239-4.434c0.844-.7,7.551,2.081,7.551,2.081s-2.8-7.033-2.2-7.952a19.516,19.516,0,0,0,3-11.288,21.513,21.513,0,0,0-7.105-15.979C186.3,17.854,187.443,21.933,187.443,27.516Z" transform="translate(-138.333 0)" opacity="0.15"/><path d="M163.685,12.606A18.027,18.027,0,0,0,150.7,26.38" transform="translate(-138.333 0)" fill="none" stroke="#fff" stroke-linecap="round" stroke-linejoin="round" stroke-width="1.073" opacity="0.4"/><rect width="60" height="60" fill="none"/><g id="Octicons"><g id="mark-github"><path id="Shape" d="M168.168,18.021a12,12,0,0,0-3.8,23.385,0.607,0.607,0,0,0,.825-0.57c0-.285-0.015-1.23-0.015-2.235-3.015.555-3.8-.735-4.035-1.41a4.364,4.364,0,0,0-1.23-1.7c-0.42-.225-1.02-0.78-0.015-0.795a2.4,2.4,0,0,1,1.845,1.23,2.565,2.565,0,0,0,3.5.99,2.524,2.524,0,0,1,.765-1.605c-2.67-.3-5.46-1.335-5.46-5.925a4.67,4.67,0,0,1,1.23-3.225,4.312,4.312,0,0,1,.12-3.18s1-.315,3.3,1.23a11.314,11.314,0,0,1,6,0c2.295-1.56,3.3-1.23,3.3-1.23a4.312,4.312,0,0,1,.12,3.18,4.643,4.643,0,0,1,1.23,3.225c0,4.6-2.8,5.625-5.475,5.925a2.842,2.842,0,0,1,.81,2.22c0,1.6-.015,2.895-0.015,3.3a0.6,0.6,0,0,0,.825.57,12.006,12.006,0,0,0-3.825-23.385h0Z" transform="translate(-138.333 0)" fill="#fff"/></g></g><path d="M186.908,40.973a21.655,21.655,0,1,0-5.516,6.2l3.573,0.957,4.158,1.114-1.114-4.158Z" transform="translate(-138.333 0)" fill="none" stroke="#52306c" stroke-linecap="round" stroke-linejoin="round" stroke-width="2"/></svg>