<svg id="Layer_1" data-name="Layer 1" xmlns="http://www.w3.org/2000/svg" viewBox="0 0 60 60"><title>icons-branches</title><rect x="220.184" y="13.075" width="33.85" height="33.85" rx="3.465" ry="3.465" transform="translate(-117.339 -158.875) rotate(45)" fill="#dbdbdb" stroke="#52306c" stroke-linecap="round" stroke-linejoin="round" stroke-width="2"/><rect width="60" height="60" fill="none"/><g opacity="0.15"><circle cx="41.935" cy="42.826" r="11.153"/></g><path d="M243.163,23.169a2.734,2.734,0,0,1,2.737,2.807,2.612,2.612,0,0,1-.4,1.391,2.849,2.849,0,0,1-1.018.972l-0.005.39a5.963,5.963,0,0,1-5.615,5.471,3.006,3.006,0,0,0-1.3.232,2.247,2.247,0,0,0-.831.628,2.8,2.8,0,0,1-.114,3.852,2.772,2.772,0,0,1-4.716-2.03,2.617,2.617,0,0,1,.4-1.393,2.865,2.865,0,0,1,1.02-.972l0.117-9.07a2.869,2.869,0,0,1-.994-1,2.612,2.612,0,0,1-.361-1.4,2.771,2.771,0,1,1,5.542.072,2.624,2.624,0,0,1-.4,1.391,2.869,2.869,0,0,1-1.02.973l-0.085,6.559a5.692,5.692,0,0,1,2.779-.592,2.977,2.977,0,0,0,2.807-2.735l0.005-.389a2.865,2.865,0,0,1-.993-1,2.612,2.612,0,0,1-.361-1.4,2.734,2.734,0,0,1,2.805-2.735V23.169ZM233.889,22.1a1.363,1.363,0,1,0,1.948.025A1.359,1.359,0,0,0,233.889,22.1Zm1.744,15.83a1.365,1.365,0,1,0-1.948-.025A1.359,1.359,0,0,0,235.633,37.926Zm8.456-10.977a1.364,1.364,0,1,0-1.947-.025A1.357,1.357,0,0,0,244.089,26.948Z" transform="translate(-208)" fill="#52306c"/><circle cx="42.72" cy="43.611" r="10.369" fill="#3ccb5a" stroke="#52306c" stroke-linecap="round" stroke-linejoin="round" stroke-width="2"/><path d="M243.176,41.918a7.522,7.522,0,0,1,7.367-6" transform="translate(-208)" fill="none" stroke="#fff" stroke-linecap="round" stroke-linejoin="round" stroke-width="1.073" opacity="0.4"/><path d="M255.086,42.661h-3.034a0.383,0.383,0,0,1-.383-0.383V39.244a0.383,0.383,0,0,0-.383-0.383h-1.134a0.383,0.383,0,0,0-.383.383v3.034a0.383,0.383,0,0,1-.383.383h-3.034a0.383,0.383,0,0,0-.383.383v1.134a0.383,0.383,0,0,0,.383.383h3.034a0.383,0.383,0,0,1,.383.383v3.034a0.383,0.383,0,0,0,.383.383h1.134a0.383,0.383,0,0,0,.383-0.383V44.943a0.383,0.383,0,0,1,.383-0.383h3.034a0.383,0.383,0,0,0,.383-0.383V43.043A0.383,0.383,0,0,0,255.086,42.661Z" transform="translate(-208)" fill="#fff"/></svg>