<svg id="Layer_1" data-name="Layer 1" xmlns="http://www.w3.org/2000/svg" viewBox="0 0 60 60"><title>icons-github-bot</title><circle cx="29.835" cy="30" r="23.884" fill="#ccadd2" stroke="#52306c" stroke-linecap="round" stroke-linejoin="round" stroke-width="2"/><g opacity="0.15"><path d="M183.961,11.947a23.876,23.876,0,0,1-33.68,33.68A23.878,23.878,0,1,0,183.961,11.947Z" transform="translate(-138.333 0)"/></g><path d="M157.126,13.557a18.016,18.016,0,0,0-7.836,11.481" transform="translate(-138.333 0)" fill="none" stroke="#fff" stroke-linecap="round" stroke-linejoin="round" stroke-width="1.073" opacity="0.4"/><path d="M162.278,11.264a17.866,17.866,0,0,0-2.679.948" transform="translate(-138.333 0)" fill="none" stroke="#fff" stroke-linecap="round" stroke-linejoin="round" stroke-width="1.073" opacity="0.4"/><rect width="60" height="60" fill="none"/><g id="Octicons" opacity="0.5"><g id="mark-github"><path id="Shape" d="M168.168,15.935a14.421,14.421,0,0,0-4.561,28.1,0.729,0.729,0,0,0,.991-0.685c0-.342-0.018-1.478-0.018-2.686-3.623.667-4.561-.883-4.849-1.694a5.244,5.244,0,0,0-1.478-2.037c-0.5-.27-1.226-0.937-0.018-0.955a2.886,2.886,0,0,1,2.217,1.478,3.082,3.082,0,0,0,4.2,1.19,3.033,3.033,0,0,1,.919-1.929c-3.209-.361-6.561-1.6-6.561-7.12a5.612,5.612,0,0,1,1.478-3.876,5.182,5.182,0,0,1,.144-3.822s1.208-.379,3.966,1.478a13.6,13.6,0,0,1,7.21,0c2.758-1.875,3.966-1.478,3.966-1.478a5.182,5.182,0,0,1,.144,3.822A5.58,5.58,0,0,1,177.4,29.6c0,5.534-3.371,6.76-6.58,7.12a3.415,3.415,0,0,1,.973,2.668c0,1.929-.018,3.479-0.018,3.966a0.723,0.723,0,0,0,.991.685,14.428,14.428,0,0,0-4.6-28.1h0Z" transform="translate(-138.333 0)" fill="#52306c"/></g></g></svg>