<svg xmlns="http://www.w3.org/2000/svg" viewBox="0 0 60 60"><title>icons-branches</title><g style="isolation:isolate"><g id="Layer_1" data-name="Layer 1"><rect x="9.897" y="13.075" width="33.85" height="33.85" rx="3.465" ry="3.465" transform="translate(28.872 -10.179) rotate(45)" fill="#dbdbdb" stroke="#52306c" stroke-linecap="round" stroke-linejoin="round" stroke-width="2"/><rect width="60" height="60" fill="none"/><g opacity="0.15"><circle cx="39.739" cy="43.114" r="10.866"/></g><path d="M32.876,23.169a2.734,2.734,0,0,1,2.737,2.807,2.612,2.612,0,0,1-.4,1.391,2.849,2.849,0,0,1-1.018.972l-0.005.39A5.963,5.963,0,0,1,28.577,34.2a3.006,3.006,0,0,0-1.3.232,2.247,2.247,0,0,0-.831.628,2.8,2.8,0,0,1-.114,3.852,2.772,2.772,0,0,1-4.716-2.03,2.617,2.617,0,0,1,.4-1.393,2.865,2.865,0,0,1,1.02-.972l0.117-9.07a2.869,2.869,0,0,1-.994-1,2.612,2.612,0,0,1-.361-1.4,2.771,2.771,0,1,1,5.542.072,2.624,2.624,0,0,1-.4,1.391,2.869,2.869,0,0,1-1.02.973l-0.085,6.559a5.692,5.692,0,0,1,2.779-.592,2.977,2.977,0,0,0,2.807-2.735l0.005-.389a2.865,2.865,0,0,1-.993-1,2.612,2.612,0,0,1-.361-1.4,2.734,2.734,0,0,1,2.805-2.735V23.169ZM23.6,22.1a1.363,1.363,0,1,0,1.948.025A1.359,1.359,0,0,0,23.6,22.1Zm1.744,15.83A1.365,1.365,0,1,0,23.4,37.9,1.359,1.359,0,0,0,25.346,37.926ZM33.8,26.948a1.364,1.364,0,1,0-1.947-.025A1.357,1.357,0,0,0,33.8,26.948Z" transform="translate(-0.197)" fill="#52306c"/><path d="M40.432,53.479A9.869,9.869,0,1,1,50.3,43.61,9.881,9.881,0,0,1,40.432,53.479Z" transform="translate(-0.197)" fill="#3ccb5a"/><path d="M40.432,34.242a9.369,9.369,0,1,1-9.369,9.369,9.38,9.38,0,0,1,9.369-9.369m0-1A10.369,10.369,0,1,0,50.8,43.611,10.369,10.369,0,0,0,40.432,33.242h0Z" transform="translate(-0.197)" fill="#52306c"/><path d="M32.889,41.918a7.522,7.522,0,0,1,7.367-6" transform="translate(-0.197)" fill="none" stroke="#fff" stroke-linecap="round" stroke-linejoin="round" stroke-width="1.073" opacity="0.4"/><path d="M44.8,42.661H41.765a0.383,0.383,0,0,1-.383-0.383V39.244A0.383,0.383,0,0,0,41,38.861H39.865a0.383,0.383,0,0,0-.383.383v3.034a0.383,0.383,0,0,1-.383.383H36.066a0.383,0.383,0,0,0-.383.383v1.134a0.383,0.383,0,0,0,.383.383H39.1a0.383,0.383,0,0,1,.383.383v3.034a0.383,0.383,0,0,0,.383.383H41a0.383,0.383,0,0,0,.383-0.383V44.943a0.383,0.383,0,0,1,.383-0.383H44.8a0.383,0.383,0,0,0,.383-0.383V43.043A0.383,0.383,0,0,0,44.8,42.661Z" transform="translate(-0.197)" fill="#93002a" opacity="0.15" style="mix-blend-mode:multiply"/></g></g></svg>