<svg class="text-awesome" data-name="Layer 1" xmlns="http://www.w3.org/2000/svg" viewBox="0 0 165.427 31.245"><title>text-awesome</title><path d="M25.829,44.655a33.238,33.238,0,0,1-2.856,4.307q-2.769,3.428-5.493,3.428a4.091,4.091,0,0,1-3.691-2.241,6.758,6.758,0,0,1-.835-3.428,23.579,23.579,0,0,1,3.076-10.766A28.439,28.439,0,0,1,24.291,25.89,10.507,10.507,0,0,1,30.4,23.605a4.347,4.347,0,0,1,3.076,1.143,3.094,3.094,0,0,1,1.055,2.285,7.324,7.324,0,0,1-.747,2.681,2.933,2.933,0,0,1,.659,1.626,7.38,7.38,0,0,1-1.23,3.032,33.817,33.817,0,0,0-2.549,5.712A19.029,19.029,0,0,0,29.3,46.149a4.287,4.287,0,0,0,1.1,3.032,8.28,8.28,0,0,0,1.8,1.011,1.879,1.879,0,0,1,1.1,1.846,1.711,1.711,0,0,1-.615,1.362,2.276,2.276,0,0,1-1.538.571,5.123,5.123,0,0,1-4.087-2.109,6.563,6.563,0,0,1-1.406-4.307Q25.653,46.676,25.829,44.655ZM31.322,30.2a4.351,4.351,0,0,0-1.143-1.428,2.153,2.153,0,0,0-1.318-.462q-3.34,0-7.251,5.845Q17.3,40.611,17.3,45.094a2.805,2.805,0,0,0,.417,1.67,1.451,1.451,0,0,0,1.252.571q2.109,0,4.922-4.482a74.311,74.311,0,0,0,3.911-7.25,38.3,38.3,0,0,1,2.241-4.131A6.409,6.409,0,0,1,31.322,30.2Z" transform="translate(-12.953 -22.726)"/><path d="M49.909,39.645q-3.78,5.1-5.581,7.031a35.2,35.2,0,0,1-3.867,3.691,5.91,5.91,0,0,1-3.428,1.362,2.6,2.6,0,0,1-2.373-1.538A5.337,5.337,0,0,1,34,47.555q0-4.79,5.713-13.183,5.185-7.6,7.69-7.6a1.892,1.892,0,0,1,1.714,1.8q0,0.967-1.714,2.681a40.05,40.05,0,0,0-6.328,8.129q-2.285,3.867-2.285,5.054a0.741,0.741,0,0,0,.791.879q2.637,0,11.426-11.425,2.856-3.691,3.472-4.263a3.443,3.443,0,0,1,2.329-1.055,2.169,2.169,0,0,1,1.362.439,1.257,1.257,0,0,1,.483.923,22.417,22.417,0,0,1-2.109,4.438q-4.79,8.437-4.79,11.381a0.926,0.926,0,0,0,.923,1.143q1.582,0,4.351-3.647a39.843,39.843,0,0,0,4.878-8.7,31.988,31.988,0,0,0,1.714-6.021q0.879-4.263,3.516-4.263a1.4,1.4,0,0,1,1.494,1.67q0,5.757-6.416,15.82-6.68,10.5-11.25,10.5-3.385,0-3.384-4.175A20.912,20.912,0,0,1,49.909,39.645Z" transform="translate(-12.953 -22.726)"/><path d="M70.591,43.468v0.791a2.871,2.871,0,0,0,.483,1.67,4.03,4.03,0,0,0,3.6,1.626q5.493,0,12.7-8.437a3.4,3.4,0,0,1,2.153-1.45,1.273,1.273,0,0,1,1.143,1.143q0,1.714-4.219,5.8a31.767,31.767,0,0,1-7.031,5.229,14.728,14.728,0,0,1-6.943,2.021,6.367,6.367,0,0,1-5.186-2.285A6.675,6.675,0,0,1,66.02,45.27q0-7.427,6.987-14.545,5.669-5.8,9.888-5.8a3.324,3.324,0,0,1,2.065.7A2.958,2.958,0,0,1,86.1,28.044a11.33,11.33,0,0,1-2.153,5.713A22.912,22.912,0,0,1,70.591,43.468Zm0.967-3.428a17.67,17.67,0,0,0,4.834-2.373,19.524,19.524,0,0,0,4.878-5.361,3.67,3.67,0,0,0,.659-1.89,0.758,0.758,0,0,0-.835-0.879q-1.143,0-3.252,1.714A22.49,22.49,0,0,0,71.558,40.04Z" transform="translate(-12.953 -22.726)"/><path d="M107.153,22.726a7.071,7.071,0,0,1,4.087.967,3.37,3.37,0,0,1,1.362,2.944,7.937,7.937,0,0,1-1.934,5.01,12.76,12.76,0,0,1-5.537,3.691,10.162,10.162,0,0,1-3.384.747q-1.846,0-1.846-1.626a1.808,1.808,0,0,1,1.055-1.67q0.264-.132,2.988-0.747a6.651,6.651,0,0,0,2.988-1.538,2.889,2.889,0,0,0,1.187-2.2,1.673,1.673,0,0,0-.527-1.362,2.426,2.426,0,0,0-1.582-.439,10.337,10.337,0,0,0-5.625,2.065q-3.56,2.329-3.56,5.537,0,2.285,2.329,5.712,2.593,3.735,2.593,6.328a6.85,6.85,0,0,1-3.428,6.064,8.637,8.637,0,0,1-4.79,1.362,7.427,7.427,0,0,1-6.416-3.032,8.54,8.54,0,0,1-1.538-5.1,9.285,9.285,0,0,1,1.758-5.757,3.108,3.108,0,0,1,2.373-1.538,0.888,0.888,0,0,1,1.1.879,2.492,2.492,0,0,1-.4,1.055A9.271,9.271,0,0,0,89.4,44.523a4.889,4.889,0,0,0,1.538,3.647,4.361,4.361,0,0,0,3.12,1.318,3.322,3.322,0,0,0,2.681-1.143,3.759,3.759,0,0,0,.791-2.461q0-1.846-2.109-4.79-2.9-4.043-2.9-7.338,0-4.395,4.79-7.778A16.914,16.914,0,0,1,107.153,22.726Z" transform="translate(-12.953 -22.726)"/><path d="M125,23.561q3.6,0,3.6,4.395,0,5.845-5.405,14.809-5.889,9.712-11.382,9.712a3.924,3.924,0,0,1-3.735-2.373,6.138,6.138,0,0,1-.615-2.856q0-5.625,3.867-12.216a29.572,29.572,0,0,1,8.481-9.492A9.381,9.381,0,0,1,125,23.561Zm-4.57,16.611a2.407,2.407,0,0,1-1.1-1.362,5.963,5.963,0,0,1,1.406-1.933q3.955-4.438,3.955-7.163a1.318,1.318,0,0,0-.22-0.7,1.164,1.164,0,0,0-1.1-.659q-1.407,0-4.131,2.725a27.72,27.72,0,0,0-5.361,7.25,16.6,16.6,0,0,0-2.153,7.075,2.259,2.259,0,0,0,.4,1.318,1.723,1.723,0,0,0,1.45.791q2.109,0,4.526-3.164a13.618,13.618,0,0,0,1.714-2.725A8.3,8.3,0,0,0,120.434,40.172Z" transform="translate(-12.953 -22.726)"/><path d="M133.477,37.272a63.012,63.012,0,0,1,6.5-6.064q4.262-3.3,5.713-3.3a1.687,1.687,0,0,1,1.23.527,1.47,1.47,0,0,1,.483,1.055,5.653,5.653,0,0,1-1.538,2.725,24.58,24.58,0,0,0-3.3,5.1q10.283-10.327,14.063-10.327a2.04,2.04,0,0,1,1.362.483,1.665,1.665,0,0,1,.615,1.318q0,1.23-1.89,3.164-8.306,8.569-8.306,14.062a5.1,5.1,0,0,0,.791,3.208l1.143,1.45a1.465,1.465,0,0,1,.352,1.011A1.914,1.914,0,0,1,150.132,53a2,2,0,0,1-1.494.7,3.375,3.375,0,0,1-2.681-1.846,9,9,0,0,1-1.494-5.186,16.474,16.474,0,0,1,2.285-8.086,32.823,32.823,0,0,1,2.637-3.867,42.4,42.4,0,0,0-7.6,7.734,45.146,45.146,0,0,0-4.746,7.471q-1.011,1.978-2.373,1.978a1.4,1.4,0,0,1-1.494-1.67q0-1.8,2.461-7.427a67.677,67.677,0,0,1,3.472-6.767,35.1,35.1,0,0,0-11.294,15.732q-0.923,2.2-2.461,2.2a1.418,1.418,0,0,1-1.143-.527,1.819,1.819,0,0,1-.483-1.274q0-2.593,2.9-9.36a77.2,77.2,0,0,1,6.855-12.875q2.637-4,4.087-4a1.206,1.206,0,0,1,1.318,1.406,9.386,9.386,0,0,1-1.626,3.076A53.887,53.887,0,0,0,133.477,37.272Z" transform="translate(-12.953 -22.726)"/><path d="M158.3,43.468v0.791a2.871,2.871,0,0,0,.483,1.67,4.03,4.03,0,0,0,3.6,1.626q5.493,0,12.7-8.437a3.4,3.4,0,0,1,2.153-1.45,1.273,1.273,0,0,1,1.143,1.143q0,1.714-4.218,5.8a31.767,31.767,0,0,1-7.031,5.229,14.728,14.728,0,0,1-6.943,2.021A6.367,6.367,0,0,1,155,49.576a6.675,6.675,0,0,1-1.274-4.307q0-7.427,6.987-14.545,5.669-5.8,9.888-5.8a3.324,3.324,0,0,1,2.065.7,2.958,2.958,0,0,1,1.143,2.417,11.33,11.33,0,0,1-2.153,5.713A22.912,22.912,0,0,1,158.3,43.468Zm0.967-3.428a17.67,17.67,0,0,0,4.834-2.373,19.524,19.524,0,0,0,4.878-5.361,3.67,3.67,0,0,0,.659-1.89,0.758,0.758,0,0,0-.835-0.879q-1.143,0-3.252,1.714A22.49,22.49,0,0,0,159.265,40.04Z" transform="translate(-12.953 -22.726)"/></svg>